G04 #@! TF.GenerationSoftware,KiCad,Pcbnew,5.1.5+dfsg1-2build2*
G04 #@! TF.CreationDate,2021-06-16T02:42:27+02:00*
G04 #@! TF.ProjectId,circuit9,63697263-7569-4743-992e-6b696361645f,rev?*
G04 #@! TF.SameCoordinates,Original*
G04 #@! TF.FileFunction,Copper,L2,Bot*
G04 #@! TF.FilePolarity,Positive*
%FSLAX46Y46*%
G04 Gerber Fmt 4.6, Leading zero omitted, Abs format (unit mm)*
G04 Created by KiCad (PCBNEW 5.1.5+dfsg1-2build2) date 2021-06-16 02:42:27*
%MOMM*%
%LPD*%
G04 APERTURE LIST*
%ADD10O,1.700000X1.700000*%
%ADD11R,1.700000X1.700000*%
%ADD12C,0.100000*%
%ADD13R,6.000000X3.000000*%
%ADD14C,0.800000*%
%ADD15C,1.700000*%
%ADD16C,0.800000*%
%ADD17C,1.000000*%
%ADD18C,0.400000*%
%ADD19C,0.250000*%
%ADD20C,0.254000*%
G04 APERTURE END LIST*
D10*
X61620400Y-35217100D03*
X59080400Y-35217100D03*
X56540400Y-35217100D03*
D11*
X54000400Y-35217100D03*
D10*
X51460400Y-35217100D03*
X48920400Y-35217100D03*
X46380400Y-35217100D03*
X43840400Y-35217100D03*
X41300400Y-35217100D03*
X38760400Y-35217100D03*
X36220400Y-35217100D03*
X33680400Y-35217100D03*
X31140400Y-35217100D03*
X28600400Y-35217100D03*
X26060400Y-35217100D03*
G04 #@! TA.AperFunction,SMDPad,CuDef*
D12*
G36*
X50345200Y-40374000D02*
G01*
X49845200Y-40374000D01*
X49845200Y-40373398D01*
X49820666Y-40373398D01*
X49771835Y-40368588D01*
X49723710Y-40359016D01*
X49676755Y-40344772D01*
X49631422Y-40325995D01*
X49588149Y-40302864D01*
X49547350Y-40275604D01*
X49509421Y-40244476D01*
X49474724Y-40209779D01*
X49443596Y-40171850D01*
X49416336Y-40131051D01*
X49393205Y-40087778D01*
X49374428Y-40042445D01*
X49360184Y-39995490D01*
X49350612Y-39947365D01*
X49345802Y-39898534D01*
X49345802Y-39874000D01*
X49345200Y-39874000D01*
X49345200Y-39374000D01*
X49345802Y-39374000D01*
X49345802Y-39349466D01*
X49350612Y-39300635D01*
X49360184Y-39252510D01*
X49374428Y-39205555D01*
X49393205Y-39160222D01*
X49416336Y-39116949D01*
X49443596Y-39076150D01*
X49474724Y-39038221D01*
X49509421Y-39003524D01*
X49547350Y-38972396D01*
X49588149Y-38945136D01*
X49631422Y-38922005D01*
X49676755Y-38903228D01*
X49723710Y-38888984D01*
X49771835Y-38879412D01*
X49820666Y-38874602D01*
X49845200Y-38874602D01*
X49845200Y-38874000D01*
X50345200Y-38874000D01*
X50345200Y-40374000D01*
G37*
G04 #@! TD.AperFunction*
G04 #@! TA.AperFunction,SMDPad,CuDef*
G36*
X51145200Y-38874602D02*
G01*
X51169734Y-38874602D01*
X51218565Y-38879412D01*
X51266690Y-38888984D01*
X51313645Y-38903228D01*
X51358978Y-38922005D01*
X51402251Y-38945136D01*
X51443050Y-38972396D01*
X51480979Y-39003524D01*
X51515676Y-39038221D01*
X51546804Y-39076150D01*
X51574064Y-39116949D01*
X51597195Y-39160222D01*
X51615972Y-39205555D01*
X51630216Y-39252510D01*
X51639788Y-39300635D01*
X51644598Y-39349466D01*
X51644598Y-39374000D01*
X51645200Y-39374000D01*
X51645200Y-39874000D01*
X51644598Y-39874000D01*
X51644598Y-39898534D01*
X51639788Y-39947365D01*
X51630216Y-39995490D01*
X51615972Y-40042445D01*
X51597195Y-40087778D01*
X51574064Y-40131051D01*
X51546804Y-40171850D01*
X51515676Y-40209779D01*
X51480979Y-40244476D01*
X51443050Y-40275604D01*
X51402251Y-40302864D01*
X51358978Y-40325995D01*
X51313645Y-40344772D01*
X51266690Y-40359016D01*
X51218565Y-40368588D01*
X51169734Y-40373398D01*
X51145200Y-40373398D01*
X51145200Y-40374000D01*
X50645200Y-40374000D01*
X50645200Y-38874000D01*
X51145200Y-38874000D01*
X51145200Y-38874602D01*
G37*
G04 #@! TD.AperFunction*
D10*
X26060400Y-50457100D03*
X28600400Y-50457100D03*
X31140400Y-50457100D03*
X33680400Y-50457100D03*
X36220400Y-50457100D03*
X38760400Y-50457100D03*
X41300400Y-50457100D03*
X43840400Y-50457100D03*
X46380400Y-50457100D03*
X48920400Y-50457100D03*
X51460400Y-50457100D03*
X54000400Y-50457100D03*
X56540400Y-50457100D03*
D11*
X59080400Y-50457100D03*
D10*
X61620400Y-50457100D03*
D13*
X67254000Y-27127200D03*
X26654000Y-27127200D03*
X61654000Y-27127200D03*
X32254000Y-27127200D03*
D10*
X69291200Y-40690800D03*
X69291200Y-38150800D03*
X69291200Y-35610800D03*
G04 #@! TA.AperFunction,SMDPad,CuDef*
D12*
G36*
X50710400Y-47409200D02*
G01*
X50710400Y-46909200D01*
X50711002Y-46909200D01*
X50711002Y-46884666D01*
X50715812Y-46835835D01*
X50725384Y-46787710D01*
X50739628Y-46740755D01*
X50758405Y-46695422D01*
X50781536Y-46652149D01*
X50808796Y-46611350D01*
X50839924Y-46573421D01*
X50874621Y-46538724D01*
X50912550Y-46507596D01*
X50953349Y-46480336D01*
X50996622Y-46457205D01*
X51041955Y-46438428D01*
X51088910Y-46424184D01*
X51137035Y-46414612D01*
X51185866Y-46409802D01*
X51210400Y-46409802D01*
X51210400Y-46409200D01*
X51710400Y-46409200D01*
X51710400Y-46409802D01*
X51734934Y-46409802D01*
X51783765Y-46414612D01*
X51831890Y-46424184D01*
X51878845Y-46438428D01*
X51924178Y-46457205D01*
X51967451Y-46480336D01*
X52008250Y-46507596D01*
X52046179Y-46538724D01*
X52080876Y-46573421D01*
X52112004Y-46611350D01*
X52139264Y-46652149D01*
X52162395Y-46695422D01*
X52181172Y-46740755D01*
X52195416Y-46787710D01*
X52204988Y-46835835D01*
X52209798Y-46884666D01*
X52209798Y-46909200D01*
X52210400Y-46909200D01*
X52210400Y-47409200D01*
X50710400Y-47409200D01*
G37*
G04 #@! TD.AperFunction*
G04 #@! TA.AperFunction,SMDPad,CuDef*
G36*
X52209798Y-48209200D02*
G01*
X52209798Y-48233734D01*
X52204988Y-48282565D01*
X52195416Y-48330690D01*
X52181172Y-48377645D01*
X52162395Y-48422978D01*
X52139264Y-48466251D01*
X52112004Y-48507050D01*
X52080876Y-48544979D01*
X52046179Y-48579676D01*
X52008250Y-48610804D01*
X51967451Y-48638064D01*
X51924178Y-48661195D01*
X51878845Y-48679972D01*
X51831890Y-48694216D01*
X51783765Y-48703788D01*
X51734934Y-48708598D01*
X51710400Y-48708598D01*
X51710400Y-48709200D01*
X51210400Y-48709200D01*
X51210400Y-48708598D01*
X51185866Y-48708598D01*
X51137035Y-48703788D01*
X51088910Y-48694216D01*
X51041955Y-48679972D01*
X50996622Y-48661195D01*
X50953349Y-48638064D01*
X50912550Y-48610804D01*
X50874621Y-48579676D01*
X50839924Y-48544979D01*
X50808796Y-48507050D01*
X50781536Y-48466251D01*
X50758405Y-48422978D01*
X50739628Y-48377645D01*
X50725384Y-48330690D01*
X50715812Y-48282565D01*
X50711002Y-48233734D01*
X50711002Y-48209200D01*
X50710400Y-48209200D01*
X50710400Y-47709200D01*
X52210400Y-47709200D01*
X52210400Y-48209200D01*
X52209798Y-48209200D01*
G37*
G04 #@! TD.AperFunction*
D10*
X69291200Y-45872400D03*
D11*
X69291200Y-48412400D03*
D10*
X69291200Y-50952400D03*
X26060400Y-52984400D03*
X28600400Y-52984400D03*
X31140400Y-52984400D03*
X33680400Y-52984400D03*
X36220400Y-52984400D03*
X38760400Y-52984400D03*
X41300400Y-52984400D03*
X43840400Y-52984400D03*
X46380400Y-52984400D03*
X48920400Y-52984400D03*
X51460400Y-52984400D03*
X54000400Y-52984400D03*
X56540400Y-52984400D03*
X59080400Y-52984400D03*
X61620400Y-52984400D03*
D11*
X64160400Y-52984400D03*
X66700400Y-52984400D03*
D14*
X35179000Y-41107360D03*
X38100000Y-41554400D03*
X40386000Y-41554400D03*
X42672000Y-41554400D03*
X44958000Y-41554400D03*
X53136800Y-42875200D03*
X29679900Y-41544240D03*
X31948120Y-41549320D03*
X31094680Y-41554400D03*
X28803600Y-41554400D03*
X64008000Y-38404800D03*
X64770000Y-48463200D03*
X36677600Y-39878000D03*
X36677600Y-45262800D03*
X47040800Y-39624000D03*
X55016400Y-44295999D03*
X66141600Y-43078400D03*
X67818000Y-44754800D03*
X66141600Y-41630600D03*
X33459600Y-42824400D03*
X33459600Y-39809600D03*
X51460400Y-44348400D03*
X53289200Y-39624000D03*
D15*
X33254000Y-27127200D02*
X25654000Y-27127200D01*
D16*
X36677600Y-39878000D02*
X36677600Y-45262800D01*
X36677600Y-45262800D02*
X36677600Y-45262800D01*
D17*
X49845200Y-39624000D02*
X47040800Y-39624000D01*
X47040800Y-39624000D02*
X47040800Y-39624000D01*
D18*
X55016400Y-44295999D02*
X55016400Y-44348400D01*
X55250401Y-51734399D02*
X54850399Y-52134401D01*
X55250401Y-45095685D02*
X55250401Y-51734399D01*
X55016400Y-44861684D02*
X55250401Y-45095685D01*
X54850399Y-52134401D02*
X54000400Y-52984400D01*
X55016400Y-44295999D02*
X55016400Y-44861684D01*
D15*
X54000400Y-52984400D02*
X56540400Y-52984400D01*
D19*
X51460400Y-50457100D02*
X51460400Y-48198800D01*
X66141600Y-43078400D02*
X67818000Y-44754800D01*
X69291200Y-45872400D02*
X69342000Y-45872400D01*
X69291200Y-44780200D02*
X69291200Y-45872400D01*
X66141600Y-41630600D02*
X69291200Y-44780200D01*
X29788101Y-51632101D02*
X25496399Y-51632101D01*
X31140400Y-52984400D02*
X29788101Y-51632101D01*
X25496399Y-51632101D02*
X24885399Y-51021101D01*
X27750401Y-36067099D02*
X28600400Y-35217100D01*
X24885399Y-38932101D02*
X27750401Y-36067099D01*
X24885399Y-51021101D02*
X24885399Y-38932101D01*
D16*
X33459600Y-42824400D02*
X33459600Y-39809600D01*
X33459600Y-39809600D02*
X33459600Y-39809600D01*
D18*
X51460400Y-46909200D02*
X51460400Y-44348400D01*
D17*
X51145200Y-39624000D02*
X53289200Y-39624000D01*
X53289200Y-39624000D02*
X53289200Y-39624000D01*
D20*
G36*
X56443506Y-24733699D02*
G01*
X56429351Y-24754180D01*
X56416285Y-24788884D01*
X55959085Y-26897084D01*
X55956219Y-26921814D01*
X55958198Y-26946436D01*
X56313798Y-28927636D01*
X56320577Y-28951592D01*
X56331899Y-28973765D01*
X56343223Y-28988830D01*
X57232223Y-30004830D01*
X57250375Y-30021869D01*
X57278686Y-30038319D01*
X59640886Y-31028919D01*
X59671415Y-31037433D01*
X63964015Y-31672433D01*
X63987596Y-31673702D01*
X67213396Y-31546702D01*
X67239202Y-31543008D01*
X69677602Y-30933408D01*
X69710082Y-30920311D01*
X70212000Y-30631852D01*
X70212000Y-34654939D01*
X70137113Y-34580052D01*
X69919770Y-34434828D01*
X69678272Y-34334796D01*
X69421898Y-34283800D01*
X69160502Y-34283800D01*
X68904128Y-34334796D01*
X68662630Y-34434828D01*
X68445287Y-34580052D01*
X68260452Y-34764887D01*
X68115228Y-34982230D01*
X68015196Y-35223728D01*
X67964200Y-35480102D01*
X67964200Y-35741498D01*
X68015196Y-35997872D01*
X68115228Y-36239370D01*
X68260452Y-36456713D01*
X68445287Y-36641548D01*
X68662630Y-36786772D01*
X68889633Y-36880800D01*
X68662630Y-36974828D01*
X68445287Y-37120052D01*
X68260452Y-37304887D01*
X68115228Y-37522230D01*
X68015196Y-37763728D01*
X67964200Y-38020102D01*
X67964200Y-38281498D01*
X68015196Y-38537872D01*
X68115228Y-38779370D01*
X68260452Y-38996713D01*
X68445287Y-39181548D01*
X68662630Y-39326772D01*
X68889633Y-39420800D01*
X68662630Y-39514828D01*
X68445287Y-39660052D01*
X68260452Y-39844887D01*
X68115228Y-40062230D01*
X68015196Y-40303728D01*
X67964200Y-40560102D01*
X67964200Y-40821498D01*
X68015196Y-41077872D01*
X68115228Y-41319370D01*
X68260452Y-41536713D01*
X68445287Y-41721548D01*
X68662630Y-41866772D01*
X68904128Y-41966804D01*
X69160502Y-42017800D01*
X69421898Y-42017800D01*
X69678272Y-41966804D01*
X69919770Y-41866772D01*
X70137113Y-41721548D01*
X70212001Y-41646660D01*
X70212001Y-44916540D01*
X70137113Y-44841652D01*
X69919770Y-44696428D01*
X69886504Y-44682649D01*
X69884489Y-44662188D01*
X69850066Y-44548710D01*
X69794166Y-44444129D01*
X69718937Y-44352463D01*
X69695973Y-44333617D01*
X67018600Y-41656245D01*
X67018600Y-41544223D01*
X66984897Y-41374789D01*
X66918787Y-41215185D01*
X66822810Y-41071545D01*
X66700655Y-40949390D01*
X66557015Y-40853413D01*
X66397411Y-40787303D01*
X66227977Y-40753600D01*
X66055223Y-40753600D01*
X65885789Y-40787303D01*
X65726185Y-40853413D01*
X65582545Y-40949390D01*
X65460390Y-41071545D01*
X65364413Y-41215185D01*
X65298303Y-41374789D01*
X65264600Y-41544223D01*
X65264600Y-41716977D01*
X65298303Y-41886411D01*
X65364413Y-42046015D01*
X65460390Y-42189655D01*
X65582545Y-42311810D01*
X65646435Y-42354500D01*
X65582545Y-42397190D01*
X65460390Y-42519345D01*
X65364413Y-42662985D01*
X65298303Y-42822589D01*
X65264600Y-42992023D01*
X65264600Y-43164777D01*
X65298303Y-43334211D01*
X65364413Y-43493815D01*
X65460390Y-43637455D01*
X65582545Y-43759610D01*
X65726185Y-43855587D01*
X65885789Y-43921697D01*
X66055223Y-43955400D01*
X66167245Y-43955400D01*
X66941000Y-44729156D01*
X66941000Y-44841177D01*
X66974703Y-45010611D01*
X67040813Y-45170215D01*
X67136790Y-45313855D01*
X67258945Y-45436010D01*
X67402585Y-45531987D01*
X67562189Y-45598097D01*
X67731623Y-45631800D01*
X67904377Y-45631800D01*
X67989426Y-45614882D01*
X67964200Y-45741702D01*
X67964200Y-46003098D01*
X68015196Y-46259472D01*
X68115228Y-46500970D01*
X68260452Y-46718313D01*
X68445287Y-46903148D01*
X68662630Y-47048372D01*
X68904128Y-47148404D01*
X69160502Y-47199400D01*
X69421898Y-47199400D01*
X69678272Y-47148404D01*
X69919770Y-47048372D01*
X70137113Y-46903148D01*
X70212001Y-46828260D01*
X70212001Y-49996540D01*
X70137113Y-49921652D01*
X69919770Y-49776428D01*
X69678272Y-49676396D01*
X69421898Y-49625400D01*
X69160502Y-49625400D01*
X68904128Y-49676396D01*
X68662630Y-49776428D01*
X68445287Y-49921652D01*
X68260452Y-50106487D01*
X68115228Y-50323830D01*
X68015196Y-50565328D01*
X67964200Y-50821702D01*
X67964200Y-51083098D01*
X68015196Y-51339472D01*
X68115228Y-51580970D01*
X68260452Y-51798313D01*
X68445287Y-51983148D01*
X68606176Y-52090651D01*
X68558476Y-52122523D01*
X68403923Y-52277076D01*
X68282492Y-52458811D01*
X68198849Y-52660744D01*
X68156208Y-52875115D01*
X68156208Y-53093685D01*
X68198849Y-53308056D01*
X68282492Y-53509989D01*
X68403923Y-53691724D01*
X68558476Y-53846277D01*
X68684675Y-53930600D01*
X62550861Y-53930600D01*
X62651148Y-53830313D01*
X62796372Y-53612970D01*
X62896404Y-53371472D01*
X62947400Y-53115098D01*
X62947400Y-52853702D01*
X62896404Y-52597328D01*
X62796372Y-52355830D01*
X62651148Y-52138487D01*
X62466313Y-51953652D01*
X62248970Y-51808428D01*
X62037297Y-51720750D01*
X62248970Y-51633072D01*
X62466313Y-51487848D01*
X62651148Y-51303013D01*
X62796372Y-51085670D01*
X62896404Y-50844172D01*
X62947400Y-50587798D01*
X62947400Y-50326402D01*
X62896404Y-50070028D01*
X62796372Y-49828530D01*
X62651148Y-49611187D01*
X62466313Y-49426352D01*
X62248970Y-49281128D01*
X62007472Y-49181096D01*
X61751098Y-49130100D01*
X61489702Y-49130100D01*
X61233328Y-49181096D01*
X60991830Y-49281128D01*
X60774487Y-49426352D01*
X60589652Y-49611187D01*
X60444428Y-49828530D01*
X60409707Y-49912354D01*
X60409707Y-49607100D01*
X60400497Y-49513592D01*
X60373222Y-49423677D01*
X60328929Y-49340811D01*
X60269321Y-49268179D01*
X60196689Y-49208571D01*
X60113823Y-49164278D01*
X60023908Y-49137003D01*
X59930400Y-49127793D01*
X58230400Y-49127793D01*
X58136892Y-49137003D01*
X58046977Y-49164278D01*
X57964111Y-49208571D01*
X57891479Y-49268179D01*
X57831871Y-49340811D01*
X57787578Y-49423677D01*
X57760303Y-49513592D01*
X57751093Y-49607100D01*
X57751093Y-49912354D01*
X57716372Y-49828530D01*
X57571148Y-49611187D01*
X57386313Y-49426352D01*
X57168970Y-49281128D01*
X56927472Y-49181096D01*
X56671098Y-49130100D01*
X56409702Y-49130100D01*
X56153328Y-49181096D01*
X55927401Y-49274678D01*
X55927401Y-45128926D01*
X55930675Y-45095684D01*
X55927401Y-45062442D01*
X55927401Y-45062433D01*
X55917605Y-44962970D01*
X55878893Y-44835355D01*
X55816029Y-44717744D01*
X55799372Y-44697448D01*
X55859697Y-44551810D01*
X55893400Y-44382376D01*
X55893400Y-44209622D01*
X55859697Y-44040188D01*
X55793587Y-43880584D01*
X55697610Y-43736944D01*
X55575455Y-43614789D01*
X55431815Y-43518812D01*
X55272211Y-43452702D01*
X55102777Y-43418999D01*
X54930023Y-43418999D01*
X54760589Y-43452702D01*
X54600985Y-43518812D01*
X54457345Y-43614789D01*
X54335190Y-43736944D01*
X54239213Y-43880584D01*
X54173103Y-44040188D01*
X54139400Y-44209622D01*
X54139400Y-44382376D01*
X54173103Y-44551810D01*
X54239213Y-44711414D01*
X54335190Y-44855054D01*
X54336636Y-44856500D01*
X54336126Y-44861684D01*
X54339400Y-44894929D01*
X54339400Y-44894936D01*
X54349196Y-44994399D01*
X54387908Y-45122014D01*
X54450772Y-45239625D01*
X54469792Y-45262800D01*
X54511429Y-45313534D01*
X54535374Y-45342711D01*
X54561201Y-45363907D01*
X54573401Y-45376107D01*
X54573402Y-49258111D01*
X54387472Y-49181096D01*
X54131098Y-49130100D01*
X53869702Y-49130100D01*
X53613328Y-49181096D01*
X53371830Y-49281128D01*
X53154487Y-49426352D01*
X52969652Y-49611187D01*
X52824428Y-49828530D01*
X52730400Y-50055533D01*
X52636372Y-49828530D01*
X52491148Y-49611187D01*
X52306313Y-49426352D01*
X52088970Y-49281128D01*
X52062400Y-49270122D01*
X52062400Y-49120786D01*
X52129519Y-49092985D01*
X52212388Y-49048691D01*
X52293887Y-48994235D01*
X52366519Y-48934627D01*
X52435827Y-48865319D01*
X52495435Y-48792687D01*
X52549891Y-48711188D01*
X52594185Y-48628319D01*
X52631694Y-48537763D01*
X52658968Y-48447850D01*
X52678090Y-48351717D01*
X52687300Y-48258209D01*
X52687300Y-48233648D01*
X52689708Y-48209200D01*
X52689708Y-47709200D01*
X52680498Y-47615692D01*
X52663362Y-47559200D01*
X52680498Y-47502708D01*
X52689708Y-47409200D01*
X52689708Y-46909200D01*
X52687300Y-46884752D01*
X52687300Y-46860191D01*
X52678090Y-46766683D01*
X52658968Y-46670550D01*
X52631694Y-46580637D01*
X52594185Y-46490081D01*
X52549891Y-46407212D01*
X52495435Y-46325713D01*
X52435827Y-46253081D01*
X52366519Y-46183773D01*
X52293887Y-46124165D01*
X52212388Y-46069709D01*
X52137400Y-46029627D01*
X52137400Y-44911665D01*
X52141610Y-44907455D01*
X52237587Y-44763815D01*
X52303697Y-44604211D01*
X52337400Y-44434777D01*
X52337400Y-44262023D01*
X52303697Y-44092589D01*
X52237587Y-43932985D01*
X52141610Y-43789345D01*
X52019455Y-43667190D01*
X51875815Y-43571213D01*
X51716211Y-43505103D01*
X51546777Y-43471400D01*
X51374023Y-43471400D01*
X51204589Y-43505103D01*
X51044985Y-43571213D01*
X50901345Y-43667190D01*
X50779190Y-43789345D01*
X50683213Y-43932985D01*
X50617103Y-44092589D01*
X50583400Y-44262023D01*
X50583400Y-44434777D01*
X50617103Y-44604211D01*
X50683213Y-44763815D01*
X50779190Y-44907455D01*
X50783401Y-44911666D01*
X50783400Y-46029627D01*
X50708412Y-46069709D01*
X50626913Y-46124165D01*
X50554281Y-46183773D01*
X50484973Y-46253081D01*
X50425365Y-46325713D01*
X50370909Y-46407212D01*
X50326615Y-46490081D01*
X50289106Y-46580637D01*
X50261832Y-46670550D01*
X50242710Y-46766683D01*
X50233500Y-46860191D01*
X50233500Y-46884752D01*
X50231092Y-46909200D01*
X50231092Y-47409200D01*
X50240302Y-47502708D01*
X50257438Y-47559200D01*
X50240302Y-47615692D01*
X50231092Y-47709200D01*
X50231092Y-48209200D01*
X50233500Y-48233648D01*
X50233500Y-48258209D01*
X50242710Y-48351717D01*
X50261832Y-48447850D01*
X50289106Y-48537763D01*
X50326615Y-48628319D01*
X50370909Y-48711188D01*
X50425365Y-48792687D01*
X50484973Y-48865319D01*
X50554281Y-48934627D01*
X50626913Y-48994235D01*
X50708412Y-49048691D01*
X50791281Y-49092985D01*
X50858401Y-49120786D01*
X50858401Y-49270122D01*
X50831830Y-49281128D01*
X50614487Y-49426352D01*
X50429652Y-49611187D01*
X50284428Y-49828530D01*
X50190400Y-50055533D01*
X50096372Y-49828530D01*
X49951148Y-49611187D01*
X49766313Y-49426352D01*
X49548970Y-49281128D01*
X49307472Y-49181096D01*
X49051098Y-49130100D01*
X48789702Y-49130100D01*
X48533328Y-49181096D01*
X48291830Y-49281128D01*
X48074487Y-49426352D01*
X47889652Y-49611187D01*
X47744428Y-49828530D01*
X47650400Y-50055533D01*
X47556372Y-49828530D01*
X47411148Y-49611187D01*
X47226313Y-49426352D01*
X47008970Y-49281128D01*
X46767472Y-49181096D01*
X46511098Y-49130100D01*
X46249702Y-49130100D01*
X45993328Y-49181096D01*
X45751830Y-49281128D01*
X45534487Y-49426352D01*
X45349652Y-49611187D01*
X45204428Y-49828530D01*
X45110400Y-50055533D01*
X45016372Y-49828530D01*
X44871148Y-49611187D01*
X44686313Y-49426352D01*
X44468970Y-49281128D01*
X44227472Y-49181096D01*
X43971098Y-49130100D01*
X43709702Y-49130100D01*
X43453328Y-49181096D01*
X43211830Y-49281128D01*
X42994487Y-49426352D01*
X42809652Y-49611187D01*
X42664428Y-49828530D01*
X42570400Y-50055533D01*
X42476372Y-49828530D01*
X42331148Y-49611187D01*
X42146313Y-49426352D01*
X41928970Y-49281128D01*
X41687472Y-49181096D01*
X41431098Y-49130100D01*
X41169702Y-49130100D01*
X40913328Y-49181096D01*
X40671830Y-49281128D01*
X40454487Y-49426352D01*
X40269652Y-49611187D01*
X40124428Y-49828530D01*
X40030400Y-50055533D01*
X39936372Y-49828530D01*
X39791148Y-49611187D01*
X39606313Y-49426352D01*
X39388970Y-49281128D01*
X39147472Y-49181096D01*
X38891098Y-49130100D01*
X38629702Y-49130100D01*
X38373328Y-49181096D01*
X38131830Y-49281128D01*
X37914487Y-49426352D01*
X37729652Y-49611187D01*
X37584428Y-49828530D01*
X37490400Y-50055533D01*
X37396372Y-49828530D01*
X37251148Y-49611187D01*
X37066313Y-49426352D01*
X36848970Y-49281128D01*
X36607472Y-49181096D01*
X36351098Y-49130100D01*
X36147533Y-49130100D01*
X34954272Y-47351057D01*
X34930773Y-47324798D01*
X33127373Y-45800798D01*
X33106874Y-45786670D01*
X33083962Y-45776796D01*
X31471078Y-45262800D01*
X35796357Y-45262800D01*
X35800600Y-45305879D01*
X35800600Y-45349177D01*
X35809047Y-45391642D01*
X35813290Y-45434722D01*
X35825856Y-45476148D01*
X35834303Y-45518611D01*
X35850871Y-45558611D01*
X35863438Y-45600037D01*
X35883845Y-45638215D01*
X35900413Y-45678215D01*
X35924466Y-45714213D01*
X35944873Y-45752392D01*
X35972337Y-45785857D01*
X35996390Y-45821855D01*
X36027003Y-45852468D01*
X36054467Y-45885933D01*
X36087932Y-45913397D01*
X36118545Y-45944010D01*
X36154543Y-45968063D01*
X36188008Y-45995527D01*
X36226187Y-46015934D01*
X36262185Y-46039987D01*
X36302185Y-46056555D01*
X36340363Y-46076962D01*
X36381789Y-46089529D01*
X36421789Y-46106097D01*
X36464252Y-46114544D01*
X36505678Y-46127110D01*
X36548758Y-46131353D01*
X36591223Y-46139800D01*
X36634521Y-46139800D01*
X36677600Y-46144043D01*
X36720679Y-46139800D01*
X36763977Y-46139800D01*
X36806442Y-46131353D01*
X36849522Y-46127110D01*
X36890948Y-46114544D01*
X36933411Y-46106097D01*
X36973411Y-46089529D01*
X37014837Y-46076962D01*
X37053015Y-46056555D01*
X37093015Y-46039987D01*
X37129013Y-46015934D01*
X37167192Y-45995527D01*
X37200657Y-45968063D01*
X37236655Y-45944010D01*
X37267268Y-45913397D01*
X37300733Y-45885933D01*
X37328197Y-45852468D01*
X37358810Y-45821855D01*
X37382863Y-45785857D01*
X37410327Y-45752392D01*
X37430734Y-45714213D01*
X37454787Y-45678215D01*
X37471355Y-45638215D01*
X37491762Y-45600037D01*
X37504329Y-45558611D01*
X37520897Y-45518611D01*
X37529344Y-45476148D01*
X37541910Y-45434722D01*
X37546153Y-45391642D01*
X37554600Y-45349177D01*
X37554600Y-45305879D01*
X37558843Y-45262800D01*
X37554600Y-45219721D01*
X37554600Y-39791623D01*
X37546153Y-39749158D01*
X37541910Y-39706078D01*
X37529344Y-39664652D01*
X37521258Y-39624000D01*
X46059073Y-39624000D01*
X46077937Y-39815525D01*
X46133803Y-39999691D01*
X46224524Y-40169418D01*
X46346614Y-40318186D01*
X46495382Y-40440276D01*
X46665109Y-40530997D01*
X46849275Y-40586863D01*
X46992807Y-40601000D01*
X49190998Y-40601000D01*
X49261713Y-40659035D01*
X49343212Y-40713491D01*
X49426081Y-40757785D01*
X49516637Y-40795294D01*
X49606550Y-40822568D01*
X49702683Y-40841690D01*
X49796191Y-40850900D01*
X49820752Y-40850900D01*
X49845200Y-40853308D01*
X50345200Y-40853308D01*
X50438708Y-40844098D01*
X50495200Y-40826962D01*
X50551692Y-40844098D01*
X50645200Y-40853308D01*
X51145200Y-40853308D01*
X51169648Y-40850900D01*
X51194209Y-40850900D01*
X51287717Y-40841690D01*
X51383850Y-40822568D01*
X51473763Y-40795294D01*
X51564319Y-40757785D01*
X51647188Y-40713491D01*
X51728687Y-40659035D01*
X51799402Y-40601000D01*
X53337193Y-40601000D01*
X53480725Y-40586863D01*
X53664891Y-40530997D01*
X53834618Y-40440276D01*
X53983386Y-40318186D01*
X54105476Y-40169418D01*
X54196197Y-39999691D01*
X54252063Y-39815525D01*
X54270927Y-39624000D01*
X54252063Y-39432475D01*
X54196197Y-39248309D01*
X54105476Y-39078582D01*
X53983386Y-38929814D01*
X53834618Y-38807724D01*
X53664891Y-38717003D01*
X53480725Y-38661137D01*
X53337193Y-38647000D01*
X51799402Y-38647000D01*
X51728687Y-38588965D01*
X51647188Y-38534509D01*
X51564319Y-38490215D01*
X51473763Y-38452706D01*
X51383850Y-38425432D01*
X51287717Y-38406310D01*
X51194209Y-38397100D01*
X51169648Y-38397100D01*
X51145200Y-38394692D01*
X50645200Y-38394692D01*
X50551692Y-38403902D01*
X50495200Y-38421038D01*
X50438708Y-38403902D01*
X50345200Y-38394692D01*
X49845200Y-38394692D01*
X49820752Y-38397100D01*
X49796191Y-38397100D01*
X49702683Y-38406310D01*
X49606550Y-38425432D01*
X49516637Y-38452706D01*
X49426081Y-38490215D01*
X49343212Y-38534509D01*
X49261713Y-38588965D01*
X49190998Y-38647000D01*
X46992807Y-38647000D01*
X46849275Y-38661137D01*
X46665109Y-38717003D01*
X46495382Y-38807724D01*
X46346614Y-38929814D01*
X46224524Y-39078582D01*
X46133803Y-39248309D01*
X46077937Y-39432475D01*
X46059073Y-39624000D01*
X37521258Y-39624000D01*
X37520897Y-39622189D01*
X37504329Y-39582189D01*
X37491762Y-39540763D01*
X37471355Y-39502585D01*
X37454787Y-39462585D01*
X37430734Y-39426587D01*
X37410327Y-39388408D01*
X37382863Y-39354943D01*
X37358810Y-39318945D01*
X37328197Y-39288332D01*
X37300733Y-39254867D01*
X37267269Y-39227404D01*
X37236655Y-39196790D01*
X37200653Y-39172734D01*
X37167191Y-39145273D01*
X37129017Y-39124869D01*
X37093015Y-39100813D01*
X37053011Y-39084243D01*
X37014836Y-39063838D01*
X36973414Y-39051273D01*
X36933411Y-39034703D01*
X36890945Y-39026256D01*
X36849521Y-39013690D01*
X36806443Y-39009447D01*
X36763977Y-39001000D01*
X36720679Y-39001000D01*
X36677600Y-38996757D01*
X36634521Y-39001000D01*
X36591223Y-39001000D01*
X36548758Y-39009447D01*
X36505678Y-39013690D01*
X36464252Y-39026256D01*
X36421789Y-39034703D01*
X36381789Y-39051271D01*
X36340363Y-39063838D01*
X36302185Y-39084245D01*
X36262185Y-39100813D01*
X36226187Y-39124866D01*
X36188008Y-39145273D01*
X36154543Y-39172737D01*
X36118545Y-39196790D01*
X36087932Y-39227403D01*
X36054467Y-39254867D01*
X36027004Y-39288331D01*
X35996390Y-39318945D01*
X35972334Y-39354947D01*
X35944873Y-39388409D01*
X35924469Y-39426583D01*
X35900413Y-39462585D01*
X35883843Y-39502589D01*
X35863438Y-39540764D01*
X35850873Y-39582186D01*
X35834303Y-39622189D01*
X35825856Y-39664655D01*
X35813290Y-39706079D01*
X35809047Y-39749157D01*
X35800600Y-39791623D01*
X35800600Y-39834922D01*
X35800601Y-45176418D01*
X35800600Y-45176423D01*
X35800600Y-45219721D01*
X35796357Y-45262800D01*
X31471078Y-45262800D01*
X30772562Y-45040196D01*
X30747530Y-45034923D01*
X27902730Y-44730123D01*
X27871239Y-44730676D01*
X25559839Y-45060876D01*
X25530633Y-45068683D01*
X25487399Y-45085977D01*
X25487399Y-39809600D01*
X32578357Y-39809600D01*
X32582600Y-39852679D01*
X32582600Y-39895977D01*
X32582601Y-39895982D01*
X32582600Y-42738023D01*
X32582600Y-42910777D01*
X32591047Y-42953243D01*
X32595290Y-42996321D01*
X32607856Y-43037745D01*
X32616303Y-43080211D01*
X32632873Y-43120214D01*
X32645438Y-43161636D01*
X32665843Y-43199811D01*
X32682413Y-43239815D01*
X32706469Y-43275817D01*
X32726873Y-43313991D01*
X32754334Y-43347453D01*
X32778390Y-43383455D01*
X32809004Y-43414069D01*
X32836467Y-43447533D01*
X32869932Y-43474997D01*
X32900545Y-43505610D01*
X32936543Y-43529663D01*
X32970008Y-43557127D01*
X33008187Y-43577534D01*
X33044185Y-43601587D01*
X33084185Y-43618155D01*
X33122363Y-43638562D01*
X33163789Y-43651129D01*
X33203789Y-43667697D01*
X33246252Y-43676144D01*
X33287678Y-43688710D01*
X33330758Y-43692953D01*
X33373223Y-43701400D01*
X33416521Y-43701400D01*
X33459600Y-43705643D01*
X33502679Y-43701400D01*
X33545977Y-43701400D01*
X33588443Y-43692953D01*
X33631521Y-43688710D01*
X33672945Y-43676144D01*
X33715411Y-43667697D01*
X33755414Y-43651127D01*
X33796836Y-43638562D01*
X33835011Y-43618157D01*
X33875015Y-43601587D01*
X33911017Y-43577531D01*
X33949191Y-43557127D01*
X33982653Y-43529666D01*
X34018655Y-43505610D01*
X34049269Y-43474996D01*
X34082733Y-43447533D01*
X34110197Y-43414068D01*
X34140810Y-43383455D01*
X34164863Y-43347457D01*
X34192327Y-43313992D01*
X34212734Y-43275813D01*
X34236787Y-43239815D01*
X34253355Y-43199815D01*
X34273762Y-43161637D01*
X34286329Y-43120211D01*
X34302897Y-43080211D01*
X34311344Y-43037748D01*
X34323910Y-42996322D01*
X34328153Y-42953242D01*
X34336600Y-42910777D01*
X34336600Y-39852679D01*
X34340843Y-39809600D01*
X34336600Y-39766521D01*
X34336600Y-39723223D01*
X34328153Y-39680758D01*
X34323910Y-39637678D01*
X34311344Y-39596252D01*
X34302897Y-39553789D01*
X34286329Y-39513789D01*
X34273762Y-39472363D01*
X34253355Y-39434185D01*
X34236787Y-39394185D01*
X34212734Y-39358187D01*
X34192327Y-39320008D01*
X34164863Y-39286543D01*
X34140810Y-39250545D01*
X34110197Y-39219932D01*
X34082733Y-39186467D01*
X34049268Y-39159003D01*
X34018655Y-39128390D01*
X33982657Y-39104337D01*
X33949192Y-39076873D01*
X33911013Y-39056466D01*
X33875015Y-39032413D01*
X33835015Y-39015845D01*
X33796837Y-38995438D01*
X33755411Y-38982871D01*
X33715411Y-38966303D01*
X33672948Y-38957856D01*
X33631522Y-38945290D01*
X33588442Y-38941047D01*
X33545977Y-38932600D01*
X33502679Y-38932600D01*
X33459600Y-38928357D01*
X33416521Y-38932600D01*
X33373223Y-38932600D01*
X33330758Y-38941047D01*
X33287678Y-38945290D01*
X33246252Y-38957856D01*
X33203789Y-38966303D01*
X33163789Y-38982871D01*
X33122363Y-38995438D01*
X33084185Y-39015845D01*
X33044185Y-39032413D01*
X33008187Y-39056466D01*
X32970008Y-39076873D01*
X32936543Y-39104337D01*
X32900545Y-39128390D01*
X32869932Y-39159003D01*
X32836467Y-39186467D01*
X32809003Y-39219932D01*
X32778390Y-39250545D01*
X32754337Y-39286543D01*
X32726873Y-39320008D01*
X32706466Y-39358187D01*
X32682413Y-39394185D01*
X32665845Y-39434185D01*
X32645438Y-39472363D01*
X32632871Y-39513789D01*
X32616303Y-39553789D01*
X32607856Y-39596252D01*
X32595290Y-39637678D01*
X32591047Y-39680758D01*
X32582600Y-39723223D01*
X32582600Y-39766521D01*
X32578357Y-39809600D01*
X25487399Y-39809600D01*
X25487399Y-39181456D01*
X28186758Y-36482098D01*
X28213328Y-36493104D01*
X28469702Y-36544100D01*
X28731098Y-36544100D01*
X28987472Y-36493104D01*
X29228970Y-36393072D01*
X29446313Y-36247848D01*
X29631148Y-36063013D01*
X29776372Y-35845670D01*
X29870400Y-35618667D01*
X29964428Y-35845670D01*
X30109652Y-36063013D01*
X30294487Y-36247848D01*
X30511830Y-36393072D01*
X30753328Y-36493104D01*
X31009702Y-36544100D01*
X31271098Y-36544100D01*
X31527472Y-36493104D01*
X31768970Y-36393072D01*
X31986313Y-36247848D01*
X32171148Y-36063013D01*
X32316372Y-35845670D01*
X32410400Y-35618667D01*
X32504428Y-35845670D01*
X32649652Y-36063013D01*
X32834487Y-36247848D01*
X33051830Y-36393072D01*
X33293328Y-36493104D01*
X33549702Y-36544100D01*
X33811098Y-36544100D01*
X34067472Y-36493104D01*
X34308970Y-36393072D01*
X34526313Y-36247848D01*
X34711148Y-36063013D01*
X34856372Y-35845670D01*
X34950400Y-35618667D01*
X35044428Y-35845670D01*
X35189652Y-36063013D01*
X35374487Y-36247848D01*
X35591830Y-36393072D01*
X35833328Y-36493104D01*
X36089702Y-36544100D01*
X36351098Y-36544100D01*
X36607472Y-36493104D01*
X36848970Y-36393072D01*
X37066313Y-36247848D01*
X37251148Y-36063013D01*
X37396372Y-35845670D01*
X37490400Y-35618667D01*
X37584428Y-35845670D01*
X37729652Y-36063013D01*
X37914487Y-36247848D01*
X38131830Y-36393072D01*
X38373328Y-36493104D01*
X38629702Y-36544100D01*
X38891098Y-36544100D01*
X39147472Y-36493104D01*
X39388970Y-36393072D01*
X39606313Y-36247848D01*
X39791148Y-36063013D01*
X39936372Y-35845670D01*
X40030400Y-35618667D01*
X40124428Y-35845670D01*
X40269652Y-36063013D01*
X40454487Y-36247848D01*
X40671830Y-36393072D01*
X40913328Y-36493104D01*
X41169702Y-36544100D01*
X41431098Y-36544100D01*
X41687472Y-36493104D01*
X41928970Y-36393072D01*
X42146313Y-36247848D01*
X42331148Y-36063013D01*
X42476372Y-35845670D01*
X42570400Y-35618667D01*
X42664428Y-35845670D01*
X42809652Y-36063013D01*
X42994487Y-36247848D01*
X43211830Y-36393072D01*
X43453328Y-36493104D01*
X43709702Y-36544100D01*
X43971098Y-36544100D01*
X44227472Y-36493104D01*
X44468970Y-36393072D01*
X44686313Y-36247848D01*
X44871148Y-36063013D01*
X45016372Y-35845670D01*
X45110400Y-35618667D01*
X45204428Y-35845670D01*
X45349652Y-36063013D01*
X45534487Y-36247848D01*
X45751830Y-36393072D01*
X45993328Y-36493104D01*
X46249702Y-36544100D01*
X46511098Y-36544100D01*
X46767472Y-36493104D01*
X47008970Y-36393072D01*
X47226313Y-36247848D01*
X47411148Y-36063013D01*
X47556372Y-35845670D01*
X47650400Y-35618667D01*
X47744428Y-35845670D01*
X47889652Y-36063013D01*
X48074487Y-36247848D01*
X48291830Y-36393072D01*
X48533328Y-36493104D01*
X48789702Y-36544100D01*
X49051098Y-36544100D01*
X49307472Y-36493104D01*
X49548970Y-36393072D01*
X49766313Y-36247848D01*
X49951148Y-36063013D01*
X50096372Y-35845670D01*
X50190400Y-35618667D01*
X50284428Y-35845670D01*
X50429652Y-36063013D01*
X50614487Y-36247848D01*
X50831830Y-36393072D01*
X51073328Y-36493104D01*
X51329702Y-36544100D01*
X51591098Y-36544100D01*
X51847472Y-36493104D01*
X52088970Y-36393072D01*
X52306313Y-36247848D01*
X52491148Y-36063013D01*
X52636372Y-35845670D01*
X52736404Y-35604172D01*
X52787400Y-35347798D01*
X52787400Y-35086402D01*
X55213400Y-35086402D01*
X55213400Y-35347798D01*
X55264396Y-35604172D01*
X55364428Y-35845670D01*
X55509652Y-36063013D01*
X55694487Y-36247848D01*
X55911830Y-36393072D01*
X56153328Y-36493104D01*
X56409702Y-36544100D01*
X56671098Y-36544100D01*
X56927472Y-36493104D01*
X57168970Y-36393072D01*
X57386313Y-36247848D01*
X57571148Y-36063013D01*
X57716372Y-35845670D01*
X57810400Y-35618667D01*
X57904428Y-35845670D01*
X58049652Y-36063013D01*
X58234487Y-36247848D01*
X58451830Y-36393072D01*
X58693328Y-36493104D01*
X58949702Y-36544100D01*
X59211098Y-36544100D01*
X59467472Y-36493104D01*
X59708970Y-36393072D01*
X59926313Y-36247848D01*
X60111148Y-36063013D01*
X60256372Y-35845670D01*
X60350400Y-35618667D01*
X60444428Y-35845670D01*
X60589652Y-36063013D01*
X60774487Y-36247848D01*
X60991830Y-36393072D01*
X61233328Y-36493104D01*
X61489702Y-36544100D01*
X61751098Y-36544100D01*
X62007472Y-36493104D01*
X62248970Y-36393072D01*
X62466313Y-36247848D01*
X62651148Y-36063013D01*
X62796372Y-35845670D01*
X62896404Y-35604172D01*
X62947400Y-35347798D01*
X62947400Y-35086402D01*
X62896404Y-34830028D01*
X62796372Y-34588530D01*
X62651148Y-34371187D01*
X62466313Y-34186352D01*
X62248970Y-34041128D01*
X62007472Y-33941096D01*
X61751098Y-33890100D01*
X61489702Y-33890100D01*
X61233328Y-33941096D01*
X60991830Y-34041128D01*
X60774487Y-34186352D01*
X60589652Y-34371187D01*
X60444428Y-34588530D01*
X60350400Y-34815533D01*
X60256372Y-34588530D01*
X60111148Y-34371187D01*
X59926313Y-34186352D01*
X59708970Y-34041128D01*
X59467472Y-33941096D01*
X59211098Y-33890100D01*
X58949702Y-33890100D01*
X58693328Y-33941096D01*
X58451830Y-34041128D01*
X58234487Y-34186352D01*
X58049652Y-34371187D01*
X57904428Y-34588530D01*
X57810400Y-34815533D01*
X57716372Y-34588530D01*
X57571148Y-34371187D01*
X57386313Y-34186352D01*
X57168970Y-34041128D01*
X56927472Y-33941096D01*
X56671098Y-33890100D01*
X56409702Y-33890100D01*
X56153328Y-33941096D01*
X55911830Y-34041128D01*
X55694487Y-34186352D01*
X55509652Y-34371187D01*
X55364428Y-34588530D01*
X55264396Y-34830028D01*
X55213400Y-35086402D01*
X52787400Y-35086402D01*
X52736404Y-34830028D01*
X52636372Y-34588530D01*
X52491148Y-34371187D01*
X52306313Y-34186352D01*
X52088970Y-34041128D01*
X51847472Y-33941096D01*
X51591098Y-33890100D01*
X51329702Y-33890100D01*
X51073328Y-33941096D01*
X50831830Y-34041128D01*
X50614487Y-34186352D01*
X50429652Y-34371187D01*
X50284428Y-34588530D01*
X50190400Y-34815533D01*
X50096372Y-34588530D01*
X49951148Y-34371187D01*
X49766313Y-34186352D01*
X49548970Y-34041128D01*
X49307472Y-33941096D01*
X49051098Y-33890100D01*
X48789702Y-33890100D01*
X48533328Y-33941096D01*
X48291830Y-34041128D01*
X48074487Y-34186352D01*
X47889652Y-34371187D01*
X47744428Y-34588530D01*
X47650400Y-34815533D01*
X47556372Y-34588530D01*
X47411148Y-34371187D01*
X47226313Y-34186352D01*
X47008970Y-34041128D01*
X46767472Y-33941096D01*
X46511098Y-33890100D01*
X46249702Y-33890100D01*
X45993328Y-33941096D01*
X45751830Y-34041128D01*
X45534487Y-34186352D01*
X45349652Y-34371187D01*
X45204428Y-34588530D01*
X45110400Y-34815533D01*
X45016372Y-34588530D01*
X44871148Y-34371187D01*
X44686313Y-34186352D01*
X44468970Y-34041128D01*
X44227472Y-33941096D01*
X43971098Y-33890100D01*
X43709702Y-33890100D01*
X43453328Y-33941096D01*
X43211830Y-34041128D01*
X42994487Y-34186352D01*
X42809652Y-34371187D01*
X42664428Y-34588530D01*
X42570400Y-34815533D01*
X42476372Y-34588530D01*
X42331148Y-34371187D01*
X42146313Y-34186352D01*
X41928970Y-34041128D01*
X41687472Y-33941096D01*
X41431098Y-33890100D01*
X41169702Y-33890100D01*
X40913328Y-33941096D01*
X40671830Y-34041128D01*
X40454487Y-34186352D01*
X40269652Y-34371187D01*
X40124428Y-34588530D01*
X40030400Y-34815533D01*
X39936372Y-34588530D01*
X39791148Y-34371187D01*
X39606313Y-34186352D01*
X39388970Y-34041128D01*
X39147472Y-33941096D01*
X38891098Y-33890100D01*
X38629702Y-33890100D01*
X38373328Y-33941096D01*
X38131830Y-34041128D01*
X37914487Y-34186352D01*
X37729652Y-34371187D01*
X37584428Y-34588530D01*
X37490400Y-34815533D01*
X37396372Y-34588530D01*
X37251148Y-34371187D01*
X37066313Y-34186352D01*
X36848970Y-34041128D01*
X36607472Y-33941096D01*
X36351098Y-33890100D01*
X36089702Y-33890100D01*
X35833328Y-33941096D01*
X35591830Y-34041128D01*
X35374487Y-34186352D01*
X35189652Y-34371187D01*
X35044428Y-34588530D01*
X34950400Y-34815533D01*
X34856372Y-34588530D01*
X34711148Y-34371187D01*
X34526313Y-34186352D01*
X34308970Y-34041128D01*
X34067472Y-33941096D01*
X33811098Y-33890100D01*
X33549702Y-33890100D01*
X33293328Y-33941096D01*
X33051830Y-34041128D01*
X32834487Y-34186352D01*
X32649652Y-34371187D01*
X32504428Y-34588530D01*
X32410400Y-34815533D01*
X32316372Y-34588530D01*
X32171148Y-34371187D01*
X31986313Y-34186352D01*
X31768970Y-34041128D01*
X31527472Y-33941096D01*
X31271098Y-33890100D01*
X31009702Y-33890100D01*
X30753328Y-33941096D01*
X30511830Y-34041128D01*
X30294487Y-34186352D01*
X30109652Y-34371187D01*
X29964428Y-34588530D01*
X29870400Y-34815533D01*
X29776372Y-34588530D01*
X29631148Y-34371187D01*
X29446313Y-34186352D01*
X29228970Y-34041128D01*
X28987472Y-33941096D01*
X28731098Y-33890100D01*
X28469702Y-33890100D01*
X28213328Y-33941096D01*
X27971830Y-34041128D01*
X27754487Y-34186352D01*
X27569652Y-34371187D01*
X27424428Y-34588530D01*
X27330400Y-34815533D01*
X27236372Y-34588530D01*
X27091148Y-34371187D01*
X26906313Y-34186352D01*
X26688970Y-34041128D01*
X26447472Y-33941096D01*
X26191098Y-33890100D01*
X25929702Y-33890100D01*
X25673328Y-33941096D01*
X25431830Y-34041128D01*
X25214487Y-34186352D01*
X25029652Y-34371187D01*
X24884428Y-34588530D01*
X24784396Y-34830028D01*
X24733400Y-35086402D01*
X24733400Y-35347798D01*
X24784396Y-35604172D01*
X24884428Y-35845670D01*
X25029652Y-36063013D01*
X25214487Y-36247848D01*
X25431830Y-36393072D01*
X25673328Y-36493104D01*
X25929702Y-36544100D01*
X26191098Y-36544100D01*
X26447472Y-36493104D01*
X26491120Y-36475024D01*
X24480628Y-38485517D01*
X24457663Y-38504364D01*
X24438816Y-38527329D01*
X24438815Y-38527330D01*
X24382434Y-38596030D01*
X24326533Y-38700612D01*
X24292111Y-38814089D01*
X24280488Y-38932101D01*
X24283400Y-38961667D01*
X24283399Y-45567576D01*
X23641000Y-45824536D01*
X23641000Y-34341171D01*
X24224386Y-32098782D01*
X25580371Y-29286368D01*
X28553633Y-26489485D01*
X30794316Y-24928560D01*
X34076025Y-23641000D01*
X57369381Y-23641000D01*
X56443506Y-24733699D01*
G37*
X56443506Y-24733699D02*
X56429351Y-24754180D01*
X56416285Y-24788884D01*
X55959085Y-26897084D01*
X55956219Y-26921814D01*
X55958198Y-26946436D01*
X56313798Y-28927636D01*
X56320577Y-28951592D01*
X56331899Y-28973765D01*
X56343223Y-28988830D01*
X57232223Y-30004830D01*
X57250375Y-30021869D01*
X57278686Y-30038319D01*
X59640886Y-31028919D01*
X59671415Y-31037433D01*
X63964015Y-31672433D01*
X63987596Y-31673702D01*
X67213396Y-31546702D01*
X67239202Y-31543008D01*
X69677602Y-30933408D01*
X69710082Y-30920311D01*
X70212000Y-30631852D01*
X70212000Y-34654939D01*
X70137113Y-34580052D01*
X69919770Y-34434828D01*
X69678272Y-34334796D01*
X69421898Y-34283800D01*
X69160502Y-34283800D01*
X68904128Y-34334796D01*
X68662630Y-34434828D01*
X68445287Y-34580052D01*
X68260452Y-34764887D01*
X68115228Y-34982230D01*
X68015196Y-35223728D01*
X67964200Y-35480102D01*
X67964200Y-35741498D01*
X68015196Y-35997872D01*
X68115228Y-36239370D01*
X68260452Y-36456713D01*
X68445287Y-36641548D01*
X68662630Y-36786772D01*
X68889633Y-36880800D01*
X68662630Y-36974828D01*
X68445287Y-37120052D01*
X68260452Y-37304887D01*
X68115228Y-37522230D01*
X68015196Y-37763728D01*
X67964200Y-38020102D01*
X67964200Y-38281498D01*
X68015196Y-38537872D01*
X68115228Y-38779370D01*
X68260452Y-38996713D01*
X68445287Y-39181548D01*
X68662630Y-39326772D01*
X68889633Y-39420800D01*
X68662630Y-39514828D01*
X68445287Y-39660052D01*
X68260452Y-39844887D01*
X68115228Y-40062230D01*
X68015196Y-40303728D01*
X67964200Y-40560102D01*
X67964200Y-40821498D01*
X68015196Y-41077872D01*
X68115228Y-41319370D01*
X68260452Y-41536713D01*
X68445287Y-41721548D01*
X68662630Y-41866772D01*
X68904128Y-41966804D01*
X69160502Y-42017800D01*
X69421898Y-42017800D01*
X69678272Y-41966804D01*
X69919770Y-41866772D01*
X70137113Y-41721548D01*
X70212001Y-41646660D01*
X70212001Y-44916540D01*
X70137113Y-44841652D01*
X69919770Y-44696428D01*
X69886504Y-44682649D01*
X69884489Y-44662188D01*
X69850066Y-44548710D01*
X69794166Y-44444129D01*
X69718937Y-44352463D01*
X69695973Y-44333617D01*
X67018600Y-41656245D01*
X67018600Y-41544223D01*
X66984897Y-41374789D01*
X66918787Y-41215185D01*
X66822810Y-41071545D01*
X66700655Y-40949390D01*
X66557015Y-40853413D01*
X66397411Y-40787303D01*
X66227977Y-40753600D01*
X66055223Y-40753600D01*
X65885789Y-40787303D01*
X65726185Y-40853413D01*
X65582545Y-40949390D01*
X65460390Y-41071545D01*
X65364413Y-41215185D01*
X65298303Y-41374789D01*
X65264600Y-41544223D01*
X65264600Y-41716977D01*
X65298303Y-41886411D01*
X65364413Y-42046015D01*
X65460390Y-42189655D01*
X65582545Y-42311810D01*
X65646435Y-42354500D01*
X65582545Y-42397190D01*
X65460390Y-42519345D01*
X65364413Y-42662985D01*
X65298303Y-42822589D01*
X65264600Y-42992023D01*
X65264600Y-43164777D01*
X65298303Y-43334211D01*
X65364413Y-43493815D01*
X65460390Y-43637455D01*
X65582545Y-43759610D01*
X65726185Y-43855587D01*
X65885789Y-43921697D01*
X66055223Y-43955400D01*
X66167245Y-43955400D01*
X66941000Y-44729156D01*
X66941000Y-44841177D01*
X66974703Y-45010611D01*
X67040813Y-45170215D01*
X67136790Y-45313855D01*
X67258945Y-45436010D01*
X67402585Y-45531987D01*
X67562189Y-45598097D01*
X67731623Y-45631800D01*
X67904377Y-45631800D01*
X67989426Y-45614882D01*
X67964200Y-45741702D01*
X67964200Y-46003098D01*
X68015196Y-46259472D01*
X68115228Y-46500970D01*
X68260452Y-46718313D01*
X68445287Y-46903148D01*
X68662630Y-47048372D01*
X68904128Y-47148404D01*
X69160502Y-47199400D01*
X69421898Y-47199400D01*
X69678272Y-47148404D01*
X69919770Y-47048372D01*
X70137113Y-46903148D01*
X70212001Y-46828260D01*
X70212001Y-49996540D01*
X70137113Y-49921652D01*
X69919770Y-49776428D01*
X69678272Y-49676396D01*
X69421898Y-49625400D01*
X69160502Y-49625400D01*
X68904128Y-49676396D01*
X68662630Y-49776428D01*
X68445287Y-49921652D01*
X68260452Y-50106487D01*
X68115228Y-50323830D01*
X68015196Y-50565328D01*
X67964200Y-50821702D01*
X67964200Y-51083098D01*
X68015196Y-51339472D01*
X68115228Y-51580970D01*
X68260452Y-51798313D01*
X68445287Y-51983148D01*
X68606176Y-52090651D01*
X68558476Y-52122523D01*
X68403923Y-52277076D01*
X68282492Y-52458811D01*
X68198849Y-52660744D01*
X68156208Y-52875115D01*
X68156208Y-53093685D01*
X68198849Y-53308056D01*
X68282492Y-53509989D01*
X68403923Y-53691724D01*
X68558476Y-53846277D01*
X68684675Y-53930600D01*
X62550861Y-53930600D01*
X62651148Y-53830313D01*
X62796372Y-53612970D01*
X62896404Y-53371472D01*
X62947400Y-53115098D01*
X62947400Y-52853702D01*
X62896404Y-52597328D01*
X62796372Y-52355830D01*
X62651148Y-52138487D01*
X62466313Y-51953652D01*
X62248970Y-51808428D01*
X62037297Y-51720750D01*
X62248970Y-51633072D01*
X62466313Y-51487848D01*
X62651148Y-51303013D01*
X62796372Y-51085670D01*
X62896404Y-50844172D01*
X62947400Y-50587798D01*
X62947400Y-50326402D01*
X62896404Y-50070028D01*
X62796372Y-49828530D01*
X62651148Y-49611187D01*
X62466313Y-49426352D01*
X62248970Y-49281128D01*
X62007472Y-49181096D01*
X61751098Y-49130100D01*
X61489702Y-49130100D01*
X61233328Y-49181096D01*
X60991830Y-49281128D01*
X60774487Y-49426352D01*
X60589652Y-49611187D01*
X60444428Y-49828530D01*
X60409707Y-49912354D01*
X60409707Y-49607100D01*
X60400497Y-49513592D01*
X60373222Y-49423677D01*
X60328929Y-49340811D01*
X60269321Y-49268179D01*
X60196689Y-49208571D01*
X60113823Y-49164278D01*
X60023908Y-49137003D01*
X59930400Y-49127793D01*
X58230400Y-49127793D01*
X58136892Y-49137003D01*
X58046977Y-49164278D01*
X57964111Y-49208571D01*
X57891479Y-49268179D01*
X57831871Y-49340811D01*
X57787578Y-49423677D01*
X57760303Y-49513592D01*
X57751093Y-49607100D01*
X57751093Y-49912354D01*
X57716372Y-49828530D01*
X57571148Y-49611187D01*
X57386313Y-49426352D01*
X57168970Y-49281128D01*
X56927472Y-49181096D01*
X56671098Y-49130100D01*
X56409702Y-49130100D01*
X56153328Y-49181096D01*
X55927401Y-49274678D01*
X55927401Y-45128926D01*
X55930675Y-45095684D01*
X55927401Y-45062442D01*
X55927401Y-45062433D01*
X55917605Y-44962970D01*
X55878893Y-44835355D01*
X55816029Y-44717744D01*
X55799372Y-44697448D01*
X55859697Y-44551810D01*
X55893400Y-44382376D01*
X55893400Y-44209622D01*
X55859697Y-44040188D01*
X55793587Y-43880584D01*
X55697610Y-43736944D01*
X55575455Y-43614789D01*
X55431815Y-43518812D01*
X55272211Y-43452702D01*
X55102777Y-43418999D01*
X54930023Y-43418999D01*
X54760589Y-43452702D01*
X54600985Y-43518812D01*
X54457345Y-43614789D01*
X54335190Y-43736944D01*
X54239213Y-43880584D01*
X54173103Y-44040188D01*
X54139400Y-44209622D01*
X54139400Y-44382376D01*
X54173103Y-44551810D01*
X54239213Y-44711414D01*
X54335190Y-44855054D01*
X54336636Y-44856500D01*
X54336126Y-44861684D01*
X54339400Y-44894929D01*
X54339400Y-44894936D01*
X54349196Y-44994399D01*
X54387908Y-45122014D01*
X54450772Y-45239625D01*
X54469792Y-45262800D01*
X54511429Y-45313534D01*
X54535374Y-45342711D01*
X54561201Y-45363907D01*
X54573401Y-45376107D01*
X54573402Y-49258111D01*
X54387472Y-49181096D01*
X54131098Y-49130100D01*
X53869702Y-49130100D01*
X53613328Y-49181096D01*
X53371830Y-49281128D01*
X53154487Y-49426352D01*
X52969652Y-49611187D01*
X52824428Y-49828530D01*
X52730400Y-50055533D01*
X52636372Y-49828530D01*
X52491148Y-49611187D01*
X52306313Y-49426352D01*
X52088970Y-49281128D01*
X52062400Y-49270122D01*
X52062400Y-49120786D01*
X52129519Y-49092985D01*
X52212388Y-49048691D01*
X52293887Y-48994235D01*
X52366519Y-48934627D01*
X52435827Y-48865319D01*
X52495435Y-48792687D01*
X52549891Y-48711188D01*
X52594185Y-48628319D01*
X52631694Y-48537763D01*
X52658968Y-48447850D01*
X52678090Y-48351717D01*
X52687300Y-48258209D01*
X52687300Y-48233648D01*
X52689708Y-48209200D01*
X52689708Y-47709200D01*
X52680498Y-47615692D01*
X52663362Y-47559200D01*
X52680498Y-47502708D01*
X52689708Y-47409200D01*
X52689708Y-46909200D01*
X52687300Y-46884752D01*
X52687300Y-46860191D01*
X52678090Y-46766683D01*
X52658968Y-46670550D01*
X52631694Y-46580637D01*
X52594185Y-46490081D01*
X52549891Y-46407212D01*
X52495435Y-46325713D01*
X52435827Y-46253081D01*
X52366519Y-46183773D01*
X52293887Y-46124165D01*
X52212388Y-46069709D01*
X52137400Y-46029627D01*
X52137400Y-44911665D01*
X52141610Y-44907455D01*
X52237587Y-44763815D01*
X52303697Y-44604211D01*
X52337400Y-44434777D01*
X52337400Y-44262023D01*
X52303697Y-44092589D01*
X52237587Y-43932985D01*
X52141610Y-43789345D01*
X52019455Y-43667190D01*
X51875815Y-43571213D01*
X51716211Y-43505103D01*
X51546777Y-43471400D01*
X51374023Y-43471400D01*
X51204589Y-43505103D01*
X51044985Y-43571213D01*
X50901345Y-43667190D01*
X50779190Y-43789345D01*
X50683213Y-43932985D01*
X50617103Y-44092589D01*
X50583400Y-44262023D01*
X50583400Y-44434777D01*
X50617103Y-44604211D01*
X50683213Y-44763815D01*
X50779190Y-44907455D01*
X50783401Y-44911666D01*
X50783400Y-46029627D01*
X50708412Y-46069709D01*
X50626913Y-46124165D01*
X50554281Y-46183773D01*
X50484973Y-46253081D01*
X50425365Y-46325713D01*
X50370909Y-46407212D01*
X50326615Y-46490081D01*
X50289106Y-46580637D01*
X50261832Y-46670550D01*
X50242710Y-46766683D01*
X50233500Y-46860191D01*
X50233500Y-46884752D01*
X50231092Y-46909200D01*
X50231092Y-47409200D01*
X50240302Y-47502708D01*
X50257438Y-47559200D01*
X50240302Y-47615692D01*
X50231092Y-47709200D01*
X50231092Y-48209200D01*
X50233500Y-48233648D01*
X50233500Y-48258209D01*
X50242710Y-48351717D01*
X50261832Y-48447850D01*
X50289106Y-48537763D01*
X50326615Y-48628319D01*
X50370909Y-48711188D01*
X50425365Y-48792687D01*
X50484973Y-48865319D01*
X50554281Y-48934627D01*
X50626913Y-48994235D01*
X50708412Y-49048691D01*
X50791281Y-49092985D01*
X50858401Y-49120786D01*
X50858401Y-49270122D01*
X50831830Y-49281128D01*
X50614487Y-49426352D01*
X50429652Y-49611187D01*
X50284428Y-49828530D01*
X50190400Y-50055533D01*
X50096372Y-49828530D01*
X49951148Y-49611187D01*
X49766313Y-49426352D01*
X49548970Y-49281128D01*
X49307472Y-49181096D01*
X49051098Y-49130100D01*
X48789702Y-49130100D01*
X48533328Y-49181096D01*
X48291830Y-49281128D01*
X48074487Y-49426352D01*
X47889652Y-49611187D01*
X47744428Y-49828530D01*
X47650400Y-50055533D01*
X47556372Y-49828530D01*
X47411148Y-49611187D01*
X47226313Y-49426352D01*
X47008970Y-49281128D01*
X46767472Y-49181096D01*
X46511098Y-49130100D01*
X46249702Y-49130100D01*
X45993328Y-49181096D01*
X45751830Y-49281128D01*
X45534487Y-49426352D01*
X45349652Y-49611187D01*
X45204428Y-49828530D01*
X45110400Y-50055533D01*
X45016372Y-49828530D01*
X44871148Y-49611187D01*
X44686313Y-49426352D01*
X44468970Y-49281128D01*
X44227472Y-49181096D01*
X43971098Y-49130100D01*
X43709702Y-49130100D01*
X43453328Y-49181096D01*
X43211830Y-49281128D01*
X42994487Y-49426352D01*
X42809652Y-49611187D01*
X42664428Y-49828530D01*
X42570400Y-50055533D01*
X42476372Y-49828530D01*
X42331148Y-49611187D01*
X42146313Y-49426352D01*
X41928970Y-49281128D01*
X41687472Y-49181096D01*
X41431098Y-49130100D01*
X41169702Y-49130100D01*
X40913328Y-49181096D01*
X40671830Y-49281128D01*
X40454487Y-49426352D01*
X40269652Y-49611187D01*
X40124428Y-49828530D01*
X40030400Y-50055533D01*
X39936372Y-49828530D01*
X39791148Y-49611187D01*
X39606313Y-49426352D01*
X39388970Y-49281128D01*
X39147472Y-49181096D01*
X38891098Y-49130100D01*
X38629702Y-49130100D01*
X38373328Y-49181096D01*
X38131830Y-49281128D01*
X37914487Y-49426352D01*
X37729652Y-49611187D01*
X37584428Y-49828530D01*
X37490400Y-50055533D01*
X37396372Y-49828530D01*
X37251148Y-49611187D01*
X37066313Y-49426352D01*
X36848970Y-49281128D01*
X36607472Y-49181096D01*
X36351098Y-49130100D01*
X36147533Y-49130100D01*
X34954272Y-47351057D01*
X34930773Y-47324798D01*
X33127373Y-45800798D01*
X33106874Y-45786670D01*
X33083962Y-45776796D01*
X31471078Y-45262800D01*
X35796357Y-45262800D01*
X35800600Y-45305879D01*
X35800600Y-45349177D01*
X35809047Y-45391642D01*
X35813290Y-45434722D01*
X35825856Y-45476148D01*
X35834303Y-45518611D01*
X35850871Y-45558611D01*
X35863438Y-45600037D01*
X35883845Y-45638215D01*
X35900413Y-45678215D01*
X35924466Y-45714213D01*
X35944873Y-45752392D01*
X35972337Y-45785857D01*
X35996390Y-45821855D01*
X36027003Y-45852468D01*
X36054467Y-45885933D01*
X36087932Y-45913397D01*
X36118545Y-45944010D01*
X36154543Y-45968063D01*
X36188008Y-45995527D01*
X36226187Y-46015934D01*
X36262185Y-46039987D01*
X36302185Y-46056555D01*
X36340363Y-46076962D01*
X36381789Y-46089529D01*
X36421789Y-46106097D01*
X36464252Y-46114544D01*
X36505678Y-46127110D01*
X36548758Y-46131353D01*
X36591223Y-46139800D01*
X36634521Y-46139800D01*
X36677600Y-46144043D01*
X36720679Y-46139800D01*
X36763977Y-46139800D01*
X36806442Y-46131353D01*
X36849522Y-46127110D01*
X36890948Y-46114544D01*
X36933411Y-46106097D01*
X36973411Y-46089529D01*
X37014837Y-46076962D01*
X37053015Y-46056555D01*
X37093015Y-46039987D01*
X37129013Y-46015934D01*
X37167192Y-45995527D01*
X37200657Y-45968063D01*
X37236655Y-45944010D01*
X37267268Y-45913397D01*
X37300733Y-45885933D01*
X37328197Y-45852468D01*
X37358810Y-45821855D01*
X37382863Y-45785857D01*
X37410327Y-45752392D01*
X37430734Y-45714213D01*
X37454787Y-45678215D01*
X37471355Y-45638215D01*
X37491762Y-45600037D01*
X37504329Y-45558611D01*
X37520897Y-45518611D01*
X37529344Y-45476148D01*
X37541910Y-45434722D01*
X37546153Y-45391642D01*
X37554600Y-45349177D01*
X37554600Y-45305879D01*
X37558843Y-45262800D01*
X37554600Y-45219721D01*
X37554600Y-39791623D01*
X37546153Y-39749158D01*
X37541910Y-39706078D01*
X37529344Y-39664652D01*
X37521258Y-39624000D01*
X46059073Y-39624000D01*
X46077937Y-39815525D01*
X46133803Y-39999691D01*
X46224524Y-40169418D01*
X46346614Y-40318186D01*
X46495382Y-40440276D01*
X46665109Y-40530997D01*
X46849275Y-40586863D01*
X46992807Y-40601000D01*
X49190998Y-40601000D01*
X49261713Y-40659035D01*
X49343212Y-40713491D01*
X49426081Y-40757785D01*
X49516637Y-40795294D01*
X49606550Y-40822568D01*
X49702683Y-40841690D01*
X49796191Y-40850900D01*
X49820752Y-40850900D01*
X49845200Y-40853308D01*
X50345200Y-40853308D01*
X50438708Y-40844098D01*
X50495200Y-40826962D01*
X50551692Y-40844098D01*
X50645200Y-40853308D01*
X51145200Y-40853308D01*
X51169648Y-40850900D01*
X51194209Y-40850900D01*
X51287717Y-40841690D01*
X51383850Y-40822568D01*
X51473763Y-40795294D01*
X51564319Y-40757785D01*
X51647188Y-40713491D01*
X51728687Y-40659035D01*
X51799402Y-40601000D01*
X53337193Y-40601000D01*
X53480725Y-40586863D01*
X53664891Y-40530997D01*
X53834618Y-40440276D01*
X53983386Y-40318186D01*
X54105476Y-40169418D01*
X54196197Y-39999691D01*
X54252063Y-39815525D01*
X54270927Y-39624000D01*
X54252063Y-39432475D01*
X54196197Y-39248309D01*
X54105476Y-39078582D01*
X53983386Y-38929814D01*
X53834618Y-38807724D01*
X53664891Y-38717003D01*
X53480725Y-38661137D01*
X53337193Y-38647000D01*
X51799402Y-38647000D01*
X51728687Y-38588965D01*
X51647188Y-38534509D01*
X51564319Y-38490215D01*
X51473763Y-38452706D01*
X51383850Y-38425432D01*
X51287717Y-38406310D01*
X51194209Y-38397100D01*
X51169648Y-38397100D01*
X51145200Y-38394692D01*
X50645200Y-38394692D01*
X50551692Y-38403902D01*
X50495200Y-38421038D01*
X50438708Y-38403902D01*
X50345200Y-38394692D01*
X49845200Y-38394692D01*
X49820752Y-38397100D01*
X49796191Y-38397100D01*
X49702683Y-38406310D01*
X49606550Y-38425432D01*
X49516637Y-38452706D01*
X49426081Y-38490215D01*
X49343212Y-38534509D01*
X49261713Y-38588965D01*
X49190998Y-38647000D01*
X46992807Y-38647000D01*
X46849275Y-38661137D01*
X46665109Y-38717003D01*
X46495382Y-38807724D01*
X46346614Y-38929814D01*
X46224524Y-39078582D01*
X46133803Y-39248309D01*
X46077937Y-39432475D01*
X46059073Y-39624000D01*
X37521258Y-39624000D01*
X37520897Y-39622189D01*
X37504329Y-39582189D01*
X37491762Y-39540763D01*
X37471355Y-39502585D01*
X37454787Y-39462585D01*
X37430734Y-39426587D01*
X37410327Y-39388408D01*
X37382863Y-39354943D01*
X37358810Y-39318945D01*
X37328197Y-39288332D01*
X37300733Y-39254867D01*
X37267269Y-39227404D01*
X37236655Y-39196790D01*
X37200653Y-39172734D01*
X37167191Y-39145273D01*
X37129017Y-39124869D01*
X37093015Y-39100813D01*
X37053011Y-39084243D01*
X37014836Y-39063838D01*
X36973414Y-39051273D01*
X36933411Y-39034703D01*
X36890945Y-39026256D01*
X36849521Y-39013690D01*
X36806443Y-39009447D01*
X36763977Y-39001000D01*
X36720679Y-39001000D01*
X36677600Y-38996757D01*
X36634521Y-39001000D01*
X36591223Y-39001000D01*
X36548758Y-39009447D01*
X36505678Y-39013690D01*
X36464252Y-39026256D01*
X36421789Y-39034703D01*
X36381789Y-39051271D01*
X36340363Y-39063838D01*
X36302185Y-39084245D01*
X36262185Y-39100813D01*
X36226187Y-39124866D01*
X36188008Y-39145273D01*
X36154543Y-39172737D01*
X36118545Y-39196790D01*
X36087932Y-39227403D01*
X36054467Y-39254867D01*
X36027004Y-39288331D01*
X35996390Y-39318945D01*
X35972334Y-39354947D01*
X35944873Y-39388409D01*
X35924469Y-39426583D01*
X35900413Y-39462585D01*
X35883843Y-39502589D01*
X35863438Y-39540764D01*
X35850873Y-39582186D01*
X35834303Y-39622189D01*
X35825856Y-39664655D01*
X35813290Y-39706079D01*
X35809047Y-39749157D01*
X35800600Y-39791623D01*
X35800600Y-39834922D01*
X35800601Y-45176418D01*
X35800600Y-45176423D01*
X35800600Y-45219721D01*
X35796357Y-45262800D01*
X31471078Y-45262800D01*
X30772562Y-45040196D01*
X30747530Y-45034923D01*
X27902730Y-44730123D01*
X27871239Y-44730676D01*
X25559839Y-45060876D01*
X25530633Y-45068683D01*
X25487399Y-45085977D01*
X25487399Y-39809600D01*
X32578357Y-39809600D01*
X32582600Y-39852679D01*
X32582600Y-39895977D01*
X32582601Y-39895982D01*
X32582600Y-42738023D01*
X32582600Y-42910777D01*
X32591047Y-42953243D01*
X32595290Y-42996321D01*
X32607856Y-43037745D01*
X32616303Y-43080211D01*
X32632873Y-43120214D01*
X32645438Y-43161636D01*
X32665843Y-43199811D01*
X32682413Y-43239815D01*
X32706469Y-43275817D01*
X32726873Y-43313991D01*
X32754334Y-43347453D01*
X32778390Y-43383455D01*
X32809004Y-43414069D01*
X32836467Y-43447533D01*
X32869932Y-43474997D01*
X32900545Y-43505610D01*
X32936543Y-43529663D01*
X32970008Y-43557127D01*
X33008187Y-43577534D01*
X33044185Y-43601587D01*
X33084185Y-43618155D01*
X33122363Y-43638562D01*
X33163789Y-43651129D01*
X33203789Y-43667697D01*
X33246252Y-43676144D01*
X33287678Y-43688710D01*
X33330758Y-43692953D01*
X33373223Y-43701400D01*
X33416521Y-43701400D01*
X33459600Y-43705643D01*
X33502679Y-43701400D01*
X33545977Y-43701400D01*
X33588443Y-43692953D01*
X33631521Y-43688710D01*
X33672945Y-43676144D01*
X33715411Y-43667697D01*
X33755414Y-43651127D01*
X33796836Y-43638562D01*
X33835011Y-43618157D01*
X33875015Y-43601587D01*
X33911017Y-43577531D01*
X33949191Y-43557127D01*
X33982653Y-43529666D01*
X34018655Y-43505610D01*
X34049269Y-43474996D01*
X34082733Y-43447533D01*
X34110197Y-43414068D01*
X34140810Y-43383455D01*
X34164863Y-43347457D01*
X34192327Y-43313992D01*
X34212734Y-43275813D01*
X34236787Y-43239815D01*
X34253355Y-43199815D01*
X34273762Y-43161637D01*
X34286329Y-43120211D01*
X34302897Y-43080211D01*
X34311344Y-43037748D01*
X34323910Y-42996322D01*
X34328153Y-42953242D01*
X34336600Y-42910777D01*
X34336600Y-39852679D01*
X34340843Y-39809600D01*
X34336600Y-39766521D01*
X34336600Y-39723223D01*
X34328153Y-39680758D01*
X34323910Y-39637678D01*
X34311344Y-39596252D01*
X34302897Y-39553789D01*
X34286329Y-39513789D01*
X34273762Y-39472363D01*
X34253355Y-39434185D01*
X34236787Y-39394185D01*
X34212734Y-39358187D01*
X34192327Y-39320008D01*
X34164863Y-39286543D01*
X34140810Y-39250545D01*
X34110197Y-39219932D01*
X34082733Y-39186467D01*
X34049268Y-39159003D01*
X34018655Y-39128390D01*
X33982657Y-39104337D01*
X33949192Y-39076873D01*
X33911013Y-39056466D01*
X33875015Y-39032413D01*
X33835015Y-39015845D01*
X33796837Y-38995438D01*
X33755411Y-38982871D01*
X33715411Y-38966303D01*
X33672948Y-38957856D01*
X33631522Y-38945290D01*
X33588442Y-38941047D01*
X33545977Y-38932600D01*
X33502679Y-38932600D01*
X33459600Y-38928357D01*
X33416521Y-38932600D01*
X33373223Y-38932600D01*
X33330758Y-38941047D01*
X33287678Y-38945290D01*
X33246252Y-38957856D01*
X33203789Y-38966303D01*
X33163789Y-38982871D01*
X33122363Y-38995438D01*
X33084185Y-39015845D01*
X33044185Y-39032413D01*
X33008187Y-39056466D01*
X32970008Y-39076873D01*
X32936543Y-39104337D01*
X32900545Y-39128390D01*
X32869932Y-39159003D01*
X32836467Y-39186467D01*
X32809003Y-39219932D01*
X32778390Y-39250545D01*
X32754337Y-39286543D01*
X32726873Y-39320008D01*
X32706466Y-39358187D01*
X32682413Y-39394185D01*
X32665845Y-39434185D01*
X32645438Y-39472363D01*
X32632871Y-39513789D01*
X32616303Y-39553789D01*
X32607856Y-39596252D01*
X32595290Y-39637678D01*
X32591047Y-39680758D01*
X32582600Y-39723223D01*
X32582600Y-39766521D01*
X32578357Y-39809600D01*
X25487399Y-39809600D01*
X25487399Y-39181456D01*
X28186758Y-36482098D01*
X28213328Y-36493104D01*
X28469702Y-36544100D01*
X28731098Y-36544100D01*
X28987472Y-36493104D01*
X29228970Y-36393072D01*
X29446313Y-36247848D01*
X29631148Y-36063013D01*
X29776372Y-35845670D01*
X29870400Y-35618667D01*
X29964428Y-35845670D01*
X30109652Y-36063013D01*
X30294487Y-36247848D01*
X30511830Y-36393072D01*
X30753328Y-36493104D01*
X31009702Y-36544100D01*
X31271098Y-36544100D01*
X31527472Y-36493104D01*
X31768970Y-36393072D01*
X31986313Y-36247848D01*
X32171148Y-36063013D01*
X32316372Y-35845670D01*
X32410400Y-35618667D01*
X32504428Y-35845670D01*
X32649652Y-36063013D01*
X32834487Y-36247848D01*
X33051830Y-36393072D01*
X33293328Y-36493104D01*
X33549702Y-36544100D01*
X33811098Y-36544100D01*
X34067472Y-36493104D01*
X34308970Y-36393072D01*
X34526313Y-36247848D01*
X34711148Y-36063013D01*
X34856372Y-35845670D01*
X34950400Y-35618667D01*
X35044428Y-35845670D01*
X35189652Y-36063013D01*
X35374487Y-36247848D01*
X35591830Y-36393072D01*
X35833328Y-36493104D01*
X36089702Y-36544100D01*
X36351098Y-36544100D01*
X36607472Y-36493104D01*
X36848970Y-36393072D01*
X37066313Y-36247848D01*
X37251148Y-36063013D01*
X37396372Y-35845670D01*
X37490400Y-35618667D01*
X37584428Y-35845670D01*
X37729652Y-36063013D01*
X37914487Y-36247848D01*
X38131830Y-36393072D01*
X38373328Y-36493104D01*
X38629702Y-36544100D01*
X38891098Y-36544100D01*
X39147472Y-36493104D01*
X39388970Y-36393072D01*
X39606313Y-36247848D01*
X39791148Y-36063013D01*
X39936372Y-35845670D01*
X40030400Y-35618667D01*
X40124428Y-35845670D01*
X40269652Y-36063013D01*
X40454487Y-36247848D01*
X40671830Y-36393072D01*
X40913328Y-36493104D01*
X41169702Y-36544100D01*
X41431098Y-36544100D01*
X41687472Y-36493104D01*
X41928970Y-36393072D01*
X42146313Y-36247848D01*
X42331148Y-36063013D01*
X42476372Y-35845670D01*
X42570400Y-35618667D01*
X42664428Y-35845670D01*
X42809652Y-36063013D01*
X42994487Y-36247848D01*
X43211830Y-36393072D01*
X43453328Y-36493104D01*
X43709702Y-36544100D01*
X43971098Y-36544100D01*
X44227472Y-36493104D01*
X44468970Y-36393072D01*
X44686313Y-36247848D01*
X44871148Y-36063013D01*
X45016372Y-35845670D01*
X45110400Y-35618667D01*
X45204428Y-35845670D01*
X45349652Y-36063013D01*
X45534487Y-36247848D01*
X45751830Y-36393072D01*
X45993328Y-36493104D01*
X46249702Y-36544100D01*
X46511098Y-36544100D01*
X46767472Y-36493104D01*
X47008970Y-36393072D01*
X47226313Y-36247848D01*
X47411148Y-36063013D01*
X47556372Y-35845670D01*
X47650400Y-35618667D01*
X47744428Y-35845670D01*
X47889652Y-36063013D01*
X48074487Y-36247848D01*
X48291830Y-36393072D01*
X48533328Y-36493104D01*
X48789702Y-36544100D01*
X49051098Y-36544100D01*
X49307472Y-36493104D01*
X49548970Y-36393072D01*
X49766313Y-36247848D01*
X49951148Y-36063013D01*
X50096372Y-35845670D01*
X50190400Y-35618667D01*
X50284428Y-35845670D01*
X50429652Y-36063013D01*
X50614487Y-36247848D01*
X50831830Y-36393072D01*
X51073328Y-36493104D01*
X51329702Y-36544100D01*
X51591098Y-36544100D01*
X51847472Y-36493104D01*
X52088970Y-36393072D01*
X52306313Y-36247848D01*
X52491148Y-36063013D01*
X52636372Y-35845670D01*
X52736404Y-35604172D01*
X52787400Y-35347798D01*
X52787400Y-35086402D01*
X55213400Y-35086402D01*
X55213400Y-35347798D01*
X55264396Y-35604172D01*
X55364428Y-35845670D01*
X55509652Y-36063013D01*
X55694487Y-36247848D01*
X55911830Y-36393072D01*
X56153328Y-36493104D01*
X56409702Y-36544100D01*
X56671098Y-36544100D01*
X56927472Y-36493104D01*
X57168970Y-36393072D01*
X57386313Y-36247848D01*
X57571148Y-36063013D01*
X57716372Y-35845670D01*
X57810400Y-35618667D01*
X57904428Y-35845670D01*
X58049652Y-36063013D01*
X58234487Y-36247848D01*
X58451830Y-36393072D01*
X58693328Y-36493104D01*
X58949702Y-36544100D01*
X59211098Y-36544100D01*
X59467472Y-36493104D01*
X59708970Y-36393072D01*
X59926313Y-36247848D01*
X60111148Y-36063013D01*
X60256372Y-35845670D01*
X60350400Y-35618667D01*
X60444428Y-35845670D01*
X60589652Y-36063013D01*
X60774487Y-36247848D01*
X60991830Y-36393072D01*
X61233328Y-36493104D01*
X61489702Y-36544100D01*
X61751098Y-36544100D01*
X62007472Y-36493104D01*
X62248970Y-36393072D01*
X62466313Y-36247848D01*
X62651148Y-36063013D01*
X62796372Y-35845670D01*
X62896404Y-35604172D01*
X62947400Y-35347798D01*
X62947400Y-35086402D01*
X62896404Y-34830028D01*
X62796372Y-34588530D01*
X62651148Y-34371187D01*
X62466313Y-34186352D01*
X62248970Y-34041128D01*
X62007472Y-33941096D01*
X61751098Y-33890100D01*
X61489702Y-33890100D01*
X61233328Y-33941096D01*
X60991830Y-34041128D01*
X60774487Y-34186352D01*
X60589652Y-34371187D01*
X60444428Y-34588530D01*
X60350400Y-34815533D01*
X60256372Y-34588530D01*
X60111148Y-34371187D01*
X59926313Y-34186352D01*
X59708970Y-34041128D01*
X59467472Y-33941096D01*
X59211098Y-33890100D01*
X58949702Y-33890100D01*
X58693328Y-33941096D01*
X58451830Y-34041128D01*
X58234487Y-34186352D01*
X58049652Y-34371187D01*
X57904428Y-34588530D01*
X57810400Y-34815533D01*
X57716372Y-34588530D01*
X57571148Y-34371187D01*
X57386313Y-34186352D01*
X57168970Y-34041128D01*
X56927472Y-33941096D01*
X56671098Y-33890100D01*
X56409702Y-33890100D01*
X56153328Y-33941096D01*
X55911830Y-34041128D01*
X55694487Y-34186352D01*
X55509652Y-34371187D01*
X55364428Y-34588530D01*
X55264396Y-34830028D01*
X55213400Y-35086402D01*
X52787400Y-35086402D01*
X52736404Y-34830028D01*
X52636372Y-34588530D01*
X52491148Y-34371187D01*
X52306313Y-34186352D01*
X52088970Y-34041128D01*
X51847472Y-33941096D01*
X51591098Y-33890100D01*
X51329702Y-33890100D01*
X51073328Y-33941096D01*
X50831830Y-34041128D01*
X50614487Y-34186352D01*
X50429652Y-34371187D01*
X50284428Y-34588530D01*
X50190400Y-34815533D01*
X50096372Y-34588530D01*
X49951148Y-34371187D01*
X49766313Y-34186352D01*
X49548970Y-34041128D01*
X49307472Y-33941096D01*
X49051098Y-33890100D01*
X48789702Y-33890100D01*
X48533328Y-33941096D01*
X48291830Y-34041128D01*
X48074487Y-34186352D01*
X47889652Y-34371187D01*
X47744428Y-34588530D01*
X47650400Y-34815533D01*
X47556372Y-34588530D01*
X47411148Y-34371187D01*
X47226313Y-34186352D01*
X47008970Y-34041128D01*
X46767472Y-33941096D01*
X46511098Y-33890100D01*
X46249702Y-33890100D01*
X45993328Y-33941096D01*
X45751830Y-34041128D01*
X45534487Y-34186352D01*
X45349652Y-34371187D01*
X45204428Y-34588530D01*
X45110400Y-34815533D01*
X45016372Y-34588530D01*
X44871148Y-34371187D01*
X44686313Y-34186352D01*
X44468970Y-34041128D01*
X44227472Y-33941096D01*
X43971098Y-33890100D01*
X43709702Y-33890100D01*
X43453328Y-33941096D01*
X43211830Y-34041128D01*
X42994487Y-34186352D01*
X42809652Y-34371187D01*
X42664428Y-34588530D01*
X42570400Y-34815533D01*
X42476372Y-34588530D01*
X42331148Y-34371187D01*
X42146313Y-34186352D01*
X41928970Y-34041128D01*
X41687472Y-33941096D01*
X41431098Y-33890100D01*
X41169702Y-33890100D01*
X40913328Y-33941096D01*
X40671830Y-34041128D01*
X40454487Y-34186352D01*
X40269652Y-34371187D01*
X40124428Y-34588530D01*
X40030400Y-34815533D01*
X39936372Y-34588530D01*
X39791148Y-34371187D01*
X39606313Y-34186352D01*
X39388970Y-34041128D01*
X39147472Y-33941096D01*
X38891098Y-33890100D01*
X38629702Y-33890100D01*
X38373328Y-33941096D01*
X38131830Y-34041128D01*
X37914487Y-34186352D01*
X37729652Y-34371187D01*
X37584428Y-34588530D01*
X37490400Y-34815533D01*
X37396372Y-34588530D01*
X37251148Y-34371187D01*
X37066313Y-34186352D01*
X36848970Y-34041128D01*
X36607472Y-33941096D01*
X36351098Y-33890100D01*
X36089702Y-33890100D01*
X35833328Y-33941096D01*
X35591830Y-34041128D01*
X35374487Y-34186352D01*
X35189652Y-34371187D01*
X35044428Y-34588530D01*
X34950400Y-34815533D01*
X34856372Y-34588530D01*
X34711148Y-34371187D01*
X34526313Y-34186352D01*
X34308970Y-34041128D01*
X34067472Y-33941096D01*
X33811098Y-33890100D01*
X33549702Y-33890100D01*
X33293328Y-33941096D01*
X33051830Y-34041128D01*
X32834487Y-34186352D01*
X32649652Y-34371187D01*
X32504428Y-34588530D01*
X32410400Y-34815533D01*
X32316372Y-34588530D01*
X32171148Y-34371187D01*
X31986313Y-34186352D01*
X31768970Y-34041128D01*
X31527472Y-33941096D01*
X31271098Y-33890100D01*
X31009702Y-33890100D01*
X30753328Y-33941096D01*
X30511830Y-34041128D01*
X30294487Y-34186352D01*
X30109652Y-34371187D01*
X29964428Y-34588530D01*
X29870400Y-34815533D01*
X29776372Y-34588530D01*
X29631148Y-34371187D01*
X29446313Y-34186352D01*
X29228970Y-34041128D01*
X28987472Y-33941096D01*
X28731098Y-33890100D01*
X28469702Y-33890100D01*
X28213328Y-33941096D01*
X27971830Y-34041128D01*
X27754487Y-34186352D01*
X27569652Y-34371187D01*
X27424428Y-34588530D01*
X27330400Y-34815533D01*
X27236372Y-34588530D01*
X27091148Y-34371187D01*
X26906313Y-34186352D01*
X26688970Y-34041128D01*
X26447472Y-33941096D01*
X26191098Y-33890100D01*
X25929702Y-33890100D01*
X25673328Y-33941096D01*
X25431830Y-34041128D01*
X25214487Y-34186352D01*
X25029652Y-34371187D01*
X24884428Y-34588530D01*
X24784396Y-34830028D01*
X24733400Y-35086402D01*
X24733400Y-35347798D01*
X24784396Y-35604172D01*
X24884428Y-35845670D01*
X25029652Y-36063013D01*
X25214487Y-36247848D01*
X25431830Y-36393072D01*
X25673328Y-36493104D01*
X25929702Y-36544100D01*
X26191098Y-36544100D01*
X26447472Y-36493104D01*
X26491120Y-36475024D01*
X24480628Y-38485517D01*
X24457663Y-38504364D01*
X24438816Y-38527329D01*
X24438815Y-38527330D01*
X24382434Y-38596030D01*
X24326533Y-38700612D01*
X24292111Y-38814089D01*
X24280488Y-38932101D01*
X24283400Y-38961667D01*
X24283399Y-45567576D01*
X23641000Y-45824536D01*
X23641000Y-34341171D01*
X24224386Y-32098782D01*
X25580371Y-29286368D01*
X28553633Y-26489485D01*
X30794316Y-24928560D01*
X34076025Y-23641000D01*
X57369381Y-23641000D01*
X56443506Y-24733699D01*
M02*
