G04 #@! TF.GenerationSoftware,KiCad,Pcbnew,5.1.5+dfsg1-2build2*
G04 #@! TF.CreationDate,2021-06-16T02:42:27+02:00*
G04 #@! TF.ProjectId,circuit9,63697263-7569-4743-992e-6b696361645f,rev?*
G04 #@! TF.SameCoordinates,Original*
G04 #@! TF.FileFunction,Legend,Top*
G04 #@! TF.FilePolarity,Positive*
%FSLAX46Y46*%
G04 Gerber Fmt 4.6, Leading zero omitted, Abs format (unit mm)*
G04 Created by KiCad (PCBNEW 5.1.5+dfsg1-2build2) date 2021-06-16 02:42:27*
%MOMM*%
%LPD*%
G04 APERTURE LIST*
%ADD10C,0.120000*%
%ADD11C,0.150000*%
%ADD12C,0.080000*%
%ADD13C,0.100000*%
%ADD14C,0.200000*%
%ADD15C,0.500000*%
%ADD16O,1.700000X1.700000*%
%ADD17R,1.700000X1.700000*%
%ADD18R,6.000000X3.000000*%
%ADD19R,0.400000X0.900000*%
%ADD20R,1.060000X0.650000*%
G04 APERTURE END LIST*
D10*
X67773504Y-41858723D02*
X66973504Y-41858723D01*
X66973504Y-41553961D01*
X67011600Y-41477771D01*
X67049695Y-41439676D01*
X67125885Y-41401580D01*
X67240171Y-41401580D01*
X67316361Y-41439676D01*
X67354457Y-41477771D01*
X67392552Y-41553961D01*
X67392552Y-41858723D01*
X67773504Y-40944438D02*
X67735409Y-41020628D01*
X67697314Y-41058723D01*
X67621123Y-41096819D01*
X67392552Y-41096819D01*
X67316361Y-41058723D01*
X67278266Y-41020628D01*
X67240171Y-40944438D01*
X67240171Y-40830152D01*
X67278266Y-40753961D01*
X67316361Y-40715866D01*
X67392552Y-40677771D01*
X67621123Y-40677771D01*
X67697314Y-40715866D01*
X67735409Y-40753961D01*
X67773504Y-40830152D01*
X67773504Y-40944438D01*
X67240171Y-40411104D02*
X67773504Y-40258723D01*
X67392552Y-40106342D01*
X67773504Y-39953961D01*
X67240171Y-39801580D01*
X67735409Y-39192057D02*
X67773504Y-39268247D01*
X67773504Y-39420628D01*
X67735409Y-39496819D01*
X67659219Y-39534914D01*
X67354457Y-39534914D01*
X67278266Y-39496819D01*
X67240171Y-39420628D01*
X67240171Y-39268247D01*
X67278266Y-39192057D01*
X67354457Y-39153961D01*
X67430647Y-39153961D01*
X67506838Y-39534914D01*
X67773504Y-38811104D02*
X67240171Y-38811104D01*
X67392552Y-38811104D02*
X67316361Y-38773009D01*
X67278266Y-38734914D01*
X67240171Y-38658723D01*
X67240171Y-38582533D01*
X67735409Y-37744438D02*
X67773504Y-37630152D01*
X67773504Y-37439676D01*
X67735409Y-37363485D01*
X67697314Y-37325390D01*
X67621123Y-37287295D01*
X67544933Y-37287295D01*
X67468742Y-37325390D01*
X67430647Y-37363485D01*
X67392552Y-37439676D01*
X67354457Y-37592057D01*
X67316361Y-37668247D01*
X67278266Y-37706342D01*
X67202076Y-37744438D01*
X67125885Y-37744438D01*
X67049695Y-37706342D01*
X67011600Y-37668247D01*
X66973504Y-37592057D01*
X66973504Y-37401580D01*
X67011600Y-37287295D01*
X67240171Y-37020628D02*
X67773504Y-36868247D01*
X67392552Y-36715866D01*
X67773504Y-36563485D01*
X67240171Y-36411104D01*
X67773504Y-36106342D02*
X67240171Y-36106342D01*
X66973504Y-36106342D02*
X67011600Y-36144438D01*
X67049695Y-36106342D01*
X67011600Y-36068247D01*
X66973504Y-36106342D01*
X67049695Y-36106342D01*
X67240171Y-35839676D02*
X67240171Y-35534914D01*
X66973504Y-35725390D02*
X67659219Y-35725390D01*
X67735409Y-35687295D01*
X67773504Y-35611104D01*
X67773504Y-35534914D01*
X67735409Y-34925390D02*
X67773504Y-35001580D01*
X67773504Y-35153961D01*
X67735409Y-35230152D01*
X67697314Y-35268247D01*
X67621123Y-35306342D01*
X67392552Y-35306342D01*
X67316361Y-35268247D01*
X67278266Y-35230152D01*
X67240171Y-35153961D01*
X67240171Y-35001580D01*
X67278266Y-34925390D01*
X67773504Y-34582533D02*
X66973504Y-34582533D01*
X67773504Y-34239676D02*
X67354457Y-34239676D01*
X67278266Y-34277771D01*
X67240171Y-34353961D01*
X67240171Y-34468247D01*
X67278266Y-34544438D01*
X67316361Y-34582533D01*
D11*
X48158400Y-37744400D02*
X49352200Y-36550600D01*
X48158400Y-43637200D02*
X48158400Y-37744400D01*
X50850800Y-46329600D02*
X48158400Y-43637200D01*
X53060600Y-48539400D02*
X50850800Y-46329600D01*
X56565800Y-48539400D02*
X53060600Y-48539400D01*
X27965400Y-37592000D02*
X29006800Y-36550600D01*
X27965400Y-45313600D02*
X27965400Y-37592000D01*
X28778200Y-46126400D02*
X27965400Y-45313600D01*
X31318200Y-46126400D02*
X28778200Y-46126400D01*
X32816800Y-47625000D02*
X31318200Y-46126400D01*
X36728400Y-47625000D02*
X32816800Y-47625000D01*
X44780200Y-47625000D02*
X36728400Y-47625000D01*
X46761400Y-45643800D02*
X44780200Y-47625000D01*
X46761400Y-37744400D02*
X46761400Y-45643800D01*
X45567600Y-36550600D02*
X46761400Y-37744400D01*
X64871600Y-36525200D02*
X62941200Y-36525200D01*
X65659000Y-37312600D02*
X64871600Y-36525200D01*
X65659000Y-44653200D02*
X65659000Y-37312600D01*
X64617600Y-45694600D02*
X65659000Y-44653200D01*
X61239400Y-45694600D02*
X64617600Y-45694600D01*
X58394600Y-48539400D02*
X61239400Y-45694600D01*
X56565800Y-48539400D02*
X58394600Y-48539400D01*
D12*
X24688685Y-52397790D02*
X24422971Y-52397790D01*
X24555828Y-52397790D02*
X24555828Y-51897790D01*
X24511542Y-51969219D01*
X24467257Y-52016838D01*
X24422971Y-52040647D01*
X24843685Y-51897790D02*
X25131542Y-51897790D01*
X24976542Y-52088266D01*
X25042971Y-52088266D01*
X25087257Y-52112076D01*
X25109400Y-52135885D01*
X25131542Y-52183504D01*
X25131542Y-52302552D01*
X25109400Y-52350171D01*
X25087257Y-52373980D01*
X25042971Y-52397790D01*
X24910114Y-52397790D01*
X24865828Y-52373980D01*
X24843685Y-52350171D01*
X25330828Y-52350171D02*
X25352971Y-52373980D01*
X25330828Y-52397790D01*
X25308685Y-52373980D01*
X25330828Y-52350171D01*
X25330828Y-52397790D01*
X25330828Y-52088266D02*
X25352971Y-52112076D01*
X25330828Y-52135885D01*
X25308685Y-52112076D01*
X25330828Y-52088266D01*
X25330828Y-52135885D01*
X27212971Y-52397790D02*
X26947257Y-52397790D01*
X27080114Y-52397790D02*
X27080114Y-51897790D01*
X27035828Y-51969219D01*
X26991542Y-52016838D01*
X26947257Y-52040647D01*
X27390114Y-51945409D02*
X27412257Y-51921600D01*
X27456542Y-51897790D01*
X27567257Y-51897790D01*
X27611542Y-51921600D01*
X27633685Y-51945409D01*
X27655828Y-51993028D01*
X27655828Y-52040647D01*
X27633685Y-52112076D01*
X27367971Y-52397790D01*
X27655828Y-52397790D01*
X27855114Y-52350171D02*
X27877257Y-52373980D01*
X27855114Y-52397790D01*
X27832971Y-52373980D01*
X27855114Y-52350171D01*
X27855114Y-52397790D01*
X27855114Y-52088266D02*
X27877257Y-52112076D01*
X27855114Y-52135885D01*
X27832971Y-52112076D01*
X27855114Y-52088266D01*
X27855114Y-52135885D01*
X29737257Y-52397790D02*
X29471542Y-52397790D01*
X29604400Y-52397790D02*
X29604400Y-51897790D01*
X29560114Y-51969219D01*
X29515828Y-52016838D01*
X29471542Y-52040647D01*
X30180114Y-52397790D02*
X29914400Y-52397790D01*
X30047257Y-52397790D02*
X30047257Y-51897790D01*
X30002971Y-51969219D01*
X29958685Y-52016838D01*
X29914400Y-52040647D01*
X30379400Y-52350171D02*
X30401542Y-52373980D01*
X30379400Y-52397790D01*
X30357257Y-52373980D01*
X30379400Y-52350171D01*
X30379400Y-52397790D01*
X30379400Y-52088266D02*
X30401542Y-52112076D01*
X30379400Y-52135885D01*
X30357257Y-52112076D01*
X30379400Y-52088266D01*
X30379400Y-52135885D01*
D13*
G36*
X64516000Y-63042800D02*
G01*
X63855600Y-63042800D01*
X63855600Y-57099200D01*
X64516000Y-57099200D01*
X64516000Y-63042800D01*
G37*
X64516000Y-63042800D02*
X63855600Y-63042800D01*
X63855600Y-57099200D01*
X64516000Y-57099200D01*
X64516000Y-63042800D01*
D10*
X53883066Y-45679466D02*
X53649733Y-45346133D01*
X53483066Y-45679466D02*
X53483066Y-44979466D01*
X53749733Y-44979466D01*
X53816400Y-45012800D01*
X53849733Y-45046133D01*
X53883066Y-45112800D01*
X53883066Y-45212800D01*
X53849733Y-45279466D01*
X53816400Y-45312800D01*
X53749733Y-45346133D01*
X53483066Y-45346133D01*
X54449733Y-45646133D02*
X54383066Y-45679466D01*
X54249733Y-45679466D01*
X54183066Y-45646133D01*
X54149733Y-45579466D01*
X54149733Y-45312800D01*
X54183066Y-45246133D01*
X54249733Y-45212800D01*
X54383066Y-45212800D01*
X54449733Y-45246133D01*
X54483066Y-45312800D01*
X54483066Y-45379466D01*
X54149733Y-45446133D01*
X54683066Y-45212800D02*
X54949733Y-45212800D01*
X54783066Y-45679466D02*
X54783066Y-45079466D01*
X54816400Y-45012800D01*
X54883066Y-44979466D01*
X54949733Y-44979466D01*
X55449733Y-45646133D02*
X55383066Y-45679466D01*
X55249733Y-45679466D01*
X55183066Y-45646133D01*
X55149733Y-45579466D01*
X55149733Y-45312800D01*
X55183066Y-45246133D01*
X55249733Y-45212800D01*
X55383066Y-45212800D01*
X55449733Y-45246133D01*
X55483066Y-45312800D01*
X55483066Y-45379466D01*
X55149733Y-45446133D01*
X55783066Y-45679466D02*
X55783066Y-45212800D01*
X55783066Y-45346133D02*
X55816400Y-45279466D01*
X55849733Y-45246133D01*
X55916400Y-45212800D01*
X55983066Y-45212800D01*
X56483066Y-45646133D02*
X56416400Y-45679466D01*
X56283066Y-45679466D01*
X56216400Y-45646133D01*
X56183066Y-45579466D01*
X56183066Y-45312800D01*
X56216400Y-45246133D01*
X56283066Y-45212800D01*
X56416400Y-45212800D01*
X56483066Y-45246133D01*
X56516400Y-45312800D01*
X56516400Y-45379466D01*
X56183066Y-45446133D01*
X56816400Y-45212800D02*
X56816400Y-45679466D01*
X56816400Y-45279466D02*
X56849733Y-45246133D01*
X56916400Y-45212800D01*
X57016400Y-45212800D01*
X57083066Y-45246133D01*
X57116400Y-45312800D01*
X57116400Y-45679466D01*
X57749733Y-45646133D02*
X57683066Y-45679466D01*
X57549733Y-45679466D01*
X57483066Y-45646133D01*
X57449733Y-45612800D01*
X57416400Y-45546133D01*
X57416400Y-45346133D01*
X57449733Y-45279466D01*
X57483066Y-45246133D01*
X57549733Y-45212800D01*
X57683066Y-45212800D01*
X57749733Y-45246133D01*
X58316400Y-45646133D02*
X58249733Y-45679466D01*
X58116400Y-45679466D01*
X58049733Y-45646133D01*
X58016400Y-45579466D01*
X58016400Y-45312800D01*
X58049733Y-45246133D01*
X58116400Y-45212800D01*
X58249733Y-45212800D01*
X58316400Y-45246133D01*
X58349733Y-45312800D01*
X58349733Y-45379466D01*
X58016400Y-45446133D01*
X53383066Y-46149466D02*
X53616400Y-46849466D01*
X53849733Y-46149466D01*
X54183066Y-46849466D02*
X54116400Y-46816133D01*
X54083066Y-46782800D01*
X54049733Y-46716133D01*
X54049733Y-46516133D01*
X54083066Y-46449466D01*
X54116400Y-46416133D01*
X54183066Y-46382800D01*
X54283066Y-46382800D01*
X54349733Y-46416133D01*
X54383066Y-46449466D01*
X54416400Y-46516133D01*
X54416400Y-46716133D01*
X54383066Y-46782800D01*
X54349733Y-46816133D01*
X54283066Y-46849466D01*
X54183066Y-46849466D01*
X54816400Y-46849466D02*
X54749733Y-46816133D01*
X54716400Y-46749466D01*
X54716400Y-46149466D01*
X54983066Y-46382800D02*
X55249733Y-46382800D01*
X55083066Y-46149466D02*
X55083066Y-46749466D01*
X55116400Y-46816133D01*
X55183066Y-46849466D01*
X55249733Y-46849466D01*
X55783066Y-46849466D02*
X55783066Y-46482800D01*
X55749733Y-46416133D01*
X55683066Y-46382800D01*
X55549733Y-46382800D01*
X55483066Y-46416133D01*
X55783066Y-46816133D02*
X55716400Y-46849466D01*
X55549733Y-46849466D01*
X55483066Y-46816133D01*
X55449733Y-46749466D01*
X55449733Y-46682800D01*
X55483066Y-46616133D01*
X55549733Y-46582800D01*
X55716400Y-46582800D01*
X55783066Y-46549466D01*
X56416400Y-46382800D02*
X56416400Y-46949466D01*
X56383066Y-47016133D01*
X56349733Y-47049466D01*
X56283066Y-47082800D01*
X56183066Y-47082800D01*
X56116400Y-47049466D01*
X56416400Y-46816133D02*
X56349733Y-46849466D01*
X56216400Y-46849466D01*
X56149733Y-46816133D01*
X56116400Y-46782800D01*
X56083066Y-46716133D01*
X56083066Y-46516133D01*
X56116400Y-46449466D01*
X56149733Y-46416133D01*
X56216400Y-46382800D01*
X56349733Y-46382800D01*
X56416400Y-46416133D01*
X57016400Y-46816133D02*
X56949733Y-46849466D01*
X56816400Y-46849466D01*
X56749733Y-46816133D01*
X56716400Y-46749466D01*
X56716400Y-46482800D01*
X56749733Y-46416133D01*
X56816400Y-46382800D01*
X56949733Y-46382800D01*
X57016400Y-46416133D01*
X57049733Y-46482800D01*
X57049733Y-46549466D01*
X56716400Y-46616133D01*
X53849733Y-47352800D02*
X53783066Y-47319466D01*
X53683066Y-47319466D01*
X53583066Y-47352800D01*
X53516400Y-47419466D01*
X53483066Y-47486133D01*
X53449733Y-47619466D01*
X53449733Y-47719466D01*
X53483066Y-47852800D01*
X53516400Y-47919466D01*
X53583066Y-47986133D01*
X53683066Y-48019466D01*
X53749733Y-48019466D01*
X53849733Y-47986133D01*
X53883066Y-47952800D01*
X53883066Y-47719466D01*
X53749733Y-47719466D01*
X54449733Y-47986133D02*
X54383066Y-48019466D01*
X54249733Y-48019466D01*
X54183066Y-47986133D01*
X54149733Y-47919466D01*
X54149733Y-47652800D01*
X54183066Y-47586133D01*
X54249733Y-47552800D01*
X54383066Y-47552800D01*
X54449733Y-47586133D01*
X54483066Y-47652800D01*
X54483066Y-47719466D01*
X54149733Y-47786133D01*
X54783066Y-47552800D02*
X54783066Y-48019466D01*
X54783066Y-47619466D02*
X54816400Y-47586133D01*
X54883066Y-47552800D01*
X54983066Y-47552800D01*
X55049733Y-47586133D01*
X55083066Y-47652800D01*
X55083066Y-48019466D01*
X55683066Y-47986133D02*
X55616400Y-48019466D01*
X55483066Y-48019466D01*
X55416400Y-47986133D01*
X55383066Y-47919466D01*
X55383066Y-47652800D01*
X55416400Y-47586133D01*
X55483066Y-47552800D01*
X55616400Y-47552800D01*
X55683066Y-47586133D01*
X55716400Y-47652800D01*
X55716400Y-47719466D01*
X55383066Y-47786133D01*
X56016400Y-48019466D02*
X56016400Y-47552800D01*
X56016400Y-47686133D02*
X56049733Y-47619466D01*
X56083066Y-47586133D01*
X56149733Y-47552800D01*
X56216400Y-47552800D01*
X56749733Y-48019466D02*
X56749733Y-47652800D01*
X56716400Y-47586133D01*
X56649733Y-47552800D01*
X56516400Y-47552800D01*
X56449733Y-47586133D01*
X56749733Y-47986133D02*
X56683066Y-48019466D01*
X56516400Y-48019466D01*
X56449733Y-47986133D01*
X56416400Y-47919466D01*
X56416400Y-47852800D01*
X56449733Y-47786133D01*
X56516400Y-47752800D01*
X56683066Y-47752800D01*
X56749733Y-47719466D01*
X56983066Y-47552800D02*
X57249733Y-47552800D01*
X57083066Y-47319466D02*
X57083066Y-47919466D01*
X57116400Y-47986133D01*
X57183066Y-48019466D01*
X57249733Y-48019466D01*
X57583066Y-48019466D02*
X57516400Y-47986133D01*
X57483066Y-47952800D01*
X57449733Y-47886133D01*
X57449733Y-47686133D01*
X57483066Y-47619466D01*
X57516400Y-47586133D01*
X57583066Y-47552800D01*
X57683066Y-47552800D01*
X57749733Y-47586133D01*
X57783066Y-47619466D01*
X57816400Y-47686133D01*
X57816400Y-47886133D01*
X57783066Y-47952800D01*
X57749733Y-47986133D01*
X57683066Y-48019466D01*
X57583066Y-48019466D01*
X58116400Y-48019466D02*
X58116400Y-47552800D01*
X58116400Y-47686133D02*
X58149733Y-47619466D01*
X58183066Y-47586133D01*
X58249733Y-47552800D01*
X58316400Y-47552800D01*
X67829866Y-51060000D02*
X67129866Y-51060000D01*
X67129866Y-50893333D01*
X67163200Y-50793333D01*
X67229866Y-50726666D01*
X67296533Y-50693333D01*
X67429866Y-50660000D01*
X67529866Y-50660000D01*
X67663200Y-50693333D01*
X67729866Y-50726666D01*
X67796533Y-50793333D01*
X67829866Y-50893333D01*
X67829866Y-51060000D01*
X67196533Y-50393333D02*
X67163200Y-50360000D01*
X67129866Y-50293333D01*
X67129866Y-50126666D01*
X67163200Y-50060000D01*
X67196533Y-50026666D01*
X67263200Y-49993333D01*
X67329866Y-49993333D01*
X67429866Y-50026666D01*
X67829866Y-50426666D01*
X67829866Y-49993333D01*
X67163200Y-48793333D02*
X67129866Y-48860000D01*
X67129866Y-48960000D01*
X67163200Y-49060000D01*
X67229866Y-49126666D01*
X67296533Y-49160000D01*
X67429866Y-49193333D01*
X67529866Y-49193333D01*
X67663200Y-49160000D01*
X67729866Y-49126666D01*
X67796533Y-49060000D01*
X67829866Y-48960000D01*
X67829866Y-48893333D01*
X67796533Y-48793333D01*
X67763200Y-48760000D01*
X67529866Y-48760000D01*
X67529866Y-48893333D01*
X67829866Y-48460000D02*
X67129866Y-48460000D01*
X67829866Y-48060000D01*
X67129866Y-48060000D01*
X67829866Y-47726666D02*
X67129866Y-47726666D01*
X67129866Y-47560000D01*
X67163200Y-47460000D01*
X67229866Y-47393333D01*
X67296533Y-47360000D01*
X67429866Y-47326666D01*
X67529866Y-47326666D01*
X67663200Y-47360000D01*
X67729866Y-47393333D01*
X67796533Y-47460000D01*
X67829866Y-47560000D01*
X67829866Y-47726666D01*
X67829866Y-46493333D02*
X67129866Y-46493333D01*
X67129866Y-46326666D01*
X67163200Y-46226666D01*
X67229866Y-46160000D01*
X67296533Y-46126666D01*
X67429866Y-46093333D01*
X67529866Y-46093333D01*
X67663200Y-46126666D01*
X67729866Y-46160000D01*
X67796533Y-46226666D01*
X67829866Y-46326666D01*
X67829866Y-46493333D01*
X67129866Y-45860000D02*
X67129866Y-45426666D01*
X67396533Y-45660000D01*
X67396533Y-45560000D01*
X67429866Y-45493333D01*
X67463200Y-45460000D01*
X67529866Y-45426666D01*
X67696533Y-45426666D01*
X67763200Y-45460000D01*
X67796533Y-45493333D01*
X67829866Y-45560000D01*
X67829866Y-45760000D01*
X67796533Y-45826666D01*
X67763200Y-45860000D01*
X24397466Y-44615666D02*
X24397466Y-44282333D01*
X24597466Y-44682333D02*
X23897466Y-44449000D01*
X24597466Y-44215666D01*
X24597466Y-43982333D02*
X24130800Y-43982333D01*
X24264133Y-43982333D02*
X24197466Y-43949000D01*
X24164133Y-43915666D01*
X24130800Y-43849000D01*
X24130800Y-43782333D01*
X24597466Y-43249000D02*
X23897466Y-43249000D01*
X24564133Y-43249000D02*
X24597466Y-43315666D01*
X24597466Y-43449000D01*
X24564133Y-43515666D01*
X24530800Y-43549000D01*
X24464133Y-43582333D01*
X24264133Y-43582333D01*
X24197466Y-43549000D01*
X24164133Y-43515666D01*
X24130800Y-43449000D01*
X24130800Y-43315666D01*
X24164133Y-43249000D01*
X24130800Y-42615666D02*
X24597466Y-42615666D01*
X24130800Y-42915666D02*
X24497466Y-42915666D01*
X24564133Y-42882333D01*
X24597466Y-42815666D01*
X24597466Y-42715666D01*
X24564133Y-42649000D01*
X24530800Y-42615666D01*
X24597466Y-42282333D02*
X24130800Y-42282333D01*
X23897466Y-42282333D02*
X23930800Y-42315666D01*
X23964133Y-42282333D01*
X23930800Y-42249000D01*
X23897466Y-42282333D01*
X23964133Y-42282333D01*
X24130800Y-41949000D02*
X24597466Y-41949000D01*
X24197466Y-41949000D02*
X24164133Y-41915666D01*
X24130800Y-41849000D01*
X24130800Y-41749000D01*
X24164133Y-41682333D01*
X24230800Y-41649000D01*
X24597466Y-41649000D01*
X24597466Y-41215666D02*
X24564133Y-41282333D01*
X24530800Y-41315666D01*
X24464133Y-41349000D01*
X24264133Y-41349000D01*
X24197466Y-41315666D01*
X24164133Y-41282333D01*
X24130800Y-41215666D01*
X24130800Y-41115666D01*
X24164133Y-41049000D01*
X24197466Y-41015666D01*
X24264133Y-40982333D01*
X24464133Y-40982333D01*
X24530800Y-41015666D01*
X24564133Y-41049000D01*
X24597466Y-41115666D01*
X24597466Y-41215666D01*
X25767466Y-45149000D02*
X25300800Y-45149000D01*
X25367466Y-45149000D02*
X25334133Y-45115666D01*
X25300800Y-45049000D01*
X25300800Y-44949000D01*
X25334133Y-44882333D01*
X25400800Y-44849000D01*
X25767466Y-44849000D01*
X25400800Y-44849000D02*
X25334133Y-44815666D01*
X25300800Y-44749000D01*
X25300800Y-44649000D01*
X25334133Y-44582333D01*
X25400800Y-44549000D01*
X25767466Y-44549000D01*
X25767466Y-44215666D02*
X25300800Y-44215666D01*
X25067466Y-44215666D02*
X25100800Y-44249000D01*
X25134133Y-44215666D01*
X25100800Y-44182333D01*
X25067466Y-44215666D01*
X25134133Y-44215666D01*
X25734133Y-43582333D02*
X25767466Y-43649000D01*
X25767466Y-43782333D01*
X25734133Y-43849000D01*
X25700800Y-43882333D01*
X25634133Y-43915666D01*
X25434133Y-43915666D01*
X25367466Y-43882333D01*
X25334133Y-43849000D01*
X25300800Y-43782333D01*
X25300800Y-43649000D01*
X25334133Y-43582333D01*
X25767466Y-43282333D02*
X25300800Y-43282333D01*
X25434133Y-43282333D02*
X25367466Y-43249000D01*
X25334133Y-43215666D01*
X25300800Y-43149000D01*
X25300800Y-43082333D01*
X25767466Y-42749000D02*
X25734133Y-42815666D01*
X25700800Y-42849000D01*
X25634133Y-42882333D01*
X25434133Y-42882333D01*
X25367466Y-42849000D01*
X25334133Y-42815666D01*
X25300800Y-42749000D01*
X25300800Y-42649000D01*
X25334133Y-42582333D01*
X25367466Y-42549000D01*
X25434133Y-42515666D01*
X25634133Y-42515666D01*
X25700800Y-42549000D01*
X25734133Y-42582333D01*
X25767466Y-42649000D01*
X25767466Y-42749000D01*
X25067466Y-42215666D02*
X25634133Y-42215666D01*
X25700800Y-42182333D01*
X25734133Y-42149000D01*
X25767466Y-42082333D01*
X25767466Y-41949000D01*
X25734133Y-41882333D01*
X25700800Y-41849000D01*
X25634133Y-41815666D01*
X25067466Y-41815666D01*
X25734133Y-41515666D02*
X25767466Y-41415666D01*
X25767466Y-41249000D01*
X25734133Y-41182333D01*
X25700800Y-41149000D01*
X25634133Y-41115666D01*
X25567466Y-41115666D01*
X25500800Y-41149000D01*
X25467466Y-41182333D01*
X25434133Y-41249000D01*
X25400800Y-41382333D01*
X25367466Y-41449000D01*
X25334133Y-41482333D01*
X25267466Y-41515666D01*
X25200800Y-41515666D01*
X25134133Y-41482333D01*
X25100800Y-41449000D01*
X25067466Y-41382333D01*
X25067466Y-41215666D01*
X25100800Y-41115666D01*
X25400800Y-40582333D02*
X25434133Y-40482333D01*
X25467466Y-40449000D01*
X25534133Y-40415666D01*
X25634133Y-40415666D01*
X25700800Y-40449000D01*
X25734133Y-40482333D01*
X25767466Y-40549000D01*
X25767466Y-40815666D01*
X25067466Y-40815666D01*
X25067466Y-40582333D01*
X25100800Y-40515666D01*
X25134133Y-40482333D01*
X25200800Y-40449000D01*
X25267466Y-40449000D01*
X25334133Y-40482333D01*
X25367466Y-40515666D01*
X25400800Y-40582333D01*
X25400800Y-40815666D01*
X26904133Y-45749000D02*
X26937466Y-45682333D01*
X26937466Y-45549000D01*
X26904133Y-45482333D01*
X26837466Y-45449000D01*
X26804133Y-45449000D01*
X26737466Y-45482333D01*
X26704133Y-45549000D01*
X26704133Y-45649000D01*
X26670800Y-45715666D01*
X26604133Y-45749000D01*
X26570800Y-45749000D01*
X26504133Y-45715666D01*
X26470800Y-45649000D01*
X26470800Y-45549000D01*
X26504133Y-45482333D01*
X26937466Y-45049000D02*
X26904133Y-45115666D01*
X26870800Y-45149000D01*
X26804133Y-45182333D01*
X26604133Y-45182333D01*
X26537466Y-45149000D01*
X26504133Y-45115666D01*
X26470800Y-45049000D01*
X26470800Y-44949000D01*
X26504133Y-44882333D01*
X26537466Y-44849000D01*
X26604133Y-44815666D01*
X26804133Y-44815666D01*
X26870800Y-44849000D01*
X26904133Y-44882333D01*
X26937466Y-44949000D01*
X26937466Y-45049000D01*
X26904133Y-44215666D02*
X26937466Y-44282333D01*
X26937466Y-44415666D01*
X26904133Y-44482333D01*
X26870800Y-44515666D01*
X26804133Y-44549000D01*
X26604133Y-44549000D01*
X26537466Y-44515666D01*
X26504133Y-44482333D01*
X26470800Y-44415666D01*
X26470800Y-44282333D01*
X26504133Y-44215666D01*
X26937466Y-43915666D02*
X26237466Y-43915666D01*
X26670800Y-43849000D02*
X26937466Y-43649000D01*
X26470800Y-43649000D02*
X26737466Y-43915666D01*
X26904133Y-43082333D02*
X26937466Y-43149000D01*
X26937466Y-43282333D01*
X26904133Y-43349000D01*
X26837466Y-43382333D01*
X26570800Y-43382333D01*
X26504133Y-43349000D01*
X26470800Y-43282333D01*
X26470800Y-43149000D01*
X26504133Y-43082333D01*
X26570800Y-43049000D01*
X26637466Y-43049000D01*
X26704133Y-43382333D01*
X26470800Y-42849000D02*
X26470800Y-42582333D01*
X26237466Y-42749000D02*
X26837466Y-42749000D01*
X26904133Y-42715666D01*
X26937466Y-42649000D01*
X26937466Y-42582333D01*
X26937466Y-41815666D02*
X26237466Y-41815666D01*
X26937466Y-41515666D02*
X26570800Y-41515666D01*
X26504133Y-41549000D01*
X26470800Y-41615666D01*
X26470800Y-41715666D01*
X26504133Y-41782333D01*
X26537466Y-41815666D01*
X26904133Y-40915666D02*
X26937466Y-40982333D01*
X26937466Y-41115666D01*
X26904133Y-41182333D01*
X26837466Y-41215666D01*
X26570800Y-41215666D01*
X26504133Y-41182333D01*
X26470800Y-41115666D01*
X26470800Y-40982333D01*
X26504133Y-40915666D01*
X26570800Y-40882333D01*
X26637466Y-40882333D01*
X26704133Y-41215666D01*
X26937466Y-40582333D02*
X26470800Y-40582333D01*
X26604133Y-40582333D02*
X26537466Y-40549000D01*
X26504133Y-40515666D01*
X26470800Y-40449000D01*
X26470800Y-40382333D01*
X26904133Y-39882333D02*
X26937466Y-39949000D01*
X26937466Y-40082333D01*
X26904133Y-40149000D01*
X26837466Y-40182333D01*
X26570800Y-40182333D01*
X26504133Y-40149000D01*
X26470800Y-40082333D01*
X26470800Y-39949000D01*
X26504133Y-39882333D01*
X26570800Y-39849000D01*
X26637466Y-39849000D01*
X26704133Y-40182333D01*
D13*
G36*
X70713600Y-49745900D02*
G01*
X69799200Y-49745900D01*
X69799200Y-49276000D01*
X70167500Y-49276000D01*
X70180200Y-47536100D01*
X69796660Y-47536100D01*
X69796660Y-47142400D01*
X70713600Y-47142400D01*
X70713600Y-49745900D01*
G37*
X70713600Y-49745900D02*
X69799200Y-49745900D01*
X69799200Y-49276000D01*
X70167500Y-49276000D01*
X70180200Y-47536100D01*
X69796660Y-47536100D01*
X69796660Y-47142400D01*
X70713600Y-47142400D01*
X70713600Y-49745900D01*
D11*
X27355800Y-46050200D02*
X23164800Y-46050200D01*
X27355800Y-39446200D02*
X27355800Y-46050200D01*
X23164800Y-39446200D02*
X27355800Y-39446200D01*
D14*
X45245542Y-27326400D02*
X45959828Y-27326400D01*
X45102685Y-27754971D02*
X45602685Y-26254971D01*
X46102685Y-27754971D01*
X46531257Y-27326400D02*
X47245542Y-27326400D01*
X46388400Y-27754971D02*
X46888400Y-26254971D01*
X47388400Y-27754971D01*
X47816971Y-27326400D02*
X48531257Y-27326400D01*
X47674114Y-27754971D02*
X48174114Y-26254971D01*
X48674114Y-27754971D01*
D12*
X32397600Y-51923190D02*
X32450933Y-51923190D01*
X32504266Y-51947000D01*
X32530933Y-51970809D01*
X32557600Y-52018428D01*
X32584266Y-52113666D01*
X32584266Y-52232714D01*
X32557600Y-52327952D01*
X32530933Y-52375571D01*
X32504266Y-52399380D01*
X32450933Y-52423190D01*
X32397600Y-52423190D01*
X32344266Y-52399380D01*
X32317600Y-52375571D01*
X32290933Y-52327952D01*
X32264266Y-52232714D01*
X32264266Y-52113666D01*
X32290933Y-52018428D01*
X32317600Y-51970809D01*
X32344266Y-51947000D01*
X32397600Y-51923190D01*
X32824266Y-52375571D02*
X32850933Y-52399380D01*
X32824266Y-52423190D01*
X32797600Y-52399380D01*
X32824266Y-52375571D01*
X32824266Y-52423190D01*
X32824266Y-52113666D02*
X32850933Y-52137476D01*
X32824266Y-52161285D01*
X32797600Y-52137476D01*
X32824266Y-52113666D01*
X32824266Y-52161285D01*
X35090933Y-52423190D02*
X34770933Y-52423190D01*
X34930933Y-52423190D02*
X34930933Y-51923190D01*
X34877600Y-51994619D01*
X34824266Y-52042238D01*
X34770933Y-52066047D01*
X35330933Y-52375571D02*
X35357600Y-52399380D01*
X35330933Y-52423190D01*
X35304266Y-52399380D01*
X35330933Y-52375571D01*
X35330933Y-52423190D01*
X35330933Y-52113666D02*
X35357600Y-52137476D01*
X35330933Y-52161285D01*
X35304266Y-52137476D01*
X35330933Y-52113666D01*
X35330933Y-52161285D01*
X37277600Y-51970809D02*
X37304266Y-51947000D01*
X37357600Y-51923190D01*
X37490933Y-51923190D01*
X37544266Y-51947000D01*
X37570933Y-51970809D01*
X37597600Y-52018428D01*
X37597600Y-52066047D01*
X37570933Y-52137476D01*
X37250933Y-52423190D01*
X37597600Y-52423190D01*
X37837600Y-52375571D02*
X37864266Y-52399380D01*
X37837600Y-52423190D01*
X37810933Y-52399380D01*
X37837600Y-52375571D01*
X37837600Y-52423190D01*
X37837600Y-52113666D02*
X37864266Y-52137476D01*
X37837600Y-52161285D01*
X37810933Y-52137476D01*
X37837600Y-52113666D01*
X37837600Y-52161285D01*
X39757600Y-51923190D02*
X40104266Y-51923190D01*
X39917600Y-52113666D01*
X39997600Y-52113666D01*
X40050933Y-52137476D01*
X40077600Y-52161285D01*
X40104266Y-52208904D01*
X40104266Y-52327952D01*
X40077600Y-52375571D01*
X40050933Y-52399380D01*
X39997600Y-52423190D01*
X39837600Y-52423190D01*
X39784266Y-52399380D01*
X39757600Y-52375571D01*
X40344266Y-52375571D02*
X40370933Y-52399380D01*
X40344266Y-52423190D01*
X40317600Y-52399380D01*
X40344266Y-52375571D01*
X40344266Y-52423190D01*
X40344266Y-52113666D02*
X40370933Y-52137476D01*
X40344266Y-52161285D01*
X40317600Y-52137476D01*
X40344266Y-52113666D01*
X40344266Y-52161285D01*
X42557600Y-52089857D02*
X42557600Y-52423190D01*
X42424266Y-51899380D02*
X42290933Y-52256523D01*
X42637600Y-52256523D01*
X42850933Y-52375571D02*
X42877600Y-52399380D01*
X42850933Y-52423190D01*
X42824266Y-52399380D01*
X42850933Y-52375571D01*
X42850933Y-52423190D01*
X42850933Y-52113666D02*
X42877600Y-52137476D01*
X42850933Y-52161285D01*
X42824266Y-52137476D01*
X42850933Y-52113666D01*
X42850933Y-52161285D01*
X45090933Y-51923190D02*
X44824266Y-51923190D01*
X44797599Y-52161285D01*
X44824266Y-52137476D01*
X44877599Y-52113666D01*
X45010933Y-52113666D01*
X45064266Y-52137476D01*
X45090933Y-52161285D01*
X45117599Y-52208904D01*
X45117599Y-52327952D01*
X45090933Y-52375571D01*
X45064266Y-52399380D01*
X45010933Y-52423190D01*
X44877599Y-52423190D01*
X44824266Y-52399380D01*
X44797599Y-52375571D01*
X45357600Y-52375571D02*
X45384266Y-52399380D01*
X45357600Y-52423190D01*
X45330933Y-52399380D01*
X45357600Y-52375571D01*
X45357600Y-52423190D01*
X45357600Y-52113666D02*
X45384266Y-52137476D01*
X45357600Y-52161285D01*
X45330933Y-52137476D01*
X45357600Y-52113666D01*
X45357600Y-52161285D01*
X47570933Y-51923190D02*
X47464266Y-51923190D01*
X47410933Y-51947000D01*
X47384266Y-51970809D01*
X47330933Y-52042238D01*
X47304266Y-52137476D01*
X47304266Y-52327952D01*
X47330933Y-52375571D01*
X47357599Y-52399380D01*
X47410933Y-52423190D01*
X47517599Y-52423190D01*
X47570933Y-52399380D01*
X47597599Y-52375571D01*
X47624266Y-52327952D01*
X47624266Y-52208904D01*
X47597599Y-52161285D01*
X47570933Y-52137476D01*
X47517599Y-52113666D01*
X47410933Y-52113666D01*
X47357599Y-52137476D01*
X47330933Y-52161285D01*
X47304266Y-52208904D01*
X47864266Y-52375571D02*
X47890933Y-52399380D01*
X47864266Y-52423190D01*
X47837599Y-52399380D01*
X47864266Y-52375571D01*
X47864266Y-52423190D01*
X47864266Y-52113666D02*
X47890933Y-52137476D01*
X47864266Y-52161285D01*
X47837599Y-52137476D01*
X47864266Y-52113666D01*
X47864266Y-52161285D01*
X49784266Y-51923190D02*
X50157599Y-51923190D01*
X49917599Y-52423190D01*
X50370933Y-52375571D02*
X50397599Y-52399380D01*
X50370933Y-52423190D01*
X50344266Y-52399380D01*
X50370933Y-52375571D01*
X50370933Y-52423190D01*
X50370933Y-52113666D02*
X50397599Y-52137476D01*
X50370933Y-52161285D01*
X50344266Y-52137476D01*
X50370933Y-52113666D01*
X50370933Y-52161285D01*
X52664266Y-52423190D02*
X52477600Y-52185095D01*
X52344266Y-52423190D02*
X52344266Y-51923190D01*
X52557600Y-51923190D01*
X52610933Y-51947000D01*
X52637600Y-51970809D01*
X52664266Y-52018428D01*
X52664266Y-52089857D01*
X52637600Y-52137476D01*
X52610933Y-52161285D01*
X52557600Y-52185095D01*
X52344266Y-52185095D01*
X52904266Y-52375571D02*
X52930933Y-52399380D01*
X52904266Y-52423190D01*
X52877600Y-52399380D01*
X52904266Y-52375571D01*
X52904266Y-52423190D01*
X52904266Y-52113666D02*
X52930933Y-52137476D01*
X52904266Y-52161285D01*
X52877600Y-52137476D01*
X52904266Y-52113666D01*
X52904266Y-52161285D01*
X55197600Y-52423190D02*
X55010933Y-52185095D01*
X54877600Y-52423190D02*
X54877600Y-51923190D01*
X55090933Y-51923190D01*
X55144266Y-51947000D01*
X55170933Y-51970809D01*
X55197600Y-52018428D01*
X55197600Y-52089857D01*
X55170933Y-52137476D01*
X55144266Y-52161285D01*
X55090933Y-52185095D01*
X54877600Y-52185095D01*
X55437600Y-52375571D02*
X55464266Y-52399380D01*
X55437600Y-52423190D01*
X55410933Y-52399380D01*
X55437600Y-52375571D01*
X55437600Y-52423190D01*
X55437600Y-52113666D02*
X55464266Y-52137476D01*
X55437600Y-52161285D01*
X55410933Y-52137476D01*
X55437600Y-52113666D01*
X55437600Y-52161285D01*
X57410933Y-52232714D02*
X57837600Y-52232714D01*
X57624266Y-52423190D02*
X57624266Y-52042238D01*
X58104266Y-52375571D02*
X58130933Y-52399380D01*
X58104266Y-52423190D01*
X58077600Y-52399380D01*
X58104266Y-52375571D01*
X58104266Y-52423190D01*
X58104266Y-52113666D02*
X58130933Y-52137476D01*
X58104266Y-52161285D01*
X58077600Y-52137476D01*
X58104266Y-52113666D01*
X58104266Y-52161285D01*
X60077600Y-52232714D02*
X60504266Y-52232714D01*
X60290933Y-52423190D02*
X60290933Y-52042238D01*
X60770933Y-52375571D02*
X60797600Y-52399380D01*
X60770933Y-52423190D01*
X60744266Y-52399380D01*
X60770933Y-52375571D01*
X60770933Y-52423190D01*
X60770933Y-52113666D02*
X60797600Y-52137476D01*
X60770933Y-52161285D01*
X60744266Y-52137476D01*
X60770933Y-52113666D01*
X60770933Y-52161285D01*
D13*
G36*
X68059300Y-54381400D02*
G01*
X62852300Y-54381400D01*
X62852300Y-53467000D01*
X63322200Y-53467000D01*
X63322200Y-53835300D01*
X65062100Y-53848000D01*
X65062100Y-53464460D01*
X65836800Y-53464460D01*
X65836800Y-53848000D01*
X67614800Y-53848000D01*
X67614800Y-53454300D01*
X68059300Y-53454300D01*
X68059300Y-54381400D01*
G37*
X68059300Y-54381400D02*
X62852300Y-54381400D01*
X62852300Y-53467000D01*
X63322200Y-53467000D01*
X63322200Y-53835300D01*
X65062100Y-53848000D01*
X65062100Y-53464460D01*
X65836800Y-53464460D01*
X65836800Y-53848000D01*
X67614800Y-53848000D01*
X67614800Y-53454300D01*
X68059300Y-53454300D01*
X68059300Y-54381400D01*
D10*
X40449733Y-44650066D02*
X40116400Y-44650066D01*
X40083066Y-44983400D01*
X40116400Y-44950066D01*
X40183066Y-44916733D01*
X40349733Y-44916733D01*
X40416400Y-44950066D01*
X40449733Y-44983400D01*
X40483066Y-45050066D01*
X40483066Y-45216733D01*
X40449733Y-45283400D01*
X40416400Y-45316733D01*
X40349733Y-45350066D01*
X40183066Y-45350066D01*
X40116400Y-45316733D01*
X40083066Y-45283400D01*
X40683066Y-44650066D02*
X40916400Y-45350066D01*
X41149733Y-44650066D01*
X42149733Y-44983400D02*
X42249733Y-45016733D01*
X42283066Y-45050066D01*
X42316400Y-45116733D01*
X42316400Y-45216733D01*
X42283066Y-45283400D01*
X42249733Y-45316733D01*
X42183066Y-45350066D01*
X41916400Y-45350066D01*
X41916400Y-44650066D01*
X42149733Y-44650066D01*
X42216400Y-44683400D01*
X42249733Y-44716733D01*
X42283066Y-44783400D01*
X42283066Y-44850066D01*
X42249733Y-44916733D01*
X42216400Y-44950066D01*
X42149733Y-44983400D01*
X41916400Y-44983400D01*
X42716400Y-45350066D02*
X42649733Y-45316733D01*
X42616400Y-45283400D01*
X42583066Y-45216733D01*
X42583066Y-45016733D01*
X42616400Y-44950066D01*
X42649733Y-44916733D01*
X42716400Y-44883400D01*
X42816400Y-44883400D01*
X42883066Y-44916733D01*
X42916400Y-44950066D01*
X42949733Y-45016733D01*
X42949733Y-45216733D01*
X42916400Y-45283400D01*
X42883066Y-45316733D01*
X42816400Y-45350066D01*
X42716400Y-45350066D01*
X43349733Y-45350066D02*
X43283066Y-45316733D01*
X43249733Y-45283400D01*
X43216400Y-45216733D01*
X43216400Y-45016733D01*
X43249733Y-44950066D01*
X43283066Y-44916733D01*
X43349733Y-44883400D01*
X43449733Y-44883400D01*
X43516400Y-44916733D01*
X43549733Y-44950066D01*
X43583066Y-45016733D01*
X43583066Y-45216733D01*
X43549733Y-45283400D01*
X43516400Y-45316733D01*
X43449733Y-45350066D01*
X43349733Y-45350066D01*
X43849733Y-45316733D02*
X43916400Y-45350066D01*
X44049733Y-45350066D01*
X44116400Y-45316733D01*
X44149733Y-45250066D01*
X44149733Y-45216733D01*
X44116400Y-45150066D01*
X44049733Y-45116733D01*
X43949733Y-45116733D01*
X43883066Y-45083400D01*
X43849733Y-45016733D01*
X43849733Y-44983400D01*
X43883066Y-44916733D01*
X43949733Y-44883400D01*
X44049733Y-44883400D01*
X44116400Y-44916733D01*
X44349733Y-44883400D02*
X44616400Y-44883400D01*
X44449733Y-44650066D02*
X44449733Y-45250066D01*
X44483066Y-45316733D01*
X44549733Y-45350066D01*
X44616400Y-45350066D01*
X40399733Y-46453400D02*
X40366400Y-46486733D01*
X40266400Y-46520066D01*
X40199733Y-46520066D01*
X40099733Y-46486733D01*
X40033066Y-46420066D01*
X39999733Y-46353400D01*
X39966400Y-46220066D01*
X39966400Y-46120066D01*
X39999733Y-45986733D01*
X40033066Y-45920066D01*
X40099733Y-45853400D01*
X40199733Y-45820066D01*
X40266400Y-45820066D01*
X40366400Y-45853400D01*
X40399733Y-45886733D01*
X40799733Y-46520066D02*
X40733066Y-46486733D01*
X40699733Y-46453400D01*
X40666400Y-46386733D01*
X40666400Y-46186733D01*
X40699733Y-46120066D01*
X40733066Y-46086733D01*
X40799733Y-46053400D01*
X40899733Y-46053400D01*
X40966400Y-46086733D01*
X40999733Y-46120066D01*
X41033066Y-46186733D01*
X41033066Y-46386733D01*
X40999733Y-46453400D01*
X40966400Y-46486733D01*
X40899733Y-46520066D01*
X40799733Y-46520066D01*
X41333066Y-46053400D02*
X41333066Y-46520066D01*
X41333066Y-46120066D02*
X41366400Y-46086733D01*
X41433066Y-46053400D01*
X41533066Y-46053400D01*
X41599733Y-46086733D01*
X41633066Y-46153400D01*
X41633066Y-46520066D01*
X41899733Y-46053400D02*
X42066400Y-46520066D01*
X42233066Y-46053400D01*
X42766400Y-46486733D02*
X42699733Y-46520066D01*
X42566400Y-46520066D01*
X42499733Y-46486733D01*
X42466400Y-46420066D01*
X42466400Y-46153400D01*
X42499733Y-46086733D01*
X42566400Y-46053400D01*
X42699733Y-46053400D01*
X42766400Y-46086733D01*
X42799733Y-46153400D01*
X42799733Y-46220066D01*
X42466400Y-46286733D01*
X43099733Y-46520066D02*
X43099733Y-46053400D01*
X43099733Y-46186733D02*
X43133066Y-46120066D01*
X43166400Y-46086733D01*
X43233066Y-46053400D01*
X43299733Y-46053400D01*
X43433066Y-46053400D02*
X43699733Y-46053400D01*
X43533066Y-45820066D02*
X43533066Y-46420066D01*
X43566400Y-46486733D01*
X43633066Y-46520066D01*
X43699733Y-46520066D01*
X44199733Y-46486733D02*
X44133066Y-46520066D01*
X43999733Y-46520066D01*
X43933066Y-46486733D01*
X43899733Y-46420066D01*
X43899733Y-46153400D01*
X43933066Y-46086733D01*
X43999733Y-46053400D01*
X44133066Y-46053400D01*
X44199733Y-46086733D01*
X44233066Y-46153400D01*
X44233066Y-46220066D01*
X43899733Y-46286733D01*
X44533066Y-46520066D02*
X44533066Y-46053400D01*
X44533066Y-46186733D02*
X44566400Y-46120066D01*
X44599733Y-46086733D01*
X44666400Y-46053400D01*
X44733066Y-46053400D01*
D11*
X39767714Y-31848457D02*
X39767714Y-33048457D01*
X39767714Y-31905600D02*
X39882000Y-31848457D01*
X40110571Y-31848457D01*
X40224857Y-31905600D01*
X40282000Y-31962742D01*
X40339142Y-32077028D01*
X40339142Y-32419885D01*
X40282000Y-32534171D01*
X40224857Y-32591314D01*
X40110571Y-32648457D01*
X39882000Y-32648457D01*
X39767714Y-32591314D01*
X40796285Y-32591314D02*
X40910571Y-32648457D01*
X41139142Y-32648457D01*
X41253428Y-32591314D01*
X41310571Y-32477028D01*
X41310571Y-32419885D01*
X41253428Y-32305600D01*
X41139142Y-32248457D01*
X40967714Y-32248457D01*
X40853428Y-32191314D01*
X40796285Y-32077028D01*
X40796285Y-32019885D01*
X40853428Y-31905600D01*
X40967714Y-31848457D01*
X41139142Y-31848457D01*
X41253428Y-31905600D01*
X41710571Y-31848457D02*
X41996285Y-32648457D01*
X42282000Y-31848457D02*
X41996285Y-32648457D01*
X41882000Y-32934171D01*
X41824857Y-32991314D01*
X41710571Y-33048457D01*
X42910571Y-32648457D02*
X42796285Y-32591314D01*
X42739142Y-32477028D01*
X42739142Y-31448457D01*
X43367714Y-32648457D02*
X43367714Y-31848457D01*
X43367714Y-31448457D02*
X43310571Y-31505600D01*
X43367714Y-31562742D01*
X43424857Y-31505600D01*
X43367714Y-31448457D01*
X43367714Y-31562742D01*
X43939142Y-31848457D02*
X43939142Y-32648457D01*
X43939142Y-31962742D02*
X43996285Y-31905600D01*
X44110571Y-31848457D01*
X44282000Y-31848457D01*
X44396285Y-31905600D01*
X44453428Y-32019885D01*
X44453428Y-32648457D01*
X45024857Y-32648457D02*
X45024857Y-31448457D01*
X45139142Y-32191314D02*
X45482000Y-32648457D01*
X45482000Y-31848457D02*
X45024857Y-32305600D01*
X45996285Y-32534171D02*
X46053428Y-32591314D01*
X45996285Y-32648457D01*
X45939142Y-32591314D01*
X45996285Y-32534171D01*
X45996285Y-32648457D01*
X46567714Y-32648457D02*
X46567714Y-31848457D01*
X46567714Y-31962742D02*
X46624857Y-31905600D01*
X46739142Y-31848457D01*
X46910571Y-31848457D01*
X47024857Y-31905600D01*
X47082000Y-32019885D01*
X47082000Y-32648457D01*
X47082000Y-32019885D02*
X47139142Y-31905600D01*
X47253428Y-31848457D01*
X47424857Y-31848457D01*
X47539142Y-31905600D01*
X47596285Y-32019885D01*
X47596285Y-32648457D01*
X48624857Y-32591314D02*
X48510571Y-32648457D01*
X48282000Y-32648457D01*
X48167714Y-32591314D01*
X48110571Y-32477028D01*
X48110571Y-32019885D01*
X48167714Y-31905600D01*
X48282000Y-31848457D01*
X48510571Y-31848457D01*
X48624857Y-31905600D01*
X48682000Y-32019885D01*
X48682000Y-32134171D01*
X48110571Y-32248457D01*
X50053428Y-31391314D02*
X49024857Y-32934171D01*
X50453428Y-32648457D02*
X50453428Y-31448457D01*
X50453428Y-31905600D02*
X50567714Y-31848457D01*
X50796285Y-31848457D01*
X50910571Y-31905600D01*
X50967714Y-31962742D01*
X51024857Y-32077028D01*
X51024857Y-32419885D01*
X50967714Y-32534171D01*
X50910571Y-32591314D01*
X50796285Y-32648457D01*
X50567714Y-32648457D01*
X50453428Y-32591314D01*
X51539142Y-31848457D02*
X51539142Y-33048457D01*
X51539142Y-31905600D02*
X51653428Y-31848457D01*
X51882000Y-31848457D01*
X51996285Y-31905600D01*
X52053428Y-31962742D01*
X52110571Y-32077028D01*
X52110571Y-32419885D01*
X52053428Y-32534171D01*
X51996285Y-32591314D01*
X51882000Y-32648457D01*
X51653428Y-32648457D01*
X51539142Y-32591314D01*
X52510571Y-31448457D02*
X53253428Y-31448457D01*
X52853428Y-31905600D01*
X53024857Y-31905600D01*
X53139142Y-31962742D01*
X53196285Y-32019885D01*
X53253428Y-32134171D01*
X53253428Y-32419885D01*
X53196285Y-32534171D01*
X53139142Y-32591314D01*
X53024857Y-32648457D01*
X52682000Y-32648457D01*
X52567714Y-32591314D01*
X52510571Y-32534171D01*
D15*
X38978840Y-26390600D02*
X38978840Y-27787600D01*
X55524400Y-27051000D02*
X54114700Y-27051000D01*
X54813200Y-26390600D02*
X54813200Y-27787600D01*
D10*
X24730400Y-35217100D02*
X24730400Y-33887100D01*
X24730400Y-33887100D02*
X26060400Y-33887100D01*
X27330400Y-33887100D02*
X62950400Y-33887100D01*
X62950400Y-36547100D02*
X62950400Y-33887100D01*
X27330400Y-36547100D02*
X62950400Y-36547100D01*
X27330400Y-36547100D02*
X27330400Y-33887100D01*
X34866078Y-45657700D02*
X34348922Y-45657700D01*
X34866078Y-47077700D02*
X34348922Y-47077700D01*
X34348922Y-44918700D02*
X34866078Y-44918700D01*
X34348922Y-43498700D02*
X34866078Y-43498700D01*
X27330400Y-51787100D02*
X27330400Y-49127100D01*
X27330400Y-51787100D02*
X62950400Y-51787100D01*
X62950400Y-51787100D02*
X62950400Y-49127100D01*
X27330400Y-49127100D02*
X62950400Y-49127100D01*
X24730400Y-49127100D02*
X26060400Y-49127100D01*
X24730400Y-50457100D02*
X24730400Y-49127100D01*
X50236622Y-42165200D02*
X50753778Y-42165200D01*
X50236622Y-43585200D02*
X50753778Y-43585200D01*
X55427000Y-25603200D02*
X55427000Y-24587200D01*
X55427000Y-28651200D02*
X55427000Y-29667200D01*
X56570000Y-28651200D02*
X55427000Y-28651200D01*
X56570000Y-25603200D02*
X55427000Y-25603200D01*
X56570000Y-28651200D02*
X56570000Y-25603200D01*
X37901000Y-29667200D02*
X55427000Y-29667200D01*
X37901000Y-24587200D02*
X37901000Y-29667200D01*
X55427000Y-24587200D02*
X37901000Y-24587200D01*
X70254000Y-29127200D02*
X69254000Y-29127200D01*
X69254000Y-25127200D02*
X70254000Y-25127200D01*
X50753778Y-37999600D02*
X50236622Y-37999600D01*
X50753778Y-39419600D02*
X50236622Y-39419600D01*
X69291200Y-34280800D02*
X70621200Y-34280800D01*
X70621200Y-34280800D02*
X70621200Y-35610800D01*
X70621200Y-36880800D02*
X70621200Y-42020800D01*
X67961200Y-42020800D02*
X70621200Y-42020800D01*
X67961200Y-36880800D02*
X67961200Y-42020800D01*
X67961200Y-36880800D02*
X70621200Y-36880800D01*
X33726900Y-40448000D02*
X33726900Y-42348000D01*
X36046900Y-41848000D02*
X36046900Y-40448000D01*
X55404000Y-43621600D02*
X57204000Y-43621600D01*
X57204000Y-40401600D02*
X54754000Y-40401600D01*
X32431400Y-42131064D02*
X32431400Y-40926936D01*
X30611400Y-42131064D02*
X30611400Y-40926936D01*
X28325400Y-42131064D02*
X28325400Y-40926936D01*
X30145400Y-42131064D02*
X30145400Y-40926936D01*
X38971900Y-40774536D02*
X38971900Y-41978664D01*
X37151900Y-40774536D02*
X37151900Y-41978664D01*
X39437900Y-40774536D02*
X39437900Y-41978664D01*
X41257900Y-40774536D02*
X41257900Y-41978664D01*
X65680000Y-49268464D02*
X65680000Y-48064336D01*
X63860000Y-49268464D02*
X63860000Y-48064336D01*
X55836736Y-39772000D02*
X57040864Y-39772000D01*
X55836736Y-37952000D02*
X57040864Y-37952000D01*
X62022400Y-42004064D02*
X62022400Y-40799936D01*
X60202400Y-42004064D02*
X60202400Y-40799936D01*
X62488400Y-42004064D02*
X62488400Y-40799936D01*
X64308400Y-42004064D02*
X64308400Y-40799936D01*
X43531200Y-40779616D02*
X43531200Y-41983744D01*
X41711200Y-40779616D02*
X41711200Y-41983744D01*
X45817200Y-40779616D02*
X45817200Y-41983744D01*
X43997200Y-40779616D02*
X43997200Y-41983744D01*
X32811636Y-38913480D02*
X34015764Y-38913480D01*
X32811636Y-37093480D02*
X34015764Y-37093480D01*
X67961200Y-47142400D02*
X70621200Y-47142400D01*
X67961200Y-47142400D02*
X67961200Y-52282400D01*
X67961200Y-52282400D02*
X70621200Y-52282400D01*
X70621200Y-47142400D02*
X70621200Y-52282400D01*
X70621200Y-44542400D02*
X70621200Y-45872400D01*
X69291200Y-44542400D02*
X70621200Y-44542400D01*
X67970400Y-51714400D02*
X67970400Y-52984400D01*
X66700400Y-51714400D02*
X67970400Y-51714400D01*
X25680400Y-54027329D02*
X25680400Y-54424400D01*
X26440400Y-54027329D02*
X26440400Y-54424400D01*
X25680400Y-63084400D02*
X25680400Y-57084400D01*
X26440400Y-63084400D02*
X25680400Y-63084400D01*
X26440400Y-57084400D02*
X26440400Y-63084400D01*
X27330400Y-54424400D02*
X27330400Y-57084400D01*
X28220400Y-54027329D02*
X28220400Y-54424400D01*
X28980400Y-54027329D02*
X28980400Y-54424400D01*
X28220400Y-63084400D02*
X28220400Y-57084400D01*
X28980400Y-63084400D02*
X28220400Y-63084400D01*
X28980400Y-57084400D02*
X28980400Y-63084400D01*
X29870400Y-54424400D02*
X29870400Y-57084400D01*
X30760400Y-54027329D02*
X30760400Y-54424400D01*
X31520400Y-54027329D02*
X31520400Y-54424400D01*
X30760400Y-63084400D02*
X30760400Y-57084400D01*
X31520400Y-63084400D02*
X30760400Y-63084400D01*
X31520400Y-57084400D02*
X31520400Y-63084400D01*
X32410400Y-54424400D02*
X32410400Y-57084400D01*
X33300400Y-54027329D02*
X33300400Y-54424400D01*
X34060400Y-54027329D02*
X34060400Y-54424400D01*
X33300400Y-63084400D02*
X33300400Y-57084400D01*
X34060400Y-63084400D02*
X33300400Y-63084400D01*
X34060400Y-57084400D02*
X34060400Y-63084400D01*
X34950400Y-54424400D02*
X34950400Y-57084400D01*
X35840400Y-54027329D02*
X35840400Y-54424400D01*
X36600400Y-54027329D02*
X36600400Y-54424400D01*
X35840400Y-63084400D02*
X35840400Y-57084400D01*
X36600400Y-63084400D02*
X35840400Y-63084400D01*
X36600400Y-57084400D02*
X36600400Y-63084400D01*
X37490400Y-54424400D02*
X37490400Y-57084400D01*
X38380400Y-54027329D02*
X38380400Y-54424400D01*
X39140400Y-54027329D02*
X39140400Y-54424400D01*
X38380400Y-63084400D02*
X38380400Y-57084400D01*
X39140400Y-63084400D02*
X38380400Y-63084400D01*
X39140400Y-57084400D02*
X39140400Y-63084400D01*
X40030400Y-54424400D02*
X40030400Y-57084400D01*
X40920400Y-54027329D02*
X40920400Y-54424400D01*
X41680400Y-54027329D02*
X41680400Y-54424400D01*
X40920400Y-63084400D02*
X40920400Y-57084400D01*
X41680400Y-63084400D02*
X40920400Y-63084400D01*
X41680400Y-57084400D02*
X41680400Y-63084400D01*
X42570400Y-54424400D02*
X42570400Y-57084400D01*
X43460400Y-54027329D02*
X43460400Y-54424400D01*
X44220400Y-54027329D02*
X44220400Y-54424400D01*
X43460400Y-63084400D02*
X43460400Y-57084400D01*
X44220400Y-63084400D02*
X43460400Y-63084400D01*
X44220400Y-57084400D02*
X44220400Y-63084400D01*
X45110400Y-54424400D02*
X45110400Y-57084400D01*
X46000400Y-54027329D02*
X46000400Y-54424400D01*
X46760400Y-54027329D02*
X46760400Y-54424400D01*
X46000400Y-63084400D02*
X46000400Y-57084400D01*
X46760400Y-63084400D02*
X46000400Y-63084400D01*
X46760400Y-57084400D02*
X46760400Y-63084400D01*
X47650400Y-54424400D02*
X47650400Y-57084400D01*
X48540400Y-54027329D02*
X48540400Y-54424400D01*
X49300400Y-54027329D02*
X49300400Y-54424400D01*
X48540400Y-63084400D02*
X48540400Y-57084400D01*
X49300400Y-63084400D02*
X48540400Y-63084400D01*
X49300400Y-57084400D02*
X49300400Y-63084400D01*
X50190400Y-54424400D02*
X50190400Y-57084400D01*
X51080400Y-54027329D02*
X51080400Y-54424400D01*
X51840400Y-54027329D02*
X51840400Y-54424400D01*
X51080400Y-63084400D02*
X51080400Y-57084400D01*
X51840400Y-63084400D02*
X51080400Y-63084400D01*
X51840400Y-57084400D02*
X51840400Y-63084400D01*
X52730400Y-54424400D02*
X52730400Y-57084400D01*
X53620400Y-54027329D02*
X53620400Y-54424400D01*
X54380400Y-54027329D02*
X54380400Y-54424400D01*
X53620400Y-63084400D02*
X53620400Y-57084400D01*
X54380400Y-63084400D02*
X53620400Y-63084400D01*
X54380400Y-57084400D02*
X54380400Y-63084400D01*
X55270400Y-54424400D02*
X55270400Y-57084400D01*
X56160400Y-54027329D02*
X56160400Y-54424400D01*
X56920400Y-54027329D02*
X56920400Y-54424400D01*
X56160400Y-63084400D02*
X56160400Y-57084400D01*
X56920400Y-63084400D02*
X56160400Y-63084400D01*
X56920400Y-57084400D02*
X56920400Y-63084400D01*
X57810400Y-54424400D02*
X57810400Y-57084400D01*
X58700400Y-54027329D02*
X58700400Y-54424400D01*
X59460400Y-54027329D02*
X59460400Y-54424400D01*
X58700400Y-63084400D02*
X58700400Y-57084400D01*
X59460400Y-63084400D02*
X58700400Y-63084400D01*
X59460400Y-57084400D02*
X59460400Y-63084400D01*
X60350400Y-54424400D02*
X60350400Y-57084400D01*
X61240400Y-54027329D02*
X61240400Y-54424400D01*
X62000400Y-54027329D02*
X62000400Y-54424400D01*
X61240400Y-63084400D02*
X61240400Y-57084400D01*
X62000400Y-63084400D02*
X61240400Y-63084400D01*
X62000400Y-57084400D02*
X62000400Y-63084400D01*
X62890400Y-54424400D02*
X62890400Y-57084400D01*
X63780400Y-54027329D02*
X63780400Y-54424400D01*
X64540400Y-54027329D02*
X64540400Y-54424400D01*
X63780400Y-63084400D02*
X63780400Y-57084400D01*
X64540400Y-63084400D02*
X63780400Y-63084400D01*
X64540400Y-57084400D02*
X64540400Y-63084400D01*
X65430400Y-54424400D02*
X65430400Y-57084400D01*
X66320400Y-54094400D02*
X66320400Y-54424400D01*
X67080400Y-54094400D02*
X67080400Y-54424400D01*
X66420400Y-57084400D02*
X66420400Y-63084400D01*
X66540400Y-57084400D02*
X66540400Y-63084400D01*
X66660400Y-57084400D02*
X66660400Y-63084400D01*
X66780400Y-57084400D02*
X66780400Y-63084400D01*
X66900400Y-57084400D02*
X66900400Y-63084400D01*
X67020400Y-57084400D02*
X67020400Y-63084400D01*
X66320400Y-63084400D02*
X66320400Y-57084400D01*
X67080400Y-63084400D02*
X66320400Y-63084400D01*
X67080400Y-57084400D02*
X67080400Y-63084400D01*
X68030400Y-57084400D02*
X68030400Y-54424400D01*
X24730400Y-57084400D02*
X68030400Y-57084400D01*
X24730400Y-54424400D02*
X24730400Y-57084400D01*
X68030400Y-54424400D02*
X24730400Y-54424400D01*
X27576864Y-48408000D02*
X26372736Y-48408000D01*
X27576864Y-46588000D02*
X26372736Y-46588000D01*
D11*
X23429980Y-35588533D02*
X24144266Y-35588533D01*
X24287123Y-35636152D01*
X24382361Y-35731390D01*
X24429980Y-35874247D01*
X24429980Y-35969485D01*
X23525219Y-35159961D02*
X23477600Y-35112342D01*
X23429980Y-35017104D01*
X23429980Y-34779009D01*
X23477600Y-34683771D01*
X23525219Y-34636152D01*
X23620457Y-34588533D01*
X23715695Y-34588533D01*
X23858552Y-34636152D01*
X24429980Y-35207580D01*
X24429980Y-34588533D01*
X37234833Y-46820080D02*
X36901500Y-46343890D01*
X36663404Y-46820080D02*
X36663404Y-45820080D01*
X37044357Y-45820080D01*
X37139595Y-45867700D01*
X37187214Y-45915319D01*
X37234833Y-46010557D01*
X37234833Y-46153414D01*
X37187214Y-46248652D01*
X37139595Y-46296271D01*
X37044357Y-46343890D01*
X36663404Y-46343890D01*
X38187214Y-46820080D02*
X37615785Y-46820080D01*
X37901500Y-46820080D02*
X37901500Y-45820080D01*
X37806261Y-45962938D01*
X37711023Y-46058176D01*
X37615785Y-46105795D01*
X37184033Y-44737280D02*
X36850700Y-44261090D01*
X36612604Y-44737280D02*
X36612604Y-43737280D01*
X36993557Y-43737280D01*
X37088795Y-43784900D01*
X37136414Y-43832519D01*
X37184033Y-43927757D01*
X37184033Y-44070614D01*
X37136414Y-44165852D01*
X37088795Y-44213471D01*
X36993557Y-44261090D01*
X36612604Y-44261090D01*
X37564985Y-43832519D02*
X37612604Y-43784900D01*
X37707842Y-43737280D01*
X37945938Y-43737280D01*
X38041176Y-43784900D01*
X38088795Y-43832519D01*
X38136414Y-43927757D01*
X38136414Y-44022995D01*
X38088795Y-44165852D01*
X37517366Y-44737280D01*
X38136414Y-44737280D01*
X23429980Y-50650733D02*
X24144266Y-50650733D01*
X24287123Y-50698352D01*
X24382361Y-50793590D01*
X24429980Y-50936447D01*
X24429980Y-51031685D01*
X24429980Y-49650733D02*
X24429980Y-50222161D01*
X24429980Y-49936447D02*
X23429980Y-49936447D01*
X23572838Y-50031685D01*
X23668076Y-50126923D01*
X23715695Y-50222161D01*
X50277733Y-41905180D02*
X49944400Y-41428990D01*
X49706304Y-41905180D02*
X49706304Y-40905180D01*
X50087257Y-40905180D01*
X50182495Y-40952800D01*
X50230114Y-41000419D01*
X50277733Y-41095657D01*
X50277733Y-41238514D01*
X50230114Y-41333752D01*
X50182495Y-41381371D01*
X50087257Y-41428990D01*
X49706304Y-41428990D01*
X51134876Y-41238514D02*
X51134876Y-41905180D01*
X50896780Y-40857561D02*
X50658685Y-41571847D01*
X51277733Y-41571847D01*
X62134285Y-29595771D02*
X62277142Y-29643390D01*
X62324761Y-29691009D01*
X62372380Y-29786247D01*
X62372380Y-29929104D01*
X62324761Y-30024342D01*
X62277142Y-30071961D01*
X62181904Y-30119580D01*
X61800952Y-30119580D01*
X61800952Y-29119580D01*
X62134285Y-29119580D01*
X62229523Y-29167200D01*
X62277142Y-29214819D01*
X62324761Y-29310057D01*
X62324761Y-29405295D01*
X62277142Y-29500533D01*
X62229523Y-29548152D01*
X62134285Y-29595771D01*
X61800952Y-29595771D01*
X62658095Y-29119580D02*
X63229523Y-29119580D01*
X62943809Y-30119580D02*
X62943809Y-29119580D01*
X64086666Y-30119580D02*
X63515238Y-30119580D01*
X63800952Y-30119580D02*
X63800952Y-29119580D01*
X63705714Y-29262438D01*
X63610476Y-29357676D01*
X63515238Y-29405295D01*
X50277733Y-37739580D02*
X49944400Y-37263390D01*
X49706304Y-37739580D02*
X49706304Y-36739580D01*
X50087257Y-36739580D01*
X50182495Y-36787200D01*
X50230114Y-36834819D01*
X50277733Y-36930057D01*
X50277733Y-37072914D01*
X50230114Y-37168152D01*
X50182495Y-37215771D01*
X50087257Y-37263390D01*
X49706304Y-37263390D01*
X50611066Y-36739580D02*
X51230114Y-36739580D01*
X50896780Y-37120533D01*
X51039638Y-37120533D01*
X51134876Y-37168152D01*
X51182495Y-37215771D01*
X51230114Y-37311009D01*
X51230114Y-37549104D01*
X51182495Y-37644342D01*
X51134876Y-37691961D01*
X51039638Y-37739580D01*
X50753923Y-37739580D01*
X50658685Y-37691961D01*
X50611066Y-37644342D01*
D10*
X32636666Y-41579733D02*
X33203333Y-41579733D01*
X33270000Y-41546400D01*
X33303333Y-41513066D01*
X33336666Y-41446400D01*
X33336666Y-41313066D01*
X33303333Y-41246400D01*
X33270000Y-41213066D01*
X33203333Y-41179733D01*
X32636666Y-41179733D01*
X33336666Y-40479733D02*
X33336666Y-40879733D01*
X33336666Y-40679733D02*
X32636666Y-40679733D01*
X32736666Y-40746400D01*
X32803333Y-40813066D01*
X32836666Y-40879733D01*
D11*
X52730495Y-41184580D02*
X52730495Y-41994104D01*
X52778114Y-42089342D01*
X52825733Y-42136961D01*
X52920971Y-42184580D01*
X53111447Y-42184580D01*
X53206685Y-42136961D01*
X53254304Y-42089342D01*
X53301923Y-41994104D01*
X53301923Y-41184580D01*
X53730495Y-41279819D02*
X53778114Y-41232200D01*
X53873352Y-41184580D01*
X54111447Y-41184580D01*
X54206685Y-41232200D01*
X54254304Y-41279819D01*
X54301923Y-41375057D01*
X54301923Y-41470295D01*
X54254304Y-41613152D01*
X53682876Y-42184580D01*
X54301923Y-42184580D01*
X31347113Y-44781742D02*
X31299494Y-44829361D01*
X31156637Y-44876980D01*
X31061399Y-44876980D01*
X30918541Y-44829361D01*
X30823303Y-44734123D01*
X30775684Y-44638885D01*
X30728065Y-44448409D01*
X30728065Y-44305552D01*
X30775684Y-44115076D01*
X30823303Y-44019838D01*
X30918541Y-43924600D01*
X31061399Y-43876980D01*
X31156637Y-43876980D01*
X31299494Y-43924600D01*
X31347113Y-43972219D01*
X31728065Y-43972219D02*
X31775684Y-43924600D01*
X31870922Y-43876980D01*
X32109018Y-43876980D01*
X32204256Y-43924600D01*
X32251875Y-43972219D01*
X32299494Y-44067457D01*
X32299494Y-44162695D01*
X32251875Y-44305552D01*
X31680446Y-44876980D01*
X32299494Y-44876980D01*
X29058573Y-44817302D02*
X29010954Y-44864921D01*
X28868097Y-44912540D01*
X28772859Y-44912540D01*
X28630001Y-44864921D01*
X28534763Y-44769683D01*
X28487144Y-44674445D01*
X28439525Y-44483969D01*
X28439525Y-44341112D01*
X28487144Y-44150636D01*
X28534763Y-44055398D01*
X28630001Y-43960160D01*
X28772859Y-43912540D01*
X28868097Y-43912540D01*
X29010954Y-43960160D01*
X29058573Y-44007779D01*
X30010954Y-44912540D02*
X29439525Y-44912540D01*
X29725240Y-44912540D02*
X29725240Y-43912540D01*
X29630001Y-44055398D01*
X29534763Y-44150636D01*
X29439525Y-44198255D01*
X37895233Y-38749242D02*
X37847614Y-38796861D01*
X37704757Y-38844480D01*
X37609519Y-38844480D01*
X37466661Y-38796861D01*
X37371423Y-38701623D01*
X37323804Y-38606385D01*
X37276185Y-38415909D01*
X37276185Y-38273052D01*
X37323804Y-38082576D01*
X37371423Y-37987338D01*
X37466661Y-37892100D01*
X37609519Y-37844480D01*
X37704757Y-37844480D01*
X37847614Y-37892100D01*
X37895233Y-37939719D01*
X38228566Y-37844480D02*
X38847614Y-37844480D01*
X38514280Y-38225433D01*
X38657138Y-38225433D01*
X38752376Y-38273052D01*
X38799995Y-38320671D01*
X38847614Y-38415909D01*
X38847614Y-38654004D01*
X38799995Y-38749242D01*
X38752376Y-38796861D01*
X38657138Y-38844480D01*
X38371423Y-38844480D01*
X38276185Y-38796861D01*
X38228566Y-38749242D01*
X40181233Y-38736542D02*
X40133614Y-38784161D01*
X39990757Y-38831780D01*
X39895519Y-38831780D01*
X39752661Y-38784161D01*
X39657423Y-38688923D01*
X39609804Y-38593685D01*
X39562185Y-38403209D01*
X39562185Y-38260352D01*
X39609804Y-38069876D01*
X39657423Y-37974638D01*
X39752661Y-37879400D01*
X39895519Y-37831780D01*
X39990757Y-37831780D01*
X40133614Y-37879400D01*
X40181233Y-37927019D01*
X41038376Y-38165114D02*
X41038376Y-38831780D01*
X40800280Y-37784161D02*
X40562185Y-38498447D01*
X41181233Y-38498447D01*
X64306514Y-51593714D02*
X64268419Y-51631809D01*
X64154133Y-51669904D01*
X64077942Y-51669904D01*
X63963657Y-51631809D01*
X63887466Y-51555619D01*
X63849371Y-51479428D01*
X63811276Y-51327047D01*
X63811276Y-51212761D01*
X63849371Y-51060380D01*
X63887466Y-50984190D01*
X63963657Y-50908000D01*
X64077942Y-50869904D01*
X64154133Y-50869904D01*
X64268419Y-50908000D01*
X64306514Y-50946095D01*
X65068419Y-51669904D02*
X64611276Y-51669904D01*
X64839847Y-51669904D02*
X64839847Y-50869904D01*
X64763657Y-50984190D01*
X64687466Y-51060380D01*
X64611276Y-51098476D01*
X65563657Y-50869904D02*
X65639847Y-50869904D01*
X65716038Y-50908000D01*
X65754133Y-50946095D01*
X65792228Y-51022285D01*
X65830323Y-51174666D01*
X65830323Y-51365142D01*
X65792228Y-51517523D01*
X65754133Y-51593714D01*
X65716038Y-51631809D01*
X65639847Y-51669904D01*
X65563657Y-51669904D01*
X65487466Y-51631809D01*
X65449371Y-51593714D01*
X65411276Y-51517523D01*
X65373180Y-51365142D01*
X65373180Y-51174666D01*
X65411276Y-51022285D01*
X65449371Y-50946095D01*
X65487466Y-50908000D01*
X65563657Y-50869904D01*
X56322933Y-37695142D02*
X56275314Y-37742761D01*
X56132457Y-37790380D01*
X56037219Y-37790380D01*
X55894361Y-37742761D01*
X55799123Y-37647523D01*
X55751504Y-37552285D01*
X55703885Y-37361809D01*
X55703885Y-37218952D01*
X55751504Y-37028476D01*
X55799123Y-36933238D01*
X55894361Y-36838000D01*
X56037219Y-36790380D01*
X56132457Y-36790380D01*
X56275314Y-36838000D01*
X56322933Y-36885619D01*
X56656266Y-36790380D02*
X57322933Y-36790380D01*
X56894361Y-37790380D01*
X60882233Y-44807142D02*
X60834614Y-44854761D01*
X60691757Y-44902380D01*
X60596519Y-44902380D01*
X60453661Y-44854761D01*
X60358423Y-44759523D01*
X60310804Y-44664285D01*
X60263185Y-44473809D01*
X60263185Y-44330952D01*
X60310804Y-44140476D01*
X60358423Y-44045238D01*
X60453661Y-43950000D01*
X60596519Y-43902380D01*
X60691757Y-43902380D01*
X60834614Y-43950000D01*
X60882233Y-43997619D01*
X61453661Y-44330952D02*
X61358423Y-44283333D01*
X61310804Y-44235714D01*
X61263185Y-44140476D01*
X61263185Y-44092857D01*
X61310804Y-43997619D01*
X61358423Y-43950000D01*
X61453661Y-43902380D01*
X61644138Y-43902380D01*
X61739376Y-43950000D01*
X61786995Y-43997619D01*
X61834614Y-44092857D01*
X61834614Y-44140476D01*
X61786995Y-44235714D01*
X61739376Y-44283333D01*
X61644138Y-44330952D01*
X61453661Y-44330952D01*
X61358423Y-44378571D01*
X61310804Y-44426190D01*
X61263185Y-44521428D01*
X61263185Y-44711904D01*
X61310804Y-44807142D01*
X61358423Y-44854761D01*
X61453661Y-44902380D01*
X61644138Y-44902380D01*
X61739376Y-44854761D01*
X61786995Y-44807142D01*
X61834614Y-44711904D01*
X61834614Y-44521428D01*
X61786995Y-44426190D01*
X61739376Y-44378571D01*
X61644138Y-44330952D01*
X63206333Y-44807142D02*
X63158714Y-44854761D01*
X63015857Y-44902380D01*
X62920619Y-44902380D01*
X62777761Y-44854761D01*
X62682523Y-44759523D01*
X62634904Y-44664285D01*
X62587285Y-44473809D01*
X62587285Y-44330952D01*
X62634904Y-44140476D01*
X62682523Y-44045238D01*
X62777761Y-43950000D01*
X62920619Y-43902380D01*
X63015857Y-43902380D01*
X63158714Y-43950000D01*
X63206333Y-43997619D01*
X63682523Y-44902380D02*
X63873000Y-44902380D01*
X63968238Y-44854761D01*
X64015857Y-44807142D01*
X64111095Y-44664285D01*
X64158714Y-44473809D01*
X64158714Y-44092857D01*
X64111095Y-43997619D01*
X64063476Y-43950000D01*
X63968238Y-43902380D01*
X63777761Y-43902380D01*
X63682523Y-43950000D01*
X63634904Y-43997619D01*
X63587285Y-44092857D01*
X63587285Y-44330952D01*
X63634904Y-44426190D01*
X63682523Y-44473809D01*
X63777761Y-44521428D01*
X63968238Y-44521428D01*
X64063476Y-44473809D01*
X64111095Y-44426190D01*
X64158714Y-44330952D01*
X42507873Y-38734002D02*
X42460254Y-38781621D01*
X42317397Y-38829240D01*
X42222159Y-38829240D01*
X42079301Y-38781621D01*
X41984063Y-38686383D01*
X41936444Y-38591145D01*
X41888825Y-38400669D01*
X41888825Y-38257812D01*
X41936444Y-38067336D01*
X41984063Y-37972098D01*
X42079301Y-37876860D01*
X42222159Y-37829240D01*
X42317397Y-37829240D01*
X42460254Y-37876860D01*
X42507873Y-37924479D01*
X43412635Y-37829240D02*
X42936444Y-37829240D01*
X42888825Y-38305431D01*
X42936444Y-38257812D01*
X43031682Y-38210193D01*
X43269778Y-38210193D01*
X43365016Y-38257812D01*
X43412635Y-38305431D01*
X43460254Y-38400669D01*
X43460254Y-38638764D01*
X43412635Y-38734002D01*
X43365016Y-38781621D01*
X43269778Y-38829240D01*
X43031682Y-38829240D01*
X42936444Y-38781621D01*
X42888825Y-38734002D01*
X44674493Y-38675582D02*
X44626874Y-38723201D01*
X44484017Y-38770820D01*
X44388779Y-38770820D01*
X44245921Y-38723201D01*
X44150683Y-38627963D01*
X44103064Y-38532725D01*
X44055445Y-38342249D01*
X44055445Y-38199392D01*
X44103064Y-38008916D01*
X44150683Y-37913678D01*
X44245921Y-37818440D01*
X44388779Y-37770820D01*
X44484017Y-37770820D01*
X44626874Y-37818440D01*
X44674493Y-37866059D01*
X45531636Y-37770820D02*
X45341160Y-37770820D01*
X45245921Y-37818440D01*
X45198302Y-37866059D01*
X45103064Y-38008916D01*
X45055445Y-38199392D01*
X45055445Y-38580344D01*
X45103064Y-38675582D01*
X45150683Y-38723201D01*
X45245921Y-38770820D01*
X45436398Y-38770820D01*
X45531636Y-38723201D01*
X45579255Y-38675582D01*
X45626874Y-38580344D01*
X45626874Y-38342249D01*
X45579255Y-38247011D01*
X45531636Y-38199392D01*
X45436398Y-38151773D01*
X45245921Y-38151773D01*
X45150683Y-38199392D01*
X45103064Y-38247011D01*
X45055445Y-38342249D01*
X30059333Y-38450780D02*
X29583142Y-38450780D01*
X29583142Y-37450780D01*
X30916476Y-38450780D02*
X30345047Y-38450780D01*
X30630761Y-38450780D02*
X30630761Y-37450780D01*
X30535523Y-37593638D01*
X30440285Y-37688876D01*
X30345047Y-37736495D01*
X68567086Y-43247060D02*
X68567086Y-43961346D01*
X68519467Y-44104203D01*
X68424229Y-44199441D01*
X68281372Y-44247060D01*
X68186134Y-44247060D01*
X69043277Y-44247060D02*
X69043277Y-43247060D01*
X69424229Y-43247060D01*
X69519467Y-43294680D01*
X69567086Y-43342299D01*
X69614705Y-43437537D01*
X69614705Y-43580394D01*
X69567086Y-43675632D01*
X69519467Y-43723251D01*
X69424229Y-43770870D01*
X69043277Y-43770870D01*
X70567086Y-44247060D02*
X69995658Y-44247060D01*
X70281372Y-44247060D02*
X70281372Y-43247060D01*
X70186134Y-43389918D01*
X70090896Y-43485156D01*
X69995658Y-43532775D01*
X29989542Y-47905942D02*
X29941923Y-47953561D01*
X29799066Y-48001180D01*
X29703828Y-48001180D01*
X29560971Y-47953561D01*
X29465733Y-47858323D01*
X29418114Y-47763085D01*
X29370495Y-47572609D01*
X29370495Y-47429752D01*
X29418114Y-47239276D01*
X29465733Y-47144038D01*
X29560971Y-47048800D01*
X29703828Y-47001180D01*
X29799066Y-47001180D01*
X29941923Y-47048800D01*
X29989542Y-47096419D01*
X30941923Y-48001180D02*
X30370495Y-48001180D01*
X30656209Y-48001180D02*
X30656209Y-47001180D01*
X30560971Y-47144038D01*
X30465733Y-47239276D01*
X30370495Y-47286895D01*
X31894304Y-48001180D02*
X31322876Y-48001180D01*
X31608590Y-48001180D02*
X31608590Y-47001180D01*
X31513352Y-47144038D01*
X31418114Y-47239276D01*
X31322876Y-47286895D01*
%LPC*%
D16*
X61620400Y-35217100D03*
X59080400Y-35217100D03*
X56540400Y-35217100D03*
D17*
X54000400Y-35217100D03*
D16*
X51460400Y-35217100D03*
X48920400Y-35217100D03*
X46380400Y-35217100D03*
X43840400Y-35217100D03*
X41300400Y-35217100D03*
X38760400Y-35217100D03*
X36220400Y-35217100D03*
X33680400Y-35217100D03*
X31140400Y-35217100D03*
X28600400Y-35217100D03*
X26060400Y-35217100D03*
D13*
G36*
X33937642Y-45668874D02*
G01*
X33961303Y-45672384D01*
X33984507Y-45678196D01*
X34007029Y-45686254D01*
X34028653Y-45696482D01*
X34049170Y-45708779D01*
X34068383Y-45723029D01*
X34086107Y-45739093D01*
X34102171Y-45756817D01*
X34116421Y-45776030D01*
X34128718Y-45796547D01*
X34138946Y-45818171D01*
X34147004Y-45840693D01*
X34152816Y-45863897D01*
X34156326Y-45887558D01*
X34157500Y-45911450D01*
X34157500Y-46823950D01*
X34156326Y-46847842D01*
X34152816Y-46871503D01*
X34147004Y-46894707D01*
X34138946Y-46917229D01*
X34128718Y-46938853D01*
X34116421Y-46959370D01*
X34102171Y-46978583D01*
X34086107Y-46996307D01*
X34068383Y-47012371D01*
X34049170Y-47026621D01*
X34028653Y-47038918D01*
X34007029Y-47049146D01*
X33984507Y-47057204D01*
X33961303Y-47063016D01*
X33937642Y-47066526D01*
X33913750Y-47067700D01*
X33426250Y-47067700D01*
X33402358Y-47066526D01*
X33378697Y-47063016D01*
X33355493Y-47057204D01*
X33332971Y-47049146D01*
X33311347Y-47038918D01*
X33290830Y-47026621D01*
X33271617Y-47012371D01*
X33253893Y-46996307D01*
X33237829Y-46978583D01*
X33223579Y-46959370D01*
X33211282Y-46938853D01*
X33201054Y-46917229D01*
X33192996Y-46894707D01*
X33187184Y-46871503D01*
X33183674Y-46847842D01*
X33182500Y-46823950D01*
X33182500Y-45911450D01*
X33183674Y-45887558D01*
X33187184Y-45863897D01*
X33192996Y-45840693D01*
X33201054Y-45818171D01*
X33211282Y-45796547D01*
X33223579Y-45776030D01*
X33237829Y-45756817D01*
X33253893Y-45739093D01*
X33271617Y-45723029D01*
X33290830Y-45708779D01*
X33311347Y-45696482D01*
X33332971Y-45686254D01*
X33355493Y-45678196D01*
X33378697Y-45672384D01*
X33402358Y-45668874D01*
X33426250Y-45667700D01*
X33913750Y-45667700D01*
X33937642Y-45668874D01*
G37*
G36*
X35812642Y-45668874D02*
G01*
X35836303Y-45672384D01*
X35859507Y-45678196D01*
X35882029Y-45686254D01*
X35903653Y-45696482D01*
X35924170Y-45708779D01*
X35943383Y-45723029D01*
X35961107Y-45739093D01*
X35977171Y-45756817D01*
X35991421Y-45776030D01*
X36003718Y-45796547D01*
X36013946Y-45818171D01*
X36022004Y-45840693D01*
X36027816Y-45863897D01*
X36031326Y-45887558D01*
X36032500Y-45911450D01*
X36032500Y-46823950D01*
X36031326Y-46847842D01*
X36027816Y-46871503D01*
X36022004Y-46894707D01*
X36013946Y-46917229D01*
X36003718Y-46938853D01*
X35991421Y-46959370D01*
X35977171Y-46978583D01*
X35961107Y-46996307D01*
X35943383Y-47012371D01*
X35924170Y-47026621D01*
X35903653Y-47038918D01*
X35882029Y-47049146D01*
X35859507Y-47057204D01*
X35836303Y-47063016D01*
X35812642Y-47066526D01*
X35788750Y-47067700D01*
X35301250Y-47067700D01*
X35277358Y-47066526D01*
X35253697Y-47063016D01*
X35230493Y-47057204D01*
X35207971Y-47049146D01*
X35186347Y-47038918D01*
X35165830Y-47026621D01*
X35146617Y-47012371D01*
X35128893Y-46996307D01*
X35112829Y-46978583D01*
X35098579Y-46959370D01*
X35086282Y-46938853D01*
X35076054Y-46917229D01*
X35067996Y-46894707D01*
X35062184Y-46871503D01*
X35058674Y-46847842D01*
X35057500Y-46823950D01*
X35057500Y-45911450D01*
X35058674Y-45887558D01*
X35062184Y-45863897D01*
X35067996Y-45840693D01*
X35076054Y-45818171D01*
X35086282Y-45796547D01*
X35098579Y-45776030D01*
X35112829Y-45756817D01*
X35128893Y-45739093D01*
X35146617Y-45723029D01*
X35165830Y-45708779D01*
X35186347Y-45696482D01*
X35207971Y-45686254D01*
X35230493Y-45678196D01*
X35253697Y-45672384D01*
X35277358Y-45668874D01*
X35301250Y-45667700D01*
X35788750Y-45667700D01*
X35812642Y-45668874D01*
G37*
G36*
X35812642Y-43509874D02*
G01*
X35836303Y-43513384D01*
X35859507Y-43519196D01*
X35882029Y-43527254D01*
X35903653Y-43537482D01*
X35924170Y-43549779D01*
X35943383Y-43564029D01*
X35961107Y-43580093D01*
X35977171Y-43597817D01*
X35991421Y-43617030D01*
X36003718Y-43637547D01*
X36013946Y-43659171D01*
X36022004Y-43681693D01*
X36027816Y-43704897D01*
X36031326Y-43728558D01*
X36032500Y-43752450D01*
X36032500Y-44664950D01*
X36031326Y-44688842D01*
X36027816Y-44712503D01*
X36022004Y-44735707D01*
X36013946Y-44758229D01*
X36003718Y-44779853D01*
X35991421Y-44800370D01*
X35977171Y-44819583D01*
X35961107Y-44837307D01*
X35943383Y-44853371D01*
X35924170Y-44867621D01*
X35903653Y-44879918D01*
X35882029Y-44890146D01*
X35859507Y-44898204D01*
X35836303Y-44904016D01*
X35812642Y-44907526D01*
X35788750Y-44908700D01*
X35301250Y-44908700D01*
X35277358Y-44907526D01*
X35253697Y-44904016D01*
X35230493Y-44898204D01*
X35207971Y-44890146D01*
X35186347Y-44879918D01*
X35165830Y-44867621D01*
X35146617Y-44853371D01*
X35128893Y-44837307D01*
X35112829Y-44819583D01*
X35098579Y-44800370D01*
X35086282Y-44779853D01*
X35076054Y-44758229D01*
X35067996Y-44735707D01*
X35062184Y-44712503D01*
X35058674Y-44688842D01*
X35057500Y-44664950D01*
X35057500Y-43752450D01*
X35058674Y-43728558D01*
X35062184Y-43704897D01*
X35067996Y-43681693D01*
X35076054Y-43659171D01*
X35086282Y-43637547D01*
X35098579Y-43617030D01*
X35112829Y-43597817D01*
X35128893Y-43580093D01*
X35146617Y-43564029D01*
X35165830Y-43549779D01*
X35186347Y-43537482D01*
X35207971Y-43527254D01*
X35230493Y-43519196D01*
X35253697Y-43513384D01*
X35277358Y-43509874D01*
X35301250Y-43508700D01*
X35788750Y-43508700D01*
X35812642Y-43509874D01*
G37*
G36*
X33937642Y-43509874D02*
G01*
X33961303Y-43513384D01*
X33984507Y-43519196D01*
X34007029Y-43527254D01*
X34028653Y-43537482D01*
X34049170Y-43549779D01*
X34068383Y-43564029D01*
X34086107Y-43580093D01*
X34102171Y-43597817D01*
X34116421Y-43617030D01*
X34128718Y-43637547D01*
X34138946Y-43659171D01*
X34147004Y-43681693D01*
X34152816Y-43704897D01*
X34156326Y-43728558D01*
X34157500Y-43752450D01*
X34157500Y-44664950D01*
X34156326Y-44688842D01*
X34152816Y-44712503D01*
X34147004Y-44735707D01*
X34138946Y-44758229D01*
X34128718Y-44779853D01*
X34116421Y-44800370D01*
X34102171Y-44819583D01*
X34086107Y-44837307D01*
X34068383Y-44853371D01*
X34049170Y-44867621D01*
X34028653Y-44879918D01*
X34007029Y-44890146D01*
X33984507Y-44898204D01*
X33961303Y-44904016D01*
X33937642Y-44907526D01*
X33913750Y-44908700D01*
X33426250Y-44908700D01*
X33402358Y-44907526D01*
X33378697Y-44904016D01*
X33355493Y-44898204D01*
X33332971Y-44890146D01*
X33311347Y-44879918D01*
X33290830Y-44867621D01*
X33271617Y-44853371D01*
X33253893Y-44837307D01*
X33237829Y-44819583D01*
X33223579Y-44800370D01*
X33211282Y-44779853D01*
X33201054Y-44758229D01*
X33192996Y-44735707D01*
X33187184Y-44712503D01*
X33183674Y-44688842D01*
X33182500Y-44664950D01*
X33182500Y-43752450D01*
X33183674Y-43728558D01*
X33187184Y-43704897D01*
X33192996Y-43681693D01*
X33201054Y-43659171D01*
X33211282Y-43637547D01*
X33223579Y-43617030D01*
X33237829Y-43597817D01*
X33253893Y-43580093D01*
X33271617Y-43564029D01*
X33290830Y-43549779D01*
X33311347Y-43537482D01*
X33332971Y-43527254D01*
X33355493Y-43519196D01*
X33378697Y-43513384D01*
X33402358Y-43509874D01*
X33426250Y-43508700D01*
X33913750Y-43508700D01*
X33937642Y-43509874D01*
G37*
D16*
X26060400Y-50457100D03*
X28600400Y-50457100D03*
X31140400Y-50457100D03*
X33680400Y-50457100D03*
X36220400Y-50457100D03*
X38760400Y-50457100D03*
X41300400Y-50457100D03*
X43840400Y-50457100D03*
X46380400Y-50457100D03*
X48920400Y-50457100D03*
X51460400Y-50457100D03*
X54000400Y-50457100D03*
X56540400Y-50457100D03*
D17*
X59080400Y-50457100D03*
D16*
X61620400Y-50457100D03*
D13*
G36*
X49825342Y-42176374D02*
G01*
X49849003Y-42179884D01*
X49872207Y-42185696D01*
X49894729Y-42193754D01*
X49916353Y-42203982D01*
X49936870Y-42216279D01*
X49956083Y-42230529D01*
X49973807Y-42246593D01*
X49989871Y-42264317D01*
X50004121Y-42283530D01*
X50016418Y-42304047D01*
X50026646Y-42325671D01*
X50034704Y-42348193D01*
X50040516Y-42371397D01*
X50044026Y-42395058D01*
X50045200Y-42418950D01*
X50045200Y-43331450D01*
X50044026Y-43355342D01*
X50040516Y-43379003D01*
X50034704Y-43402207D01*
X50026646Y-43424729D01*
X50016418Y-43446353D01*
X50004121Y-43466870D01*
X49989871Y-43486083D01*
X49973807Y-43503807D01*
X49956083Y-43519871D01*
X49936870Y-43534121D01*
X49916353Y-43546418D01*
X49894729Y-43556646D01*
X49872207Y-43564704D01*
X49849003Y-43570516D01*
X49825342Y-43574026D01*
X49801450Y-43575200D01*
X49313950Y-43575200D01*
X49290058Y-43574026D01*
X49266397Y-43570516D01*
X49243193Y-43564704D01*
X49220671Y-43556646D01*
X49199047Y-43546418D01*
X49178530Y-43534121D01*
X49159317Y-43519871D01*
X49141593Y-43503807D01*
X49125529Y-43486083D01*
X49111279Y-43466870D01*
X49098982Y-43446353D01*
X49088754Y-43424729D01*
X49080696Y-43402207D01*
X49074884Y-43379003D01*
X49071374Y-43355342D01*
X49070200Y-43331450D01*
X49070200Y-42418950D01*
X49071374Y-42395058D01*
X49074884Y-42371397D01*
X49080696Y-42348193D01*
X49088754Y-42325671D01*
X49098982Y-42304047D01*
X49111279Y-42283530D01*
X49125529Y-42264317D01*
X49141593Y-42246593D01*
X49159317Y-42230529D01*
X49178530Y-42216279D01*
X49199047Y-42203982D01*
X49220671Y-42193754D01*
X49243193Y-42185696D01*
X49266397Y-42179884D01*
X49290058Y-42176374D01*
X49313950Y-42175200D01*
X49801450Y-42175200D01*
X49825342Y-42176374D01*
G37*
G36*
X51700342Y-42176374D02*
G01*
X51724003Y-42179884D01*
X51747207Y-42185696D01*
X51769729Y-42193754D01*
X51791353Y-42203982D01*
X51811870Y-42216279D01*
X51831083Y-42230529D01*
X51848807Y-42246593D01*
X51864871Y-42264317D01*
X51879121Y-42283530D01*
X51891418Y-42304047D01*
X51901646Y-42325671D01*
X51909704Y-42348193D01*
X51915516Y-42371397D01*
X51919026Y-42395058D01*
X51920200Y-42418950D01*
X51920200Y-43331450D01*
X51919026Y-43355342D01*
X51915516Y-43379003D01*
X51909704Y-43402207D01*
X51901646Y-43424729D01*
X51891418Y-43446353D01*
X51879121Y-43466870D01*
X51864871Y-43486083D01*
X51848807Y-43503807D01*
X51831083Y-43519871D01*
X51811870Y-43534121D01*
X51791353Y-43546418D01*
X51769729Y-43556646D01*
X51747207Y-43564704D01*
X51724003Y-43570516D01*
X51700342Y-43574026D01*
X51676450Y-43575200D01*
X51188950Y-43575200D01*
X51165058Y-43574026D01*
X51141397Y-43570516D01*
X51118193Y-43564704D01*
X51095671Y-43556646D01*
X51074047Y-43546418D01*
X51053530Y-43534121D01*
X51034317Y-43519871D01*
X51016593Y-43503807D01*
X51000529Y-43486083D01*
X50986279Y-43466870D01*
X50973982Y-43446353D01*
X50963754Y-43424729D01*
X50955696Y-43402207D01*
X50949884Y-43379003D01*
X50946374Y-43355342D01*
X50945200Y-43331450D01*
X50945200Y-42418950D01*
X50946374Y-42395058D01*
X50949884Y-42371397D01*
X50955696Y-42348193D01*
X50963754Y-42325671D01*
X50973982Y-42304047D01*
X50986279Y-42283530D01*
X51000529Y-42264317D01*
X51016593Y-42246593D01*
X51034317Y-42230529D01*
X51053530Y-42216279D01*
X51074047Y-42203982D01*
X51095671Y-42193754D01*
X51118193Y-42185696D01*
X51141397Y-42179884D01*
X51165058Y-42176374D01*
X51188950Y-42175200D01*
X51676450Y-42175200D01*
X51700342Y-42176374D01*
G37*
D18*
X67254000Y-27127200D03*
X26654000Y-27127200D03*
X61654000Y-27127200D03*
X32254000Y-27127200D03*
D13*
G36*
X49825342Y-38010774D02*
G01*
X49849003Y-38014284D01*
X49872207Y-38020096D01*
X49894729Y-38028154D01*
X49916353Y-38038382D01*
X49936870Y-38050679D01*
X49956083Y-38064929D01*
X49973807Y-38080993D01*
X49989871Y-38098717D01*
X50004121Y-38117930D01*
X50016418Y-38138447D01*
X50026646Y-38160071D01*
X50034704Y-38182593D01*
X50040516Y-38205797D01*
X50044026Y-38229458D01*
X50045200Y-38253350D01*
X50045200Y-39165850D01*
X50044026Y-39189742D01*
X50040516Y-39213403D01*
X50034704Y-39236607D01*
X50026646Y-39259129D01*
X50016418Y-39280753D01*
X50004121Y-39301270D01*
X49989871Y-39320483D01*
X49973807Y-39338207D01*
X49956083Y-39354271D01*
X49936870Y-39368521D01*
X49916353Y-39380818D01*
X49894729Y-39391046D01*
X49872207Y-39399104D01*
X49849003Y-39404916D01*
X49825342Y-39408426D01*
X49801450Y-39409600D01*
X49313950Y-39409600D01*
X49290058Y-39408426D01*
X49266397Y-39404916D01*
X49243193Y-39399104D01*
X49220671Y-39391046D01*
X49199047Y-39380818D01*
X49178530Y-39368521D01*
X49159317Y-39354271D01*
X49141593Y-39338207D01*
X49125529Y-39320483D01*
X49111279Y-39301270D01*
X49098982Y-39280753D01*
X49088754Y-39259129D01*
X49080696Y-39236607D01*
X49074884Y-39213403D01*
X49071374Y-39189742D01*
X49070200Y-39165850D01*
X49070200Y-38253350D01*
X49071374Y-38229458D01*
X49074884Y-38205797D01*
X49080696Y-38182593D01*
X49088754Y-38160071D01*
X49098982Y-38138447D01*
X49111279Y-38117930D01*
X49125529Y-38098717D01*
X49141593Y-38080993D01*
X49159317Y-38064929D01*
X49178530Y-38050679D01*
X49199047Y-38038382D01*
X49220671Y-38028154D01*
X49243193Y-38020096D01*
X49266397Y-38014284D01*
X49290058Y-38010774D01*
X49313950Y-38009600D01*
X49801450Y-38009600D01*
X49825342Y-38010774D01*
G37*
G36*
X51700342Y-38010774D02*
G01*
X51724003Y-38014284D01*
X51747207Y-38020096D01*
X51769729Y-38028154D01*
X51791353Y-38038382D01*
X51811870Y-38050679D01*
X51831083Y-38064929D01*
X51848807Y-38080993D01*
X51864871Y-38098717D01*
X51879121Y-38117930D01*
X51891418Y-38138447D01*
X51901646Y-38160071D01*
X51909704Y-38182593D01*
X51915516Y-38205797D01*
X51919026Y-38229458D01*
X51920200Y-38253350D01*
X51920200Y-39165850D01*
X51919026Y-39189742D01*
X51915516Y-39213403D01*
X51909704Y-39236607D01*
X51901646Y-39259129D01*
X51891418Y-39280753D01*
X51879121Y-39301270D01*
X51864871Y-39320483D01*
X51848807Y-39338207D01*
X51831083Y-39354271D01*
X51811870Y-39368521D01*
X51791353Y-39380818D01*
X51769729Y-39391046D01*
X51747207Y-39399104D01*
X51724003Y-39404916D01*
X51700342Y-39408426D01*
X51676450Y-39409600D01*
X51188950Y-39409600D01*
X51165058Y-39408426D01*
X51141397Y-39404916D01*
X51118193Y-39399104D01*
X51095671Y-39391046D01*
X51074047Y-39380818D01*
X51053530Y-39368521D01*
X51034317Y-39354271D01*
X51016593Y-39338207D01*
X51000529Y-39320483D01*
X50986279Y-39301270D01*
X50973982Y-39280753D01*
X50963754Y-39259129D01*
X50955696Y-39236607D01*
X50949884Y-39213403D01*
X50946374Y-39189742D01*
X50945200Y-39165850D01*
X50945200Y-38253350D01*
X50946374Y-38229458D01*
X50949884Y-38205797D01*
X50955696Y-38182593D01*
X50963754Y-38160071D01*
X50973982Y-38138447D01*
X50986279Y-38117930D01*
X51000529Y-38098717D01*
X51016593Y-38080993D01*
X51034317Y-38064929D01*
X51053530Y-38050679D01*
X51074047Y-38038382D01*
X51095671Y-38028154D01*
X51118193Y-38020096D01*
X51141397Y-38014284D01*
X51165058Y-38010774D01*
X51188950Y-38009600D01*
X51676450Y-38009600D01*
X51700342Y-38010774D01*
G37*
D16*
X69291200Y-40690800D03*
X69291200Y-38150800D03*
X69291200Y-35610800D03*
D19*
X34236900Y-42248000D03*
X35536900Y-42248000D03*
X34886900Y-40048000D03*
X34886900Y-42248000D03*
X35536900Y-40048000D03*
X34236900Y-40048000D03*
D20*
X55204000Y-41061600D03*
X55204000Y-42011600D03*
X55204000Y-42961600D03*
X57404000Y-42961600D03*
X57404000Y-41061600D03*
D13*
G36*
X32170904Y-39505204D02*
G01*
X32195173Y-39508804D01*
X32218971Y-39514765D01*
X32242071Y-39523030D01*
X32264249Y-39533520D01*
X32285293Y-39546133D01*
X32304998Y-39560747D01*
X32323177Y-39577223D01*
X32339653Y-39595402D01*
X32354267Y-39615107D01*
X32366880Y-39636151D01*
X32377370Y-39658329D01*
X32385635Y-39681429D01*
X32391596Y-39705227D01*
X32395196Y-39729496D01*
X32396400Y-39754000D01*
X32396400Y-40504000D01*
X32395196Y-40528504D01*
X32391596Y-40552773D01*
X32385635Y-40576571D01*
X32377370Y-40599671D01*
X32366880Y-40621849D01*
X32354267Y-40642893D01*
X32339653Y-40662598D01*
X32323177Y-40680777D01*
X32304998Y-40697253D01*
X32285293Y-40711867D01*
X32264249Y-40724480D01*
X32242071Y-40734970D01*
X32218971Y-40743235D01*
X32195173Y-40749196D01*
X32170904Y-40752796D01*
X32146400Y-40754000D01*
X30896400Y-40754000D01*
X30871896Y-40752796D01*
X30847627Y-40749196D01*
X30823829Y-40743235D01*
X30800729Y-40734970D01*
X30778551Y-40724480D01*
X30757507Y-40711867D01*
X30737802Y-40697253D01*
X30719623Y-40680777D01*
X30703147Y-40662598D01*
X30688533Y-40642893D01*
X30675920Y-40621849D01*
X30665430Y-40599671D01*
X30657165Y-40576571D01*
X30651204Y-40552773D01*
X30647604Y-40528504D01*
X30646400Y-40504000D01*
X30646400Y-39754000D01*
X30647604Y-39729496D01*
X30651204Y-39705227D01*
X30657165Y-39681429D01*
X30665430Y-39658329D01*
X30675920Y-39636151D01*
X30688533Y-39615107D01*
X30703147Y-39595402D01*
X30719623Y-39577223D01*
X30737802Y-39560747D01*
X30757507Y-39546133D01*
X30778551Y-39533520D01*
X30800729Y-39523030D01*
X30823829Y-39514765D01*
X30847627Y-39508804D01*
X30871896Y-39505204D01*
X30896400Y-39504000D01*
X32146400Y-39504000D01*
X32170904Y-39505204D01*
G37*
G36*
X32170904Y-42305204D02*
G01*
X32195173Y-42308804D01*
X32218971Y-42314765D01*
X32242071Y-42323030D01*
X32264249Y-42333520D01*
X32285293Y-42346133D01*
X32304998Y-42360747D01*
X32323177Y-42377223D01*
X32339653Y-42395402D01*
X32354267Y-42415107D01*
X32366880Y-42436151D01*
X32377370Y-42458329D01*
X32385635Y-42481429D01*
X32391596Y-42505227D01*
X32395196Y-42529496D01*
X32396400Y-42554000D01*
X32396400Y-43304000D01*
X32395196Y-43328504D01*
X32391596Y-43352773D01*
X32385635Y-43376571D01*
X32377370Y-43399671D01*
X32366880Y-43421849D01*
X32354267Y-43442893D01*
X32339653Y-43462598D01*
X32323177Y-43480777D01*
X32304998Y-43497253D01*
X32285293Y-43511867D01*
X32264249Y-43524480D01*
X32242071Y-43534970D01*
X32218971Y-43543235D01*
X32195173Y-43549196D01*
X32170904Y-43552796D01*
X32146400Y-43554000D01*
X30896400Y-43554000D01*
X30871896Y-43552796D01*
X30847627Y-43549196D01*
X30823829Y-43543235D01*
X30800729Y-43534970D01*
X30778551Y-43524480D01*
X30757507Y-43511867D01*
X30737802Y-43497253D01*
X30719623Y-43480777D01*
X30703147Y-43462598D01*
X30688533Y-43442893D01*
X30675920Y-43421849D01*
X30665430Y-43399671D01*
X30657165Y-43376571D01*
X30651204Y-43352773D01*
X30647604Y-43328504D01*
X30646400Y-43304000D01*
X30646400Y-42554000D01*
X30647604Y-42529496D01*
X30651204Y-42505227D01*
X30657165Y-42481429D01*
X30665430Y-42458329D01*
X30675920Y-42436151D01*
X30688533Y-42415107D01*
X30703147Y-42395402D01*
X30719623Y-42377223D01*
X30737802Y-42360747D01*
X30757507Y-42346133D01*
X30778551Y-42333520D01*
X30800729Y-42323030D01*
X30823829Y-42314765D01*
X30847627Y-42308804D01*
X30871896Y-42305204D01*
X30896400Y-42304000D01*
X32146400Y-42304000D01*
X32170904Y-42305204D01*
G37*
G36*
X29884904Y-42305204D02*
G01*
X29909173Y-42308804D01*
X29932971Y-42314765D01*
X29956071Y-42323030D01*
X29978249Y-42333520D01*
X29999293Y-42346133D01*
X30018998Y-42360747D01*
X30037177Y-42377223D01*
X30053653Y-42395402D01*
X30068267Y-42415107D01*
X30080880Y-42436151D01*
X30091370Y-42458329D01*
X30099635Y-42481429D01*
X30105596Y-42505227D01*
X30109196Y-42529496D01*
X30110400Y-42554000D01*
X30110400Y-43304000D01*
X30109196Y-43328504D01*
X30105596Y-43352773D01*
X30099635Y-43376571D01*
X30091370Y-43399671D01*
X30080880Y-43421849D01*
X30068267Y-43442893D01*
X30053653Y-43462598D01*
X30037177Y-43480777D01*
X30018998Y-43497253D01*
X29999293Y-43511867D01*
X29978249Y-43524480D01*
X29956071Y-43534970D01*
X29932971Y-43543235D01*
X29909173Y-43549196D01*
X29884904Y-43552796D01*
X29860400Y-43554000D01*
X28610400Y-43554000D01*
X28585896Y-43552796D01*
X28561627Y-43549196D01*
X28537829Y-43543235D01*
X28514729Y-43534970D01*
X28492551Y-43524480D01*
X28471507Y-43511867D01*
X28451802Y-43497253D01*
X28433623Y-43480777D01*
X28417147Y-43462598D01*
X28402533Y-43442893D01*
X28389920Y-43421849D01*
X28379430Y-43399671D01*
X28371165Y-43376571D01*
X28365204Y-43352773D01*
X28361604Y-43328504D01*
X28360400Y-43304000D01*
X28360400Y-42554000D01*
X28361604Y-42529496D01*
X28365204Y-42505227D01*
X28371165Y-42481429D01*
X28379430Y-42458329D01*
X28389920Y-42436151D01*
X28402533Y-42415107D01*
X28417147Y-42395402D01*
X28433623Y-42377223D01*
X28451802Y-42360747D01*
X28471507Y-42346133D01*
X28492551Y-42333520D01*
X28514729Y-42323030D01*
X28537829Y-42314765D01*
X28561627Y-42308804D01*
X28585896Y-42305204D01*
X28610400Y-42304000D01*
X29860400Y-42304000D01*
X29884904Y-42305204D01*
G37*
G36*
X29884904Y-39505204D02*
G01*
X29909173Y-39508804D01*
X29932971Y-39514765D01*
X29956071Y-39523030D01*
X29978249Y-39533520D01*
X29999293Y-39546133D01*
X30018998Y-39560747D01*
X30037177Y-39577223D01*
X30053653Y-39595402D01*
X30068267Y-39615107D01*
X30080880Y-39636151D01*
X30091370Y-39658329D01*
X30099635Y-39681429D01*
X30105596Y-39705227D01*
X30109196Y-39729496D01*
X30110400Y-39754000D01*
X30110400Y-40504000D01*
X30109196Y-40528504D01*
X30105596Y-40552773D01*
X30099635Y-40576571D01*
X30091370Y-40599671D01*
X30080880Y-40621849D01*
X30068267Y-40642893D01*
X30053653Y-40662598D01*
X30037177Y-40680777D01*
X30018998Y-40697253D01*
X29999293Y-40711867D01*
X29978249Y-40724480D01*
X29956071Y-40734970D01*
X29932971Y-40743235D01*
X29909173Y-40749196D01*
X29884904Y-40752796D01*
X29860400Y-40754000D01*
X28610400Y-40754000D01*
X28585896Y-40752796D01*
X28561627Y-40749196D01*
X28537829Y-40743235D01*
X28514729Y-40734970D01*
X28492551Y-40724480D01*
X28471507Y-40711867D01*
X28451802Y-40697253D01*
X28433623Y-40680777D01*
X28417147Y-40662598D01*
X28402533Y-40642893D01*
X28389920Y-40621849D01*
X28379430Y-40599671D01*
X28371165Y-40576571D01*
X28365204Y-40552773D01*
X28361604Y-40528504D01*
X28360400Y-40504000D01*
X28360400Y-39754000D01*
X28361604Y-39729496D01*
X28365204Y-39705227D01*
X28371165Y-39681429D01*
X28379430Y-39658329D01*
X28389920Y-39636151D01*
X28402533Y-39615107D01*
X28417147Y-39595402D01*
X28433623Y-39577223D01*
X28451802Y-39560747D01*
X28471507Y-39546133D01*
X28492551Y-39533520D01*
X28514729Y-39523030D01*
X28537829Y-39514765D01*
X28561627Y-39508804D01*
X28585896Y-39505204D01*
X28610400Y-39504000D01*
X29860400Y-39504000D01*
X29884904Y-39505204D01*
G37*
G36*
X38711404Y-39352804D02*
G01*
X38735673Y-39356404D01*
X38759471Y-39362365D01*
X38782571Y-39370630D01*
X38804749Y-39381120D01*
X38825793Y-39393733D01*
X38845498Y-39408347D01*
X38863677Y-39424823D01*
X38880153Y-39443002D01*
X38894767Y-39462707D01*
X38907380Y-39483751D01*
X38917870Y-39505929D01*
X38926135Y-39529029D01*
X38932096Y-39552827D01*
X38935696Y-39577096D01*
X38936900Y-39601600D01*
X38936900Y-40351600D01*
X38935696Y-40376104D01*
X38932096Y-40400373D01*
X38926135Y-40424171D01*
X38917870Y-40447271D01*
X38907380Y-40469449D01*
X38894767Y-40490493D01*
X38880153Y-40510198D01*
X38863677Y-40528377D01*
X38845498Y-40544853D01*
X38825793Y-40559467D01*
X38804749Y-40572080D01*
X38782571Y-40582570D01*
X38759471Y-40590835D01*
X38735673Y-40596796D01*
X38711404Y-40600396D01*
X38686900Y-40601600D01*
X37436900Y-40601600D01*
X37412396Y-40600396D01*
X37388127Y-40596796D01*
X37364329Y-40590835D01*
X37341229Y-40582570D01*
X37319051Y-40572080D01*
X37298007Y-40559467D01*
X37278302Y-40544853D01*
X37260123Y-40528377D01*
X37243647Y-40510198D01*
X37229033Y-40490493D01*
X37216420Y-40469449D01*
X37205930Y-40447271D01*
X37197665Y-40424171D01*
X37191704Y-40400373D01*
X37188104Y-40376104D01*
X37186900Y-40351600D01*
X37186900Y-39601600D01*
X37188104Y-39577096D01*
X37191704Y-39552827D01*
X37197665Y-39529029D01*
X37205930Y-39505929D01*
X37216420Y-39483751D01*
X37229033Y-39462707D01*
X37243647Y-39443002D01*
X37260123Y-39424823D01*
X37278302Y-39408347D01*
X37298007Y-39393733D01*
X37319051Y-39381120D01*
X37341229Y-39370630D01*
X37364329Y-39362365D01*
X37388127Y-39356404D01*
X37412396Y-39352804D01*
X37436900Y-39351600D01*
X38686900Y-39351600D01*
X38711404Y-39352804D01*
G37*
G36*
X38711404Y-42152804D02*
G01*
X38735673Y-42156404D01*
X38759471Y-42162365D01*
X38782571Y-42170630D01*
X38804749Y-42181120D01*
X38825793Y-42193733D01*
X38845498Y-42208347D01*
X38863677Y-42224823D01*
X38880153Y-42243002D01*
X38894767Y-42262707D01*
X38907380Y-42283751D01*
X38917870Y-42305929D01*
X38926135Y-42329029D01*
X38932096Y-42352827D01*
X38935696Y-42377096D01*
X38936900Y-42401600D01*
X38936900Y-43151600D01*
X38935696Y-43176104D01*
X38932096Y-43200373D01*
X38926135Y-43224171D01*
X38917870Y-43247271D01*
X38907380Y-43269449D01*
X38894767Y-43290493D01*
X38880153Y-43310198D01*
X38863677Y-43328377D01*
X38845498Y-43344853D01*
X38825793Y-43359467D01*
X38804749Y-43372080D01*
X38782571Y-43382570D01*
X38759471Y-43390835D01*
X38735673Y-43396796D01*
X38711404Y-43400396D01*
X38686900Y-43401600D01*
X37436900Y-43401600D01*
X37412396Y-43400396D01*
X37388127Y-43396796D01*
X37364329Y-43390835D01*
X37341229Y-43382570D01*
X37319051Y-43372080D01*
X37298007Y-43359467D01*
X37278302Y-43344853D01*
X37260123Y-43328377D01*
X37243647Y-43310198D01*
X37229033Y-43290493D01*
X37216420Y-43269449D01*
X37205930Y-43247271D01*
X37197665Y-43224171D01*
X37191704Y-43200373D01*
X37188104Y-43176104D01*
X37186900Y-43151600D01*
X37186900Y-42401600D01*
X37188104Y-42377096D01*
X37191704Y-42352827D01*
X37197665Y-42329029D01*
X37205930Y-42305929D01*
X37216420Y-42283751D01*
X37229033Y-42262707D01*
X37243647Y-42243002D01*
X37260123Y-42224823D01*
X37278302Y-42208347D01*
X37298007Y-42193733D01*
X37319051Y-42181120D01*
X37341229Y-42170630D01*
X37364329Y-42162365D01*
X37388127Y-42156404D01*
X37412396Y-42152804D01*
X37436900Y-42151600D01*
X38686900Y-42151600D01*
X38711404Y-42152804D01*
G37*
G36*
X40997404Y-42152804D02*
G01*
X41021673Y-42156404D01*
X41045471Y-42162365D01*
X41068571Y-42170630D01*
X41090749Y-42181120D01*
X41111793Y-42193733D01*
X41131498Y-42208347D01*
X41149677Y-42224823D01*
X41166153Y-42243002D01*
X41180767Y-42262707D01*
X41193380Y-42283751D01*
X41203870Y-42305929D01*
X41212135Y-42329029D01*
X41218096Y-42352827D01*
X41221696Y-42377096D01*
X41222900Y-42401600D01*
X41222900Y-43151600D01*
X41221696Y-43176104D01*
X41218096Y-43200373D01*
X41212135Y-43224171D01*
X41203870Y-43247271D01*
X41193380Y-43269449D01*
X41180767Y-43290493D01*
X41166153Y-43310198D01*
X41149677Y-43328377D01*
X41131498Y-43344853D01*
X41111793Y-43359467D01*
X41090749Y-43372080D01*
X41068571Y-43382570D01*
X41045471Y-43390835D01*
X41021673Y-43396796D01*
X40997404Y-43400396D01*
X40972900Y-43401600D01*
X39722900Y-43401600D01*
X39698396Y-43400396D01*
X39674127Y-43396796D01*
X39650329Y-43390835D01*
X39627229Y-43382570D01*
X39605051Y-43372080D01*
X39584007Y-43359467D01*
X39564302Y-43344853D01*
X39546123Y-43328377D01*
X39529647Y-43310198D01*
X39515033Y-43290493D01*
X39502420Y-43269449D01*
X39491930Y-43247271D01*
X39483665Y-43224171D01*
X39477704Y-43200373D01*
X39474104Y-43176104D01*
X39472900Y-43151600D01*
X39472900Y-42401600D01*
X39474104Y-42377096D01*
X39477704Y-42352827D01*
X39483665Y-42329029D01*
X39491930Y-42305929D01*
X39502420Y-42283751D01*
X39515033Y-42262707D01*
X39529647Y-42243002D01*
X39546123Y-42224823D01*
X39564302Y-42208347D01*
X39584007Y-42193733D01*
X39605051Y-42181120D01*
X39627229Y-42170630D01*
X39650329Y-42162365D01*
X39674127Y-42156404D01*
X39698396Y-42152804D01*
X39722900Y-42151600D01*
X40972900Y-42151600D01*
X40997404Y-42152804D01*
G37*
G36*
X40997404Y-39352804D02*
G01*
X41021673Y-39356404D01*
X41045471Y-39362365D01*
X41068571Y-39370630D01*
X41090749Y-39381120D01*
X41111793Y-39393733D01*
X41131498Y-39408347D01*
X41149677Y-39424823D01*
X41166153Y-39443002D01*
X41180767Y-39462707D01*
X41193380Y-39483751D01*
X41203870Y-39505929D01*
X41212135Y-39529029D01*
X41218096Y-39552827D01*
X41221696Y-39577096D01*
X41222900Y-39601600D01*
X41222900Y-40351600D01*
X41221696Y-40376104D01*
X41218096Y-40400373D01*
X41212135Y-40424171D01*
X41203870Y-40447271D01*
X41193380Y-40469449D01*
X41180767Y-40490493D01*
X41166153Y-40510198D01*
X41149677Y-40528377D01*
X41131498Y-40544853D01*
X41111793Y-40559467D01*
X41090749Y-40572080D01*
X41068571Y-40582570D01*
X41045471Y-40590835D01*
X41021673Y-40596796D01*
X40997404Y-40600396D01*
X40972900Y-40601600D01*
X39722900Y-40601600D01*
X39698396Y-40600396D01*
X39674127Y-40596796D01*
X39650329Y-40590835D01*
X39627229Y-40582570D01*
X39605051Y-40572080D01*
X39584007Y-40559467D01*
X39564302Y-40544853D01*
X39546123Y-40528377D01*
X39529647Y-40510198D01*
X39515033Y-40490493D01*
X39502420Y-40469449D01*
X39491930Y-40447271D01*
X39483665Y-40424171D01*
X39477704Y-40400373D01*
X39474104Y-40376104D01*
X39472900Y-40351600D01*
X39472900Y-39601600D01*
X39474104Y-39577096D01*
X39477704Y-39552827D01*
X39483665Y-39529029D01*
X39491930Y-39505929D01*
X39502420Y-39483751D01*
X39515033Y-39462707D01*
X39529647Y-39443002D01*
X39546123Y-39424823D01*
X39564302Y-39408347D01*
X39584007Y-39393733D01*
X39605051Y-39381120D01*
X39627229Y-39370630D01*
X39650329Y-39362365D01*
X39674127Y-39356404D01*
X39698396Y-39352804D01*
X39722900Y-39351600D01*
X40972900Y-39351600D01*
X40997404Y-39352804D01*
G37*
G36*
X65419504Y-46642604D02*
G01*
X65443773Y-46646204D01*
X65467571Y-46652165D01*
X65490671Y-46660430D01*
X65512849Y-46670920D01*
X65533893Y-46683533D01*
X65553598Y-46698147D01*
X65571777Y-46714623D01*
X65588253Y-46732802D01*
X65602867Y-46752507D01*
X65615480Y-46773551D01*
X65625970Y-46795729D01*
X65634235Y-46818829D01*
X65640196Y-46842627D01*
X65643796Y-46866896D01*
X65645000Y-46891400D01*
X65645000Y-47641400D01*
X65643796Y-47665904D01*
X65640196Y-47690173D01*
X65634235Y-47713971D01*
X65625970Y-47737071D01*
X65615480Y-47759249D01*
X65602867Y-47780293D01*
X65588253Y-47799998D01*
X65571777Y-47818177D01*
X65553598Y-47834653D01*
X65533893Y-47849267D01*
X65512849Y-47861880D01*
X65490671Y-47872370D01*
X65467571Y-47880635D01*
X65443773Y-47886596D01*
X65419504Y-47890196D01*
X65395000Y-47891400D01*
X64145000Y-47891400D01*
X64120496Y-47890196D01*
X64096227Y-47886596D01*
X64072429Y-47880635D01*
X64049329Y-47872370D01*
X64027151Y-47861880D01*
X64006107Y-47849267D01*
X63986402Y-47834653D01*
X63968223Y-47818177D01*
X63951747Y-47799998D01*
X63937133Y-47780293D01*
X63924520Y-47759249D01*
X63914030Y-47737071D01*
X63905765Y-47713971D01*
X63899804Y-47690173D01*
X63896204Y-47665904D01*
X63895000Y-47641400D01*
X63895000Y-46891400D01*
X63896204Y-46866896D01*
X63899804Y-46842627D01*
X63905765Y-46818829D01*
X63914030Y-46795729D01*
X63924520Y-46773551D01*
X63937133Y-46752507D01*
X63951747Y-46732802D01*
X63968223Y-46714623D01*
X63986402Y-46698147D01*
X64006107Y-46683533D01*
X64027151Y-46670920D01*
X64049329Y-46660430D01*
X64072429Y-46652165D01*
X64096227Y-46646204D01*
X64120496Y-46642604D01*
X64145000Y-46641400D01*
X65395000Y-46641400D01*
X65419504Y-46642604D01*
G37*
G36*
X65419504Y-49442604D02*
G01*
X65443773Y-49446204D01*
X65467571Y-49452165D01*
X65490671Y-49460430D01*
X65512849Y-49470920D01*
X65533893Y-49483533D01*
X65553598Y-49498147D01*
X65571777Y-49514623D01*
X65588253Y-49532802D01*
X65602867Y-49552507D01*
X65615480Y-49573551D01*
X65625970Y-49595729D01*
X65634235Y-49618829D01*
X65640196Y-49642627D01*
X65643796Y-49666896D01*
X65645000Y-49691400D01*
X65645000Y-50441400D01*
X65643796Y-50465904D01*
X65640196Y-50490173D01*
X65634235Y-50513971D01*
X65625970Y-50537071D01*
X65615480Y-50559249D01*
X65602867Y-50580293D01*
X65588253Y-50599998D01*
X65571777Y-50618177D01*
X65553598Y-50634653D01*
X65533893Y-50649267D01*
X65512849Y-50661880D01*
X65490671Y-50672370D01*
X65467571Y-50680635D01*
X65443773Y-50686596D01*
X65419504Y-50690196D01*
X65395000Y-50691400D01*
X64145000Y-50691400D01*
X64120496Y-50690196D01*
X64096227Y-50686596D01*
X64072429Y-50680635D01*
X64049329Y-50672370D01*
X64027151Y-50661880D01*
X64006107Y-50649267D01*
X63986402Y-50634653D01*
X63968223Y-50618177D01*
X63951747Y-50599998D01*
X63937133Y-50580293D01*
X63924520Y-50559249D01*
X63914030Y-50537071D01*
X63905765Y-50513971D01*
X63899804Y-50490173D01*
X63896204Y-50465904D01*
X63895000Y-50441400D01*
X63895000Y-49691400D01*
X63896204Y-49666896D01*
X63899804Y-49642627D01*
X63905765Y-49618829D01*
X63914030Y-49595729D01*
X63924520Y-49573551D01*
X63937133Y-49552507D01*
X63951747Y-49532802D01*
X63968223Y-49514623D01*
X63986402Y-49498147D01*
X64006107Y-49483533D01*
X64027151Y-49470920D01*
X64049329Y-49460430D01*
X64072429Y-49452165D01*
X64096227Y-49446204D01*
X64120496Y-49442604D01*
X64145000Y-49441400D01*
X65395000Y-49441400D01*
X65419504Y-49442604D01*
G37*
G36*
X58238304Y-37988204D02*
G01*
X58262573Y-37991804D01*
X58286371Y-37997765D01*
X58309471Y-38006030D01*
X58331649Y-38016520D01*
X58352693Y-38029133D01*
X58372398Y-38043747D01*
X58390577Y-38060223D01*
X58407053Y-38078402D01*
X58421667Y-38098107D01*
X58434280Y-38119151D01*
X58444770Y-38141329D01*
X58453035Y-38164429D01*
X58458996Y-38188227D01*
X58462596Y-38212496D01*
X58463800Y-38237000D01*
X58463800Y-39487000D01*
X58462596Y-39511504D01*
X58458996Y-39535773D01*
X58453035Y-39559571D01*
X58444770Y-39582671D01*
X58434280Y-39604849D01*
X58421667Y-39625893D01*
X58407053Y-39645598D01*
X58390577Y-39663777D01*
X58372398Y-39680253D01*
X58352693Y-39694867D01*
X58331649Y-39707480D01*
X58309471Y-39717970D01*
X58286371Y-39726235D01*
X58262573Y-39732196D01*
X58238304Y-39735796D01*
X58213800Y-39737000D01*
X57463800Y-39737000D01*
X57439296Y-39735796D01*
X57415027Y-39732196D01*
X57391229Y-39726235D01*
X57368129Y-39717970D01*
X57345951Y-39707480D01*
X57324907Y-39694867D01*
X57305202Y-39680253D01*
X57287023Y-39663777D01*
X57270547Y-39645598D01*
X57255933Y-39625893D01*
X57243320Y-39604849D01*
X57232830Y-39582671D01*
X57224565Y-39559571D01*
X57218604Y-39535773D01*
X57215004Y-39511504D01*
X57213800Y-39487000D01*
X57213800Y-38237000D01*
X57215004Y-38212496D01*
X57218604Y-38188227D01*
X57224565Y-38164429D01*
X57232830Y-38141329D01*
X57243320Y-38119151D01*
X57255933Y-38098107D01*
X57270547Y-38078402D01*
X57287023Y-38060223D01*
X57305202Y-38043747D01*
X57324907Y-38029133D01*
X57345951Y-38016520D01*
X57368129Y-38006030D01*
X57391229Y-37997765D01*
X57415027Y-37991804D01*
X57439296Y-37988204D01*
X57463800Y-37987000D01*
X58213800Y-37987000D01*
X58238304Y-37988204D01*
G37*
G36*
X55438304Y-37988204D02*
G01*
X55462573Y-37991804D01*
X55486371Y-37997765D01*
X55509471Y-38006030D01*
X55531649Y-38016520D01*
X55552693Y-38029133D01*
X55572398Y-38043747D01*
X55590577Y-38060223D01*
X55607053Y-38078402D01*
X55621667Y-38098107D01*
X55634280Y-38119151D01*
X55644770Y-38141329D01*
X55653035Y-38164429D01*
X55658996Y-38188227D01*
X55662596Y-38212496D01*
X55663800Y-38237000D01*
X55663800Y-39487000D01*
X55662596Y-39511504D01*
X55658996Y-39535773D01*
X55653035Y-39559571D01*
X55644770Y-39582671D01*
X55634280Y-39604849D01*
X55621667Y-39625893D01*
X55607053Y-39645598D01*
X55590577Y-39663777D01*
X55572398Y-39680253D01*
X55552693Y-39694867D01*
X55531649Y-39707480D01*
X55509471Y-39717970D01*
X55486371Y-39726235D01*
X55462573Y-39732196D01*
X55438304Y-39735796D01*
X55413800Y-39737000D01*
X54663800Y-39737000D01*
X54639296Y-39735796D01*
X54615027Y-39732196D01*
X54591229Y-39726235D01*
X54568129Y-39717970D01*
X54545951Y-39707480D01*
X54524907Y-39694867D01*
X54505202Y-39680253D01*
X54487023Y-39663777D01*
X54470547Y-39645598D01*
X54455933Y-39625893D01*
X54443320Y-39604849D01*
X54432830Y-39582671D01*
X54424565Y-39559571D01*
X54418604Y-39535773D01*
X54415004Y-39511504D01*
X54413800Y-39487000D01*
X54413800Y-38237000D01*
X54415004Y-38212496D01*
X54418604Y-38188227D01*
X54424565Y-38164429D01*
X54432830Y-38141329D01*
X54443320Y-38119151D01*
X54455933Y-38098107D01*
X54470547Y-38078402D01*
X54487023Y-38060223D01*
X54505202Y-38043747D01*
X54524907Y-38029133D01*
X54545951Y-38016520D01*
X54568129Y-38006030D01*
X54591229Y-37997765D01*
X54615027Y-37991804D01*
X54639296Y-37988204D01*
X54663800Y-37987000D01*
X55413800Y-37987000D01*
X55438304Y-37988204D01*
G37*
G36*
X61761904Y-39378204D02*
G01*
X61786173Y-39381804D01*
X61809971Y-39387765D01*
X61833071Y-39396030D01*
X61855249Y-39406520D01*
X61876293Y-39419133D01*
X61895998Y-39433747D01*
X61914177Y-39450223D01*
X61930653Y-39468402D01*
X61945267Y-39488107D01*
X61957880Y-39509151D01*
X61968370Y-39531329D01*
X61976635Y-39554429D01*
X61982596Y-39578227D01*
X61986196Y-39602496D01*
X61987400Y-39627000D01*
X61987400Y-40377000D01*
X61986196Y-40401504D01*
X61982596Y-40425773D01*
X61976635Y-40449571D01*
X61968370Y-40472671D01*
X61957880Y-40494849D01*
X61945267Y-40515893D01*
X61930653Y-40535598D01*
X61914177Y-40553777D01*
X61895998Y-40570253D01*
X61876293Y-40584867D01*
X61855249Y-40597480D01*
X61833071Y-40607970D01*
X61809971Y-40616235D01*
X61786173Y-40622196D01*
X61761904Y-40625796D01*
X61737400Y-40627000D01*
X60487400Y-40627000D01*
X60462896Y-40625796D01*
X60438627Y-40622196D01*
X60414829Y-40616235D01*
X60391729Y-40607970D01*
X60369551Y-40597480D01*
X60348507Y-40584867D01*
X60328802Y-40570253D01*
X60310623Y-40553777D01*
X60294147Y-40535598D01*
X60279533Y-40515893D01*
X60266920Y-40494849D01*
X60256430Y-40472671D01*
X60248165Y-40449571D01*
X60242204Y-40425773D01*
X60238604Y-40401504D01*
X60237400Y-40377000D01*
X60237400Y-39627000D01*
X60238604Y-39602496D01*
X60242204Y-39578227D01*
X60248165Y-39554429D01*
X60256430Y-39531329D01*
X60266920Y-39509151D01*
X60279533Y-39488107D01*
X60294147Y-39468402D01*
X60310623Y-39450223D01*
X60328802Y-39433747D01*
X60348507Y-39419133D01*
X60369551Y-39406520D01*
X60391729Y-39396030D01*
X60414829Y-39387765D01*
X60438627Y-39381804D01*
X60462896Y-39378204D01*
X60487400Y-39377000D01*
X61737400Y-39377000D01*
X61761904Y-39378204D01*
G37*
G36*
X61761904Y-42178204D02*
G01*
X61786173Y-42181804D01*
X61809971Y-42187765D01*
X61833071Y-42196030D01*
X61855249Y-42206520D01*
X61876293Y-42219133D01*
X61895998Y-42233747D01*
X61914177Y-42250223D01*
X61930653Y-42268402D01*
X61945267Y-42288107D01*
X61957880Y-42309151D01*
X61968370Y-42331329D01*
X61976635Y-42354429D01*
X61982596Y-42378227D01*
X61986196Y-42402496D01*
X61987400Y-42427000D01*
X61987400Y-43177000D01*
X61986196Y-43201504D01*
X61982596Y-43225773D01*
X61976635Y-43249571D01*
X61968370Y-43272671D01*
X61957880Y-43294849D01*
X61945267Y-43315893D01*
X61930653Y-43335598D01*
X61914177Y-43353777D01*
X61895998Y-43370253D01*
X61876293Y-43384867D01*
X61855249Y-43397480D01*
X61833071Y-43407970D01*
X61809971Y-43416235D01*
X61786173Y-43422196D01*
X61761904Y-43425796D01*
X61737400Y-43427000D01*
X60487400Y-43427000D01*
X60462896Y-43425796D01*
X60438627Y-43422196D01*
X60414829Y-43416235D01*
X60391729Y-43407970D01*
X60369551Y-43397480D01*
X60348507Y-43384867D01*
X60328802Y-43370253D01*
X60310623Y-43353777D01*
X60294147Y-43335598D01*
X60279533Y-43315893D01*
X60266920Y-43294849D01*
X60256430Y-43272671D01*
X60248165Y-43249571D01*
X60242204Y-43225773D01*
X60238604Y-43201504D01*
X60237400Y-43177000D01*
X60237400Y-42427000D01*
X60238604Y-42402496D01*
X60242204Y-42378227D01*
X60248165Y-42354429D01*
X60256430Y-42331329D01*
X60266920Y-42309151D01*
X60279533Y-42288107D01*
X60294147Y-42268402D01*
X60310623Y-42250223D01*
X60328802Y-42233747D01*
X60348507Y-42219133D01*
X60369551Y-42206520D01*
X60391729Y-42196030D01*
X60414829Y-42187765D01*
X60438627Y-42181804D01*
X60462896Y-42178204D01*
X60487400Y-42177000D01*
X61737400Y-42177000D01*
X61761904Y-42178204D01*
G37*
G36*
X64047904Y-42178204D02*
G01*
X64072173Y-42181804D01*
X64095971Y-42187765D01*
X64119071Y-42196030D01*
X64141249Y-42206520D01*
X64162293Y-42219133D01*
X64181998Y-42233747D01*
X64200177Y-42250223D01*
X64216653Y-42268402D01*
X64231267Y-42288107D01*
X64243880Y-42309151D01*
X64254370Y-42331329D01*
X64262635Y-42354429D01*
X64268596Y-42378227D01*
X64272196Y-42402496D01*
X64273400Y-42427000D01*
X64273400Y-43177000D01*
X64272196Y-43201504D01*
X64268596Y-43225773D01*
X64262635Y-43249571D01*
X64254370Y-43272671D01*
X64243880Y-43294849D01*
X64231267Y-43315893D01*
X64216653Y-43335598D01*
X64200177Y-43353777D01*
X64181998Y-43370253D01*
X64162293Y-43384867D01*
X64141249Y-43397480D01*
X64119071Y-43407970D01*
X64095971Y-43416235D01*
X64072173Y-43422196D01*
X64047904Y-43425796D01*
X64023400Y-43427000D01*
X62773400Y-43427000D01*
X62748896Y-43425796D01*
X62724627Y-43422196D01*
X62700829Y-43416235D01*
X62677729Y-43407970D01*
X62655551Y-43397480D01*
X62634507Y-43384867D01*
X62614802Y-43370253D01*
X62596623Y-43353777D01*
X62580147Y-43335598D01*
X62565533Y-43315893D01*
X62552920Y-43294849D01*
X62542430Y-43272671D01*
X62534165Y-43249571D01*
X62528204Y-43225773D01*
X62524604Y-43201504D01*
X62523400Y-43177000D01*
X62523400Y-42427000D01*
X62524604Y-42402496D01*
X62528204Y-42378227D01*
X62534165Y-42354429D01*
X62542430Y-42331329D01*
X62552920Y-42309151D01*
X62565533Y-42288107D01*
X62580147Y-42268402D01*
X62596623Y-42250223D01*
X62614802Y-42233747D01*
X62634507Y-42219133D01*
X62655551Y-42206520D01*
X62677729Y-42196030D01*
X62700829Y-42187765D01*
X62724627Y-42181804D01*
X62748896Y-42178204D01*
X62773400Y-42177000D01*
X64023400Y-42177000D01*
X64047904Y-42178204D01*
G37*
G36*
X64047904Y-39378204D02*
G01*
X64072173Y-39381804D01*
X64095971Y-39387765D01*
X64119071Y-39396030D01*
X64141249Y-39406520D01*
X64162293Y-39419133D01*
X64181998Y-39433747D01*
X64200177Y-39450223D01*
X64216653Y-39468402D01*
X64231267Y-39488107D01*
X64243880Y-39509151D01*
X64254370Y-39531329D01*
X64262635Y-39554429D01*
X64268596Y-39578227D01*
X64272196Y-39602496D01*
X64273400Y-39627000D01*
X64273400Y-40377000D01*
X64272196Y-40401504D01*
X64268596Y-40425773D01*
X64262635Y-40449571D01*
X64254370Y-40472671D01*
X64243880Y-40494849D01*
X64231267Y-40515893D01*
X64216653Y-40535598D01*
X64200177Y-40553777D01*
X64181998Y-40570253D01*
X64162293Y-40584867D01*
X64141249Y-40597480D01*
X64119071Y-40607970D01*
X64095971Y-40616235D01*
X64072173Y-40622196D01*
X64047904Y-40625796D01*
X64023400Y-40627000D01*
X62773400Y-40627000D01*
X62748896Y-40625796D01*
X62724627Y-40622196D01*
X62700829Y-40616235D01*
X62677729Y-40607970D01*
X62655551Y-40597480D01*
X62634507Y-40584867D01*
X62614802Y-40570253D01*
X62596623Y-40553777D01*
X62580147Y-40535598D01*
X62565533Y-40515893D01*
X62552920Y-40494849D01*
X62542430Y-40472671D01*
X62534165Y-40449571D01*
X62528204Y-40425773D01*
X62524604Y-40401504D01*
X62523400Y-40377000D01*
X62523400Y-39627000D01*
X62524604Y-39602496D01*
X62528204Y-39578227D01*
X62534165Y-39554429D01*
X62542430Y-39531329D01*
X62552920Y-39509151D01*
X62565533Y-39488107D01*
X62580147Y-39468402D01*
X62596623Y-39450223D01*
X62614802Y-39433747D01*
X62634507Y-39419133D01*
X62655551Y-39406520D01*
X62677729Y-39396030D01*
X62700829Y-39387765D01*
X62724627Y-39381804D01*
X62748896Y-39378204D01*
X62773400Y-39377000D01*
X64023400Y-39377000D01*
X64047904Y-39378204D01*
G37*
G36*
X43270704Y-39357884D02*
G01*
X43294973Y-39361484D01*
X43318771Y-39367445D01*
X43341871Y-39375710D01*
X43364049Y-39386200D01*
X43385093Y-39398813D01*
X43404798Y-39413427D01*
X43422977Y-39429903D01*
X43439453Y-39448082D01*
X43454067Y-39467787D01*
X43466680Y-39488831D01*
X43477170Y-39511009D01*
X43485435Y-39534109D01*
X43491396Y-39557907D01*
X43494996Y-39582176D01*
X43496200Y-39606680D01*
X43496200Y-40356680D01*
X43494996Y-40381184D01*
X43491396Y-40405453D01*
X43485435Y-40429251D01*
X43477170Y-40452351D01*
X43466680Y-40474529D01*
X43454067Y-40495573D01*
X43439453Y-40515278D01*
X43422977Y-40533457D01*
X43404798Y-40549933D01*
X43385093Y-40564547D01*
X43364049Y-40577160D01*
X43341871Y-40587650D01*
X43318771Y-40595915D01*
X43294973Y-40601876D01*
X43270704Y-40605476D01*
X43246200Y-40606680D01*
X41996200Y-40606680D01*
X41971696Y-40605476D01*
X41947427Y-40601876D01*
X41923629Y-40595915D01*
X41900529Y-40587650D01*
X41878351Y-40577160D01*
X41857307Y-40564547D01*
X41837602Y-40549933D01*
X41819423Y-40533457D01*
X41802947Y-40515278D01*
X41788333Y-40495573D01*
X41775720Y-40474529D01*
X41765230Y-40452351D01*
X41756965Y-40429251D01*
X41751004Y-40405453D01*
X41747404Y-40381184D01*
X41746200Y-40356680D01*
X41746200Y-39606680D01*
X41747404Y-39582176D01*
X41751004Y-39557907D01*
X41756965Y-39534109D01*
X41765230Y-39511009D01*
X41775720Y-39488831D01*
X41788333Y-39467787D01*
X41802947Y-39448082D01*
X41819423Y-39429903D01*
X41837602Y-39413427D01*
X41857307Y-39398813D01*
X41878351Y-39386200D01*
X41900529Y-39375710D01*
X41923629Y-39367445D01*
X41947427Y-39361484D01*
X41971696Y-39357884D01*
X41996200Y-39356680D01*
X43246200Y-39356680D01*
X43270704Y-39357884D01*
G37*
G36*
X43270704Y-42157884D02*
G01*
X43294973Y-42161484D01*
X43318771Y-42167445D01*
X43341871Y-42175710D01*
X43364049Y-42186200D01*
X43385093Y-42198813D01*
X43404798Y-42213427D01*
X43422977Y-42229903D01*
X43439453Y-42248082D01*
X43454067Y-42267787D01*
X43466680Y-42288831D01*
X43477170Y-42311009D01*
X43485435Y-42334109D01*
X43491396Y-42357907D01*
X43494996Y-42382176D01*
X43496200Y-42406680D01*
X43496200Y-43156680D01*
X43494996Y-43181184D01*
X43491396Y-43205453D01*
X43485435Y-43229251D01*
X43477170Y-43252351D01*
X43466680Y-43274529D01*
X43454067Y-43295573D01*
X43439453Y-43315278D01*
X43422977Y-43333457D01*
X43404798Y-43349933D01*
X43385093Y-43364547D01*
X43364049Y-43377160D01*
X43341871Y-43387650D01*
X43318771Y-43395915D01*
X43294973Y-43401876D01*
X43270704Y-43405476D01*
X43246200Y-43406680D01*
X41996200Y-43406680D01*
X41971696Y-43405476D01*
X41947427Y-43401876D01*
X41923629Y-43395915D01*
X41900529Y-43387650D01*
X41878351Y-43377160D01*
X41857307Y-43364547D01*
X41837602Y-43349933D01*
X41819423Y-43333457D01*
X41802947Y-43315278D01*
X41788333Y-43295573D01*
X41775720Y-43274529D01*
X41765230Y-43252351D01*
X41756965Y-43229251D01*
X41751004Y-43205453D01*
X41747404Y-43181184D01*
X41746200Y-43156680D01*
X41746200Y-42406680D01*
X41747404Y-42382176D01*
X41751004Y-42357907D01*
X41756965Y-42334109D01*
X41765230Y-42311009D01*
X41775720Y-42288831D01*
X41788333Y-42267787D01*
X41802947Y-42248082D01*
X41819423Y-42229903D01*
X41837602Y-42213427D01*
X41857307Y-42198813D01*
X41878351Y-42186200D01*
X41900529Y-42175710D01*
X41923629Y-42167445D01*
X41947427Y-42161484D01*
X41971696Y-42157884D01*
X41996200Y-42156680D01*
X43246200Y-42156680D01*
X43270704Y-42157884D01*
G37*
G36*
X45556704Y-39357884D02*
G01*
X45580973Y-39361484D01*
X45604771Y-39367445D01*
X45627871Y-39375710D01*
X45650049Y-39386200D01*
X45671093Y-39398813D01*
X45690798Y-39413427D01*
X45708977Y-39429903D01*
X45725453Y-39448082D01*
X45740067Y-39467787D01*
X45752680Y-39488831D01*
X45763170Y-39511009D01*
X45771435Y-39534109D01*
X45777396Y-39557907D01*
X45780996Y-39582176D01*
X45782200Y-39606680D01*
X45782200Y-40356680D01*
X45780996Y-40381184D01*
X45777396Y-40405453D01*
X45771435Y-40429251D01*
X45763170Y-40452351D01*
X45752680Y-40474529D01*
X45740067Y-40495573D01*
X45725453Y-40515278D01*
X45708977Y-40533457D01*
X45690798Y-40549933D01*
X45671093Y-40564547D01*
X45650049Y-40577160D01*
X45627871Y-40587650D01*
X45604771Y-40595915D01*
X45580973Y-40601876D01*
X45556704Y-40605476D01*
X45532200Y-40606680D01*
X44282200Y-40606680D01*
X44257696Y-40605476D01*
X44233427Y-40601876D01*
X44209629Y-40595915D01*
X44186529Y-40587650D01*
X44164351Y-40577160D01*
X44143307Y-40564547D01*
X44123602Y-40549933D01*
X44105423Y-40533457D01*
X44088947Y-40515278D01*
X44074333Y-40495573D01*
X44061720Y-40474529D01*
X44051230Y-40452351D01*
X44042965Y-40429251D01*
X44037004Y-40405453D01*
X44033404Y-40381184D01*
X44032200Y-40356680D01*
X44032200Y-39606680D01*
X44033404Y-39582176D01*
X44037004Y-39557907D01*
X44042965Y-39534109D01*
X44051230Y-39511009D01*
X44061720Y-39488831D01*
X44074333Y-39467787D01*
X44088947Y-39448082D01*
X44105423Y-39429903D01*
X44123602Y-39413427D01*
X44143307Y-39398813D01*
X44164351Y-39386200D01*
X44186529Y-39375710D01*
X44209629Y-39367445D01*
X44233427Y-39361484D01*
X44257696Y-39357884D01*
X44282200Y-39356680D01*
X45532200Y-39356680D01*
X45556704Y-39357884D01*
G37*
G36*
X45556704Y-42157884D02*
G01*
X45580973Y-42161484D01*
X45604771Y-42167445D01*
X45627871Y-42175710D01*
X45650049Y-42186200D01*
X45671093Y-42198813D01*
X45690798Y-42213427D01*
X45708977Y-42229903D01*
X45725453Y-42248082D01*
X45740067Y-42267787D01*
X45752680Y-42288831D01*
X45763170Y-42311009D01*
X45771435Y-42334109D01*
X45777396Y-42357907D01*
X45780996Y-42382176D01*
X45782200Y-42406680D01*
X45782200Y-43156680D01*
X45780996Y-43181184D01*
X45777396Y-43205453D01*
X45771435Y-43229251D01*
X45763170Y-43252351D01*
X45752680Y-43274529D01*
X45740067Y-43295573D01*
X45725453Y-43315278D01*
X45708977Y-43333457D01*
X45690798Y-43349933D01*
X45671093Y-43364547D01*
X45650049Y-43377160D01*
X45627871Y-43387650D01*
X45604771Y-43395915D01*
X45580973Y-43401876D01*
X45556704Y-43405476D01*
X45532200Y-43406680D01*
X44282200Y-43406680D01*
X44257696Y-43405476D01*
X44233427Y-43401876D01*
X44209629Y-43395915D01*
X44186529Y-43387650D01*
X44164351Y-43377160D01*
X44143307Y-43364547D01*
X44123602Y-43349933D01*
X44105423Y-43333457D01*
X44088947Y-43315278D01*
X44074333Y-43295573D01*
X44061720Y-43274529D01*
X44051230Y-43252351D01*
X44042965Y-43229251D01*
X44037004Y-43205453D01*
X44033404Y-43181184D01*
X44032200Y-43156680D01*
X44032200Y-42406680D01*
X44033404Y-42382176D01*
X44037004Y-42357907D01*
X44042965Y-42334109D01*
X44051230Y-42311009D01*
X44061720Y-42288831D01*
X44074333Y-42267787D01*
X44088947Y-42248082D01*
X44105423Y-42229903D01*
X44123602Y-42213427D01*
X44143307Y-42198813D01*
X44164351Y-42186200D01*
X44186529Y-42175710D01*
X44209629Y-42167445D01*
X44233427Y-42161484D01*
X44257696Y-42157884D01*
X44282200Y-42156680D01*
X45532200Y-42156680D01*
X45556704Y-42157884D01*
G37*
G36*
X35388204Y-37129684D02*
G01*
X35412473Y-37133284D01*
X35436271Y-37139245D01*
X35459371Y-37147510D01*
X35481549Y-37158000D01*
X35502593Y-37170613D01*
X35522298Y-37185227D01*
X35540477Y-37201703D01*
X35556953Y-37219882D01*
X35571567Y-37239587D01*
X35584180Y-37260631D01*
X35594670Y-37282809D01*
X35602935Y-37305909D01*
X35608896Y-37329707D01*
X35612496Y-37353976D01*
X35613700Y-37378480D01*
X35613700Y-38628480D01*
X35612496Y-38652984D01*
X35608896Y-38677253D01*
X35602935Y-38701051D01*
X35594670Y-38724151D01*
X35584180Y-38746329D01*
X35571567Y-38767373D01*
X35556953Y-38787078D01*
X35540477Y-38805257D01*
X35522298Y-38821733D01*
X35502593Y-38836347D01*
X35481549Y-38848960D01*
X35459371Y-38859450D01*
X35436271Y-38867715D01*
X35412473Y-38873676D01*
X35388204Y-38877276D01*
X35363700Y-38878480D01*
X34438700Y-38878480D01*
X34414196Y-38877276D01*
X34389927Y-38873676D01*
X34366129Y-38867715D01*
X34343029Y-38859450D01*
X34320851Y-38848960D01*
X34299807Y-38836347D01*
X34280102Y-38821733D01*
X34261923Y-38805257D01*
X34245447Y-38787078D01*
X34230833Y-38767373D01*
X34218220Y-38746329D01*
X34207730Y-38724151D01*
X34199465Y-38701051D01*
X34193504Y-38677253D01*
X34189904Y-38652984D01*
X34188700Y-38628480D01*
X34188700Y-37378480D01*
X34189904Y-37353976D01*
X34193504Y-37329707D01*
X34199465Y-37305909D01*
X34207730Y-37282809D01*
X34218220Y-37260631D01*
X34230833Y-37239587D01*
X34245447Y-37219882D01*
X34261923Y-37201703D01*
X34280102Y-37185227D01*
X34299807Y-37170613D01*
X34320851Y-37158000D01*
X34343029Y-37147510D01*
X34366129Y-37139245D01*
X34389927Y-37133284D01*
X34414196Y-37129684D01*
X34438700Y-37128480D01*
X35363700Y-37128480D01*
X35388204Y-37129684D01*
G37*
G36*
X32413204Y-37129684D02*
G01*
X32437473Y-37133284D01*
X32461271Y-37139245D01*
X32484371Y-37147510D01*
X32506549Y-37158000D01*
X32527593Y-37170613D01*
X32547298Y-37185227D01*
X32565477Y-37201703D01*
X32581953Y-37219882D01*
X32596567Y-37239587D01*
X32609180Y-37260631D01*
X32619670Y-37282809D01*
X32627935Y-37305909D01*
X32633896Y-37329707D01*
X32637496Y-37353976D01*
X32638700Y-37378480D01*
X32638700Y-38628480D01*
X32637496Y-38652984D01*
X32633896Y-38677253D01*
X32627935Y-38701051D01*
X32619670Y-38724151D01*
X32609180Y-38746329D01*
X32596567Y-38767373D01*
X32581953Y-38787078D01*
X32565477Y-38805257D01*
X32547298Y-38821733D01*
X32527593Y-38836347D01*
X32506549Y-38848960D01*
X32484371Y-38859450D01*
X32461271Y-38867715D01*
X32437473Y-38873676D01*
X32413204Y-38877276D01*
X32388700Y-38878480D01*
X31463700Y-38878480D01*
X31439196Y-38877276D01*
X31414927Y-38873676D01*
X31391129Y-38867715D01*
X31368029Y-38859450D01*
X31345851Y-38848960D01*
X31324807Y-38836347D01*
X31305102Y-38821733D01*
X31286923Y-38805257D01*
X31270447Y-38787078D01*
X31255833Y-38767373D01*
X31243220Y-38746329D01*
X31232730Y-38724151D01*
X31224465Y-38701051D01*
X31218504Y-38677253D01*
X31214904Y-38652984D01*
X31213700Y-38628480D01*
X31213700Y-37378480D01*
X31214904Y-37353976D01*
X31218504Y-37329707D01*
X31224465Y-37305909D01*
X31232730Y-37282809D01*
X31243220Y-37260631D01*
X31255833Y-37239587D01*
X31270447Y-37219882D01*
X31286923Y-37201703D01*
X31305102Y-37185227D01*
X31324807Y-37170613D01*
X31345851Y-37158000D01*
X31368029Y-37147510D01*
X31391129Y-37139245D01*
X31414927Y-37133284D01*
X31439196Y-37129684D01*
X31463700Y-37128480D01*
X32388700Y-37128480D01*
X32413204Y-37129684D01*
G37*
D16*
X69291200Y-45872400D03*
D17*
X69291200Y-48412400D03*
D16*
X69291200Y-50952400D03*
X26060400Y-52984400D03*
X28600400Y-52984400D03*
X31140400Y-52984400D03*
X33680400Y-52984400D03*
X36220400Y-52984400D03*
X38760400Y-52984400D03*
X41300400Y-52984400D03*
X43840400Y-52984400D03*
X46380400Y-52984400D03*
X48920400Y-52984400D03*
X51460400Y-52984400D03*
X54000400Y-52984400D03*
X56540400Y-52984400D03*
X59080400Y-52984400D03*
X61620400Y-52984400D03*
D17*
X64160400Y-52984400D03*
X66700400Y-52984400D03*
D13*
G36*
X28774304Y-46624204D02*
G01*
X28798573Y-46627804D01*
X28822371Y-46633765D01*
X28845471Y-46642030D01*
X28867649Y-46652520D01*
X28888693Y-46665133D01*
X28908398Y-46679747D01*
X28926577Y-46696223D01*
X28943053Y-46714402D01*
X28957667Y-46734107D01*
X28970280Y-46755151D01*
X28980770Y-46777329D01*
X28989035Y-46800429D01*
X28994996Y-46824227D01*
X28998596Y-46848496D01*
X28999800Y-46873000D01*
X28999800Y-48123000D01*
X28998596Y-48147504D01*
X28994996Y-48171773D01*
X28989035Y-48195571D01*
X28980770Y-48218671D01*
X28970280Y-48240849D01*
X28957667Y-48261893D01*
X28943053Y-48281598D01*
X28926577Y-48299777D01*
X28908398Y-48316253D01*
X28888693Y-48330867D01*
X28867649Y-48343480D01*
X28845471Y-48353970D01*
X28822371Y-48362235D01*
X28798573Y-48368196D01*
X28774304Y-48371796D01*
X28749800Y-48373000D01*
X27999800Y-48373000D01*
X27975296Y-48371796D01*
X27951027Y-48368196D01*
X27927229Y-48362235D01*
X27904129Y-48353970D01*
X27881951Y-48343480D01*
X27860907Y-48330867D01*
X27841202Y-48316253D01*
X27823023Y-48299777D01*
X27806547Y-48281598D01*
X27791933Y-48261893D01*
X27779320Y-48240849D01*
X27768830Y-48218671D01*
X27760565Y-48195571D01*
X27754604Y-48171773D01*
X27751004Y-48147504D01*
X27749800Y-48123000D01*
X27749800Y-46873000D01*
X27751004Y-46848496D01*
X27754604Y-46824227D01*
X27760565Y-46800429D01*
X27768830Y-46777329D01*
X27779320Y-46755151D01*
X27791933Y-46734107D01*
X27806547Y-46714402D01*
X27823023Y-46696223D01*
X27841202Y-46679747D01*
X27860907Y-46665133D01*
X27881951Y-46652520D01*
X27904129Y-46642030D01*
X27927229Y-46633765D01*
X27951027Y-46627804D01*
X27975296Y-46624204D01*
X27999800Y-46623000D01*
X28749800Y-46623000D01*
X28774304Y-46624204D01*
G37*
G36*
X25974304Y-46624204D02*
G01*
X25998573Y-46627804D01*
X26022371Y-46633765D01*
X26045471Y-46642030D01*
X26067649Y-46652520D01*
X26088693Y-46665133D01*
X26108398Y-46679747D01*
X26126577Y-46696223D01*
X26143053Y-46714402D01*
X26157667Y-46734107D01*
X26170280Y-46755151D01*
X26180770Y-46777329D01*
X26189035Y-46800429D01*
X26194996Y-46824227D01*
X26198596Y-46848496D01*
X26199800Y-46873000D01*
X26199800Y-48123000D01*
X26198596Y-48147504D01*
X26194996Y-48171773D01*
X26189035Y-48195571D01*
X26180770Y-48218671D01*
X26170280Y-48240849D01*
X26157667Y-48261893D01*
X26143053Y-48281598D01*
X26126577Y-48299777D01*
X26108398Y-48316253D01*
X26088693Y-48330867D01*
X26067649Y-48343480D01*
X26045471Y-48353970D01*
X26022371Y-48362235D01*
X25998573Y-48368196D01*
X25974304Y-48371796D01*
X25949800Y-48373000D01*
X25199800Y-48373000D01*
X25175296Y-48371796D01*
X25151027Y-48368196D01*
X25127229Y-48362235D01*
X25104129Y-48353970D01*
X25081951Y-48343480D01*
X25060907Y-48330867D01*
X25041202Y-48316253D01*
X25023023Y-48299777D01*
X25006547Y-48281598D01*
X24991933Y-48261893D01*
X24979320Y-48240849D01*
X24968830Y-48218671D01*
X24960565Y-48195571D01*
X24954604Y-48171773D01*
X24951004Y-48147504D01*
X24949800Y-48123000D01*
X24949800Y-46873000D01*
X24951004Y-46848496D01*
X24954604Y-46824227D01*
X24960565Y-46800429D01*
X24968830Y-46777329D01*
X24979320Y-46755151D01*
X24991933Y-46734107D01*
X25006547Y-46714402D01*
X25023023Y-46696223D01*
X25041202Y-46679747D01*
X25060907Y-46665133D01*
X25081951Y-46652520D01*
X25104129Y-46642030D01*
X25127229Y-46633765D01*
X25151027Y-46627804D01*
X25175296Y-46624204D01*
X25199800Y-46623000D01*
X25949800Y-46623000D01*
X25974304Y-46624204D01*
G37*
M02*
