M48
; DRILL file {KiCad 5.1.5+dfsg1-2build2} date Mi 16 Jun 2021 02:42:29 CEST
; FORMAT={-:-/ absolute / inch / decimal}
; #@! TF.CreationDate,2021-06-16T02:42:29+02:00
; #@! TF.GenerationSoftware,Kicad,Pcbnew,5.1.5+dfsg1-2build2
; #@! TF.FileFunction,Plated,1,2,PTH
FMAT,2
INCH
T1C0.0157
T2C0.0394
T3C0.0728
%
G90
G05
T1
X1.134Y-1.636
X1.1685Y-1.6356
X1.2242Y-1.636
X1.2578Y-1.6358
X1.3173Y-1.5673
X1.3173Y-1.686
X1.385Y-1.6184
X1.444Y-1.57
X1.444Y-1.782
X1.5Y-1.636
X1.59Y-1.636
X1.68Y-1.636
X1.77Y-1.636
X1.852Y-1.56
X2.026Y-1.746
X2.092Y-1.688
X2.098Y-1.56
X2.166Y-1.7439
X2.52Y-1.512
X2.55Y-1.908
X2.604Y-1.639
X2.604Y-1.696
X2.67Y-1.762
T2
X1.026Y-1.3865
X1.126Y-1.3865
X1.226Y-1.3865
X1.326Y-1.3865
X1.426Y-1.3865
X1.526Y-1.3865
X1.626Y-1.3865
X1.726Y-1.3865
X1.826Y-1.3865
X1.926Y-1.3865
X2.026Y-1.3865
X2.126Y-1.3865
X2.226Y-1.3865
X2.326Y-1.3865
X2.426Y-1.3865
X1.026Y-2.086
X1.126Y-2.086
X1.226Y-2.086
X1.326Y-2.086
X1.426Y-2.086
X1.526Y-2.086
X1.626Y-2.086
X1.726Y-2.086
X1.826Y-2.086
X1.926Y-2.086
X2.026Y-2.086
X2.126Y-2.086
X2.226Y-2.086
X2.326Y-2.086
X2.426Y-2.086
X2.526Y-2.086
X2.626Y-2.086
X2.728Y-1.806
X2.728Y-1.906
X2.728Y-2.006
X1.026Y-1.9865
X1.126Y-1.9865
X1.226Y-1.9865
X1.326Y-1.9865
X1.426Y-1.9865
X1.526Y-1.9865
X1.626Y-1.9865
X1.726Y-1.9865
X1.826Y-1.9865
X1.926Y-1.9865
X2.026Y-1.9865
X2.126Y-1.9865
X2.226Y-1.9865
X2.326Y-1.9865
X2.426Y-1.9865
X2.728Y-1.402
X2.728Y-1.502
X2.728Y-1.602
T3
X1.01Y-1.068
X1.3092Y-1.068
X2.388Y-1.068
X2.6872Y-1.068
T0
M30
