G04 #@! TF.GenerationSoftware,KiCad,Pcbnew,5.1.5+dfsg1-2build2*
G04 #@! TF.CreationDate,2021-06-16T02:42:27+02:00*
G04 #@! TF.ProjectId,circuit9,63697263-7569-4743-992e-6b696361645f,rev?*
G04 #@! TF.SameCoordinates,Original*
G04 #@! TF.FileFunction,Paste,Top*
G04 #@! TF.FilePolarity,Positive*
%FSLAX46Y46*%
G04 Gerber Fmt 4.6, Leading zero omitted, Abs format (unit mm)*
G04 Created by KiCad (PCBNEW 5.1.5+dfsg1-2build2) date 2021-06-16 02:42:27*
%MOMM*%
%LPD*%
G04 APERTURE LIST*
%ADD10C,0.100000*%
%ADD11R,0.400000X0.900000*%
%ADD12R,1.060000X0.650000*%
G04 APERTURE END LIST*
D10*
G36*
X33937642Y-45668874D02*
G01*
X33961303Y-45672384D01*
X33984507Y-45678196D01*
X34007029Y-45686254D01*
X34028653Y-45696482D01*
X34049170Y-45708779D01*
X34068383Y-45723029D01*
X34086107Y-45739093D01*
X34102171Y-45756817D01*
X34116421Y-45776030D01*
X34128718Y-45796547D01*
X34138946Y-45818171D01*
X34147004Y-45840693D01*
X34152816Y-45863897D01*
X34156326Y-45887558D01*
X34157500Y-45911450D01*
X34157500Y-46823950D01*
X34156326Y-46847842D01*
X34152816Y-46871503D01*
X34147004Y-46894707D01*
X34138946Y-46917229D01*
X34128718Y-46938853D01*
X34116421Y-46959370D01*
X34102171Y-46978583D01*
X34086107Y-46996307D01*
X34068383Y-47012371D01*
X34049170Y-47026621D01*
X34028653Y-47038918D01*
X34007029Y-47049146D01*
X33984507Y-47057204D01*
X33961303Y-47063016D01*
X33937642Y-47066526D01*
X33913750Y-47067700D01*
X33426250Y-47067700D01*
X33402358Y-47066526D01*
X33378697Y-47063016D01*
X33355493Y-47057204D01*
X33332971Y-47049146D01*
X33311347Y-47038918D01*
X33290830Y-47026621D01*
X33271617Y-47012371D01*
X33253893Y-46996307D01*
X33237829Y-46978583D01*
X33223579Y-46959370D01*
X33211282Y-46938853D01*
X33201054Y-46917229D01*
X33192996Y-46894707D01*
X33187184Y-46871503D01*
X33183674Y-46847842D01*
X33182500Y-46823950D01*
X33182500Y-45911450D01*
X33183674Y-45887558D01*
X33187184Y-45863897D01*
X33192996Y-45840693D01*
X33201054Y-45818171D01*
X33211282Y-45796547D01*
X33223579Y-45776030D01*
X33237829Y-45756817D01*
X33253893Y-45739093D01*
X33271617Y-45723029D01*
X33290830Y-45708779D01*
X33311347Y-45696482D01*
X33332971Y-45686254D01*
X33355493Y-45678196D01*
X33378697Y-45672384D01*
X33402358Y-45668874D01*
X33426250Y-45667700D01*
X33913750Y-45667700D01*
X33937642Y-45668874D01*
G37*
G36*
X35812642Y-45668874D02*
G01*
X35836303Y-45672384D01*
X35859507Y-45678196D01*
X35882029Y-45686254D01*
X35903653Y-45696482D01*
X35924170Y-45708779D01*
X35943383Y-45723029D01*
X35961107Y-45739093D01*
X35977171Y-45756817D01*
X35991421Y-45776030D01*
X36003718Y-45796547D01*
X36013946Y-45818171D01*
X36022004Y-45840693D01*
X36027816Y-45863897D01*
X36031326Y-45887558D01*
X36032500Y-45911450D01*
X36032500Y-46823950D01*
X36031326Y-46847842D01*
X36027816Y-46871503D01*
X36022004Y-46894707D01*
X36013946Y-46917229D01*
X36003718Y-46938853D01*
X35991421Y-46959370D01*
X35977171Y-46978583D01*
X35961107Y-46996307D01*
X35943383Y-47012371D01*
X35924170Y-47026621D01*
X35903653Y-47038918D01*
X35882029Y-47049146D01*
X35859507Y-47057204D01*
X35836303Y-47063016D01*
X35812642Y-47066526D01*
X35788750Y-47067700D01*
X35301250Y-47067700D01*
X35277358Y-47066526D01*
X35253697Y-47063016D01*
X35230493Y-47057204D01*
X35207971Y-47049146D01*
X35186347Y-47038918D01*
X35165830Y-47026621D01*
X35146617Y-47012371D01*
X35128893Y-46996307D01*
X35112829Y-46978583D01*
X35098579Y-46959370D01*
X35086282Y-46938853D01*
X35076054Y-46917229D01*
X35067996Y-46894707D01*
X35062184Y-46871503D01*
X35058674Y-46847842D01*
X35057500Y-46823950D01*
X35057500Y-45911450D01*
X35058674Y-45887558D01*
X35062184Y-45863897D01*
X35067996Y-45840693D01*
X35076054Y-45818171D01*
X35086282Y-45796547D01*
X35098579Y-45776030D01*
X35112829Y-45756817D01*
X35128893Y-45739093D01*
X35146617Y-45723029D01*
X35165830Y-45708779D01*
X35186347Y-45696482D01*
X35207971Y-45686254D01*
X35230493Y-45678196D01*
X35253697Y-45672384D01*
X35277358Y-45668874D01*
X35301250Y-45667700D01*
X35788750Y-45667700D01*
X35812642Y-45668874D01*
G37*
G36*
X35812642Y-43509874D02*
G01*
X35836303Y-43513384D01*
X35859507Y-43519196D01*
X35882029Y-43527254D01*
X35903653Y-43537482D01*
X35924170Y-43549779D01*
X35943383Y-43564029D01*
X35961107Y-43580093D01*
X35977171Y-43597817D01*
X35991421Y-43617030D01*
X36003718Y-43637547D01*
X36013946Y-43659171D01*
X36022004Y-43681693D01*
X36027816Y-43704897D01*
X36031326Y-43728558D01*
X36032500Y-43752450D01*
X36032500Y-44664950D01*
X36031326Y-44688842D01*
X36027816Y-44712503D01*
X36022004Y-44735707D01*
X36013946Y-44758229D01*
X36003718Y-44779853D01*
X35991421Y-44800370D01*
X35977171Y-44819583D01*
X35961107Y-44837307D01*
X35943383Y-44853371D01*
X35924170Y-44867621D01*
X35903653Y-44879918D01*
X35882029Y-44890146D01*
X35859507Y-44898204D01*
X35836303Y-44904016D01*
X35812642Y-44907526D01*
X35788750Y-44908700D01*
X35301250Y-44908700D01*
X35277358Y-44907526D01*
X35253697Y-44904016D01*
X35230493Y-44898204D01*
X35207971Y-44890146D01*
X35186347Y-44879918D01*
X35165830Y-44867621D01*
X35146617Y-44853371D01*
X35128893Y-44837307D01*
X35112829Y-44819583D01*
X35098579Y-44800370D01*
X35086282Y-44779853D01*
X35076054Y-44758229D01*
X35067996Y-44735707D01*
X35062184Y-44712503D01*
X35058674Y-44688842D01*
X35057500Y-44664950D01*
X35057500Y-43752450D01*
X35058674Y-43728558D01*
X35062184Y-43704897D01*
X35067996Y-43681693D01*
X35076054Y-43659171D01*
X35086282Y-43637547D01*
X35098579Y-43617030D01*
X35112829Y-43597817D01*
X35128893Y-43580093D01*
X35146617Y-43564029D01*
X35165830Y-43549779D01*
X35186347Y-43537482D01*
X35207971Y-43527254D01*
X35230493Y-43519196D01*
X35253697Y-43513384D01*
X35277358Y-43509874D01*
X35301250Y-43508700D01*
X35788750Y-43508700D01*
X35812642Y-43509874D01*
G37*
G36*
X33937642Y-43509874D02*
G01*
X33961303Y-43513384D01*
X33984507Y-43519196D01*
X34007029Y-43527254D01*
X34028653Y-43537482D01*
X34049170Y-43549779D01*
X34068383Y-43564029D01*
X34086107Y-43580093D01*
X34102171Y-43597817D01*
X34116421Y-43617030D01*
X34128718Y-43637547D01*
X34138946Y-43659171D01*
X34147004Y-43681693D01*
X34152816Y-43704897D01*
X34156326Y-43728558D01*
X34157500Y-43752450D01*
X34157500Y-44664950D01*
X34156326Y-44688842D01*
X34152816Y-44712503D01*
X34147004Y-44735707D01*
X34138946Y-44758229D01*
X34128718Y-44779853D01*
X34116421Y-44800370D01*
X34102171Y-44819583D01*
X34086107Y-44837307D01*
X34068383Y-44853371D01*
X34049170Y-44867621D01*
X34028653Y-44879918D01*
X34007029Y-44890146D01*
X33984507Y-44898204D01*
X33961303Y-44904016D01*
X33937642Y-44907526D01*
X33913750Y-44908700D01*
X33426250Y-44908700D01*
X33402358Y-44907526D01*
X33378697Y-44904016D01*
X33355493Y-44898204D01*
X33332971Y-44890146D01*
X33311347Y-44879918D01*
X33290830Y-44867621D01*
X33271617Y-44853371D01*
X33253893Y-44837307D01*
X33237829Y-44819583D01*
X33223579Y-44800370D01*
X33211282Y-44779853D01*
X33201054Y-44758229D01*
X33192996Y-44735707D01*
X33187184Y-44712503D01*
X33183674Y-44688842D01*
X33182500Y-44664950D01*
X33182500Y-43752450D01*
X33183674Y-43728558D01*
X33187184Y-43704897D01*
X33192996Y-43681693D01*
X33201054Y-43659171D01*
X33211282Y-43637547D01*
X33223579Y-43617030D01*
X33237829Y-43597817D01*
X33253893Y-43580093D01*
X33271617Y-43564029D01*
X33290830Y-43549779D01*
X33311347Y-43537482D01*
X33332971Y-43527254D01*
X33355493Y-43519196D01*
X33378697Y-43513384D01*
X33402358Y-43509874D01*
X33426250Y-43508700D01*
X33913750Y-43508700D01*
X33937642Y-43509874D01*
G37*
G36*
X49825342Y-42176374D02*
G01*
X49849003Y-42179884D01*
X49872207Y-42185696D01*
X49894729Y-42193754D01*
X49916353Y-42203982D01*
X49936870Y-42216279D01*
X49956083Y-42230529D01*
X49973807Y-42246593D01*
X49989871Y-42264317D01*
X50004121Y-42283530D01*
X50016418Y-42304047D01*
X50026646Y-42325671D01*
X50034704Y-42348193D01*
X50040516Y-42371397D01*
X50044026Y-42395058D01*
X50045200Y-42418950D01*
X50045200Y-43331450D01*
X50044026Y-43355342D01*
X50040516Y-43379003D01*
X50034704Y-43402207D01*
X50026646Y-43424729D01*
X50016418Y-43446353D01*
X50004121Y-43466870D01*
X49989871Y-43486083D01*
X49973807Y-43503807D01*
X49956083Y-43519871D01*
X49936870Y-43534121D01*
X49916353Y-43546418D01*
X49894729Y-43556646D01*
X49872207Y-43564704D01*
X49849003Y-43570516D01*
X49825342Y-43574026D01*
X49801450Y-43575200D01*
X49313950Y-43575200D01*
X49290058Y-43574026D01*
X49266397Y-43570516D01*
X49243193Y-43564704D01*
X49220671Y-43556646D01*
X49199047Y-43546418D01*
X49178530Y-43534121D01*
X49159317Y-43519871D01*
X49141593Y-43503807D01*
X49125529Y-43486083D01*
X49111279Y-43466870D01*
X49098982Y-43446353D01*
X49088754Y-43424729D01*
X49080696Y-43402207D01*
X49074884Y-43379003D01*
X49071374Y-43355342D01*
X49070200Y-43331450D01*
X49070200Y-42418950D01*
X49071374Y-42395058D01*
X49074884Y-42371397D01*
X49080696Y-42348193D01*
X49088754Y-42325671D01*
X49098982Y-42304047D01*
X49111279Y-42283530D01*
X49125529Y-42264317D01*
X49141593Y-42246593D01*
X49159317Y-42230529D01*
X49178530Y-42216279D01*
X49199047Y-42203982D01*
X49220671Y-42193754D01*
X49243193Y-42185696D01*
X49266397Y-42179884D01*
X49290058Y-42176374D01*
X49313950Y-42175200D01*
X49801450Y-42175200D01*
X49825342Y-42176374D01*
G37*
G36*
X51700342Y-42176374D02*
G01*
X51724003Y-42179884D01*
X51747207Y-42185696D01*
X51769729Y-42193754D01*
X51791353Y-42203982D01*
X51811870Y-42216279D01*
X51831083Y-42230529D01*
X51848807Y-42246593D01*
X51864871Y-42264317D01*
X51879121Y-42283530D01*
X51891418Y-42304047D01*
X51901646Y-42325671D01*
X51909704Y-42348193D01*
X51915516Y-42371397D01*
X51919026Y-42395058D01*
X51920200Y-42418950D01*
X51920200Y-43331450D01*
X51919026Y-43355342D01*
X51915516Y-43379003D01*
X51909704Y-43402207D01*
X51901646Y-43424729D01*
X51891418Y-43446353D01*
X51879121Y-43466870D01*
X51864871Y-43486083D01*
X51848807Y-43503807D01*
X51831083Y-43519871D01*
X51811870Y-43534121D01*
X51791353Y-43546418D01*
X51769729Y-43556646D01*
X51747207Y-43564704D01*
X51724003Y-43570516D01*
X51700342Y-43574026D01*
X51676450Y-43575200D01*
X51188950Y-43575200D01*
X51165058Y-43574026D01*
X51141397Y-43570516D01*
X51118193Y-43564704D01*
X51095671Y-43556646D01*
X51074047Y-43546418D01*
X51053530Y-43534121D01*
X51034317Y-43519871D01*
X51016593Y-43503807D01*
X51000529Y-43486083D01*
X50986279Y-43466870D01*
X50973982Y-43446353D01*
X50963754Y-43424729D01*
X50955696Y-43402207D01*
X50949884Y-43379003D01*
X50946374Y-43355342D01*
X50945200Y-43331450D01*
X50945200Y-42418950D01*
X50946374Y-42395058D01*
X50949884Y-42371397D01*
X50955696Y-42348193D01*
X50963754Y-42325671D01*
X50973982Y-42304047D01*
X50986279Y-42283530D01*
X51000529Y-42264317D01*
X51016593Y-42246593D01*
X51034317Y-42230529D01*
X51053530Y-42216279D01*
X51074047Y-42203982D01*
X51095671Y-42193754D01*
X51118193Y-42185696D01*
X51141397Y-42179884D01*
X51165058Y-42176374D01*
X51188950Y-42175200D01*
X51676450Y-42175200D01*
X51700342Y-42176374D01*
G37*
G36*
X49825342Y-38010774D02*
G01*
X49849003Y-38014284D01*
X49872207Y-38020096D01*
X49894729Y-38028154D01*
X49916353Y-38038382D01*
X49936870Y-38050679D01*
X49956083Y-38064929D01*
X49973807Y-38080993D01*
X49989871Y-38098717D01*
X50004121Y-38117930D01*
X50016418Y-38138447D01*
X50026646Y-38160071D01*
X50034704Y-38182593D01*
X50040516Y-38205797D01*
X50044026Y-38229458D01*
X50045200Y-38253350D01*
X50045200Y-39165850D01*
X50044026Y-39189742D01*
X50040516Y-39213403D01*
X50034704Y-39236607D01*
X50026646Y-39259129D01*
X50016418Y-39280753D01*
X50004121Y-39301270D01*
X49989871Y-39320483D01*
X49973807Y-39338207D01*
X49956083Y-39354271D01*
X49936870Y-39368521D01*
X49916353Y-39380818D01*
X49894729Y-39391046D01*
X49872207Y-39399104D01*
X49849003Y-39404916D01*
X49825342Y-39408426D01*
X49801450Y-39409600D01*
X49313950Y-39409600D01*
X49290058Y-39408426D01*
X49266397Y-39404916D01*
X49243193Y-39399104D01*
X49220671Y-39391046D01*
X49199047Y-39380818D01*
X49178530Y-39368521D01*
X49159317Y-39354271D01*
X49141593Y-39338207D01*
X49125529Y-39320483D01*
X49111279Y-39301270D01*
X49098982Y-39280753D01*
X49088754Y-39259129D01*
X49080696Y-39236607D01*
X49074884Y-39213403D01*
X49071374Y-39189742D01*
X49070200Y-39165850D01*
X49070200Y-38253350D01*
X49071374Y-38229458D01*
X49074884Y-38205797D01*
X49080696Y-38182593D01*
X49088754Y-38160071D01*
X49098982Y-38138447D01*
X49111279Y-38117930D01*
X49125529Y-38098717D01*
X49141593Y-38080993D01*
X49159317Y-38064929D01*
X49178530Y-38050679D01*
X49199047Y-38038382D01*
X49220671Y-38028154D01*
X49243193Y-38020096D01*
X49266397Y-38014284D01*
X49290058Y-38010774D01*
X49313950Y-38009600D01*
X49801450Y-38009600D01*
X49825342Y-38010774D01*
G37*
G36*
X51700342Y-38010774D02*
G01*
X51724003Y-38014284D01*
X51747207Y-38020096D01*
X51769729Y-38028154D01*
X51791353Y-38038382D01*
X51811870Y-38050679D01*
X51831083Y-38064929D01*
X51848807Y-38080993D01*
X51864871Y-38098717D01*
X51879121Y-38117930D01*
X51891418Y-38138447D01*
X51901646Y-38160071D01*
X51909704Y-38182593D01*
X51915516Y-38205797D01*
X51919026Y-38229458D01*
X51920200Y-38253350D01*
X51920200Y-39165850D01*
X51919026Y-39189742D01*
X51915516Y-39213403D01*
X51909704Y-39236607D01*
X51901646Y-39259129D01*
X51891418Y-39280753D01*
X51879121Y-39301270D01*
X51864871Y-39320483D01*
X51848807Y-39338207D01*
X51831083Y-39354271D01*
X51811870Y-39368521D01*
X51791353Y-39380818D01*
X51769729Y-39391046D01*
X51747207Y-39399104D01*
X51724003Y-39404916D01*
X51700342Y-39408426D01*
X51676450Y-39409600D01*
X51188950Y-39409600D01*
X51165058Y-39408426D01*
X51141397Y-39404916D01*
X51118193Y-39399104D01*
X51095671Y-39391046D01*
X51074047Y-39380818D01*
X51053530Y-39368521D01*
X51034317Y-39354271D01*
X51016593Y-39338207D01*
X51000529Y-39320483D01*
X50986279Y-39301270D01*
X50973982Y-39280753D01*
X50963754Y-39259129D01*
X50955696Y-39236607D01*
X50949884Y-39213403D01*
X50946374Y-39189742D01*
X50945200Y-39165850D01*
X50945200Y-38253350D01*
X50946374Y-38229458D01*
X50949884Y-38205797D01*
X50955696Y-38182593D01*
X50963754Y-38160071D01*
X50973982Y-38138447D01*
X50986279Y-38117930D01*
X51000529Y-38098717D01*
X51016593Y-38080993D01*
X51034317Y-38064929D01*
X51053530Y-38050679D01*
X51074047Y-38038382D01*
X51095671Y-38028154D01*
X51118193Y-38020096D01*
X51141397Y-38014284D01*
X51165058Y-38010774D01*
X51188950Y-38009600D01*
X51676450Y-38009600D01*
X51700342Y-38010774D01*
G37*
D11*
X34236900Y-42248000D03*
X35536900Y-42248000D03*
X34886900Y-40048000D03*
X34886900Y-42248000D03*
X35536900Y-40048000D03*
X34236900Y-40048000D03*
D12*
X55204000Y-41061600D03*
X55204000Y-42011600D03*
X55204000Y-42961600D03*
X57404000Y-42961600D03*
X57404000Y-41061600D03*
D10*
G36*
X32170904Y-39505204D02*
G01*
X32195173Y-39508804D01*
X32218971Y-39514765D01*
X32242071Y-39523030D01*
X32264249Y-39533520D01*
X32285293Y-39546133D01*
X32304998Y-39560747D01*
X32323177Y-39577223D01*
X32339653Y-39595402D01*
X32354267Y-39615107D01*
X32366880Y-39636151D01*
X32377370Y-39658329D01*
X32385635Y-39681429D01*
X32391596Y-39705227D01*
X32395196Y-39729496D01*
X32396400Y-39754000D01*
X32396400Y-40504000D01*
X32395196Y-40528504D01*
X32391596Y-40552773D01*
X32385635Y-40576571D01*
X32377370Y-40599671D01*
X32366880Y-40621849D01*
X32354267Y-40642893D01*
X32339653Y-40662598D01*
X32323177Y-40680777D01*
X32304998Y-40697253D01*
X32285293Y-40711867D01*
X32264249Y-40724480D01*
X32242071Y-40734970D01*
X32218971Y-40743235D01*
X32195173Y-40749196D01*
X32170904Y-40752796D01*
X32146400Y-40754000D01*
X30896400Y-40754000D01*
X30871896Y-40752796D01*
X30847627Y-40749196D01*
X30823829Y-40743235D01*
X30800729Y-40734970D01*
X30778551Y-40724480D01*
X30757507Y-40711867D01*
X30737802Y-40697253D01*
X30719623Y-40680777D01*
X30703147Y-40662598D01*
X30688533Y-40642893D01*
X30675920Y-40621849D01*
X30665430Y-40599671D01*
X30657165Y-40576571D01*
X30651204Y-40552773D01*
X30647604Y-40528504D01*
X30646400Y-40504000D01*
X30646400Y-39754000D01*
X30647604Y-39729496D01*
X30651204Y-39705227D01*
X30657165Y-39681429D01*
X30665430Y-39658329D01*
X30675920Y-39636151D01*
X30688533Y-39615107D01*
X30703147Y-39595402D01*
X30719623Y-39577223D01*
X30737802Y-39560747D01*
X30757507Y-39546133D01*
X30778551Y-39533520D01*
X30800729Y-39523030D01*
X30823829Y-39514765D01*
X30847627Y-39508804D01*
X30871896Y-39505204D01*
X30896400Y-39504000D01*
X32146400Y-39504000D01*
X32170904Y-39505204D01*
G37*
G36*
X32170904Y-42305204D02*
G01*
X32195173Y-42308804D01*
X32218971Y-42314765D01*
X32242071Y-42323030D01*
X32264249Y-42333520D01*
X32285293Y-42346133D01*
X32304998Y-42360747D01*
X32323177Y-42377223D01*
X32339653Y-42395402D01*
X32354267Y-42415107D01*
X32366880Y-42436151D01*
X32377370Y-42458329D01*
X32385635Y-42481429D01*
X32391596Y-42505227D01*
X32395196Y-42529496D01*
X32396400Y-42554000D01*
X32396400Y-43304000D01*
X32395196Y-43328504D01*
X32391596Y-43352773D01*
X32385635Y-43376571D01*
X32377370Y-43399671D01*
X32366880Y-43421849D01*
X32354267Y-43442893D01*
X32339653Y-43462598D01*
X32323177Y-43480777D01*
X32304998Y-43497253D01*
X32285293Y-43511867D01*
X32264249Y-43524480D01*
X32242071Y-43534970D01*
X32218971Y-43543235D01*
X32195173Y-43549196D01*
X32170904Y-43552796D01*
X32146400Y-43554000D01*
X30896400Y-43554000D01*
X30871896Y-43552796D01*
X30847627Y-43549196D01*
X30823829Y-43543235D01*
X30800729Y-43534970D01*
X30778551Y-43524480D01*
X30757507Y-43511867D01*
X30737802Y-43497253D01*
X30719623Y-43480777D01*
X30703147Y-43462598D01*
X30688533Y-43442893D01*
X30675920Y-43421849D01*
X30665430Y-43399671D01*
X30657165Y-43376571D01*
X30651204Y-43352773D01*
X30647604Y-43328504D01*
X30646400Y-43304000D01*
X30646400Y-42554000D01*
X30647604Y-42529496D01*
X30651204Y-42505227D01*
X30657165Y-42481429D01*
X30665430Y-42458329D01*
X30675920Y-42436151D01*
X30688533Y-42415107D01*
X30703147Y-42395402D01*
X30719623Y-42377223D01*
X30737802Y-42360747D01*
X30757507Y-42346133D01*
X30778551Y-42333520D01*
X30800729Y-42323030D01*
X30823829Y-42314765D01*
X30847627Y-42308804D01*
X30871896Y-42305204D01*
X30896400Y-42304000D01*
X32146400Y-42304000D01*
X32170904Y-42305204D01*
G37*
G36*
X29884904Y-42305204D02*
G01*
X29909173Y-42308804D01*
X29932971Y-42314765D01*
X29956071Y-42323030D01*
X29978249Y-42333520D01*
X29999293Y-42346133D01*
X30018998Y-42360747D01*
X30037177Y-42377223D01*
X30053653Y-42395402D01*
X30068267Y-42415107D01*
X30080880Y-42436151D01*
X30091370Y-42458329D01*
X30099635Y-42481429D01*
X30105596Y-42505227D01*
X30109196Y-42529496D01*
X30110400Y-42554000D01*
X30110400Y-43304000D01*
X30109196Y-43328504D01*
X30105596Y-43352773D01*
X30099635Y-43376571D01*
X30091370Y-43399671D01*
X30080880Y-43421849D01*
X30068267Y-43442893D01*
X30053653Y-43462598D01*
X30037177Y-43480777D01*
X30018998Y-43497253D01*
X29999293Y-43511867D01*
X29978249Y-43524480D01*
X29956071Y-43534970D01*
X29932971Y-43543235D01*
X29909173Y-43549196D01*
X29884904Y-43552796D01*
X29860400Y-43554000D01*
X28610400Y-43554000D01*
X28585896Y-43552796D01*
X28561627Y-43549196D01*
X28537829Y-43543235D01*
X28514729Y-43534970D01*
X28492551Y-43524480D01*
X28471507Y-43511867D01*
X28451802Y-43497253D01*
X28433623Y-43480777D01*
X28417147Y-43462598D01*
X28402533Y-43442893D01*
X28389920Y-43421849D01*
X28379430Y-43399671D01*
X28371165Y-43376571D01*
X28365204Y-43352773D01*
X28361604Y-43328504D01*
X28360400Y-43304000D01*
X28360400Y-42554000D01*
X28361604Y-42529496D01*
X28365204Y-42505227D01*
X28371165Y-42481429D01*
X28379430Y-42458329D01*
X28389920Y-42436151D01*
X28402533Y-42415107D01*
X28417147Y-42395402D01*
X28433623Y-42377223D01*
X28451802Y-42360747D01*
X28471507Y-42346133D01*
X28492551Y-42333520D01*
X28514729Y-42323030D01*
X28537829Y-42314765D01*
X28561627Y-42308804D01*
X28585896Y-42305204D01*
X28610400Y-42304000D01*
X29860400Y-42304000D01*
X29884904Y-42305204D01*
G37*
G36*
X29884904Y-39505204D02*
G01*
X29909173Y-39508804D01*
X29932971Y-39514765D01*
X29956071Y-39523030D01*
X29978249Y-39533520D01*
X29999293Y-39546133D01*
X30018998Y-39560747D01*
X30037177Y-39577223D01*
X30053653Y-39595402D01*
X30068267Y-39615107D01*
X30080880Y-39636151D01*
X30091370Y-39658329D01*
X30099635Y-39681429D01*
X30105596Y-39705227D01*
X30109196Y-39729496D01*
X30110400Y-39754000D01*
X30110400Y-40504000D01*
X30109196Y-40528504D01*
X30105596Y-40552773D01*
X30099635Y-40576571D01*
X30091370Y-40599671D01*
X30080880Y-40621849D01*
X30068267Y-40642893D01*
X30053653Y-40662598D01*
X30037177Y-40680777D01*
X30018998Y-40697253D01*
X29999293Y-40711867D01*
X29978249Y-40724480D01*
X29956071Y-40734970D01*
X29932971Y-40743235D01*
X29909173Y-40749196D01*
X29884904Y-40752796D01*
X29860400Y-40754000D01*
X28610400Y-40754000D01*
X28585896Y-40752796D01*
X28561627Y-40749196D01*
X28537829Y-40743235D01*
X28514729Y-40734970D01*
X28492551Y-40724480D01*
X28471507Y-40711867D01*
X28451802Y-40697253D01*
X28433623Y-40680777D01*
X28417147Y-40662598D01*
X28402533Y-40642893D01*
X28389920Y-40621849D01*
X28379430Y-40599671D01*
X28371165Y-40576571D01*
X28365204Y-40552773D01*
X28361604Y-40528504D01*
X28360400Y-40504000D01*
X28360400Y-39754000D01*
X28361604Y-39729496D01*
X28365204Y-39705227D01*
X28371165Y-39681429D01*
X28379430Y-39658329D01*
X28389920Y-39636151D01*
X28402533Y-39615107D01*
X28417147Y-39595402D01*
X28433623Y-39577223D01*
X28451802Y-39560747D01*
X28471507Y-39546133D01*
X28492551Y-39533520D01*
X28514729Y-39523030D01*
X28537829Y-39514765D01*
X28561627Y-39508804D01*
X28585896Y-39505204D01*
X28610400Y-39504000D01*
X29860400Y-39504000D01*
X29884904Y-39505204D01*
G37*
G36*
X38711404Y-39352804D02*
G01*
X38735673Y-39356404D01*
X38759471Y-39362365D01*
X38782571Y-39370630D01*
X38804749Y-39381120D01*
X38825793Y-39393733D01*
X38845498Y-39408347D01*
X38863677Y-39424823D01*
X38880153Y-39443002D01*
X38894767Y-39462707D01*
X38907380Y-39483751D01*
X38917870Y-39505929D01*
X38926135Y-39529029D01*
X38932096Y-39552827D01*
X38935696Y-39577096D01*
X38936900Y-39601600D01*
X38936900Y-40351600D01*
X38935696Y-40376104D01*
X38932096Y-40400373D01*
X38926135Y-40424171D01*
X38917870Y-40447271D01*
X38907380Y-40469449D01*
X38894767Y-40490493D01*
X38880153Y-40510198D01*
X38863677Y-40528377D01*
X38845498Y-40544853D01*
X38825793Y-40559467D01*
X38804749Y-40572080D01*
X38782571Y-40582570D01*
X38759471Y-40590835D01*
X38735673Y-40596796D01*
X38711404Y-40600396D01*
X38686900Y-40601600D01*
X37436900Y-40601600D01*
X37412396Y-40600396D01*
X37388127Y-40596796D01*
X37364329Y-40590835D01*
X37341229Y-40582570D01*
X37319051Y-40572080D01*
X37298007Y-40559467D01*
X37278302Y-40544853D01*
X37260123Y-40528377D01*
X37243647Y-40510198D01*
X37229033Y-40490493D01*
X37216420Y-40469449D01*
X37205930Y-40447271D01*
X37197665Y-40424171D01*
X37191704Y-40400373D01*
X37188104Y-40376104D01*
X37186900Y-40351600D01*
X37186900Y-39601600D01*
X37188104Y-39577096D01*
X37191704Y-39552827D01*
X37197665Y-39529029D01*
X37205930Y-39505929D01*
X37216420Y-39483751D01*
X37229033Y-39462707D01*
X37243647Y-39443002D01*
X37260123Y-39424823D01*
X37278302Y-39408347D01*
X37298007Y-39393733D01*
X37319051Y-39381120D01*
X37341229Y-39370630D01*
X37364329Y-39362365D01*
X37388127Y-39356404D01*
X37412396Y-39352804D01*
X37436900Y-39351600D01*
X38686900Y-39351600D01*
X38711404Y-39352804D01*
G37*
G36*
X38711404Y-42152804D02*
G01*
X38735673Y-42156404D01*
X38759471Y-42162365D01*
X38782571Y-42170630D01*
X38804749Y-42181120D01*
X38825793Y-42193733D01*
X38845498Y-42208347D01*
X38863677Y-42224823D01*
X38880153Y-42243002D01*
X38894767Y-42262707D01*
X38907380Y-42283751D01*
X38917870Y-42305929D01*
X38926135Y-42329029D01*
X38932096Y-42352827D01*
X38935696Y-42377096D01*
X38936900Y-42401600D01*
X38936900Y-43151600D01*
X38935696Y-43176104D01*
X38932096Y-43200373D01*
X38926135Y-43224171D01*
X38917870Y-43247271D01*
X38907380Y-43269449D01*
X38894767Y-43290493D01*
X38880153Y-43310198D01*
X38863677Y-43328377D01*
X38845498Y-43344853D01*
X38825793Y-43359467D01*
X38804749Y-43372080D01*
X38782571Y-43382570D01*
X38759471Y-43390835D01*
X38735673Y-43396796D01*
X38711404Y-43400396D01*
X38686900Y-43401600D01*
X37436900Y-43401600D01*
X37412396Y-43400396D01*
X37388127Y-43396796D01*
X37364329Y-43390835D01*
X37341229Y-43382570D01*
X37319051Y-43372080D01*
X37298007Y-43359467D01*
X37278302Y-43344853D01*
X37260123Y-43328377D01*
X37243647Y-43310198D01*
X37229033Y-43290493D01*
X37216420Y-43269449D01*
X37205930Y-43247271D01*
X37197665Y-43224171D01*
X37191704Y-43200373D01*
X37188104Y-43176104D01*
X37186900Y-43151600D01*
X37186900Y-42401600D01*
X37188104Y-42377096D01*
X37191704Y-42352827D01*
X37197665Y-42329029D01*
X37205930Y-42305929D01*
X37216420Y-42283751D01*
X37229033Y-42262707D01*
X37243647Y-42243002D01*
X37260123Y-42224823D01*
X37278302Y-42208347D01*
X37298007Y-42193733D01*
X37319051Y-42181120D01*
X37341229Y-42170630D01*
X37364329Y-42162365D01*
X37388127Y-42156404D01*
X37412396Y-42152804D01*
X37436900Y-42151600D01*
X38686900Y-42151600D01*
X38711404Y-42152804D01*
G37*
G36*
X40997404Y-42152804D02*
G01*
X41021673Y-42156404D01*
X41045471Y-42162365D01*
X41068571Y-42170630D01*
X41090749Y-42181120D01*
X41111793Y-42193733D01*
X41131498Y-42208347D01*
X41149677Y-42224823D01*
X41166153Y-42243002D01*
X41180767Y-42262707D01*
X41193380Y-42283751D01*
X41203870Y-42305929D01*
X41212135Y-42329029D01*
X41218096Y-42352827D01*
X41221696Y-42377096D01*
X41222900Y-42401600D01*
X41222900Y-43151600D01*
X41221696Y-43176104D01*
X41218096Y-43200373D01*
X41212135Y-43224171D01*
X41203870Y-43247271D01*
X41193380Y-43269449D01*
X41180767Y-43290493D01*
X41166153Y-43310198D01*
X41149677Y-43328377D01*
X41131498Y-43344853D01*
X41111793Y-43359467D01*
X41090749Y-43372080D01*
X41068571Y-43382570D01*
X41045471Y-43390835D01*
X41021673Y-43396796D01*
X40997404Y-43400396D01*
X40972900Y-43401600D01*
X39722900Y-43401600D01*
X39698396Y-43400396D01*
X39674127Y-43396796D01*
X39650329Y-43390835D01*
X39627229Y-43382570D01*
X39605051Y-43372080D01*
X39584007Y-43359467D01*
X39564302Y-43344853D01*
X39546123Y-43328377D01*
X39529647Y-43310198D01*
X39515033Y-43290493D01*
X39502420Y-43269449D01*
X39491930Y-43247271D01*
X39483665Y-43224171D01*
X39477704Y-43200373D01*
X39474104Y-43176104D01*
X39472900Y-43151600D01*
X39472900Y-42401600D01*
X39474104Y-42377096D01*
X39477704Y-42352827D01*
X39483665Y-42329029D01*
X39491930Y-42305929D01*
X39502420Y-42283751D01*
X39515033Y-42262707D01*
X39529647Y-42243002D01*
X39546123Y-42224823D01*
X39564302Y-42208347D01*
X39584007Y-42193733D01*
X39605051Y-42181120D01*
X39627229Y-42170630D01*
X39650329Y-42162365D01*
X39674127Y-42156404D01*
X39698396Y-42152804D01*
X39722900Y-42151600D01*
X40972900Y-42151600D01*
X40997404Y-42152804D01*
G37*
G36*
X40997404Y-39352804D02*
G01*
X41021673Y-39356404D01*
X41045471Y-39362365D01*
X41068571Y-39370630D01*
X41090749Y-39381120D01*
X41111793Y-39393733D01*
X41131498Y-39408347D01*
X41149677Y-39424823D01*
X41166153Y-39443002D01*
X41180767Y-39462707D01*
X41193380Y-39483751D01*
X41203870Y-39505929D01*
X41212135Y-39529029D01*
X41218096Y-39552827D01*
X41221696Y-39577096D01*
X41222900Y-39601600D01*
X41222900Y-40351600D01*
X41221696Y-40376104D01*
X41218096Y-40400373D01*
X41212135Y-40424171D01*
X41203870Y-40447271D01*
X41193380Y-40469449D01*
X41180767Y-40490493D01*
X41166153Y-40510198D01*
X41149677Y-40528377D01*
X41131498Y-40544853D01*
X41111793Y-40559467D01*
X41090749Y-40572080D01*
X41068571Y-40582570D01*
X41045471Y-40590835D01*
X41021673Y-40596796D01*
X40997404Y-40600396D01*
X40972900Y-40601600D01*
X39722900Y-40601600D01*
X39698396Y-40600396D01*
X39674127Y-40596796D01*
X39650329Y-40590835D01*
X39627229Y-40582570D01*
X39605051Y-40572080D01*
X39584007Y-40559467D01*
X39564302Y-40544853D01*
X39546123Y-40528377D01*
X39529647Y-40510198D01*
X39515033Y-40490493D01*
X39502420Y-40469449D01*
X39491930Y-40447271D01*
X39483665Y-40424171D01*
X39477704Y-40400373D01*
X39474104Y-40376104D01*
X39472900Y-40351600D01*
X39472900Y-39601600D01*
X39474104Y-39577096D01*
X39477704Y-39552827D01*
X39483665Y-39529029D01*
X39491930Y-39505929D01*
X39502420Y-39483751D01*
X39515033Y-39462707D01*
X39529647Y-39443002D01*
X39546123Y-39424823D01*
X39564302Y-39408347D01*
X39584007Y-39393733D01*
X39605051Y-39381120D01*
X39627229Y-39370630D01*
X39650329Y-39362365D01*
X39674127Y-39356404D01*
X39698396Y-39352804D01*
X39722900Y-39351600D01*
X40972900Y-39351600D01*
X40997404Y-39352804D01*
G37*
G36*
X65419504Y-46642604D02*
G01*
X65443773Y-46646204D01*
X65467571Y-46652165D01*
X65490671Y-46660430D01*
X65512849Y-46670920D01*
X65533893Y-46683533D01*
X65553598Y-46698147D01*
X65571777Y-46714623D01*
X65588253Y-46732802D01*
X65602867Y-46752507D01*
X65615480Y-46773551D01*
X65625970Y-46795729D01*
X65634235Y-46818829D01*
X65640196Y-46842627D01*
X65643796Y-46866896D01*
X65645000Y-46891400D01*
X65645000Y-47641400D01*
X65643796Y-47665904D01*
X65640196Y-47690173D01*
X65634235Y-47713971D01*
X65625970Y-47737071D01*
X65615480Y-47759249D01*
X65602867Y-47780293D01*
X65588253Y-47799998D01*
X65571777Y-47818177D01*
X65553598Y-47834653D01*
X65533893Y-47849267D01*
X65512849Y-47861880D01*
X65490671Y-47872370D01*
X65467571Y-47880635D01*
X65443773Y-47886596D01*
X65419504Y-47890196D01*
X65395000Y-47891400D01*
X64145000Y-47891400D01*
X64120496Y-47890196D01*
X64096227Y-47886596D01*
X64072429Y-47880635D01*
X64049329Y-47872370D01*
X64027151Y-47861880D01*
X64006107Y-47849267D01*
X63986402Y-47834653D01*
X63968223Y-47818177D01*
X63951747Y-47799998D01*
X63937133Y-47780293D01*
X63924520Y-47759249D01*
X63914030Y-47737071D01*
X63905765Y-47713971D01*
X63899804Y-47690173D01*
X63896204Y-47665904D01*
X63895000Y-47641400D01*
X63895000Y-46891400D01*
X63896204Y-46866896D01*
X63899804Y-46842627D01*
X63905765Y-46818829D01*
X63914030Y-46795729D01*
X63924520Y-46773551D01*
X63937133Y-46752507D01*
X63951747Y-46732802D01*
X63968223Y-46714623D01*
X63986402Y-46698147D01*
X64006107Y-46683533D01*
X64027151Y-46670920D01*
X64049329Y-46660430D01*
X64072429Y-46652165D01*
X64096227Y-46646204D01*
X64120496Y-46642604D01*
X64145000Y-46641400D01*
X65395000Y-46641400D01*
X65419504Y-46642604D01*
G37*
G36*
X65419504Y-49442604D02*
G01*
X65443773Y-49446204D01*
X65467571Y-49452165D01*
X65490671Y-49460430D01*
X65512849Y-49470920D01*
X65533893Y-49483533D01*
X65553598Y-49498147D01*
X65571777Y-49514623D01*
X65588253Y-49532802D01*
X65602867Y-49552507D01*
X65615480Y-49573551D01*
X65625970Y-49595729D01*
X65634235Y-49618829D01*
X65640196Y-49642627D01*
X65643796Y-49666896D01*
X65645000Y-49691400D01*
X65645000Y-50441400D01*
X65643796Y-50465904D01*
X65640196Y-50490173D01*
X65634235Y-50513971D01*
X65625970Y-50537071D01*
X65615480Y-50559249D01*
X65602867Y-50580293D01*
X65588253Y-50599998D01*
X65571777Y-50618177D01*
X65553598Y-50634653D01*
X65533893Y-50649267D01*
X65512849Y-50661880D01*
X65490671Y-50672370D01*
X65467571Y-50680635D01*
X65443773Y-50686596D01*
X65419504Y-50690196D01*
X65395000Y-50691400D01*
X64145000Y-50691400D01*
X64120496Y-50690196D01*
X64096227Y-50686596D01*
X64072429Y-50680635D01*
X64049329Y-50672370D01*
X64027151Y-50661880D01*
X64006107Y-50649267D01*
X63986402Y-50634653D01*
X63968223Y-50618177D01*
X63951747Y-50599998D01*
X63937133Y-50580293D01*
X63924520Y-50559249D01*
X63914030Y-50537071D01*
X63905765Y-50513971D01*
X63899804Y-50490173D01*
X63896204Y-50465904D01*
X63895000Y-50441400D01*
X63895000Y-49691400D01*
X63896204Y-49666896D01*
X63899804Y-49642627D01*
X63905765Y-49618829D01*
X63914030Y-49595729D01*
X63924520Y-49573551D01*
X63937133Y-49552507D01*
X63951747Y-49532802D01*
X63968223Y-49514623D01*
X63986402Y-49498147D01*
X64006107Y-49483533D01*
X64027151Y-49470920D01*
X64049329Y-49460430D01*
X64072429Y-49452165D01*
X64096227Y-49446204D01*
X64120496Y-49442604D01*
X64145000Y-49441400D01*
X65395000Y-49441400D01*
X65419504Y-49442604D01*
G37*
G36*
X58238304Y-37988204D02*
G01*
X58262573Y-37991804D01*
X58286371Y-37997765D01*
X58309471Y-38006030D01*
X58331649Y-38016520D01*
X58352693Y-38029133D01*
X58372398Y-38043747D01*
X58390577Y-38060223D01*
X58407053Y-38078402D01*
X58421667Y-38098107D01*
X58434280Y-38119151D01*
X58444770Y-38141329D01*
X58453035Y-38164429D01*
X58458996Y-38188227D01*
X58462596Y-38212496D01*
X58463800Y-38237000D01*
X58463800Y-39487000D01*
X58462596Y-39511504D01*
X58458996Y-39535773D01*
X58453035Y-39559571D01*
X58444770Y-39582671D01*
X58434280Y-39604849D01*
X58421667Y-39625893D01*
X58407053Y-39645598D01*
X58390577Y-39663777D01*
X58372398Y-39680253D01*
X58352693Y-39694867D01*
X58331649Y-39707480D01*
X58309471Y-39717970D01*
X58286371Y-39726235D01*
X58262573Y-39732196D01*
X58238304Y-39735796D01*
X58213800Y-39737000D01*
X57463800Y-39737000D01*
X57439296Y-39735796D01*
X57415027Y-39732196D01*
X57391229Y-39726235D01*
X57368129Y-39717970D01*
X57345951Y-39707480D01*
X57324907Y-39694867D01*
X57305202Y-39680253D01*
X57287023Y-39663777D01*
X57270547Y-39645598D01*
X57255933Y-39625893D01*
X57243320Y-39604849D01*
X57232830Y-39582671D01*
X57224565Y-39559571D01*
X57218604Y-39535773D01*
X57215004Y-39511504D01*
X57213800Y-39487000D01*
X57213800Y-38237000D01*
X57215004Y-38212496D01*
X57218604Y-38188227D01*
X57224565Y-38164429D01*
X57232830Y-38141329D01*
X57243320Y-38119151D01*
X57255933Y-38098107D01*
X57270547Y-38078402D01*
X57287023Y-38060223D01*
X57305202Y-38043747D01*
X57324907Y-38029133D01*
X57345951Y-38016520D01*
X57368129Y-38006030D01*
X57391229Y-37997765D01*
X57415027Y-37991804D01*
X57439296Y-37988204D01*
X57463800Y-37987000D01*
X58213800Y-37987000D01*
X58238304Y-37988204D01*
G37*
G36*
X55438304Y-37988204D02*
G01*
X55462573Y-37991804D01*
X55486371Y-37997765D01*
X55509471Y-38006030D01*
X55531649Y-38016520D01*
X55552693Y-38029133D01*
X55572398Y-38043747D01*
X55590577Y-38060223D01*
X55607053Y-38078402D01*
X55621667Y-38098107D01*
X55634280Y-38119151D01*
X55644770Y-38141329D01*
X55653035Y-38164429D01*
X55658996Y-38188227D01*
X55662596Y-38212496D01*
X55663800Y-38237000D01*
X55663800Y-39487000D01*
X55662596Y-39511504D01*
X55658996Y-39535773D01*
X55653035Y-39559571D01*
X55644770Y-39582671D01*
X55634280Y-39604849D01*
X55621667Y-39625893D01*
X55607053Y-39645598D01*
X55590577Y-39663777D01*
X55572398Y-39680253D01*
X55552693Y-39694867D01*
X55531649Y-39707480D01*
X55509471Y-39717970D01*
X55486371Y-39726235D01*
X55462573Y-39732196D01*
X55438304Y-39735796D01*
X55413800Y-39737000D01*
X54663800Y-39737000D01*
X54639296Y-39735796D01*
X54615027Y-39732196D01*
X54591229Y-39726235D01*
X54568129Y-39717970D01*
X54545951Y-39707480D01*
X54524907Y-39694867D01*
X54505202Y-39680253D01*
X54487023Y-39663777D01*
X54470547Y-39645598D01*
X54455933Y-39625893D01*
X54443320Y-39604849D01*
X54432830Y-39582671D01*
X54424565Y-39559571D01*
X54418604Y-39535773D01*
X54415004Y-39511504D01*
X54413800Y-39487000D01*
X54413800Y-38237000D01*
X54415004Y-38212496D01*
X54418604Y-38188227D01*
X54424565Y-38164429D01*
X54432830Y-38141329D01*
X54443320Y-38119151D01*
X54455933Y-38098107D01*
X54470547Y-38078402D01*
X54487023Y-38060223D01*
X54505202Y-38043747D01*
X54524907Y-38029133D01*
X54545951Y-38016520D01*
X54568129Y-38006030D01*
X54591229Y-37997765D01*
X54615027Y-37991804D01*
X54639296Y-37988204D01*
X54663800Y-37987000D01*
X55413800Y-37987000D01*
X55438304Y-37988204D01*
G37*
G36*
X61761904Y-39378204D02*
G01*
X61786173Y-39381804D01*
X61809971Y-39387765D01*
X61833071Y-39396030D01*
X61855249Y-39406520D01*
X61876293Y-39419133D01*
X61895998Y-39433747D01*
X61914177Y-39450223D01*
X61930653Y-39468402D01*
X61945267Y-39488107D01*
X61957880Y-39509151D01*
X61968370Y-39531329D01*
X61976635Y-39554429D01*
X61982596Y-39578227D01*
X61986196Y-39602496D01*
X61987400Y-39627000D01*
X61987400Y-40377000D01*
X61986196Y-40401504D01*
X61982596Y-40425773D01*
X61976635Y-40449571D01*
X61968370Y-40472671D01*
X61957880Y-40494849D01*
X61945267Y-40515893D01*
X61930653Y-40535598D01*
X61914177Y-40553777D01*
X61895998Y-40570253D01*
X61876293Y-40584867D01*
X61855249Y-40597480D01*
X61833071Y-40607970D01*
X61809971Y-40616235D01*
X61786173Y-40622196D01*
X61761904Y-40625796D01*
X61737400Y-40627000D01*
X60487400Y-40627000D01*
X60462896Y-40625796D01*
X60438627Y-40622196D01*
X60414829Y-40616235D01*
X60391729Y-40607970D01*
X60369551Y-40597480D01*
X60348507Y-40584867D01*
X60328802Y-40570253D01*
X60310623Y-40553777D01*
X60294147Y-40535598D01*
X60279533Y-40515893D01*
X60266920Y-40494849D01*
X60256430Y-40472671D01*
X60248165Y-40449571D01*
X60242204Y-40425773D01*
X60238604Y-40401504D01*
X60237400Y-40377000D01*
X60237400Y-39627000D01*
X60238604Y-39602496D01*
X60242204Y-39578227D01*
X60248165Y-39554429D01*
X60256430Y-39531329D01*
X60266920Y-39509151D01*
X60279533Y-39488107D01*
X60294147Y-39468402D01*
X60310623Y-39450223D01*
X60328802Y-39433747D01*
X60348507Y-39419133D01*
X60369551Y-39406520D01*
X60391729Y-39396030D01*
X60414829Y-39387765D01*
X60438627Y-39381804D01*
X60462896Y-39378204D01*
X60487400Y-39377000D01*
X61737400Y-39377000D01*
X61761904Y-39378204D01*
G37*
G36*
X61761904Y-42178204D02*
G01*
X61786173Y-42181804D01*
X61809971Y-42187765D01*
X61833071Y-42196030D01*
X61855249Y-42206520D01*
X61876293Y-42219133D01*
X61895998Y-42233747D01*
X61914177Y-42250223D01*
X61930653Y-42268402D01*
X61945267Y-42288107D01*
X61957880Y-42309151D01*
X61968370Y-42331329D01*
X61976635Y-42354429D01*
X61982596Y-42378227D01*
X61986196Y-42402496D01*
X61987400Y-42427000D01*
X61987400Y-43177000D01*
X61986196Y-43201504D01*
X61982596Y-43225773D01*
X61976635Y-43249571D01*
X61968370Y-43272671D01*
X61957880Y-43294849D01*
X61945267Y-43315893D01*
X61930653Y-43335598D01*
X61914177Y-43353777D01*
X61895998Y-43370253D01*
X61876293Y-43384867D01*
X61855249Y-43397480D01*
X61833071Y-43407970D01*
X61809971Y-43416235D01*
X61786173Y-43422196D01*
X61761904Y-43425796D01*
X61737400Y-43427000D01*
X60487400Y-43427000D01*
X60462896Y-43425796D01*
X60438627Y-43422196D01*
X60414829Y-43416235D01*
X60391729Y-43407970D01*
X60369551Y-43397480D01*
X60348507Y-43384867D01*
X60328802Y-43370253D01*
X60310623Y-43353777D01*
X60294147Y-43335598D01*
X60279533Y-43315893D01*
X60266920Y-43294849D01*
X60256430Y-43272671D01*
X60248165Y-43249571D01*
X60242204Y-43225773D01*
X60238604Y-43201504D01*
X60237400Y-43177000D01*
X60237400Y-42427000D01*
X60238604Y-42402496D01*
X60242204Y-42378227D01*
X60248165Y-42354429D01*
X60256430Y-42331329D01*
X60266920Y-42309151D01*
X60279533Y-42288107D01*
X60294147Y-42268402D01*
X60310623Y-42250223D01*
X60328802Y-42233747D01*
X60348507Y-42219133D01*
X60369551Y-42206520D01*
X60391729Y-42196030D01*
X60414829Y-42187765D01*
X60438627Y-42181804D01*
X60462896Y-42178204D01*
X60487400Y-42177000D01*
X61737400Y-42177000D01*
X61761904Y-42178204D01*
G37*
G36*
X64047904Y-42178204D02*
G01*
X64072173Y-42181804D01*
X64095971Y-42187765D01*
X64119071Y-42196030D01*
X64141249Y-42206520D01*
X64162293Y-42219133D01*
X64181998Y-42233747D01*
X64200177Y-42250223D01*
X64216653Y-42268402D01*
X64231267Y-42288107D01*
X64243880Y-42309151D01*
X64254370Y-42331329D01*
X64262635Y-42354429D01*
X64268596Y-42378227D01*
X64272196Y-42402496D01*
X64273400Y-42427000D01*
X64273400Y-43177000D01*
X64272196Y-43201504D01*
X64268596Y-43225773D01*
X64262635Y-43249571D01*
X64254370Y-43272671D01*
X64243880Y-43294849D01*
X64231267Y-43315893D01*
X64216653Y-43335598D01*
X64200177Y-43353777D01*
X64181998Y-43370253D01*
X64162293Y-43384867D01*
X64141249Y-43397480D01*
X64119071Y-43407970D01*
X64095971Y-43416235D01*
X64072173Y-43422196D01*
X64047904Y-43425796D01*
X64023400Y-43427000D01*
X62773400Y-43427000D01*
X62748896Y-43425796D01*
X62724627Y-43422196D01*
X62700829Y-43416235D01*
X62677729Y-43407970D01*
X62655551Y-43397480D01*
X62634507Y-43384867D01*
X62614802Y-43370253D01*
X62596623Y-43353777D01*
X62580147Y-43335598D01*
X62565533Y-43315893D01*
X62552920Y-43294849D01*
X62542430Y-43272671D01*
X62534165Y-43249571D01*
X62528204Y-43225773D01*
X62524604Y-43201504D01*
X62523400Y-43177000D01*
X62523400Y-42427000D01*
X62524604Y-42402496D01*
X62528204Y-42378227D01*
X62534165Y-42354429D01*
X62542430Y-42331329D01*
X62552920Y-42309151D01*
X62565533Y-42288107D01*
X62580147Y-42268402D01*
X62596623Y-42250223D01*
X62614802Y-42233747D01*
X62634507Y-42219133D01*
X62655551Y-42206520D01*
X62677729Y-42196030D01*
X62700829Y-42187765D01*
X62724627Y-42181804D01*
X62748896Y-42178204D01*
X62773400Y-42177000D01*
X64023400Y-42177000D01*
X64047904Y-42178204D01*
G37*
G36*
X64047904Y-39378204D02*
G01*
X64072173Y-39381804D01*
X64095971Y-39387765D01*
X64119071Y-39396030D01*
X64141249Y-39406520D01*
X64162293Y-39419133D01*
X64181998Y-39433747D01*
X64200177Y-39450223D01*
X64216653Y-39468402D01*
X64231267Y-39488107D01*
X64243880Y-39509151D01*
X64254370Y-39531329D01*
X64262635Y-39554429D01*
X64268596Y-39578227D01*
X64272196Y-39602496D01*
X64273400Y-39627000D01*
X64273400Y-40377000D01*
X64272196Y-40401504D01*
X64268596Y-40425773D01*
X64262635Y-40449571D01*
X64254370Y-40472671D01*
X64243880Y-40494849D01*
X64231267Y-40515893D01*
X64216653Y-40535598D01*
X64200177Y-40553777D01*
X64181998Y-40570253D01*
X64162293Y-40584867D01*
X64141249Y-40597480D01*
X64119071Y-40607970D01*
X64095971Y-40616235D01*
X64072173Y-40622196D01*
X64047904Y-40625796D01*
X64023400Y-40627000D01*
X62773400Y-40627000D01*
X62748896Y-40625796D01*
X62724627Y-40622196D01*
X62700829Y-40616235D01*
X62677729Y-40607970D01*
X62655551Y-40597480D01*
X62634507Y-40584867D01*
X62614802Y-40570253D01*
X62596623Y-40553777D01*
X62580147Y-40535598D01*
X62565533Y-40515893D01*
X62552920Y-40494849D01*
X62542430Y-40472671D01*
X62534165Y-40449571D01*
X62528204Y-40425773D01*
X62524604Y-40401504D01*
X62523400Y-40377000D01*
X62523400Y-39627000D01*
X62524604Y-39602496D01*
X62528204Y-39578227D01*
X62534165Y-39554429D01*
X62542430Y-39531329D01*
X62552920Y-39509151D01*
X62565533Y-39488107D01*
X62580147Y-39468402D01*
X62596623Y-39450223D01*
X62614802Y-39433747D01*
X62634507Y-39419133D01*
X62655551Y-39406520D01*
X62677729Y-39396030D01*
X62700829Y-39387765D01*
X62724627Y-39381804D01*
X62748896Y-39378204D01*
X62773400Y-39377000D01*
X64023400Y-39377000D01*
X64047904Y-39378204D01*
G37*
G36*
X43270704Y-39357884D02*
G01*
X43294973Y-39361484D01*
X43318771Y-39367445D01*
X43341871Y-39375710D01*
X43364049Y-39386200D01*
X43385093Y-39398813D01*
X43404798Y-39413427D01*
X43422977Y-39429903D01*
X43439453Y-39448082D01*
X43454067Y-39467787D01*
X43466680Y-39488831D01*
X43477170Y-39511009D01*
X43485435Y-39534109D01*
X43491396Y-39557907D01*
X43494996Y-39582176D01*
X43496200Y-39606680D01*
X43496200Y-40356680D01*
X43494996Y-40381184D01*
X43491396Y-40405453D01*
X43485435Y-40429251D01*
X43477170Y-40452351D01*
X43466680Y-40474529D01*
X43454067Y-40495573D01*
X43439453Y-40515278D01*
X43422977Y-40533457D01*
X43404798Y-40549933D01*
X43385093Y-40564547D01*
X43364049Y-40577160D01*
X43341871Y-40587650D01*
X43318771Y-40595915D01*
X43294973Y-40601876D01*
X43270704Y-40605476D01*
X43246200Y-40606680D01*
X41996200Y-40606680D01*
X41971696Y-40605476D01*
X41947427Y-40601876D01*
X41923629Y-40595915D01*
X41900529Y-40587650D01*
X41878351Y-40577160D01*
X41857307Y-40564547D01*
X41837602Y-40549933D01*
X41819423Y-40533457D01*
X41802947Y-40515278D01*
X41788333Y-40495573D01*
X41775720Y-40474529D01*
X41765230Y-40452351D01*
X41756965Y-40429251D01*
X41751004Y-40405453D01*
X41747404Y-40381184D01*
X41746200Y-40356680D01*
X41746200Y-39606680D01*
X41747404Y-39582176D01*
X41751004Y-39557907D01*
X41756965Y-39534109D01*
X41765230Y-39511009D01*
X41775720Y-39488831D01*
X41788333Y-39467787D01*
X41802947Y-39448082D01*
X41819423Y-39429903D01*
X41837602Y-39413427D01*
X41857307Y-39398813D01*
X41878351Y-39386200D01*
X41900529Y-39375710D01*
X41923629Y-39367445D01*
X41947427Y-39361484D01*
X41971696Y-39357884D01*
X41996200Y-39356680D01*
X43246200Y-39356680D01*
X43270704Y-39357884D01*
G37*
G36*
X43270704Y-42157884D02*
G01*
X43294973Y-42161484D01*
X43318771Y-42167445D01*
X43341871Y-42175710D01*
X43364049Y-42186200D01*
X43385093Y-42198813D01*
X43404798Y-42213427D01*
X43422977Y-42229903D01*
X43439453Y-42248082D01*
X43454067Y-42267787D01*
X43466680Y-42288831D01*
X43477170Y-42311009D01*
X43485435Y-42334109D01*
X43491396Y-42357907D01*
X43494996Y-42382176D01*
X43496200Y-42406680D01*
X43496200Y-43156680D01*
X43494996Y-43181184D01*
X43491396Y-43205453D01*
X43485435Y-43229251D01*
X43477170Y-43252351D01*
X43466680Y-43274529D01*
X43454067Y-43295573D01*
X43439453Y-43315278D01*
X43422977Y-43333457D01*
X43404798Y-43349933D01*
X43385093Y-43364547D01*
X43364049Y-43377160D01*
X43341871Y-43387650D01*
X43318771Y-43395915D01*
X43294973Y-43401876D01*
X43270704Y-43405476D01*
X43246200Y-43406680D01*
X41996200Y-43406680D01*
X41971696Y-43405476D01*
X41947427Y-43401876D01*
X41923629Y-43395915D01*
X41900529Y-43387650D01*
X41878351Y-43377160D01*
X41857307Y-43364547D01*
X41837602Y-43349933D01*
X41819423Y-43333457D01*
X41802947Y-43315278D01*
X41788333Y-43295573D01*
X41775720Y-43274529D01*
X41765230Y-43252351D01*
X41756965Y-43229251D01*
X41751004Y-43205453D01*
X41747404Y-43181184D01*
X41746200Y-43156680D01*
X41746200Y-42406680D01*
X41747404Y-42382176D01*
X41751004Y-42357907D01*
X41756965Y-42334109D01*
X41765230Y-42311009D01*
X41775720Y-42288831D01*
X41788333Y-42267787D01*
X41802947Y-42248082D01*
X41819423Y-42229903D01*
X41837602Y-42213427D01*
X41857307Y-42198813D01*
X41878351Y-42186200D01*
X41900529Y-42175710D01*
X41923629Y-42167445D01*
X41947427Y-42161484D01*
X41971696Y-42157884D01*
X41996200Y-42156680D01*
X43246200Y-42156680D01*
X43270704Y-42157884D01*
G37*
G36*
X45556704Y-39357884D02*
G01*
X45580973Y-39361484D01*
X45604771Y-39367445D01*
X45627871Y-39375710D01*
X45650049Y-39386200D01*
X45671093Y-39398813D01*
X45690798Y-39413427D01*
X45708977Y-39429903D01*
X45725453Y-39448082D01*
X45740067Y-39467787D01*
X45752680Y-39488831D01*
X45763170Y-39511009D01*
X45771435Y-39534109D01*
X45777396Y-39557907D01*
X45780996Y-39582176D01*
X45782200Y-39606680D01*
X45782200Y-40356680D01*
X45780996Y-40381184D01*
X45777396Y-40405453D01*
X45771435Y-40429251D01*
X45763170Y-40452351D01*
X45752680Y-40474529D01*
X45740067Y-40495573D01*
X45725453Y-40515278D01*
X45708977Y-40533457D01*
X45690798Y-40549933D01*
X45671093Y-40564547D01*
X45650049Y-40577160D01*
X45627871Y-40587650D01*
X45604771Y-40595915D01*
X45580973Y-40601876D01*
X45556704Y-40605476D01*
X45532200Y-40606680D01*
X44282200Y-40606680D01*
X44257696Y-40605476D01*
X44233427Y-40601876D01*
X44209629Y-40595915D01*
X44186529Y-40587650D01*
X44164351Y-40577160D01*
X44143307Y-40564547D01*
X44123602Y-40549933D01*
X44105423Y-40533457D01*
X44088947Y-40515278D01*
X44074333Y-40495573D01*
X44061720Y-40474529D01*
X44051230Y-40452351D01*
X44042965Y-40429251D01*
X44037004Y-40405453D01*
X44033404Y-40381184D01*
X44032200Y-40356680D01*
X44032200Y-39606680D01*
X44033404Y-39582176D01*
X44037004Y-39557907D01*
X44042965Y-39534109D01*
X44051230Y-39511009D01*
X44061720Y-39488831D01*
X44074333Y-39467787D01*
X44088947Y-39448082D01*
X44105423Y-39429903D01*
X44123602Y-39413427D01*
X44143307Y-39398813D01*
X44164351Y-39386200D01*
X44186529Y-39375710D01*
X44209629Y-39367445D01*
X44233427Y-39361484D01*
X44257696Y-39357884D01*
X44282200Y-39356680D01*
X45532200Y-39356680D01*
X45556704Y-39357884D01*
G37*
G36*
X45556704Y-42157884D02*
G01*
X45580973Y-42161484D01*
X45604771Y-42167445D01*
X45627871Y-42175710D01*
X45650049Y-42186200D01*
X45671093Y-42198813D01*
X45690798Y-42213427D01*
X45708977Y-42229903D01*
X45725453Y-42248082D01*
X45740067Y-42267787D01*
X45752680Y-42288831D01*
X45763170Y-42311009D01*
X45771435Y-42334109D01*
X45777396Y-42357907D01*
X45780996Y-42382176D01*
X45782200Y-42406680D01*
X45782200Y-43156680D01*
X45780996Y-43181184D01*
X45777396Y-43205453D01*
X45771435Y-43229251D01*
X45763170Y-43252351D01*
X45752680Y-43274529D01*
X45740067Y-43295573D01*
X45725453Y-43315278D01*
X45708977Y-43333457D01*
X45690798Y-43349933D01*
X45671093Y-43364547D01*
X45650049Y-43377160D01*
X45627871Y-43387650D01*
X45604771Y-43395915D01*
X45580973Y-43401876D01*
X45556704Y-43405476D01*
X45532200Y-43406680D01*
X44282200Y-43406680D01*
X44257696Y-43405476D01*
X44233427Y-43401876D01*
X44209629Y-43395915D01*
X44186529Y-43387650D01*
X44164351Y-43377160D01*
X44143307Y-43364547D01*
X44123602Y-43349933D01*
X44105423Y-43333457D01*
X44088947Y-43315278D01*
X44074333Y-43295573D01*
X44061720Y-43274529D01*
X44051230Y-43252351D01*
X44042965Y-43229251D01*
X44037004Y-43205453D01*
X44033404Y-43181184D01*
X44032200Y-43156680D01*
X44032200Y-42406680D01*
X44033404Y-42382176D01*
X44037004Y-42357907D01*
X44042965Y-42334109D01*
X44051230Y-42311009D01*
X44061720Y-42288831D01*
X44074333Y-42267787D01*
X44088947Y-42248082D01*
X44105423Y-42229903D01*
X44123602Y-42213427D01*
X44143307Y-42198813D01*
X44164351Y-42186200D01*
X44186529Y-42175710D01*
X44209629Y-42167445D01*
X44233427Y-42161484D01*
X44257696Y-42157884D01*
X44282200Y-42156680D01*
X45532200Y-42156680D01*
X45556704Y-42157884D01*
G37*
G36*
X35388204Y-37129684D02*
G01*
X35412473Y-37133284D01*
X35436271Y-37139245D01*
X35459371Y-37147510D01*
X35481549Y-37158000D01*
X35502593Y-37170613D01*
X35522298Y-37185227D01*
X35540477Y-37201703D01*
X35556953Y-37219882D01*
X35571567Y-37239587D01*
X35584180Y-37260631D01*
X35594670Y-37282809D01*
X35602935Y-37305909D01*
X35608896Y-37329707D01*
X35612496Y-37353976D01*
X35613700Y-37378480D01*
X35613700Y-38628480D01*
X35612496Y-38652984D01*
X35608896Y-38677253D01*
X35602935Y-38701051D01*
X35594670Y-38724151D01*
X35584180Y-38746329D01*
X35571567Y-38767373D01*
X35556953Y-38787078D01*
X35540477Y-38805257D01*
X35522298Y-38821733D01*
X35502593Y-38836347D01*
X35481549Y-38848960D01*
X35459371Y-38859450D01*
X35436271Y-38867715D01*
X35412473Y-38873676D01*
X35388204Y-38877276D01*
X35363700Y-38878480D01*
X34438700Y-38878480D01*
X34414196Y-38877276D01*
X34389927Y-38873676D01*
X34366129Y-38867715D01*
X34343029Y-38859450D01*
X34320851Y-38848960D01*
X34299807Y-38836347D01*
X34280102Y-38821733D01*
X34261923Y-38805257D01*
X34245447Y-38787078D01*
X34230833Y-38767373D01*
X34218220Y-38746329D01*
X34207730Y-38724151D01*
X34199465Y-38701051D01*
X34193504Y-38677253D01*
X34189904Y-38652984D01*
X34188700Y-38628480D01*
X34188700Y-37378480D01*
X34189904Y-37353976D01*
X34193504Y-37329707D01*
X34199465Y-37305909D01*
X34207730Y-37282809D01*
X34218220Y-37260631D01*
X34230833Y-37239587D01*
X34245447Y-37219882D01*
X34261923Y-37201703D01*
X34280102Y-37185227D01*
X34299807Y-37170613D01*
X34320851Y-37158000D01*
X34343029Y-37147510D01*
X34366129Y-37139245D01*
X34389927Y-37133284D01*
X34414196Y-37129684D01*
X34438700Y-37128480D01*
X35363700Y-37128480D01*
X35388204Y-37129684D01*
G37*
G36*
X32413204Y-37129684D02*
G01*
X32437473Y-37133284D01*
X32461271Y-37139245D01*
X32484371Y-37147510D01*
X32506549Y-37158000D01*
X32527593Y-37170613D01*
X32547298Y-37185227D01*
X32565477Y-37201703D01*
X32581953Y-37219882D01*
X32596567Y-37239587D01*
X32609180Y-37260631D01*
X32619670Y-37282809D01*
X32627935Y-37305909D01*
X32633896Y-37329707D01*
X32637496Y-37353976D01*
X32638700Y-37378480D01*
X32638700Y-38628480D01*
X32637496Y-38652984D01*
X32633896Y-38677253D01*
X32627935Y-38701051D01*
X32619670Y-38724151D01*
X32609180Y-38746329D01*
X32596567Y-38767373D01*
X32581953Y-38787078D01*
X32565477Y-38805257D01*
X32547298Y-38821733D01*
X32527593Y-38836347D01*
X32506549Y-38848960D01*
X32484371Y-38859450D01*
X32461271Y-38867715D01*
X32437473Y-38873676D01*
X32413204Y-38877276D01*
X32388700Y-38878480D01*
X31463700Y-38878480D01*
X31439196Y-38877276D01*
X31414927Y-38873676D01*
X31391129Y-38867715D01*
X31368029Y-38859450D01*
X31345851Y-38848960D01*
X31324807Y-38836347D01*
X31305102Y-38821733D01*
X31286923Y-38805257D01*
X31270447Y-38787078D01*
X31255833Y-38767373D01*
X31243220Y-38746329D01*
X31232730Y-38724151D01*
X31224465Y-38701051D01*
X31218504Y-38677253D01*
X31214904Y-38652984D01*
X31213700Y-38628480D01*
X31213700Y-37378480D01*
X31214904Y-37353976D01*
X31218504Y-37329707D01*
X31224465Y-37305909D01*
X31232730Y-37282809D01*
X31243220Y-37260631D01*
X31255833Y-37239587D01*
X31270447Y-37219882D01*
X31286923Y-37201703D01*
X31305102Y-37185227D01*
X31324807Y-37170613D01*
X31345851Y-37158000D01*
X31368029Y-37147510D01*
X31391129Y-37139245D01*
X31414927Y-37133284D01*
X31439196Y-37129684D01*
X31463700Y-37128480D01*
X32388700Y-37128480D01*
X32413204Y-37129684D01*
G37*
G36*
X28774304Y-46624204D02*
G01*
X28798573Y-46627804D01*
X28822371Y-46633765D01*
X28845471Y-46642030D01*
X28867649Y-46652520D01*
X28888693Y-46665133D01*
X28908398Y-46679747D01*
X28926577Y-46696223D01*
X28943053Y-46714402D01*
X28957667Y-46734107D01*
X28970280Y-46755151D01*
X28980770Y-46777329D01*
X28989035Y-46800429D01*
X28994996Y-46824227D01*
X28998596Y-46848496D01*
X28999800Y-46873000D01*
X28999800Y-48123000D01*
X28998596Y-48147504D01*
X28994996Y-48171773D01*
X28989035Y-48195571D01*
X28980770Y-48218671D01*
X28970280Y-48240849D01*
X28957667Y-48261893D01*
X28943053Y-48281598D01*
X28926577Y-48299777D01*
X28908398Y-48316253D01*
X28888693Y-48330867D01*
X28867649Y-48343480D01*
X28845471Y-48353970D01*
X28822371Y-48362235D01*
X28798573Y-48368196D01*
X28774304Y-48371796D01*
X28749800Y-48373000D01*
X27999800Y-48373000D01*
X27975296Y-48371796D01*
X27951027Y-48368196D01*
X27927229Y-48362235D01*
X27904129Y-48353970D01*
X27881951Y-48343480D01*
X27860907Y-48330867D01*
X27841202Y-48316253D01*
X27823023Y-48299777D01*
X27806547Y-48281598D01*
X27791933Y-48261893D01*
X27779320Y-48240849D01*
X27768830Y-48218671D01*
X27760565Y-48195571D01*
X27754604Y-48171773D01*
X27751004Y-48147504D01*
X27749800Y-48123000D01*
X27749800Y-46873000D01*
X27751004Y-46848496D01*
X27754604Y-46824227D01*
X27760565Y-46800429D01*
X27768830Y-46777329D01*
X27779320Y-46755151D01*
X27791933Y-46734107D01*
X27806547Y-46714402D01*
X27823023Y-46696223D01*
X27841202Y-46679747D01*
X27860907Y-46665133D01*
X27881951Y-46652520D01*
X27904129Y-46642030D01*
X27927229Y-46633765D01*
X27951027Y-46627804D01*
X27975296Y-46624204D01*
X27999800Y-46623000D01*
X28749800Y-46623000D01*
X28774304Y-46624204D01*
G37*
G36*
X25974304Y-46624204D02*
G01*
X25998573Y-46627804D01*
X26022371Y-46633765D01*
X26045471Y-46642030D01*
X26067649Y-46652520D01*
X26088693Y-46665133D01*
X26108398Y-46679747D01*
X26126577Y-46696223D01*
X26143053Y-46714402D01*
X26157667Y-46734107D01*
X26170280Y-46755151D01*
X26180770Y-46777329D01*
X26189035Y-46800429D01*
X26194996Y-46824227D01*
X26198596Y-46848496D01*
X26199800Y-46873000D01*
X26199800Y-48123000D01*
X26198596Y-48147504D01*
X26194996Y-48171773D01*
X26189035Y-48195571D01*
X26180770Y-48218671D01*
X26170280Y-48240849D01*
X26157667Y-48261893D01*
X26143053Y-48281598D01*
X26126577Y-48299777D01*
X26108398Y-48316253D01*
X26088693Y-48330867D01*
X26067649Y-48343480D01*
X26045471Y-48353970D01*
X26022371Y-48362235D01*
X25998573Y-48368196D01*
X25974304Y-48371796D01*
X25949800Y-48373000D01*
X25199800Y-48373000D01*
X25175296Y-48371796D01*
X25151027Y-48368196D01*
X25127229Y-48362235D01*
X25104129Y-48353970D01*
X25081951Y-48343480D01*
X25060907Y-48330867D01*
X25041202Y-48316253D01*
X25023023Y-48299777D01*
X25006547Y-48281598D01*
X24991933Y-48261893D01*
X24979320Y-48240849D01*
X24968830Y-48218671D01*
X24960565Y-48195571D01*
X24954604Y-48171773D01*
X24951004Y-48147504D01*
X24949800Y-48123000D01*
X24949800Y-46873000D01*
X24951004Y-46848496D01*
X24954604Y-46824227D01*
X24960565Y-46800429D01*
X24968830Y-46777329D01*
X24979320Y-46755151D01*
X24991933Y-46734107D01*
X25006547Y-46714402D01*
X25023023Y-46696223D01*
X25041202Y-46679747D01*
X25060907Y-46665133D01*
X25081951Y-46652520D01*
X25104129Y-46642030D01*
X25127229Y-46633765D01*
X25151027Y-46627804D01*
X25175296Y-46624204D01*
X25199800Y-46623000D01*
X25949800Y-46623000D01*
X25974304Y-46624204D01*
G37*
M02*
