G04 #@! TF.GenerationSoftware,KiCad,Pcbnew,5.1.5+dfsg1-2build2*
G04 #@! TF.CreationDate,2021-06-04T03:42:04+02:00*
G04 #@! TF.ProjectId,circuit8,63697263-7569-4743-982e-6b696361645f,rev?*
G04 #@! TF.SameCoordinates,Original*
G04 #@! TF.FileFunction,Soldermask,Top*
G04 #@! TF.FilePolarity,Negative*
%FSLAX46Y46*%
G04 Gerber Fmt 4.6, Leading zero omitted, Abs format (unit mm)*
G04 Created by KiCad (PCBNEW 5.1.5+dfsg1-2build2) date 2021-06-04 03:42:04*
%MOMM*%
%LPD*%
G04 APERTURE LIST*
%ADD10R,6.000000X3.000000*%
%ADD11O,1.700000X1.700000*%
%ADD12R,1.700000X1.700000*%
%ADD13C,0.100000*%
%ADD14R,0.400000X0.900000*%
%ADD15R,0.650000X1.060000*%
G04 APERTURE END LIST*
D10*
X28432000Y-33274000D03*
X69032000Y-33274000D03*
X34032000Y-33274000D03*
X63432000Y-33274000D03*
D11*
X35560000Y-25400000D03*
X38100000Y-25400000D03*
X40640000Y-25400000D03*
X43180000Y-25400000D03*
X45720000Y-25400000D03*
X48260000Y-25400000D03*
X50800000Y-25400000D03*
X53340000Y-25400000D03*
X55880000Y-25400000D03*
X58420000Y-25400000D03*
X60960000Y-25400000D03*
X63500000Y-25400000D03*
X66040000Y-25400000D03*
X68580000Y-25400000D03*
D12*
X71120000Y-25400000D03*
D13*
G36*
X58317504Y-28336204D02*
G01*
X58341773Y-28339804D01*
X58365571Y-28345765D01*
X58388671Y-28354030D01*
X58410849Y-28364520D01*
X58431893Y-28377133D01*
X58451598Y-28391747D01*
X58469777Y-28408223D01*
X58486253Y-28426402D01*
X58500867Y-28446107D01*
X58513480Y-28467151D01*
X58523970Y-28489329D01*
X58532235Y-28512429D01*
X58538196Y-28536227D01*
X58541796Y-28560496D01*
X58543000Y-28585000D01*
X58543000Y-29835000D01*
X58541796Y-29859504D01*
X58538196Y-29883773D01*
X58532235Y-29907571D01*
X58523970Y-29930671D01*
X58513480Y-29952849D01*
X58500867Y-29973893D01*
X58486253Y-29993598D01*
X58469777Y-30011777D01*
X58451598Y-30028253D01*
X58431893Y-30042867D01*
X58410849Y-30055480D01*
X58388671Y-30065970D01*
X58365571Y-30074235D01*
X58341773Y-30080196D01*
X58317504Y-30083796D01*
X58293000Y-30085000D01*
X57543000Y-30085000D01*
X57518496Y-30083796D01*
X57494227Y-30080196D01*
X57470429Y-30074235D01*
X57447329Y-30065970D01*
X57425151Y-30055480D01*
X57404107Y-30042867D01*
X57384402Y-30028253D01*
X57366223Y-30011777D01*
X57349747Y-29993598D01*
X57335133Y-29973893D01*
X57322520Y-29952849D01*
X57312030Y-29930671D01*
X57303765Y-29907571D01*
X57297804Y-29883773D01*
X57294204Y-29859504D01*
X57293000Y-29835000D01*
X57293000Y-28585000D01*
X57294204Y-28560496D01*
X57297804Y-28536227D01*
X57303765Y-28512429D01*
X57312030Y-28489329D01*
X57322520Y-28467151D01*
X57335133Y-28446107D01*
X57349747Y-28426402D01*
X57366223Y-28408223D01*
X57384402Y-28391747D01*
X57404107Y-28377133D01*
X57425151Y-28364520D01*
X57447329Y-28354030D01*
X57470429Y-28345765D01*
X57494227Y-28339804D01*
X57518496Y-28336204D01*
X57543000Y-28335000D01*
X58293000Y-28335000D01*
X58317504Y-28336204D01*
G37*
G36*
X55517504Y-28336204D02*
G01*
X55541773Y-28339804D01*
X55565571Y-28345765D01*
X55588671Y-28354030D01*
X55610849Y-28364520D01*
X55631893Y-28377133D01*
X55651598Y-28391747D01*
X55669777Y-28408223D01*
X55686253Y-28426402D01*
X55700867Y-28446107D01*
X55713480Y-28467151D01*
X55723970Y-28489329D01*
X55732235Y-28512429D01*
X55738196Y-28536227D01*
X55741796Y-28560496D01*
X55743000Y-28585000D01*
X55743000Y-29835000D01*
X55741796Y-29859504D01*
X55738196Y-29883773D01*
X55732235Y-29907571D01*
X55723970Y-29930671D01*
X55713480Y-29952849D01*
X55700867Y-29973893D01*
X55686253Y-29993598D01*
X55669777Y-30011777D01*
X55651598Y-30028253D01*
X55631893Y-30042867D01*
X55610849Y-30055480D01*
X55588671Y-30065970D01*
X55565571Y-30074235D01*
X55541773Y-30080196D01*
X55517504Y-30083796D01*
X55493000Y-30085000D01*
X54743000Y-30085000D01*
X54718496Y-30083796D01*
X54694227Y-30080196D01*
X54670429Y-30074235D01*
X54647329Y-30065970D01*
X54625151Y-30055480D01*
X54604107Y-30042867D01*
X54584402Y-30028253D01*
X54566223Y-30011777D01*
X54549747Y-29993598D01*
X54535133Y-29973893D01*
X54522520Y-29952849D01*
X54512030Y-29930671D01*
X54503765Y-29907571D01*
X54497804Y-29883773D01*
X54494204Y-29859504D01*
X54493000Y-29835000D01*
X54493000Y-28585000D01*
X54494204Y-28560496D01*
X54497804Y-28536227D01*
X54503765Y-28512429D01*
X54512030Y-28489329D01*
X54522520Y-28467151D01*
X54535133Y-28446107D01*
X54549747Y-28426402D01*
X54566223Y-28408223D01*
X54584402Y-28391747D01*
X54604107Y-28377133D01*
X54625151Y-28364520D01*
X54647329Y-28354030D01*
X54670429Y-28345765D01*
X54694227Y-28339804D01*
X54718496Y-28336204D01*
X54743000Y-28335000D01*
X55493000Y-28335000D01*
X55517504Y-28336204D01*
G37*
G36*
X50053504Y-28336204D02*
G01*
X50077773Y-28339804D01*
X50101571Y-28345765D01*
X50124671Y-28354030D01*
X50146849Y-28364520D01*
X50167893Y-28377133D01*
X50187598Y-28391747D01*
X50205777Y-28408223D01*
X50222253Y-28426402D01*
X50236867Y-28446107D01*
X50249480Y-28467151D01*
X50259970Y-28489329D01*
X50268235Y-28512429D01*
X50274196Y-28536227D01*
X50277796Y-28560496D01*
X50279000Y-28585000D01*
X50279000Y-29835000D01*
X50277796Y-29859504D01*
X50274196Y-29883773D01*
X50268235Y-29907571D01*
X50259970Y-29930671D01*
X50249480Y-29952849D01*
X50236867Y-29973893D01*
X50222253Y-29993598D01*
X50205777Y-30011777D01*
X50187598Y-30028253D01*
X50167893Y-30042867D01*
X50146849Y-30055480D01*
X50124671Y-30065970D01*
X50101571Y-30074235D01*
X50077773Y-30080196D01*
X50053504Y-30083796D01*
X50029000Y-30085000D01*
X49279000Y-30085000D01*
X49254496Y-30083796D01*
X49230227Y-30080196D01*
X49206429Y-30074235D01*
X49183329Y-30065970D01*
X49161151Y-30055480D01*
X49140107Y-30042867D01*
X49120402Y-30028253D01*
X49102223Y-30011777D01*
X49085747Y-29993598D01*
X49071133Y-29973893D01*
X49058520Y-29952849D01*
X49048030Y-29930671D01*
X49039765Y-29907571D01*
X49033804Y-29883773D01*
X49030204Y-29859504D01*
X49029000Y-29835000D01*
X49029000Y-28585000D01*
X49030204Y-28560496D01*
X49033804Y-28536227D01*
X49039765Y-28512429D01*
X49048030Y-28489329D01*
X49058520Y-28467151D01*
X49071133Y-28446107D01*
X49085747Y-28426402D01*
X49102223Y-28408223D01*
X49120402Y-28391747D01*
X49140107Y-28377133D01*
X49161151Y-28364520D01*
X49183329Y-28354030D01*
X49206429Y-28345765D01*
X49230227Y-28339804D01*
X49254496Y-28336204D01*
X49279000Y-28335000D01*
X50029000Y-28335000D01*
X50053504Y-28336204D01*
G37*
G36*
X52853504Y-28336204D02*
G01*
X52877773Y-28339804D01*
X52901571Y-28345765D01*
X52924671Y-28354030D01*
X52946849Y-28364520D01*
X52967893Y-28377133D01*
X52987598Y-28391747D01*
X53005777Y-28408223D01*
X53022253Y-28426402D01*
X53036867Y-28446107D01*
X53049480Y-28467151D01*
X53059970Y-28489329D01*
X53068235Y-28512429D01*
X53074196Y-28536227D01*
X53077796Y-28560496D01*
X53079000Y-28585000D01*
X53079000Y-29835000D01*
X53077796Y-29859504D01*
X53074196Y-29883773D01*
X53068235Y-29907571D01*
X53059970Y-29930671D01*
X53049480Y-29952849D01*
X53036867Y-29973893D01*
X53022253Y-29993598D01*
X53005777Y-30011777D01*
X52987598Y-30028253D01*
X52967893Y-30042867D01*
X52946849Y-30055480D01*
X52924671Y-30065970D01*
X52901571Y-30074235D01*
X52877773Y-30080196D01*
X52853504Y-30083796D01*
X52829000Y-30085000D01*
X52079000Y-30085000D01*
X52054496Y-30083796D01*
X52030227Y-30080196D01*
X52006429Y-30074235D01*
X51983329Y-30065970D01*
X51961151Y-30055480D01*
X51940107Y-30042867D01*
X51920402Y-30028253D01*
X51902223Y-30011777D01*
X51885747Y-29993598D01*
X51871133Y-29973893D01*
X51858520Y-29952849D01*
X51848030Y-29930671D01*
X51839765Y-29907571D01*
X51833804Y-29883773D01*
X51830204Y-29859504D01*
X51829000Y-29835000D01*
X51829000Y-28585000D01*
X51830204Y-28560496D01*
X51833804Y-28536227D01*
X51839765Y-28512429D01*
X51848030Y-28489329D01*
X51858520Y-28467151D01*
X51871133Y-28446107D01*
X51885747Y-28426402D01*
X51902223Y-28408223D01*
X51920402Y-28391747D01*
X51940107Y-28377133D01*
X51961151Y-28364520D01*
X51983329Y-28354030D01*
X52006429Y-28345765D01*
X52030227Y-28339804D01*
X52054496Y-28336204D01*
X52079000Y-28335000D01*
X52829000Y-28335000D01*
X52853504Y-28336204D01*
G37*
G36*
X40277504Y-36210204D02*
G01*
X40301773Y-36213804D01*
X40325571Y-36219765D01*
X40348671Y-36228030D01*
X40370849Y-36238520D01*
X40391893Y-36251133D01*
X40411598Y-36265747D01*
X40429777Y-36282223D01*
X40446253Y-36300402D01*
X40460867Y-36320107D01*
X40473480Y-36341151D01*
X40483970Y-36363329D01*
X40492235Y-36386429D01*
X40498196Y-36410227D01*
X40501796Y-36434496D01*
X40503000Y-36459000D01*
X40503000Y-37709000D01*
X40501796Y-37733504D01*
X40498196Y-37757773D01*
X40492235Y-37781571D01*
X40483970Y-37804671D01*
X40473480Y-37826849D01*
X40460867Y-37847893D01*
X40446253Y-37867598D01*
X40429777Y-37885777D01*
X40411598Y-37902253D01*
X40391893Y-37916867D01*
X40370849Y-37929480D01*
X40348671Y-37939970D01*
X40325571Y-37948235D01*
X40301773Y-37954196D01*
X40277504Y-37957796D01*
X40253000Y-37959000D01*
X39503000Y-37959000D01*
X39478496Y-37957796D01*
X39454227Y-37954196D01*
X39430429Y-37948235D01*
X39407329Y-37939970D01*
X39385151Y-37929480D01*
X39364107Y-37916867D01*
X39344402Y-37902253D01*
X39326223Y-37885777D01*
X39309747Y-37867598D01*
X39295133Y-37847893D01*
X39282520Y-37826849D01*
X39272030Y-37804671D01*
X39263765Y-37781571D01*
X39257804Y-37757773D01*
X39254204Y-37733504D01*
X39253000Y-37709000D01*
X39253000Y-36459000D01*
X39254204Y-36434496D01*
X39257804Y-36410227D01*
X39263765Y-36386429D01*
X39272030Y-36363329D01*
X39282520Y-36341151D01*
X39295133Y-36320107D01*
X39309747Y-36300402D01*
X39326223Y-36282223D01*
X39344402Y-36265747D01*
X39364107Y-36251133D01*
X39385151Y-36238520D01*
X39407329Y-36228030D01*
X39430429Y-36219765D01*
X39454227Y-36213804D01*
X39478496Y-36210204D01*
X39503000Y-36209000D01*
X40253000Y-36209000D01*
X40277504Y-36210204D01*
G37*
G36*
X43077504Y-36210204D02*
G01*
X43101773Y-36213804D01*
X43125571Y-36219765D01*
X43148671Y-36228030D01*
X43170849Y-36238520D01*
X43191893Y-36251133D01*
X43211598Y-36265747D01*
X43229777Y-36282223D01*
X43246253Y-36300402D01*
X43260867Y-36320107D01*
X43273480Y-36341151D01*
X43283970Y-36363329D01*
X43292235Y-36386429D01*
X43298196Y-36410227D01*
X43301796Y-36434496D01*
X43303000Y-36459000D01*
X43303000Y-37709000D01*
X43301796Y-37733504D01*
X43298196Y-37757773D01*
X43292235Y-37781571D01*
X43283970Y-37804671D01*
X43273480Y-37826849D01*
X43260867Y-37847893D01*
X43246253Y-37867598D01*
X43229777Y-37885777D01*
X43211598Y-37902253D01*
X43191893Y-37916867D01*
X43170849Y-37929480D01*
X43148671Y-37939970D01*
X43125571Y-37948235D01*
X43101773Y-37954196D01*
X43077504Y-37957796D01*
X43053000Y-37959000D01*
X42303000Y-37959000D01*
X42278496Y-37957796D01*
X42254227Y-37954196D01*
X42230429Y-37948235D01*
X42207329Y-37939970D01*
X42185151Y-37929480D01*
X42164107Y-37916867D01*
X42144402Y-37902253D01*
X42126223Y-37885777D01*
X42109747Y-37867598D01*
X42095133Y-37847893D01*
X42082520Y-37826849D01*
X42072030Y-37804671D01*
X42063765Y-37781571D01*
X42057804Y-37757773D01*
X42054204Y-37733504D01*
X42053000Y-37709000D01*
X42053000Y-36459000D01*
X42054204Y-36434496D01*
X42057804Y-36410227D01*
X42063765Y-36386429D01*
X42072030Y-36363329D01*
X42082520Y-36341151D01*
X42095133Y-36320107D01*
X42109747Y-36300402D01*
X42126223Y-36282223D01*
X42144402Y-36265747D01*
X42164107Y-36251133D01*
X42185151Y-36238520D01*
X42207329Y-36228030D01*
X42230429Y-36219765D01*
X42254227Y-36213804D01*
X42278496Y-36210204D01*
X42303000Y-36209000D01*
X43053000Y-36209000D01*
X43077504Y-36210204D01*
G37*
D12*
X71120000Y-40640000D03*
D11*
X68580000Y-40640000D03*
X66040000Y-40640000D03*
X63500000Y-40640000D03*
X60960000Y-40640000D03*
X58420000Y-40640000D03*
X55880000Y-40640000D03*
X53340000Y-40640000D03*
X50800000Y-40640000D03*
X48260000Y-40640000D03*
X45720000Y-40640000D03*
X43180000Y-40640000D03*
X40640000Y-40640000D03*
X38100000Y-40640000D03*
X35560000Y-40640000D03*
D12*
X25400000Y-45720000D03*
D11*
X27940000Y-45720000D03*
X30480000Y-45720000D03*
X33020000Y-45720000D03*
X35560000Y-45720000D03*
X38100000Y-45720000D03*
X40640000Y-45720000D03*
X43180000Y-45720000D03*
X45720000Y-45720000D03*
X48260000Y-45720000D03*
X50800000Y-45720000D03*
X53340000Y-45720000D03*
X55880000Y-45720000D03*
X58420000Y-45720000D03*
X60960000Y-45720000D03*
X63500000Y-45720000D03*
X66040000Y-45720000D03*
D13*
G36*
X41845142Y-29019174D02*
G01*
X41868803Y-29022684D01*
X41892007Y-29028496D01*
X41914529Y-29036554D01*
X41936153Y-29046782D01*
X41956670Y-29059079D01*
X41975883Y-29073329D01*
X41993607Y-29089393D01*
X42009671Y-29107117D01*
X42023921Y-29126330D01*
X42036218Y-29146847D01*
X42046446Y-29168471D01*
X42054504Y-29190993D01*
X42060316Y-29214197D01*
X42063826Y-29237858D01*
X42065000Y-29261750D01*
X42065000Y-30174250D01*
X42063826Y-30198142D01*
X42060316Y-30221803D01*
X42054504Y-30245007D01*
X42046446Y-30267529D01*
X42036218Y-30289153D01*
X42023921Y-30309670D01*
X42009671Y-30328883D01*
X41993607Y-30346607D01*
X41975883Y-30362671D01*
X41956670Y-30376921D01*
X41936153Y-30389218D01*
X41914529Y-30399446D01*
X41892007Y-30407504D01*
X41868803Y-30413316D01*
X41845142Y-30416826D01*
X41821250Y-30418000D01*
X41333750Y-30418000D01*
X41309858Y-30416826D01*
X41286197Y-30413316D01*
X41262993Y-30407504D01*
X41240471Y-30399446D01*
X41218847Y-30389218D01*
X41198330Y-30376921D01*
X41179117Y-30362671D01*
X41161393Y-30346607D01*
X41145329Y-30328883D01*
X41131079Y-30309670D01*
X41118782Y-30289153D01*
X41108554Y-30267529D01*
X41100496Y-30245007D01*
X41094684Y-30221803D01*
X41091174Y-30198142D01*
X41090000Y-30174250D01*
X41090000Y-29261750D01*
X41091174Y-29237858D01*
X41094684Y-29214197D01*
X41100496Y-29190993D01*
X41108554Y-29168471D01*
X41118782Y-29146847D01*
X41131079Y-29126330D01*
X41145329Y-29107117D01*
X41161393Y-29089393D01*
X41179117Y-29073329D01*
X41198330Y-29059079D01*
X41218847Y-29046782D01*
X41240471Y-29036554D01*
X41262993Y-29028496D01*
X41286197Y-29022684D01*
X41309858Y-29019174D01*
X41333750Y-29018000D01*
X41821250Y-29018000D01*
X41845142Y-29019174D01*
G37*
G36*
X39970142Y-29019174D02*
G01*
X39993803Y-29022684D01*
X40017007Y-29028496D01*
X40039529Y-29036554D01*
X40061153Y-29046782D01*
X40081670Y-29059079D01*
X40100883Y-29073329D01*
X40118607Y-29089393D01*
X40134671Y-29107117D01*
X40148921Y-29126330D01*
X40161218Y-29146847D01*
X40171446Y-29168471D01*
X40179504Y-29190993D01*
X40185316Y-29214197D01*
X40188826Y-29237858D01*
X40190000Y-29261750D01*
X40190000Y-30174250D01*
X40188826Y-30198142D01*
X40185316Y-30221803D01*
X40179504Y-30245007D01*
X40171446Y-30267529D01*
X40161218Y-30289153D01*
X40148921Y-30309670D01*
X40134671Y-30328883D01*
X40118607Y-30346607D01*
X40100883Y-30362671D01*
X40081670Y-30376921D01*
X40061153Y-30389218D01*
X40039529Y-30399446D01*
X40017007Y-30407504D01*
X39993803Y-30413316D01*
X39970142Y-30416826D01*
X39946250Y-30418000D01*
X39458750Y-30418000D01*
X39434858Y-30416826D01*
X39411197Y-30413316D01*
X39387993Y-30407504D01*
X39365471Y-30399446D01*
X39343847Y-30389218D01*
X39323330Y-30376921D01*
X39304117Y-30362671D01*
X39286393Y-30346607D01*
X39270329Y-30328883D01*
X39256079Y-30309670D01*
X39243782Y-30289153D01*
X39233554Y-30267529D01*
X39225496Y-30245007D01*
X39219684Y-30221803D01*
X39216174Y-30198142D01*
X39215000Y-30174250D01*
X39215000Y-29261750D01*
X39216174Y-29237858D01*
X39219684Y-29214197D01*
X39225496Y-29190993D01*
X39233554Y-29168471D01*
X39243782Y-29146847D01*
X39256079Y-29126330D01*
X39270329Y-29107117D01*
X39286393Y-29089393D01*
X39304117Y-29073329D01*
X39323330Y-29059079D01*
X39343847Y-29046782D01*
X39365471Y-29036554D01*
X39387993Y-29028496D01*
X39411197Y-29022684D01*
X39434858Y-29019174D01*
X39458750Y-29018000D01*
X39946250Y-29018000D01*
X39970142Y-29019174D01*
G37*
G36*
X53021142Y-36385174D02*
G01*
X53044803Y-36388684D01*
X53068007Y-36394496D01*
X53090529Y-36402554D01*
X53112153Y-36412782D01*
X53132670Y-36425079D01*
X53151883Y-36439329D01*
X53169607Y-36455393D01*
X53185671Y-36473117D01*
X53199921Y-36492330D01*
X53212218Y-36512847D01*
X53222446Y-36534471D01*
X53230504Y-36556993D01*
X53236316Y-36580197D01*
X53239826Y-36603858D01*
X53241000Y-36627750D01*
X53241000Y-37540250D01*
X53239826Y-37564142D01*
X53236316Y-37587803D01*
X53230504Y-37611007D01*
X53222446Y-37633529D01*
X53212218Y-37655153D01*
X53199921Y-37675670D01*
X53185671Y-37694883D01*
X53169607Y-37712607D01*
X53151883Y-37728671D01*
X53132670Y-37742921D01*
X53112153Y-37755218D01*
X53090529Y-37765446D01*
X53068007Y-37773504D01*
X53044803Y-37779316D01*
X53021142Y-37782826D01*
X52997250Y-37784000D01*
X52509750Y-37784000D01*
X52485858Y-37782826D01*
X52462197Y-37779316D01*
X52438993Y-37773504D01*
X52416471Y-37765446D01*
X52394847Y-37755218D01*
X52374330Y-37742921D01*
X52355117Y-37728671D01*
X52337393Y-37712607D01*
X52321329Y-37694883D01*
X52307079Y-37675670D01*
X52294782Y-37655153D01*
X52284554Y-37633529D01*
X52276496Y-37611007D01*
X52270684Y-37587803D01*
X52267174Y-37564142D01*
X52266000Y-37540250D01*
X52266000Y-36627750D01*
X52267174Y-36603858D01*
X52270684Y-36580197D01*
X52276496Y-36556993D01*
X52284554Y-36534471D01*
X52294782Y-36512847D01*
X52307079Y-36492330D01*
X52321329Y-36473117D01*
X52337393Y-36455393D01*
X52355117Y-36439329D01*
X52374330Y-36425079D01*
X52394847Y-36412782D01*
X52416471Y-36402554D01*
X52438993Y-36394496D01*
X52462197Y-36388684D01*
X52485858Y-36385174D01*
X52509750Y-36384000D01*
X52997250Y-36384000D01*
X53021142Y-36385174D01*
G37*
G36*
X51146142Y-36385174D02*
G01*
X51169803Y-36388684D01*
X51193007Y-36394496D01*
X51215529Y-36402554D01*
X51237153Y-36412782D01*
X51257670Y-36425079D01*
X51276883Y-36439329D01*
X51294607Y-36455393D01*
X51310671Y-36473117D01*
X51324921Y-36492330D01*
X51337218Y-36512847D01*
X51347446Y-36534471D01*
X51355504Y-36556993D01*
X51361316Y-36580197D01*
X51364826Y-36603858D01*
X51366000Y-36627750D01*
X51366000Y-37540250D01*
X51364826Y-37564142D01*
X51361316Y-37587803D01*
X51355504Y-37611007D01*
X51347446Y-37633529D01*
X51337218Y-37655153D01*
X51324921Y-37675670D01*
X51310671Y-37694883D01*
X51294607Y-37712607D01*
X51276883Y-37728671D01*
X51257670Y-37742921D01*
X51237153Y-37755218D01*
X51215529Y-37765446D01*
X51193007Y-37773504D01*
X51169803Y-37779316D01*
X51146142Y-37782826D01*
X51122250Y-37784000D01*
X50634750Y-37784000D01*
X50610858Y-37782826D01*
X50587197Y-37779316D01*
X50563993Y-37773504D01*
X50541471Y-37765446D01*
X50519847Y-37755218D01*
X50499330Y-37742921D01*
X50480117Y-37728671D01*
X50462393Y-37712607D01*
X50446329Y-37694883D01*
X50432079Y-37675670D01*
X50419782Y-37655153D01*
X50409554Y-37633529D01*
X50401496Y-37611007D01*
X50395684Y-37587803D01*
X50392174Y-37564142D01*
X50391000Y-37540250D01*
X50391000Y-36627750D01*
X50392174Y-36603858D01*
X50395684Y-36580197D01*
X50401496Y-36556993D01*
X50409554Y-36534471D01*
X50419782Y-36512847D01*
X50432079Y-36492330D01*
X50446329Y-36473117D01*
X50462393Y-36455393D01*
X50480117Y-36439329D01*
X50499330Y-36425079D01*
X50519847Y-36412782D01*
X50541471Y-36402554D01*
X50563993Y-36394496D01*
X50587197Y-36388684D01*
X50610858Y-36385174D01*
X50634750Y-36384000D01*
X51122250Y-36384000D01*
X51146142Y-36385174D01*
G37*
G36*
X46828142Y-36385174D02*
G01*
X46851803Y-36388684D01*
X46875007Y-36394496D01*
X46897529Y-36402554D01*
X46919153Y-36412782D01*
X46939670Y-36425079D01*
X46958883Y-36439329D01*
X46976607Y-36455393D01*
X46992671Y-36473117D01*
X47006921Y-36492330D01*
X47019218Y-36512847D01*
X47029446Y-36534471D01*
X47037504Y-36556993D01*
X47043316Y-36580197D01*
X47046826Y-36603858D01*
X47048000Y-36627750D01*
X47048000Y-37540250D01*
X47046826Y-37564142D01*
X47043316Y-37587803D01*
X47037504Y-37611007D01*
X47029446Y-37633529D01*
X47019218Y-37655153D01*
X47006921Y-37675670D01*
X46992671Y-37694883D01*
X46976607Y-37712607D01*
X46958883Y-37728671D01*
X46939670Y-37742921D01*
X46919153Y-37755218D01*
X46897529Y-37765446D01*
X46875007Y-37773504D01*
X46851803Y-37779316D01*
X46828142Y-37782826D01*
X46804250Y-37784000D01*
X46316750Y-37784000D01*
X46292858Y-37782826D01*
X46269197Y-37779316D01*
X46245993Y-37773504D01*
X46223471Y-37765446D01*
X46201847Y-37755218D01*
X46181330Y-37742921D01*
X46162117Y-37728671D01*
X46144393Y-37712607D01*
X46128329Y-37694883D01*
X46114079Y-37675670D01*
X46101782Y-37655153D01*
X46091554Y-37633529D01*
X46083496Y-37611007D01*
X46077684Y-37587803D01*
X46074174Y-37564142D01*
X46073000Y-37540250D01*
X46073000Y-36627750D01*
X46074174Y-36603858D01*
X46077684Y-36580197D01*
X46083496Y-36556993D01*
X46091554Y-36534471D01*
X46101782Y-36512847D01*
X46114079Y-36492330D01*
X46128329Y-36473117D01*
X46144393Y-36455393D01*
X46162117Y-36439329D01*
X46181330Y-36425079D01*
X46201847Y-36412782D01*
X46223471Y-36402554D01*
X46245993Y-36394496D01*
X46269197Y-36388684D01*
X46292858Y-36385174D01*
X46316750Y-36384000D01*
X46804250Y-36384000D01*
X46828142Y-36385174D01*
G37*
G36*
X48703142Y-36385174D02*
G01*
X48726803Y-36388684D01*
X48750007Y-36394496D01*
X48772529Y-36402554D01*
X48794153Y-36412782D01*
X48814670Y-36425079D01*
X48833883Y-36439329D01*
X48851607Y-36455393D01*
X48867671Y-36473117D01*
X48881921Y-36492330D01*
X48894218Y-36512847D01*
X48904446Y-36534471D01*
X48912504Y-36556993D01*
X48918316Y-36580197D01*
X48921826Y-36603858D01*
X48923000Y-36627750D01*
X48923000Y-37540250D01*
X48921826Y-37564142D01*
X48918316Y-37587803D01*
X48912504Y-37611007D01*
X48904446Y-37633529D01*
X48894218Y-37655153D01*
X48881921Y-37675670D01*
X48867671Y-37694883D01*
X48851607Y-37712607D01*
X48833883Y-37728671D01*
X48814670Y-37742921D01*
X48794153Y-37755218D01*
X48772529Y-37765446D01*
X48750007Y-37773504D01*
X48726803Y-37779316D01*
X48703142Y-37782826D01*
X48679250Y-37784000D01*
X48191750Y-37784000D01*
X48167858Y-37782826D01*
X48144197Y-37779316D01*
X48120993Y-37773504D01*
X48098471Y-37765446D01*
X48076847Y-37755218D01*
X48056330Y-37742921D01*
X48037117Y-37728671D01*
X48019393Y-37712607D01*
X48003329Y-37694883D01*
X47989079Y-37675670D01*
X47976782Y-37655153D01*
X47966554Y-37633529D01*
X47958496Y-37611007D01*
X47952684Y-37587803D01*
X47949174Y-37564142D01*
X47948000Y-37540250D01*
X47948000Y-36627750D01*
X47949174Y-36603858D01*
X47952684Y-36580197D01*
X47958496Y-36556993D01*
X47966554Y-36534471D01*
X47976782Y-36512847D01*
X47989079Y-36492330D01*
X48003329Y-36473117D01*
X48019393Y-36455393D01*
X48037117Y-36439329D01*
X48056330Y-36425079D01*
X48076847Y-36412782D01*
X48098471Y-36402554D01*
X48120993Y-36394496D01*
X48144197Y-36388684D01*
X48167858Y-36385174D01*
X48191750Y-36384000D01*
X48679250Y-36384000D01*
X48703142Y-36385174D01*
G37*
G36*
X24730142Y-38163174D02*
G01*
X24753803Y-38166684D01*
X24777007Y-38172496D01*
X24799529Y-38180554D01*
X24821153Y-38190782D01*
X24841670Y-38203079D01*
X24860883Y-38217329D01*
X24878607Y-38233393D01*
X24894671Y-38251117D01*
X24908921Y-38270330D01*
X24921218Y-38290847D01*
X24931446Y-38312471D01*
X24939504Y-38334993D01*
X24945316Y-38358197D01*
X24948826Y-38381858D01*
X24950000Y-38405750D01*
X24950000Y-39318250D01*
X24948826Y-39342142D01*
X24945316Y-39365803D01*
X24939504Y-39389007D01*
X24931446Y-39411529D01*
X24921218Y-39433153D01*
X24908921Y-39453670D01*
X24894671Y-39472883D01*
X24878607Y-39490607D01*
X24860883Y-39506671D01*
X24841670Y-39520921D01*
X24821153Y-39533218D01*
X24799529Y-39543446D01*
X24777007Y-39551504D01*
X24753803Y-39557316D01*
X24730142Y-39560826D01*
X24706250Y-39562000D01*
X24218750Y-39562000D01*
X24194858Y-39560826D01*
X24171197Y-39557316D01*
X24147993Y-39551504D01*
X24125471Y-39543446D01*
X24103847Y-39533218D01*
X24083330Y-39520921D01*
X24064117Y-39506671D01*
X24046393Y-39490607D01*
X24030329Y-39472883D01*
X24016079Y-39453670D01*
X24003782Y-39433153D01*
X23993554Y-39411529D01*
X23985496Y-39389007D01*
X23979684Y-39365803D01*
X23976174Y-39342142D01*
X23975000Y-39318250D01*
X23975000Y-38405750D01*
X23976174Y-38381858D01*
X23979684Y-38358197D01*
X23985496Y-38334993D01*
X23993554Y-38312471D01*
X24003782Y-38290847D01*
X24016079Y-38270330D01*
X24030329Y-38251117D01*
X24046393Y-38233393D01*
X24064117Y-38217329D01*
X24083330Y-38203079D01*
X24103847Y-38190782D01*
X24125471Y-38180554D01*
X24147993Y-38172496D01*
X24171197Y-38166684D01*
X24194858Y-38163174D01*
X24218750Y-38162000D01*
X24706250Y-38162000D01*
X24730142Y-38163174D01*
G37*
G36*
X26605142Y-38163174D02*
G01*
X26628803Y-38166684D01*
X26652007Y-38172496D01*
X26674529Y-38180554D01*
X26696153Y-38190782D01*
X26716670Y-38203079D01*
X26735883Y-38217329D01*
X26753607Y-38233393D01*
X26769671Y-38251117D01*
X26783921Y-38270330D01*
X26796218Y-38290847D01*
X26806446Y-38312471D01*
X26814504Y-38334993D01*
X26820316Y-38358197D01*
X26823826Y-38381858D01*
X26825000Y-38405750D01*
X26825000Y-39318250D01*
X26823826Y-39342142D01*
X26820316Y-39365803D01*
X26814504Y-39389007D01*
X26806446Y-39411529D01*
X26796218Y-39433153D01*
X26783921Y-39453670D01*
X26769671Y-39472883D01*
X26753607Y-39490607D01*
X26735883Y-39506671D01*
X26716670Y-39520921D01*
X26696153Y-39533218D01*
X26674529Y-39543446D01*
X26652007Y-39551504D01*
X26628803Y-39557316D01*
X26605142Y-39560826D01*
X26581250Y-39562000D01*
X26093750Y-39562000D01*
X26069858Y-39560826D01*
X26046197Y-39557316D01*
X26022993Y-39551504D01*
X26000471Y-39543446D01*
X25978847Y-39533218D01*
X25958330Y-39520921D01*
X25939117Y-39506671D01*
X25921393Y-39490607D01*
X25905329Y-39472883D01*
X25891079Y-39453670D01*
X25878782Y-39433153D01*
X25868554Y-39411529D01*
X25860496Y-39389007D01*
X25854684Y-39365803D01*
X25851174Y-39342142D01*
X25850000Y-39318250D01*
X25850000Y-38405750D01*
X25851174Y-38381858D01*
X25854684Y-38358197D01*
X25860496Y-38334993D01*
X25868554Y-38312471D01*
X25878782Y-38290847D01*
X25891079Y-38270330D01*
X25905329Y-38251117D01*
X25921393Y-38233393D01*
X25939117Y-38217329D01*
X25958330Y-38203079D01*
X25978847Y-38190782D01*
X26000471Y-38180554D01*
X26022993Y-38172496D01*
X26046197Y-38166684D01*
X26069858Y-38163174D01*
X26093750Y-38162000D01*
X26581250Y-38162000D01*
X26605142Y-38163174D01*
G37*
G36*
X26605142Y-41465174D02*
G01*
X26628803Y-41468684D01*
X26652007Y-41474496D01*
X26674529Y-41482554D01*
X26696153Y-41492782D01*
X26716670Y-41505079D01*
X26735883Y-41519329D01*
X26753607Y-41535393D01*
X26769671Y-41553117D01*
X26783921Y-41572330D01*
X26796218Y-41592847D01*
X26806446Y-41614471D01*
X26814504Y-41636993D01*
X26820316Y-41660197D01*
X26823826Y-41683858D01*
X26825000Y-41707750D01*
X26825000Y-42620250D01*
X26823826Y-42644142D01*
X26820316Y-42667803D01*
X26814504Y-42691007D01*
X26806446Y-42713529D01*
X26796218Y-42735153D01*
X26783921Y-42755670D01*
X26769671Y-42774883D01*
X26753607Y-42792607D01*
X26735883Y-42808671D01*
X26716670Y-42822921D01*
X26696153Y-42835218D01*
X26674529Y-42845446D01*
X26652007Y-42853504D01*
X26628803Y-42859316D01*
X26605142Y-42862826D01*
X26581250Y-42864000D01*
X26093750Y-42864000D01*
X26069858Y-42862826D01*
X26046197Y-42859316D01*
X26022993Y-42853504D01*
X26000471Y-42845446D01*
X25978847Y-42835218D01*
X25958330Y-42822921D01*
X25939117Y-42808671D01*
X25921393Y-42792607D01*
X25905329Y-42774883D01*
X25891079Y-42755670D01*
X25878782Y-42735153D01*
X25868554Y-42713529D01*
X25860496Y-42691007D01*
X25854684Y-42667803D01*
X25851174Y-42644142D01*
X25850000Y-42620250D01*
X25850000Y-41707750D01*
X25851174Y-41683858D01*
X25854684Y-41660197D01*
X25860496Y-41636993D01*
X25868554Y-41614471D01*
X25878782Y-41592847D01*
X25891079Y-41572330D01*
X25905329Y-41553117D01*
X25921393Y-41535393D01*
X25939117Y-41519329D01*
X25958330Y-41505079D01*
X25978847Y-41492782D01*
X26000471Y-41482554D01*
X26022993Y-41474496D01*
X26046197Y-41468684D01*
X26069858Y-41465174D01*
X26093750Y-41464000D01*
X26581250Y-41464000D01*
X26605142Y-41465174D01*
G37*
G36*
X24730142Y-41465174D02*
G01*
X24753803Y-41468684D01*
X24777007Y-41474496D01*
X24799529Y-41482554D01*
X24821153Y-41492782D01*
X24841670Y-41505079D01*
X24860883Y-41519329D01*
X24878607Y-41535393D01*
X24894671Y-41553117D01*
X24908921Y-41572330D01*
X24921218Y-41592847D01*
X24931446Y-41614471D01*
X24939504Y-41636993D01*
X24945316Y-41660197D01*
X24948826Y-41683858D01*
X24950000Y-41707750D01*
X24950000Y-42620250D01*
X24948826Y-42644142D01*
X24945316Y-42667803D01*
X24939504Y-42691007D01*
X24931446Y-42713529D01*
X24921218Y-42735153D01*
X24908921Y-42755670D01*
X24894671Y-42774883D01*
X24878607Y-42792607D01*
X24860883Y-42808671D01*
X24841670Y-42822921D01*
X24821153Y-42835218D01*
X24799529Y-42845446D01*
X24777007Y-42853504D01*
X24753803Y-42859316D01*
X24730142Y-42862826D01*
X24706250Y-42864000D01*
X24218750Y-42864000D01*
X24194858Y-42862826D01*
X24171197Y-42859316D01*
X24147993Y-42853504D01*
X24125471Y-42845446D01*
X24103847Y-42835218D01*
X24083330Y-42822921D01*
X24064117Y-42808671D01*
X24046393Y-42792607D01*
X24030329Y-42774883D01*
X24016079Y-42755670D01*
X24003782Y-42735153D01*
X23993554Y-42713529D01*
X23985496Y-42691007D01*
X23979684Y-42667803D01*
X23976174Y-42644142D01*
X23975000Y-42620250D01*
X23975000Y-41707750D01*
X23976174Y-41683858D01*
X23979684Y-41660197D01*
X23985496Y-41636993D01*
X23993554Y-41614471D01*
X24003782Y-41592847D01*
X24016079Y-41572330D01*
X24030329Y-41553117D01*
X24046393Y-41535393D01*
X24064117Y-41519329D01*
X24083330Y-41505079D01*
X24103847Y-41492782D01*
X24125471Y-41482554D01*
X24147993Y-41474496D01*
X24171197Y-41468684D01*
X24194858Y-41465174D01*
X24218750Y-41464000D01*
X24706250Y-41464000D01*
X24730142Y-41465174D01*
G37*
D12*
X25400000Y-25400000D03*
D11*
X27940000Y-25400000D03*
X30480000Y-25400000D03*
D14*
X46624000Y-29380000D03*
X45324000Y-29380000D03*
X45974000Y-31580000D03*
X45974000Y-29380000D03*
X45324000Y-31580000D03*
X46624000Y-31580000D03*
D15*
X29784000Y-41486000D03*
X30734000Y-41486000D03*
X31684000Y-41486000D03*
X31684000Y-39286000D03*
X29784000Y-39286000D03*
M02*
