G04 #@! TF.GenerationSoftware,KiCad,Pcbnew,5.1.5+dfsg1-2build2*
G04 #@! TF.CreationDate,2021-06-15T05:03:55+02:00*
G04 #@! TF.ProjectId,circuit9,63697263-7569-4743-992e-6b696361645f,rev?*
G04 #@! TF.SameCoordinates,Original*
G04 #@! TF.FileFunction,Copper,L2,Bot*
G04 #@! TF.FilePolarity,Positive*
%FSLAX46Y46*%
G04 Gerber Fmt 4.6, Leading zero omitted, Abs format (unit mm)*
G04 Created by KiCad (PCBNEW 5.1.5+dfsg1-2build2) date 2021-06-15 05:03:55*
%MOMM*%
%LPD*%
G04 APERTURE LIST*
%ADD10O,1.700000X1.700000*%
%ADD11R,1.700000X1.700000*%
%ADD12R,6.000000X3.000000*%
%ADD13C,0.100000*%
%ADD14C,0.800000*%
%ADD15C,1.000000*%
%ADD16C,0.500000*%
%ADD17C,0.250000*%
%ADD18C,0.800000*%
%ADD19C,0.254000*%
G04 APERTURE END LIST*
D10*
X67056000Y-50457100D03*
X64516000Y-50457100D03*
X61976000Y-50457100D03*
X59436000Y-50457100D03*
X56896000Y-50457100D03*
X54356000Y-50457100D03*
X51816000Y-50457100D03*
X49276000Y-50457100D03*
X46736000Y-50457100D03*
X44196000Y-50457100D03*
X41656000Y-50457100D03*
X39116000Y-50457100D03*
X36576000Y-50457100D03*
D11*
X34036000Y-50457100D03*
D10*
X31496000Y-50457100D03*
X67056000Y-35217100D03*
X64516000Y-35217100D03*
X61976000Y-35217100D03*
X59436000Y-35217100D03*
X56896000Y-35217100D03*
X54356000Y-35217100D03*
X51816000Y-35217100D03*
X49276000Y-35217100D03*
X46736000Y-35217100D03*
X44196000Y-35217100D03*
X41656000Y-35217100D03*
D11*
X39116000Y-35217100D03*
D10*
X36576000Y-35217100D03*
X34036000Y-35217100D03*
X31496000Y-35217100D03*
D12*
X61624400Y-27355800D03*
X32224400Y-27355800D03*
X67224400Y-27355800D03*
X26624400Y-27355800D03*
D10*
X24521160Y-40815260D03*
X24521160Y-38275260D03*
X24521160Y-35735260D03*
G04 #@! TA.AperFunction,SMDPad,CuDef*
D13*
G36*
X42431400Y-47866440D02*
G01*
X42431400Y-48366440D01*
X42430798Y-48366440D01*
X42430798Y-48390974D01*
X42425988Y-48439805D01*
X42416416Y-48487930D01*
X42402172Y-48534885D01*
X42383395Y-48580218D01*
X42360264Y-48623491D01*
X42333004Y-48664290D01*
X42301876Y-48702219D01*
X42267179Y-48736916D01*
X42229250Y-48768044D01*
X42188451Y-48795304D01*
X42145178Y-48818435D01*
X42099845Y-48837212D01*
X42052890Y-48851456D01*
X42004765Y-48861028D01*
X41955934Y-48865838D01*
X41931400Y-48865838D01*
X41931400Y-48866440D01*
X41431400Y-48866440D01*
X41431400Y-48865838D01*
X41406866Y-48865838D01*
X41358035Y-48861028D01*
X41309910Y-48851456D01*
X41262955Y-48837212D01*
X41217622Y-48818435D01*
X41174349Y-48795304D01*
X41133550Y-48768044D01*
X41095621Y-48736916D01*
X41060924Y-48702219D01*
X41029796Y-48664290D01*
X41002536Y-48623491D01*
X40979405Y-48580218D01*
X40960628Y-48534885D01*
X40946384Y-48487930D01*
X40936812Y-48439805D01*
X40932002Y-48390974D01*
X40932002Y-48366440D01*
X40931400Y-48366440D01*
X40931400Y-47866440D01*
X42431400Y-47866440D01*
G37*
G04 #@! TD.AperFunction*
G04 #@! TA.AperFunction,SMDPad,CuDef*
G36*
X40932002Y-47066440D02*
G01*
X40932002Y-47041906D01*
X40936812Y-46993075D01*
X40946384Y-46944950D01*
X40960628Y-46897995D01*
X40979405Y-46852662D01*
X41002536Y-46809389D01*
X41029796Y-46768590D01*
X41060924Y-46730661D01*
X41095621Y-46695964D01*
X41133550Y-46664836D01*
X41174349Y-46637576D01*
X41217622Y-46614445D01*
X41262955Y-46595668D01*
X41309910Y-46581424D01*
X41358035Y-46571852D01*
X41406866Y-46567042D01*
X41431400Y-46567042D01*
X41431400Y-46566440D01*
X41931400Y-46566440D01*
X41931400Y-46567042D01*
X41955934Y-46567042D01*
X42004765Y-46571852D01*
X42052890Y-46581424D01*
X42099845Y-46595668D01*
X42145178Y-46614445D01*
X42188451Y-46637576D01*
X42229250Y-46664836D01*
X42267179Y-46695964D01*
X42301876Y-46730661D01*
X42333004Y-46768590D01*
X42360264Y-46809389D01*
X42383395Y-46852662D01*
X42402172Y-46897995D01*
X42416416Y-46944950D01*
X42425988Y-46993075D01*
X42430798Y-47041906D01*
X42430798Y-47066440D01*
X42431400Y-47066440D01*
X42431400Y-47566440D01*
X40931400Y-47566440D01*
X40931400Y-47066440D01*
X40932002Y-47066440D01*
G37*
G04 #@! TD.AperFunction*
D10*
X24528780Y-45892720D03*
D11*
X24528780Y-48432720D03*
D10*
X24528780Y-50972720D03*
X67063620Y-52984400D03*
X64523620Y-52984400D03*
X61983620Y-52984400D03*
X59443620Y-52984400D03*
X56903620Y-52984400D03*
X54363620Y-52984400D03*
X51823620Y-52984400D03*
X49283620Y-52984400D03*
X46743620Y-52984400D03*
X44203620Y-52984400D03*
X41663620Y-52984400D03*
X39123620Y-52984400D03*
X36583620Y-52984400D03*
X34043620Y-52984400D03*
X31503620Y-52984400D03*
D11*
X28963620Y-52984400D03*
X26423620Y-52984400D03*
D14*
X30332680Y-41910000D03*
X31186120Y-41904920D03*
X63931800Y-38836600D03*
X28917900Y-41899840D03*
X28079700Y-41899840D03*
X34767520Y-41473120D03*
X33639760Y-41462960D03*
X36009580Y-42621200D03*
X57302400Y-44678600D03*
X56286400Y-44678600D03*
X35778440Y-40147240D03*
X34490660Y-45674280D03*
X59093100Y-38823900D03*
X57658000Y-42926000D03*
X32697600Y-40005000D03*
X32697600Y-43400800D03*
D15*
X68123562Y-28487819D02*
X68169724Y-28417904D01*
X67806995Y-28804386D02*
X68123562Y-28487819D01*
X62072986Y-28804386D02*
X67806995Y-28804386D01*
X60624400Y-27355800D02*
X62072986Y-28804386D01*
X33224400Y-27355800D02*
X25624400Y-27355800D01*
D16*
X35778440Y-40147240D02*
X37005260Y-41374060D01*
X37005260Y-43159680D02*
X34490660Y-45674280D01*
X37005260Y-41374060D02*
X37005260Y-43159680D01*
D17*
X41691560Y-48208720D02*
X41691560Y-50274220D01*
D18*
X59093100Y-38823900D02*
X59093100Y-41490900D01*
X59093100Y-41490900D02*
X57658000Y-42926000D01*
X57658000Y-42926000D02*
X57658000Y-42926000D01*
D17*
X47889160Y-36603940D02*
X26576020Y-36603940D01*
X49276000Y-35217100D02*
X47889160Y-36603940D01*
X26576020Y-36603940D02*
X25742900Y-37437060D01*
X25742900Y-44678600D02*
X24528780Y-45892720D01*
X25742900Y-37437060D02*
X25742900Y-44678600D01*
X51816000Y-35217100D02*
X49962150Y-37070950D01*
X26854720Y-37109400D02*
X26706970Y-37109400D01*
X26893170Y-37070950D02*
X26854720Y-37109400D01*
X49962150Y-37070950D02*
X26893170Y-37070950D01*
X25378779Y-50122721D02*
X24528780Y-50972720D01*
X26192910Y-49308590D02*
X25378779Y-50122721D01*
X26192910Y-37623460D02*
X26192910Y-49308590D01*
X26706970Y-37109400D02*
X26192910Y-37623460D01*
D16*
X32697600Y-40403600D02*
X32697600Y-43400800D01*
D17*
X41681400Y-47066440D02*
X33632140Y-47066440D01*
X32697600Y-46131900D02*
X33632140Y-47066440D01*
X32697600Y-43400800D02*
X32697600Y-46131900D01*
D16*
X32697600Y-40005000D02*
X32697600Y-40403600D01*
D19*
G36*
X64358926Y-24088904D02*
G01*
X67353834Y-26073031D01*
X67549053Y-26422889D01*
X67532056Y-26415849D01*
X67317685Y-26373208D01*
X67099115Y-26373208D01*
X66884744Y-26415849D01*
X66682811Y-26499492D01*
X66501076Y-26620923D01*
X66346523Y-26775476D01*
X66225092Y-26957211D01*
X66141449Y-27159144D01*
X66098808Y-27373515D01*
X66098808Y-27592085D01*
X66141449Y-27806456D01*
X66225092Y-28008389D01*
X66346523Y-28190124D01*
X66501076Y-28344677D01*
X66682811Y-28466108D01*
X66884744Y-28549751D01*
X67099115Y-28592392D01*
X67317685Y-28592392D01*
X67532056Y-28549751D01*
X67733989Y-28466108D01*
X67915724Y-28344677D01*
X68070277Y-28190124D01*
X68191708Y-28008389D01*
X68275351Y-27806456D01*
X68287367Y-27746048D01*
X69589597Y-30079820D01*
X70212000Y-33233760D01*
X70212001Y-45694101D01*
X66314052Y-44907172D01*
X66290824Y-44904674D01*
X62902464Y-44853874D01*
X62877654Y-44855943D01*
X62853444Y-44862923D01*
X59795284Y-46084663D01*
X59773181Y-46096121D01*
X59761133Y-46105005D01*
X56421033Y-48886305D01*
X56403555Y-48904035D01*
X56389871Y-48924834D01*
X56380508Y-48947903D01*
X56376572Y-48965973D01*
X56335666Y-49252864D01*
X56267430Y-49281128D01*
X56050087Y-49426352D01*
X55865252Y-49611187D01*
X55720028Y-49828530D01*
X55626000Y-50055533D01*
X55531972Y-49828530D01*
X55386748Y-49611187D01*
X55201913Y-49426352D01*
X54984570Y-49281128D01*
X54743072Y-49181096D01*
X54486698Y-49130100D01*
X54225302Y-49130100D01*
X53968928Y-49181096D01*
X53727430Y-49281128D01*
X53510087Y-49426352D01*
X53325252Y-49611187D01*
X53180028Y-49828530D01*
X53086000Y-50055533D01*
X52991972Y-49828530D01*
X52846748Y-49611187D01*
X52661913Y-49426352D01*
X52444570Y-49281128D01*
X52203072Y-49181096D01*
X51946698Y-49130100D01*
X51685302Y-49130100D01*
X51428928Y-49181096D01*
X51187430Y-49281128D01*
X50970087Y-49426352D01*
X50785252Y-49611187D01*
X50640028Y-49828530D01*
X50546000Y-50055533D01*
X50451972Y-49828530D01*
X50306748Y-49611187D01*
X50121913Y-49426352D01*
X49904570Y-49281128D01*
X49663072Y-49181096D01*
X49406698Y-49130100D01*
X49145302Y-49130100D01*
X48888928Y-49181096D01*
X48647430Y-49281128D01*
X48430087Y-49426352D01*
X48245252Y-49611187D01*
X48100028Y-49828530D01*
X48006000Y-50055533D01*
X47911972Y-49828530D01*
X47766748Y-49611187D01*
X47581913Y-49426352D01*
X47364570Y-49281128D01*
X47123072Y-49181096D01*
X46866698Y-49130100D01*
X46605302Y-49130100D01*
X46348928Y-49181096D01*
X46107430Y-49281128D01*
X45890087Y-49426352D01*
X45705252Y-49611187D01*
X45560028Y-49828530D01*
X45466000Y-50055533D01*
X45371972Y-49828530D01*
X45226748Y-49611187D01*
X45041913Y-49426352D01*
X44824570Y-49281128D01*
X44583072Y-49181096D01*
X44326698Y-49130100D01*
X44065302Y-49130100D01*
X43808928Y-49181096D01*
X43567430Y-49281128D01*
X43350087Y-49426352D01*
X43165252Y-49611187D01*
X43020028Y-49828530D01*
X42926000Y-50055533D01*
X42831972Y-49828530D01*
X42686748Y-49611187D01*
X42501913Y-49426352D01*
X42293560Y-49287135D01*
X42293560Y-49273818D01*
X42350519Y-49250225D01*
X42433388Y-49205931D01*
X42514887Y-49151475D01*
X42587519Y-49091867D01*
X42656827Y-49022559D01*
X42716435Y-48949927D01*
X42770891Y-48868428D01*
X42815185Y-48785559D01*
X42852694Y-48695003D01*
X42879968Y-48605090D01*
X42899090Y-48508957D01*
X42908300Y-48415449D01*
X42908300Y-48390888D01*
X42910708Y-48366440D01*
X42910708Y-47866440D01*
X42901498Y-47772932D01*
X42884362Y-47716440D01*
X42901498Y-47659948D01*
X42910708Y-47566440D01*
X42910708Y-47066440D01*
X42908300Y-47041992D01*
X42908300Y-47017431D01*
X42899090Y-46923923D01*
X42879968Y-46827790D01*
X42852694Y-46737877D01*
X42815185Y-46647321D01*
X42770891Y-46564452D01*
X42716435Y-46482953D01*
X42656827Y-46410321D01*
X42587519Y-46341013D01*
X42514887Y-46281405D01*
X42433388Y-46226949D01*
X42350519Y-46182655D01*
X42259963Y-46145146D01*
X42170050Y-46117872D01*
X42073917Y-46098750D01*
X41980409Y-46089540D01*
X41955848Y-46089540D01*
X41931400Y-46087132D01*
X41431400Y-46087132D01*
X41406952Y-46089540D01*
X41382391Y-46089540D01*
X41288883Y-46098750D01*
X41192750Y-46117872D01*
X41102837Y-46145146D01*
X41012281Y-46182655D01*
X40929412Y-46226949D01*
X40847913Y-46281405D01*
X40775281Y-46341013D01*
X40705973Y-46410321D01*
X40661558Y-46464440D01*
X34874755Y-46464440D01*
X34906075Y-46451467D01*
X35049715Y-46355490D01*
X35171870Y-46233335D01*
X35267847Y-46089695D01*
X35333957Y-45930091D01*
X35351581Y-45841491D01*
X37494072Y-43699001D01*
X37521814Y-43676234D01*
X37612663Y-43565533D01*
X37680170Y-43439237D01*
X37721740Y-43302197D01*
X37732260Y-43195388D01*
X37732260Y-43195386D01*
X37735777Y-43159681D01*
X37732260Y-43123975D01*
X37732260Y-42926000D01*
X56776757Y-42926000D01*
X56781000Y-42969079D01*
X56781000Y-43012377D01*
X56789447Y-43054842D01*
X56793690Y-43097922D01*
X56806256Y-43139348D01*
X56814703Y-43181811D01*
X56831271Y-43221811D01*
X56843838Y-43263237D01*
X56864245Y-43301415D01*
X56880813Y-43341415D01*
X56904866Y-43377413D01*
X56925273Y-43415592D01*
X56952737Y-43449057D01*
X56976790Y-43485055D01*
X57007403Y-43515668D01*
X57034867Y-43549133D01*
X57068332Y-43576597D01*
X57098945Y-43607210D01*
X57134943Y-43631263D01*
X57168408Y-43658727D01*
X57206587Y-43679134D01*
X57242585Y-43703187D01*
X57282585Y-43719755D01*
X57320763Y-43740162D01*
X57362189Y-43752729D01*
X57402189Y-43769297D01*
X57444653Y-43777744D01*
X57486078Y-43790310D01*
X57529158Y-43794553D01*
X57571623Y-43803000D01*
X57614921Y-43803000D01*
X57658000Y-43807243D01*
X57701079Y-43803000D01*
X57744377Y-43803000D01*
X57786842Y-43794553D01*
X57829922Y-43790310D01*
X57871348Y-43777744D01*
X57913811Y-43769297D01*
X57953811Y-43752729D01*
X57995237Y-43740162D01*
X58033415Y-43719755D01*
X58073415Y-43703187D01*
X58109413Y-43679134D01*
X58147592Y-43658727D01*
X58181057Y-43631263D01*
X58217055Y-43607210D01*
X58247668Y-43576597D01*
X58281133Y-43549133D01*
X58308597Y-43515668D01*
X58339210Y-43485055D01*
X59682774Y-42141492D01*
X59716233Y-42114033D01*
X59825827Y-41980492D01*
X59907262Y-41828137D01*
X59957410Y-41662822D01*
X59957573Y-41661173D01*
X59974343Y-41490900D01*
X59970100Y-41447821D01*
X59970100Y-38737523D01*
X59961653Y-38695058D01*
X59957410Y-38651978D01*
X59944844Y-38610552D01*
X59936397Y-38568089D01*
X59919829Y-38528089D01*
X59907262Y-38486663D01*
X59886855Y-38448485D01*
X59870287Y-38408485D01*
X59846234Y-38372487D01*
X59825827Y-38334308D01*
X59798363Y-38300843D01*
X59774310Y-38264845D01*
X59743697Y-38234232D01*
X59716233Y-38200767D01*
X59682769Y-38173304D01*
X59652155Y-38142690D01*
X59616153Y-38118634D01*
X59582691Y-38091173D01*
X59544517Y-38070769D01*
X59508515Y-38046713D01*
X59468511Y-38030143D01*
X59430336Y-38009738D01*
X59388914Y-37997173D01*
X59348911Y-37980603D01*
X59306445Y-37972156D01*
X59265021Y-37959590D01*
X59221943Y-37955347D01*
X59179477Y-37946900D01*
X59136179Y-37946900D01*
X59093100Y-37942657D01*
X59050021Y-37946900D01*
X59006723Y-37946900D01*
X58964258Y-37955347D01*
X58921178Y-37959590D01*
X58879752Y-37972156D01*
X58837289Y-37980603D01*
X58797289Y-37997171D01*
X58755863Y-38009738D01*
X58717685Y-38030145D01*
X58677685Y-38046713D01*
X58641687Y-38070766D01*
X58603508Y-38091173D01*
X58570043Y-38118637D01*
X58534045Y-38142690D01*
X58503432Y-38173303D01*
X58469967Y-38200767D01*
X58442504Y-38234231D01*
X58411890Y-38264845D01*
X58387834Y-38300847D01*
X58360373Y-38334309D01*
X58339969Y-38372483D01*
X58315913Y-38408485D01*
X58299343Y-38448489D01*
X58278938Y-38486664D01*
X58266373Y-38528086D01*
X58249803Y-38568089D01*
X58241356Y-38610555D01*
X58228790Y-38651979D01*
X58224547Y-38695057D01*
X58216100Y-38737523D01*
X58216100Y-38780822D01*
X58216101Y-41127633D01*
X57098945Y-42244790D01*
X57068332Y-42275403D01*
X57034867Y-42302867D01*
X57007406Y-42336329D01*
X56976790Y-42366945D01*
X56952737Y-42402943D01*
X56925273Y-42436408D01*
X56904866Y-42474587D01*
X56880813Y-42510585D01*
X56864245Y-42550585D01*
X56843838Y-42588763D01*
X56831271Y-42630189D01*
X56814703Y-42670189D01*
X56806256Y-42712652D01*
X56793690Y-42754078D01*
X56789447Y-42797158D01*
X56781000Y-42839623D01*
X56781000Y-42882921D01*
X56776757Y-42926000D01*
X37732260Y-42926000D01*
X37732260Y-41409765D01*
X37735777Y-41374059D01*
X37732260Y-41338352D01*
X37721740Y-41231543D01*
X37680170Y-41094503D01*
X37612663Y-40968207D01*
X37521813Y-40857506D01*
X37494076Y-40834743D01*
X36639361Y-39980028D01*
X36621737Y-39891429D01*
X36555627Y-39731825D01*
X36459650Y-39588185D01*
X36337495Y-39466030D01*
X36193855Y-39370053D01*
X36034251Y-39303943D01*
X35864817Y-39270240D01*
X35692063Y-39270240D01*
X35522629Y-39303943D01*
X35363025Y-39370053D01*
X35219385Y-39466030D01*
X35097230Y-39588185D01*
X35001253Y-39731825D01*
X34935143Y-39891429D01*
X34901440Y-40060863D01*
X34901440Y-40233617D01*
X34935143Y-40403051D01*
X35001253Y-40562655D01*
X35097230Y-40706295D01*
X35219385Y-40828450D01*
X35363025Y-40924427D01*
X35522629Y-40990537D01*
X35611228Y-41008161D01*
X36278260Y-41675193D01*
X36278261Y-42858546D01*
X34323449Y-44813359D01*
X34234849Y-44830983D01*
X34075245Y-44897093D01*
X33931605Y-44993070D01*
X33809450Y-45115225D01*
X33713473Y-45258865D01*
X33647363Y-45418469D01*
X33613660Y-45587903D01*
X33613660Y-45760657D01*
X33647363Y-45930091D01*
X33713473Y-46089695D01*
X33809450Y-46233335D01*
X33931605Y-46355490D01*
X34075245Y-46451467D01*
X34106565Y-46464440D01*
X33881497Y-46464440D01*
X33299600Y-45882545D01*
X33299600Y-44039065D01*
X33378810Y-43959855D01*
X33474787Y-43816215D01*
X33540897Y-43656611D01*
X33574600Y-43487177D01*
X33574600Y-43314423D01*
X33540897Y-43144989D01*
X33474787Y-42985385D01*
X33424600Y-42910275D01*
X33424600Y-40495525D01*
X33474787Y-40420415D01*
X33540897Y-40260811D01*
X33574600Y-40091377D01*
X33574600Y-39918623D01*
X33540897Y-39749189D01*
X33474787Y-39589585D01*
X33378810Y-39445945D01*
X33256655Y-39323790D01*
X33113015Y-39227813D01*
X32953411Y-39161703D01*
X32783977Y-39128000D01*
X32611223Y-39128000D01*
X32441789Y-39161703D01*
X32282185Y-39227813D01*
X32138545Y-39323790D01*
X32016390Y-39445945D01*
X31920413Y-39589585D01*
X31854303Y-39749189D01*
X31820600Y-39918623D01*
X31820600Y-40091377D01*
X31854303Y-40260811D01*
X31920413Y-40420415D01*
X31970600Y-40495525D01*
X31970601Y-42910273D01*
X31920413Y-42985385D01*
X31854303Y-43144989D01*
X31820600Y-43314423D01*
X31820600Y-43487177D01*
X31854303Y-43656611D01*
X31920413Y-43816215D01*
X32016390Y-43959855D01*
X32095600Y-44039065D01*
X32095601Y-46102334D01*
X32092689Y-46131900D01*
X32104312Y-46249912D01*
X32138734Y-46363389D01*
X32194635Y-46467971D01*
X32218977Y-46497631D01*
X32269864Y-46559637D01*
X32292829Y-46578484D01*
X33185560Y-47471217D01*
X33204403Y-47494177D01*
X33227363Y-47513020D01*
X33227367Y-47513024D01*
X33283056Y-47558726D01*
X33296069Y-47569406D01*
X33400650Y-47625306D01*
X33514128Y-47659729D01*
X33602574Y-47668440D01*
X33602583Y-47668440D01*
X33632139Y-47671351D01*
X33661696Y-47668440D01*
X40463878Y-47668440D01*
X40478438Y-47716440D01*
X40461302Y-47772932D01*
X40452092Y-47866440D01*
X40452092Y-48366440D01*
X40454500Y-48390888D01*
X40454500Y-48415449D01*
X40463710Y-48508957D01*
X40482832Y-48605090D01*
X40510106Y-48695003D01*
X40547615Y-48785559D01*
X40591909Y-48868428D01*
X40646365Y-48949927D01*
X40705973Y-49022559D01*
X40775281Y-49091867D01*
X40847913Y-49151475D01*
X40929412Y-49205931D01*
X41012281Y-49250225D01*
X41057159Y-49268814D01*
X41027430Y-49281128D01*
X40810087Y-49426352D01*
X40625252Y-49611187D01*
X40480028Y-49828530D01*
X40386000Y-50055533D01*
X40291972Y-49828530D01*
X40146748Y-49611187D01*
X39961913Y-49426352D01*
X39744570Y-49281128D01*
X39503072Y-49181096D01*
X39246698Y-49130100D01*
X38985302Y-49130100D01*
X38728928Y-49181096D01*
X38487430Y-49281128D01*
X38270087Y-49426352D01*
X38085252Y-49611187D01*
X37940028Y-49828530D01*
X37846000Y-50055533D01*
X37751972Y-49828530D01*
X37606748Y-49611187D01*
X37421913Y-49426352D01*
X37204570Y-49281128D01*
X36963072Y-49181096D01*
X36706698Y-49130100D01*
X36445302Y-49130100D01*
X36188928Y-49181096D01*
X35947430Y-49281128D01*
X35730087Y-49426352D01*
X35545252Y-49611187D01*
X35400028Y-49828530D01*
X35365307Y-49912354D01*
X35365307Y-49607100D01*
X35356097Y-49513592D01*
X35328822Y-49423677D01*
X35284529Y-49340811D01*
X35224921Y-49268179D01*
X35152289Y-49208571D01*
X35069423Y-49164278D01*
X34979508Y-49137003D01*
X34886000Y-49127793D01*
X33186000Y-49127793D01*
X33092492Y-49137003D01*
X33002577Y-49164278D01*
X32919711Y-49208571D01*
X32847079Y-49268179D01*
X32787471Y-49340811D01*
X32743178Y-49423677D01*
X32715903Y-49513592D01*
X32706693Y-49607100D01*
X32706693Y-49912354D01*
X32671972Y-49828530D01*
X32526748Y-49611187D01*
X32341913Y-49426352D01*
X32124570Y-49281128D01*
X31883072Y-49181096D01*
X31626698Y-49130100D01*
X31365302Y-49130100D01*
X31108928Y-49181096D01*
X30867430Y-49281128D01*
X30650087Y-49426352D01*
X30465252Y-49611187D01*
X30320028Y-49828530D01*
X30219996Y-50070028D01*
X30169000Y-50326402D01*
X30169000Y-50587798D01*
X30219996Y-50844172D01*
X30320028Y-51085670D01*
X30465252Y-51303013D01*
X30650087Y-51487848D01*
X30867430Y-51633072D01*
X31082913Y-51722328D01*
X30875050Y-51808428D01*
X30657707Y-51953652D01*
X30472872Y-52138487D01*
X30327648Y-52355830D01*
X30227616Y-52597328D01*
X30176620Y-52853702D01*
X30176620Y-53115098D01*
X30227616Y-53371472D01*
X30327648Y-53612970D01*
X30472872Y-53830313D01*
X30573159Y-53930600D01*
X25082894Y-53930600D01*
X25076516Y-53801124D01*
X25185916Y-53691724D01*
X25307347Y-53509989D01*
X25390990Y-53308056D01*
X25433631Y-53093685D01*
X25433631Y-52875115D01*
X25390990Y-52660744D01*
X25307347Y-52458811D01*
X25185916Y-52277076D01*
X25086768Y-52177928D01*
X25157350Y-52148692D01*
X25374693Y-52003468D01*
X25559528Y-51818633D01*
X25704752Y-51601290D01*
X25804784Y-51359792D01*
X25855780Y-51103418D01*
X25855780Y-50842022D01*
X25815294Y-50638483D01*
X26077408Y-50275447D01*
X26597687Y-49755170D01*
X26620647Y-49736327D01*
X26639490Y-49713367D01*
X26639494Y-49713363D01*
X26695875Y-49644662D01*
X26751776Y-49540080D01*
X26759811Y-49513592D01*
X26786199Y-49426602D01*
X26794910Y-49338156D01*
X26794910Y-49338147D01*
X26797821Y-49308591D01*
X26794910Y-49279034D01*
X26794910Y-37872815D01*
X26964196Y-37703530D01*
X26972732Y-37702689D01*
X27070769Y-37672950D01*
X49932594Y-37672950D01*
X49962150Y-37675861D01*
X49991706Y-37672950D01*
X49991716Y-37672950D01*
X50080162Y-37664239D01*
X50193640Y-37629816D01*
X50298221Y-37573916D01*
X50389887Y-37498687D01*
X50408739Y-37475716D01*
X51402357Y-36482098D01*
X51428928Y-36493104D01*
X51685302Y-36544100D01*
X51946698Y-36544100D01*
X52203072Y-36493104D01*
X52444570Y-36393072D01*
X52661913Y-36247848D01*
X52846748Y-36063013D01*
X52991972Y-35845670D01*
X53086000Y-35618667D01*
X53180028Y-35845670D01*
X53325252Y-36063013D01*
X53510087Y-36247848D01*
X53727430Y-36393072D01*
X53968928Y-36493104D01*
X54225302Y-36544100D01*
X54486698Y-36544100D01*
X54743072Y-36493104D01*
X54984570Y-36393072D01*
X55201913Y-36247848D01*
X55386748Y-36063013D01*
X55531972Y-35845670D01*
X55626000Y-35618667D01*
X55720028Y-35845670D01*
X55865252Y-36063013D01*
X56050087Y-36247848D01*
X56267430Y-36393072D01*
X56508928Y-36493104D01*
X56765302Y-36544100D01*
X57026698Y-36544100D01*
X57283072Y-36493104D01*
X57524570Y-36393072D01*
X57741913Y-36247848D01*
X57926748Y-36063013D01*
X58071972Y-35845670D01*
X58166000Y-35618667D01*
X58260028Y-35845670D01*
X58405252Y-36063013D01*
X58590087Y-36247848D01*
X58807430Y-36393072D01*
X59048928Y-36493104D01*
X59305302Y-36544100D01*
X59566698Y-36544100D01*
X59823072Y-36493104D01*
X60064570Y-36393072D01*
X60281913Y-36247848D01*
X60466748Y-36063013D01*
X60611972Y-35845670D01*
X60706000Y-35618667D01*
X60800028Y-35845670D01*
X60945252Y-36063013D01*
X61130087Y-36247848D01*
X61347430Y-36393072D01*
X61588928Y-36493104D01*
X61845302Y-36544100D01*
X62106698Y-36544100D01*
X62363072Y-36493104D01*
X62604570Y-36393072D01*
X62821913Y-36247848D01*
X63006748Y-36063013D01*
X63151972Y-35845670D01*
X63246000Y-35618667D01*
X63340028Y-35845670D01*
X63485252Y-36063013D01*
X63670087Y-36247848D01*
X63887430Y-36393072D01*
X64128928Y-36493104D01*
X64385302Y-36544100D01*
X64646698Y-36544100D01*
X64903072Y-36493104D01*
X65144570Y-36393072D01*
X65361913Y-36247848D01*
X65546748Y-36063013D01*
X65691972Y-35845670D01*
X65786000Y-35618667D01*
X65880028Y-35845670D01*
X66025252Y-36063013D01*
X66210087Y-36247848D01*
X66427430Y-36393072D01*
X66668928Y-36493104D01*
X66925302Y-36544100D01*
X67186698Y-36544100D01*
X67443072Y-36493104D01*
X67684570Y-36393072D01*
X67901913Y-36247848D01*
X68086748Y-36063013D01*
X68231972Y-35845670D01*
X68332004Y-35604172D01*
X68383000Y-35347798D01*
X68383000Y-35086402D01*
X68332004Y-34830028D01*
X68231972Y-34588530D01*
X68086748Y-34371187D01*
X67901913Y-34186352D01*
X67684570Y-34041128D01*
X67443072Y-33941096D01*
X67186698Y-33890100D01*
X66925302Y-33890100D01*
X66668928Y-33941096D01*
X66427430Y-34041128D01*
X66210087Y-34186352D01*
X66025252Y-34371187D01*
X65880028Y-34588530D01*
X65786000Y-34815533D01*
X65691972Y-34588530D01*
X65546748Y-34371187D01*
X65361913Y-34186352D01*
X65144570Y-34041128D01*
X64903072Y-33941096D01*
X64646698Y-33890100D01*
X64385302Y-33890100D01*
X64128928Y-33941096D01*
X63887430Y-34041128D01*
X63670087Y-34186352D01*
X63485252Y-34371187D01*
X63340028Y-34588530D01*
X63246000Y-34815533D01*
X63151972Y-34588530D01*
X63006748Y-34371187D01*
X62821913Y-34186352D01*
X62604570Y-34041128D01*
X62363072Y-33941096D01*
X62106698Y-33890100D01*
X61845302Y-33890100D01*
X61588928Y-33941096D01*
X61347430Y-34041128D01*
X61130087Y-34186352D01*
X60945252Y-34371187D01*
X60800028Y-34588530D01*
X60706000Y-34815533D01*
X60611972Y-34588530D01*
X60466748Y-34371187D01*
X60281913Y-34186352D01*
X60064570Y-34041128D01*
X59823072Y-33941096D01*
X59566698Y-33890100D01*
X59305302Y-33890100D01*
X59048928Y-33941096D01*
X58807430Y-34041128D01*
X58590087Y-34186352D01*
X58405252Y-34371187D01*
X58260028Y-34588530D01*
X58166000Y-34815533D01*
X58071972Y-34588530D01*
X57926748Y-34371187D01*
X57741913Y-34186352D01*
X57524570Y-34041128D01*
X57283072Y-33941096D01*
X57026698Y-33890100D01*
X56765302Y-33890100D01*
X56508928Y-33941096D01*
X56267430Y-34041128D01*
X56050087Y-34186352D01*
X55865252Y-34371187D01*
X55720028Y-34588530D01*
X55626000Y-34815533D01*
X55531972Y-34588530D01*
X55386748Y-34371187D01*
X55201913Y-34186352D01*
X54984570Y-34041128D01*
X54743072Y-33941096D01*
X54486698Y-33890100D01*
X54225302Y-33890100D01*
X53968928Y-33941096D01*
X53727430Y-34041128D01*
X53510087Y-34186352D01*
X53325252Y-34371187D01*
X53180028Y-34588530D01*
X53086000Y-34815533D01*
X52991972Y-34588530D01*
X52846748Y-34371187D01*
X52661913Y-34186352D01*
X52444570Y-34041128D01*
X52203072Y-33941096D01*
X51946698Y-33890100D01*
X51685302Y-33890100D01*
X51428928Y-33941096D01*
X51187430Y-34041128D01*
X50970087Y-34186352D01*
X50785252Y-34371187D01*
X50640028Y-34588530D01*
X50546000Y-34815533D01*
X50451972Y-34588530D01*
X50306748Y-34371187D01*
X50121913Y-34186352D01*
X49904570Y-34041128D01*
X49663072Y-33941096D01*
X49406698Y-33890100D01*
X49145302Y-33890100D01*
X48888928Y-33941096D01*
X48647430Y-34041128D01*
X48430087Y-34186352D01*
X48245252Y-34371187D01*
X48100028Y-34588530D01*
X48006000Y-34815533D01*
X47911972Y-34588530D01*
X47766748Y-34371187D01*
X47581913Y-34186352D01*
X47364570Y-34041128D01*
X47123072Y-33941096D01*
X46866698Y-33890100D01*
X46605302Y-33890100D01*
X46348928Y-33941096D01*
X46107430Y-34041128D01*
X45890087Y-34186352D01*
X45705252Y-34371187D01*
X45560028Y-34588530D01*
X45466000Y-34815533D01*
X45371972Y-34588530D01*
X45226748Y-34371187D01*
X45041913Y-34186352D01*
X44824570Y-34041128D01*
X44583072Y-33941096D01*
X44326698Y-33890100D01*
X44065302Y-33890100D01*
X43808928Y-33941096D01*
X43567430Y-34041128D01*
X43350087Y-34186352D01*
X43165252Y-34371187D01*
X43020028Y-34588530D01*
X42926000Y-34815533D01*
X42831972Y-34588530D01*
X42686748Y-34371187D01*
X42501913Y-34186352D01*
X42284570Y-34041128D01*
X42043072Y-33941096D01*
X41786698Y-33890100D01*
X41525302Y-33890100D01*
X41268928Y-33941096D01*
X41027430Y-34041128D01*
X40810087Y-34186352D01*
X40625252Y-34371187D01*
X40480028Y-34588530D01*
X40379996Y-34830028D01*
X40329000Y-35086402D01*
X40329000Y-35347798D01*
X40379996Y-35604172D01*
X40480028Y-35845670D01*
X40584444Y-36001940D01*
X37647556Y-36001940D01*
X37751972Y-35845670D01*
X37852004Y-35604172D01*
X37903000Y-35347798D01*
X37903000Y-35086402D01*
X37852004Y-34830028D01*
X37751972Y-34588530D01*
X37606748Y-34371187D01*
X37421913Y-34186352D01*
X37204570Y-34041128D01*
X36963072Y-33941096D01*
X36706698Y-33890100D01*
X36445302Y-33890100D01*
X36188928Y-33941096D01*
X35947430Y-34041128D01*
X35730087Y-34186352D01*
X35545252Y-34371187D01*
X35400028Y-34588530D01*
X35306000Y-34815533D01*
X35211972Y-34588530D01*
X35066748Y-34371187D01*
X34881913Y-34186352D01*
X34664570Y-34041128D01*
X34423072Y-33941096D01*
X34166698Y-33890100D01*
X33905302Y-33890100D01*
X33648928Y-33941096D01*
X33407430Y-34041128D01*
X33190087Y-34186352D01*
X33005252Y-34371187D01*
X32860028Y-34588530D01*
X32766000Y-34815533D01*
X32671972Y-34588530D01*
X32526748Y-34371187D01*
X32341913Y-34186352D01*
X32124570Y-34041128D01*
X31883072Y-33941096D01*
X31626698Y-33890100D01*
X31365302Y-33890100D01*
X31108928Y-33941096D01*
X30867430Y-34041128D01*
X30650087Y-34186352D01*
X30465252Y-34371187D01*
X30320028Y-34588530D01*
X30219996Y-34830028D01*
X30169000Y-35086402D01*
X30169000Y-35347798D01*
X30219996Y-35604172D01*
X30320028Y-35845670D01*
X30424444Y-36001940D01*
X26605579Y-36001940D01*
X26576020Y-35999029D01*
X26546461Y-36001940D01*
X26546454Y-36001940D01*
X26469202Y-36009549D01*
X26458007Y-36010651D01*
X26344530Y-36045074D01*
X26239948Y-36100974D01*
X26213924Y-36122332D01*
X26148283Y-36176203D01*
X26129435Y-36199169D01*
X25338134Y-36990471D01*
X25315163Y-37009323D01*
X25239934Y-37100990D01*
X25216866Y-37144147D01*
X25149730Y-37099288D01*
X24922727Y-37005260D01*
X25149730Y-36911232D01*
X25367073Y-36766008D01*
X25551908Y-36581173D01*
X25697132Y-36363830D01*
X25797164Y-36122332D01*
X25848160Y-35865958D01*
X25848160Y-35604562D01*
X25797164Y-35348188D01*
X25697132Y-35106690D01*
X25551908Y-34889347D01*
X25367073Y-34704512D01*
X25149730Y-34559288D01*
X24908232Y-34459256D01*
X24651858Y-34408260D01*
X24390462Y-34408260D01*
X24134088Y-34459256D01*
X23892590Y-34559288D01*
X23675247Y-34704512D01*
X23641000Y-34738759D01*
X23641000Y-31259319D01*
X26292525Y-32069576D01*
X26318587Y-32074638D01*
X31203007Y-32501358D01*
X31232275Y-32500527D01*
X34386955Y-32043327D01*
X34411126Y-32037358D01*
X34430539Y-32028590D01*
X37371859Y-30390290D01*
X37392316Y-30376102D01*
X37409613Y-30358195D01*
X37426338Y-30330412D01*
X38518538Y-27843752D01*
X38526268Y-27820086D01*
X38529232Y-27795367D01*
X38528262Y-27776787D01*
X38175202Y-24977707D01*
X38169680Y-24953431D01*
X38153618Y-24921310D01*
X37267250Y-23641000D01*
X58716337Y-23641000D01*
X64358926Y-24088904D01*
G37*
X64358926Y-24088904D02*
X67353834Y-26073031D01*
X67549053Y-26422889D01*
X67532056Y-26415849D01*
X67317685Y-26373208D01*
X67099115Y-26373208D01*
X66884744Y-26415849D01*
X66682811Y-26499492D01*
X66501076Y-26620923D01*
X66346523Y-26775476D01*
X66225092Y-26957211D01*
X66141449Y-27159144D01*
X66098808Y-27373515D01*
X66098808Y-27592085D01*
X66141449Y-27806456D01*
X66225092Y-28008389D01*
X66346523Y-28190124D01*
X66501076Y-28344677D01*
X66682811Y-28466108D01*
X66884744Y-28549751D01*
X67099115Y-28592392D01*
X67317685Y-28592392D01*
X67532056Y-28549751D01*
X67733989Y-28466108D01*
X67915724Y-28344677D01*
X68070277Y-28190124D01*
X68191708Y-28008389D01*
X68275351Y-27806456D01*
X68287367Y-27746048D01*
X69589597Y-30079820D01*
X70212000Y-33233760D01*
X70212001Y-45694101D01*
X66314052Y-44907172D01*
X66290824Y-44904674D01*
X62902464Y-44853874D01*
X62877654Y-44855943D01*
X62853444Y-44862923D01*
X59795284Y-46084663D01*
X59773181Y-46096121D01*
X59761133Y-46105005D01*
X56421033Y-48886305D01*
X56403555Y-48904035D01*
X56389871Y-48924834D01*
X56380508Y-48947903D01*
X56376572Y-48965973D01*
X56335666Y-49252864D01*
X56267430Y-49281128D01*
X56050087Y-49426352D01*
X55865252Y-49611187D01*
X55720028Y-49828530D01*
X55626000Y-50055533D01*
X55531972Y-49828530D01*
X55386748Y-49611187D01*
X55201913Y-49426352D01*
X54984570Y-49281128D01*
X54743072Y-49181096D01*
X54486698Y-49130100D01*
X54225302Y-49130100D01*
X53968928Y-49181096D01*
X53727430Y-49281128D01*
X53510087Y-49426352D01*
X53325252Y-49611187D01*
X53180028Y-49828530D01*
X53086000Y-50055533D01*
X52991972Y-49828530D01*
X52846748Y-49611187D01*
X52661913Y-49426352D01*
X52444570Y-49281128D01*
X52203072Y-49181096D01*
X51946698Y-49130100D01*
X51685302Y-49130100D01*
X51428928Y-49181096D01*
X51187430Y-49281128D01*
X50970087Y-49426352D01*
X50785252Y-49611187D01*
X50640028Y-49828530D01*
X50546000Y-50055533D01*
X50451972Y-49828530D01*
X50306748Y-49611187D01*
X50121913Y-49426352D01*
X49904570Y-49281128D01*
X49663072Y-49181096D01*
X49406698Y-49130100D01*
X49145302Y-49130100D01*
X48888928Y-49181096D01*
X48647430Y-49281128D01*
X48430087Y-49426352D01*
X48245252Y-49611187D01*
X48100028Y-49828530D01*
X48006000Y-50055533D01*
X47911972Y-49828530D01*
X47766748Y-49611187D01*
X47581913Y-49426352D01*
X47364570Y-49281128D01*
X47123072Y-49181096D01*
X46866698Y-49130100D01*
X46605302Y-49130100D01*
X46348928Y-49181096D01*
X46107430Y-49281128D01*
X45890087Y-49426352D01*
X45705252Y-49611187D01*
X45560028Y-49828530D01*
X45466000Y-50055533D01*
X45371972Y-49828530D01*
X45226748Y-49611187D01*
X45041913Y-49426352D01*
X44824570Y-49281128D01*
X44583072Y-49181096D01*
X44326698Y-49130100D01*
X44065302Y-49130100D01*
X43808928Y-49181096D01*
X43567430Y-49281128D01*
X43350087Y-49426352D01*
X43165252Y-49611187D01*
X43020028Y-49828530D01*
X42926000Y-50055533D01*
X42831972Y-49828530D01*
X42686748Y-49611187D01*
X42501913Y-49426352D01*
X42293560Y-49287135D01*
X42293560Y-49273818D01*
X42350519Y-49250225D01*
X42433388Y-49205931D01*
X42514887Y-49151475D01*
X42587519Y-49091867D01*
X42656827Y-49022559D01*
X42716435Y-48949927D01*
X42770891Y-48868428D01*
X42815185Y-48785559D01*
X42852694Y-48695003D01*
X42879968Y-48605090D01*
X42899090Y-48508957D01*
X42908300Y-48415449D01*
X42908300Y-48390888D01*
X42910708Y-48366440D01*
X42910708Y-47866440D01*
X42901498Y-47772932D01*
X42884362Y-47716440D01*
X42901498Y-47659948D01*
X42910708Y-47566440D01*
X42910708Y-47066440D01*
X42908300Y-47041992D01*
X42908300Y-47017431D01*
X42899090Y-46923923D01*
X42879968Y-46827790D01*
X42852694Y-46737877D01*
X42815185Y-46647321D01*
X42770891Y-46564452D01*
X42716435Y-46482953D01*
X42656827Y-46410321D01*
X42587519Y-46341013D01*
X42514887Y-46281405D01*
X42433388Y-46226949D01*
X42350519Y-46182655D01*
X42259963Y-46145146D01*
X42170050Y-46117872D01*
X42073917Y-46098750D01*
X41980409Y-46089540D01*
X41955848Y-46089540D01*
X41931400Y-46087132D01*
X41431400Y-46087132D01*
X41406952Y-46089540D01*
X41382391Y-46089540D01*
X41288883Y-46098750D01*
X41192750Y-46117872D01*
X41102837Y-46145146D01*
X41012281Y-46182655D01*
X40929412Y-46226949D01*
X40847913Y-46281405D01*
X40775281Y-46341013D01*
X40705973Y-46410321D01*
X40661558Y-46464440D01*
X34874755Y-46464440D01*
X34906075Y-46451467D01*
X35049715Y-46355490D01*
X35171870Y-46233335D01*
X35267847Y-46089695D01*
X35333957Y-45930091D01*
X35351581Y-45841491D01*
X37494072Y-43699001D01*
X37521814Y-43676234D01*
X37612663Y-43565533D01*
X37680170Y-43439237D01*
X37721740Y-43302197D01*
X37732260Y-43195388D01*
X37732260Y-43195386D01*
X37735777Y-43159681D01*
X37732260Y-43123975D01*
X37732260Y-42926000D01*
X56776757Y-42926000D01*
X56781000Y-42969079D01*
X56781000Y-43012377D01*
X56789447Y-43054842D01*
X56793690Y-43097922D01*
X56806256Y-43139348D01*
X56814703Y-43181811D01*
X56831271Y-43221811D01*
X56843838Y-43263237D01*
X56864245Y-43301415D01*
X56880813Y-43341415D01*
X56904866Y-43377413D01*
X56925273Y-43415592D01*
X56952737Y-43449057D01*
X56976790Y-43485055D01*
X57007403Y-43515668D01*
X57034867Y-43549133D01*
X57068332Y-43576597D01*
X57098945Y-43607210D01*
X57134943Y-43631263D01*
X57168408Y-43658727D01*
X57206587Y-43679134D01*
X57242585Y-43703187D01*
X57282585Y-43719755D01*
X57320763Y-43740162D01*
X57362189Y-43752729D01*
X57402189Y-43769297D01*
X57444653Y-43777744D01*
X57486078Y-43790310D01*
X57529158Y-43794553D01*
X57571623Y-43803000D01*
X57614921Y-43803000D01*
X57658000Y-43807243D01*
X57701079Y-43803000D01*
X57744377Y-43803000D01*
X57786842Y-43794553D01*
X57829922Y-43790310D01*
X57871348Y-43777744D01*
X57913811Y-43769297D01*
X57953811Y-43752729D01*
X57995237Y-43740162D01*
X58033415Y-43719755D01*
X58073415Y-43703187D01*
X58109413Y-43679134D01*
X58147592Y-43658727D01*
X58181057Y-43631263D01*
X58217055Y-43607210D01*
X58247668Y-43576597D01*
X58281133Y-43549133D01*
X58308597Y-43515668D01*
X58339210Y-43485055D01*
X59682774Y-42141492D01*
X59716233Y-42114033D01*
X59825827Y-41980492D01*
X59907262Y-41828137D01*
X59957410Y-41662822D01*
X59957573Y-41661173D01*
X59974343Y-41490900D01*
X59970100Y-41447821D01*
X59970100Y-38737523D01*
X59961653Y-38695058D01*
X59957410Y-38651978D01*
X59944844Y-38610552D01*
X59936397Y-38568089D01*
X59919829Y-38528089D01*
X59907262Y-38486663D01*
X59886855Y-38448485D01*
X59870287Y-38408485D01*
X59846234Y-38372487D01*
X59825827Y-38334308D01*
X59798363Y-38300843D01*
X59774310Y-38264845D01*
X59743697Y-38234232D01*
X59716233Y-38200767D01*
X59682769Y-38173304D01*
X59652155Y-38142690D01*
X59616153Y-38118634D01*
X59582691Y-38091173D01*
X59544517Y-38070769D01*
X59508515Y-38046713D01*
X59468511Y-38030143D01*
X59430336Y-38009738D01*
X59388914Y-37997173D01*
X59348911Y-37980603D01*
X59306445Y-37972156D01*
X59265021Y-37959590D01*
X59221943Y-37955347D01*
X59179477Y-37946900D01*
X59136179Y-37946900D01*
X59093100Y-37942657D01*
X59050021Y-37946900D01*
X59006723Y-37946900D01*
X58964258Y-37955347D01*
X58921178Y-37959590D01*
X58879752Y-37972156D01*
X58837289Y-37980603D01*
X58797289Y-37997171D01*
X58755863Y-38009738D01*
X58717685Y-38030145D01*
X58677685Y-38046713D01*
X58641687Y-38070766D01*
X58603508Y-38091173D01*
X58570043Y-38118637D01*
X58534045Y-38142690D01*
X58503432Y-38173303D01*
X58469967Y-38200767D01*
X58442504Y-38234231D01*
X58411890Y-38264845D01*
X58387834Y-38300847D01*
X58360373Y-38334309D01*
X58339969Y-38372483D01*
X58315913Y-38408485D01*
X58299343Y-38448489D01*
X58278938Y-38486664D01*
X58266373Y-38528086D01*
X58249803Y-38568089D01*
X58241356Y-38610555D01*
X58228790Y-38651979D01*
X58224547Y-38695057D01*
X58216100Y-38737523D01*
X58216100Y-38780822D01*
X58216101Y-41127633D01*
X57098945Y-42244790D01*
X57068332Y-42275403D01*
X57034867Y-42302867D01*
X57007406Y-42336329D01*
X56976790Y-42366945D01*
X56952737Y-42402943D01*
X56925273Y-42436408D01*
X56904866Y-42474587D01*
X56880813Y-42510585D01*
X56864245Y-42550585D01*
X56843838Y-42588763D01*
X56831271Y-42630189D01*
X56814703Y-42670189D01*
X56806256Y-42712652D01*
X56793690Y-42754078D01*
X56789447Y-42797158D01*
X56781000Y-42839623D01*
X56781000Y-42882921D01*
X56776757Y-42926000D01*
X37732260Y-42926000D01*
X37732260Y-41409765D01*
X37735777Y-41374059D01*
X37732260Y-41338352D01*
X37721740Y-41231543D01*
X37680170Y-41094503D01*
X37612663Y-40968207D01*
X37521813Y-40857506D01*
X37494076Y-40834743D01*
X36639361Y-39980028D01*
X36621737Y-39891429D01*
X36555627Y-39731825D01*
X36459650Y-39588185D01*
X36337495Y-39466030D01*
X36193855Y-39370053D01*
X36034251Y-39303943D01*
X35864817Y-39270240D01*
X35692063Y-39270240D01*
X35522629Y-39303943D01*
X35363025Y-39370053D01*
X35219385Y-39466030D01*
X35097230Y-39588185D01*
X35001253Y-39731825D01*
X34935143Y-39891429D01*
X34901440Y-40060863D01*
X34901440Y-40233617D01*
X34935143Y-40403051D01*
X35001253Y-40562655D01*
X35097230Y-40706295D01*
X35219385Y-40828450D01*
X35363025Y-40924427D01*
X35522629Y-40990537D01*
X35611228Y-41008161D01*
X36278260Y-41675193D01*
X36278261Y-42858546D01*
X34323449Y-44813359D01*
X34234849Y-44830983D01*
X34075245Y-44897093D01*
X33931605Y-44993070D01*
X33809450Y-45115225D01*
X33713473Y-45258865D01*
X33647363Y-45418469D01*
X33613660Y-45587903D01*
X33613660Y-45760657D01*
X33647363Y-45930091D01*
X33713473Y-46089695D01*
X33809450Y-46233335D01*
X33931605Y-46355490D01*
X34075245Y-46451467D01*
X34106565Y-46464440D01*
X33881497Y-46464440D01*
X33299600Y-45882545D01*
X33299600Y-44039065D01*
X33378810Y-43959855D01*
X33474787Y-43816215D01*
X33540897Y-43656611D01*
X33574600Y-43487177D01*
X33574600Y-43314423D01*
X33540897Y-43144989D01*
X33474787Y-42985385D01*
X33424600Y-42910275D01*
X33424600Y-40495525D01*
X33474787Y-40420415D01*
X33540897Y-40260811D01*
X33574600Y-40091377D01*
X33574600Y-39918623D01*
X33540897Y-39749189D01*
X33474787Y-39589585D01*
X33378810Y-39445945D01*
X33256655Y-39323790D01*
X33113015Y-39227813D01*
X32953411Y-39161703D01*
X32783977Y-39128000D01*
X32611223Y-39128000D01*
X32441789Y-39161703D01*
X32282185Y-39227813D01*
X32138545Y-39323790D01*
X32016390Y-39445945D01*
X31920413Y-39589585D01*
X31854303Y-39749189D01*
X31820600Y-39918623D01*
X31820600Y-40091377D01*
X31854303Y-40260811D01*
X31920413Y-40420415D01*
X31970600Y-40495525D01*
X31970601Y-42910273D01*
X31920413Y-42985385D01*
X31854303Y-43144989D01*
X31820600Y-43314423D01*
X31820600Y-43487177D01*
X31854303Y-43656611D01*
X31920413Y-43816215D01*
X32016390Y-43959855D01*
X32095600Y-44039065D01*
X32095601Y-46102334D01*
X32092689Y-46131900D01*
X32104312Y-46249912D01*
X32138734Y-46363389D01*
X32194635Y-46467971D01*
X32218977Y-46497631D01*
X32269864Y-46559637D01*
X32292829Y-46578484D01*
X33185560Y-47471217D01*
X33204403Y-47494177D01*
X33227363Y-47513020D01*
X33227367Y-47513024D01*
X33283056Y-47558726D01*
X33296069Y-47569406D01*
X33400650Y-47625306D01*
X33514128Y-47659729D01*
X33602574Y-47668440D01*
X33602583Y-47668440D01*
X33632139Y-47671351D01*
X33661696Y-47668440D01*
X40463878Y-47668440D01*
X40478438Y-47716440D01*
X40461302Y-47772932D01*
X40452092Y-47866440D01*
X40452092Y-48366440D01*
X40454500Y-48390888D01*
X40454500Y-48415449D01*
X40463710Y-48508957D01*
X40482832Y-48605090D01*
X40510106Y-48695003D01*
X40547615Y-48785559D01*
X40591909Y-48868428D01*
X40646365Y-48949927D01*
X40705973Y-49022559D01*
X40775281Y-49091867D01*
X40847913Y-49151475D01*
X40929412Y-49205931D01*
X41012281Y-49250225D01*
X41057159Y-49268814D01*
X41027430Y-49281128D01*
X40810087Y-49426352D01*
X40625252Y-49611187D01*
X40480028Y-49828530D01*
X40386000Y-50055533D01*
X40291972Y-49828530D01*
X40146748Y-49611187D01*
X39961913Y-49426352D01*
X39744570Y-49281128D01*
X39503072Y-49181096D01*
X39246698Y-49130100D01*
X38985302Y-49130100D01*
X38728928Y-49181096D01*
X38487430Y-49281128D01*
X38270087Y-49426352D01*
X38085252Y-49611187D01*
X37940028Y-49828530D01*
X37846000Y-50055533D01*
X37751972Y-49828530D01*
X37606748Y-49611187D01*
X37421913Y-49426352D01*
X37204570Y-49281128D01*
X36963072Y-49181096D01*
X36706698Y-49130100D01*
X36445302Y-49130100D01*
X36188928Y-49181096D01*
X35947430Y-49281128D01*
X35730087Y-49426352D01*
X35545252Y-49611187D01*
X35400028Y-49828530D01*
X35365307Y-49912354D01*
X35365307Y-49607100D01*
X35356097Y-49513592D01*
X35328822Y-49423677D01*
X35284529Y-49340811D01*
X35224921Y-49268179D01*
X35152289Y-49208571D01*
X35069423Y-49164278D01*
X34979508Y-49137003D01*
X34886000Y-49127793D01*
X33186000Y-49127793D01*
X33092492Y-49137003D01*
X33002577Y-49164278D01*
X32919711Y-49208571D01*
X32847079Y-49268179D01*
X32787471Y-49340811D01*
X32743178Y-49423677D01*
X32715903Y-49513592D01*
X32706693Y-49607100D01*
X32706693Y-49912354D01*
X32671972Y-49828530D01*
X32526748Y-49611187D01*
X32341913Y-49426352D01*
X32124570Y-49281128D01*
X31883072Y-49181096D01*
X31626698Y-49130100D01*
X31365302Y-49130100D01*
X31108928Y-49181096D01*
X30867430Y-49281128D01*
X30650087Y-49426352D01*
X30465252Y-49611187D01*
X30320028Y-49828530D01*
X30219996Y-50070028D01*
X30169000Y-50326402D01*
X30169000Y-50587798D01*
X30219996Y-50844172D01*
X30320028Y-51085670D01*
X30465252Y-51303013D01*
X30650087Y-51487848D01*
X30867430Y-51633072D01*
X31082913Y-51722328D01*
X30875050Y-51808428D01*
X30657707Y-51953652D01*
X30472872Y-52138487D01*
X30327648Y-52355830D01*
X30227616Y-52597328D01*
X30176620Y-52853702D01*
X30176620Y-53115098D01*
X30227616Y-53371472D01*
X30327648Y-53612970D01*
X30472872Y-53830313D01*
X30573159Y-53930600D01*
X25082894Y-53930600D01*
X25076516Y-53801124D01*
X25185916Y-53691724D01*
X25307347Y-53509989D01*
X25390990Y-53308056D01*
X25433631Y-53093685D01*
X25433631Y-52875115D01*
X25390990Y-52660744D01*
X25307347Y-52458811D01*
X25185916Y-52277076D01*
X25086768Y-52177928D01*
X25157350Y-52148692D01*
X25374693Y-52003468D01*
X25559528Y-51818633D01*
X25704752Y-51601290D01*
X25804784Y-51359792D01*
X25855780Y-51103418D01*
X25855780Y-50842022D01*
X25815294Y-50638483D01*
X26077408Y-50275447D01*
X26597687Y-49755170D01*
X26620647Y-49736327D01*
X26639490Y-49713367D01*
X26639494Y-49713363D01*
X26695875Y-49644662D01*
X26751776Y-49540080D01*
X26759811Y-49513592D01*
X26786199Y-49426602D01*
X26794910Y-49338156D01*
X26794910Y-49338147D01*
X26797821Y-49308591D01*
X26794910Y-49279034D01*
X26794910Y-37872815D01*
X26964196Y-37703530D01*
X26972732Y-37702689D01*
X27070769Y-37672950D01*
X49932594Y-37672950D01*
X49962150Y-37675861D01*
X49991706Y-37672950D01*
X49991716Y-37672950D01*
X50080162Y-37664239D01*
X50193640Y-37629816D01*
X50298221Y-37573916D01*
X50389887Y-37498687D01*
X50408739Y-37475716D01*
X51402357Y-36482098D01*
X51428928Y-36493104D01*
X51685302Y-36544100D01*
X51946698Y-36544100D01*
X52203072Y-36493104D01*
X52444570Y-36393072D01*
X52661913Y-36247848D01*
X52846748Y-36063013D01*
X52991972Y-35845670D01*
X53086000Y-35618667D01*
X53180028Y-35845670D01*
X53325252Y-36063013D01*
X53510087Y-36247848D01*
X53727430Y-36393072D01*
X53968928Y-36493104D01*
X54225302Y-36544100D01*
X54486698Y-36544100D01*
X54743072Y-36493104D01*
X54984570Y-36393072D01*
X55201913Y-36247848D01*
X55386748Y-36063013D01*
X55531972Y-35845670D01*
X55626000Y-35618667D01*
X55720028Y-35845670D01*
X55865252Y-36063013D01*
X56050087Y-36247848D01*
X56267430Y-36393072D01*
X56508928Y-36493104D01*
X56765302Y-36544100D01*
X57026698Y-36544100D01*
X57283072Y-36493104D01*
X57524570Y-36393072D01*
X57741913Y-36247848D01*
X57926748Y-36063013D01*
X58071972Y-35845670D01*
X58166000Y-35618667D01*
X58260028Y-35845670D01*
X58405252Y-36063013D01*
X58590087Y-36247848D01*
X58807430Y-36393072D01*
X59048928Y-36493104D01*
X59305302Y-36544100D01*
X59566698Y-36544100D01*
X59823072Y-36493104D01*
X60064570Y-36393072D01*
X60281913Y-36247848D01*
X60466748Y-36063013D01*
X60611972Y-35845670D01*
X60706000Y-35618667D01*
X60800028Y-35845670D01*
X60945252Y-36063013D01*
X61130087Y-36247848D01*
X61347430Y-36393072D01*
X61588928Y-36493104D01*
X61845302Y-36544100D01*
X62106698Y-36544100D01*
X62363072Y-36493104D01*
X62604570Y-36393072D01*
X62821913Y-36247848D01*
X63006748Y-36063013D01*
X63151972Y-35845670D01*
X63246000Y-35618667D01*
X63340028Y-35845670D01*
X63485252Y-36063013D01*
X63670087Y-36247848D01*
X63887430Y-36393072D01*
X64128928Y-36493104D01*
X64385302Y-36544100D01*
X64646698Y-36544100D01*
X64903072Y-36493104D01*
X65144570Y-36393072D01*
X65361913Y-36247848D01*
X65546748Y-36063013D01*
X65691972Y-35845670D01*
X65786000Y-35618667D01*
X65880028Y-35845670D01*
X66025252Y-36063013D01*
X66210087Y-36247848D01*
X66427430Y-36393072D01*
X66668928Y-36493104D01*
X66925302Y-36544100D01*
X67186698Y-36544100D01*
X67443072Y-36493104D01*
X67684570Y-36393072D01*
X67901913Y-36247848D01*
X68086748Y-36063013D01*
X68231972Y-35845670D01*
X68332004Y-35604172D01*
X68383000Y-35347798D01*
X68383000Y-35086402D01*
X68332004Y-34830028D01*
X68231972Y-34588530D01*
X68086748Y-34371187D01*
X67901913Y-34186352D01*
X67684570Y-34041128D01*
X67443072Y-33941096D01*
X67186698Y-33890100D01*
X66925302Y-33890100D01*
X66668928Y-33941096D01*
X66427430Y-34041128D01*
X66210087Y-34186352D01*
X66025252Y-34371187D01*
X65880028Y-34588530D01*
X65786000Y-34815533D01*
X65691972Y-34588530D01*
X65546748Y-34371187D01*
X65361913Y-34186352D01*
X65144570Y-34041128D01*
X64903072Y-33941096D01*
X64646698Y-33890100D01*
X64385302Y-33890100D01*
X64128928Y-33941096D01*
X63887430Y-34041128D01*
X63670087Y-34186352D01*
X63485252Y-34371187D01*
X63340028Y-34588530D01*
X63246000Y-34815533D01*
X63151972Y-34588530D01*
X63006748Y-34371187D01*
X62821913Y-34186352D01*
X62604570Y-34041128D01*
X62363072Y-33941096D01*
X62106698Y-33890100D01*
X61845302Y-33890100D01*
X61588928Y-33941096D01*
X61347430Y-34041128D01*
X61130087Y-34186352D01*
X60945252Y-34371187D01*
X60800028Y-34588530D01*
X60706000Y-34815533D01*
X60611972Y-34588530D01*
X60466748Y-34371187D01*
X60281913Y-34186352D01*
X60064570Y-34041128D01*
X59823072Y-33941096D01*
X59566698Y-33890100D01*
X59305302Y-33890100D01*
X59048928Y-33941096D01*
X58807430Y-34041128D01*
X58590087Y-34186352D01*
X58405252Y-34371187D01*
X58260028Y-34588530D01*
X58166000Y-34815533D01*
X58071972Y-34588530D01*
X57926748Y-34371187D01*
X57741913Y-34186352D01*
X57524570Y-34041128D01*
X57283072Y-33941096D01*
X57026698Y-33890100D01*
X56765302Y-33890100D01*
X56508928Y-33941096D01*
X56267430Y-34041128D01*
X56050087Y-34186352D01*
X55865252Y-34371187D01*
X55720028Y-34588530D01*
X55626000Y-34815533D01*
X55531972Y-34588530D01*
X55386748Y-34371187D01*
X55201913Y-34186352D01*
X54984570Y-34041128D01*
X54743072Y-33941096D01*
X54486698Y-33890100D01*
X54225302Y-33890100D01*
X53968928Y-33941096D01*
X53727430Y-34041128D01*
X53510087Y-34186352D01*
X53325252Y-34371187D01*
X53180028Y-34588530D01*
X53086000Y-34815533D01*
X52991972Y-34588530D01*
X52846748Y-34371187D01*
X52661913Y-34186352D01*
X52444570Y-34041128D01*
X52203072Y-33941096D01*
X51946698Y-33890100D01*
X51685302Y-33890100D01*
X51428928Y-33941096D01*
X51187430Y-34041128D01*
X50970087Y-34186352D01*
X50785252Y-34371187D01*
X50640028Y-34588530D01*
X50546000Y-34815533D01*
X50451972Y-34588530D01*
X50306748Y-34371187D01*
X50121913Y-34186352D01*
X49904570Y-34041128D01*
X49663072Y-33941096D01*
X49406698Y-33890100D01*
X49145302Y-33890100D01*
X48888928Y-33941096D01*
X48647430Y-34041128D01*
X48430087Y-34186352D01*
X48245252Y-34371187D01*
X48100028Y-34588530D01*
X48006000Y-34815533D01*
X47911972Y-34588530D01*
X47766748Y-34371187D01*
X47581913Y-34186352D01*
X47364570Y-34041128D01*
X47123072Y-33941096D01*
X46866698Y-33890100D01*
X46605302Y-33890100D01*
X46348928Y-33941096D01*
X46107430Y-34041128D01*
X45890087Y-34186352D01*
X45705252Y-34371187D01*
X45560028Y-34588530D01*
X45466000Y-34815533D01*
X45371972Y-34588530D01*
X45226748Y-34371187D01*
X45041913Y-34186352D01*
X44824570Y-34041128D01*
X44583072Y-33941096D01*
X44326698Y-33890100D01*
X44065302Y-33890100D01*
X43808928Y-33941096D01*
X43567430Y-34041128D01*
X43350087Y-34186352D01*
X43165252Y-34371187D01*
X43020028Y-34588530D01*
X42926000Y-34815533D01*
X42831972Y-34588530D01*
X42686748Y-34371187D01*
X42501913Y-34186352D01*
X42284570Y-34041128D01*
X42043072Y-33941096D01*
X41786698Y-33890100D01*
X41525302Y-33890100D01*
X41268928Y-33941096D01*
X41027430Y-34041128D01*
X40810087Y-34186352D01*
X40625252Y-34371187D01*
X40480028Y-34588530D01*
X40379996Y-34830028D01*
X40329000Y-35086402D01*
X40329000Y-35347798D01*
X40379996Y-35604172D01*
X40480028Y-35845670D01*
X40584444Y-36001940D01*
X37647556Y-36001940D01*
X37751972Y-35845670D01*
X37852004Y-35604172D01*
X37903000Y-35347798D01*
X37903000Y-35086402D01*
X37852004Y-34830028D01*
X37751972Y-34588530D01*
X37606748Y-34371187D01*
X37421913Y-34186352D01*
X37204570Y-34041128D01*
X36963072Y-33941096D01*
X36706698Y-33890100D01*
X36445302Y-33890100D01*
X36188928Y-33941096D01*
X35947430Y-34041128D01*
X35730087Y-34186352D01*
X35545252Y-34371187D01*
X35400028Y-34588530D01*
X35306000Y-34815533D01*
X35211972Y-34588530D01*
X35066748Y-34371187D01*
X34881913Y-34186352D01*
X34664570Y-34041128D01*
X34423072Y-33941096D01*
X34166698Y-33890100D01*
X33905302Y-33890100D01*
X33648928Y-33941096D01*
X33407430Y-34041128D01*
X33190087Y-34186352D01*
X33005252Y-34371187D01*
X32860028Y-34588530D01*
X32766000Y-34815533D01*
X32671972Y-34588530D01*
X32526748Y-34371187D01*
X32341913Y-34186352D01*
X32124570Y-34041128D01*
X31883072Y-33941096D01*
X31626698Y-33890100D01*
X31365302Y-33890100D01*
X31108928Y-33941096D01*
X30867430Y-34041128D01*
X30650087Y-34186352D01*
X30465252Y-34371187D01*
X30320028Y-34588530D01*
X30219996Y-34830028D01*
X30169000Y-35086402D01*
X30169000Y-35347798D01*
X30219996Y-35604172D01*
X30320028Y-35845670D01*
X30424444Y-36001940D01*
X26605579Y-36001940D01*
X26576020Y-35999029D01*
X26546461Y-36001940D01*
X26546454Y-36001940D01*
X26469202Y-36009549D01*
X26458007Y-36010651D01*
X26344530Y-36045074D01*
X26239948Y-36100974D01*
X26213924Y-36122332D01*
X26148283Y-36176203D01*
X26129435Y-36199169D01*
X25338134Y-36990471D01*
X25315163Y-37009323D01*
X25239934Y-37100990D01*
X25216866Y-37144147D01*
X25149730Y-37099288D01*
X24922727Y-37005260D01*
X25149730Y-36911232D01*
X25367073Y-36766008D01*
X25551908Y-36581173D01*
X25697132Y-36363830D01*
X25797164Y-36122332D01*
X25848160Y-35865958D01*
X25848160Y-35604562D01*
X25797164Y-35348188D01*
X25697132Y-35106690D01*
X25551908Y-34889347D01*
X25367073Y-34704512D01*
X25149730Y-34559288D01*
X24908232Y-34459256D01*
X24651858Y-34408260D01*
X24390462Y-34408260D01*
X24134088Y-34459256D01*
X23892590Y-34559288D01*
X23675247Y-34704512D01*
X23641000Y-34738759D01*
X23641000Y-31259319D01*
X26292525Y-32069576D01*
X26318587Y-32074638D01*
X31203007Y-32501358D01*
X31232275Y-32500527D01*
X34386955Y-32043327D01*
X34411126Y-32037358D01*
X34430539Y-32028590D01*
X37371859Y-30390290D01*
X37392316Y-30376102D01*
X37409613Y-30358195D01*
X37426338Y-30330412D01*
X38518538Y-27843752D01*
X38526268Y-27820086D01*
X38529232Y-27795367D01*
X38528262Y-27776787D01*
X38175202Y-24977707D01*
X38169680Y-24953431D01*
X38153618Y-24921310D01*
X37267250Y-23641000D01*
X58716337Y-23641000D01*
X64358926Y-24088904D01*
M02*
