G04 #@! TF.GenerationSoftware,KiCad,Pcbnew,5.1.5+dfsg1-2build2*
G04 #@! TF.CreationDate,2021-06-15T05:03:55+02:00*
G04 #@! TF.ProjectId,circuit9,63697263-7569-4743-992e-6b696361645f,rev?*
G04 #@! TF.SameCoordinates,Original*
G04 #@! TF.FileFunction,Soldermask,Bot*
G04 #@! TF.FilePolarity,Negative*
%FSLAX46Y46*%
G04 Gerber Fmt 4.6, Leading zero omitted, Abs format (unit mm)*
G04 Created by KiCad (PCBNEW 5.1.5+dfsg1-2build2) date 2021-06-15 05:03:55*
%MOMM*%
%LPD*%
G04 APERTURE LIST*
%ADD10O,1.700000X1.700000*%
%ADD11R,1.700000X1.700000*%
%ADD12R,6.000000X3.000000*%
%ADD13C,0.100000*%
G04 APERTURE END LIST*
D10*
X67056000Y-50457100D03*
X64516000Y-50457100D03*
X61976000Y-50457100D03*
X59436000Y-50457100D03*
X56896000Y-50457100D03*
X54356000Y-50457100D03*
X51816000Y-50457100D03*
X49276000Y-50457100D03*
X46736000Y-50457100D03*
X44196000Y-50457100D03*
X41656000Y-50457100D03*
X39116000Y-50457100D03*
X36576000Y-50457100D03*
D11*
X34036000Y-50457100D03*
D10*
X31496000Y-50457100D03*
X67056000Y-35217100D03*
X64516000Y-35217100D03*
X61976000Y-35217100D03*
X59436000Y-35217100D03*
X56896000Y-35217100D03*
X54356000Y-35217100D03*
X51816000Y-35217100D03*
X49276000Y-35217100D03*
X46736000Y-35217100D03*
X44196000Y-35217100D03*
X41656000Y-35217100D03*
D11*
X39116000Y-35217100D03*
D10*
X36576000Y-35217100D03*
X34036000Y-35217100D03*
X31496000Y-35217100D03*
D12*
X61624400Y-27355800D03*
X32224400Y-27355800D03*
X67224400Y-27355800D03*
X26624400Y-27355800D03*
D10*
X24521160Y-40815260D03*
X24521160Y-38275260D03*
X24521160Y-35735260D03*
D13*
G36*
X42431400Y-47866440D02*
G01*
X42431400Y-48366440D01*
X42430798Y-48366440D01*
X42430798Y-48390974D01*
X42425988Y-48439805D01*
X42416416Y-48487930D01*
X42402172Y-48534885D01*
X42383395Y-48580218D01*
X42360264Y-48623491D01*
X42333004Y-48664290D01*
X42301876Y-48702219D01*
X42267179Y-48736916D01*
X42229250Y-48768044D01*
X42188451Y-48795304D01*
X42145178Y-48818435D01*
X42099845Y-48837212D01*
X42052890Y-48851456D01*
X42004765Y-48861028D01*
X41955934Y-48865838D01*
X41931400Y-48865838D01*
X41931400Y-48866440D01*
X41431400Y-48866440D01*
X41431400Y-48865838D01*
X41406866Y-48865838D01*
X41358035Y-48861028D01*
X41309910Y-48851456D01*
X41262955Y-48837212D01*
X41217622Y-48818435D01*
X41174349Y-48795304D01*
X41133550Y-48768044D01*
X41095621Y-48736916D01*
X41060924Y-48702219D01*
X41029796Y-48664290D01*
X41002536Y-48623491D01*
X40979405Y-48580218D01*
X40960628Y-48534885D01*
X40946384Y-48487930D01*
X40936812Y-48439805D01*
X40932002Y-48390974D01*
X40932002Y-48366440D01*
X40931400Y-48366440D01*
X40931400Y-47866440D01*
X42431400Y-47866440D01*
G37*
G36*
X40932002Y-47066440D02*
G01*
X40932002Y-47041906D01*
X40936812Y-46993075D01*
X40946384Y-46944950D01*
X40960628Y-46897995D01*
X40979405Y-46852662D01*
X41002536Y-46809389D01*
X41029796Y-46768590D01*
X41060924Y-46730661D01*
X41095621Y-46695964D01*
X41133550Y-46664836D01*
X41174349Y-46637576D01*
X41217622Y-46614445D01*
X41262955Y-46595668D01*
X41309910Y-46581424D01*
X41358035Y-46571852D01*
X41406866Y-46567042D01*
X41431400Y-46567042D01*
X41431400Y-46566440D01*
X41931400Y-46566440D01*
X41931400Y-46567042D01*
X41955934Y-46567042D01*
X42004765Y-46571852D01*
X42052890Y-46581424D01*
X42099845Y-46595668D01*
X42145178Y-46614445D01*
X42188451Y-46637576D01*
X42229250Y-46664836D01*
X42267179Y-46695964D01*
X42301876Y-46730661D01*
X42333004Y-46768590D01*
X42360264Y-46809389D01*
X42383395Y-46852662D01*
X42402172Y-46897995D01*
X42416416Y-46944950D01*
X42425988Y-46993075D01*
X42430798Y-47041906D01*
X42430798Y-47066440D01*
X42431400Y-47066440D01*
X42431400Y-47566440D01*
X40931400Y-47566440D01*
X40931400Y-47066440D01*
X40932002Y-47066440D01*
G37*
D10*
X24528780Y-45892720D03*
D11*
X24528780Y-48432720D03*
D10*
X24528780Y-50972720D03*
X67063620Y-52984400D03*
X64523620Y-52984400D03*
X61983620Y-52984400D03*
X59443620Y-52984400D03*
X56903620Y-52984400D03*
X54363620Y-52984400D03*
X51823620Y-52984400D03*
X49283620Y-52984400D03*
X46743620Y-52984400D03*
X44203620Y-52984400D03*
X41663620Y-52984400D03*
X39123620Y-52984400D03*
X36583620Y-52984400D03*
X34043620Y-52984400D03*
X31503620Y-52984400D03*
D11*
X28963620Y-52984400D03*
X26423620Y-52984400D03*
M02*
