G04 #@! TF.GenerationSoftware,KiCad,Pcbnew,5.1.5+dfsg1-2build2*
G04 #@! TF.CreationDate,2021-06-04T03:42:04+02:00*
G04 #@! TF.ProjectId,circuit8,63697263-7569-4743-982e-6b696361645f,rev?*
G04 #@! TF.SameCoordinates,Original*
G04 #@! TF.FileFunction,Legend,Bot*
G04 #@! TF.FilePolarity,Positive*
%FSLAX46Y46*%
G04 Gerber Fmt 4.6, Leading zero omitted, Abs format (unit mm)*
G04 Created by KiCad (PCBNEW 5.1.5+dfsg1-2build2) date 2021-06-04 03:42:04*
%MOMM*%
%LPD*%
G04 APERTURE LIST*
%ADD10R,6.000000X3.000000*%
%ADD11O,1.700000X1.700000*%
%ADD12R,1.700000X1.700000*%
G04 APERTURE END LIST*
%LPC*%
D10*
X28432000Y-33274000D03*
X69032000Y-33274000D03*
X34032000Y-33274000D03*
X63432000Y-33274000D03*
D11*
X35560000Y-25400000D03*
X38100000Y-25400000D03*
X40640000Y-25400000D03*
X43180000Y-25400000D03*
X45720000Y-25400000D03*
X48260000Y-25400000D03*
X50800000Y-25400000D03*
X53340000Y-25400000D03*
X55880000Y-25400000D03*
X58420000Y-25400000D03*
X60960000Y-25400000D03*
X63500000Y-25400000D03*
X66040000Y-25400000D03*
X68580000Y-25400000D03*
D12*
X71120000Y-25400000D03*
X71120000Y-40640000D03*
D11*
X68580000Y-40640000D03*
X66040000Y-40640000D03*
X63500000Y-40640000D03*
X60960000Y-40640000D03*
X58420000Y-40640000D03*
X55880000Y-40640000D03*
X53340000Y-40640000D03*
X50800000Y-40640000D03*
X48260000Y-40640000D03*
X45720000Y-40640000D03*
X43180000Y-40640000D03*
X40640000Y-40640000D03*
X38100000Y-40640000D03*
X35560000Y-40640000D03*
D12*
X25400000Y-45720000D03*
D11*
X27940000Y-45720000D03*
X30480000Y-45720000D03*
X33020000Y-45720000D03*
X35560000Y-45720000D03*
X38100000Y-45720000D03*
X40640000Y-45720000D03*
X43180000Y-45720000D03*
X45720000Y-45720000D03*
X48260000Y-45720000D03*
X50800000Y-45720000D03*
X53340000Y-45720000D03*
X55880000Y-45720000D03*
X58420000Y-45720000D03*
X60960000Y-45720000D03*
X63500000Y-45720000D03*
X66040000Y-45720000D03*
D12*
X25400000Y-25400000D03*
D11*
X27940000Y-25400000D03*
X30480000Y-25400000D03*
M02*
