%FSLAX45Y45*%
G04 Gerber Fmt 4.5, Leading zero omitted, Abs format (unit mm)*
G04 Created by KiCad (PCBNEW 5.1.5+dfsg1-2build2) date 2021-06-04 03:42:03*
%MOMM*%
%LPD*%
G04 APERTURE LIST*
%TA.AperFunction,Profile*%
%ADD10C,0.100000*%
%TD*%
%ADD11C,0.200000*%
%ADD12C,0.300000*%
G04 APERTURE END LIST*
D10*
X3917596Y-4318000D02*
G75*
G03X3917596Y-4318000I-56796J0D01*
G01*
X2749196Y-2844800D02*
G75*
G03X2749196Y-2844800I-56796J0D01*
G01*
X7168796Y-2819400D02*
G75*
G03X7168796Y-2819400I-56796J0D01*
G01*
X2438400Y-2311400D02*
X7213600Y-2311400D01*
X2311400Y-4673600D02*
X2311400Y-2438400D01*
X7213600Y-4800600D02*
X2438400Y-4800600D01*
X7340600Y-2438400D02*
X7340600Y-4673600D01*
X7340600Y-4673600D02*
G75*
G02X7213600Y-4800600I-127000J0D01*
G01*
X2438400Y-4800600D02*
G75*
G02X2311400Y-4673600I0J127000D01*
G01*
X2311400Y-2438400D02*
G75*
G02X2438400Y-2311400I127000J0D01*
G01*
X7213600Y-2311400D02*
G75*
G02X7340600Y-2438400I0J-127000D01*
G01*
X7168796Y-4572000D02*
G75*
G03X7168796Y-4572000I-56796J0D01*
G01*
D11*
D12*
X2592828Y-5271314D02*
X2592828Y-4971314D01*
X2664257Y-4971314D01*
X2707114Y-4985600D01*
X2735686Y-5014172D01*
X2749971Y-5042743D01*
X2764257Y-5099886D01*
X2764257Y-5142743D01*
X2749971Y-5199886D01*
X2735686Y-5228457D01*
X2707114Y-5257029D01*
X2664257Y-5271314D01*
X2592828Y-5271314D01*
X2892828Y-5271314D02*
X2892828Y-5071314D01*
X2892828Y-5128457D02*
X2907114Y-5099886D01*
X2921400Y-5085600D01*
X2949971Y-5071314D01*
X2978543Y-5071314D01*
X3078543Y-5271314D02*
X3078543Y-5071314D01*
X3078543Y-4971314D02*
X3064257Y-4985600D01*
X3078543Y-4999886D01*
X3092828Y-4985600D01*
X3078543Y-4971314D01*
X3078543Y-4999886D01*
X3264257Y-5271314D02*
X3235686Y-5257029D01*
X3221400Y-5228457D01*
X3221400Y-4971314D01*
X3421400Y-5271314D02*
X3392828Y-5257029D01*
X3378543Y-5228457D01*
X3378543Y-4971314D01*
X3764257Y-5271314D02*
X3764257Y-4971314D01*
X3864257Y-5185600D01*
X3964257Y-4971314D01*
X3964257Y-5271314D01*
X4235686Y-5271314D02*
X4235686Y-5114172D01*
X4221400Y-5085600D01*
X4192828Y-5071314D01*
X4135686Y-5071314D01*
X4107114Y-5085600D01*
X4235686Y-5257029D02*
X4207114Y-5271314D01*
X4135686Y-5271314D01*
X4107114Y-5257029D01*
X4092828Y-5228457D01*
X4092828Y-5199886D01*
X4107114Y-5171314D01*
X4135686Y-5157029D01*
X4207114Y-5157029D01*
X4235686Y-5142743D01*
X4378543Y-5071314D02*
X4378543Y-5371314D01*
X4378543Y-5085600D02*
X4407114Y-5071314D01*
X4464257Y-5071314D01*
X4492828Y-5085600D01*
X4507114Y-5099886D01*
X4521400Y-5128457D01*
X4521400Y-5214172D01*
X4507114Y-5242743D01*
X4492828Y-5257029D01*
X4464257Y-5271314D01*
X4407114Y-5271314D01*
X4378543Y-5257029D01*
X4649971Y-5242743D02*
X4664257Y-5257029D01*
X4649971Y-5271314D01*
X4635686Y-5257029D01*
X4649971Y-5242743D01*
X4649971Y-5271314D01*
X4649971Y-5085600D02*
X4664257Y-5099886D01*
X4649971Y-5114172D01*
X4635686Y-5099886D01*
X4649971Y-5085600D01*
X4649971Y-5114172D01*
M02*
