M48
; DRILL file {KiCad 5.1.5+dfsg1-2build2} date Fr 04 Jun 2021 03:42:01 CEST
; FORMAT={-:-/ absolute / inch / decimal}
; #@! TF.CreationDate,2021-06-04T03:42:01+02:00
; #@! TF.GenerationSoftware,Kicad,Pcbnew,5.1.5+dfsg1-2build2
; #@! TF.FileFunction,Plated,1,2,PTH
FMAT,2
INCH
T1C0.0157
T2C0.0394
T3C0.0728
%
G90
G05
T1
X1.1Y-1.51
X1.14Y-1.71
X1.265Y-1.495
X1.6656Y-1.2944
X1.7Y-1.17
X1.7Y-1.25
X1.74Y-1.17
X1.74Y-1.25
X1.7844Y-1.2944
X2.46Y-1.52
T2
X1.0Y-1.8
X1.1Y-1.8
X1.2Y-1.8
X1.3Y-1.8
X1.4Y-1.8
X1.5Y-1.8
X1.6Y-1.8
X1.7Y-1.8
X1.8Y-1.8
X1.9Y-1.8
X2.0Y-1.8
X2.1Y-1.8
X2.2Y-1.8
X2.3Y-1.8
X2.4Y-1.8
X2.5Y-1.8
X2.6Y-1.8
X1.4Y-1.6
X1.5Y-1.6
X1.6Y-1.6
X1.7Y-1.6
X1.8Y-1.6
X1.9Y-1.6
X2.0Y-1.6
X2.1Y-1.6
X2.2Y-1.6
X2.3Y-1.6
X2.4Y-1.6
X2.5Y-1.6
X2.6Y-1.6
X2.7Y-1.6
X2.8Y-1.6
X1.0Y-1.0
X1.1Y-1.0
X1.2Y-1.0
X1.4Y-1.0
X1.5Y-1.0
X1.6Y-1.0
X1.7Y-1.0
X1.8Y-1.0
X1.9Y-1.0
X2.0Y-1.0
X2.1Y-1.0
X2.2Y-1.0
X2.3Y-1.0
X2.4Y-1.0
X2.5Y-1.0
X2.6Y-1.0
X2.7Y-1.0
X2.8Y-1.0
T3
X1.08Y-1.31
X1.3792Y-1.31
X2.458Y-1.31
X2.7572Y-1.31
T0
M30
