G04 #@! TF.GenerationSoftware,KiCad,Pcbnew,5.1.5+dfsg1-2build2*
G04 #@! TF.CreationDate,2021-06-04T03:42:04+02:00*
G04 #@! TF.ProjectId,circuit8,63697263-7569-4743-982e-6b696361645f,rev?*
G04 #@! TF.SameCoordinates,Original*
G04 #@! TF.FileFunction,Legend,Top*
G04 #@! TF.FilePolarity,Positive*
%FSLAX46Y46*%
G04 Gerber Fmt 4.6, Leading zero omitted, Abs format (unit mm)*
G04 Created by KiCad (PCBNEW 5.1.5+dfsg1-2build2) date 2021-06-04 03:42:04*
%MOMM*%
%LPD*%
G04 APERTURE LIST*
%ADD10C,0.120000*%
%ADD11C,0.150000*%
%ADD12C,0.500000*%
%ADD13C,0.200000*%
%ADD14R,6.000000X3.000000*%
%ADD15O,1.700000X1.700000*%
%ADD16R,1.700000X1.700000*%
%ADD17C,0.100000*%
%ADD18R,0.400000X0.900000*%
%ADD19R,0.650000X1.060000*%
G04 APERTURE END LIST*
D10*
X56185619Y-38715904D02*
X55804666Y-38715904D01*
X55804666Y-37915904D01*
X56757047Y-38677809D02*
X56680857Y-38715904D01*
X56528476Y-38715904D01*
X56452285Y-38677809D01*
X56414190Y-38601619D01*
X56414190Y-38296857D01*
X56452285Y-38220666D01*
X56528476Y-38182571D01*
X56680857Y-38182571D01*
X56757047Y-38220666D01*
X56795142Y-38296857D01*
X56795142Y-38373047D01*
X56414190Y-38449238D01*
X57023714Y-38182571D02*
X57328476Y-38182571D01*
X57138000Y-38715904D02*
X57138000Y-38030190D01*
X57176095Y-37954000D01*
X57252285Y-37915904D01*
X57328476Y-37915904D01*
X57480857Y-38182571D02*
X57785619Y-38182571D01*
X57595142Y-37915904D02*
X57595142Y-38601619D01*
X57633238Y-38677809D01*
X57709428Y-38715904D01*
X57785619Y-38715904D01*
X58623714Y-38677809D02*
X58738000Y-38715904D01*
X58928476Y-38715904D01*
X59004666Y-38677809D01*
X59042761Y-38639714D01*
X59080857Y-38563523D01*
X59080857Y-38487333D01*
X59042761Y-38411142D01*
X59004666Y-38373047D01*
X58928476Y-38334952D01*
X58776095Y-38296857D01*
X58699904Y-38258761D01*
X58661809Y-38220666D01*
X58623714Y-38144476D01*
X58623714Y-38068285D01*
X58661809Y-37992095D01*
X58699904Y-37954000D01*
X58776095Y-37915904D01*
X58966571Y-37915904D01*
X59080857Y-37954000D01*
X59423714Y-38715904D02*
X59423714Y-38182571D01*
X59423714Y-37915904D02*
X59385619Y-37954000D01*
X59423714Y-37992095D01*
X59461809Y-37954000D01*
X59423714Y-37915904D01*
X59423714Y-37992095D01*
X60147523Y-38715904D02*
X60147523Y-37915904D01*
X60147523Y-38677809D02*
X60071333Y-38715904D01*
X59918952Y-38715904D01*
X59842761Y-38677809D01*
X59804666Y-38639714D01*
X59766571Y-38563523D01*
X59766571Y-38334952D01*
X59804666Y-38258761D01*
X59842761Y-38220666D01*
X59918952Y-38182571D01*
X60071333Y-38182571D01*
X60147523Y-38220666D01*
X60833238Y-38677809D02*
X60757047Y-38715904D01*
X60604666Y-38715904D01*
X60528476Y-38677809D01*
X60490380Y-38601619D01*
X60490380Y-38296857D01*
X60528476Y-38220666D01*
X60604666Y-38182571D01*
X60757047Y-38182571D01*
X60833238Y-38220666D01*
X60871333Y-38296857D01*
X60871333Y-38373047D01*
X60490380Y-38449238D01*
X62052285Y-39020666D02*
X62014190Y-38982571D01*
X61938000Y-38868285D01*
X61899904Y-38792095D01*
X61861809Y-38677809D01*
X61823714Y-38487333D01*
X61823714Y-38334952D01*
X61861809Y-38144476D01*
X61899904Y-38030190D01*
X61938000Y-37954000D01*
X62014190Y-37839714D01*
X62052285Y-37801619D01*
X62318952Y-38487333D02*
X62699904Y-38487333D01*
X62242761Y-38715904D02*
X62509428Y-37915904D01*
X62776095Y-38715904D01*
X63042761Y-38182571D02*
X63042761Y-38715904D01*
X63042761Y-38258761D02*
X63080857Y-38220666D01*
X63157047Y-38182571D01*
X63271333Y-38182571D01*
X63347523Y-38220666D01*
X63385619Y-38296857D01*
X63385619Y-38715904D01*
X64109428Y-38715904D02*
X64109428Y-38296857D01*
X64071333Y-38220666D01*
X63995142Y-38182571D01*
X63842761Y-38182571D01*
X63766571Y-38220666D01*
X64109428Y-38677809D02*
X64033238Y-38715904D01*
X63842761Y-38715904D01*
X63766571Y-38677809D01*
X63728476Y-38601619D01*
X63728476Y-38525428D01*
X63766571Y-38449238D01*
X63842761Y-38411142D01*
X64033238Y-38411142D01*
X64109428Y-38373047D01*
X64604666Y-38715904D02*
X64528476Y-38677809D01*
X64490380Y-38601619D01*
X64490380Y-37915904D01*
X65023714Y-38715904D02*
X64947523Y-38677809D01*
X64909428Y-38639714D01*
X64871333Y-38563523D01*
X64871333Y-38334952D01*
X64909428Y-38258761D01*
X64947523Y-38220666D01*
X65023714Y-38182571D01*
X65138000Y-38182571D01*
X65214190Y-38220666D01*
X65252285Y-38258761D01*
X65290380Y-38334952D01*
X65290380Y-38563523D01*
X65252285Y-38639714D01*
X65214190Y-38677809D01*
X65138000Y-38715904D01*
X65023714Y-38715904D01*
X65976095Y-38182571D02*
X65976095Y-38830190D01*
X65938000Y-38906380D01*
X65899904Y-38944476D01*
X65823714Y-38982571D01*
X65709428Y-38982571D01*
X65633238Y-38944476D01*
X65976095Y-38677809D02*
X65899904Y-38715904D01*
X65747523Y-38715904D01*
X65671333Y-38677809D01*
X65633238Y-38639714D01*
X65595142Y-38563523D01*
X65595142Y-38334952D01*
X65633238Y-38258761D01*
X65671333Y-38220666D01*
X65747523Y-38182571D01*
X65899904Y-38182571D01*
X65976095Y-38220666D01*
X66966571Y-38715904D02*
X66966571Y-37915904D01*
X67271333Y-37915904D01*
X67347523Y-37954000D01*
X67385619Y-37992095D01*
X67423714Y-38068285D01*
X67423714Y-38182571D01*
X67385619Y-38258761D01*
X67347523Y-38296857D01*
X67271333Y-38334952D01*
X66966571Y-38334952D01*
X67766571Y-38715904D02*
X67766571Y-38182571D01*
X67766571Y-37915904D02*
X67728476Y-37954000D01*
X67766571Y-37992095D01*
X67804666Y-37954000D01*
X67766571Y-37915904D01*
X67766571Y-37992095D01*
X68147523Y-38182571D02*
X68147523Y-38715904D01*
X68147523Y-38258761D02*
X68185619Y-38220666D01*
X68261809Y-38182571D01*
X68376095Y-38182571D01*
X68452285Y-38220666D01*
X68490380Y-38296857D01*
X68490380Y-38715904D01*
X68833238Y-38677809D02*
X68909428Y-38715904D01*
X69061809Y-38715904D01*
X69138000Y-38677809D01*
X69176095Y-38601619D01*
X69176095Y-38563523D01*
X69138000Y-38487333D01*
X69061809Y-38449238D01*
X68947523Y-38449238D01*
X68871333Y-38411142D01*
X68833238Y-38334952D01*
X68833238Y-38296857D01*
X68871333Y-38220666D01*
X68947523Y-38182571D01*
X69061809Y-38182571D01*
X69138000Y-38220666D01*
X69442761Y-39020666D02*
X69480857Y-38982571D01*
X69557047Y-38868285D01*
X69595142Y-38792095D01*
X69633238Y-38677809D01*
X69671333Y-38487333D01*
X69671333Y-38334952D01*
X69633238Y-38144476D01*
X69595142Y-38030190D01*
X69557047Y-37954000D01*
X69480857Y-37839714D01*
X69442761Y-37801619D01*
X45638952Y-27438333D02*
X46019904Y-27438333D01*
X45562761Y-27666904D02*
X45829428Y-26866904D01*
X46096095Y-27666904D01*
X46362761Y-27666904D02*
X46362761Y-27133571D01*
X46362761Y-27285952D02*
X46400857Y-27209761D01*
X46438952Y-27171666D01*
X46515142Y-27133571D01*
X46591333Y-27133571D01*
X47200857Y-27666904D02*
X47200857Y-26866904D01*
X47200857Y-27628809D02*
X47124666Y-27666904D01*
X46972285Y-27666904D01*
X46896095Y-27628809D01*
X46858000Y-27590714D01*
X46819904Y-27514523D01*
X46819904Y-27285952D01*
X46858000Y-27209761D01*
X46896095Y-27171666D01*
X46972285Y-27133571D01*
X47124666Y-27133571D01*
X47200857Y-27171666D01*
X47924666Y-27133571D02*
X47924666Y-27666904D01*
X47581809Y-27133571D02*
X47581809Y-27552619D01*
X47619904Y-27628809D01*
X47696095Y-27666904D01*
X47810380Y-27666904D01*
X47886571Y-27628809D01*
X47924666Y-27590714D01*
X48305619Y-27666904D02*
X48305619Y-27133571D01*
X48305619Y-26866904D02*
X48267523Y-26905000D01*
X48305619Y-26943095D01*
X48343714Y-26905000D01*
X48305619Y-26866904D01*
X48305619Y-26943095D01*
X48686571Y-27133571D02*
X48686571Y-27666904D01*
X48686571Y-27209761D02*
X48724666Y-27171666D01*
X48800857Y-27133571D01*
X48915142Y-27133571D01*
X48991333Y-27171666D01*
X49029428Y-27247857D01*
X49029428Y-27666904D01*
X49524666Y-27666904D02*
X49448476Y-27628809D01*
X49410380Y-27590714D01*
X49372285Y-27514523D01*
X49372285Y-27285952D01*
X49410380Y-27209761D01*
X49448476Y-27171666D01*
X49524666Y-27133571D01*
X49638952Y-27133571D01*
X49715142Y-27171666D01*
X49753238Y-27209761D01*
X49791333Y-27285952D01*
X49791333Y-27514523D01*
X49753238Y-27590714D01*
X49715142Y-27628809D01*
X49638952Y-27666904D01*
X49524666Y-27666904D01*
X50743714Y-27666904D02*
X50743714Y-26866904D01*
X51200857Y-27666904D01*
X51200857Y-26866904D01*
X51924666Y-27666904D02*
X51924666Y-27247857D01*
X51886571Y-27171666D01*
X51810380Y-27133571D01*
X51658000Y-27133571D01*
X51581809Y-27171666D01*
X51924666Y-27628809D02*
X51848476Y-27666904D01*
X51658000Y-27666904D01*
X51581809Y-27628809D01*
X51543714Y-27552619D01*
X51543714Y-27476428D01*
X51581809Y-27400238D01*
X51658000Y-27362142D01*
X51848476Y-27362142D01*
X51924666Y-27324047D01*
X52305619Y-27133571D02*
X52305619Y-27666904D01*
X52305619Y-27209761D02*
X52343714Y-27171666D01*
X52419904Y-27133571D01*
X52534190Y-27133571D01*
X52610380Y-27171666D01*
X52648476Y-27247857D01*
X52648476Y-27666904D01*
X53143714Y-27666904D02*
X53067523Y-27628809D01*
X53029428Y-27590714D01*
X52991333Y-27514523D01*
X52991333Y-27285952D01*
X53029428Y-27209761D01*
X53067523Y-27171666D01*
X53143714Y-27133571D01*
X53258000Y-27133571D01*
X53334190Y-27171666D01*
X53372285Y-27209761D01*
X53410380Y-27285952D01*
X53410380Y-27514523D01*
X53372285Y-27590714D01*
X53334190Y-27628809D01*
X53258000Y-27666904D01*
X53143714Y-27666904D01*
X54286571Y-26866904D02*
X54781809Y-26866904D01*
X54515142Y-27171666D01*
X54629428Y-27171666D01*
X54705619Y-27209761D01*
X54743714Y-27247857D01*
X54781809Y-27324047D01*
X54781809Y-27514523D01*
X54743714Y-27590714D01*
X54705619Y-27628809D01*
X54629428Y-27666904D01*
X54400857Y-27666904D01*
X54324666Y-27628809D01*
X54286571Y-27590714D01*
X55048476Y-26866904D02*
X55543714Y-26866904D01*
X55277047Y-27171666D01*
X55391333Y-27171666D01*
X55467523Y-27209761D01*
X55505619Y-27247857D01*
X55543714Y-27324047D01*
X55543714Y-27514523D01*
X55505619Y-27590714D01*
X55467523Y-27628809D01*
X55391333Y-27666904D01*
X55162761Y-27666904D01*
X55086571Y-27628809D01*
X55048476Y-27590714D01*
X56762761Y-27247857D02*
X56877047Y-27285952D01*
X56915142Y-27324047D01*
X56953238Y-27400238D01*
X56953238Y-27514523D01*
X56915142Y-27590714D01*
X56877047Y-27628809D01*
X56800857Y-27666904D01*
X56496095Y-27666904D01*
X56496095Y-26866904D01*
X56762761Y-26866904D01*
X56838952Y-26905000D01*
X56877047Y-26943095D01*
X56915142Y-27019285D01*
X56915142Y-27095476D01*
X56877047Y-27171666D01*
X56838952Y-27209761D01*
X56762761Y-27247857D01*
X56496095Y-27247857D01*
X57677047Y-27666904D02*
X57296095Y-27666904D01*
X57296095Y-26866904D01*
X57943714Y-27247857D02*
X58210380Y-27247857D01*
X58324666Y-27666904D02*
X57943714Y-27666904D01*
X57943714Y-26866904D01*
X58324666Y-26866904D01*
X59238952Y-27628809D02*
X59353238Y-27666904D01*
X59543714Y-27666904D01*
X59619904Y-27628809D01*
X59657999Y-27590714D01*
X59696095Y-27514523D01*
X59696095Y-27438333D01*
X59657999Y-27362142D01*
X59619904Y-27324047D01*
X59543714Y-27285952D01*
X59391333Y-27247857D01*
X59315142Y-27209761D01*
X59277047Y-27171666D01*
X59238952Y-27095476D01*
X59238952Y-27019285D01*
X59277047Y-26943095D01*
X59315142Y-26905000D01*
X59391333Y-26866904D01*
X59581809Y-26866904D01*
X59696095Y-26905000D01*
X60343714Y-27628809D02*
X60267523Y-27666904D01*
X60115142Y-27666904D01*
X60038952Y-27628809D01*
X60000857Y-27552619D01*
X60000857Y-27247857D01*
X60038952Y-27171666D01*
X60115142Y-27133571D01*
X60267523Y-27133571D01*
X60343714Y-27171666D01*
X60381809Y-27247857D01*
X60381809Y-27324047D01*
X60000857Y-27400238D01*
X60724666Y-27133571D02*
X60724666Y-27666904D01*
X60724666Y-27209761D02*
X60762761Y-27171666D01*
X60838952Y-27133571D01*
X60953238Y-27133571D01*
X61029428Y-27171666D01*
X61067523Y-27247857D01*
X61067523Y-27666904D01*
X61410380Y-27628809D02*
X61486571Y-27666904D01*
X61638952Y-27666904D01*
X61715142Y-27628809D01*
X61753238Y-27552619D01*
X61753238Y-27514523D01*
X61715142Y-27438333D01*
X61638952Y-27400238D01*
X61524666Y-27400238D01*
X61448476Y-27362142D01*
X61410380Y-27285952D01*
X61410380Y-27247857D01*
X61448476Y-27171666D01*
X61524666Y-27133571D01*
X61638952Y-27133571D01*
X61715142Y-27171666D01*
X62400857Y-27628809D02*
X62324666Y-27666904D01*
X62172285Y-27666904D01*
X62096095Y-27628809D01*
X62057999Y-27552619D01*
X62057999Y-27247857D01*
X62096095Y-27171666D01*
X62172285Y-27133571D01*
X62324666Y-27133571D01*
X62400857Y-27171666D01*
X62438952Y-27247857D01*
X62438952Y-27324047D01*
X62057999Y-27400238D01*
X62819904Y-27628809D02*
X62819904Y-27666904D01*
X62781809Y-27743095D01*
X62743714Y-27781190D01*
X64229428Y-27666904D02*
X63962761Y-27285952D01*
X63772285Y-27666904D02*
X63772285Y-26866904D01*
X64077047Y-26866904D01*
X64153238Y-26905000D01*
X64191333Y-26943095D01*
X64229428Y-27019285D01*
X64229428Y-27133571D01*
X64191333Y-27209761D01*
X64153238Y-27247857D01*
X64077047Y-27285952D01*
X63772285Y-27285952D01*
X64572285Y-27666904D02*
X64572285Y-27133571D01*
X64572285Y-26866904D02*
X64534190Y-26905000D01*
X64572285Y-26943095D01*
X64610380Y-26905000D01*
X64572285Y-26866904D01*
X64572285Y-26943095D01*
X65296095Y-27133571D02*
X65296095Y-27781190D01*
X65258000Y-27857380D01*
X65219904Y-27895476D01*
X65143714Y-27933571D01*
X65029428Y-27933571D01*
X64953238Y-27895476D01*
X65296095Y-27628809D02*
X65219904Y-27666904D01*
X65067523Y-27666904D01*
X64991333Y-27628809D01*
X64953238Y-27590714D01*
X64915142Y-27514523D01*
X64915142Y-27285952D01*
X64953238Y-27209761D01*
X64991333Y-27171666D01*
X65067523Y-27133571D01*
X65219904Y-27133571D01*
X65296095Y-27171666D01*
X65677047Y-27666904D02*
X65677047Y-26866904D01*
X66019904Y-27666904D02*
X66019904Y-27247857D01*
X65981809Y-27171666D01*
X65905619Y-27133571D01*
X65791333Y-27133571D01*
X65715142Y-27171666D01*
X65677047Y-27209761D01*
X66286571Y-27133571D02*
X66591333Y-27133571D01*
X66400857Y-26866904D02*
X66400857Y-27552619D01*
X66438952Y-27628809D01*
X66515142Y-27666904D01*
X66591333Y-27666904D01*
X67429428Y-27628809D02*
X67543714Y-27666904D01*
X67734190Y-27666904D01*
X67810380Y-27628809D01*
X67848476Y-27590714D01*
X67886571Y-27514523D01*
X67886571Y-27438333D01*
X67848476Y-27362142D01*
X67810380Y-27324047D01*
X67734190Y-27285952D01*
X67581809Y-27247857D01*
X67505619Y-27209761D01*
X67467523Y-27171666D01*
X67429428Y-27095476D01*
X67429428Y-27019285D01*
X67467523Y-26943095D01*
X67505619Y-26905000D01*
X67581809Y-26866904D01*
X67772285Y-26866904D01*
X67886571Y-26905000D01*
X68229428Y-27666904D02*
X68229428Y-27133571D01*
X68229428Y-26866904D02*
X68191333Y-26905000D01*
X68229428Y-26943095D01*
X68267523Y-26905000D01*
X68229428Y-26866904D01*
X68229428Y-26943095D01*
X68953238Y-27666904D02*
X68953238Y-26866904D01*
X68953238Y-27628809D02*
X68877047Y-27666904D01*
X68724666Y-27666904D01*
X68648476Y-27628809D01*
X68610380Y-27590714D01*
X68572285Y-27514523D01*
X68572285Y-27285952D01*
X68610380Y-27209761D01*
X68648476Y-27171666D01*
X68724666Y-27133571D01*
X68877047Y-27133571D01*
X68953238Y-27171666D01*
X69638952Y-27628809D02*
X69562761Y-27666904D01*
X69410380Y-27666904D01*
X69334190Y-27628809D01*
X69296095Y-27552619D01*
X69296095Y-27247857D01*
X69334190Y-27171666D01*
X69410380Y-27133571D01*
X69562761Y-27133571D01*
X69638952Y-27171666D01*
X69677047Y-27247857D01*
X69677047Y-27324047D01*
X69296095Y-27400238D01*
X24320976Y-27666904D02*
X24320976Y-26866904D01*
X24625738Y-26866904D01*
X24701928Y-26905000D01*
X24740023Y-26943095D01*
X24778119Y-27019285D01*
X24778119Y-27133571D01*
X24740023Y-27209761D01*
X24701928Y-27247857D01*
X24625738Y-27285952D01*
X24320976Y-27285952D01*
X25235261Y-27666904D02*
X25159071Y-27628809D01*
X25120976Y-27590714D01*
X25082880Y-27514523D01*
X25082880Y-27285952D01*
X25120976Y-27209761D01*
X25159071Y-27171666D01*
X25235261Y-27133571D01*
X25349547Y-27133571D01*
X25425738Y-27171666D01*
X25463833Y-27209761D01*
X25501928Y-27285952D01*
X25501928Y-27514523D01*
X25463833Y-27590714D01*
X25425738Y-27628809D01*
X25349547Y-27666904D01*
X25235261Y-27666904D01*
X25768595Y-27133571D02*
X25920976Y-27666904D01*
X26073357Y-27285952D01*
X26225738Y-27666904D01*
X26378119Y-27133571D01*
X26987642Y-27628809D02*
X26911452Y-27666904D01*
X26759071Y-27666904D01*
X26682880Y-27628809D01*
X26644785Y-27552619D01*
X26644785Y-27247857D01*
X26682880Y-27171666D01*
X26759071Y-27133571D01*
X26911452Y-27133571D01*
X26987642Y-27171666D01*
X27025738Y-27247857D01*
X27025738Y-27324047D01*
X26644785Y-27400238D01*
X27368595Y-27666904D02*
X27368595Y-27133571D01*
X27368595Y-27285952D02*
X27406690Y-27209761D01*
X27444785Y-27171666D01*
X27520976Y-27133571D01*
X27597166Y-27133571D01*
X28435261Y-27628809D02*
X28549547Y-27666904D01*
X28740023Y-27666904D01*
X28816214Y-27628809D01*
X28854309Y-27590714D01*
X28892404Y-27514523D01*
X28892404Y-27438333D01*
X28854309Y-27362142D01*
X28816214Y-27324047D01*
X28740023Y-27285952D01*
X28587642Y-27247857D01*
X28511452Y-27209761D01*
X28473357Y-27171666D01*
X28435261Y-27095476D01*
X28435261Y-27019285D01*
X28473357Y-26943095D01*
X28511452Y-26905000D01*
X28587642Y-26866904D01*
X28778119Y-26866904D01*
X28892404Y-26905000D01*
X29159071Y-27133571D02*
X29311452Y-27666904D01*
X29463833Y-27285952D01*
X29616214Y-27666904D01*
X29768595Y-27133571D01*
X30073357Y-27666904D02*
X30073357Y-27133571D01*
X30073357Y-26866904D02*
X30035261Y-26905000D01*
X30073357Y-26943095D01*
X30111452Y-26905000D01*
X30073357Y-26866904D01*
X30073357Y-26943095D01*
X30340023Y-27133571D02*
X30644785Y-27133571D01*
X30454309Y-26866904D02*
X30454309Y-27552619D01*
X30492404Y-27628809D01*
X30568595Y-27666904D01*
X30644785Y-27666904D01*
X31254309Y-27628809D02*
X31178119Y-27666904D01*
X31025738Y-27666904D01*
X30949547Y-27628809D01*
X30911452Y-27590714D01*
X30873357Y-27514523D01*
X30873357Y-27285952D01*
X30911452Y-27209761D01*
X30949547Y-27171666D01*
X31025738Y-27133571D01*
X31178119Y-27133571D01*
X31254309Y-27171666D01*
X31597166Y-27666904D02*
X31597166Y-26866904D01*
X31940023Y-27666904D02*
X31940023Y-27247857D01*
X31901928Y-27171666D01*
X31825738Y-27133571D01*
X31711452Y-27133571D01*
X31635261Y-27171666D01*
X31597166Y-27209761D01*
D11*
X42918761Y-33694714D02*
X42918761Y-34694714D01*
X42918761Y-33742333D02*
X43014000Y-33694714D01*
X43204476Y-33694714D01*
X43299714Y-33742333D01*
X43347333Y-33789952D01*
X43394952Y-33885190D01*
X43394952Y-34170904D01*
X43347333Y-34266142D01*
X43299714Y-34313761D01*
X43204476Y-34361380D01*
X43014000Y-34361380D01*
X42918761Y-34313761D01*
X43775904Y-34313761D02*
X43871142Y-34361380D01*
X44061619Y-34361380D01*
X44156857Y-34313761D01*
X44204476Y-34218523D01*
X44204476Y-34170904D01*
X44156857Y-34075666D01*
X44061619Y-34028047D01*
X43918761Y-34028047D01*
X43823523Y-33980428D01*
X43775904Y-33885190D01*
X43775904Y-33837571D01*
X43823523Y-33742333D01*
X43918761Y-33694714D01*
X44061619Y-33694714D01*
X44156857Y-33742333D01*
X44537809Y-33694714D02*
X44775904Y-34361380D01*
X45014000Y-33694714D02*
X44775904Y-34361380D01*
X44680666Y-34599476D01*
X44633047Y-34647095D01*
X44537809Y-34694714D01*
X45537809Y-34361380D02*
X45442571Y-34313761D01*
X45394952Y-34218523D01*
X45394952Y-33361380D01*
X45918761Y-34361380D02*
X45918761Y-33694714D01*
X45918761Y-33361380D02*
X45871142Y-33409000D01*
X45918761Y-33456619D01*
X45966380Y-33409000D01*
X45918761Y-33361380D01*
X45918761Y-33456619D01*
X46394952Y-33694714D02*
X46394952Y-34361380D01*
X46394952Y-33789952D02*
X46442571Y-33742333D01*
X46537809Y-33694714D01*
X46680666Y-33694714D01*
X46775904Y-33742333D01*
X46823523Y-33837571D01*
X46823523Y-34361380D01*
X47299714Y-34361380D02*
X47299714Y-33361380D01*
X47394952Y-33980428D02*
X47680666Y-34361380D01*
X47680666Y-33694714D02*
X47299714Y-34075666D01*
X48109238Y-34266142D02*
X48156857Y-34313761D01*
X48109238Y-34361380D01*
X48061619Y-34313761D01*
X48109238Y-34266142D01*
X48109238Y-34361380D01*
X48585428Y-34361380D02*
X48585428Y-33694714D01*
X48585428Y-33789952D02*
X48633047Y-33742333D01*
X48728285Y-33694714D01*
X48871142Y-33694714D01*
X48966380Y-33742333D01*
X49014000Y-33837571D01*
X49014000Y-34361380D01*
X49014000Y-33837571D02*
X49061619Y-33742333D01*
X49156857Y-33694714D01*
X49299714Y-33694714D01*
X49394952Y-33742333D01*
X49442571Y-33837571D01*
X49442571Y-34361380D01*
X50299714Y-34313761D02*
X50204476Y-34361380D01*
X50014000Y-34361380D01*
X49918761Y-34313761D01*
X49871142Y-34218523D01*
X49871142Y-33837571D01*
X49918761Y-33742333D01*
X50014000Y-33694714D01*
X50204476Y-33694714D01*
X50299714Y-33742333D01*
X50347333Y-33837571D01*
X50347333Y-33932809D01*
X49871142Y-34028047D01*
X51490190Y-33313761D02*
X50633047Y-34599476D01*
X51823523Y-34361380D02*
X51823523Y-33361380D01*
X51823523Y-33742333D02*
X51918761Y-33694714D01*
X52109238Y-33694714D01*
X52204476Y-33742333D01*
X52252095Y-33789952D01*
X52299714Y-33885190D01*
X52299714Y-34170904D01*
X52252095Y-34266142D01*
X52204476Y-34313761D01*
X52109238Y-34361380D01*
X51918761Y-34361380D01*
X51823523Y-34313761D01*
X52728285Y-33694714D02*
X52728285Y-34694714D01*
X52728285Y-33742333D02*
X52823523Y-33694714D01*
X53014000Y-33694714D01*
X53109238Y-33742333D01*
X53156857Y-33789952D01*
X53204476Y-33885190D01*
X53204476Y-34170904D01*
X53156857Y-34266142D01*
X53109238Y-34313761D01*
X53014000Y-34361380D01*
X52823523Y-34361380D01*
X52728285Y-34313761D01*
X53585428Y-33456619D02*
X53633047Y-33409000D01*
X53728285Y-33361380D01*
X53966380Y-33361380D01*
X54061619Y-33409000D01*
X54109238Y-33456619D01*
X54156857Y-33551857D01*
X54156857Y-33647095D01*
X54109238Y-33789952D01*
X53537809Y-34361380D01*
X54156857Y-34361380D01*
D12*
X56451500Y-32575500D02*
X56451500Y-33845500D01*
X41465500Y-33210500D02*
X40132000Y-33210500D01*
X40830500Y-32575500D02*
X40830500Y-33845500D01*
D11*
X39179500Y-44069000D02*
X39179500Y-45339000D01*
X37782500Y-44069000D02*
X39179500Y-44069000D01*
X34417000Y-43688000D02*
X34671000Y-43688000D01*
X34417000Y-43688000D02*
X34417000Y-45339000D01*
X34099500Y-43688000D02*
X34099500Y-45339000D01*
X32766000Y-43688000D02*
X34099500Y-43688000D01*
X29527500Y-43688000D02*
X29527500Y-45339000D01*
X30543500Y-43688000D02*
X29527500Y-43688000D01*
X23812500Y-44069000D02*
X23812500Y-45529500D01*
X24828500Y-44069000D02*
X23812500Y-44069000D01*
X28892500Y-44069000D02*
X28892500Y-45148500D01*
X28321000Y-44069000D02*
X28892500Y-44069000D01*
D13*
X25704904Y-43328500D02*
X25600142Y-43276119D01*
X25443000Y-43276119D01*
X25285857Y-43328500D01*
X25181095Y-43433261D01*
X25128714Y-43538023D01*
X25076333Y-43747547D01*
X25076333Y-43904690D01*
X25128714Y-44114214D01*
X25181095Y-44218976D01*
X25285857Y-44323738D01*
X25443000Y-44376119D01*
X25547761Y-44376119D01*
X25704904Y-44323738D01*
X25757285Y-44271357D01*
X25757285Y-43904690D01*
X25547761Y-43904690D01*
X26228714Y-44376119D02*
X26228714Y-43276119D01*
X26857285Y-44376119D01*
X26857285Y-43276119D01*
X27381095Y-44376119D02*
X27381095Y-43276119D01*
X27643000Y-43276119D01*
X27800142Y-43328500D01*
X27904904Y-43433261D01*
X27957285Y-43538023D01*
X28009666Y-43747547D01*
X28009666Y-43904690D01*
X27957285Y-44114214D01*
X27904904Y-44218976D01*
X27800142Y-44323738D01*
X27643000Y-44376119D01*
X27381095Y-44376119D01*
X30638880Y-42768119D02*
X31005547Y-43868119D01*
X31372214Y-42768119D01*
X31738880Y-43449071D02*
X32576976Y-43449071D01*
X32157928Y-43868119D02*
X32157928Y-43030023D01*
X34702142Y-42704619D02*
X35068809Y-43804619D01*
X35435476Y-42704619D01*
X35802142Y-43804619D02*
X35802142Y-43071285D01*
X35802142Y-43280809D02*
X35854523Y-43176047D01*
X35906904Y-43123666D01*
X36011666Y-43071285D01*
X36116428Y-43071285D01*
X36902142Y-43752238D02*
X36797380Y-43804619D01*
X36587857Y-43804619D01*
X36483095Y-43752238D01*
X36430714Y-43647476D01*
X36430714Y-43228428D01*
X36483095Y-43123666D01*
X36587857Y-43071285D01*
X36797380Y-43071285D01*
X36902142Y-43123666D01*
X36954523Y-43228428D01*
X36954523Y-43333190D01*
X36430714Y-43437952D01*
X37268809Y-43071285D02*
X37687857Y-43071285D01*
X37425952Y-43804619D02*
X37425952Y-42861761D01*
X37478333Y-42757000D01*
X37583095Y-42704619D01*
X37687857Y-42704619D01*
X39702499Y-43623333D02*
X39702499Y-42643333D01*
X39935833Y-42643333D01*
X40075833Y-42690000D01*
X40169166Y-42783333D01*
X40215833Y-42876666D01*
X40262499Y-43063333D01*
X40262499Y-43203333D01*
X40215833Y-43390000D01*
X40169166Y-43483333D01*
X40075833Y-43576666D01*
X39935833Y-43623333D01*
X39702499Y-43623333D01*
X41102499Y-42970000D02*
X41102499Y-43623333D01*
X40869166Y-42596666D02*
X40635833Y-43296666D01*
X41242499Y-43296666D01*
X42362499Y-43623333D02*
X42362499Y-42643333D01*
X42595833Y-42643333D01*
X42735833Y-42690000D01*
X42829166Y-42783333D01*
X42875833Y-42876666D01*
X42922499Y-43063333D01*
X42922499Y-43203333D01*
X42875833Y-43390000D01*
X42829166Y-43483333D01*
X42735833Y-43576666D01*
X42595833Y-43623333D01*
X42362499Y-43623333D01*
X43249166Y-42643333D02*
X43855833Y-42643333D01*
X43529166Y-43016666D01*
X43669166Y-43016666D01*
X43762499Y-43063333D01*
X43809166Y-43110000D01*
X43855833Y-43203333D01*
X43855833Y-43436666D01*
X43809166Y-43530000D01*
X43762499Y-43576666D01*
X43669166Y-43623333D01*
X43389166Y-43623333D01*
X43295833Y-43576666D01*
X43249166Y-43530000D01*
X45022499Y-43623333D02*
X45022499Y-42643333D01*
X45255833Y-42643333D01*
X45395833Y-42690000D01*
X45489166Y-42783333D01*
X45535833Y-42876666D01*
X45582499Y-43063333D01*
X45582499Y-43203333D01*
X45535833Y-43390000D01*
X45489166Y-43483333D01*
X45395833Y-43576666D01*
X45255833Y-43623333D01*
X45022499Y-43623333D01*
X45955833Y-42736666D02*
X46002499Y-42690000D01*
X46095833Y-42643333D01*
X46329166Y-42643333D01*
X46422499Y-42690000D01*
X46469166Y-42736666D01*
X46515833Y-42830000D01*
X46515833Y-42923333D01*
X46469166Y-43063333D01*
X45909166Y-43623333D01*
X46515833Y-43623333D01*
X47635833Y-43343333D02*
X48102499Y-43343333D01*
X47542499Y-43623333D02*
X47869166Y-42643333D01*
X48195833Y-43623333D01*
X48429166Y-42643333D02*
X49082499Y-42643333D01*
X48662499Y-43623333D01*
X50155833Y-43343333D02*
X50622499Y-43343333D01*
X50062499Y-43623333D02*
X50389166Y-42643333D01*
X50715833Y-43623333D01*
X51462499Y-42643333D02*
X51275833Y-42643333D01*
X51182499Y-42690000D01*
X51135833Y-42736666D01*
X51042499Y-42876666D01*
X50995833Y-43063333D01*
X50995833Y-43436666D01*
X51042499Y-43530000D01*
X51089166Y-43576666D01*
X51182499Y-43623333D01*
X51369166Y-43623333D01*
X51462499Y-43576666D01*
X51509166Y-43530000D01*
X51555833Y-43436666D01*
X51555833Y-43203333D01*
X51509166Y-43110000D01*
X51462499Y-43063333D01*
X51369166Y-43016666D01*
X51182499Y-43016666D01*
X51089166Y-43063333D01*
X51042499Y-43110000D01*
X50995833Y-43203333D01*
X52675833Y-43343333D02*
X53142499Y-43343333D01*
X52582499Y-43623333D02*
X52909166Y-42643333D01*
X53235833Y-43623333D01*
X54029166Y-42643333D02*
X53562499Y-42643333D01*
X53515833Y-43110000D01*
X53562499Y-43063333D01*
X53655833Y-43016666D01*
X53889166Y-43016666D01*
X53982499Y-43063333D01*
X54029166Y-43110000D01*
X54075833Y-43203333D01*
X54075833Y-43436666D01*
X54029166Y-43530000D01*
X53982499Y-43576666D01*
X53889166Y-43623333D01*
X53655833Y-43623333D01*
X53562499Y-43576666D01*
X53515833Y-43530000D01*
X55195833Y-43343333D02*
X55662499Y-43343333D01*
X55102499Y-43623333D02*
X55429166Y-42643333D01*
X55755833Y-43623333D01*
X56502499Y-42970000D02*
X56502499Y-43623333D01*
X56269166Y-42596666D02*
X56035833Y-43296666D01*
X56642499Y-43296666D01*
X57715833Y-43343333D02*
X58182499Y-43343333D01*
X57622499Y-43623333D02*
X57949166Y-42643333D01*
X58275833Y-43623333D01*
X58509166Y-42643333D02*
X59115833Y-42643333D01*
X58789166Y-43016666D01*
X58929166Y-43016666D01*
X59022499Y-43063333D01*
X59069166Y-43110000D01*
X59115833Y-43203333D01*
X59115833Y-43436666D01*
X59069166Y-43530000D01*
X59022499Y-43576666D01*
X58929166Y-43623333D01*
X58649166Y-43623333D01*
X58555833Y-43576666D01*
X58509166Y-43530000D01*
X60235833Y-43343333D02*
X60702499Y-43343333D01*
X60142499Y-43623333D02*
X60469166Y-42643333D01*
X60795833Y-43623333D01*
X61075833Y-42736666D02*
X61122499Y-42690000D01*
X61215833Y-42643333D01*
X61449166Y-42643333D01*
X61542499Y-42690000D01*
X61589166Y-42736666D01*
X61635833Y-42830000D01*
X61635833Y-42923333D01*
X61589166Y-43063333D01*
X61029166Y-43623333D01*
X61635833Y-43623333D01*
X62755833Y-43343333D02*
X63222499Y-43343333D01*
X62662499Y-43623333D02*
X62989166Y-42643333D01*
X63315833Y-43623333D01*
X64155833Y-43623333D02*
X63595833Y-43623333D01*
X63875833Y-43623333D02*
X63875833Y-42643333D01*
X63782499Y-42783333D01*
X63689166Y-42876666D01*
X63595833Y-42923333D01*
X65275833Y-43343333D02*
X65742499Y-43343333D01*
X65182499Y-43623333D02*
X65509166Y-42643333D01*
X65835833Y-43623333D01*
X66349166Y-42643333D02*
X66442499Y-42643333D01*
X66535833Y-42690000D01*
X66582499Y-42736666D01*
X66629166Y-42830000D01*
X66675833Y-43016666D01*
X66675833Y-43250000D01*
X66629166Y-43436666D01*
X66582499Y-43530000D01*
X66535833Y-43576666D01*
X66442499Y-43623333D01*
X66349166Y-43623333D01*
X66255833Y-43576666D01*
X66209166Y-43530000D01*
X66162499Y-43436666D01*
X66115833Y-43250000D01*
X66115833Y-43016666D01*
X66162499Y-42830000D01*
X66209166Y-42736666D01*
X66255833Y-42690000D01*
X66349166Y-42643333D01*
D10*
X40259000Y-34798000D02*
X40259000Y-35814000D01*
X40259000Y-31750000D02*
X40259000Y-30734000D01*
X39116000Y-31750000D02*
X40259000Y-31750000D01*
X39116000Y-34798000D02*
X40259000Y-34798000D01*
X39116000Y-31750000D02*
X39116000Y-34798000D01*
X57785000Y-30734000D02*
X40259000Y-30734000D01*
X57785000Y-35814000D02*
X57785000Y-30734000D01*
X40259000Y-35814000D02*
X57785000Y-35814000D01*
X25432000Y-31274000D02*
X26432000Y-31274000D01*
X26432000Y-35274000D02*
X25432000Y-35274000D01*
X72450000Y-25400000D02*
X72450000Y-26730000D01*
X72450000Y-26730000D02*
X71120000Y-26730000D01*
X69850000Y-26730000D02*
X34230000Y-26730000D01*
X34230000Y-24070000D02*
X34230000Y-26730000D01*
X69850000Y-24070000D02*
X34230000Y-24070000D01*
X69850000Y-24070000D02*
X69850000Y-26730000D01*
X55915936Y-30120000D02*
X57120064Y-30120000D01*
X55915936Y-28300000D02*
X57120064Y-28300000D01*
X50451936Y-28300000D02*
X51656064Y-28300000D01*
X50451936Y-30120000D02*
X51656064Y-30120000D01*
X40675936Y-36174000D02*
X41880064Y-36174000D01*
X40675936Y-37994000D02*
X41880064Y-37994000D01*
X69850000Y-39310000D02*
X69850000Y-41970000D01*
X69850000Y-39310000D02*
X34230000Y-39310000D01*
X34230000Y-39310000D02*
X34230000Y-41970000D01*
X69850000Y-41970000D02*
X34230000Y-41970000D01*
X72450000Y-41970000D02*
X71120000Y-41970000D01*
X72450000Y-40640000D02*
X72450000Y-41970000D01*
X26670000Y-47050000D02*
X26670000Y-44390000D01*
X26670000Y-47050000D02*
X67370000Y-47050000D01*
X67370000Y-47050000D02*
X67370000Y-44390000D01*
X26670000Y-44390000D02*
X67370000Y-44390000D01*
X24070000Y-44390000D02*
X25400000Y-44390000D01*
X24070000Y-45720000D02*
X24070000Y-44390000D01*
X40898578Y-30428000D02*
X40381422Y-30428000D01*
X40898578Y-29008000D02*
X40381422Y-29008000D01*
X52074578Y-37794000D02*
X51557422Y-37794000D01*
X52074578Y-36374000D02*
X51557422Y-36374000D01*
X47756578Y-36374000D02*
X47239422Y-36374000D01*
X47756578Y-37794000D02*
X47239422Y-37794000D01*
X25658578Y-38152000D02*
X25141422Y-38152000D01*
X25658578Y-39572000D02*
X25141422Y-39572000D01*
X25658578Y-42874000D02*
X25141422Y-42874000D01*
X25658578Y-41454000D02*
X25141422Y-41454000D01*
X26670000Y-26730000D02*
X26670000Y-24070000D01*
X26670000Y-26730000D02*
X31810000Y-26730000D01*
X31810000Y-26730000D02*
X31810000Y-24070000D01*
X26670000Y-24070000D02*
X31810000Y-24070000D01*
X24070000Y-24070000D02*
X25400000Y-24070000D01*
X24070000Y-25400000D02*
X24070000Y-24070000D01*
X47134000Y-31180000D02*
X47134000Y-29280000D01*
X44814000Y-29780000D02*
X44814000Y-31180000D01*
X32344000Y-41286000D02*
X32344000Y-39486000D01*
X29124000Y-39486000D02*
X29124000Y-41936000D01*
D11*
X31980285Y-30662571D02*
X32123142Y-30710190D01*
X32170761Y-30757809D01*
X32218380Y-30853047D01*
X32218380Y-30995904D01*
X32170761Y-31091142D01*
X32123142Y-31138761D01*
X32027904Y-31186380D01*
X31646952Y-31186380D01*
X31646952Y-30186380D01*
X31980285Y-30186380D01*
X32075523Y-30234000D01*
X32123142Y-30281619D01*
X32170761Y-30376857D01*
X32170761Y-30472095D01*
X32123142Y-30567333D01*
X32075523Y-30614952D01*
X31980285Y-30662571D01*
X31646952Y-30662571D01*
X32504095Y-30186380D02*
X33075523Y-30186380D01*
X32789809Y-31186380D02*
X32789809Y-30186380D01*
X33932666Y-31186380D02*
X33361238Y-31186380D01*
X33646952Y-31186380D02*
X33646952Y-30186380D01*
X33551714Y-30329238D01*
X33456476Y-30424476D01*
X33361238Y-30472095D01*
X23622047Y-33345428D02*
X24383952Y-33345428D01*
X24003000Y-33726380D02*
X24003000Y-32964476D01*
X56348333Y-31853142D02*
X56300714Y-31900761D01*
X56157857Y-31948380D01*
X56062619Y-31948380D01*
X55919761Y-31900761D01*
X55824523Y-31805523D01*
X55776904Y-31710285D01*
X55729285Y-31519809D01*
X55729285Y-31376952D01*
X55776904Y-31186476D01*
X55824523Y-31091238D01*
X55919761Y-30996000D01*
X56062619Y-30948380D01*
X56157857Y-30948380D01*
X56300714Y-30996000D01*
X56348333Y-31043619D01*
X57300714Y-31948380D02*
X56729285Y-31948380D01*
X57015000Y-31948380D02*
X57015000Y-30948380D01*
X56919761Y-31091238D01*
X56824523Y-31186476D01*
X56729285Y-31234095D01*
X50950833Y-31789642D02*
X50903214Y-31837261D01*
X50760357Y-31884880D01*
X50665119Y-31884880D01*
X50522261Y-31837261D01*
X50427023Y-31742023D01*
X50379404Y-31646785D01*
X50331785Y-31456309D01*
X50331785Y-31313452D01*
X50379404Y-31122976D01*
X50427023Y-31027738D01*
X50522261Y-30932500D01*
X50665119Y-30884880D01*
X50760357Y-30884880D01*
X50903214Y-30932500D01*
X50950833Y-30980119D01*
X51331785Y-30980119D02*
X51379404Y-30932500D01*
X51474642Y-30884880D01*
X51712738Y-30884880D01*
X51807976Y-30932500D01*
X51855595Y-30980119D01*
X51903214Y-31075357D01*
X51903214Y-31170595D01*
X51855595Y-31313452D01*
X51284166Y-31884880D01*
X51903214Y-31884880D01*
X41044833Y-39028642D02*
X40997214Y-39076261D01*
X40854357Y-39123880D01*
X40759119Y-39123880D01*
X40616261Y-39076261D01*
X40521023Y-38981023D01*
X40473404Y-38885785D01*
X40425785Y-38695309D01*
X40425785Y-38552452D01*
X40473404Y-38361976D01*
X40521023Y-38266738D01*
X40616261Y-38171500D01*
X40759119Y-38123880D01*
X40854357Y-38123880D01*
X40997214Y-38171500D01*
X41044833Y-38219119D01*
X41378166Y-38123880D02*
X41997214Y-38123880D01*
X41663880Y-38504833D01*
X41806738Y-38504833D01*
X41901976Y-38552452D01*
X41949595Y-38600071D01*
X41997214Y-38695309D01*
X41997214Y-38933404D01*
X41949595Y-39028642D01*
X41901976Y-39076261D01*
X41806738Y-39123880D01*
X41521023Y-39123880D01*
X41425785Y-39076261D01*
X41378166Y-39028642D01*
X40473333Y-28582880D02*
X39997142Y-28582880D01*
X39997142Y-27582880D01*
X41330476Y-28582880D02*
X40759047Y-28582880D01*
X41044761Y-28582880D02*
X41044761Y-27582880D01*
X40949523Y-27725738D01*
X40854285Y-27820976D01*
X40759047Y-27868595D01*
X51649333Y-39186380D02*
X51316000Y-38710190D01*
X51077904Y-39186380D02*
X51077904Y-38186380D01*
X51458857Y-38186380D01*
X51554095Y-38234000D01*
X51601714Y-38281619D01*
X51649333Y-38376857D01*
X51649333Y-38519714D01*
X51601714Y-38614952D01*
X51554095Y-38662571D01*
X51458857Y-38710190D01*
X51077904Y-38710190D01*
X52601714Y-39186380D02*
X52030285Y-39186380D01*
X52316000Y-39186380D02*
X52316000Y-38186380D01*
X52220761Y-38329238D01*
X52125523Y-38424476D01*
X52030285Y-38472095D01*
X47331333Y-39186380D02*
X46998000Y-38710190D01*
X46759904Y-39186380D02*
X46759904Y-38186380D01*
X47140857Y-38186380D01*
X47236095Y-38234000D01*
X47283714Y-38281619D01*
X47331333Y-38376857D01*
X47331333Y-38519714D01*
X47283714Y-38614952D01*
X47236095Y-38662571D01*
X47140857Y-38710190D01*
X46759904Y-38710190D01*
X47712285Y-38281619D02*
X47759904Y-38234000D01*
X47855142Y-38186380D01*
X48093238Y-38186380D01*
X48188476Y-38234000D01*
X48236095Y-38281619D01*
X48283714Y-38376857D01*
X48283714Y-38472095D01*
X48236095Y-38614952D01*
X47664666Y-39186380D01*
X48283714Y-39186380D01*
X25233333Y-37726880D02*
X24900000Y-37250690D01*
X24661904Y-37726880D02*
X24661904Y-36726880D01*
X25042857Y-36726880D01*
X25138095Y-36774500D01*
X25185714Y-36822119D01*
X25233333Y-36917357D01*
X25233333Y-37060214D01*
X25185714Y-37155452D01*
X25138095Y-37203071D01*
X25042857Y-37250690D01*
X24661904Y-37250690D01*
X25566666Y-36726880D02*
X26185714Y-36726880D01*
X25852380Y-37107833D01*
X25995238Y-37107833D01*
X26090476Y-37155452D01*
X26138095Y-37203071D01*
X26185714Y-37298309D01*
X26185714Y-37536404D01*
X26138095Y-37631642D01*
X26090476Y-37679261D01*
X25995238Y-37726880D01*
X25709523Y-37726880D01*
X25614285Y-37679261D01*
X25566666Y-37631642D01*
X25233333Y-41028880D02*
X24900000Y-40552690D01*
X24661904Y-41028880D02*
X24661904Y-40028880D01*
X25042857Y-40028880D01*
X25138095Y-40076500D01*
X25185714Y-40124119D01*
X25233333Y-40219357D01*
X25233333Y-40362214D01*
X25185714Y-40457452D01*
X25138095Y-40505071D01*
X25042857Y-40552690D01*
X24661904Y-40552690D01*
X26090476Y-40362214D02*
X26090476Y-41028880D01*
X25852380Y-39981261D02*
X25614285Y-40695547D01*
X26233333Y-40695547D01*
X47426380Y-31241904D02*
X48235904Y-31241904D01*
X48331142Y-31194285D01*
X48378761Y-31146666D01*
X48426380Y-31051428D01*
X48426380Y-30860952D01*
X48378761Y-30765714D01*
X48331142Y-30718095D01*
X48235904Y-30670476D01*
X47426380Y-30670476D01*
X48426380Y-29670476D02*
X48426380Y-30241904D01*
X48426380Y-29956190D02*
X47426380Y-29956190D01*
X47569238Y-30051428D01*
X47664476Y-30146666D01*
X47712095Y-30241904D01*
X27286380Y-41147904D02*
X28095904Y-41147904D01*
X28191142Y-41100285D01*
X28238761Y-41052666D01*
X28286380Y-40957428D01*
X28286380Y-40766952D01*
X28238761Y-40671714D01*
X28191142Y-40624095D01*
X28095904Y-40576476D01*
X27286380Y-40576476D01*
X27381619Y-40147904D02*
X27334000Y-40100285D01*
X27286380Y-40005047D01*
X27286380Y-39766952D01*
X27334000Y-39671714D01*
X27381619Y-39624095D01*
X27476857Y-39576476D01*
X27572095Y-39576476D01*
X27714952Y-39624095D01*
X28286380Y-40195523D01*
X28286380Y-39576476D01*
%LPC*%
D14*
X28432000Y-33274000D03*
X69032000Y-33274000D03*
X34032000Y-33274000D03*
X63432000Y-33274000D03*
D15*
X35560000Y-25400000D03*
X38100000Y-25400000D03*
X40640000Y-25400000D03*
X43180000Y-25400000D03*
X45720000Y-25400000D03*
X48260000Y-25400000D03*
X50800000Y-25400000D03*
X53340000Y-25400000D03*
X55880000Y-25400000D03*
X58420000Y-25400000D03*
X60960000Y-25400000D03*
X63500000Y-25400000D03*
X66040000Y-25400000D03*
X68580000Y-25400000D03*
D16*
X71120000Y-25400000D03*
D17*
G36*
X58317504Y-28336204D02*
G01*
X58341773Y-28339804D01*
X58365571Y-28345765D01*
X58388671Y-28354030D01*
X58410849Y-28364520D01*
X58431893Y-28377133D01*
X58451598Y-28391747D01*
X58469777Y-28408223D01*
X58486253Y-28426402D01*
X58500867Y-28446107D01*
X58513480Y-28467151D01*
X58523970Y-28489329D01*
X58532235Y-28512429D01*
X58538196Y-28536227D01*
X58541796Y-28560496D01*
X58543000Y-28585000D01*
X58543000Y-29835000D01*
X58541796Y-29859504D01*
X58538196Y-29883773D01*
X58532235Y-29907571D01*
X58523970Y-29930671D01*
X58513480Y-29952849D01*
X58500867Y-29973893D01*
X58486253Y-29993598D01*
X58469777Y-30011777D01*
X58451598Y-30028253D01*
X58431893Y-30042867D01*
X58410849Y-30055480D01*
X58388671Y-30065970D01*
X58365571Y-30074235D01*
X58341773Y-30080196D01*
X58317504Y-30083796D01*
X58293000Y-30085000D01*
X57543000Y-30085000D01*
X57518496Y-30083796D01*
X57494227Y-30080196D01*
X57470429Y-30074235D01*
X57447329Y-30065970D01*
X57425151Y-30055480D01*
X57404107Y-30042867D01*
X57384402Y-30028253D01*
X57366223Y-30011777D01*
X57349747Y-29993598D01*
X57335133Y-29973893D01*
X57322520Y-29952849D01*
X57312030Y-29930671D01*
X57303765Y-29907571D01*
X57297804Y-29883773D01*
X57294204Y-29859504D01*
X57293000Y-29835000D01*
X57293000Y-28585000D01*
X57294204Y-28560496D01*
X57297804Y-28536227D01*
X57303765Y-28512429D01*
X57312030Y-28489329D01*
X57322520Y-28467151D01*
X57335133Y-28446107D01*
X57349747Y-28426402D01*
X57366223Y-28408223D01*
X57384402Y-28391747D01*
X57404107Y-28377133D01*
X57425151Y-28364520D01*
X57447329Y-28354030D01*
X57470429Y-28345765D01*
X57494227Y-28339804D01*
X57518496Y-28336204D01*
X57543000Y-28335000D01*
X58293000Y-28335000D01*
X58317504Y-28336204D01*
G37*
G36*
X55517504Y-28336204D02*
G01*
X55541773Y-28339804D01*
X55565571Y-28345765D01*
X55588671Y-28354030D01*
X55610849Y-28364520D01*
X55631893Y-28377133D01*
X55651598Y-28391747D01*
X55669777Y-28408223D01*
X55686253Y-28426402D01*
X55700867Y-28446107D01*
X55713480Y-28467151D01*
X55723970Y-28489329D01*
X55732235Y-28512429D01*
X55738196Y-28536227D01*
X55741796Y-28560496D01*
X55743000Y-28585000D01*
X55743000Y-29835000D01*
X55741796Y-29859504D01*
X55738196Y-29883773D01*
X55732235Y-29907571D01*
X55723970Y-29930671D01*
X55713480Y-29952849D01*
X55700867Y-29973893D01*
X55686253Y-29993598D01*
X55669777Y-30011777D01*
X55651598Y-30028253D01*
X55631893Y-30042867D01*
X55610849Y-30055480D01*
X55588671Y-30065970D01*
X55565571Y-30074235D01*
X55541773Y-30080196D01*
X55517504Y-30083796D01*
X55493000Y-30085000D01*
X54743000Y-30085000D01*
X54718496Y-30083796D01*
X54694227Y-30080196D01*
X54670429Y-30074235D01*
X54647329Y-30065970D01*
X54625151Y-30055480D01*
X54604107Y-30042867D01*
X54584402Y-30028253D01*
X54566223Y-30011777D01*
X54549747Y-29993598D01*
X54535133Y-29973893D01*
X54522520Y-29952849D01*
X54512030Y-29930671D01*
X54503765Y-29907571D01*
X54497804Y-29883773D01*
X54494204Y-29859504D01*
X54493000Y-29835000D01*
X54493000Y-28585000D01*
X54494204Y-28560496D01*
X54497804Y-28536227D01*
X54503765Y-28512429D01*
X54512030Y-28489329D01*
X54522520Y-28467151D01*
X54535133Y-28446107D01*
X54549747Y-28426402D01*
X54566223Y-28408223D01*
X54584402Y-28391747D01*
X54604107Y-28377133D01*
X54625151Y-28364520D01*
X54647329Y-28354030D01*
X54670429Y-28345765D01*
X54694227Y-28339804D01*
X54718496Y-28336204D01*
X54743000Y-28335000D01*
X55493000Y-28335000D01*
X55517504Y-28336204D01*
G37*
G36*
X50053504Y-28336204D02*
G01*
X50077773Y-28339804D01*
X50101571Y-28345765D01*
X50124671Y-28354030D01*
X50146849Y-28364520D01*
X50167893Y-28377133D01*
X50187598Y-28391747D01*
X50205777Y-28408223D01*
X50222253Y-28426402D01*
X50236867Y-28446107D01*
X50249480Y-28467151D01*
X50259970Y-28489329D01*
X50268235Y-28512429D01*
X50274196Y-28536227D01*
X50277796Y-28560496D01*
X50279000Y-28585000D01*
X50279000Y-29835000D01*
X50277796Y-29859504D01*
X50274196Y-29883773D01*
X50268235Y-29907571D01*
X50259970Y-29930671D01*
X50249480Y-29952849D01*
X50236867Y-29973893D01*
X50222253Y-29993598D01*
X50205777Y-30011777D01*
X50187598Y-30028253D01*
X50167893Y-30042867D01*
X50146849Y-30055480D01*
X50124671Y-30065970D01*
X50101571Y-30074235D01*
X50077773Y-30080196D01*
X50053504Y-30083796D01*
X50029000Y-30085000D01*
X49279000Y-30085000D01*
X49254496Y-30083796D01*
X49230227Y-30080196D01*
X49206429Y-30074235D01*
X49183329Y-30065970D01*
X49161151Y-30055480D01*
X49140107Y-30042867D01*
X49120402Y-30028253D01*
X49102223Y-30011777D01*
X49085747Y-29993598D01*
X49071133Y-29973893D01*
X49058520Y-29952849D01*
X49048030Y-29930671D01*
X49039765Y-29907571D01*
X49033804Y-29883773D01*
X49030204Y-29859504D01*
X49029000Y-29835000D01*
X49029000Y-28585000D01*
X49030204Y-28560496D01*
X49033804Y-28536227D01*
X49039765Y-28512429D01*
X49048030Y-28489329D01*
X49058520Y-28467151D01*
X49071133Y-28446107D01*
X49085747Y-28426402D01*
X49102223Y-28408223D01*
X49120402Y-28391747D01*
X49140107Y-28377133D01*
X49161151Y-28364520D01*
X49183329Y-28354030D01*
X49206429Y-28345765D01*
X49230227Y-28339804D01*
X49254496Y-28336204D01*
X49279000Y-28335000D01*
X50029000Y-28335000D01*
X50053504Y-28336204D01*
G37*
G36*
X52853504Y-28336204D02*
G01*
X52877773Y-28339804D01*
X52901571Y-28345765D01*
X52924671Y-28354030D01*
X52946849Y-28364520D01*
X52967893Y-28377133D01*
X52987598Y-28391747D01*
X53005777Y-28408223D01*
X53022253Y-28426402D01*
X53036867Y-28446107D01*
X53049480Y-28467151D01*
X53059970Y-28489329D01*
X53068235Y-28512429D01*
X53074196Y-28536227D01*
X53077796Y-28560496D01*
X53079000Y-28585000D01*
X53079000Y-29835000D01*
X53077796Y-29859504D01*
X53074196Y-29883773D01*
X53068235Y-29907571D01*
X53059970Y-29930671D01*
X53049480Y-29952849D01*
X53036867Y-29973893D01*
X53022253Y-29993598D01*
X53005777Y-30011777D01*
X52987598Y-30028253D01*
X52967893Y-30042867D01*
X52946849Y-30055480D01*
X52924671Y-30065970D01*
X52901571Y-30074235D01*
X52877773Y-30080196D01*
X52853504Y-30083796D01*
X52829000Y-30085000D01*
X52079000Y-30085000D01*
X52054496Y-30083796D01*
X52030227Y-30080196D01*
X52006429Y-30074235D01*
X51983329Y-30065970D01*
X51961151Y-30055480D01*
X51940107Y-30042867D01*
X51920402Y-30028253D01*
X51902223Y-30011777D01*
X51885747Y-29993598D01*
X51871133Y-29973893D01*
X51858520Y-29952849D01*
X51848030Y-29930671D01*
X51839765Y-29907571D01*
X51833804Y-29883773D01*
X51830204Y-29859504D01*
X51829000Y-29835000D01*
X51829000Y-28585000D01*
X51830204Y-28560496D01*
X51833804Y-28536227D01*
X51839765Y-28512429D01*
X51848030Y-28489329D01*
X51858520Y-28467151D01*
X51871133Y-28446107D01*
X51885747Y-28426402D01*
X51902223Y-28408223D01*
X51920402Y-28391747D01*
X51940107Y-28377133D01*
X51961151Y-28364520D01*
X51983329Y-28354030D01*
X52006429Y-28345765D01*
X52030227Y-28339804D01*
X52054496Y-28336204D01*
X52079000Y-28335000D01*
X52829000Y-28335000D01*
X52853504Y-28336204D01*
G37*
G36*
X40277504Y-36210204D02*
G01*
X40301773Y-36213804D01*
X40325571Y-36219765D01*
X40348671Y-36228030D01*
X40370849Y-36238520D01*
X40391893Y-36251133D01*
X40411598Y-36265747D01*
X40429777Y-36282223D01*
X40446253Y-36300402D01*
X40460867Y-36320107D01*
X40473480Y-36341151D01*
X40483970Y-36363329D01*
X40492235Y-36386429D01*
X40498196Y-36410227D01*
X40501796Y-36434496D01*
X40503000Y-36459000D01*
X40503000Y-37709000D01*
X40501796Y-37733504D01*
X40498196Y-37757773D01*
X40492235Y-37781571D01*
X40483970Y-37804671D01*
X40473480Y-37826849D01*
X40460867Y-37847893D01*
X40446253Y-37867598D01*
X40429777Y-37885777D01*
X40411598Y-37902253D01*
X40391893Y-37916867D01*
X40370849Y-37929480D01*
X40348671Y-37939970D01*
X40325571Y-37948235D01*
X40301773Y-37954196D01*
X40277504Y-37957796D01*
X40253000Y-37959000D01*
X39503000Y-37959000D01*
X39478496Y-37957796D01*
X39454227Y-37954196D01*
X39430429Y-37948235D01*
X39407329Y-37939970D01*
X39385151Y-37929480D01*
X39364107Y-37916867D01*
X39344402Y-37902253D01*
X39326223Y-37885777D01*
X39309747Y-37867598D01*
X39295133Y-37847893D01*
X39282520Y-37826849D01*
X39272030Y-37804671D01*
X39263765Y-37781571D01*
X39257804Y-37757773D01*
X39254204Y-37733504D01*
X39253000Y-37709000D01*
X39253000Y-36459000D01*
X39254204Y-36434496D01*
X39257804Y-36410227D01*
X39263765Y-36386429D01*
X39272030Y-36363329D01*
X39282520Y-36341151D01*
X39295133Y-36320107D01*
X39309747Y-36300402D01*
X39326223Y-36282223D01*
X39344402Y-36265747D01*
X39364107Y-36251133D01*
X39385151Y-36238520D01*
X39407329Y-36228030D01*
X39430429Y-36219765D01*
X39454227Y-36213804D01*
X39478496Y-36210204D01*
X39503000Y-36209000D01*
X40253000Y-36209000D01*
X40277504Y-36210204D01*
G37*
G36*
X43077504Y-36210204D02*
G01*
X43101773Y-36213804D01*
X43125571Y-36219765D01*
X43148671Y-36228030D01*
X43170849Y-36238520D01*
X43191893Y-36251133D01*
X43211598Y-36265747D01*
X43229777Y-36282223D01*
X43246253Y-36300402D01*
X43260867Y-36320107D01*
X43273480Y-36341151D01*
X43283970Y-36363329D01*
X43292235Y-36386429D01*
X43298196Y-36410227D01*
X43301796Y-36434496D01*
X43303000Y-36459000D01*
X43303000Y-37709000D01*
X43301796Y-37733504D01*
X43298196Y-37757773D01*
X43292235Y-37781571D01*
X43283970Y-37804671D01*
X43273480Y-37826849D01*
X43260867Y-37847893D01*
X43246253Y-37867598D01*
X43229777Y-37885777D01*
X43211598Y-37902253D01*
X43191893Y-37916867D01*
X43170849Y-37929480D01*
X43148671Y-37939970D01*
X43125571Y-37948235D01*
X43101773Y-37954196D01*
X43077504Y-37957796D01*
X43053000Y-37959000D01*
X42303000Y-37959000D01*
X42278496Y-37957796D01*
X42254227Y-37954196D01*
X42230429Y-37948235D01*
X42207329Y-37939970D01*
X42185151Y-37929480D01*
X42164107Y-37916867D01*
X42144402Y-37902253D01*
X42126223Y-37885777D01*
X42109747Y-37867598D01*
X42095133Y-37847893D01*
X42082520Y-37826849D01*
X42072030Y-37804671D01*
X42063765Y-37781571D01*
X42057804Y-37757773D01*
X42054204Y-37733504D01*
X42053000Y-37709000D01*
X42053000Y-36459000D01*
X42054204Y-36434496D01*
X42057804Y-36410227D01*
X42063765Y-36386429D01*
X42072030Y-36363329D01*
X42082520Y-36341151D01*
X42095133Y-36320107D01*
X42109747Y-36300402D01*
X42126223Y-36282223D01*
X42144402Y-36265747D01*
X42164107Y-36251133D01*
X42185151Y-36238520D01*
X42207329Y-36228030D01*
X42230429Y-36219765D01*
X42254227Y-36213804D01*
X42278496Y-36210204D01*
X42303000Y-36209000D01*
X43053000Y-36209000D01*
X43077504Y-36210204D01*
G37*
D16*
X71120000Y-40640000D03*
D15*
X68580000Y-40640000D03*
X66040000Y-40640000D03*
X63500000Y-40640000D03*
X60960000Y-40640000D03*
X58420000Y-40640000D03*
X55880000Y-40640000D03*
X53340000Y-40640000D03*
X50800000Y-40640000D03*
X48260000Y-40640000D03*
X45720000Y-40640000D03*
X43180000Y-40640000D03*
X40640000Y-40640000D03*
X38100000Y-40640000D03*
X35560000Y-40640000D03*
D16*
X25400000Y-45720000D03*
D15*
X27940000Y-45720000D03*
X30480000Y-45720000D03*
X33020000Y-45720000D03*
X35560000Y-45720000D03*
X38100000Y-45720000D03*
X40640000Y-45720000D03*
X43180000Y-45720000D03*
X45720000Y-45720000D03*
X48260000Y-45720000D03*
X50800000Y-45720000D03*
X53340000Y-45720000D03*
X55880000Y-45720000D03*
X58420000Y-45720000D03*
X60960000Y-45720000D03*
X63500000Y-45720000D03*
X66040000Y-45720000D03*
D17*
G36*
X41845142Y-29019174D02*
G01*
X41868803Y-29022684D01*
X41892007Y-29028496D01*
X41914529Y-29036554D01*
X41936153Y-29046782D01*
X41956670Y-29059079D01*
X41975883Y-29073329D01*
X41993607Y-29089393D01*
X42009671Y-29107117D01*
X42023921Y-29126330D01*
X42036218Y-29146847D01*
X42046446Y-29168471D01*
X42054504Y-29190993D01*
X42060316Y-29214197D01*
X42063826Y-29237858D01*
X42065000Y-29261750D01*
X42065000Y-30174250D01*
X42063826Y-30198142D01*
X42060316Y-30221803D01*
X42054504Y-30245007D01*
X42046446Y-30267529D01*
X42036218Y-30289153D01*
X42023921Y-30309670D01*
X42009671Y-30328883D01*
X41993607Y-30346607D01*
X41975883Y-30362671D01*
X41956670Y-30376921D01*
X41936153Y-30389218D01*
X41914529Y-30399446D01*
X41892007Y-30407504D01*
X41868803Y-30413316D01*
X41845142Y-30416826D01*
X41821250Y-30418000D01*
X41333750Y-30418000D01*
X41309858Y-30416826D01*
X41286197Y-30413316D01*
X41262993Y-30407504D01*
X41240471Y-30399446D01*
X41218847Y-30389218D01*
X41198330Y-30376921D01*
X41179117Y-30362671D01*
X41161393Y-30346607D01*
X41145329Y-30328883D01*
X41131079Y-30309670D01*
X41118782Y-30289153D01*
X41108554Y-30267529D01*
X41100496Y-30245007D01*
X41094684Y-30221803D01*
X41091174Y-30198142D01*
X41090000Y-30174250D01*
X41090000Y-29261750D01*
X41091174Y-29237858D01*
X41094684Y-29214197D01*
X41100496Y-29190993D01*
X41108554Y-29168471D01*
X41118782Y-29146847D01*
X41131079Y-29126330D01*
X41145329Y-29107117D01*
X41161393Y-29089393D01*
X41179117Y-29073329D01*
X41198330Y-29059079D01*
X41218847Y-29046782D01*
X41240471Y-29036554D01*
X41262993Y-29028496D01*
X41286197Y-29022684D01*
X41309858Y-29019174D01*
X41333750Y-29018000D01*
X41821250Y-29018000D01*
X41845142Y-29019174D01*
G37*
G36*
X39970142Y-29019174D02*
G01*
X39993803Y-29022684D01*
X40017007Y-29028496D01*
X40039529Y-29036554D01*
X40061153Y-29046782D01*
X40081670Y-29059079D01*
X40100883Y-29073329D01*
X40118607Y-29089393D01*
X40134671Y-29107117D01*
X40148921Y-29126330D01*
X40161218Y-29146847D01*
X40171446Y-29168471D01*
X40179504Y-29190993D01*
X40185316Y-29214197D01*
X40188826Y-29237858D01*
X40190000Y-29261750D01*
X40190000Y-30174250D01*
X40188826Y-30198142D01*
X40185316Y-30221803D01*
X40179504Y-30245007D01*
X40171446Y-30267529D01*
X40161218Y-30289153D01*
X40148921Y-30309670D01*
X40134671Y-30328883D01*
X40118607Y-30346607D01*
X40100883Y-30362671D01*
X40081670Y-30376921D01*
X40061153Y-30389218D01*
X40039529Y-30399446D01*
X40017007Y-30407504D01*
X39993803Y-30413316D01*
X39970142Y-30416826D01*
X39946250Y-30418000D01*
X39458750Y-30418000D01*
X39434858Y-30416826D01*
X39411197Y-30413316D01*
X39387993Y-30407504D01*
X39365471Y-30399446D01*
X39343847Y-30389218D01*
X39323330Y-30376921D01*
X39304117Y-30362671D01*
X39286393Y-30346607D01*
X39270329Y-30328883D01*
X39256079Y-30309670D01*
X39243782Y-30289153D01*
X39233554Y-30267529D01*
X39225496Y-30245007D01*
X39219684Y-30221803D01*
X39216174Y-30198142D01*
X39215000Y-30174250D01*
X39215000Y-29261750D01*
X39216174Y-29237858D01*
X39219684Y-29214197D01*
X39225496Y-29190993D01*
X39233554Y-29168471D01*
X39243782Y-29146847D01*
X39256079Y-29126330D01*
X39270329Y-29107117D01*
X39286393Y-29089393D01*
X39304117Y-29073329D01*
X39323330Y-29059079D01*
X39343847Y-29046782D01*
X39365471Y-29036554D01*
X39387993Y-29028496D01*
X39411197Y-29022684D01*
X39434858Y-29019174D01*
X39458750Y-29018000D01*
X39946250Y-29018000D01*
X39970142Y-29019174D01*
G37*
G36*
X53021142Y-36385174D02*
G01*
X53044803Y-36388684D01*
X53068007Y-36394496D01*
X53090529Y-36402554D01*
X53112153Y-36412782D01*
X53132670Y-36425079D01*
X53151883Y-36439329D01*
X53169607Y-36455393D01*
X53185671Y-36473117D01*
X53199921Y-36492330D01*
X53212218Y-36512847D01*
X53222446Y-36534471D01*
X53230504Y-36556993D01*
X53236316Y-36580197D01*
X53239826Y-36603858D01*
X53241000Y-36627750D01*
X53241000Y-37540250D01*
X53239826Y-37564142D01*
X53236316Y-37587803D01*
X53230504Y-37611007D01*
X53222446Y-37633529D01*
X53212218Y-37655153D01*
X53199921Y-37675670D01*
X53185671Y-37694883D01*
X53169607Y-37712607D01*
X53151883Y-37728671D01*
X53132670Y-37742921D01*
X53112153Y-37755218D01*
X53090529Y-37765446D01*
X53068007Y-37773504D01*
X53044803Y-37779316D01*
X53021142Y-37782826D01*
X52997250Y-37784000D01*
X52509750Y-37784000D01*
X52485858Y-37782826D01*
X52462197Y-37779316D01*
X52438993Y-37773504D01*
X52416471Y-37765446D01*
X52394847Y-37755218D01*
X52374330Y-37742921D01*
X52355117Y-37728671D01*
X52337393Y-37712607D01*
X52321329Y-37694883D01*
X52307079Y-37675670D01*
X52294782Y-37655153D01*
X52284554Y-37633529D01*
X52276496Y-37611007D01*
X52270684Y-37587803D01*
X52267174Y-37564142D01*
X52266000Y-37540250D01*
X52266000Y-36627750D01*
X52267174Y-36603858D01*
X52270684Y-36580197D01*
X52276496Y-36556993D01*
X52284554Y-36534471D01*
X52294782Y-36512847D01*
X52307079Y-36492330D01*
X52321329Y-36473117D01*
X52337393Y-36455393D01*
X52355117Y-36439329D01*
X52374330Y-36425079D01*
X52394847Y-36412782D01*
X52416471Y-36402554D01*
X52438993Y-36394496D01*
X52462197Y-36388684D01*
X52485858Y-36385174D01*
X52509750Y-36384000D01*
X52997250Y-36384000D01*
X53021142Y-36385174D01*
G37*
G36*
X51146142Y-36385174D02*
G01*
X51169803Y-36388684D01*
X51193007Y-36394496D01*
X51215529Y-36402554D01*
X51237153Y-36412782D01*
X51257670Y-36425079D01*
X51276883Y-36439329D01*
X51294607Y-36455393D01*
X51310671Y-36473117D01*
X51324921Y-36492330D01*
X51337218Y-36512847D01*
X51347446Y-36534471D01*
X51355504Y-36556993D01*
X51361316Y-36580197D01*
X51364826Y-36603858D01*
X51366000Y-36627750D01*
X51366000Y-37540250D01*
X51364826Y-37564142D01*
X51361316Y-37587803D01*
X51355504Y-37611007D01*
X51347446Y-37633529D01*
X51337218Y-37655153D01*
X51324921Y-37675670D01*
X51310671Y-37694883D01*
X51294607Y-37712607D01*
X51276883Y-37728671D01*
X51257670Y-37742921D01*
X51237153Y-37755218D01*
X51215529Y-37765446D01*
X51193007Y-37773504D01*
X51169803Y-37779316D01*
X51146142Y-37782826D01*
X51122250Y-37784000D01*
X50634750Y-37784000D01*
X50610858Y-37782826D01*
X50587197Y-37779316D01*
X50563993Y-37773504D01*
X50541471Y-37765446D01*
X50519847Y-37755218D01*
X50499330Y-37742921D01*
X50480117Y-37728671D01*
X50462393Y-37712607D01*
X50446329Y-37694883D01*
X50432079Y-37675670D01*
X50419782Y-37655153D01*
X50409554Y-37633529D01*
X50401496Y-37611007D01*
X50395684Y-37587803D01*
X50392174Y-37564142D01*
X50391000Y-37540250D01*
X50391000Y-36627750D01*
X50392174Y-36603858D01*
X50395684Y-36580197D01*
X50401496Y-36556993D01*
X50409554Y-36534471D01*
X50419782Y-36512847D01*
X50432079Y-36492330D01*
X50446329Y-36473117D01*
X50462393Y-36455393D01*
X50480117Y-36439329D01*
X50499330Y-36425079D01*
X50519847Y-36412782D01*
X50541471Y-36402554D01*
X50563993Y-36394496D01*
X50587197Y-36388684D01*
X50610858Y-36385174D01*
X50634750Y-36384000D01*
X51122250Y-36384000D01*
X51146142Y-36385174D01*
G37*
G36*
X46828142Y-36385174D02*
G01*
X46851803Y-36388684D01*
X46875007Y-36394496D01*
X46897529Y-36402554D01*
X46919153Y-36412782D01*
X46939670Y-36425079D01*
X46958883Y-36439329D01*
X46976607Y-36455393D01*
X46992671Y-36473117D01*
X47006921Y-36492330D01*
X47019218Y-36512847D01*
X47029446Y-36534471D01*
X47037504Y-36556993D01*
X47043316Y-36580197D01*
X47046826Y-36603858D01*
X47048000Y-36627750D01*
X47048000Y-37540250D01*
X47046826Y-37564142D01*
X47043316Y-37587803D01*
X47037504Y-37611007D01*
X47029446Y-37633529D01*
X47019218Y-37655153D01*
X47006921Y-37675670D01*
X46992671Y-37694883D01*
X46976607Y-37712607D01*
X46958883Y-37728671D01*
X46939670Y-37742921D01*
X46919153Y-37755218D01*
X46897529Y-37765446D01*
X46875007Y-37773504D01*
X46851803Y-37779316D01*
X46828142Y-37782826D01*
X46804250Y-37784000D01*
X46316750Y-37784000D01*
X46292858Y-37782826D01*
X46269197Y-37779316D01*
X46245993Y-37773504D01*
X46223471Y-37765446D01*
X46201847Y-37755218D01*
X46181330Y-37742921D01*
X46162117Y-37728671D01*
X46144393Y-37712607D01*
X46128329Y-37694883D01*
X46114079Y-37675670D01*
X46101782Y-37655153D01*
X46091554Y-37633529D01*
X46083496Y-37611007D01*
X46077684Y-37587803D01*
X46074174Y-37564142D01*
X46073000Y-37540250D01*
X46073000Y-36627750D01*
X46074174Y-36603858D01*
X46077684Y-36580197D01*
X46083496Y-36556993D01*
X46091554Y-36534471D01*
X46101782Y-36512847D01*
X46114079Y-36492330D01*
X46128329Y-36473117D01*
X46144393Y-36455393D01*
X46162117Y-36439329D01*
X46181330Y-36425079D01*
X46201847Y-36412782D01*
X46223471Y-36402554D01*
X46245993Y-36394496D01*
X46269197Y-36388684D01*
X46292858Y-36385174D01*
X46316750Y-36384000D01*
X46804250Y-36384000D01*
X46828142Y-36385174D01*
G37*
G36*
X48703142Y-36385174D02*
G01*
X48726803Y-36388684D01*
X48750007Y-36394496D01*
X48772529Y-36402554D01*
X48794153Y-36412782D01*
X48814670Y-36425079D01*
X48833883Y-36439329D01*
X48851607Y-36455393D01*
X48867671Y-36473117D01*
X48881921Y-36492330D01*
X48894218Y-36512847D01*
X48904446Y-36534471D01*
X48912504Y-36556993D01*
X48918316Y-36580197D01*
X48921826Y-36603858D01*
X48923000Y-36627750D01*
X48923000Y-37540250D01*
X48921826Y-37564142D01*
X48918316Y-37587803D01*
X48912504Y-37611007D01*
X48904446Y-37633529D01*
X48894218Y-37655153D01*
X48881921Y-37675670D01*
X48867671Y-37694883D01*
X48851607Y-37712607D01*
X48833883Y-37728671D01*
X48814670Y-37742921D01*
X48794153Y-37755218D01*
X48772529Y-37765446D01*
X48750007Y-37773504D01*
X48726803Y-37779316D01*
X48703142Y-37782826D01*
X48679250Y-37784000D01*
X48191750Y-37784000D01*
X48167858Y-37782826D01*
X48144197Y-37779316D01*
X48120993Y-37773504D01*
X48098471Y-37765446D01*
X48076847Y-37755218D01*
X48056330Y-37742921D01*
X48037117Y-37728671D01*
X48019393Y-37712607D01*
X48003329Y-37694883D01*
X47989079Y-37675670D01*
X47976782Y-37655153D01*
X47966554Y-37633529D01*
X47958496Y-37611007D01*
X47952684Y-37587803D01*
X47949174Y-37564142D01*
X47948000Y-37540250D01*
X47948000Y-36627750D01*
X47949174Y-36603858D01*
X47952684Y-36580197D01*
X47958496Y-36556993D01*
X47966554Y-36534471D01*
X47976782Y-36512847D01*
X47989079Y-36492330D01*
X48003329Y-36473117D01*
X48019393Y-36455393D01*
X48037117Y-36439329D01*
X48056330Y-36425079D01*
X48076847Y-36412782D01*
X48098471Y-36402554D01*
X48120993Y-36394496D01*
X48144197Y-36388684D01*
X48167858Y-36385174D01*
X48191750Y-36384000D01*
X48679250Y-36384000D01*
X48703142Y-36385174D01*
G37*
G36*
X24730142Y-38163174D02*
G01*
X24753803Y-38166684D01*
X24777007Y-38172496D01*
X24799529Y-38180554D01*
X24821153Y-38190782D01*
X24841670Y-38203079D01*
X24860883Y-38217329D01*
X24878607Y-38233393D01*
X24894671Y-38251117D01*
X24908921Y-38270330D01*
X24921218Y-38290847D01*
X24931446Y-38312471D01*
X24939504Y-38334993D01*
X24945316Y-38358197D01*
X24948826Y-38381858D01*
X24950000Y-38405750D01*
X24950000Y-39318250D01*
X24948826Y-39342142D01*
X24945316Y-39365803D01*
X24939504Y-39389007D01*
X24931446Y-39411529D01*
X24921218Y-39433153D01*
X24908921Y-39453670D01*
X24894671Y-39472883D01*
X24878607Y-39490607D01*
X24860883Y-39506671D01*
X24841670Y-39520921D01*
X24821153Y-39533218D01*
X24799529Y-39543446D01*
X24777007Y-39551504D01*
X24753803Y-39557316D01*
X24730142Y-39560826D01*
X24706250Y-39562000D01*
X24218750Y-39562000D01*
X24194858Y-39560826D01*
X24171197Y-39557316D01*
X24147993Y-39551504D01*
X24125471Y-39543446D01*
X24103847Y-39533218D01*
X24083330Y-39520921D01*
X24064117Y-39506671D01*
X24046393Y-39490607D01*
X24030329Y-39472883D01*
X24016079Y-39453670D01*
X24003782Y-39433153D01*
X23993554Y-39411529D01*
X23985496Y-39389007D01*
X23979684Y-39365803D01*
X23976174Y-39342142D01*
X23975000Y-39318250D01*
X23975000Y-38405750D01*
X23976174Y-38381858D01*
X23979684Y-38358197D01*
X23985496Y-38334993D01*
X23993554Y-38312471D01*
X24003782Y-38290847D01*
X24016079Y-38270330D01*
X24030329Y-38251117D01*
X24046393Y-38233393D01*
X24064117Y-38217329D01*
X24083330Y-38203079D01*
X24103847Y-38190782D01*
X24125471Y-38180554D01*
X24147993Y-38172496D01*
X24171197Y-38166684D01*
X24194858Y-38163174D01*
X24218750Y-38162000D01*
X24706250Y-38162000D01*
X24730142Y-38163174D01*
G37*
G36*
X26605142Y-38163174D02*
G01*
X26628803Y-38166684D01*
X26652007Y-38172496D01*
X26674529Y-38180554D01*
X26696153Y-38190782D01*
X26716670Y-38203079D01*
X26735883Y-38217329D01*
X26753607Y-38233393D01*
X26769671Y-38251117D01*
X26783921Y-38270330D01*
X26796218Y-38290847D01*
X26806446Y-38312471D01*
X26814504Y-38334993D01*
X26820316Y-38358197D01*
X26823826Y-38381858D01*
X26825000Y-38405750D01*
X26825000Y-39318250D01*
X26823826Y-39342142D01*
X26820316Y-39365803D01*
X26814504Y-39389007D01*
X26806446Y-39411529D01*
X26796218Y-39433153D01*
X26783921Y-39453670D01*
X26769671Y-39472883D01*
X26753607Y-39490607D01*
X26735883Y-39506671D01*
X26716670Y-39520921D01*
X26696153Y-39533218D01*
X26674529Y-39543446D01*
X26652007Y-39551504D01*
X26628803Y-39557316D01*
X26605142Y-39560826D01*
X26581250Y-39562000D01*
X26093750Y-39562000D01*
X26069858Y-39560826D01*
X26046197Y-39557316D01*
X26022993Y-39551504D01*
X26000471Y-39543446D01*
X25978847Y-39533218D01*
X25958330Y-39520921D01*
X25939117Y-39506671D01*
X25921393Y-39490607D01*
X25905329Y-39472883D01*
X25891079Y-39453670D01*
X25878782Y-39433153D01*
X25868554Y-39411529D01*
X25860496Y-39389007D01*
X25854684Y-39365803D01*
X25851174Y-39342142D01*
X25850000Y-39318250D01*
X25850000Y-38405750D01*
X25851174Y-38381858D01*
X25854684Y-38358197D01*
X25860496Y-38334993D01*
X25868554Y-38312471D01*
X25878782Y-38290847D01*
X25891079Y-38270330D01*
X25905329Y-38251117D01*
X25921393Y-38233393D01*
X25939117Y-38217329D01*
X25958330Y-38203079D01*
X25978847Y-38190782D01*
X26000471Y-38180554D01*
X26022993Y-38172496D01*
X26046197Y-38166684D01*
X26069858Y-38163174D01*
X26093750Y-38162000D01*
X26581250Y-38162000D01*
X26605142Y-38163174D01*
G37*
G36*
X26605142Y-41465174D02*
G01*
X26628803Y-41468684D01*
X26652007Y-41474496D01*
X26674529Y-41482554D01*
X26696153Y-41492782D01*
X26716670Y-41505079D01*
X26735883Y-41519329D01*
X26753607Y-41535393D01*
X26769671Y-41553117D01*
X26783921Y-41572330D01*
X26796218Y-41592847D01*
X26806446Y-41614471D01*
X26814504Y-41636993D01*
X26820316Y-41660197D01*
X26823826Y-41683858D01*
X26825000Y-41707750D01*
X26825000Y-42620250D01*
X26823826Y-42644142D01*
X26820316Y-42667803D01*
X26814504Y-42691007D01*
X26806446Y-42713529D01*
X26796218Y-42735153D01*
X26783921Y-42755670D01*
X26769671Y-42774883D01*
X26753607Y-42792607D01*
X26735883Y-42808671D01*
X26716670Y-42822921D01*
X26696153Y-42835218D01*
X26674529Y-42845446D01*
X26652007Y-42853504D01*
X26628803Y-42859316D01*
X26605142Y-42862826D01*
X26581250Y-42864000D01*
X26093750Y-42864000D01*
X26069858Y-42862826D01*
X26046197Y-42859316D01*
X26022993Y-42853504D01*
X26000471Y-42845446D01*
X25978847Y-42835218D01*
X25958330Y-42822921D01*
X25939117Y-42808671D01*
X25921393Y-42792607D01*
X25905329Y-42774883D01*
X25891079Y-42755670D01*
X25878782Y-42735153D01*
X25868554Y-42713529D01*
X25860496Y-42691007D01*
X25854684Y-42667803D01*
X25851174Y-42644142D01*
X25850000Y-42620250D01*
X25850000Y-41707750D01*
X25851174Y-41683858D01*
X25854684Y-41660197D01*
X25860496Y-41636993D01*
X25868554Y-41614471D01*
X25878782Y-41592847D01*
X25891079Y-41572330D01*
X25905329Y-41553117D01*
X25921393Y-41535393D01*
X25939117Y-41519329D01*
X25958330Y-41505079D01*
X25978847Y-41492782D01*
X26000471Y-41482554D01*
X26022993Y-41474496D01*
X26046197Y-41468684D01*
X26069858Y-41465174D01*
X26093750Y-41464000D01*
X26581250Y-41464000D01*
X26605142Y-41465174D01*
G37*
G36*
X24730142Y-41465174D02*
G01*
X24753803Y-41468684D01*
X24777007Y-41474496D01*
X24799529Y-41482554D01*
X24821153Y-41492782D01*
X24841670Y-41505079D01*
X24860883Y-41519329D01*
X24878607Y-41535393D01*
X24894671Y-41553117D01*
X24908921Y-41572330D01*
X24921218Y-41592847D01*
X24931446Y-41614471D01*
X24939504Y-41636993D01*
X24945316Y-41660197D01*
X24948826Y-41683858D01*
X24950000Y-41707750D01*
X24950000Y-42620250D01*
X24948826Y-42644142D01*
X24945316Y-42667803D01*
X24939504Y-42691007D01*
X24931446Y-42713529D01*
X24921218Y-42735153D01*
X24908921Y-42755670D01*
X24894671Y-42774883D01*
X24878607Y-42792607D01*
X24860883Y-42808671D01*
X24841670Y-42822921D01*
X24821153Y-42835218D01*
X24799529Y-42845446D01*
X24777007Y-42853504D01*
X24753803Y-42859316D01*
X24730142Y-42862826D01*
X24706250Y-42864000D01*
X24218750Y-42864000D01*
X24194858Y-42862826D01*
X24171197Y-42859316D01*
X24147993Y-42853504D01*
X24125471Y-42845446D01*
X24103847Y-42835218D01*
X24083330Y-42822921D01*
X24064117Y-42808671D01*
X24046393Y-42792607D01*
X24030329Y-42774883D01*
X24016079Y-42755670D01*
X24003782Y-42735153D01*
X23993554Y-42713529D01*
X23985496Y-42691007D01*
X23979684Y-42667803D01*
X23976174Y-42644142D01*
X23975000Y-42620250D01*
X23975000Y-41707750D01*
X23976174Y-41683858D01*
X23979684Y-41660197D01*
X23985496Y-41636993D01*
X23993554Y-41614471D01*
X24003782Y-41592847D01*
X24016079Y-41572330D01*
X24030329Y-41553117D01*
X24046393Y-41535393D01*
X24064117Y-41519329D01*
X24083330Y-41505079D01*
X24103847Y-41492782D01*
X24125471Y-41482554D01*
X24147993Y-41474496D01*
X24171197Y-41468684D01*
X24194858Y-41465174D01*
X24218750Y-41464000D01*
X24706250Y-41464000D01*
X24730142Y-41465174D01*
G37*
D16*
X25400000Y-25400000D03*
D15*
X27940000Y-25400000D03*
X30480000Y-25400000D03*
D18*
X46624000Y-29380000D03*
X45324000Y-29380000D03*
X45974000Y-31580000D03*
X45974000Y-29380000D03*
X45324000Y-31580000D03*
X46624000Y-31580000D03*
D19*
X29784000Y-41486000D03*
X30734000Y-41486000D03*
X31684000Y-41486000D03*
X31684000Y-39286000D03*
X29784000Y-39286000D03*
M02*
