%FSLAX45Y45*%
G04 Gerber Fmt 4.5, Leading zero omitted, Abs format (unit mm)*
G04 Created by KiCad (PCBNEW 5.1.5+dfsg1-2build2) date 2021-05-01 03:04:41*
%MOMM*%
%LPD*%
G04 APERTURE LIST*
%TA.AperFunction,Profile*%
%ADD10C,0.100000*%
%TD*%
%ADD11C,0.200000*%
%ADD12C,0.300000*%
G04 APERTURE END LIST*
D10*
X3860800Y-3403600D02*
G75*
G02X3759200Y-3505200I-101600J0D01*
G01*
X1981200Y-3505200D02*
G75*
G02X1879600Y-3403600I0J101600D01*
G01*
X1879600Y-1930400D02*
G75*
G02X1981200Y-1828800I101600J0D01*
G01*
X3759200Y-1828800D02*
G75*
G02X3860800Y-1930400I0J-101600D01*
G01*
X3860800Y-1930400D02*
X3860800Y-3403600D01*
X1981200Y-1828800D02*
X3759200Y-1828800D01*
X1879600Y-3403600D02*
X1879600Y-1930400D01*
X3759200Y-3505200D02*
X1981200Y-3505200D01*
D11*
D12*
X2161028Y-3975914D02*
X2161028Y-3675914D01*
X2232457Y-3675914D01*
X2275314Y-3690200D01*
X2303886Y-3718771D01*
X2318171Y-3747343D01*
X2332457Y-3804486D01*
X2332457Y-3847343D01*
X2318171Y-3904486D01*
X2303886Y-3933057D01*
X2275314Y-3961629D01*
X2232457Y-3975914D01*
X2161028Y-3975914D01*
X2461028Y-3975914D02*
X2461028Y-3775914D01*
X2461028Y-3833057D02*
X2475314Y-3804486D01*
X2489600Y-3790200D01*
X2518171Y-3775914D01*
X2546743Y-3775914D01*
X2646743Y-3975914D02*
X2646743Y-3775914D01*
X2646743Y-3675914D02*
X2632457Y-3690200D01*
X2646743Y-3704486D01*
X2661028Y-3690200D01*
X2646743Y-3675914D01*
X2646743Y-3704486D01*
X2832457Y-3975914D02*
X2803886Y-3961629D01*
X2789600Y-3933057D01*
X2789600Y-3675914D01*
X2989600Y-3975914D02*
X2961028Y-3961629D01*
X2946743Y-3933057D01*
X2946743Y-3675914D01*
X3332457Y-3975914D02*
X3332457Y-3675914D01*
X3432457Y-3890200D01*
X3532457Y-3675914D01*
X3532457Y-3975914D01*
X3803886Y-3975914D02*
X3803886Y-3818771D01*
X3789600Y-3790200D01*
X3761028Y-3775914D01*
X3703886Y-3775914D01*
X3675314Y-3790200D01*
X3803886Y-3961629D02*
X3775314Y-3975914D01*
X3703886Y-3975914D01*
X3675314Y-3961629D01*
X3661028Y-3933057D01*
X3661028Y-3904486D01*
X3675314Y-3875914D01*
X3703886Y-3861629D01*
X3775314Y-3861629D01*
X3803886Y-3847343D01*
X3946743Y-3775914D02*
X3946743Y-4075914D01*
X3946743Y-3790200D02*
X3975314Y-3775914D01*
X4032457Y-3775914D01*
X4061028Y-3790200D01*
X4075314Y-3804486D01*
X4089600Y-3833057D01*
X4089600Y-3918771D01*
X4075314Y-3947343D01*
X4061028Y-3961629D01*
X4032457Y-3975914D01*
X3975314Y-3975914D01*
X3946743Y-3961629D01*
X4218171Y-3947343D02*
X4232457Y-3961629D01*
X4218171Y-3975914D01*
X4203886Y-3961629D01*
X4218171Y-3947343D01*
X4218171Y-3975914D01*
X4218171Y-3790200D02*
X4232457Y-3804486D01*
X4218171Y-3818771D01*
X4203886Y-3804486D01*
X4218171Y-3790200D01*
X4218171Y-3818771D01*
M02*
