%TF.GenerationSoftware,KiCad,Pcbnew,5.1.5+dfsg1-2build2*%
%TF.CreationDate,2021-05-01T03:04:30+02:00*%
%TF.ProjectId,myocular0.5.1d,6d796f63-756c-4617-9230-2e352e31642e,rev?*%
%TF.SameCoordinates,Original*%
%TF.FileFunction,Copper,L1,Top*%
%TF.FilePolarity,Positive*%
%FSLAX46Y46*%
G04 Gerber Fmt 4.6, Leading zero omitted, Abs format (unit mm)*
G04 Created by KiCad (PCBNEW 5.1.5+dfsg1-2build2) date 2021-05-01 03:04:30*
%MOMM*%
%LPD*%
G04 APERTURE LIST*
%ADD10R,1.700000X1.700000*%
%ADD11O,1.700000X1.700000*%
%ADD12C,0.100000*%
%ADD13C,0.800000*%
%ADD14C,0.250000*%
G04 APERTURE END LIST*
D10*
X20828000Y-33020000D03*
D11*
X20828000Y-30480000D03*
X20828000Y-27940000D03*
D10*
X20828000Y-20320000D03*
D11*
X20828000Y-22860000D03*
X20828000Y-25400000D03*
D10*
X28702000Y-33020000D03*
%TA.AperFunction,SMDPad,CuDef*%
D12*
G36*
X25288703Y-25735722D02*
G01*
X25303264Y-25737882D01*
X25317543Y-25741459D01*
X25331403Y-25746418D01*
X25344710Y-25752712D01*
X25357336Y-25760280D01*
X25369159Y-25769048D01*
X25380066Y-25778934D01*
X25389952Y-25789841D01*
X25398720Y-25801664D01*
X25406288Y-25814290D01*
X25412582Y-25827597D01*
X25417541Y-25841457D01*
X25421118Y-25855736D01*
X25423278Y-25870297D01*
X25424000Y-25885000D01*
X25424000Y-26185000D01*
X25423278Y-26199703D01*
X25421118Y-26214264D01*
X25417541Y-26228543D01*
X25412582Y-26242403D01*
X25406288Y-26255710D01*
X25398720Y-26268336D01*
X25389952Y-26280159D01*
X25380066Y-26291066D01*
X25369159Y-26300952D01*
X25357336Y-26309720D01*
X25344710Y-26317288D01*
X25331403Y-26323582D01*
X25317543Y-26328541D01*
X25303264Y-26332118D01*
X25288703Y-26334278D01*
X25274000Y-26335000D01*
X23624000Y-26335000D01*
X23609297Y-26334278D01*
X23594736Y-26332118D01*
X23580457Y-26328541D01*
X23566597Y-26323582D01*
X23553290Y-26317288D01*
X23540664Y-26309720D01*
X23528841Y-26300952D01*
X23517934Y-26291066D01*
X23508048Y-26280159D01*
X23499280Y-26268336D01*
X23491712Y-26255710D01*
X23485418Y-26242403D01*
X23480459Y-26228543D01*
X23476882Y-26214264D01*
X23474722Y-26199703D01*
X23474000Y-26185000D01*
X23474000Y-25885000D01*
X23474722Y-25870297D01*
X23476882Y-25855736D01*
X23480459Y-25841457D01*
X23485418Y-25827597D01*
X23491712Y-25814290D01*
X23499280Y-25801664D01*
X23508048Y-25789841D01*
X23517934Y-25778934D01*
X23528841Y-25769048D01*
X23540664Y-25760280D01*
X23553290Y-25752712D01*
X23566597Y-25746418D01*
X23580457Y-25741459D01*
X23594736Y-25737882D01*
X23609297Y-25735722D01*
X23624000Y-25735000D01*
X25274000Y-25735000D01*
X25288703Y-25735722D01*
G37*
%TD.AperFunction*%
%TA.AperFunction,SMDPad,CuDef*%
G36*
X25288703Y-27005722D02*
G01*
X25303264Y-27007882D01*
X25317543Y-27011459D01*
X25331403Y-27016418D01*
X25344710Y-27022712D01*
X25357336Y-27030280D01*
X25369159Y-27039048D01*
X25380066Y-27048934D01*
X25389952Y-27059841D01*
X25398720Y-27071664D01*
X25406288Y-27084290D01*
X25412582Y-27097597D01*
X25417541Y-27111457D01*
X25421118Y-27125736D01*
X25423278Y-27140297D01*
X25424000Y-27155000D01*
X25424000Y-27455000D01*
X25423278Y-27469703D01*
X25421118Y-27484264D01*
X25417541Y-27498543D01*
X25412582Y-27512403D01*
X25406288Y-27525710D01*
X25398720Y-27538336D01*
X25389952Y-27550159D01*
X25380066Y-27561066D01*
X25369159Y-27570952D01*
X25357336Y-27579720D01*
X25344710Y-27587288D01*
X25331403Y-27593582D01*
X25317543Y-27598541D01*
X25303264Y-27602118D01*
X25288703Y-27604278D01*
X25274000Y-27605000D01*
X23624000Y-27605000D01*
X23609297Y-27604278D01*
X23594736Y-27602118D01*
X23580457Y-27598541D01*
X23566597Y-27593582D01*
X23553290Y-27587288D01*
X23540664Y-27579720D01*
X23528841Y-27570952D01*
X23517934Y-27561066D01*
X23508048Y-27550159D01*
X23499280Y-27538336D01*
X23491712Y-27525710D01*
X23485418Y-27512403D01*
X23480459Y-27498543D01*
X23476882Y-27484264D01*
X23474722Y-27469703D01*
X23474000Y-27455000D01*
X23474000Y-27155000D01*
X23474722Y-27140297D01*
X23476882Y-27125736D01*
X23480459Y-27111457D01*
X23485418Y-27097597D01*
X23491712Y-27084290D01*
X23499280Y-27071664D01*
X23508048Y-27059841D01*
X23517934Y-27048934D01*
X23528841Y-27039048D01*
X23540664Y-27030280D01*
X23553290Y-27022712D01*
X23566597Y-27016418D01*
X23580457Y-27011459D01*
X23594736Y-27007882D01*
X23609297Y-27005722D01*
X23624000Y-27005000D01*
X25274000Y-27005000D01*
X25288703Y-27005722D01*
G37*
%TD.AperFunction*%
%TA.AperFunction,SMDPad,CuDef*%
G36*
X25288703Y-28275722D02*
G01*
X25303264Y-28277882D01*
X25317543Y-28281459D01*
X25331403Y-28286418D01*
X25344710Y-28292712D01*
X25357336Y-28300280D01*
X25369159Y-28309048D01*
X25380066Y-28318934D01*
X25389952Y-28329841D01*
X25398720Y-28341664D01*
X25406288Y-28354290D01*
X25412582Y-28367597D01*
X25417541Y-28381457D01*
X25421118Y-28395736D01*
X25423278Y-28410297D01*
X25424000Y-28425000D01*
X25424000Y-28725000D01*
X25423278Y-28739703D01*
X25421118Y-28754264D01*
X25417541Y-28768543D01*
X25412582Y-28782403D01*
X25406288Y-28795710D01*
X25398720Y-28808336D01*
X25389952Y-28820159D01*
X25380066Y-28831066D01*
X25369159Y-28840952D01*
X25357336Y-28849720D01*
X25344710Y-28857288D01*
X25331403Y-28863582D01*
X25317543Y-28868541D01*
X25303264Y-28872118D01*
X25288703Y-28874278D01*
X25274000Y-28875000D01*
X23624000Y-28875000D01*
X23609297Y-28874278D01*
X23594736Y-28872118D01*
X23580457Y-28868541D01*
X23566597Y-28863582D01*
X23553290Y-28857288D01*
X23540664Y-28849720D01*
X23528841Y-28840952D01*
X23517934Y-28831066D01*
X23508048Y-28820159D01*
X23499280Y-28808336D01*
X23491712Y-28795710D01*
X23485418Y-28782403D01*
X23480459Y-28768543D01*
X23476882Y-28754264D01*
X23474722Y-28739703D01*
X23474000Y-28725000D01*
X23474000Y-28425000D01*
X23474722Y-28410297D01*
X23476882Y-28395736D01*
X23480459Y-28381457D01*
X23485418Y-28367597D01*
X23491712Y-28354290D01*
X23499280Y-28341664D01*
X23508048Y-28329841D01*
X23517934Y-28318934D01*
X23528841Y-28309048D01*
X23540664Y-28300280D01*
X23553290Y-28292712D01*
X23566597Y-28286418D01*
X23580457Y-28281459D01*
X23594736Y-28277882D01*
X23609297Y-28275722D01*
X23624000Y-28275000D01*
X25274000Y-28275000D01*
X25288703Y-28275722D01*
G37*
%TD.AperFunction*%
%TA.AperFunction,SMDPad,CuDef*%
G36*
X25288703Y-29545722D02*
G01*
X25303264Y-29547882D01*
X25317543Y-29551459D01*
X25331403Y-29556418D01*
X25344710Y-29562712D01*
X25357336Y-29570280D01*
X25369159Y-29579048D01*
X25380066Y-29588934D01*
X25389952Y-29599841D01*
X25398720Y-29611664D01*
X25406288Y-29624290D01*
X25412582Y-29637597D01*
X25417541Y-29651457D01*
X25421118Y-29665736D01*
X25423278Y-29680297D01*
X25424000Y-29695000D01*
X25424000Y-29995000D01*
X25423278Y-30009703D01*
X25421118Y-30024264D01*
X25417541Y-30038543D01*
X25412582Y-30052403D01*
X25406288Y-30065710D01*
X25398720Y-30078336D01*
X25389952Y-30090159D01*
X25380066Y-30101066D01*
X25369159Y-30110952D01*
X25357336Y-30119720D01*
X25344710Y-30127288D01*
X25331403Y-30133582D01*
X25317543Y-30138541D01*
X25303264Y-30142118D01*
X25288703Y-30144278D01*
X25274000Y-30145000D01*
X23624000Y-30145000D01*
X23609297Y-30144278D01*
X23594736Y-30142118D01*
X23580457Y-30138541D01*
X23566597Y-30133582D01*
X23553290Y-30127288D01*
X23540664Y-30119720D01*
X23528841Y-30110952D01*
X23517934Y-30101066D01*
X23508048Y-30090159D01*
X23499280Y-30078336D01*
X23491712Y-30065710D01*
X23485418Y-30052403D01*
X23480459Y-30038543D01*
X23476882Y-30024264D01*
X23474722Y-30009703D01*
X23474000Y-29995000D01*
X23474000Y-29695000D01*
X23474722Y-29680297D01*
X23476882Y-29665736D01*
X23480459Y-29651457D01*
X23485418Y-29637597D01*
X23491712Y-29624290D01*
X23499280Y-29611664D01*
X23508048Y-29599841D01*
X23517934Y-29588934D01*
X23528841Y-29579048D01*
X23540664Y-29570280D01*
X23553290Y-29562712D01*
X23566597Y-29556418D01*
X23580457Y-29551459D01*
X23594736Y-29547882D01*
X23609297Y-29545722D01*
X23624000Y-29545000D01*
X25274000Y-29545000D01*
X25288703Y-29545722D01*
G37*
%TD.AperFunction*%
%TA.AperFunction,SMDPad,CuDef*%
G36*
X30238703Y-29545722D02*
G01*
X30253264Y-29547882D01*
X30267543Y-29551459D01*
X30281403Y-29556418D01*
X30294710Y-29562712D01*
X30307336Y-29570280D01*
X30319159Y-29579048D01*
X30330066Y-29588934D01*
X30339952Y-29599841D01*
X30348720Y-29611664D01*
X30356288Y-29624290D01*
X30362582Y-29637597D01*
X30367541Y-29651457D01*
X30371118Y-29665736D01*
X30373278Y-29680297D01*
X30374000Y-29695000D01*
X30374000Y-29995000D01*
X30373278Y-30009703D01*
X30371118Y-30024264D01*
X30367541Y-30038543D01*
X30362582Y-30052403D01*
X30356288Y-30065710D01*
X30348720Y-30078336D01*
X30339952Y-30090159D01*
X30330066Y-30101066D01*
X30319159Y-30110952D01*
X30307336Y-30119720D01*
X30294710Y-30127288D01*
X30281403Y-30133582D01*
X30267543Y-30138541D01*
X30253264Y-30142118D01*
X30238703Y-30144278D01*
X30224000Y-30145000D01*
X28574000Y-30145000D01*
X28559297Y-30144278D01*
X28544736Y-30142118D01*
X28530457Y-30138541D01*
X28516597Y-30133582D01*
X28503290Y-30127288D01*
X28490664Y-30119720D01*
X28478841Y-30110952D01*
X28467934Y-30101066D01*
X28458048Y-30090159D01*
X28449280Y-30078336D01*
X28441712Y-30065710D01*
X28435418Y-30052403D01*
X28430459Y-30038543D01*
X28426882Y-30024264D01*
X28424722Y-30009703D01*
X28424000Y-29995000D01*
X28424000Y-29695000D01*
X28424722Y-29680297D01*
X28426882Y-29665736D01*
X28430459Y-29651457D01*
X28435418Y-29637597D01*
X28441712Y-29624290D01*
X28449280Y-29611664D01*
X28458048Y-29599841D01*
X28467934Y-29588934D01*
X28478841Y-29579048D01*
X28490664Y-29570280D01*
X28503290Y-29562712D01*
X28516597Y-29556418D01*
X28530457Y-29551459D01*
X28544736Y-29547882D01*
X28559297Y-29545722D01*
X28574000Y-29545000D01*
X30224000Y-29545000D01*
X30238703Y-29545722D01*
G37*
%TD.AperFunction*%
%TA.AperFunction,SMDPad,CuDef*%
G36*
X30238703Y-28275722D02*
G01*
X30253264Y-28277882D01*
X30267543Y-28281459D01*
X30281403Y-28286418D01*
X30294710Y-28292712D01*
X30307336Y-28300280D01*
X30319159Y-28309048D01*
X30330066Y-28318934D01*
X30339952Y-28329841D01*
X30348720Y-28341664D01*
X30356288Y-28354290D01*
X30362582Y-28367597D01*
X30367541Y-28381457D01*
X30371118Y-28395736D01*
X30373278Y-28410297D01*
X30374000Y-28425000D01*
X30374000Y-28725000D01*
X30373278Y-28739703D01*
X30371118Y-28754264D01*
X30367541Y-28768543D01*
X30362582Y-28782403D01*
X30356288Y-28795710D01*
X30348720Y-28808336D01*
X30339952Y-28820159D01*
X30330066Y-28831066D01*
X30319159Y-28840952D01*
X30307336Y-28849720D01*
X30294710Y-28857288D01*
X30281403Y-28863582D01*
X30267543Y-28868541D01*
X30253264Y-28872118D01*
X30238703Y-28874278D01*
X30224000Y-28875000D01*
X28574000Y-28875000D01*
X28559297Y-28874278D01*
X28544736Y-28872118D01*
X28530457Y-28868541D01*
X28516597Y-28863582D01*
X28503290Y-28857288D01*
X28490664Y-28849720D01*
X28478841Y-28840952D01*
X28467934Y-28831066D01*
X28458048Y-28820159D01*
X28449280Y-28808336D01*
X28441712Y-28795710D01*
X28435418Y-28782403D01*
X28430459Y-28768543D01*
X28426882Y-28754264D01*
X28424722Y-28739703D01*
X28424000Y-28725000D01*
X28424000Y-28425000D01*
X28424722Y-28410297D01*
X28426882Y-28395736D01*
X28430459Y-28381457D01*
X28435418Y-28367597D01*
X28441712Y-28354290D01*
X28449280Y-28341664D01*
X28458048Y-28329841D01*
X28467934Y-28318934D01*
X28478841Y-28309048D01*
X28490664Y-28300280D01*
X28503290Y-28292712D01*
X28516597Y-28286418D01*
X28530457Y-28281459D01*
X28544736Y-28277882D01*
X28559297Y-28275722D01*
X28574000Y-28275000D01*
X30224000Y-28275000D01*
X30238703Y-28275722D01*
G37*
%TD.AperFunction*%
%TA.AperFunction,SMDPad,CuDef*%
G36*
X30238703Y-27005722D02*
G01*
X30253264Y-27007882D01*
X30267543Y-27011459D01*
X30281403Y-27016418D01*
X30294710Y-27022712D01*
X30307336Y-27030280D01*
X30319159Y-27039048D01*
X30330066Y-27048934D01*
X30339952Y-27059841D01*
X30348720Y-27071664D01*
X30356288Y-27084290D01*
X30362582Y-27097597D01*
X30367541Y-27111457D01*
X30371118Y-27125736D01*
X30373278Y-27140297D01*
X30374000Y-27155000D01*
X30374000Y-27455000D01*
X30373278Y-27469703D01*
X30371118Y-27484264D01*
X30367541Y-27498543D01*
X30362582Y-27512403D01*
X30356288Y-27525710D01*
X30348720Y-27538336D01*
X30339952Y-27550159D01*
X30330066Y-27561066D01*
X30319159Y-27570952D01*
X30307336Y-27579720D01*
X30294710Y-27587288D01*
X30281403Y-27593582D01*
X30267543Y-27598541D01*
X30253264Y-27602118D01*
X30238703Y-27604278D01*
X30224000Y-27605000D01*
X28574000Y-27605000D01*
X28559297Y-27604278D01*
X28544736Y-27602118D01*
X28530457Y-27598541D01*
X28516597Y-27593582D01*
X28503290Y-27587288D01*
X28490664Y-27579720D01*
X28478841Y-27570952D01*
X28467934Y-27561066D01*
X28458048Y-27550159D01*
X28449280Y-27538336D01*
X28441712Y-27525710D01*
X28435418Y-27512403D01*
X28430459Y-27498543D01*
X28426882Y-27484264D01*
X28424722Y-27469703D01*
X28424000Y-27455000D01*
X28424000Y-27155000D01*
X28424722Y-27140297D01*
X28426882Y-27125736D01*
X28430459Y-27111457D01*
X28435418Y-27097597D01*
X28441712Y-27084290D01*
X28449280Y-27071664D01*
X28458048Y-27059841D01*
X28467934Y-27048934D01*
X28478841Y-27039048D01*
X28490664Y-27030280D01*
X28503290Y-27022712D01*
X28516597Y-27016418D01*
X28530457Y-27011459D01*
X28544736Y-27007882D01*
X28559297Y-27005722D01*
X28574000Y-27005000D01*
X30224000Y-27005000D01*
X30238703Y-27005722D01*
G37*
%TD.AperFunction*%
%TA.AperFunction,SMDPad,CuDef*%
G36*
X30238703Y-25735722D02*
G01*
X30253264Y-25737882D01*
X30267543Y-25741459D01*
X30281403Y-25746418D01*
X30294710Y-25752712D01*
X30307336Y-25760280D01*
X30319159Y-25769048D01*
X30330066Y-25778934D01*
X30339952Y-25789841D01*
X30348720Y-25801664D01*
X30356288Y-25814290D01*
X30362582Y-25827597D01*
X30367541Y-25841457D01*
X30371118Y-25855736D01*
X30373278Y-25870297D01*
X30374000Y-25885000D01*
X30374000Y-26185000D01*
X30373278Y-26199703D01*
X30371118Y-26214264D01*
X30367541Y-26228543D01*
X30362582Y-26242403D01*
X30356288Y-26255710D01*
X30348720Y-26268336D01*
X30339952Y-26280159D01*
X30330066Y-26291066D01*
X30319159Y-26300952D01*
X30307336Y-26309720D01*
X30294710Y-26317288D01*
X30281403Y-26323582D01*
X30267543Y-26328541D01*
X30253264Y-26332118D01*
X30238703Y-26334278D01*
X30224000Y-26335000D01*
X28574000Y-26335000D01*
X28559297Y-26334278D01*
X28544736Y-26332118D01*
X28530457Y-26328541D01*
X28516597Y-26323582D01*
X28503290Y-26317288D01*
X28490664Y-26309720D01*
X28478841Y-26300952D01*
X28467934Y-26291066D01*
X28458048Y-26280159D01*
X28449280Y-26268336D01*
X28441712Y-26255710D01*
X28435418Y-26242403D01*
X28430459Y-26228543D01*
X28426882Y-26214264D01*
X28424722Y-26199703D01*
X28424000Y-26185000D01*
X28424000Y-25885000D01*
X28424722Y-25870297D01*
X28426882Y-25855736D01*
X28430459Y-25841457D01*
X28435418Y-25827597D01*
X28441712Y-25814290D01*
X28449280Y-25801664D01*
X28458048Y-25789841D01*
X28467934Y-25778934D01*
X28478841Y-25769048D01*
X28490664Y-25760280D01*
X28503290Y-25752712D01*
X28516597Y-25746418D01*
X28530457Y-25741459D01*
X28544736Y-25737882D01*
X28559297Y-25735722D01*
X28574000Y-25735000D01*
X30224000Y-25735000D01*
X30238703Y-25735722D01*
G37*
%TD.AperFunction*%
D10*
X28702000Y-20320000D03*
D11*
X36576000Y-25400000D03*
X36576000Y-22860000D03*
D10*
X36576000Y-20320000D03*
X36576000Y-33020000D03*
%TA.AperFunction,SMDPad,CuDef*%
D12*
G36*
X31842142Y-32321174D02*
G01*
X31865803Y-32324684D01*
X31889007Y-32330496D01*
X31911529Y-32338554D01*
X31933153Y-32348782D01*
X31953670Y-32361079D01*
X31972883Y-32375329D01*
X31990607Y-32391393D01*
X32006671Y-32409117D01*
X32020921Y-32428330D01*
X32033218Y-32448847D01*
X32043446Y-32470471D01*
X32051504Y-32492993D01*
X32057316Y-32516197D01*
X32060826Y-32539858D01*
X32062000Y-32563750D01*
X32062000Y-33476250D01*
X32060826Y-33500142D01*
X32057316Y-33523803D01*
X32051504Y-33547007D01*
X32043446Y-33569529D01*
X32033218Y-33591153D01*
X32020921Y-33611670D01*
X32006671Y-33630883D01*
X31990607Y-33648607D01*
X31972883Y-33664671D01*
X31953670Y-33678921D01*
X31933153Y-33691218D01*
X31911529Y-33701446D01*
X31889007Y-33709504D01*
X31865803Y-33715316D01*
X31842142Y-33718826D01*
X31818250Y-33720000D01*
X31330750Y-33720000D01*
X31306858Y-33718826D01*
X31283197Y-33715316D01*
X31259993Y-33709504D01*
X31237471Y-33701446D01*
X31215847Y-33691218D01*
X31195330Y-33678921D01*
X31176117Y-33664671D01*
X31158393Y-33648607D01*
X31142329Y-33630883D01*
X31128079Y-33611670D01*
X31115782Y-33591153D01*
X31105554Y-33569529D01*
X31097496Y-33547007D01*
X31091684Y-33523803D01*
X31088174Y-33500142D01*
X31087000Y-33476250D01*
X31087000Y-32563750D01*
X31088174Y-32539858D01*
X31091684Y-32516197D01*
X31097496Y-32492993D01*
X31105554Y-32470471D01*
X31115782Y-32448847D01*
X31128079Y-32428330D01*
X31142329Y-32409117D01*
X31158393Y-32391393D01*
X31176117Y-32375329D01*
X31195330Y-32361079D01*
X31215847Y-32348782D01*
X31237471Y-32338554D01*
X31259993Y-32330496D01*
X31283197Y-32324684D01*
X31306858Y-32321174D01*
X31330750Y-32320000D01*
X31818250Y-32320000D01*
X31842142Y-32321174D01*
G37*
%TD.AperFunction*%
%TA.AperFunction,SMDPad,CuDef*%
G36*
X33717142Y-32321174D02*
G01*
X33740803Y-32324684D01*
X33764007Y-32330496D01*
X33786529Y-32338554D01*
X33808153Y-32348782D01*
X33828670Y-32361079D01*
X33847883Y-32375329D01*
X33865607Y-32391393D01*
X33881671Y-32409117D01*
X33895921Y-32428330D01*
X33908218Y-32448847D01*
X33918446Y-32470471D01*
X33926504Y-32492993D01*
X33932316Y-32516197D01*
X33935826Y-32539858D01*
X33937000Y-32563750D01*
X33937000Y-33476250D01*
X33935826Y-33500142D01*
X33932316Y-33523803D01*
X33926504Y-33547007D01*
X33918446Y-33569529D01*
X33908218Y-33591153D01*
X33895921Y-33611670D01*
X33881671Y-33630883D01*
X33865607Y-33648607D01*
X33847883Y-33664671D01*
X33828670Y-33678921D01*
X33808153Y-33691218D01*
X33786529Y-33701446D01*
X33764007Y-33709504D01*
X33740803Y-33715316D01*
X33717142Y-33718826D01*
X33693250Y-33720000D01*
X33205750Y-33720000D01*
X33181858Y-33718826D01*
X33158197Y-33715316D01*
X33134993Y-33709504D01*
X33112471Y-33701446D01*
X33090847Y-33691218D01*
X33070330Y-33678921D01*
X33051117Y-33664671D01*
X33033393Y-33648607D01*
X33017329Y-33630883D01*
X33003079Y-33611670D01*
X32990782Y-33591153D01*
X32980554Y-33569529D01*
X32972496Y-33547007D01*
X32966684Y-33523803D01*
X32963174Y-33500142D01*
X32962000Y-33476250D01*
X32962000Y-32563750D01*
X32963174Y-32539858D01*
X32966684Y-32516197D01*
X32972496Y-32492993D01*
X32980554Y-32470471D01*
X32990782Y-32448847D01*
X33003079Y-32428330D01*
X33017329Y-32409117D01*
X33033393Y-32391393D01*
X33051117Y-32375329D01*
X33070330Y-32361079D01*
X33090847Y-32348782D01*
X33112471Y-32338554D01*
X33134993Y-32330496D01*
X33158197Y-32324684D01*
X33181858Y-32321174D01*
X33205750Y-32320000D01*
X33693250Y-32320000D01*
X33717142Y-32321174D01*
G37*
%TD.AperFunction*%
%TA.AperFunction,SMDPad,CuDef*%
G36*
X31842142Y-19621174D02*
G01*
X31865803Y-19624684D01*
X31889007Y-19630496D01*
X31911529Y-19638554D01*
X31933153Y-19648782D01*
X31953670Y-19661079D01*
X31972883Y-19675329D01*
X31990607Y-19691393D01*
X32006671Y-19709117D01*
X32020921Y-19728330D01*
X32033218Y-19748847D01*
X32043446Y-19770471D01*
X32051504Y-19792993D01*
X32057316Y-19816197D01*
X32060826Y-19839858D01*
X32062000Y-19863750D01*
X32062000Y-20776250D01*
X32060826Y-20800142D01*
X32057316Y-20823803D01*
X32051504Y-20847007D01*
X32043446Y-20869529D01*
X32033218Y-20891153D01*
X32020921Y-20911670D01*
X32006671Y-20930883D01*
X31990607Y-20948607D01*
X31972883Y-20964671D01*
X31953670Y-20978921D01*
X31933153Y-20991218D01*
X31911529Y-21001446D01*
X31889007Y-21009504D01*
X31865803Y-21015316D01*
X31842142Y-21018826D01*
X31818250Y-21020000D01*
X31330750Y-21020000D01*
X31306858Y-21018826D01*
X31283197Y-21015316D01*
X31259993Y-21009504D01*
X31237471Y-21001446D01*
X31215847Y-20991218D01*
X31195330Y-20978921D01*
X31176117Y-20964671D01*
X31158393Y-20948607D01*
X31142329Y-20930883D01*
X31128079Y-20911670D01*
X31115782Y-20891153D01*
X31105554Y-20869529D01*
X31097496Y-20847007D01*
X31091684Y-20823803D01*
X31088174Y-20800142D01*
X31087000Y-20776250D01*
X31087000Y-19863750D01*
X31088174Y-19839858D01*
X31091684Y-19816197D01*
X31097496Y-19792993D01*
X31105554Y-19770471D01*
X31115782Y-19748847D01*
X31128079Y-19728330D01*
X31142329Y-19709117D01*
X31158393Y-19691393D01*
X31176117Y-19675329D01*
X31195330Y-19661079D01*
X31215847Y-19648782D01*
X31237471Y-19638554D01*
X31259993Y-19630496D01*
X31283197Y-19624684D01*
X31306858Y-19621174D01*
X31330750Y-19620000D01*
X31818250Y-19620000D01*
X31842142Y-19621174D01*
G37*
%TD.AperFunction*%
%TA.AperFunction,SMDPad,CuDef*%
G36*
X33717142Y-19621174D02*
G01*
X33740803Y-19624684D01*
X33764007Y-19630496D01*
X33786529Y-19638554D01*
X33808153Y-19648782D01*
X33828670Y-19661079D01*
X33847883Y-19675329D01*
X33865607Y-19691393D01*
X33881671Y-19709117D01*
X33895921Y-19728330D01*
X33908218Y-19748847D01*
X33918446Y-19770471D01*
X33926504Y-19792993D01*
X33932316Y-19816197D01*
X33935826Y-19839858D01*
X33937000Y-19863750D01*
X33937000Y-20776250D01*
X33935826Y-20800142D01*
X33932316Y-20823803D01*
X33926504Y-20847007D01*
X33918446Y-20869529D01*
X33908218Y-20891153D01*
X33895921Y-20911670D01*
X33881671Y-20930883D01*
X33865607Y-20948607D01*
X33847883Y-20964671D01*
X33828670Y-20978921D01*
X33808153Y-20991218D01*
X33786529Y-21001446D01*
X33764007Y-21009504D01*
X33740803Y-21015316D01*
X33717142Y-21018826D01*
X33693250Y-21020000D01*
X33205750Y-21020000D01*
X33181858Y-21018826D01*
X33158197Y-21015316D01*
X33134993Y-21009504D01*
X33112471Y-21001446D01*
X33090847Y-20991218D01*
X33070330Y-20978921D01*
X33051117Y-20964671D01*
X33033393Y-20948607D01*
X33017329Y-20930883D01*
X33003079Y-20911670D01*
X32990782Y-20891153D01*
X32980554Y-20869529D01*
X32972496Y-20847007D01*
X32966684Y-20823803D01*
X32963174Y-20800142D01*
X32962000Y-20776250D01*
X32962000Y-19863750D01*
X32963174Y-19839858D01*
X32966684Y-19816197D01*
X32972496Y-19792993D01*
X32980554Y-19770471D01*
X32990782Y-19748847D01*
X33003079Y-19728330D01*
X33017329Y-19709117D01*
X33033393Y-19691393D01*
X33051117Y-19675329D01*
X33070330Y-19661079D01*
X33090847Y-19648782D01*
X33112471Y-19638554D01*
X33134993Y-19630496D01*
X33158197Y-19624684D01*
X33181858Y-19621174D01*
X33205750Y-19620000D01*
X33693250Y-19620000D01*
X33717142Y-19621174D01*
G37*
%TD.AperFunction*%
%TA.AperFunction,SMDPad,CuDef*%
G36*
X25923504Y-22494204D02*
G01*
X25947773Y-22497804D01*
X25971571Y-22503765D01*
X25994671Y-22512030D01*
X26016849Y-22522520D01*
X26037893Y-22535133D01*
X26057598Y-22549747D01*
X26075777Y-22566223D01*
X26092253Y-22584402D01*
X26106867Y-22604107D01*
X26119480Y-22625151D01*
X26129970Y-22647329D01*
X26138235Y-22670429D01*
X26144196Y-22694227D01*
X26147796Y-22718496D01*
X26149000Y-22743000D01*
X26149000Y-23993000D01*
X26147796Y-24017504D01*
X26144196Y-24041773D01*
X26138235Y-24065571D01*
X26129970Y-24088671D01*
X26119480Y-24110849D01*
X26106867Y-24131893D01*
X26092253Y-24151598D01*
X26075777Y-24169777D01*
X26057598Y-24186253D01*
X26037893Y-24200867D01*
X26016849Y-24213480D01*
X25994671Y-24223970D01*
X25971571Y-24232235D01*
X25947773Y-24238196D01*
X25923504Y-24241796D01*
X25899000Y-24243000D01*
X25149000Y-24243000D01*
X25124496Y-24241796D01*
X25100227Y-24238196D01*
X25076429Y-24232235D01*
X25053329Y-24223970D01*
X25031151Y-24213480D01*
X25010107Y-24200867D01*
X24990402Y-24186253D01*
X24972223Y-24169777D01*
X24955747Y-24151598D01*
X24941133Y-24131893D01*
X24928520Y-24110849D01*
X24918030Y-24088671D01*
X24909765Y-24065571D01*
X24903804Y-24041773D01*
X24900204Y-24017504D01*
X24899000Y-23993000D01*
X24899000Y-22743000D01*
X24900204Y-22718496D01*
X24903804Y-22694227D01*
X24909765Y-22670429D01*
X24918030Y-22647329D01*
X24928520Y-22625151D01*
X24941133Y-22604107D01*
X24955747Y-22584402D01*
X24972223Y-22566223D01*
X24990402Y-22549747D01*
X25010107Y-22535133D01*
X25031151Y-22522520D01*
X25053329Y-22512030D01*
X25076429Y-22503765D01*
X25100227Y-22497804D01*
X25124496Y-22494204D01*
X25149000Y-22493000D01*
X25899000Y-22493000D01*
X25923504Y-22494204D01*
G37*
%TD.AperFunction*%
%TA.AperFunction,SMDPad,CuDef*%
G36*
X28723504Y-22494204D02*
G01*
X28747773Y-22497804D01*
X28771571Y-22503765D01*
X28794671Y-22512030D01*
X28816849Y-22522520D01*
X28837893Y-22535133D01*
X28857598Y-22549747D01*
X28875777Y-22566223D01*
X28892253Y-22584402D01*
X28906867Y-22604107D01*
X28919480Y-22625151D01*
X28929970Y-22647329D01*
X28938235Y-22670429D01*
X28944196Y-22694227D01*
X28947796Y-22718496D01*
X28949000Y-22743000D01*
X28949000Y-23993000D01*
X28947796Y-24017504D01*
X28944196Y-24041773D01*
X28938235Y-24065571D01*
X28929970Y-24088671D01*
X28919480Y-24110849D01*
X28906867Y-24131893D01*
X28892253Y-24151598D01*
X28875777Y-24169777D01*
X28857598Y-24186253D01*
X28837893Y-24200867D01*
X28816849Y-24213480D01*
X28794671Y-24223970D01*
X28771571Y-24232235D01*
X28747773Y-24238196D01*
X28723504Y-24241796D01*
X28699000Y-24243000D01*
X27949000Y-24243000D01*
X27924496Y-24241796D01*
X27900227Y-24238196D01*
X27876429Y-24232235D01*
X27853329Y-24223970D01*
X27831151Y-24213480D01*
X27810107Y-24200867D01*
X27790402Y-24186253D01*
X27772223Y-24169777D01*
X27755747Y-24151598D01*
X27741133Y-24131893D01*
X27728520Y-24110849D01*
X27718030Y-24088671D01*
X27709765Y-24065571D01*
X27703804Y-24041773D01*
X27700204Y-24017504D01*
X27699000Y-23993000D01*
X27699000Y-22743000D01*
X27700204Y-22718496D01*
X27703804Y-22694227D01*
X27709765Y-22670429D01*
X27718030Y-22647329D01*
X27728520Y-22625151D01*
X27741133Y-22604107D01*
X27755747Y-22584402D01*
X27772223Y-22566223D01*
X27790402Y-22549747D01*
X27810107Y-22535133D01*
X27831151Y-22522520D01*
X27853329Y-22512030D01*
X27876429Y-22503765D01*
X27900227Y-22497804D01*
X27924496Y-22494204D01*
X27949000Y-22493000D01*
X28699000Y-22493000D01*
X28723504Y-22494204D01*
G37*
%TD.AperFunction*%
%TA.AperFunction,SMDPad,CuDef*%
G36*
X24222142Y-32321174D02*
G01*
X24245803Y-32324684D01*
X24269007Y-32330496D01*
X24291529Y-32338554D01*
X24313153Y-32348782D01*
X24333670Y-32361079D01*
X24352883Y-32375329D01*
X24370607Y-32391393D01*
X24386671Y-32409117D01*
X24400921Y-32428330D01*
X24413218Y-32448847D01*
X24423446Y-32470471D01*
X24431504Y-32492993D01*
X24437316Y-32516197D01*
X24440826Y-32539858D01*
X24442000Y-32563750D01*
X24442000Y-33476250D01*
X24440826Y-33500142D01*
X24437316Y-33523803D01*
X24431504Y-33547007D01*
X24423446Y-33569529D01*
X24413218Y-33591153D01*
X24400921Y-33611670D01*
X24386671Y-33630883D01*
X24370607Y-33648607D01*
X24352883Y-33664671D01*
X24333670Y-33678921D01*
X24313153Y-33691218D01*
X24291529Y-33701446D01*
X24269007Y-33709504D01*
X24245803Y-33715316D01*
X24222142Y-33718826D01*
X24198250Y-33720000D01*
X23710750Y-33720000D01*
X23686858Y-33718826D01*
X23663197Y-33715316D01*
X23639993Y-33709504D01*
X23617471Y-33701446D01*
X23595847Y-33691218D01*
X23575330Y-33678921D01*
X23556117Y-33664671D01*
X23538393Y-33648607D01*
X23522329Y-33630883D01*
X23508079Y-33611670D01*
X23495782Y-33591153D01*
X23485554Y-33569529D01*
X23477496Y-33547007D01*
X23471684Y-33523803D01*
X23468174Y-33500142D01*
X23467000Y-33476250D01*
X23467000Y-32563750D01*
X23468174Y-32539858D01*
X23471684Y-32516197D01*
X23477496Y-32492993D01*
X23485554Y-32470471D01*
X23495782Y-32448847D01*
X23508079Y-32428330D01*
X23522329Y-32409117D01*
X23538393Y-32391393D01*
X23556117Y-32375329D01*
X23575330Y-32361079D01*
X23595847Y-32348782D01*
X23617471Y-32338554D01*
X23639993Y-32330496D01*
X23663197Y-32324684D01*
X23686858Y-32321174D01*
X23710750Y-32320000D01*
X24198250Y-32320000D01*
X24222142Y-32321174D01*
G37*
%TD.AperFunction*%
%TA.AperFunction,SMDPad,CuDef*%
G36*
X26097142Y-32321174D02*
G01*
X26120803Y-32324684D01*
X26144007Y-32330496D01*
X26166529Y-32338554D01*
X26188153Y-32348782D01*
X26208670Y-32361079D01*
X26227883Y-32375329D01*
X26245607Y-32391393D01*
X26261671Y-32409117D01*
X26275921Y-32428330D01*
X26288218Y-32448847D01*
X26298446Y-32470471D01*
X26306504Y-32492993D01*
X26312316Y-32516197D01*
X26315826Y-32539858D01*
X26317000Y-32563750D01*
X26317000Y-33476250D01*
X26315826Y-33500142D01*
X26312316Y-33523803D01*
X26306504Y-33547007D01*
X26298446Y-33569529D01*
X26288218Y-33591153D01*
X26275921Y-33611670D01*
X26261671Y-33630883D01*
X26245607Y-33648607D01*
X26227883Y-33664671D01*
X26208670Y-33678921D01*
X26188153Y-33691218D01*
X26166529Y-33701446D01*
X26144007Y-33709504D01*
X26120803Y-33715316D01*
X26097142Y-33718826D01*
X26073250Y-33720000D01*
X25585750Y-33720000D01*
X25561858Y-33718826D01*
X25538197Y-33715316D01*
X25514993Y-33709504D01*
X25492471Y-33701446D01*
X25470847Y-33691218D01*
X25450330Y-33678921D01*
X25431117Y-33664671D01*
X25413393Y-33648607D01*
X25397329Y-33630883D01*
X25383079Y-33611670D01*
X25370782Y-33591153D01*
X25360554Y-33569529D01*
X25352496Y-33547007D01*
X25346684Y-33523803D01*
X25343174Y-33500142D01*
X25342000Y-33476250D01*
X25342000Y-32563750D01*
X25343174Y-32539858D01*
X25346684Y-32516197D01*
X25352496Y-32492993D01*
X25360554Y-32470471D01*
X25370782Y-32448847D01*
X25383079Y-32428330D01*
X25397329Y-32409117D01*
X25413393Y-32391393D01*
X25431117Y-32375329D01*
X25450330Y-32361079D01*
X25470847Y-32348782D01*
X25492471Y-32338554D01*
X25514993Y-32330496D01*
X25538197Y-32324684D01*
X25561858Y-32321174D01*
X25585750Y-32320000D01*
X26073250Y-32320000D01*
X26097142Y-32321174D01*
G37*
%TD.AperFunction*%
%TA.AperFunction,SMDPad,CuDef*%
G36*
X31842142Y-22669174D02*
G01*
X31865803Y-22672684D01*
X31889007Y-22678496D01*
X31911529Y-22686554D01*
X31933153Y-22696782D01*
X31953670Y-22709079D01*
X31972883Y-22723329D01*
X31990607Y-22739393D01*
X32006671Y-22757117D01*
X32020921Y-22776330D01*
X32033218Y-22796847D01*
X32043446Y-22818471D01*
X32051504Y-22840993D01*
X32057316Y-22864197D01*
X32060826Y-22887858D01*
X32062000Y-22911750D01*
X32062000Y-23824250D01*
X32060826Y-23848142D01*
X32057316Y-23871803D01*
X32051504Y-23895007D01*
X32043446Y-23917529D01*
X32033218Y-23939153D01*
X32020921Y-23959670D01*
X32006671Y-23978883D01*
X31990607Y-23996607D01*
X31972883Y-24012671D01*
X31953670Y-24026921D01*
X31933153Y-24039218D01*
X31911529Y-24049446D01*
X31889007Y-24057504D01*
X31865803Y-24063316D01*
X31842142Y-24066826D01*
X31818250Y-24068000D01*
X31330750Y-24068000D01*
X31306858Y-24066826D01*
X31283197Y-24063316D01*
X31259993Y-24057504D01*
X31237471Y-24049446D01*
X31215847Y-24039218D01*
X31195330Y-24026921D01*
X31176117Y-24012671D01*
X31158393Y-23996607D01*
X31142329Y-23978883D01*
X31128079Y-23959670D01*
X31115782Y-23939153D01*
X31105554Y-23917529D01*
X31097496Y-23895007D01*
X31091684Y-23871803D01*
X31088174Y-23848142D01*
X31087000Y-23824250D01*
X31087000Y-22911750D01*
X31088174Y-22887858D01*
X31091684Y-22864197D01*
X31097496Y-22840993D01*
X31105554Y-22818471D01*
X31115782Y-22796847D01*
X31128079Y-22776330D01*
X31142329Y-22757117D01*
X31158393Y-22739393D01*
X31176117Y-22723329D01*
X31195330Y-22709079D01*
X31215847Y-22696782D01*
X31237471Y-22686554D01*
X31259993Y-22678496D01*
X31283197Y-22672684D01*
X31306858Y-22669174D01*
X31330750Y-22668000D01*
X31818250Y-22668000D01*
X31842142Y-22669174D01*
G37*
%TD.AperFunction*%
%TA.AperFunction,SMDPad,CuDef*%
G36*
X33717142Y-22669174D02*
G01*
X33740803Y-22672684D01*
X33764007Y-22678496D01*
X33786529Y-22686554D01*
X33808153Y-22696782D01*
X33828670Y-22709079D01*
X33847883Y-22723329D01*
X33865607Y-22739393D01*
X33881671Y-22757117D01*
X33895921Y-22776330D01*
X33908218Y-22796847D01*
X33918446Y-22818471D01*
X33926504Y-22840993D01*
X33932316Y-22864197D01*
X33935826Y-22887858D01*
X33937000Y-22911750D01*
X33937000Y-23824250D01*
X33935826Y-23848142D01*
X33932316Y-23871803D01*
X33926504Y-23895007D01*
X33918446Y-23917529D01*
X33908218Y-23939153D01*
X33895921Y-23959670D01*
X33881671Y-23978883D01*
X33865607Y-23996607D01*
X33847883Y-24012671D01*
X33828670Y-24026921D01*
X33808153Y-24039218D01*
X33786529Y-24049446D01*
X33764007Y-24057504D01*
X33740803Y-24063316D01*
X33717142Y-24066826D01*
X33693250Y-24068000D01*
X33205750Y-24068000D01*
X33181858Y-24066826D01*
X33158197Y-24063316D01*
X33134993Y-24057504D01*
X33112471Y-24049446D01*
X33090847Y-24039218D01*
X33070330Y-24026921D01*
X33051117Y-24012671D01*
X33033393Y-23996607D01*
X33017329Y-23978883D01*
X33003079Y-23959670D01*
X32990782Y-23939153D01*
X32980554Y-23917529D01*
X32972496Y-23895007D01*
X32966684Y-23871803D01*
X32963174Y-23848142D01*
X32962000Y-23824250D01*
X32962000Y-22911750D01*
X32963174Y-22887858D01*
X32966684Y-22864197D01*
X32972496Y-22840993D01*
X32980554Y-22818471D01*
X32990782Y-22796847D01*
X33003079Y-22776330D01*
X33017329Y-22757117D01*
X33033393Y-22739393D01*
X33051117Y-22723329D01*
X33070330Y-22709079D01*
X33090847Y-22696782D01*
X33112471Y-22686554D01*
X33134993Y-22678496D01*
X33158197Y-22672684D01*
X33181858Y-22669174D01*
X33205750Y-22668000D01*
X33693250Y-22668000D01*
X33717142Y-22669174D01*
G37*
%TD.AperFunction*%
%TA.AperFunction,SMDPad,CuDef*%
G36*
X26097142Y-19621174D02*
G01*
X26120803Y-19624684D01*
X26144007Y-19630496D01*
X26166529Y-19638554D01*
X26188153Y-19648782D01*
X26208670Y-19661079D01*
X26227883Y-19675329D01*
X26245607Y-19691393D01*
X26261671Y-19709117D01*
X26275921Y-19728330D01*
X26288218Y-19748847D01*
X26298446Y-19770471D01*
X26306504Y-19792993D01*
X26312316Y-19816197D01*
X26315826Y-19839858D01*
X26317000Y-19863750D01*
X26317000Y-20776250D01*
X26315826Y-20800142D01*
X26312316Y-20823803D01*
X26306504Y-20847007D01*
X26298446Y-20869529D01*
X26288218Y-20891153D01*
X26275921Y-20911670D01*
X26261671Y-20930883D01*
X26245607Y-20948607D01*
X26227883Y-20964671D01*
X26208670Y-20978921D01*
X26188153Y-20991218D01*
X26166529Y-21001446D01*
X26144007Y-21009504D01*
X26120803Y-21015316D01*
X26097142Y-21018826D01*
X26073250Y-21020000D01*
X25585750Y-21020000D01*
X25561858Y-21018826D01*
X25538197Y-21015316D01*
X25514993Y-21009504D01*
X25492471Y-21001446D01*
X25470847Y-20991218D01*
X25450330Y-20978921D01*
X25431117Y-20964671D01*
X25413393Y-20948607D01*
X25397329Y-20930883D01*
X25383079Y-20911670D01*
X25370782Y-20891153D01*
X25360554Y-20869529D01*
X25352496Y-20847007D01*
X25346684Y-20823803D01*
X25343174Y-20800142D01*
X25342000Y-20776250D01*
X25342000Y-19863750D01*
X25343174Y-19839858D01*
X25346684Y-19816197D01*
X25352496Y-19792993D01*
X25360554Y-19770471D01*
X25370782Y-19748847D01*
X25383079Y-19728330D01*
X25397329Y-19709117D01*
X25413393Y-19691393D01*
X25431117Y-19675329D01*
X25450330Y-19661079D01*
X25470847Y-19648782D01*
X25492471Y-19638554D01*
X25514993Y-19630496D01*
X25538197Y-19624684D01*
X25561858Y-19621174D01*
X25585750Y-19620000D01*
X26073250Y-19620000D01*
X26097142Y-19621174D01*
G37*
%TD.AperFunction*%
%TA.AperFunction,SMDPad,CuDef*%
G36*
X24222142Y-19621174D02*
G01*
X24245803Y-19624684D01*
X24269007Y-19630496D01*
X24291529Y-19638554D01*
X24313153Y-19648782D01*
X24333670Y-19661079D01*
X24352883Y-19675329D01*
X24370607Y-19691393D01*
X24386671Y-19709117D01*
X24400921Y-19728330D01*
X24413218Y-19748847D01*
X24423446Y-19770471D01*
X24431504Y-19792993D01*
X24437316Y-19816197D01*
X24440826Y-19839858D01*
X24442000Y-19863750D01*
X24442000Y-20776250D01*
X24440826Y-20800142D01*
X24437316Y-20823803D01*
X24431504Y-20847007D01*
X24423446Y-20869529D01*
X24413218Y-20891153D01*
X24400921Y-20911670D01*
X24386671Y-20930883D01*
X24370607Y-20948607D01*
X24352883Y-20964671D01*
X24333670Y-20978921D01*
X24313153Y-20991218D01*
X24291529Y-21001446D01*
X24269007Y-21009504D01*
X24245803Y-21015316D01*
X24222142Y-21018826D01*
X24198250Y-21020000D01*
X23710750Y-21020000D01*
X23686858Y-21018826D01*
X23663197Y-21015316D01*
X23639993Y-21009504D01*
X23617471Y-21001446D01*
X23595847Y-20991218D01*
X23575330Y-20978921D01*
X23556117Y-20964671D01*
X23538393Y-20948607D01*
X23522329Y-20930883D01*
X23508079Y-20911670D01*
X23495782Y-20891153D01*
X23485554Y-20869529D01*
X23477496Y-20847007D01*
X23471684Y-20823803D01*
X23468174Y-20800142D01*
X23467000Y-20776250D01*
X23467000Y-19863750D01*
X23468174Y-19839858D01*
X23471684Y-19816197D01*
X23477496Y-19792993D01*
X23485554Y-19770471D01*
X23495782Y-19748847D01*
X23508079Y-19728330D01*
X23522329Y-19709117D01*
X23538393Y-19691393D01*
X23556117Y-19675329D01*
X23575330Y-19661079D01*
X23595847Y-19648782D01*
X23617471Y-19638554D01*
X23639993Y-19630496D01*
X23663197Y-19624684D01*
X23686858Y-19621174D01*
X23710750Y-19620000D01*
X24198250Y-19620000D01*
X24222142Y-19621174D01*
G37*
%TD.AperFunction*%
D13*
X27432000Y-29972000D03*
X27432000Y-25908000D03*
X22352000Y-22860000D03*
X33020000Y-27432000D03*
X22352000Y-30480000D03*
D14*
X25908000Y-20320000D02*
X28702000Y-20320000D01*
X25829500Y-33020000D02*
X28702000Y-33020000D01*
X24449000Y-29845000D02*
X23814000Y-30480000D01*
X20828000Y-22860000D02*
X22352000Y-22860000D01*
X29399000Y-23818000D02*
X28949000Y-23368000D01*
X22352000Y-22860000D02*
X22352000Y-30480000D01*
X23814000Y-30480000D02*
X20828000Y-30480000D01*
X28949000Y-23368000D02*
X28324000Y-23368000D01*
X25829500Y-20320000D02*
X25908000Y-20320000D01*
X23954500Y-21414500D02*
X24384000Y-21844000D01*
X24899000Y-23368000D02*
X25524000Y-23368000D01*
X23954500Y-20320000D02*
X23954500Y-21414500D01*
X29399000Y-26035000D02*
X29399000Y-23818000D01*
X24449000Y-23818000D02*
X24899000Y-23368000D01*
X20828000Y-27940000D02*
X20828000Y-25400000D01*
X24449000Y-26035000D02*
X24449000Y-23818000D01*
X24384000Y-21844000D02*
X26924000Y-21844000D01*
X31574500Y-21257500D02*
X31574500Y-20320000D01*
X30988000Y-21844000D02*
X31574500Y-21257500D01*
X26924000Y-21844000D02*
X30988000Y-21844000D01*
X33449500Y-20320000D02*
X36576000Y-20320000D01*
X24449000Y-28575000D02*
X26035000Y-28575000D01*
X26035000Y-28575000D02*
X26416000Y-28956000D01*
X26416000Y-28956000D02*
X26416000Y-30988000D01*
X26416000Y-30988000D02*
X25908000Y-31496000D01*
X25908000Y-31496000D02*
X24384000Y-31496000D01*
X23954500Y-31925500D02*
X24384000Y-31496000D01*
X23954500Y-33020000D02*
X23954500Y-31925500D01*
X24449000Y-27305000D02*
X26035000Y-27305000D01*
X26035000Y-27305000D02*
X26416000Y-26924000D01*
X26416000Y-26924000D02*
X26416000Y-25400000D01*
X26416000Y-25400000D02*
X26924000Y-24892000D01*
X26924000Y-24892000D02*
X26924000Y-21844000D01*
X27432000Y-29972000D02*
X27432000Y-29972000D01*
X27432000Y-29972000D02*
X27432000Y-25908000D01*
X36576000Y-31920000D02*
X36576000Y-33020000D01*
X33231000Y-28575000D02*
X36576000Y-31920000D01*
X29399000Y-28575000D02*
X33231000Y-28575000D01*
X34671000Y-27305000D02*
X36576000Y-25400000D01*
X31574500Y-27256500D02*
X31574500Y-23368000D01*
X31623000Y-27305000D02*
X31574500Y-27256500D01*
X29399000Y-27305000D02*
X31623000Y-27305000D01*
X31623000Y-27305000D02*
X34671000Y-27305000D01*
X33957500Y-22860000D02*
X33449500Y-23368000D01*
X36576000Y-22860000D02*
X33957500Y-22860000D01*
X25908000Y-31496000D02*
X30988000Y-31496000D01*
X31574500Y-32082500D02*
X31574500Y-33020000D01*
X30988000Y-31496000D02*
X31574500Y-32082500D01*
X33449500Y-33020000D02*
X33449500Y-31925500D01*
X31496000Y-29972000D02*
X27432000Y-29972000D01*
X33449500Y-31925500D02*
X31496000Y-29972000D01*
X22352000Y-30480000D02*
X22352000Y-30480000D01*
M02*
