G04 #@! TF.GenerationSoftware,KiCad,Pcbnew,5.1.5+dfsg1-2build2*
G04 #@! TF.CreationDate,2021-06-15T21:01:14+02:00*
G04 #@! TF.ProjectId,circuit9,63697263-7569-4743-992e-6b696361645f,rev?*
G04 #@! TF.SameCoordinates,Original*
G04 #@! TF.FileFunction,Legend,Bot*
G04 #@! TF.FilePolarity,Positive*
%FSLAX46Y46*%
G04 Gerber Fmt 4.6, Leading zero omitted, Abs format (unit mm)*
G04 Created by KiCad (PCBNEW 5.1.5+dfsg1-2build2) date 2021-06-15 21:01:14*
%MOMM*%
%LPD*%
G04 APERTURE LIST*
%ADD10C,0.100000*%
%ADD11C,0.150000*%
%ADD12C,0.120000*%
%ADD13C,0.200000*%
%ADD14C,0.300000*%
%ADD15O,1.700000X1.700000*%
%ADD16R,1.700000X1.700000*%
%ADD17R,6.000000X3.000000*%
G04 APERTURE END LIST*
D10*
G36*
X29343620Y-63084400D02*
G01*
X28583620Y-63084400D01*
X28583620Y-57084400D01*
X29343620Y-57084400D01*
X29343620Y-63084400D01*
G37*
X29343620Y-63084400D02*
X28583620Y-63084400D01*
X28583620Y-57084400D01*
X29343620Y-57084400D01*
X29343620Y-63084400D01*
D11*
X39076142Y-45490380D02*
X38742809Y-46490380D01*
X38409476Y-45490380D01*
X38076142Y-46490380D02*
X38076142Y-45823714D01*
X38076142Y-46014190D02*
X38028523Y-45918952D01*
X37980904Y-45871333D01*
X37885666Y-45823714D01*
X37790428Y-45823714D01*
X37076142Y-46442761D02*
X37171380Y-46490380D01*
X37361857Y-46490380D01*
X37457095Y-46442761D01*
X37504714Y-46347523D01*
X37504714Y-45966571D01*
X37457095Y-45871333D01*
X37361857Y-45823714D01*
X37171380Y-45823714D01*
X37076142Y-45871333D01*
X37028523Y-45966571D01*
X37028523Y-46061809D01*
X37504714Y-46157047D01*
X36742809Y-45823714D02*
X36361857Y-45823714D01*
X36599952Y-46490380D02*
X36599952Y-45633238D01*
X36552333Y-45538000D01*
X36457095Y-45490380D01*
X36361857Y-45490380D01*
X39766619Y-47235619D02*
X39719000Y-47188000D01*
X39623761Y-47140380D01*
X39385666Y-47140380D01*
X39290428Y-47188000D01*
X39242809Y-47235619D01*
X39195190Y-47330857D01*
X39195190Y-47426095D01*
X39242809Y-47568952D01*
X39814238Y-48140380D01*
X39195190Y-48140380D01*
X38766619Y-48045142D02*
X38719000Y-48092761D01*
X38766619Y-48140380D01*
X38814238Y-48092761D01*
X38766619Y-48045142D01*
X38766619Y-48140380D01*
X37814238Y-47140380D02*
X38290428Y-47140380D01*
X38338047Y-47616571D01*
X38290428Y-47568952D01*
X38195190Y-47521333D01*
X37957095Y-47521333D01*
X37861857Y-47568952D01*
X37814238Y-47616571D01*
X37766619Y-47711809D01*
X37766619Y-47949904D01*
X37814238Y-48045142D01*
X37861857Y-48092761D01*
X37957095Y-48140380D01*
X38195190Y-48140380D01*
X38290428Y-48092761D01*
X38338047Y-48045142D01*
X37480904Y-47140380D02*
X37147571Y-48140380D01*
X36814238Y-47140380D01*
X36480904Y-47759428D02*
X35719000Y-47759428D01*
X36099952Y-48140380D02*
X36099952Y-47378476D01*
X40386000Y-45974000D02*
X40767000Y-45593000D01*
X40386000Y-51435000D02*
X40386000Y-45974000D01*
X41021000Y-52070000D02*
X40386000Y-51435000D01*
X60325000Y-40005000D02*
X58674000Y-40132000D01*
D12*
X58129333Y-39830333D02*
X58196000Y-39863666D01*
X58329333Y-39863666D01*
X58396000Y-39830333D01*
X58429333Y-39797000D01*
X58462666Y-39730333D01*
X58462666Y-39530333D01*
X58429333Y-39463666D01*
X58396000Y-39430333D01*
X58329333Y-39397000D01*
X58196000Y-39397000D01*
X58129333Y-39430333D01*
X57729333Y-39863666D02*
X57796000Y-39830333D01*
X57829333Y-39763666D01*
X57829333Y-39163666D01*
X57362666Y-39863666D02*
X57429333Y-39830333D01*
X57462666Y-39797000D01*
X57496000Y-39730333D01*
X57496000Y-39530333D01*
X57462666Y-39463666D01*
X57429333Y-39430333D01*
X57362666Y-39397000D01*
X57262666Y-39397000D01*
X57196000Y-39430333D01*
X57162666Y-39463666D01*
X57129333Y-39530333D01*
X57129333Y-39730333D01*
X57162666Y-39797000D01*
X57196000Y-39830333D01*
X57262666Y-39863666D01*
X57362666Y-39863666D01*
X56862666Y-39830333D02*
X56796000Y-39863666D01*
X56662666Y-39863666D01*
X56596000Y-39830333D01*
X56562666Y-39763666D01*
X56562666Y-39730333D01*
X56596000Y-39663666D01*
X56662666Y-39630333D01*
X56762666Y-39630333D01*
X56829333Y-39597000D01*
X56862666Y-39530333D01*
X56862666Y-39497000D01*
X56829333Y-39430333D01*
X56762666Y-39397000D01*
X56662666Y-39397000D01*
X56596000Y-39430333D01*
X55996000Y-39830333D02*
X56062666Y-39863666D01*
X56196000Y-39863666D01*
X56262666Y-39830333D01*
X56296000Y-39763666D01*
X56296000Y-39497000D01*
X56262666Y-39430333D01*
X56196000Y-39397000D01*
X56062666Y-39397000D01*
X55996000Y-39430333D01*
X55962666Y-39497000D01*
X55962666Y-39563666D01*
X56296000Y-39630333D01*
X55162666Y-39830333D02*
X55096000Y-39863666D01*
X54962666Y-39863666D01*
X54896000Y-39830333D01*
X54862666Y-39763666D01*
X54862666Y-39730333D01*
X54896000Y-39663666D01*
X54962666Y-39630333D01*
X55062666Y-39630333D01*
X55129333Y-39597000D01*
X55162666Y-39530333D01*
X55162666Y-39497000D01*
X55129333Y-39430333D01*
X55062666Y-39397000D01*
X54962666Y-39397000D01*
X54896000Y-39430333D01*
X54462666Y-39863666D02*
X54529333Y-39830333D01*
X54562666Y-39797000D01*
X54596000Y-39730333D01*
X54596000Y-39530333D01*
X54562666Y-39463666D01*
X54529333Y-39430333D01*
X54462666Y-39397000D01*
X54362666Y-39397000D01*
X54296000Y-39430333D01*
X54262666Y-39463666D01*
X54229333Y-39530333D01*
X54229333Y-39730333D01*
X54262666Y-39797000D01*
X54296000Y-39830333D01*
X54362666Y-39863666D01*
X54462666Y-39863666D01*
X53829333Y-39863666D02*
X53896000Y-39830333D01*
X53929333Y-39763666D01*
X53929333Y-39163666D01*
X53262666Y-39863666D02*
X53262666Y-39163666D01*
X53262666Y-39830333D02*
X53329333Y-39863666D01*
X53462666Y-39863666D01*
X53529333Y-39830333D01*
X53562666Y-39797000D01*
X53596000Y-39730333D01*
X53596000Y-39530333D01*
X53562666Y-39463666D01*
X53529333Y-39430333D01*
X53462666Y-39397000D01*
X53329333Y-39397000D01*
X53262666Y-39430333D01*
X52662666Y-39830333D02*
X52729333Y-39863666D01*
X52862666Y-39863666D01*
X52929333Y-39830333D01*
X52962666Y-39763666D01*
X52962666Y-39497000D01*
X52929333Y-39430333D01*
X52862666Y-39397000D01*
X52729333Y-39397000D01*
X52662666Y-39430333D01*
X52629333Y-39497000D01*
X52629333Y-39563666D01*
X52962666Y-39630333D01*
X52329333Y-39863666D02*
X52329333Y-39397000D01*
X52329333Y-39530333D02*
X52296000Y-39463666D01*
X52262666Y-39430333D01*
X52196000Y-39397000D01*
X52129333Y-39397000D01*
X51362666Y-39397000D02*
X51362666Y-39997000D01*
X51396000Y-40063666D01*
X51462666Y-40097000D01*
X51496000Y-40097000D01*
X51362666Y-39163666D02*
X51396000Y-39197000D01*
X51362666Y-39230333D01*
X51329333Y-39197000D01*
X51362666Y-39163666D01*
X51362666Y-39230333D01*
X50729333Y-39397000D02*
X50729333Y-39863666D01*
X51029333Y-39397000D02*
X51029333Y-39763666D01*
X50996000Y-39830333D01*
X50929333Y-39863666D01*
X50829333Y-39863666D01*
X50762666Y-39830333D01*
X50729333Y-39797000D01*
X50396000Y-39863666D02*
X50396000Y-39397000D01*
X50396000Y-39463666D02*
X50362666Y-39430333D01*
X50296000Y-39397000D01*
X50196000Y-39397000D01*
X50129333Y-39430333D01*
X50096000Y-39497000D01*
X50096000Y-39863666D01*
X50096000Y-39497000D02*
X50062666Y-39430333D01*
X49996000Y-39397000D01*
X49896000Y-39397000D01*
X49829333Y-39430333D01*
X49796000Y-39497000D01*
X49796000Y-39863666D01*
X49462666Y-39397000D02*
X49462666Y-40097000D01*
X49462666Y-39430333D02*
X49396000Y-39397000D01*
X49262666Y-39397000D01*
X49196000Y-39430333D01*
X49162666Y-39463666D01*
X49129333Y-39530333D01*
X49129333Y-39730333D01*
X49162666Y-39797000D01*
X49196000Y-39830333D01*
X49262666Y-39863666D01*
X49396000Y-39863666D01*
X49462666Y-39830333D01*
X48562666Y-39830333D02*
X48629333Y-39863666D01*
X48762666Y-39863666D01*
X48829333Y-39830333D01*
X48862666Y-39763666D01*
X48862666Y-39497000D01*
X48829333Y-39430333D01*
X48762666Y-39397000D01*
X48629333Y-39397000D01*
X48562666Y-39430333D01*
X48529333Y-39497000D01*
X48529333Y-39563666D01*
X48862666Y-39630333D01*
X48229333Y-39863666D02*
X48229333Y-39397000D01*
X48229333Y-39530333D02*
X48196000Y-39463666D01*
X48162666Y-39430333D01*
X48096000Y-39397000D01*
X48029333Y-39397000D01*
X47362666Y-39397000D02*
X47096000Y-39397000D01*
X47262666Y-39163666D02*
X47262666Y-39763666D01*
X47229333Y-39830333D01*
X47162666Y-39863666D01*
X47096000Y-39863666D01*
X46762666Y-39863666D02*
X46829333Y-39830333D01*
X46862666Y-39797000D01*
X46896000Y-39730333D01*
X46896000Y-39530333D01*
X46862666Y-39463666D01*
X46829333Y-39430333D01*
X46762666Y-39397000D01*
X46662666Y-39397000D01*
X46596000Y-39430333D01*
X46562666Y-39463666D01*
X46529333Y-39530333D01*
X46529333Y-39730333D01*
X46562666Y-39797000D01*
X46596000Y-39830333D01*
X46662666Y-39863666D01*
X46762666Y-39863666D01*
X45429333Y-39830333D02*
X45496000Y-39863666D01*
X45629333Y-39863666D01*
X45696000Y-39830333D01*
X45729333Y-39763666D01*
X45729333Y-39497000D01*
X45696000Y-39430333D01*
X45629333Y-39397000D01*
X45496000Y-39397000D01*
X45429333Y-39430333D01*
X45396000Y-39497000D01*
X45396000Y-39563666D01*
X45729333Y-39630333D01*
X45096000Y-39397000D02*
X45096000Y-39863666D01*
X45096000Y-39463666D02*
X45062666Y-39430333D01*
X44996000Y-39397000D01*
X44896000Y-39397000D01*
X44829333Y-39430333D01*
X44796000Y-39497000D01*
X44796000Y-39863666D01*
X44162666Y-39863666D02*
X44162666Y-39497000D01*
X44196000Y-39430333D01*
X44262666Y-39397000D01*
X44396000Y-39397000D01*
X44462666Y-39430333D01*
X44162666Y-39830333D02*
X44229333Y-39863666D01*
X44396000Y-39863666D01*
X44462666Y-39830333D01*
X44496000Y-39763666D01*
X44496000Y-39697000D01*
X44462666Y-39630333D01*
X44396000Y-39597000D01*
X44229333Y-39597000D01*
X44162666Y-39563666D01*
X43829333Y-39863666D02*
X43829333Y-39163666D01*
X43829333Y-39430333D02*
X43762666Y-39397000D01*
X43629333Y-39397000D01*
X43562666Y-39430333D01*
X43529333Y-39463666D01*
X43496000Y-39530333D01*
X43496000Y-39730333D01*
X43529333Y-39797000D01*
X43562666Y-39830333D01*
X43629333Y-39863666D01*
X43762666Y-39863666D01*
X43829333Y-39830333D01*
X43096000Y-39863666D02*
X43162666Y-39830333D01*
X43196000Y-39763666D01*
X43196000Y-39163666D01*
X42562666Y-39830333D02*
X42629333Y-39863666D01*
X42762666Y-39863666D01*
X42829333Y-39830333D01*
X42862666Y-39763666D01*
X42862666Y-39497000D01*
X42829333Y-39430333D01*
X42762666Y-39397000D01*
X42629333Y-39397000D01*
X42562666Y-39430333D01*
X42529333Y-39497000D01*
X42529333Y-39563666D01*
X42862666Y-39630333D01*
X58429333Y-41033666D02*
X58429333Y-40567000D01*
X58429333Y-40700333D02*
X58396000Y-40633666D01*
X58362666Y-40600333D01*
X58296000Y-40567000D01*
X58229333Y-40567000D01*
X57729333Y-41000333D02*
X57796000Y-41033666D01*
X57929333Y-41033666D01*
X57996000Y-41000333D01*
X58029333Y-40933666D01*
X58029333Y-40667000D01*
X57996000Y-40600333D01*
X57929333Y-40567000D01*
X57796000Y-40567000D01*
X57729333Y-40600333D01*
X57696000Y-40667000D01*
X57696000Y-40733666D01*
X58029333Y-40800333D01*
X57496000Y-40567000D02*
X57229333Y-40567000D01*
X57396000Y-41033666D02*
X57396000Y-40433666D01*
X57362666Y-40367000D01*
X57296000Y-40333666D01*
X57229333Y-40333666D01*
X56729333Y-41000333D02*
X56796000Y-41033666D01*
X56929333Y-41033666D01*
X56996000Y-41000333D01*
X57029333Y-40933666D01*
X57029333Y-40667000D01*
X56996000Y-40600333D01*
X56929333Y-40567000D01*
X56796000Y-40567000D01*
X56729333Y-40600333D01*
X56696000Y-40667000D01*
X56696000Y-40733666D01*
X57029333Y-40800333D01*
X56396000Y-41033666D02*
X56396000Y-40567000D01*
X56396000Y-40700333D02*
X56362666Y-40633666D01*
X56329333Y-40600333D01*
X56262666Y-40567000D01*
X56196000Y-40567000D01*
X55696000Y-41000333D02*
X55762666Y-41033666D01*
X55896000Y-41033666D01*
X55962666Y-41000333D01*
X55996000Y-40933666D01*
X55996000Y-40667000D01*
X55962666Y-40600333D01*
X55896000Y-40567000D01*
X55762666Y-40567000D01*
X55696000Y-40600333D01*
X55662666Y-40667000D01*
X55662666Y-40733666D01*
X55996000Y-40800333D01*
X55362666Y-40567000D02*
X55362666Y-41033666D01*
X55362666Y-40633666D02*
X55329333Y-40600333D01*
X55262666Y-40567000D01*
X55162666Y-40567000D01*
X55096000Y-40600333D01*
X55062666Y-40667000D01*
X55062666Y-41033666D01*
X54429333Y-41000333D02*
X54496000Y-41033666D01*
X54629333Y-41033666D01*
X54696000Y-41000333D01*
X54729333Y-40967000D01*
X54762666Y-40900333D01*
X54762666Y-40700333D01*
X54729333Y-40633666D01*
X54696000Y-40600333D01*
X54629333Y-40567000D01*
X54496000Y-40567000D01*
X54429333Y-40600333D01*
X53862666Y-41000333D02*
X53929333Y-41033666D01*
X54062666Y-41033666D01*
X54129333Y-41000333D01*
X54162666Y-40933666D01*
X54162666Y-40667000D01*
X54129333Y-40600333D01*
X54062666Y-40567000D01*
X53929333Y-40567000D01*
X53862666Y-40600333D01*
X53829333Y-40667000D01*
X53829333Y-40733666D01*
X54162666Y-40800333D01*
X53062666Y-40567000D02*
X52896000Y-41033666D01*
X52729333Y-40567000D01*
X52362666Y-41033666D02*
X52429333Y-41000333D01*
X52462666Y-40967000D01*
X52496000Y-40900333D01*
X52496000Y-40700333D01*
X52462666Y-40633666D01*
X52429333Y-40600333D01*
X52362666Y-40567000D01*
X52262666Y-40567000D01*
X52196000Y-40600333D01*
X52162666Y-40633666D01*
X52129333Y-40700333D01*
X52129333Y-40900333D01*
X52162666Y-40967000D01*
X52196000Y-41000333D01*
X52262666Y-41033666D01*
X52362666Y-41033666D01*
X51729333Y-41033666D02*
X51796000Y-41000333D01*
X51829333Y-40933666D01*
X51829333Y-40333666D01*
X51562666Y-40567000D02*
X51296000Y-40567000D01*
X51462666Y-40333666D02*
X51462666Y-40933666D01*
X51429333Y-41000333D01*
X51362666Y-41033666D01*
X51296000Y-41033666D01*
X50762666Y-41033666D02*
X50762666Y-40667000D01*
X50796000Y-40600333D01*
X50862666Y-40567000D01*
X50996000Y-40567000D01*
X51062666Y-40600333D01*
X50762666Y-41000333D02*
X50829333Y-41033666D01*
X50996000Y-41033666D01*
X51062666Y-41000333D01*
X51096000Y-40933666D01*
X51096000Y-40867000D01*
X51062666Y-40800333D01*
X50996000Y-40767000D01*
X50829333Y-40767000D01*
X50762666Y-40733666D01*
X50129333Y-40567000D02*
X50129333Y-41133666D01*
X50162666Y-41200333D01*
X50196000Y-41233666D01*
X50262666Y-41267000D01*
X50362666Y-41267000D01*
X50429333Y-41233666D01*
X50129333Y-41000333D02*
X50196000Y-41033666D01*
X50329333Y-41033666D01*
X50396000Y-41000333D01*
X50429333Y-40967000D01*
X50462666Y-40900333D01*
X50462666Y-40700333D01*
X50429333Y-40633666D01*
X50396000Y-40600333D01*
X50329333Y-40567000D01*
X50196000Y-40567000D01*
X50129333Y-40600333D01*
X49529333Y-41000333D02*
X49596000Y-41033666D01*
X49729333Y-41033666D01*
X49796000Y-41000333D01*
X49829333Y-40933666D01*
X49829333Y-40667000D01*
X49796000Y-40600333D01*
X49729333Y-40567000D01*
X49596000Y-40567000D01*
X49529333Y-40600333D01*
X49496000Y-40667000D01*
X49496000Y-40733666D01*
X49829333Y-40800333D01*
X48362666Y-40567000D02*
X48362666Y-41133666D01*
X48396000Y-41200333D01*
X48429333Y-41233666D01*
X48496000Y-41267000D01*
X48596000Y-41267000D01*
X48662666Y-41233666D01*
X48362666Y-41000333D02*
X48429333Y-41033666D01*
X48562666Y-41033666D01*
X48629333Y-41000333D01*
X48662666Y-40967000D01*
X48696000Y-40900333D01*
X48696000Y-40700333D01*
X48662666Y-40633666D01*
X48629333Y-40600333D01*
X48562666Y-40567000D01*
X48429333Y-40567000D01*
X48362666Y-40600333D01*
X47762666Y-41000333D02*
X47829333Y-41033666D01*
X47962666Y-41033666D01*
X48029333Y-41000333D01*
X48062666Y-40933666D01*
X48062666Y-40667000D01*
X48029333Y-40600333D01*
X47962666Y-40567000D01*
X47829333Y-40567000D01*
X47762666Y-40600333D01*
X47729333Y-40667000D01*
X47729333Y-40733666D01*
X48062666Y-40800333D01*
X47429333Y-40567000D02*
X47429333Y-41033666D01*
X47429333Y-40633666D02*
X47396000Y-40600333D01*
X47329333Y-40567000D01*
X47229333Y-40567000D01*
X47162666Y-40600333D01*
X47129333Y-40667000D01*
X47129333Y-41033666D01*
X46529333Y-41000333D02*
X46596000Y-41033666D01*
X46729333Y-41033666D01*
X46796000Y-41000333D01*
X46829333Y-40933666D01*
X46829333Y-40667000D01*
X46796000Y-40600333D01*
X46729333Y-40567000D01*
X46596000Y-40567000D01*
X46529333Y-40600333D01*
X46496000Y-40667000D01*
X46496000Y-40733666D01*
X46829333Y-40800333D01*
X46196000Y-41033666D02*
X46196000Y-40567000D01*
X46196000Y-40700333D02*
X46162666Y-40633666D01*
X46129333Y-40600333D01*
X46062666Y-40567000D01*
X45996000Y-40567000D01*
X45462666Y-41033666D02*
X45462666Y-40667000D01*
X45496000Y-40600333D01*
X45562666Y-40567000D01*
X45696000Y-40567000D01*
X45762666Y-40600333D01*
X45462666Y-41000333D02*
X45529333Y-41033666D01*
X45696000Y-41033666D01*
X45762666Y-41000333D01*
X45796000Y-40933666D01*
X45796000Y-40867000D01*
X45762666Y-40800333D01*
X45696000Y-40767000D01*
X45529333Y-40767000D01*
X45462666Y-40733666D01*
X45229333Y-40567000D02*
X44962666Y-40567000D01*
X45129333Y-40333666D02*
X45129333Y-40933666D01*
X45096000Y-41000333D01*
X45029333Y-41033666D01*
X44962666Y-41033666D01*
X44629333Y-41033666D02*
X44696000Y-41000333D01*
X44729333Y-40967000D01*
X44762666Y-40900333D01*
X44762666Y-40700333D01*
X44729333Y-40633666D01*
X44696000Y-40600333D01*
X44629333Y-40567000D01*
X44529333Y-40567000D01*
X44462666Y-40600333D01*
X44429333Y-40633666D01*
X44396000Y-40700333D01*
X44396000Y-40900333D01*
X44429333Y-40967000D01*
X44462666Y-41000333D01*
X44529333Y-41033666D01*
X44629333Y-41033666D01*
X44096000Y-41033666D02*
X44096000Y-40567000D01*
X44096000Y-40700333D02*
X44062666Y-40633666D01*
X44029333Y-40600333D01*
X43962666Y-40567000D01*
X43896000Y-40567000D01*
D11*
X37473944Y-52386726D02*
G75*
G02X38201600Y-52374800I372056J-496074D01*
G01*
X32398973Y-52342630D02*
G75*
G02X33172399Y-52374801I367027J-489370D01*
G01*
X42713080Y-52984400D02*
G75*
G03X42713080Y-52984400I-1057080J0D01*
G01*
X32553080Y-52984400D02*
G75*
G03X32553080Y-52984400I-1057080J0D01*
G01*
X37633080Y-52984400D02*
G75*
G03X37633080Y-52984400I-1057080J0D01*
G01*
X35093080Y-52984400D02*
G75*
G03X35093080Y-52984400I-1057080J0D01*
G01*
X40173080Y-52984400D02*
G75*
G03X40173080Y-52984400I-1057080J0D01*
G01*
X45253080Y-52984400D02*
G75*
G03X45253080Y-52984400I-1057080J0D01*
G01*
X45011511Y-48912673D02*
G75*
G02X44856399Y-52181320I-2034711J-1541448D01*
G01*
X47793080Y-52984400D02*
G75*
G03X47793080Y-52984400I-1057080J0D01*
G01*
X47551511Y-48912673D02*
G75*
G02X47396399Y-52181320I-2034711J-1541448D01*
G01*
X50333080Y-52984400D02*
G75*
G03X50333080Y-52984400I-1057080J0D01*
G01*
X50091511Y-48912673D02*
G75*
G02X49936399Y-52181320I-2034711J-1541448D01*
G01*
X52873080Y-52984400D02*
G75*
G03X52873080Y-52984400I-1057080J0D01*
G01*
X52631511Y-48912673D02*
G75*
G02X52476399Y-52181320I-2034711J-1541448D01*
G01*
X55413080Y-52984400D02*
G75*
G03X55413080Y-52984400I-1057080J0D01*
G01*
X55171511Y-48912673D02*
G75*
G02X55016399Y-52181320I-2034711J-1541448D01*
G01*
X57953080Y-52984400D02*
G75*
G03X57953080Y-52984400I-1057080J0D01*
G01*
X57711511Y-48912673D02*
G75*
G02X57556399Y-52181320I-2034711J-1541448D01*
G01*
X60493080Y-52984400D02*
G75*
G03X60493080Y-52984400I-1057080J0D01*
G01*
X60251511Y-48912673D02*
G75*
G02X60096399Y-52181320I-2034711J-1541448D01*
G01*
X63033080Y-52984400D02*
G75*
G03X63033080Y-52984400I-1057080J0D01*
G01*
X62791511Y-48912673D02*
G75*
G02X62636399Y-52181320I-2034711J-1541448D01*
G01*
X65573080Y-52984400D02*
G75*
G03X65573080Y-52984400I-1057080J0D01*
G01*
X65331511Y-48912673D02*
G75*
G02X65176399Y-52181320I-2034711J-1541448D01*
G01*
X67871511Y-48902952D02*
G75*
G02X67716399Y-52171599I-2034711J-1541448D01*
G01*
X68113080Y-52974679D02*
G75*
G03X68113080Y-52974679I-1057080J0D01*
G01*
X44958000Y-45085000D02*
X42682160Y-46863000D01*
D12*
X57068333Y-44783333D02*
X57135000Y-44816666D01*
X57268333Y-44816666D01*
X57335000Y-44783333D01*
X57368333Y-44750000D01*
X57401666Y-44683333D01*
X57401666Y-44483333D01*
X57368333Y-44416666D01*
X57335000Y-44383333D01*
X57268333Y-44350000D01*
X57135000Y-44350000D01*
X57068333Y-44383333D01*
X56668333Y-44816666D02*
X56735000Y-44783333D01*
X56768333Y-44716666D01*
X56768333Y-44116666D01*
X56301666Y-44816666D02*
X56368333Y-44783333D01*
X56401666Y-44750000D01*
X56435000Y-44683333D01*
X56435000Y-44483333D01*
X56401666Y-44416666D01*
X56368333Y-44383333D01*
X56301666Y-44350000D01*
X56201666Y-44350000D01*
X56135000Y-44383333D01*
X56101666Y-44416666D01*
X56068333Y-44483333D01*
X56068333Y-44683333D01*
X56101666Y-44750000D01*
X56135000Y-44783333D01*
X56201666Y-44816666D01*
X56301666Y-44816666D01*
X55801666Y-44783333D02*
X55735000Y-44816666D01*
X55601666Y-44816666D01*
X55535000Y-44783333D01*
X55501666Y-44716666D01*
X55501666Y-44683333D01*
X55535000Y-44616666D01*
X55601666Y-44583333D01*
X55701666Y-44583333D01*
X55768333Y-44550000D01*
X55801666Y-44483333D01*
X55801666Y-44450000D01*
X55768333Y-44383333D01*
X55701666Y-44350000D01*
X55601666Y-44350000D01*
X55535000Y-44383333D01*
X54935000Y-44783333D02*
X55001666Y-44816666D01*
X55135000Y-44816666D01*
X55201666Y-44783333D01*
X55235000Y-44716666D01*
X55235000Y-44450000D01*
X55201666Y-44383333D01*
X55135000Y-44350000D01*
X55001666Y-44350000D01*
X54935000Y-44383333D01*
X54901666Y-44450000D01*
X54901666Y-44516666D01*
X55235000Y-44583333D01*
X54101666Y-44783333D02*
X54035000Y-44816666D01*
X53901666Y-44816666D01*
X53835000Y-44783333D01*
X53801666Y-44716666D01*
X53801666Y-44683333D01*
X53835000Y-44616666D01*
X53901666Y-44583333D01*
X54001666Y-44583333D01*
X54068333Y-44550000D01*
X54101666Y-44483333D01*
X54101666Y-44450000D01*
X54068333Y-44383333D01*
X54001666Y-44350000D01*
X53901666Y-44350000D01*
X53835000Y-44383333D01*
X53401666Y-44816666D02*
X53468333Y-44783333D01*
X53501666Y-44750000D01*
X53535000Y-44683333D01*
X53535000Y-44483333D01*
X53501666Y-44416666D01*
X53468333Y-44383333D01*
X53401666Y-44350000D01*
X53301666Y-44350000D01*
X53235000Y-44383333D01*
X53201666Y-44416666D01*
X53168333Y-44483333D01*
X53168333Y-44683333D01*
X53201666Y-44750000D01*
X53235000Y-44783333D01*
X53301666Y-44816666D01*
X53401666Y-44816666D01*
X52768333Y-44816666D02*
X52835000Y-44783333D01*
X52868333Y-44716666D01*
X52868333Y-44116666D01*
X52201666Y-44816666D02*
X52201666Y-44116666D01*
X52201666Y-44783333D02*
X52268333Y-44816666D01*
X52401666Y-44816666D01*
X52468333Y-44783333D01*
X52501666Y-44750000D01*
X52535000Y-44683333D01*
X52535000Y-44483333D01*
X52501666Y-44416666D01*
X52468333Y-44383333D01*
X52401666Y-44350000D01*
X52268333Y-44350000D01*
X52201666Y-44383333D01*
X51601666Y-44783333D02*
X51668333Y-44816666D01*
X51801666Y-44816666D01*
X51868333Y-44783333D01*
X51901666Y-44716666D01*
X51901666Y-44450000D01*
X51868333Y-44383333D01*
X51801666Y-44350000D01*
X51668333Y-44350000D01*
X51601666Y-44383333D01*
X51568333Y-44450000D01*
X51568333Y-44516666D01*
X51901666Y-44583333D01*
X51268333Y-44816666D02*
X51268333Y-44350000D01*
X51268333Y-44483333D02*
X51235000Y-44416666D01*
X51201666Y-44383333D01*
X51135000Y-44350000D01*
X51068333Y-44350000D01*
X50301666Y-44350000D02*
X50301666Y-44950000D01*
X50335000Y-45016666D01*
X50401666Y-45050000D01*
X50435000Y-45050000D01*
X50301666Y-44116666D02*
X50335000Y-44150000D01*
X50301666Y-44183333D01*
X50268333Y-44150000D01*
X50301666Y-44116666D01*
X50301666Y-44183333D01*
X49668333Y-44350000D02*
X49668333Y-44816666D01*
X49968333Y-44350000D02*
X49968333Y-44716666D01*
X49935000Y-44783333D01*
X49868333Y-44816666D01*
X49768333Y-44816666D01*
X49701666Y-44783333D01*
X49668333Y-44750000D01*
X49335000Y-44816666D02*
X49335000Y-44350000D01*
X49335000Y-44416666D02*
X49301666Y-44383333D01*
X49235000Y-44350000D01*
X49135000Y-44350000D01*
X49068333Y-44383333D01*
X49035000Y-44450000D01*
X49035000Y-44816666D01*
X49035000Y-44450000D02*
X49001666Y-44383333D01*
X48935000Y-44350000D01*
X48835000Y-44350000D01*
X48768333Y-44383333D01*
X48735000Y-44450000D01*
X48735000Y-44816666D01*
X48401666Y-44350000D02*
X48401666Y-45050000D01*
X48401666Y-44383333D02*
X48335000Y-44350000D01*
X48201666Y-44350000D01*
X48135000Y-44383333D01*
X48101666Y-44416666D01*
X48068333Y-44483333D01*
X48068333Y-44683333D01*
X48101666Y-44750000D01*
X48135000Y-44783333D01*
X48201666Y-44816666D01*
X48335000Y-44816666D01*
X48401666Y-44783333D01*
X47501666Y-44783333D02*
X47568333Y-44816666D01*
X47701666Y-44816666D01*
X47768333Y-44783333D01*
X47801666Y-44716666D01*
X47801666Y-44450000D01*
X47768333Y-44383333D01*
X47701666Y-44350000D01*
X47568333Y-44350000D01*
X47501666Y-44383333D01*
X47468333Y-44450000D01*
X47468333Y-44516666D01*
X47801666Y-44583333D01*
X47168333Y-44816666D02*
X47168333Y-44350000D01*
X47168333Y-44483333D02*
X47135000Y-44416666D01*
X47101666Y-44383333D01*
X47035000Y-44350000D01*
X46968333Y-44350000D01*
X46301666Y-44350000D02*
X46035000Y-44350000D01*
X46201666Y-44116666D02*
X46201666Y-44716666D01*
X46168333Y-44783333D01*
X46101666Y-44816666D01*
X46035000Y-44816666D01*
X45701666Y-44816666D02*
X45768333Y-44783333D01*
X45801666Y-44750000D01*
X45835000Y-44683333D01*
X45835000Y-44483333D01*
X45801666Y-44416666D01*
X45768333Y-44383333D01*
X45701666Y-44350000D01*
X45601666Y-44350000D01*
X45535000Y-44383333D01*
X45501666Y-44416666D01*
X45468333Y-44483333D01*
X45468333Y-44683333D01*
X45501666Y-44750000D01*
X45535000Y-44783333D01*
X45601666Y-44816666D01*
X45701666Y-44816666D01*
X57351666Y-45986666D02*
X57351666Y-45520000D01*
X57351666Y-45586666D02*
X57318333Y-45553333D01*
X57251666Y-45520000D01*
X57151666Y-45520000D01*
X57085000Y-45553333D01*
X57051666Y-45620000D01*
X57051666Y-45986666D01*
X57051666Y-45620000D02*
X57018333Y-45553333D01*
X56951666Y-45520000D01*
X56851666Y-45520000D01*
X56785000Y-45553333D01*
X56751666Y-45620000D01*
X56751666Y-45986666D01*
X56151666Y-45953333D02*
X56218333Y-45986666D01*
X56351666Y-45986666D01*
X56418333Y-45953333D01*
X56451666Y-45886666D01*
X56451666Y-45620000D01*
X56418333Y-45553333D01*
X56351666Y-45520000D01*
X56218333Y-45520000D01*
X56151666Y-45553333D01*
X56118333Y-45620000D01*
X56118333Y-45686666D01*
X56451666Y-45753333D01*
X55518333Y-45986666D02*
X55518333Y-45620000D01*
X55551666Y-45553333D01*
X55618333Y-45520000D01*
X55751666Y-45520000D01*
X55818333Y-45553333D01*
X55518333Y-45953333D02*
X55585000Y-45986666D01*
X55751666Y-45986666D01*
X55818333Y-45953333D01*
X55851666Y-45886666D01*
X55851666Y-45820000D01*
X55818333Y-45753333D01*
X55751666Y-45720000D01*
X55585000Y-45720000D01*
X55518333Y-45686666D01*
X55218333Y-45953333D02*
X55151666Y-45986666D01*
X55018333Y-45986666D01*
X54951666Y-45953333D01*
X54918333Y-45886666D01*
X54918333Y-45853333D01*
X54951666Y-45786666D01*
X55018333Y-45753333D01*
X55118333Y-45753333D01*
X55185000Y-45720000D01*
X55218333Y-45653333D01*
X55218333Y-45620000D01*
X55185000Y-45553333D01*
X55118333Y-45520000D01*
X55018333Y-45520000D01*
X54951666Y-45553333D01*
X54318333Y-45520000D02*
X54318333Y-45986666D01*
X54618333Y-45520000D02*
X54618333Y-45886666D01*
X54585000Y-45953333D01*
X54518333Y-45986666D01*
X54418333Y-45986666D01*
X54351666Y-45953333D01*
X54318333Y-45920000D01*
X53985000Y-45986666D02*
X53985000Y-45520000D01*
X53985000Y-45653333D02*
X53951666Y-45586666D01*
X53918333Y-45553333D01*
X53851666Y-45520000D01*
X53785000Y-45520000D01*
X53285000Y-45953333D02*
X53351666Y-45986666D01*
X53485000Y-45986666D01*
X53551666Y-45953333D01*
X53585000Y-45886666D01*
X53585000Y-45620000D01*
X53551666Y-45553333D01*
X53485000Y-45520000D01*
X53351666Y-45520000D01*
X53285000Y-45553333D01*
X53251666Y-45620000D01*
X53251666Y-45686666D01*
X53585000Y-45753333D01*
X52418333Y-45986666D02*
X52418333Y-45286666D01*
X52418333Y-45553333D02*
X52351666Y-45520000D01*
X52218333Y-45520000D01*
X52151666Y-45553333D01*
X52118333Y-45586666D01*
X52085000Y-45653333D01*
X52085000Y-45853333D01*
X52118333Y-45920000D01*
X52151666Y-45953333D01*
X52218333Y-45986666D01*
X52351666Y-45986666D01*
X52418333Y-45953333D01*
X51485000Y-45986666D02*
X51485000Y-45620000D01*
X51518333Y-45553333D01*
X51585000Y-45520000D01*
X51718333Y-45520000D01*
X51785000Y-45553333D01*
X51485000Y-45953333D02*
X51551666Y-45986666D01*
X51718333Y-45986666D01*
X51785000Y-45953333D01*
X51818333Y-45886666D01*
X51818333Y-45820000D01*
X51785000Y-45753333D01*
X51718333Y-45720000D01*
X51551666Y-45720000D01*
X51485000Y-45686666D01*
X51251666Y-45520000D02*
X50985000Y-45520000D01*
X51151666Y-45286666D02*
X51151666Y-45886666D01*
X51118333Y-45953333D01*
X51051666Y-45986666D01*
X50985000Y-45986666D01*
X50851666Y-45520000D02*
X50585000Y-45520000D01*
X50751666Y-45286666D02*
X50751666Y-45886666D01*
X50718333Y-45953333D01*
X50651666Y-45986666D01*
X50585000Y-45986666D01*
X50085000Y-45953333D02*
X50151666Y-45986666D01*
X50285000Y-45986666D01*
X50351666Y-45953333D01*
X50385000Y-45886666D01*
X50385000Y-45620000D01*
X50351666Y-45553333D01*
X50285000Y-45520000D01*
X50151666Y-45520000D01*
X50085000Y-45553333D01*
X50051666Y-45620000D01*
X50051666Y-45686666D01*
X50385000Y-45753333D01*
X49751666Y-45986666D02*
X49751666Y-45520000D01*
X49751666Y-45653333D02*
X49718333Y-45586666D01*
X49685000Y-45553333D01*
X49618333Y-45520000D01*
X49551666Y-45520000D01*
X49385000Y-45520000D02*
X49218333Y-45986666D01*
X49051666Y-45520000D02*
X49218333Y-45986666D01*
X49285000Y-46153333D01*
X49318333Y-46186666D01*
X49385000Y-46220000D01*
X48151666Y-45986666D02*
X48218333Y-45953333D01*
X48251666Y-45920000D01*
X48285000Y-45853333D01*
X48285000Y-45653333D01*
X48251666Y-45586666D01*
X48218333Y-45553333D01*
X48151666Y-45520000D01*
X48051666Y-45520000D01*
X47985000Y-45553333D01*
X47951666Y-45586666D01*
X47918333Y-45653333D01*
X47918333Y-45853333D01*
X47951666Y-45920000D01*
X47985000Y-45953333D01*
X48051666Y-45986666D01*
X48151666Y-45986666D01*
X47618333Y-45520000D02*
X47618333Y-45986666D01*
X47618333Y-45586666D02*
X47585000Y-45553333D01*
X47518333Y-45520000D01*
X47418333Y-45520000D01*
X47351666Y-45553333D01*
X47318333Y-45620000D01*
X47318333Y-45986666D01*
X46485000Y-45786666D02*
X46151666Y-45786666D01*
X46551666Y-45986666D02*
X46318333Y-45286666D01*
X46085000Y-45986666D01*
X45918333Y-45286666D02*
X45451666Y-45286666D01*
X45751666Y-45986666D01*
D13*
X42370285Y-45632666D02*
X41894095Y-45632666D01*
X42465523Y-45918380D02*
X42132190Y-44918380D01*
X41798857Y-45918380D01*
X41560761Y-44918380D02*
X40894095Y-44918380D01*
X41322666Y-45918380D01*
X67708666Y-48703333D02*
X67708666Y-47723333D01*
X67475333Y-47723333D01*
X67335333Y-47770000D01*
X67242000Y-47863333D01*
X67195333Y-47956666D01*
X67148666Y-48143333D01*
X67148666Y-48283333D01*
X67195333Y-48470000D01*
X67242000Y-48563333D01*
X67335333Y-48656666D01*
X67475333Y-48703333D01*
X67708666Y-48703333D01*
X66775333Y-47816666D02*
X66728666Y-47770000D01*
X66635333Y-47723333D01*
X66402000Y-47723333D01*
X66308666Y-47770000D01*
X66262000Y-47816666D01*
X66215333Y-47910000D01*
X66215333Y-48003333D01*
X66262000Y-48143333D01*
X66822000Y-48703333D01*
X66215333Y-48703333D01*
X65048666Y-48703333D02*
X65048666Y-47723333D01*
X64815333Y-47723333D01*
X64675333Y-47770000D01*
X64582000Y-47863333D01*
X64535333Y-47956666D01*
X64488666Y-48143333D01*
X64488666Y-48283333D01*
X64535333Y-48470000D01*
X64582000Y-48563333D01*
X64675333Y-48656666D01*
X64815333Y-48703333D01*
X65048666Y-48703333D01*
X64162000Y-47723333D02*
X63555333Y-47723333D01*
X63882000Y-48096666D01*
X63742000Y-48096666D01*
X63648666Y-48143333D01*
X63602000Y-48190000D01*
X63555333Y-48283333D01*
X63555333Y-48516666D01*
X63602000Y-48610000D01*
X63648666Y-48656666D01*
X63742000Y-48703333D01*
X64022000Y-48703333D01*
X64115333Y-48656666D01*
X64162000Y-48610000D01*
X62388666Y-48703333D02*
X62388666Y-47723333D01*
X62155333Y-47723333D01*
X62015333Y-47770000D01*
X61922000Y-47863333D01*
X61875333Y-47956666D01*
X61828666Y-48143333D01*
X61828666Y-48283333D01*
X61875333Y-48470000D01*
X61922000Y-48563333D01*
X62015333Y-48656666D01*
X62155333Y-48703333D01*
X62388666Y-48703333D01*
X60988666Y-48050000D02*
X60988666Y-48703333D01*
X61222000Y-47676666D02*
X61455333Y-48376666D01*
X60848666Y-48376666D01*
X59775333Y-48423333D02*
X59308666Y-48423333D01*
X59868666Y-48703333D02*
X59542000Y-47723333D01*
X59215333Y-48703333D01*
X58702000Y-47723333D02*
X58608666Y-47723333D01*
X58515333Y-47770000D01*
X58468666Y-47816666D01*
X58422000Y-47910000D01*
X58375333Y-48096666D01*
X58375333Y-48330000D01*
X58422000Y-48516666D01*
X58468666Y-48610000D01*
X58515333Y-48656666D01*
X58608666Y-48703333D01*
X58702000Y-48703333D01*
X58795333Y-48656666D01*
X58842000Y-48610000D01*
X58888666Y-48516666D01*
X58935333Y-48330000D01*
X58935333Y-48096666D01*
X58888666Y-47910000D01*
X58842000Y-47816666D01*
X58795333Y-47770000D01*
X58702000Y-47723333D01*
X57255333Y-48423333D02*
X56788666Y-48423333D01*
X57348666Y-48703333D02*
X57022000Y-47723333D01*
X56695333Y-48703333D01*
X55855333Y-48703333D02*
X56415333Y-48703333D01*
X56135333Y-48703333D02*
X56135333Y-47723333D01*
X56228666Y-47863333D01*
X56322000Y-47956666D01*
X56415333Y-48003333D01*
X54735333Y-48423333D02*
X54268666Y-48423333D01*
X54828666Y-48703333D02*
X54502000Y-47723333D01*
X54175333Y-48703333D01*
X53895333Y-47816666D02*
X53848666Y-47770000D01*
X53755333Y-47723333D01*
X53522000Y-47723333D01*
X53428666Y-47770000D01*
X53382000Y-47816666D01*
X53335333Y-47910000D01*
X53335333Y-48003333D01*
X53382000Y-48143333D01*
X53942000Y-48703333D01*
X53335333Y-48703333D01*
X52215333Y-48423333D02*
X51748666Y-48423333D01*
X52308666Y-48703333D02*
X51982000Y-47723333D01*
X51655333Y-48703333D01*
X51422000Y-47723333D02*
X50815333Y-47723333D01*
X51142000Y-48096666D01*
X51002000Y-48096666D01*
X50908666Y-48143333D01*
X50862000Y-48190000D01*
X50815333Y-48283333D01*
X50815333Y-48516666D01*
X50862000Y-48610000D01*
X50908666Y-48656666D01*
X51002000Y-48703333D01*
X51282000Y-48703333D01*
X51375333Y-48656666D01*
X51422000Y-48610000D01*
X49695333Y-48423333D02*
X49228666Y-48423333D01*
X49788666Y-48703333D02*
X49462000Y-47723333D01*
X49135333Y-48703333D01*
X48388666Y-48050000D02*
X48388666Y-48703333D01*
X48622000Y-47676666D02*
X48855333Y-48376666D01*
X48248666Y-48376666D01*
X47175333Y-48423333D02*
X46708666Y-48423333D01*
X47268666Y-48703333D02*
X46942000Y-47723333D01*
X46615333Y-48703333D01*
X45822000Y-47723333D02*
X46288666Y-47723333D01*
X46335333Y-48190000D01*
X46288666Y-48143333D01*
X46195333Y-48096666D01*
X45962000Y-48096666D01*
X45868666Y-48143333D01*
X45822000Y-48190000D01*
X45775333Y-48283333D01*
X45775333Y-48516666D01*
X45822000Y-48610000D01*
X45868666Y-48656666D01*
X45962000Y-48703333D01*
X46195333Y-48703333D01*
X46288666Y-48656666D01*
X46335333Y-48610000D01*
X44655333Y-48423333D02*
X44188666Y-48423333D01*
X44748666Y-48703333D02*
X44422000Y-47723333D01*
X44095333Y-48703333D01*
X43348666Y-47723333D02*
X43535333Y-47723333D01*
X43628666Y-47770000D01*
X43675333Y-47816666D01*
X43768666Y-47956666D01*
X43815333Y-48143333D01*
X43815333Y-48516666D01*
X43768666Y-48610000D01*
X43722000Y-48656666D01*
X43628666Y-48703333D01*
X43442000Y-48703333D01*
X43348666Y-48656666D01*
X43302000Y-48610000D01*
X43255333Y-48516666D01*
X43255333Y-48283333D01*
X43302000Y-48190000D01*
X43348666Y-48143333D01*
X43442000Y-48096666D01*
X43628666Y-48096666D01*
X43722000Y-48143333D01*
X43768666Y-48190000D01*
X43815333Y-48283333D01*
D14*
X57977276Y-30940428D02*
X57977276Y-32940428D01*
X57977276Y-31035666D02*
X57786800Y-30940428D01*
X57405847Y-30940428D01*
X57215371Y-31035666D01*
X57120133Y-31130904D01*
X57024895Y-31321380D01*
X57024895Y-31892809D01*
X57120133Y-32083285D01*
X57215371Y-32178523D01*
X57405847Y-32273761D01*
X57786800Y-32273761D01*
X57977276Y-32178523D01*
X56262990Y-32178523D02*
X56072514Y-32273761D01*
X55691561Y-32273761D01*
X55501085Y-32178523D01*
X55405847Y-31988047D01*
X55405847Y-31892809D01*
X55501085Y-31702333D01*
X55691561Y-31607095D01*
X55977276Y-31607095D01*
X56167752Y-31511857D01*
X56262990Y-31321380D01*
X56262990Y-31226142D01*
X56167752Y-31035666D01*
X55977276Y-30940428D01*
X55691561Y-30940428D01*
X55501085Y-31035666D01*
X54739180Y-30940428D02*
X54262990Y-32273761D01*
X53786800Y-30940428D02*
X54262990Y-32273761D01*
X54453466Y-32749952D01*
X54548704Y-32845190D01*
X54739180Y-32940428D01*
X52739180Y-32273761D02*
X52929657Y-32178523D01*
X53024895Y-31988047D01*
X53024895Y-30273761D01*
X51977276Y-32273761D02*
X51977276Y-30940428D01*
X51977276Y-30273761D02*
X52072514Y-30369000D01*
X51977276Y-30464238D01*
X51882038Y-30369000D01*
X51977276Y-30273761D01*
X51977276Y-30464238D01*
X51024895Y-30940428D02*
X51024895Y-32273761D01*
X51024895Y-31130904D02*
X50929657Y-31035666D01*
X50739180Y-30940428D01*
X50453466Y-30940428D01*
X50262990Y-31035666D01*
X50167752Y-31226142D01*
X50167752Y-32273761D01*
X49215371Y-32273761D02*
X49215371Y-30273761D01*
X49024895Y-31511857D02*
X48453466Y-32273761D01*
X48453466Y-30940428D02*
X49215371Y-31702333D01*
X47596323Y-32083285D02*
X47501085Y-32178523D01*
X47596323Y-32273761D01*
X47691561Y-32178523D01*
X47596323Y-32083285D01*
X47596323Y-32273761D01*
X46643942Y-32273761D02*
X46643942Y-30940428D01*
X46643942Y-31130904D02*
X46548704Y-31035666D01*
X46358228Y-30940428D01*
X46072514Y-30940428D01*
X45882038Y-31035666D01*
X45786800Y-31226142D01*
X45786800Y-32273761D01*
X45786800Y-31226142D02*
X45691561Y-31035666D01*
X45501085Y-30940428D01*
X45215371Y-30940428D01*
X45024895Y-31035666D01*
X44929657Y-31226142D01*
X44929657Y-32273761D01*
X43215371Y-32178523D02*
X43405847Y-32273761D01*
X43786800Y-32273761D01*
X43977276Y-32178523D01*
X44072514Y-31988047D01*
X44072514Y-31226142D01*
X43977276Y-31035666D01*
X43786800Y-30940428D01*
X43405847Y-30940428D01*
X43215371Y-31035666D01*
X43120133Y-31226142D01*
X43120133Y-31416619D01*
X44072514Y-31607095D01*
X40834419Y-30178523D02*
X42548704Y-32749952D01*
X40167752Y-32273761D02*
X40167752Y-30273761D01*
X40167752Y-31035666D02*
X39977276Y-30940428D01*
X39596323Y-30940428D01*
X39405847Y-31035666D01*
X39310609Y-31130904D01*
X39215371Y-31321380D01*
X39215371Y-31892809D01*
X39310609Y-32083285D01*
X39405847Y-32178523D01*
X39596323Y-32273761D01*
X39977276Y-32273761D01*
X40167752Y-32178523D01*
X38358228Y-30940428D02*
X38358228Y-32940428D01*
X38358228Y-31035666D02*
X38167752Y-30940428D01*
X37786800Y-30940428D01*
X37596323Y-31035666D01*
X37501085Y-31130904D01*
X37405847Y-31321380D01*
X37405847Y-31892809D01*
X37501085Y-32083285D01*
X37596323Y-32178523D01*
X37786800Y-32273761D01*
X38167752Y-32273761D01*
X38358228Y-32178523D01*
X36739180Y-30273761D02*
X35501085Y-30273761D01*
X36167752Y-31035666D01*
X35882038Y-31035666D01*
X35691561Y-31130904D01*
X35596323Y-31226142D01*
X35501085Y-31416619D01*
X35501085Y-31892809D01*
X35596323Y-32083285D01*
X35691561Y-32178523D01*
X35882038Y-32273761D01*
X36453466Y-32273761D01*
X36643942Y-32178523D01*
X36739180Y-32083285D01*
D11*
X28447904Y-50554000D02*
X28543142Y-50506380D01*
X28686000Y-50506380D01*
X28828857Y-50554000D01*
X28924095Y-50649238D01*
X28971714Y-50744476D01*
X29019333Y-50934952D01*
X29019333Y-51077809D01*
X28971714Y-51268285D01*
X28924095Y-51363523D01*
X28828857Y-51458761D01*
X28686000Y-51506380D01*
X28590761Y-51506380D01*
X28447904Y-51458761D01*
X28400285Y-51411142D01*
X28400285Y-51077809D01*
X28590761Y-51077809D01*
X27971714Y-51506380D02*
X27971714Y-50506380D01*
X27400285Y-51506380D01*
X27400285Y-50506380D01*
X26924095Y-51506380D02*
X26924095Y-50506380D01*
X26686000Y-50506380D01*
X26543142Y-50554000D01*
X26447904Y-50649238D01*
X26400285Y-50744476D01*
X26352666Y-50934952D01*
X26352666Y-51077809D01*
X26400285Y-51268285D01*
X26447904Y-51363523D01*
X26543142Y-51458761D01*
X26686000Y-51506380D01*
X26924095Y-51506380D01*
X33651723Y-47077380D02*
X34127914Y-47077380D01*
X34175533Y-47553571D01*
X34127914Y-47505952D01*
X34032676Y-47458333D01*
X33794580Y-47458333D01*
X33699342Y-47505952D01*
X33651723Y-47553571D01*
X33604104Y-47648809D01*
X33604104Y-47886904D01*
X33651723Y-47982142D01*
X33699342Y-48029761D01*
X33794580Y-48077380D01*
X34032676Y-48077380D01*
X34127914Y-48029761D01*
X34175533Y-47982142D01*
X33318390Y-47077380D02*
X32985057Y-48077380D01*
X32651723Y-47077380D01*
X32318390Y-47696428D02*
X31556485Y-47696428D01*
X31937438Y-48077380D02*
X31937438Y-47315476D01*
X35585400Y-48425100D02*
X40030400Y-48425100D01*
X37846000Y-52273200D02*
X37846000Y-48425100D01*
X30505400Y-48425100D02*
X34950400Y-48425100D01*
X32766000Y-52222400D02*
X32766000Y-48425100D01*
X30226000Y-51714400D02*
X30226000Y-52959000D01*
X25146000Y-51714400D02*
X30226000Y-51714400D01*
X25153620Y-52984400D02*
X25146000Y-51714400D01*
D12*
X40681400Y-48416440D02*
G75*
G03X41381400Y-49116440I700000J0D01*
G01*
X41981400Y-49116440D02*
G75*
G03X42681400Y-48416440I0J700000D01*
G01*
X42681400Y-47016440D02*
G75*
G03X41981400Y-46316440I-700000J0D01*
G01*
X41381400Y-46316440D02*
G75*
G03X40681400Y-47016440I0J-700000D01*
G01*
X41981400Y-46316440D02*
X41381400Y-46316440D01*
X42681400Y-48416440D02*
X42681400Y-47016440D01*
X41381400Y-49116440D02*
X41981400Y-49116440D01*
X40681400Y-47016440D02*
X40681400Y-48416440D01*
X25153620Y-51714400D02*
X25153620Y-52984400D01*
X26423620Y-51714400D02*
X25153620Y-51714400D01*
X67443620Y-54027329D02*
X67443620Y-54424400D01*
X66683620Y-54027329D02*
X66683620Y-54424400D01*
X67443620Y-63084400D02*
X67443620Y-57084400D01*
X66683620Y-63084400D02*
X67443620Y-63084400D01*
X66683620Y-57084400D02*
X66683620Y-63084400D01*
X65793620Y-54424400D02*
X65793620Y-57084400D01*
X64903620Y-54027329D02*
X64903620Y-54424400D01*
X64143620Y-54027329D02*
X64143620Y-54424400D01*
X64903620Y-63084400D02*
X64903620Y-57084400D01*
X64143620Y-63084400D02*
X64903620Y-63084400D01*
X64143620Y-57084400D02*
X64143620Y-63084400D01*
X63253620Y-54424400D02*
X63253620Y-57084400D01*
X62363620Y-54027329D02*
X62363620Y-54424400D01*
X61603620Y-54027329D02*
X61603620Y-54424400D01*
X62363620Y-63084400D02*
X62363620Y-57084400D01*
X61603620Y-63084400D02*
X62363620Y-63084400D01*
X61603620Y-57084400D02*
X61603620Y-63084400D01*
X60713620Y-54424400D02*
X60713620Y-57084400D01*
X59823620Y-54027329D02*
X59823620Y-54424400D01*
X59063620Y-54027329D02*
X59063620Y-54424400D01*
X59823620Y-63084400D02*
X59823620Y-57084400D01*
X59063620Y-63084400D02*
X59823620Y-63084400D01*
X59063620Y-57084400D02*
X59063620Y-63084400D01*
X58173620Y-54424400D02*
X58173620Y-57084400D01*
X57283620Y-54027329D02*
X57283620Y-54424400D01*
X56523620Y-54027329D02*
X56523620Y-54424400D01*
X57283620Y-63084400D02*
X57283620Y-57084400D01*
X56523620Y-63084400D02*
X57283620Y-63084400D01*
X56523620Y-57084400D02*
X56523620Y-63084400D01*
X55633620Y-54424400D02*
X55633620Y-57084400D01*
X54743620Y-54027329D02*
X54743620Y-54424400D01*
X53983620Y-54027329D02*
X53983620Y-54424400D01*
X54743620Y-63084400D02*
X54743620Y-57084400D01*
X53983620Y-63084400D02*
X54743620Y-63084400D01*
X53983620Y-57084400D02*
X53983620Y-63084400D01*
X53093620Y-54424400D02*
X53093620Y-57084400D01*
X52203620Y-54027329D02*
X52203620Y-54424400D01*
X51443620Y-54027329D02*
X51443620Y-54424400D01*
X52203620Y-63084400D02*
X52203620Y-57084400D01*
X51443620Y-63084400D02*
X52203620Y-63084400D01*
X51443620Y-57084400D02*
X51443620Y-63084400D01*
X50553620Y-54424400D02*
X50553620Y-57084400D01*
X49663620Y-54027329D02*
X49663620Y-54424400D01*
X48903620Y-54027329D02*
X48903620Y-54424400D01*
X49663620Y-63084400D02*
X49663620Y-57084400D01*
X48903620Y-63084400D02*
X49663620Y-63084400D01*
X48903620Y-57084400D02*
X48903620Y-63084400D01*
X48013620Y-54424400D02*
X48013620Y-57084400D01*
X47123620Y-54027329D02*
X47123620Y-54424400D01*
X46363620Y-54027329D02*
X46363620Y-54424400D01*
X47123620Y-63084400D02*
X47123620Y-57084400D01*
X46363620Y-63084400D02*
X47123620Y-63084400D01*
X46363620Y-57084400D02*
X46363620Y-63084400D01*
X45473620Y-54424400D02*
X45473620Y-57084400D01*
X44583620Y-54027329D02*
X44583620Y-54424400D01*
X43823620Y-54027329D02*
X43823620Y-54424400D01*
X44583620Y-63084400D02*
X44583620Y-57084400D01*
X43823620Y-63084400D02*
X44583620Y-63084400D01*
X43823620Y-57084400D02*
X43823620Y-63084400D01*
X42933620Y-54424400D02*
X42933620Y-57084400D01*
X42043620Y-54027329D02*
X42043620Y-54424400D01*
X41283620Y-54027329D02*
X41283620Y-54424400D01*
X42043620Y-63084400D02*
X42043620Y-57084400D01*
X41283620Y-63084400D02*
X42043620Y-63084400D01*
X41283620Y-57084400D02*
X41283620Y-63084400D01*
X40393620Y-54424400D02*
X40393620Y-57084400D01*
X39503620Y-54027329D02*
X39503620Y-54424400D01*
X38743620Y-54027329D02*
X38743620Y-54424400D01*
X39503620Y-63084400D02*
X39503620Y-57084400D01*
X38743620Y-63084400D02*
X39503620Y-63084400D01*
X38743620Y-57084400D02*
X38743620Y-63084400D01*
X37853620Y-54424400D02*
X37853620Y-57084400D01*
X36963620Y-54027329D02*
X36963620Y-54424400D01*
X36203620Y-54027329D02*
X36203620Y-54424400D01*
X36963620Y-63084400D02*
X36963620Y-57084400D01*
X36203620Y-63084400D02*
X36963620Y-63084400D01*
X36203620Y-57084400D02*
X36203620Y-63084400D01*
X35313620Y-54424400D02*
X35313620Y-57084400D01*
X34423620Y-54027329D02*
X34423620Y-54424400D01*
X33663620Y-54027329D02*
X33663620Y-54424400D01*
X34423620Y-63084400D02*
X34423620Y-57084400D01*
X33663620Y-63084400D02*
X34423620Y-63084400D01*
X33663620Y-57084400D02*
X33663620Y-63084400D01*
X32773620Y-54424400D02*
X32773620Y-57084400D01*
X31883620Y-54027329D02*
X31883620Y-54424400D01*
X31123620Y-54027329D02*
X31123620Y-54424400D01*
X31883620Y-63084400D02*
X31883620Y-57084400D01*
X31123620Y-63084400D02*
X31883620Y-63084400D01*
X31123620Y-57084400D02*
X31123620Y-63084400D01*
X30233620Y-54424400D02*
X30233620Y-57084400D01*
X29343620Y-54027329D02*
X29343620Y-54424400D01*
X28583620Y-54027329D02*
X28583620Y-54424400D01*
X29343620Y-63084400D02*
X29343620Y-57084400D01*
X28583620Y-63084400D02*
X29343620Y-63084400D01*
X28583620Y-57084400D02*
X28583620Y-63084400D01*
X27693620Y-54424400D02*
X27693620Y-57084400D01*
X26803620Y-54094400D02*
X26803620Y-54424400D01*
X26043620Y-54094400D02*
X26043620Y-54424400D01*
X26703620Y-57084400D02*
X26703620Y-63084400D01*
X26583620Y-57084400D02*
X26583620Y-63084400D01*
X26463620Y-57084400D02*
X26463620Y-63084400D01*
X26343620Y-57084400D02*
X26343620Y-63084400D01*
X26223620Y-57084400D02*
X26223620Y-63084400D01*
X26103620Y-57084400D02*
X26103620Y-63084400D01*
X26803620Y-63084400D02*
X26803620Y-57084400D01*
X26043620Y-63084400D02*
X26803620Y-63084400D01*
X26043620Y-57084400D02*
X26043620Y-63084400D01*
X25093620Y-57084400D02*
X25093620Y-54424400D01*
X68393620Y-57084400D02*
X25093620Y-57084400D01*
X68393620Y-54424400D02*
X68393620Y-57084400D01*
X25093620Y-54424400D02*
X68393620Y-54424400D01*
X60341000Y-40705000D02*
G75*
G03X61041000Y-41405000I700000J0D01*
G01*
X61641000Y-41405000D02*
G75*
G03X62341000Y-40705000I0J700000D01*
G01*
X62341000Y-39305000D02*
G75*
G03X61641000Y-38605000I-700000J0D01*
G01*
X61041000Y-38605000D02*
G75*
G03X60341000Y-39305000I0J-700000D01*
G01*
X61641000Y-38605000D02*
X61041000Y-38605000D01*
X62341000Y-40705000D02*
X62341000Y-39305000D01*
X61041000Y-41405000D02*
X61641000Y-41405000D01*
X60341000Y-39305000D02*
X60341000Y-40705000D01*
D11*
X42616333Y-43394380D02*
X42616333Y-44108666D01*
X42663952Y-44251523D01*
X42759190Y-44346761D01*
X42902047Y-44394380D01*
X42997285Y-44394380D01*
X42140142Y-44394380D02*
X42140142Y-43394380D01*
X41759190Y-43394380D01*
X41663952Y-43442000D01*
X41616333Y-43489619D01*
X41568714Y-43584857D01*
X41568714Y-43727714D01*
X41616333Y-43822952D01*
X41663952Y-43870571D01*
X41759190Y-43918190D01*
X42140142Y-43918190D01*
X41187761Y-43489619D02*
X41140142Y-43442000D01*
X41044904Y-43394380D01*
X40806809Y-43394380D01*
X40711571Y-43442000D01*
X40663952Y-43489619D01*
X40616333Y-43584857D01*
X40616333Y-43680095D01*
X40663952Y-43822952D01*
X41235380Y-44394380D01*
X40616333Y-44394380D01*
X64968333Y-39584380D02*
X64968333Y-40298666D01*
X65015952Y-40441523D01*
X65111190Y-40536761D01*
X65254047Y-40584380D01*
X65349285Y-40584380D01*
X64492142Y-40584380D02*
X64492142Y-39584380D01*
X64111190Y-39584380D01*
X64015952Y-39632000D01*
X63968333Y-39679619D01*
X63920714Y-39774857D01*
X63920714Y-39917714D01*
X63968333Y-40012952D01*
X64015952Y-40060571D01*
X64111190Y-40108190D01*
X64492142Y-40108190D01*
X63587380Y-39584380D02*
X62968333Y-39584380D01*
X63301666Y-39965333D01*
X63158809Y-39965333D01*
X63063571Y-40012952D01*
X63015952Y-40060571D01*
X62968333Y-40155809D01*
X62968333Y-40393904D01*
X63015952Y-40489142D01*
X63063571Y-40536761D01*
X63158809Y-40584380D01*
X63444523Y-40584380D01*
X63539761Y-40536761D01*
X63587380Y-40489142D01*
%LPC*%
D15*
X67056000Y-50457100D03*
X64516000Y-50457100D03*
X61976000Y-50457100D03*
X59436000Y-50457100D03*
X56896000Y-50457100D03*
X54356000Y-50457100D03*
X51816000Y-50457100D03*
X49276000Y-50457100D03*
X46736000Y-50457100D03*
X44196000Y-50457100D03*
X41656000Y-50457100D03*
X39116000Y-50457100D03*
X36576000Y-50457100D03*
D16*
X34036000Y-50457100D03*
D15*
X31496000Y-50457100D03*
X67056000Y-35217100D03*
X64516000Y-35217100D03*
X61976000Y-35217100D03*
X59436000Y-35217100D03*
X56896000Y-35217100D03*
X54356000Y-35217100D03*
X51816000Y-35217100D03*
X49276000Y-35217100D03*
X46736000Y-35217100D03*
X44196000Y-35217100D03*
X41656000Y-35217100D03*
D16*
X39116000Y-35217100D03*
D15*
X36576000Y-35217100D03*
X34036000Y-35217100D03*
X31496000Y-35217100D03*
D17*
X61624400Y-27355800D03*
X32224400Y-27355800D03*
X67224400Y-27355800D03*
X26624400Y-27355800D03*
D15*
X24521160Y-40815260D03*
X24521160Y-38275260D03*
X24521160Y-35735260D03*
D10*
G36*
X40931400Y-47566440D02*
G01*
X40931400Y-47066440D01*
X40932002Y-47066440D01*
X40932002Y-47041906D01*
X40936812Y-46993075D01*
X40946384Y-46944950D01*
X40960628Y-46897995D01*
X40979405Y-46852662D01*
X41002536Y-46809389D01*
X41029796Y-46768590D01*
X41060924Y-46730661D01*
X41095621Y-46695964D01*
X41133550Y-46664836D01*
X41174349Y-46637576D01*
X41217622Y-46614445D01*
X41262955Y-46595668D01*
X41309910Y-46581424D01*
X41358035Y-46571852D01*
X41406866Y-46567042D01*
X41431400Y-46567042D01*
X41431400Y-46566440D01*
X41931400Y-46566440D01*
X41931400Y-46567042D01*
X41955934Y-46567042D01*
X42004765Y-46571852D01*
X42052890Y-46581424D01*
X42099845Y-46595668D01*
X42145178Y-46614445D01*
X42188451Y-46637576D01*
X42229250Y-46664836D01*
X42267179Y-46695964D01*
X42301876Y-46730661D01*
X42333004Y-46768590D01*
X42360264Y-46809389D01*
X42383395Y-46852662D01*
X42402172Y-46897995D01*
X42416416Y-46944950D01*
X42425988Y-46993075D01*
X42430798Y-47041906D01*
X42430798Y-47066440D01*
X42431400Y-47066440D01*
X42431400Y-47566440D01*
X40931400Y-47566440D01*
G37*
G36*
X42430798Y-48366440D02*
G01*
X42430798Y-48390974D01*
X42425988Y-48439805D01*
X42416416Y-48487930D01*
X42402172Y-48534885D01*
X42383395Y-48580218D01*
X42360264Y-48623491D01*
X42333004Y-48664290D01*
X42301876Y-48702219D01*
X42267179Y-48736916D01*
X42229250Y-48768044D01*
X42188451Y-48795304D01*
X42145178Y-48818435D01*
X42099845Y-48837212D01*
X42052890Y-48851456D01*
X42004765Y-48861028D01*
X41955934Y-48865838D01*
X41931400Y-48865838D01*
X41931400Y-48866440D01*
X41431400Y-48866440D01*
X41431400Y-48865838D01*
X41406866Y-48865838D01*
X41358035Y-48861028D01*
X41309910Y-48851456D01*
X41262955Y-48837212D01*
X41217622Y-48818435D01*
X41174349Y-48795304D01*
X41133550Y-48768044D01*
X41095621Y-48736916D01*
X41060924Y-48702219D01*
X41029796Y-48664290D01*
X41002536Y-48623491D01*
X40979405Y-48580218D01*
X40960628Y-48534885D01*
X40946384Y-48487930D01*
X40936812Y-48439805D01*
X40932002Y-48390974D01*
X40932002Y-48366440D01*
X40931400Y-48366440D01*
X40931400Y-47866440D01*
X42431400Y-47866440D01*
X42431400Y-48366440D01*
X42430798Y-48366440D01*
G37*
D15*
X24528780Y-45892720D03*
D16*
X24528780Y-48432720D03*
D15*
X24528780Y-50972720D03*
X67063620Y-52984400D03*
X64523620Y-52984400D03*
X61983620Y-52984400D03*
X59443620Y-52984400D03*
X56903620Y-52984400D03*
X54363620Y-52984400D03*
X51823620Y-52984400D03*
X49283620Y-52984400D03*
X46743620Y-52984400D03*
X44203620Y-52984400D03*
X41663620Y-52984400D03*
X39123620Y-52984400D03*
X36583620Y-52984400D03*
X34043620Y-52984400D03*
X31503620Y-52984400D03*
D16*
X28963620Y-52984400D03*
X26423620Y-52984400D03*
D10*
G36*
X60591000Y-39855000D02*
G01*
X60591000Y-39355000D01*
X60591602Y-39355000D01*
X60591602Y-39330466D01*
X60596412Y-39281635D01*
X60605984Y-39233510D01*
X60620228Y-39186555D01*
X60639005Y-39141222D01*
X60662136Y-39097949D01*
X60689396Y-39057150D01*
X60720524Y-39019221D01*
X60755221Y-38984524D01*
X60793150Y-38953396D01*
X60833949Y-38926136D01*
X60877222Y-38903005D01*
X60922555Y-38884228D01*
X60969510Y-38869984D01*
X61017635Y-38860412D01*
X61066466Y-38855602D01*
X61091000Y-38855602D01*
X61091000Y-38855000D01*
X61591000Y-38855000D01*
X61591000Y-38855602D01*
X61615534Y-38855602D01*
X61664365Y-38860412D01*
X61712490Y-38869984D01*
X61759445Y-38884228D01*
X61804778Y-38903005D01*
X61848051Y-38926136D01*
X61888850Y-38953396D01*
X61926779Y-38984524D01*
X61961476Y-39019221D01*
X61992604Y-39057150D01*
X62019864Y-39097949D01*
X62042995Y-39141222D01*
X62061772Y-39186555D01*
X62076016Y-39233510D01*
X62085588Y-39281635D01*
X62090398Y-39330466D01*
X62090398Y-39355000D01*
X62091000Y-39355000D01*
X62091000Y-39855000D01*
X60591000Y-39855000D01*
G37*
G36*
X62090398Y-40655000D02*
G01*
X62090398Y-40679534D01*
X62085588Y-40728365D01*
X62076016Y-40776490D01*
X62061772Y-40823445D01*
X62042995Y-40868778D01*
X62019864Y-40912051D01*
X61992604Y-40952850D01*
X61961476Y-40990779D01*
X61926779Y-41025476D01*
X61888850Y-41056604D01*
X61848051Y-41083864D01*
X61804778Y-41106995D01*
X61759445Y-41125772D01*
X61712490Y-41140016D01*
X61664365Y-41149588D01*
X61615534Y-41154398D01*
X61591000Y-41154398D01*
X61591000Y-41155000D01*
X61091000Y-41155000D01*
X61091000Y-41154398D01*
X61066466Y-41154398D01*
X61017635Y-41149588D01*
X60969510Y-41140016D01*
X60922555Y-41125772D01*
X60877222Y-41106995D01*
X60833949Y-41083864D01*
X60793150Y-41056604D01*
X60755221Y-41025476D01*
X60720524Y-40990779D01*
X60689396Y-40952850D01*
X60662136Y-40912051D01*
X60639005Y-40868778D01*
X60620228Y-40823445D01*
X60605984Y-40776490D01*
X60596412Y-40728365D01*
X60591602Y-40679534D01*
X60591602Y-40655000D01*
X60591000Y-40655000D01*
X60591000Y-40155000D01*
X62091000Y-40155000D01*
X62091000Y-40655000D01*
X62090398Y-40655000D01*
G37*
M02*
