%FSLAX45Y45*%
G04 Gerber Fmt 4.5, Leading zero omitted, Abs format (unit mm)*
G04 Created by KiCad (PCBNEW 5.1.5+dfsg1-2build2) date 2021-06-16 02:42:30*
%MOMM*%
%LPD*%
G04 APERTURE LIST*
%TA.AperFunction,Profile*%
%ADD10C,0.100000*%
%TD*%
%ADD11C,0.200000*%
%ADD12C,0.300000*%
G04 APERTURE END LIST*
D10*
X2542948Y-2461260D02*
G75*
G03X2542948Y-2461260I-56796J0D01*
G01*
X6945276Y-2461260D02*
G75*
G03X6945276Y-2461260I-56796J0D01*
G01*
X2489200Y-5298440D02*
G75*
G03X2489200Y-5298440I-56796J0D01*
G01*
X2438400Y-2311400D02*
X6946900Y-2311400D01*
X2311400Y-5318760D02*
X2311400Y-2438400D01*
X6946900Y-5445760D02*
X2438400Y-5445760D01*
X7073900Y-2438400D02*
X7073900Y-5318760D01*
X7073900Y-5318760D02*
G75*
G02X6946900Y-5445760I-127000J0D01*
G01*
X2438400Y-5445760D02*
G75*
G02X2311400Y-5318760I0J127000D01*
G01*
X2311400Y-2438400D02*
G75*
G02X2438400Y-2311400I127000J0D01*
G01*
X6946900Y-2311400D02*
G75*
G02X7073900Y-2438400I0J-127000D01*
G01*
X6983376Y-5298440D02*
G75*
G03X6983376Y-5298440I-56796J0D01*
G01*
D11*
D12*
X2592828Y-5916474D02*
X2592828Y-5616474D01*
X2664257Y-5616474D01*
X2707114Y-5630760D01*
X2735686Y-5659331D01*
X2749971Y-5687903D01*
X2764257Y-5745046D01*
X2764257Y-5787903D01*
X2749971Y-5845046D01*
X2735686Y-5873617D01*
X2707114Y-5902189D01*
X2664257Y-5916474D01*
X2592828Y-5916474D01*
X2892828Y-5916474D02*
X2892828Y-5716474D01*
X2892828Y-5773617D02*
X2907114Y-5745046D01*
X2921400Y-5730760D01*
X2949971Y-5716474D01*
X2978543Y-5716474D01*
X3078543Y-5916474D02*
X3078543Y-5716474D01*
X3078543Y-5616474D02*
X3064257Y-5630760D01*
X3078543Y-5645046D01*
X3092828Y-5630760D01*
X3078543Y-5616474D01*
X3078543Y-5645046D01*
X3264257Y-5916474D02*
X3235686Y-5902189D01*
X3221400Y-5873617D01*
X3221400Y-5616474D01*
X3421400Y-5916474D02*
X3392828Y-5902189D01*
X3378543Y-5873617D01*
X3378543Y-5616474D01*
X3764257Y-5916474D02*
X3764257Y-5616474D01*
X3864257Y-5830760D01*
X3964257Y-5616474D01*
X3964257Y-5916474D01*
X4235686Y-5916474D02*
X4235686Y-5759331D01*
X4221400Y-5730760D01*
X4192828Y-5716474D01*
X4135686Y-5716474D01*
X4107114Y-5730760D01*
X4235686Y-5902189D02*
X4207114Y-5916474D01*
X4135686Y-5916474D01*
X4107114Y-5902189D01*
X4092828Y-5873617D01*
X4092828Y-5845046D01*
X4107114Y-5816474D01*
X4135686Y-5802189D01*
X4207114Y-5802189D01*
X4235686Y-5787903D01*
X4378543Y-5716474D02*
X4378543Y-6016474D01*
X4378543Y-5730760D02*
X4407114Y-5716474D01*
X4464257Y-5716474D01*
X4492828Y-5730760D01*
X4507114Y-5745046D01*
X4521400Y-5773617D01*
X4521400Y-5859331D01*
X4507114Y-5887903D01*
X4492828Y-5902189D01*
X4464257Y-5916474D01*
X4407114Y-5916474D01*
X4378543Y-5902189D01*
X4649971Y-5887903D02*
X4664257Y-5902189D01*
X4649971Y-5916474D01*
X4635686Y-5902189D01*
X4649971Y-5887903D01*
X4649971Y-5916474D01*
X4649971Y-5730760D02*
X4664257Y-5745046D01*
X4649971Y-5759331D01*
X4635686Y-5745046D01*
X4649971Y-5730760D01*
X4649971Y-5759331D01*
M02*
