%FSLAX45Y45*%
G04 Gerber Fmt 4.5, Leading zero omitted, Abs format (unit mm)*
G04 Created by KiCad (PCBNEW 5.1.5+dfsg1-2build2) date 2021-06-15 21:01:17*
%MOMM*%
%LPD*%
G04 APERTURE LIST*
%TA.AperFunction,Profile*%
%ADD10C,0.100000*%
%TD*%
%ADD11C,0.200000*%
%ADD12C,0.300000*%
G04 APERTURE END LIST*
D10*
X2542948Y-2461260D02*
G75*
G03X2542948Y-2461260I-56796J0D01*
G01*
X6945276Y-2461260D02*
G75*
G03X6945276Y-2461260I-56796J0D01*
G01*
X2489200Y-5298440D02*
G75*
G03X2489200Y-5298440I-56796J0D01*
G01*
X2438400Y-2311400D02*
X6946900Y-2311400D01*
X2311400Y-5318760D02*
X2311400Y-2438400D01*
X6946900Y-5445760D02*
X2438400Y-5445760D01*
X7073900Y-2438400D02*
X7073900Y-5318760D01*
X7073900Y-5318760D02*
G75*
G02X6946900Y-5445760I-127000J0D01*
G01*
X2438400Y-5445760D02*
G75*
G02X2311400Y-5318760I0J127000D01*
G01*
X2311400Y-2438400D02*
G75*
G02X2438400Y-2311400I127000J0D01*
G01*
X6946900Y-2311400D02*
G75*
G02X7073900Y-2438400I0J-127000D01*
G01*
X7016396Y-5298440D02*
G75*
G03X7016396Y-5298440I-56796J0D01*
G01*
D11*
X2787970Y-4169984D02*
X2827970Y-4209984D01*
X2827970Y-4169984D02*
X2787970Y-4209984D01*
X2871790Y-4169984D02*
X2911790Y-4209984D01*
X2911790Y-4169984D02*
X2871790Y-4209984D01*
X3013268Y-4171000D02*
X3053268Y-4211000D01*
X3053268Y-4171000D02*
X3013268Y-4211000D01*
X3098612Y-4170492D02*
X3138612Y-4210492D01*
X3138612Y-4170492D02*
X3098612Y-4210492D01*
X3249760Y-3980500D02*
X3289760Y-4020500D01*
X3289760Y-3980500D02*
X3249760Y-4020500D01*
X3249760Y-4298000D02*
X3289760Y-4338000D01*
X3289760Y-4298000D02*
X3249760Y-4338000D01*
X3421700Y-4126296D02*
X3461700Y-4166296D01*
X3461700Y-4126296D02*
X3421700Y-4166296D01*
X3557844Y-3994724D02*
X3597844Y-4034724D01*
X3597844Y-3994724D02*
X3557844Y-4034724D01*
X3557844Y-4568256D02*
X3597844Y-4608256D01*
X3597844Y-4568256D02*
X3557844Y-4608256D01*
X3713800Y-4171000D02*
X3753800Y-4211000D01*
X3753800Y-4171000D02*
X3713800Y-4211000D01*
X3942400Y-4171000D02*
X3982400Y-4211000D01*
X3982400Y-4171000D02*
X3942400Y-4211000D01*
X4171000Y-4171000D02*
X4211000Y-4211000D01*
X4211000Y-4171000D02*
X4171000Y-4211000D01*
X4399600Y-4171000D02*
X4439600Y-4211000D01*
X4439600Y-4171000D02*
X4399600Y-4211000D01*
X4450400Y-4653600D02*
X4490400Y-4693600D01*
X4490400Y-4653600D02*
X4450400Y-4693600D01*
X5021900Y-4171000D02*
X5061900Y-4211000D01*
X5061900Y-4171000D02*
X5021900Y-4211000D01*
X5148900Y-4171000D02*
X5188900Y-4211000D01*
X5188900Y-4171000D02*
X5148900Y-4211000D01*
X6076000Y-3802700D02*
X6116000Y-3842700D01*
X6116000Y-3802700D02*
X6076000Y-3842700D01*
X6076000Y-4158300D02*
X6116000Y-4198300D01*
X6116000Y-4158300D02*
X6076000Y-4198300D01*
X6152200Y-3802700D02*
X6192200Y-3842700D01*
X6192200Y-3802700D02*
X6152200Y-3842700D01*
X6152200Y-4158300D02*
X6192200Y-4198300D01*
X6192200Y-4158300D02*
X6152200Y-4198300D01*
X6507800Y-4488500D02*
X6547800Y-4528500D01*
X6547800Y-4488500D02*
X6507800Y-4528500D01*
X2502878Y-4589272D02*
G75*
G03X2502878Y-4589272I-50000J0D01*
G01*
X2502878Y-4843272D02*
G75*
G03X2502878Y-4843272I-50000J0D01*
G01*
X2502878Y-5097272D02*
G75*
G03X2502878Y-5097272I-50000J0D01*
G01*
X3199600Y-3521710D02*
G75*
G03X3199600Y-3521710I-50000J0D01*
G01*
X3453600Y-3521710D02*
G75*
G03X3453600Y-3521710I-50000J0D01*
G01*
X3707600Y-3521710D02*
G75*
G03X3707600Y-3521710I-50000J0D01*
G01*
X3961600Y-3521710D02*
G75*
G03X3961600Y-3521710I-50000J0D01*
G01*
X4215600Y-3521710D02*
G75*
G03X4215600Y-3521710I-50000J0D01*
G01*
X4469600Y-3521710D02*
G75*
G03X4469600Y-3521710I-50000J0D01*
G01*
X4723600Y-3521710D02*
G75*
G03X4723600Y-3521710I-50000J0D01*
G01*
X4977600Y-3521710D02*
G75*
G03X4977600Y-3521710I-50000J0D01*
G01*
X5231600Y-3521710D02*
G75*
G03X5231600Y-3521710I-50000J0D01*
G01*
X5485600Y-3521710D02*
G75*
G03X5485600Y-3521710I-50000J0D01*
G01*
X5739600Y-3521710D02*
G75*
G03X5739600Y-3521710I-50000J0D01*
G01*
X5993600Y-3521710D02*
G75*
G03X5993600Y-3521710I-50000J0D01*
G01*
X6247600Y-3521710D02*
G75*
G03X6247600Y-3521710I-50000J0D01*
G01*
X6501600Y-3521710D02*
G75*
G03X6501600Y-3521710I-50000J0D01*
G01*
X6755600Y-3521710D02*
G75*
G03X6755600Y-3521710I-50000J0D01*
G01*
X3199600Y-5045710D02*
G75*
G03X3199600Y-5045710I-50000J0D01*
G01*
X3453600Y-5045710D02*
G75*
G03X3453600Y-5045710I-50000J0D01*
G01*
X3707600Y-5045710D02*
G75*
G03X3707600Y-5045710I-50000J0D01*
G01*
X3961600Y-5045710D02*
G75*
G03X3961600Y-5045710I-50000J0D01*
G01*
X4215600Y-5045710D02*
G75*
G03X4215600Y-5045710I-50000J0D01*
G01*
X4469600Y-5045710D02*
G75*
G03X4469600Y-5045710I-50000J0D01*
G01*
X4723600Y-5045710D02*
G75*
G03X4723600Y-5045710I-50000J0D01*
G01*
X4977600Y-5045710D02*
G75*
G03X4977600Y-5045710I-50000J0D01*
G01*
X5231600Y-5045710D02*
G75*
G03X5231600Y-5045710I-50000J0D01*
G01*
X5485600Y-5045710D02*
G75*
G03X5485600Y-5045710I-50000J0D01*
G01*
X5739600Y-5045710D02*
G75*
G03X5739600Y-5045710I-50000J0D01*
G01*
X5993600Y-5045710D02*
G75*
G03X5993600Y-5045710I-50000J0D01*
G01*
X6247600Y-5045710D02*
G75*
G03X6247600Y-5045710I-50000J0D01*
G01*
X6501600Y-5045710D02*
G75*
G03X6501600Y-5045710I-50000J0D01*
G01*
X6755600Y-5045710D02*
G75*
G03X6755600Y-5045710I-50000J0D01*
G01*
X2502116Y-3573526D02*
G75*
G03X2502116Y-3573526I-50000J0D01*
G01*
X2502116Y-3827526D02*
G75*
G03X2502116Y-3827526I-50000J0D01*
G01*
X2502116Y-4081526D02*
G75*
G03X2502116Y-4081526I-50000J0D01*
G01*
X2692362Y-5298440D02*
G75*
G03X2692362Y-5298440I-50000J0D01*
G01*
X2946362Y-5298440D02*
G75*
G03X2946362Y-5298440I-50000J0D01*
G01*
X3200362Y-5298440D02*
G75*
G03X3200362Y-5298440I-50000J0D01*
G01*
X3454362Y-5298440D02*
G75*
G03X3454362Y-5298440I-50000J0D01*
G01*
X3708362Y-5298440D02*
G75*
G03X3708362Y-5298440I-50000J0D01*
G01*
X3962362Y-5298440D02*
G75*
G03X3962362Y-5298440I-50000J0D01*
G01*
X4216362Y-5298440D02*
G75*
G03X4216362Y-5298440I-50000J0D01*
G01*
X4470362Y-5298440D02*
G75*
G03X4470362Y-5298440I-50000J0D01*
G01*
X4724362Y-5298440D02*
G75*
G03X4724362Y-5298440I-50000J0D01*
G01*
X4978362Y-5298440D02*
G75*
G03X4978362Y-5298440I-50000J0D01*
G01*
X5232362Y-5298440D02*
G75*
G03X5232362Y-5298440I-50000J0D01*
G01*
X5486362Y-5298440D02*
G75*
G03X5486362Y-5298440I-50000J0D01*
G01*
X5740362Y-5298440D02*
G75*
G03X5740362Y-5298440I-50000J0D01*
G01*
X5994362Y-5298440D02*
G75*
G03X5994362Y-5298440I-50000J0D01*
G01*
X6248362Y-5298440D02*
G75*
G03X6248362Y-5298440I-50000J0D01*
G01*
X6502362Y-5298440D02*
G75*
G03X6502362Y-5298440I-50000J0D01*
G01*
X6756362Y-5298440D02*
G75*
G03X6756362Y-5298440I-50000J0D01*
G01*
X2562440Y-2643080D02*
X2562440Y-2828080D01*
X2469940Y-2735580D02*
X2654940Y-2735580D01*
X3322440Y-2643080D02*
X3322440Y-2828080D01*
X3229940Y-2735580D02*
X3414940Y-2735580D01*
X6062440Y-2643080D02*
X6062440Y-2828080D01*
X5969940Y-2735580D02*
X6154940Y-2735580D01*
X6822440Y-2643080D02*
X6822440Y-2828080D01*
X6729940Y-2735580D02*
X6914940Y-2735580D01*
D12*
X2592828Y-5916474D02*
X2592828Y-5616474D01*
X2664257Y-5616474D01*
X2707114Y-5630760D01*
X2735686Y-5659331D01*
X2749971Y-5687903D01*
X2764257Y-5745046D01*
X2764257Y-5787903D01*
X2749971Y-5845046D01*
X2735686Y-5873617D01*
X2707114Y-5902189D01*
X2664257Y-5916474D01*
X2592828Y-5916474D01*
X2892828Y-5916474D02*
X2892828Y-5716474D01*
X2892828Y-5773617D02*
X2907114Y-5745046D01*
X2921400Y-5730760D01*
X2949971Y-5716474D01*
X2978543Y-5716474D01*
X3078543Y-5916474D02*
X3078543Y-5716474D01*
X3078543Y-5616474D02*
X3064257Y-5630760D01*
X3078543Y-5645046D01*
X3092828Y-5630760D01*
X3078543Y-5616474D01*
X3078543Y-5645046D01*
X3264257Y-5916474D02*
X3235686Y-5902189D01*
X3221400Y-5873617D01*
X3221400Y-5616474D01*
X3421400Y-5916474D02*
X3392828Y-5902189D01*
X3378543Y-5873617D01*
X3378543Y-5616474D01*
X3764257Y-5916474D02*
X3764257Y-5616474D01*
X3864257Y-5830760D01*
X3964257Y-5616474D01*
X3964257Y-5916474D01*
X4235686Y-5916474D02*
X4235686Y-5759331D01*
X4221400Y-5730760D01*
X4192828Y-5716474D01*
X4135686Y-5716474D01*
X4107114Y-5730760D01*
X4235686Y-5902189D02*
X4207114Y-5916474D01*
X4135686Y-5916474D01*
X4107114Y-5902189D01*
X4092828Y-5873617D01*
X4092828Y-5845046D01*
X4107114Y-5816474D01*
X4135686Y-5802189D01*
X4207114Y-5802189D01*
X4235686Y-5787903D01*
X4378543Y-5716474D02*
X4378543Y-6016474D01*
X4378543Y-5730760D02*
X4407114Y-5716474D01*
X4464257Y-5716474D01*
X4492828Y-5730760D01*
X4507114Y-5745046D01*
X4521400Y-5773617D01*
X4521400Y-5859331D01*
X4507114Y-5887903D01*
X4492828Y-5902189D01*
X4464257Y-5916474D01*
X4407114Y-5916474D01*
X4378543Y-5902189D01*
X4649971Y-5887903D02*
X4664257Y-5902189D01*
X4649971Y-5916474D01*
X4635686Y-5902189D01*
X4649971Y-5887903D01*
X4649971Y-5916474D01*
X4649971Y-5730760D02*
X4664257Y-5745046D01*
X4649971Y-5759331D01*
X4635686Y-5745046D01*
X4649971Y-5730760D01*
X4649971Y-5759331D01*
X2266400Y-6390760D02*
X2306400Y-6430760D01*
X2306400Y-6390760D02*
X2266400Y-6430760D01*
X2649971Y-6246474D02*
X2678543Y-6246474D01*
X2707114Y-6260760D01*
X2721400Y-6275046D01*
X2735686Y-6303617D01*
X2749971Y-6360760D01*
X2749971Y-6432189D01*
X2735686Y-6489331D01*
X2721400Y-6517903D01*
X2707114Y-6532189D01*
X2678543Y-6546474D01*
X2649971Y-6546474D01*
X2621400Y-6532189D01*
X2607114Y-6517903D01*
X2592828Y-6489331D01*
X2578543Y-6432189D01*
X2578543Y-6360760D01*
X2592828Y-6303617D01*
X2607114Y-6275046D01*
X2621400Y-6260760D01*
X2649971Y-6246474D01*
X2878543Y-6517903D02*
X2892828Y-6532189D01*
X2878543Y-6546474D01*
X2864257Y-6532189D01*
X2878543Y-6517903D01*
X2878543Y-6546474D01*
X3149971Y-6346474D02*
X3149971Y-6546474D01*
X3078543Y-6232189D02*
X3007114Y-6446474D01*
X3192828Y-6446474D01*
X3364257Y-6246474D02*
X3392828Y-6246474D01*
X3421400Y-6260760D01*
X3435686Y-6275046D01*
X3449971Y-6303617D01*
X3464257Y-6360760D01*
X3464257Y-6432189D01*
X3449971Y-6489331D01*
X3435686Y-6517903D01*
X3421400Y-6532189D01*
X3392828Y-6546474D01*
X3364257Y-6546474D01*
X3335686Y-6532189D01*
X3321400Y-6517903D01*
X3307114Y-6489331D01*
X3292828Y-6432189D01*
X3292828Y-6360760D01*
X3307114Y-6303617D01*
X3321400Y-6275046D01*
X3335686Y-6260760D01*
X3364257Y-6246474D01*
X3592828Y-6546474D02*
X3592828Y-6346474D01*
X3592828Y-6375046D02*
X3607114Y-6360760D01*
X3635686Y-6346474D01*
X3678543Y-6346474D01*
X3707114Y-6360760D01*
X3721400Y-6389331D01*
X3721400Y-6546474D01*
X3721400Y-6389331D02*
X3735686Y-6360760D01*
X3764257Y-6346474D01*
X3807114Y-6346474D01*
X3835686Y-6360760D01*
X3849971Y-6389331D01*
X3849971Y-6546474D01*
X3992828Y-6546474D02*
X3992828Y-6346474D01*
X3992828Y-6375046D02*
X4007114Y-6360760D01*
X4035686Y-6346474D01*
X4078543Y-6346474D01*
X4107114Y-6360760D01*
X4121400Y-6389331D01*
X4121400Y-6546474D01*
X4121400Y-6389331D02*
X4135686Y-6360760D01*
X4164257Y-6346474D01*
X4207114Y-6346474D01*
X4235686Y-6360760D01*
X4249971Y-6389331D01*
X4249971Y-6546474D01*
X4835686Y-6232189D02*
X4578543Y-6617903D01*
X5221400Y-6246474D02*
X5249971Y-6246474D01*
X5278543Y-6260760D01*
X5292828Y-6275046D01*
X5307114Y-6303617D01*
X5321400Y-6360760D01*
X5321400Y-6432189D01*
X5307114Y-6489331D01*
X5292828Y-6517903D01*
X5278543Y-6532189D01*
X5249971Y-6546474D01*
X5221400Y-6546474D01*
X5192828Y-6532189D01*
X5178543Y-6517903D01*
X5164257Y-6489331D01*
X5149971Y-6432189D01*
X5149971Y-6360760D01*
X5164257Y-6303617D01*
X5178543Y-6275046D01*
X5192828Y-6260760D01*
X5221400Y-6246474D01*
X5449971Y-6517903D02*
X5464257Y-6532189D01*
X5449971Y-6546474D01*
X5435686Y-6532189D01*
X5449971Y-6517903D01*
X5449971Y-6546474D01*
X5649971Y-6246474D02*
X5678543Y-6246474D01*
X5707114Y-6260760D01*
X5721400Y-6275046D01*
X5735686Y-6303617D01*
X5749971Y-6360760D01*
X5749971Y-6432189D01*
X5735686Y-6489331D01*
X5721400Y-6517903D01*
X5707114Y-6532189D01*
X5678543Y-6546474D01*
X5649971Y-6546474D01*
X5621400Y-6532189D01*
X5607114Y-6517903D01*
X5592828Y-6489331D01*
X5578543Y-6432189D01*
X5578543Y-6360760D01*
X5592828Y-6303617D01*
X5607114Y-6275046D01*
X5621400Y-6260760D01*
X5649971Y-6246474D01*
X6035686Y-6546474D02*
X5864257Y-6546474D01*
X5949971Y-6546474D02*
X5949971Y-6246474D01*
X5921400Y-6289331D01*
X5892828Y-6317903D01*
X5864257Y-6332189D01*
X6292828Y-6246474D02*
X6235686Y-6246474D01*
X6207114Y-6260760D01*
X6192828Y-6275046D01*
X6164257Y-6317903D01*
X6149971Y-6375046D01*
X6149971Y-6489331D01*
X6164257Y-6517903D01*
X6178543Y-6532189D01*
X6207114Y-6546474D01*
X6264257Y-6546474D01*
X6292828Y-6532189D01*
X6307114Y-6517903D01*
X6321400Y-6489331D01*
X6321400Y-6417903D01*
X6307114Y-6389331D01*
X6292828Y-6375046D01*
X6264257Y-6360760D01*
X6207114Y-6360760D01*
X6178543Y-6375046D01*
X6164257Y-6389331D01*
X6149971Y-6417903D01*
X6435686Y-6246474D02*
X6435686Y-6303617D01*
X6549971Y-6246474D02*
X6549971Y-6303617D01*
X6992828Y-6660760D02*
X6978543Y-6646474D01*
X6949971Y-6603617D01*
X6935686Y-6575046D01*
X6921400Y-6532189D01*
X6907114Y-6460760D01*
X6907114Y-6403617D01*
X6921400Y-6332189D01*
X6935686Y-6289331D01*
X6949971Y-6260760D01*
X6978543Y-6217903D01*
X6992828Y-6203617D01*
X7092828Y-6275046D02*
X7107114Y-6260760D01*
X7135686Y-6246474D01*
X7207114Y-6246474D01*
X7235686Y-6260760D01*
X7249971Y-6275046D01*
X7264257Y-6303617D01*
X7264257Y-6332189D01*
X7249971Y-6375046D01*
X7078543Y-6546474D01*
X7264257Y-6546474D01*
X7549971Y-6546474D02*
X7378543Y-6546474D01*
X7464257Y-6546474D02*
X7464257Y-6246474D01*
X7435686Y-6289331D01*
X7407114Y-6317903D01*
X7378543Y-6332189D01*
X7907114Y-6546474D02*
X7907114Y-6246474D01*
X8035686Y-6546474D02*
X8035686Y-6389331D01*
X8021400Y-6360760D01*
X7992828Y-6346474D01*
X7949971Y-6346474D01*
X7921400Y-6360760D01*
X7907114Y-6375046D01*
X8221400Y-6546474D02*
X8192828Y-6532189D01*
X8178543Y-6517903D01*
X8164257Y-6489331D01*
X8164257Y-6403617D01*
X8178543Y-6375046D01*
X8192828Y-6360760D01*
X8221400Y-6346474D01*
X8264257Y-6346474D01*
X8292828Y-6360760D01*
X8307114Y-6375046D01*
X8321400Y-6403617D01*
X8321400Y-6489331D01*
X8307114Y-6517903D01*
X8292828Y-6532189D01*
X8264257Y-6546474D01*
X8221400Y-6546474D01*
X8492828Y-6546474D02*
X8464257Y-6532189D01*
X8449971Y-6503617D01*
X8449971Y-6246474D01*
X8721400Y-6532189D02*
X8692828Y-6546474D01*
X8635686Y-6546474D01*
X8607114Y-6532189D01*
X8592828Y-6503617D01*
X8592828Y-6389331D01*
X8607114Y-6360760D01*
X8635686Y-6346474D01*
X8692828Y-6346474D01*
X8721400Y-6360760D01*
X8735686Y-6389331D01*
X8735686Y-6417903D01*
X8592828Y-6446474D01*
X8849971Y-6532189D02*
X8878543Y-6546474D01*
X8935686Y-6546474D01*
X8964257Y-6532189D01*
X8978543Y-6503617D01*
X8978543Y-6489331D01*
X8964257Y-6460760D01*
X8935686Y-6446474D01*
X8892828Y-6446474D01*
X8864257Y-6432189D01*
X8849971Y-6403617D01*
X8849971Y-6389331D01*
X8864257Y-6360760D01*
X8892828Y-6346474D01*
X8935686Y-6346474D01*
X8964257Y-6360760D01*
X9078543Y-6660760D02*
X9092828Y-6646474D01*
X9121400Y-6603617D01*
X9135686Y-6575046D01*
X9149971Y-6532189D01*
X9164257Y-6460760D01*
X9164257Y-6403617D01*
X9149971Y-6332189D01*
X9135686Y-6289331D01*
X9121400Y-6260760D01*
X9092828Y-6217903D01*
X9078543Y-6203617D01*
X2306400Y-6806760D02*
G75*
G03X2306400Y-6806760I-50000J0D01*
G01*
X2749971Y-6942474D02*
X2578543Y-6942474D01*
X2664257Y-6942474D02*
X2664257Y-6642474D01*
X2635686Y-6685331D01*
X2607114Y-6713903D01*
X2578543Y-6728189D01*
X2878543Y-6913903D02*
X2892828Y-6928189D01*
X2878543Y-6942474D01*
X2864257Y-6928189D01*
X2878543Y-6913903D01*
X2878543Y-6942474D01*
X3078543Y-6642474D02*
X3107114Y-6642474D01*
X3135686Y-6656760D01*
X3149971Y-6671046D01*
X3164257Y-6699617D01*
X3178543Y-6756760D01*
X3178543Y-6828189D01*
X3164257Y-6885331D01*
X3149971Y-6913903D01*
X3135686Y-6928189D01*
X3107114Y-6942474D01*
X3078543Y-6942474D01*
X3049971Y-6928189D01*
X3035686Y-6913903D01*
X3021400Y-6885331D01*
X3007114Y-6828189D01*
X3007114Y-6756760D01*
X3021400Y-6699617D01*
X3035686Y-6671046D01*
X3049971Y-6656760D01*
X3078543Y-6642474D01*
X3364257Y-6642474D02*
X3392828Y-6642474D01*
X3421400Y-6656760D01*
X3435686Y-6671046D01*
X3449971Y-6699617D01*
X3464257Y-6756760D01*
X3464257Y-6828189D01*
X3449971Y-6885331D01*
X3435686Y-6913903D01*
X3421400Y-6928189D01*
X3392828Y-6942474D01*
X3364257Y-6942474D01*
X3335686Y-6928189D01*
X3321400Y-6913903D01*
X3307114Y-6885331D01*
X3292828Y-6828189D01*
X3292828Y-6756760D01*
X3307114Y-6699617D01*
X3321400Y-6671046D01*
X3335686Y-6656760D01*
X3364257Y-6642474D01*
X3592828Y-6942474D02*
X3592828Y-6742474D01*
X3592828Y-6771046D02*
X3607114Y-6756760D01*
X3635686Y-6742474D01*
X3678543Y-6742474D01*
X3707114Y-6756760D01*
X3721400Y-6785331D01*
X3721400Y-6942474D01*
X3721400Y-6785331D02*
X3735686Y-6756760D01*
X3764257Y-6742474D01*
X3807114Y-6742474D01*
X3835686Y-6756760D01*
X3849971Y-6785331D01*
X3849971Y-6942474D01*
X3992828Y-6942474D02*
X3992828Y-6742474D01*
X3992828Y-6771046D02*
X4007114Y-6756760D01*
X4035686Y-6742474D01*
X4078543Y-6742474D01*
X4107114Y-6756760D01*
X4121400Y-6785331D01*
X4121400Y-6942474D01*
X4121400Y-6785331D02*
X4135686Y-6756760D01*
X4164257Y-6742474D01*
X4207114Y-6742474D01*
X4235686Y-6756760D01*
X4249971Y-6785331D01*
X4249971Y-6942474D01*
X4835686Y-6628189D02*
X4578543Y-7013903D01*
X5221400Y-6642474D02*
X5249971Y-6642474D01*
X5278543Y-6656760D01*
X5292828Y-6671046D01*
X5307114Y-6699617D01*
X5321400Y-6756760D01*
X5321400Y-6828189D01*
X5307114Y-6885331D01*
X5292828Y-6913903D01*
X5278543Y-6928189D01*
X5249971Y-6942474D01*
X5221400Y-6942474D01*
X5192828Y-6928189D01*
X5178543Y-6913903D01*
X5164257Y-6885331D01*
X5149971Y-6828189D01*
X5149971Y-6756760D01*
X5164257Y-6699617D01*
X5178543Y-6671046D01*
X5192828Y-6656760D01*
X5221400Y-6642474D01*
X5449971Y-6913903D02*
X5464257Y-6928189D01*
X5449971Y-6942474D01*
X5435686Y-6928189D01*
X5449971Y-6913903D01*
X5449971Y-6942474D01*
X5649971Y-6642474D02*
X5678543Y-6642474D01*
X5707114Y-6656760D01*
X5721400Y-6671046D01*
X5735686Y-6699617D01*
X5749971Y-6756760D01*
X5749971Y-6828189D01*
X5735686Y-6885331D01*
X5721400Y-6913903D01*
X5707114Y-6928189D01*
X5678543Y-6942474D01*
X5649971Y-6942474D01*
X5621400Y-6928189D01*
X5607114Y-6913903D01*
X5592828Y-6885331D01*
X5578543Y-6828189D01*
X5578543Y-6756760D01*
X5592828Y-6699617D01*
X5607114Y-6671046D01*
X5621400Y-6656760D01*
X5649971Y-6642474D01*
X5849971Y-6642474D02*
X6035686Y-6642474D01*
X5935686Y-6756760D01*
X5978543Y-6756760D01*
X6007114Y-6771046D01*
X6021400Y-6785331D01*
X6035686Y-6813903D01*
X6035686Y-6885331D01*
X6021400Y-6913903D01*
X6007114Y-6928189D01*
X5978543Y-6942474D01*
X5892828Y-6942474D01*
X5864257Y-6928189D01*
X5849971Y-6913903D01*
X6178543Y-6942474D02*
X6235686Y-6942474D01*
X6264257Y-6928189D01*
X6278543Y-6913903D01*
X6307114Y-6871046D01*
X6321400Y-6813903D01*
X6321400Y-6699617D01*
X6307114Y-6671046D01*
X6292828Y-6656760D01*
X6264257Y-6642474D01*
X6207114Y-6642474D01*
X6178543Y-6656760D01*
X6164257Y-6671046D01*
X6149971Y-6699617D01*
X6149971Y-6771046D01*
X6164257Y-6799617D01*
X6178543Y-6813903D01*
X6207114Y-6828189D01*
X6264257Y-6828189D01*
X6292828Y-6813903D01*
X6307114Y-6799617D01*
X6321400Y-6771046D01*
X6435686Y-6642474D02*
X6435686Y-6699617D01*
X6549971Y-6642474D02*
X6549971Y-6699617D01*
X6992828Y-7056760D02*
X6978543Y-7042474D01*
X6949971Y-6999617D01*
X6935686Y-6971046D01*
X6921400Y-6928189D01*
X6907114Y-6856760D01*
X6907114Y-6799617D01*
X6921400Y-6728189D01*
X6935686Y-6685331D01*
X6949971Y-6656760D01*
X6978543Y-6613903D01*
X6992828Y-6599617D01*
X7249971Y-6642474D02*
X7107114Y-6642474D01*
X7092828Y-6785331D01*
X7107114Y-6771046D01*
X7135686Y-6756760D01*
X7207114Y-6756760D01*
X7235686Y-6771046D01*
X7249971Y-6785331D01*
X7264257Y-6813903D01*
X7264257Y-6885331D01*
X7249971Y-6913903D01*
X7235686Y-6928189D01*
X7207114Y-6942474D01*
X7135686Y-6942474D01*
X7107114Y-6928189D01*
X7092828Y-6913903D01*
X7364257Y-6642474D02*
X7549971Y-6642474D01*
X7449971Y-6756760D01*
X7492828Y-6756760D01*
X7521400Y-6771046D01*
X7535686Y-6785331D01*
X7549971Y-6813903D01*
X7549971Y-6885331D01*
X7535686Y-6913903D01*
X7521400Y-6928189D01*
X7492828Y-6942474D01*
X7407114Y-6942474D01*
X7378543Y-6928189D01*
X7364257Y-6913903D01*
X7907114Y-6942474D02*
X7907114Y-6642474D01*
X8035686Y-6942474D02*
X8035686Y-6785331D01*
X8021400Y-6756760D01*
X7992828Y-6742474D01*
X7949971Y-6742474D01*
X7921400Y-6756760D01*
X7907114Y-6771046D01*
X8221400Y-6942474D02*
X8192828Y-6928189D01*
X8178543Y-6913903D01*
X8164257Y-6885331D01*
X8164257Y-6799617D01*
X8178543Y-6771046D01*
X8192828Y-6756760D01*
X8221400Y-6742474D01*
X8264257Y-6742474D01*
X8292828Y-6756760D01*
X8307114Y-6771046D01*
X8321400Y-6799617D01*
X8321400Y-6885331D01*
X8307114Y-6913903D01*
X8292828Y-6928189D01*
X8264257Y-6942474D01*
X8221400Y-6942474D01*
X8492828Y-6942474D02*
X8464257Y-6928189D01*
X8449971Y-6899617D01*
X8449971Y-6642474D01*
X8721400Y-6928189D02*
X8692828Y-6942474D01*
X8635686Y-6942474D01*
X8607114Y-6928189D01*
X8592828Y-6899617D01*
X8592828Y-6785331D01*
X8607114Y-6756760D01*
X8635686Y-6742474D01*
X8692828Y-6742474D01*
X8721400Y-6756760D01*
X8735686Y-6785331D01*
X8735686Y-6813903D01*
X8592828Y-6842474D01*
X8849971Y-6928189D02*
X8878543Y-6942474D01*
X8935686Y-6942474D01*
X8964257Y-6928189D01*
X8978543Y-6899617D01*
X8978543Y-6885331D01*
X8964257Y-6856760D01*
X8935686Y-6842474D01*
X8892828Y-6842474D01*
X8864257Y-6828189D01*
X8849971Y-6799617D01*
X8849971Y-6785331D01*
X8864257Y-6756760D01*
X8892828Y-6742474D01*
X8935686Y-6742474D01*
X8964257Y-6756760D01*
X9078543Y-7056760D02*
X9092828Y-7042474D01*
X9121400Y-6999617D01*
X9135686Y-6971046D01*
X9149971Y-6928189D01*
X9164257Y-6856760D01*
X9164257Y-6799617D01*
X9149971Y-6728189D01*
X9135686Y-6685331D01*
X9121400Y-6656760D01*
X9092828Y-6613903D01*
X9078543Y-6599617D01*
X2213900Y-7110260D02*
X2213900Y-7295260D01*
X2121400Y-7202760D02*
X2306400Y-7202760D01*
X2749971Y-7338474D02*
X2578543Y-7338474D01*
X2664257Y-7338474D02*
X2664257Y-7038474D01*
X2635686Y-7081331D01*
X2607114Y-7109903D01*
X2578543Y-7124189D01*
X2878543Y-7309903D02*
X2892828Y-7324189D01*
X2878543Y-7338474D01*
X2864257Y-7324189D01*
X2878543Y-7309903D01*
X2878543Y-7338474D01*
X3064257Y-7167046D02*
X3035686Y-7152760D01*
X3021400Y-7138474D01*
X3007114Y-7109903D01*
X3007114Y-7095617D01*
X3021400Y-7067046D01*
X3035686Y-7052760D01*
X3064257Y-7038474D01*
X3121400Y-7038474D01*
X3149971Y-7052760D01*
X3164257Y-7067046D01*
X3178543Y-7095617D01*
X3178543Y-7109903D01*
X3164257Y-7138474D01*
X3149971Y-7152760D01*
X3121400Y-7167046D01*
X3064257Y-7167046D01*
X3035686Y-7181331D01*
X3021400Y-7195617D01*
X3007114Y-7224189D01*
X3007114Y-7281331D01*
X3021400Y-7309903D01*
X3035686Y-7324189D01*
X3064257Y-7338474D01*
X3121400Y-7338474D01*
X3149971Y-7324189D01*
X3164257Y-7309903D01*
X3178543Y-7281331D01*
X3178543Y-7224189D01*
X3164257Y-7195617D01*
X3149971Y-7181331D01*
X3121400Y-7167046D01*
X3449971Y-7038474D02*
X3307114Y-7038474D01*
X3292828Y-7181331D01*
X3307114Y-7167046D01*
X3335686Y-7152760D01*
X3407114Y-7152760D01*
X3435686Y-7167046D01*
X3449971Y-7181331D01*
X3464257Y-7209903D01*
X3464257Y-7281331D01*
X3449971Y-7309903D01*
X3435686Y-7324189D01*
X3407114Y-7338474D01*
X3335686Y-7338474D01*
X3307114Y-7324189D01*
X3292828Y-7309903D01*
X3592828Y-7338474D02*
X3592828Y-7138474D01*
X3592828Y-7167046D02*
X3607114Y-7152760D01*
X3635686Y-7138474D01*
X3678543Y-7138474D01*
X3707114Y-7152760D01*
X3721400Y-7181331D01*
X3721400Y-7338474D01*
X3721400Y-7181331D02*
X3735686Y-7152760D01*
X3764257Y-7138474D01*
X3807114Y-7138474D01*
X3835686Y-7152760D01*
X3849971Y-7181331D01*
X3849971Y-7338474D01*
X3992828Y-7338474D02*
X3992828Y-7138474D01*
X3992828Y-7167046D02*
X4007114Y-7152760D01*
X4035686Y-7138474D01*
X4078543Y-7138474D01*
X4107114Y-7152760D01*
X4121400Y-7181331D01*
X4121400Y-7338474D01*
X4121400Y-7181331D02*
X4135686Y-7152760D01*
X4164257Y-7138474D01*
X4207114Y-7138474D01*
X4235686Y-7152760D01*
X4249971Y-7181331D01*
X4249971Y-7338474D01*
X4835686Y-7024189D02*
X4578543Y-7409903D01*
X5221400Y-7038474D02*
X5249971Y-7038474D01*
X5278543Y-7052760D01*
X5292828Y-7067046D01*
X5307114Y-7095617D01*
X5321400Y-7152760D01*
X5321400Y-7224189D01*
X5307114Y-7281331D01*
X5292828Y-7309903D01*
X5278543Y-7324189D01*
X5249971Y-7338474D01*
X5221400Y-7338474D01*
X5192828Y-7324189D01*
X5178543Y-7309903D01*
X5164257Y-7281331D01*
X5149971Y-7224189D01*
X5149971Y-7152760D01*
X5164257Y-7095617D01*
X5178543Y-7067046D01*
X5192828Y-7052760D01*
X5221400Y-7038474D01*
X5449971Y-7309903D02*
X5464257Y-7324189D01*
X5449971Y-7338474D01*
X5435686Y-7324189D01*
X5449971Y-7309903D01*
X5449971Y-7338474D01*
X5649971Y-7038474D02*
X5678543Y-7038474D01*
X5707114Y-7052760D01*
X5721400Y-7067046D01*
X5735686Y-7095617D01*
X5749971Y-7152760D01*
X5749971Y-7224189D01*
X5735686Y-7281331D01*
X5721400Y-7309903D01*
X5707114Y-7324189D01*
X5678543Y-7338474D01*
X5649971Y-7338474D01*
X5621400Y-7324189D01*
X5607114Y-7309903D01*
X5592828Y-7281331D01*
X5578543Y-7224189D01*
X5578543Y-7152760D01*
X5592828Y-7095617D01*
X5607114Y-7067046D01*
X5621400Y-7052760D01*
X5649971Y-7038474D01*
X5849971Y-7038474D02*
X6049971Y-7038474D01*
X5921400Y-7338474D01*
X6135686Y-7038474D02*
X6321400Y-7038474D01*
X6221400Y-7152760D01*
X6264257Y-7152760D01*
X6292828Y-7167046D01*
X6307114Y-7181331D01*
X6321400Y-7209903D01*
X6321400Y-7281331D01*
X6307114Y-7309903D01*
X6292828Y-7324189D01*
X6264257Y-7338474D01*
X6178543Y-7338474D01*
X6149971Y-7324189D01*
X6135686Y-7309903D01*
X6435686Y-7038474D02*
X6435686Y-7095617D01*
X6549971Y-7038474D02*
X6549971Y-7095617D01*
X6992828Y-7452760D02*
X6978543Y-7438474D01*
X6949971Y-7395617D01*
X6935686Y-7367046D01*
X6921400Y-7324189D01*
X6907114Y-7252760D01*
X6907114Y-7195617D01*
X6921400Y-7124189D01*
X6935686Y-7081331D01*
X6949971Y-7052760D01*
X6978543Y-7009903D01*
X6992828Y-6995617D01*
X7235686Y-7138474D02*
X7235686Y-7338474D01*
X7164257Y-7024189D02*
X7092828Y-7238474D01*
X7278543Y-7238474D01*
X7621400Y-7338474D02*
X7621400Y-7038474D01*
X7749971Y-7338474D02*
X7749971Y-7181331D01*
X7735686Y-7152760D01*
X7707114Y-7138474D01*
X7664257Y-7138474D01*
X7635686Y-7152760D01*
X7621400Y-7167046D01*
X7935686Y-7338474D02*
X7907114Y-7324189D01*
X7892828Y-7309903D01*
X7878543Y-7281331D01*
X7878543Y-7195617D01*
X7892828Y-7167046D01*
X7907114Y-7152760D01*
X7935686Y-7138474D01*
X7978543Y-7138474D01*
X8007114Y-7152760D01*
X8021400Y-7167046D01*
X8035686Y-7195617D01*
X8035686Y-7281331D01*
X8021400Y-7309903D01*
X8007114Y-7324189D01*
X7978543Y-7338474D01*
X7935686Y-7338474D01*
X8207114Y-7338474D02*
X8178543Y-7324189D01*
X8164257Y-7295617D01*
X8164257Y-7038474D01*
X8435686Y-7324189D02*
X8407114Y-7338474D01*
X8349971Y-7338474D01*
X8321400Y-7324189D01*
X8307114Y-7295617D01*
X8307114Y-7181331D01*
X8321400Y-7152760D01*
X8349971Y-7138474D01*
X8407114Y-7138474D01*
X8435686Y-7152760D01*
X8449971Y-7181331D01*
X8449971Y-7209903D01*
X8307114Y-7238474D01*
X8564257Y-7324189D02*
X8592828Y-7338474D01*
X8649971Y-7338474D01*
X8678543Y-7324189D01*
X8692828Y-7295617D01*
X8692828Y-7281331D01*
X8678543Y-7252760D01*
X8649971Y-7238474D01*
X8607114Y-7238474D01*
X8578543Y-7224189D01*
X8564257Y-7195617D01*
X8564257Y-7181331D01*
X8578543Y-7152760D01*
X8607114Y-7138474D01*
X8649971Y-7138474D01*
X8678543Y-7152760D01*
X8792828Y-7452760D02*
X8807114Y-7438474D01*
X8835686Y-7395617D01*
X8849971Y-7367046D01*
X8864257Y-7324189D01*
X8878543Y-7252760D01*
X8878543Y-7195617D01*
X8864257Y-7124189D01*
X8849971Y-7081331D01*
X8835686Y-7052760D01*
X8807114Y-7009903D01*
X8792828Y-6995617D01*
M02*
