G04 #@! TF.GenerationSoftware,KiCad,Pcbnew,5.1.5+dfsg1-2build2*
G04 #@! TF.CreationDate,2021-06-15T21:01:14+02:00*
G04 #@! TF.ProjectId,circuit9,63697263-7569-4743-992e-6b696361645f,rev?*
G04 #@! TF.SameCoordinates,Original*
G04 #@! TF.FileFunction,Copper,L2,Bot*
G04 #@! TF.FilePolarity,Positive*
%FSLAX46Y46*%
G04 Gerber Fmt 4.6, Leading zero omitted, Abs format (unit mm)*
G04 Created by KiCad (PCBNEW 5.1.5+dfsg1-2build2) date 2021-06-15 21:01:14*
%MOMM*%
%LPD*%
G04 APERTURE LIST*
%ADD10O,1.700000X1.700000*%
%ADD11R,1.700000X1.700000*%
%ADD12R,6.000000X3.000000*%
%ADD13C,0.100000*%
%ADD14C,0.800000*%
%ADD15C,0.250000*%
%ADD16C,0.800000*%
%ADD17C,0.254000*%
G04 APERTURE END LIST*
D10*
X67056000Y-50457100D03*
X64516000Y-50457100D03*
X61976000Y-50457100D03*
X59436000Y-50457100D03*
X56896000Y-50457100D03*
X54356000Y-50457100D03*
X51816000Y-50457100D03*
X49276000Y-50457100D03*
X46736000Y-50457100D03*
X44196000Y-50457100D03*
X41656000Y-50457100D03*
X39116000Y-50457100D03*
X36576000Y-50457100D03*
D11*
X34036000Y-50457100D03*
D10*
X31496000Y-50457100D03*
X67056000Y-35217100D03*
X64516000Y-35217100D03*
X61976000Y-35217100D03*
X59436000Y-35217100D03*
X56896000Y-35217100D03*
X54356000Y-35217100D03*
X51816000Y-35217100D03*
X49276000Y-35217100D03*
X46736000Y-35217100D03*
X44196000Y-35217100D03*
X41656000Y-35217100D03*
D11*
X39116000Y-35217100D03*
D10*
X36576000Y-35217100D03*
X34036000Y-35217100D03*
X31496000Y-35217100D03*
D12*
X61624400Y-27355800D03*
X32224400Y-27355800D03*
X67224400Y-27355800D03*
X26624400Y-27355800D03*
D10*
X24521160Y-40815260D03*
X24521160Y-38275260D03*
X24521160Y-35735260D03*
G04 #@! TA.AperFunction,SMDPad,CuDef*
D13*
G36*
X40931400Y-47566440D02*
G01*
X40931400Y-47066440D01*
X40932002Y-47066440D01*
X40932002Y-47041906D01*
X40936812Y-46993075D01*
X40946384Y-46944950D01*
X40960628Y-46897995D01*
X40979405Y-46852662D01*
X41002536Y-46809389D01*
X41029796Y-46768590D01*
X41060924Y-46730661D01*
X41095621Y-46695964D01*
X41133550Y-46664836D01*
X41174349Y-46637576D01*
X41217622Y-46614445D01*
X41262955Y-46595668D01*
X41309910Y-46581424D01*
X41358035Y-46571852D01*
X41406866Y-46567042D01*
X41431400Y-46567042D01*
X41431400Y-46566440D01*
X41931400Y-46566440D01*
X41931400Y-46567042D01*
X41955934Y-46567042D01*
X42004765Y-46571852D01*
X42052890Y-46581424D01*
X42099845Y-46595668D01*
X42145178Y-46614445D01*
X42188451Y-46637576D01*
X42229250Y-46664836D01*
X42267179Y-46695964D01*
X42301876Y-46730661D01*
X42333004Y-46768590D01*
X42360264Y-46809389D01*
X42383395Y-46852662D01*
X42402172Y-46897995D01*
X42416416Y-46944950D01*
X42425988Y-46993075D01*
X42430798Y-47041906D01*
X42430798Y-47066440D01*
X42431400Y-47066440D01*
X42431400Y-47566440D01*
X40931400Y-47566440D01*
G37*
G04 #@! TD.AperFunction*
G04 #@! TA.AperFunction,SMDPad,CuDef*
G36*
X42430798Y-48366440D02*
G01*
X42430798Y-48390974D01*
X42425988Y-48439805D01*
X42416416Y-48487930D01*
X42402172Y-48534885D01*
X42383395Y-48580218D01*
X42360264Y-48623491D01*
X42333004Y-48664290D01*
X42301876Y-48702219D01*
X42267179Y-48736916D01*
X42229250Y-48768044D01*
X42188451Y-48795304D01*
X42145178Y-48818435D01*
X42099845Y-48837212D01*
X42052890Y-48851456D01*
X42004765Y-48861028D01*
X41955934Y-48865838D01*
X41931400Y-48865838D01*
X41931400Y-48866440D01*
X41431400Y-48866440D01*
X41431400Y-48865838D01*
X41406866Y-48865838D01*
X41358035Y-48861028D01*
X41309910Y-48851456D01*
X41262955Y-48837212D01*
X41217622Y-48818435D01*
X41174349Y-48795304D01*
X41133550Y-48768044D01*
X41095621Y-48736916D01*
X41060924Y-48702219D01*
X41029796Y-48664290D01*
X41002536Y-48623491D01*
X40979405Y-48580218D01*
X40960628Y-48534885D01*
X40946384Y-48487930D01*
X40936812Y-48439805D01*
X40932002Y-48390974D01*
X40932002Y-48366440D01*
X40931400Y-48366440D01*
X40931400Y-47866440D01*
X42431400Y-47866440D01*
X42431400Y-48366440D01*
X42430798Y-48366440D01*
G37*
G04 #@! TD.AperFunction*
D10*
X24528780Y-45892720D03*
D11*
X24528780Y-48432720D03*
D10*
X24528780Y-50972720D03*
X67063620Y-52984400D03*
X64523620Y-52984400D03*
X61983620Y-52984400D03*
X59443620Y-52984400D03*
X56903620Y-52984400D03*
X54363620Y-52984400D03*
X51823620Y-52984400D03*
X49283620Y-52984400D03*
X46743620Y-52984400D03*
X44203620Y-52984400D03*
X41663620Y-52984400D03*
X39123620Y-52984400D03*
X36583620Y-52984400D03*
X34043620Y-52984400D03*
X31503620Y-52984400D03*
D11*
X28963620Y-52984400D03*
X26423620Y-52984400D03*
G04 #@! TA.AperFunction,SMDPad,CuDef*
D13*
G36*
X60591000Y-39855000D02*
G01*
X60591000Y-39355000D01*
X60591602Y-39355000D01*
X60591602Y-39330466D01*
X60596412Y-39281635D01*
X60605984Y-39233510D01*
X60620228Y-39186555D01*
X60639005Y-39141222D01*
X60662136Y-39097949D01*
X60689396Y-39057150D01*
X60720524Y-39019221D01*
X60755221Y-38984524D01*
X60793150Y-38953396D01*
X60833949Y-38926136D01*
X60877222Y-38903005D01*
X60922555Y-38884228D01*
X60969510Y-38869984D01*
X61017635Y-38860412D01*
X61066466Y-38855602D01*
X61091000Y-38855602D01*
X61091000Y-38855000D01*
X61591000Y-38855000D01*
X61591000Y-38855602D01*
X61615534Y-38855602D01*
X61664365Y-38860412D01*
X61712490Y-38869984D01*
X61759445Y-38884228D01*
X61804778Y-38903005D01*
X61848051Y-38926136D01*
X61888850Y-38953396D01*
X61926779Y-38984524D01*
X61961476Y-39019221D01*
X61992604Y-39057150D01*
X62019864Y-39097949D01*
X62042995Y-39141222D01*
X62061772Y-39186555D01*
X62076016Y-39233510D01*
X62085588Y-39281635D01*
X62090398Y-39330466D01*
X62090398Y-39355000D01*
X62091000Y-39355000D01*
X62091000Y-39855000D01*
X60591000Y-39855000D01*
G37*
G04 #@! TD.AperFunction*
G04 #@! TA.AperFunction,SMDPad,CuDef*
G36*
X62090398Y-40655000D02*
G01*
X62090398Y-40679534D01*
X62085588Y-40728365D01*
X62076016Y-40776490D01*
X62061772Y-40823445D01*
X62042995Y-40868778D01*
X62019864Y-40912051D01*
X61992604Y-40952850D01*
X61961476Y-40990779D01*
X61926779Y-41025476D01*
X61888850Y-41056604D01*
X61848051Y-41083864D01*
X61804778Y-41106995D01*
X61759445Y-41125772D01*
X61712490Y-41140016D01*
X61664365Y-41149588D01*
X61615534Y-41154398D01*
X61591000Y-41154398D01*
X61591000Y-41155000D01*
X61091000Y-41155000D01*
X61091000Y-41154398D01*
X61066466Y-41154398D01*
X61017635Y-41149588D01*
X60969510Y-41140016D01*
X60922555Y-41125772D01*
X60877222Y-41106995D01*
X60833949Y-41083864D01*
X60793150Y-41056604D01*
X60755221Y-41025476D01*
X60720524Y-40990779D01*
X60689396Y-40952850D01*
X60662136Y-40912051D01*
X60639005Y-40868778D01*
X60620228Y-40823445D01*
X60605984Y-40776490D01*
X60596412Y-40728365D01*
X60591602Y-40679534D01*
X60591602Y-40655000D01*
X60591000Y-40655000D01*
X60591000Y-40155000D01*
X62091000Y-40155000D01*
X62091000Y-40655000D01*
X62090398Y-40655000D01*
G37*
G04 #@! TD.AperFunction*
D14*
X30332680Y-41910000D03*
X31186120Y-41904920D03*
X28917900Y-41899840D03*
X28079700Y-41899840D03*
X34417000Y-41462960D03*
X50419000Y-41910000D03*
X37338000Y-41910000D03*
X39624000Y-41910000D03*
X41910000Y-41910000D03*
X44196000Y-41910000D03*
X65278000Y-45085000D03*
X51689000Y-41910000D03*
X35778440Y-40147240D03*
X61722000Y-38227000D03*
X60960000Y-38227000D03*
X35778440Y-45882560D03*
X32697600Y-40005000D03*
X32697600Y-43180000D03*
X44704000Y-46736000D03*
X61722000Y-41783000D03*
X60960000Y-41783000D03*
D15*
X35778440Y-40147240D02*
X35702240Y-40147240D01*
D16*
X35778440Y-40147240D02*
X35778440Y-45557440D01*
X35778440Y-45557440D02*
X35778440Y-45882560D01*
X35778440Y-45882560D02*
X35778440Y-45882560D01*
D15*
X41691560Y-48208720D02*
X41691560Y-50274220D01*
X47889160Y-36603940D02*
X26576020Y-36603940D01*
X49276000Y-35217100D02*
X47889160Y-36603940D01*
X26576020Y-36603940D02*
X25742900Y-37437060D01*
X25742900Y-44678600D02*
X24528780Y-45892720D01*
X25742900Y-37437060D02*
X25742900Y-44678600D01*
X51816000Y-35217100D02*
X49962150Y-37070950D01*
X26854720Y-37109400D02*
X26706970Y-37109400D01*
X26893170Y-37070950D02*
X26854720Y-37109400D01*
X49962150Y-37070950D02*
X26893170Y-37070950D01*
X26706970Y-37109400D02*
X26192910Y-37623460D01*
X25378779Y-50122721D02*
X24528780Y-50972720D01*
X26192910Y-37623460D02*
X26192910Y-49308590D01*
X26192910Y-49308590D02*
X25378779Y-50122721D01*
X42011840Y-46736000D02*
X41681400Y-47066440D01*
X44704000Y-46736000D02*
X42011840Y-46736000D01*
D16*
X32697600Y-40005000D02*
X32697600Y-43180000D01*
D17*
G36*
X63342270Y-24381691D02*
G01*
X67598929Y-26134433D01*
X69589075Y-30077177D01*
X70212000Y-33233762D01*
X70212001Y-48145944D01*
X68281035Y-46512050D01*
X68260544Y-46497909D01*
X68237689Y-46488037D01*
X68224731Y-46484634D01*
X64541731Y-45722634D01*
X64516974Y-45720004D01*
X64502350Y-45720736D01*
X59803350Y-46228736D01*
X59778979Y-46233825D01*
X59756070Y-46243571D01*
X59729310Y-46263134D01*
X56935310Y-48930134D01*
X56919072Y-48949007D01*
X56906829Y-48970684D01*
X56899050Y-48994334D01*
X56896777Y-49007975D01*
X56883208Y-49130100D01*
X56765302Y-49130100D01*
X56508928Y-49181096D01*
X56267430Y-49281128D01*
X56050087Y-49426352D01*
X55865252Y-49611187D01*
X55720028Y-49828530D01*
X55626000Y-50055533D01*
X55531972Y-49828530D01*
X55386748Y-49611187D01*
X55201913Y-49426352D01*
X54984570Y-49281128D01*
X54743072Y-49181096D01*
X54486698Y-49130100D01*
X54225302Y-49130100D01*
X53968928Y-49181096D01*
X53727430Y-49281128D01*
X53510087Y-49426352D01*
X53325252Y-49611187D01*
X53180028Y-49828530D01*
X53086000Y-50055533D01*
X52991972Y-49828530D01*
X52846748Y-49611187D01*
X52661913Y-49426352D01*
X52444570Y-49281128D01*
X52203072Y-49181096D01*
X51946698Y-49130100D01*
X51685302Y-49130100D01*
X51428928Y-49181096D01*
X51187430Y-49281128D01*
X50970087Y-49426352D01*
X50785252Y-49611187D01*
X50640028Y-49828530D01*
X50546000Y-50055533D01*
X50451972Y-49828530D01*
X50306748Y-49611187D01*
X50121913Y-49426352D01*
X49904570Y-49281128D01*
X49663072Y-49181096D01*
X49406698Y-49130100D01*
X49145302Y-49130100D01*
X48888928Y-49181096D01*
X48647430Y-49281128D01*
X48430087Y-49426352D01*
X48245252Y-49611187D01*
X48100028Y-49828530D01*
X48006000Y-50055533D01*
X47911972Y-49828530D01*
X47766748Y-49611187D01*
X47581913Y-49426352D01*
X47364570Y-49281128D01*
X47123072Y-49181096D01*
X46866698Y-49130100D01*
X46605302Y-49130100D01*
X46348928Y-49181096D01*
X46107430Y-49281128D01*
X45890087Y-49426352D01*
X45705252Y-49611187D01*
X45560028Y-49828530D01*
X45466000Y-50055533D01*
X45371972Y-49828530D01*
X45226748Y-49611187D01*
X45041913Y-49426352D01*
X44824570Y-49281128D01*
X44583072Y-49181096D01*
X44326698Y-49130100D01*
X44065302Y-49130100D01*
X43808928Y-49181096D01*
X43567430Y-49281128D01*
X43350087Y-49426352D01*
X43165252Y-49611187D01*
X43020028Y-49828530D01*
X42926000Y-50055533D01*
X42831972Y-49828530D01*
X42686748Y-49611187D01*
X42501913Y-49426352D01*
X42293560Y-49287135D01*
X42293560Y-49273818D01*
X42350519Y-49250225D01*
X42433388Y-49205931D01*
X42514887Y-49151475D01*
X42587519Y-49091867D01*
X42656827Y-49022559D01*
X42716435Y-48949927D01*
X42770891Y-48868428D01*
X42815185Y-48785559D01*
X42852694Y-48695003D01*
X42879968Y-48605090D01*
X42899090Y-48508957D01*
X42908300Y-48415449D01*
X42908300Y-48390888D01*
X42910708Y-48366440D01*
X42910708Y-47866440D01*
X42901498Y-47772932D01*
X42884362Y-47716440D01*
X42901498Y-47659948D01*
X42910708Y-47566440D01*
X42910708Y-47338000D01*
X44065735Y-47338000D01*
X44144945Y-47417210D01*
X44288585Y-47513187D01*
X44448189Y-47579297D01*
X44617623Y-47613000D01*
X44790377Y-47613000D01*
X44959811Y-47579297D01*
X45119415Y-47513187D01*
X45263055Y-47417210D01*
X45385210Y-47295055D01*
X45481187Y-47151415D01*
X45547297Y-46991811D01*
X45581000Y-46822377D01*
X45581000Y-46649623D01*
X45547297Y-46480189D01*
X45481187Y-46320585D01*
X45385210Y-46176945D01*
X45263055Y-46054790D01*
X45119415Y-45958813D01*
X44959811Y-45892703D01*
X44790377Y-45859000D01*
X44617623Y-45859000D01*
X44448189Y-45892703D01*
X44288585Y-45958813D01*
X44144945Y-46054790D01*
X44065735Y-46134000D01*
X42223218Y-46134000D01*
X42170050Y-46117872D01*
X42073917Y-46098750D01*
X41980409Y-46089540D01*
X41955848Y-46089540D01*
X41931400Y-46087132D01*
X41431400Y-46087132D01*
X41406952Y-46089540D01*
X41382391Y-46089540D01*
X41288883Y-46098750D01*
X41192750Y-46117872D01*
X41102837Y-46145146D01*
X41012281Y-46182655D01*
X40929412Y-46226949D01*
X40847913Y-46281405D01*
X40775281Y-46341013D01*
X40705973Y-46410321D01*
X40646365Y-46482953D01*
X40591909Y-46564452D01*
X40547615Y-46647321D01*
X40510106Y-46737877D01*
X40482832Y-46827790D01*
X40463710Y-46923923D01*
X40454500Y-47017431D01*
X40454500Y-47041992D01*
X40452092Y-47066440D01*
X40452092Y-47566440D01*
X40461302Y-47659948D01*
X40478438Y-47716440D01*
X40461302Y-47772932D01*
X40452092Y-47866440D01*
X40452092Y-48366440D01*
X40454500Y-48390888D01*
X40454500Y-48415449D01*
X40463710Y-48508957D01*
X40482832Y-48605090D01*
X40510106Y-48695003D01*
X40547615Y-48785559D01*
X40591909Y-48868428D01*
X40646365Y-48949927D01*
X40705973Y-49022559D01*
X40775281Y-49091867D01*
X40847913Y-49151475D01*
X40929412Y-49205931D01*
X41012281Y-49250225D01*
X41057159Y-49268814D01*
X41027430Y-49281128D01*
X40810087Y-49426352D01*
X40625252Y-49611187D01*
X40480028Y-49828530D01*
X40386000Y-50055533D01*
X40291972Y-49828530D01*
X40146748Y-49611187D01*
X39961913Y-49426352D01*
X39744570Y-49281128D01*
X39503072Y-49181096D01*
X39246698Y-49130100D01*
X38985302Y-49130100D01*
X38728928Y-49181096D01*
X38487430Y-49281128D01*
X38270087Y-49426352D01*
X38085252Y-49611187D01*
X37940028Y-49828530D01*
X37846000Y-50055533D01*
X37751972Y-49828530D01*
X37606748Y-49611187D01*
X37421913Y-49426352D01*
X37204570Y-49281128D01*
X36963072Y-49181096D01*
X36706698Y-49130100D01*
X36445302Y-49130100D01*
X36188928Y-49181096D01*
X35947430Y-49281128D01*
X35730087Y-49426352D01*
X35545252Y-49611187D01*
X35400028Y-49828530D01*
X35365307Y-49912354D01*
X35365307Y-49607100D01*
X35356097Y-49513592D01*
X35328822Y-49423677D01*
X35284529Y-49340811D01*
X35224921Y-49268179D01*
X35152289Y-49208571D01*
X35069423Y-49164278D01*
X34979508Y-49137003D01*
X34886000Y-49127793D01*
X33186000Y-49127793D01*
X33092492Y-49137003D01*
X33002577Y-49164278D01*
X32919711Y-49208571D01*
X32847079Y-49268179D01*
X32787471Y-49340811D01*
X32743178Y-49423677D01*
X32715903Y-49513592D01*
X32706693Y-49607100D01*
X32706693Y-49912354D01*
X32671972Y-49828530D01*
X32526748Y-49611187D01*
X32341913Y-49426352D01*
X32124570Y-49281128D01*
X31883072Y-49181096D01*
X31626698Y-49130100D01*
X31365302Y-49130100D01*
X31108928Y-49181096D01*
X30867430Y-49281128D01*
X30650087Y-49426352D01*
X30465252Y-49611187D01*
X30320028Y-49828530D01*
X30219996Y-50070028D01*
X30169000Y-50326402D01*
X30169000Y-50587798D01*
X30219996Y-50844172D01*
X30320028Y-51085670D01*
X30465252Y-51303013D01*
X30650087Y-51487848D01*
X30867430Y-51633072D01*
X31082913Y-51722328D01*
X30875050Y-51808428D01*
X30657707Y-51953652D01*
X30472872Y-52138487D01*
X30327648Y-52355830D01*
X30227616Y-52597328D01*
X30176620Y-52853702D01*
X30176620Y-53115098D01*
X30227616Y-53371472D01*
X30327648Y-53612970D01*
X30472872Y-53830313D01*
X30573159Y-53930600D01*
X25082894Y-53930600D01*
X25076516Y-53801124D01*
X25185916Y-53691724D01*
X25307347Y-53509989D01*
X25390990Y-53308056D01*
X25433631Y-53093685D01*
X25433631Y-52875115D01*
X25390990Y-52660744D01*
X25307347Y-52458811D01*
X25185916Y-52277076D01*
X25086768Y-52177928D01*
X25157350Y-52148692D01*
X25374693Y-52003468D01*
X25559528Y-51818633D01*
X25704752Y-51601290D01*
X25804784Y-51359792D01*
X25855780Y-51103418D01*
X25855780Y-50842022D01*
X25815294Y-50638483D01*
X26077408Y-50275447D01*
X26597687Y-49755170D01*
X26620647Y-49736327D01*
X26639490Y-49713367D01*
X26639494Y-49713363D01*
X26695875Y-49644662D01*
X26751776Y-49540080D01*
X26759811Y-49513592D01*
X26786199Y-49426602D01*
X26794910Y-49338156D01*
X26794910Y-49338147D01*
X26797821Y-49308591D01*
X26794910Y-49279034D01*
X26794910Y-45882560D01*
X34897197Y-45882560D01*
X34901440Y-45925638D01*
X34901440Y-45968937D01*
X34909887Y-46011402D01*
X34914130Y-46054482D01*
X34926696Y-46095908D01*
X34935143Y-46138371D01*
X34951711Y-46178371D01*
X34964278Y-46219797D01*
X34984685Y-46257975D01*
X35001253Y-46297975D01*
X35025306Y-46333973D01*
X35045713Y-46372152D01*
X35073177Y-46405617D01*
X35097230Y-46441615D01*
X35127843Y-46472228D01*
X35155307Y-46505693D01*
X35188772Y-46533157D01*
X35219385Y-46563770D01*
X35255383Y-46587823D01*
X35288848Y-46615287D01*
X35327027Y-46635694D01*
X35363025Y-46659747D01*
X35403025Y-46676315D01*
X35441203Y-46696722D01*
X35482629Y-46709289D01*
X35522629Y-46725857D01*
X35565092Y-46734304D01*
X35606518Y-46746870D01*
X35649598Y-46751113D01*
X35692063Y-46759560D01*
X35735361Y-46759560D01*
X35778440Y-46763803D01*
X35821519Y-46759560D01*
X35864817Y-46759560D01*
X35907282Y-46751113D01*
X35950362Y-46746870D01*
X35991788Y-46734304D01*
X36034251Y-46725857D01*
X36074251Y-46709289D01*
X36115677Y-46696722D01*
X36153855Y-46676315D01*
X36193855Y-46659747D01*
X36229853Y-46635694D01*
X36268032Y-46615287D01*
X36301497Y-46587823D01*
X36337495Y-46563770D01*
X36368108Y-46533157D01*
X36401573Y-46505693D01*
X36429037Y-46472228D01*
X36459650Y-46441615D01*
X36483703Y-46405617D01*
X36511167Y-46372152D01*
X36531574Y-46333973D01*
X36555627Y-46297975D01*
X36572195Y-46257975D01*
X36592602Y-46219797D01*
X36605169Y-46178371D01*
X36621737Y-46138371D01*
X36630184Y-46095908D01*
X36642750Y-46054482D01*
X36646993Y-46011402D01*
X36655440Y-45968937D01*
X36655440Y-45925638D01*
X36659683Y-45882560D01*
X36655440Y-45839481D01*
X36655440Y-40060863D01*
X36646993Y-40018398D01*
X36642750Y-39975318D01*
X36630184Y-39933892D01*
X36621737Y-39891429D01*
X36605169Y-39851429D01*
X36592602Y-39810003D01*
X36572195Y-39771825D01*
X36555627Y-39731825D01*
X36531574Y-39695827D01*
X36511167Y-39657648D01*
X36483703Y-39624183D01*
X36459650Y-39588185D01*
X36429037Y-39557572D01*
X36401573Y-39524107D01*
X36368109Y-39496644D01*
X36337495Y-39466030D01*
X36301493Y-39441974D01*
X36268031Y-39414513D01*
X36229857Y-39394109D01*
X36193855Y-39370053D01*
X36153851Y-39353483D01*
X36115676Y-39333078D01*
X36074254Y-39320513D01*
X36034251Y-39303943D01*
X35991785Y-39295496D01*
X35950361Y-39282930D01*
X35907283Y-39278687D01*
X35864817Y-39270240D01*
X35821519Y-39270240D01*
X35778440Y-39265997D01*
X35735361Y-39270240D01*
X35692063Y-39270240D01*
X35649598Y-39278687D01*
X35606518Y-39282930D01*
X35565092Y-39295496D01*
X35522629Y-39303943D01*
X35482629Y-39320511D01*
X35441203Y-39333078D01*
X35403025Y-39353485D01*
X35363025Y-39370053D01*
X35327027Y-39394106D01*
X35288848Y-39414513D01*
X35255383Y-39441977D01*
X35219385Y-39466030D01*
X35188772Y-39496643D01*
X35155307Y-39524107D01*
X35127844Y-39557571D01*
X35097230Y-39588185D01*
X35073174Y-39624187D01*
X35045713Y-39657649D01*
X35025309Y-39695823D01*
X35001253Y-39731825D01*
X34984683Y-39771829D01*
X34964278Y-39810004D01*
X34951713Y-39851426D01*
X34935143Y-39891429D01*
X34926696Y-39933895D01*
X34914130Y-39975319D01*
X34909887Y-40018397D01*
X34901440Y-40060863D01*
X34901440Y-40104162D01*
X34901441Y-45514352D01*
X34901440Y-45514362D01*
X34901440Y-45839481D01*
X34897197Y-45882560D01*
X26794910Y-45882560D01*
X26794910Y-39918623D01*
X31820600Y-39918623D01*
X31820600Y-39961922D01*
X31820601Y-43093618D01*
X31820600Y-43093623D01*
X31820600Y-43266377D01*
X31829049Y-43308852D01*
X31833291Y-43351922D01*
X31845854Y-43393338D01*
X31854303Y-43435811D01*
X31870875Y-43475820D01*
X31883439Y-43517237D01*
X31903841Y-43555407D01*
X31920413Y-43595415D01*
X31944471Y-43631420D01*
X31964874Y-43669592D01*
X31992333Y-43703050D01*
X32016390Y-43739055D01*
X32047009Y-43769674D01*
X32074468Y-43803133D01*
X32107927Y-43830592D01*
X32138545Y-43861210D01*
X32174548Y-43885267D01*
X32208009Y-43912727D01*
X32246183Y-43933131D01*
X32282185Y-43957187D01*
X32322189Y-43973757D01*
X32360364Y-43994162D01*
X32401786Y-44006727D01*
X32441789Y-44023297D01*
X32484255Y-44031744D01*
X32525679Y-44044310D01*
X32568757Y-44048553D01*
X32611223Y-44057000D01*
X32654521Y-44057000D01*
X32697600Y-44061243D01*
X32740679Y-44057000D01*
X32783977Y-44057000D01*
X32826442Y-44048553D01*
X32869522Y-44044310D01*
X32910948Y-44031744D01*
X32953411Y-44023297D01*
X32993411Y-44006729D01*
X33034837Y-43994162D01*
X33073015Y-43973755D01*
X33113015Y-43957187D01*
X33149013Y-43933134D01*
X33187192Y-43912727D01*
X33220657Y-43885263D01*
X33256655Y-43861210D01*
X33287268Y-43830597D01*
X33320733Y-43803133D01*
X33348197Y-43769668D01*
X33378810Y-43739055D01*
X33402863Y-43703057D01*
X33430327Y-43669592D01*
X33450734Y-43631413D01*
X33474787Y-43595415D01*
X33491355Y-43555415D01*
X33511762Y-43517237D01*
X33524329Y-43475811D01*
X33540897Y-43435811D01*
X33549344Y-43393348D01*
X33561910Y-43351922D01*
X33566153Y-43308842D01*
X33574600Y-43266377D01*
X33574600Y-39918623D01*
X33566153Y-39876158D01*
X33561910Y-39833078D01*
X33549344Y-39791652D01*
X33540897Y-39749189D01*
X33524329Y-39709189D01*
X33511762Y-39667763D01*
X33491355Y-39629585D01*
X33474787Y-39589585D01*
X33450734Y-39553587D01*
X33430327Y-39515408D01*
X33402863Y-39481943D01*
X33378810Y-39445945D01*
X33348197Y-39415332D01*
X33320733Y-39381867D01*
X33287269Y-39354404D01*
X33256655Y-39323790D01*
X33220653Y-39299734D01*
X33187191Y-39272273D01*
X33149017Y-39251869D01*
X33113015Y-39227813D01*
X33073011Y-39211243D01*
X33034836Y-39190838D01*
X32993414Y-39178273D01*
X32953411Y-39161703D01*
X32910945Y-39153256D01*
X32869521Y-39140690D01*
X32826443Y-39136447D01*
X32783977Y-39128000D01*
X32740679Y-39128000D01*
X32697600Y-39123757D01*
X32654521Y-39128000D01*
X32611223Y-39128000D01*
X32568758Y-39136447D01*
X32525678Y-39140690D01*
X32484252Y-39153256D01*
X32441789Y-39161703D01*
X32401789Y-39178271D01*
X32360363Y-39190838D01*
X32322185Y-39211245D01*
X32282185Y-39227813D01*
X32246187Y-39251866D01*
X32208008Y-39272273D01*
X32174543Y-39299737D01*
X32138545Y-39323790D01*
X32107932Y-39354403D01*
X32074467Y-39381867D01*
X32047004Y-39415331D01*
X32016390Y-39445945D01*
X31992334Y-39481947D01*
X31964873Y-39515409D01*
X31944469Y-39553583D01*
X31920413Y-39589585D01*
X31903843Y-39629589D01*
X31883438Y-39667764D01*
X31870873Y-39709186D01*
X31854303Y-39749189D01*
X31845856Y-39791655D01*
X31833290Y-39833079D01*
X31829047Y-39876157D01*
X31820600Y-39918623D01*
X26794910Y-39918623D01*
X26794910Y-38087264D01*
X59839693Y-38087264D01*
X59940085Y-39593150D01*
X59955155Y-39694162D01*
X59994729Y-39810530D01*
X60056246Y-39916942D01*
X60136888Y-40008793D01*
X60120902Y-40061492D01*
X60115405Y-40117305D01*
X60062038Y-40176087D01*
X59997015Y-40280393D01*
X59953590Y-40395380D01*
X59933433Y-40516629D01*
X59846345Y-41822957D01*
X59860104Y-42001656D01*
X59898587Y-42118390D01*
X59959103Y-42225373D01*
X60227604Y-42607125D01*
X60350607Y-42737482D01*
X60453900Y-42804103D01*
X60568206Y-42849291D01*
X60880292Y-42938459D01*
X61052543Y-42962584D01*
X61629457Y-42962584D01*
X61801708Y-42938459D01*
X62113794Y-42849291D01*
X62277320Y-42775928D01*
X62374170Y-42700247D01*
X62454396Y-42607125D01*
X62722897Y-42225373D01*
X62803994Y-42065543D01*
X62831771Y-41945809D01*
X62835655Y-41822957D01*
X62748567Y-40516629D01*
X62733497Y-40415618D01*
X62693923Y-40299250D01*
X62632407Y-40192838D01*
X62566659Y-40117951D01*
X62561098Y-40061492D01*
X62545116Y-40008806D01*
X62613309Y-39933692D01*
X62678333Y-39829387D01*
X62721758Y-39714400D01*
X62741915Y-39593150D01*
X62842307Y-38087264D01*
X62828547Y-37908564D01*
X62790065Y-37791830D01*
X62729548Y-37684847D01*
X62550547Y-37430346D01*
X62427544Y-37299989D01*
X62324251Y-37233369D01*
X62209946Y-37188181D01*
X61705556Y-37044069D01*
X61533305Y-37019944D01*
X61148695Y-37019944D01*
X60976444Y-37044069D01*
X60472054Y-37188181D01*
X60308529Y-37261543D01*
X60211678Y-37337224D01*
X60131453Y-37430346D01*
X59952452Y-37684847D01*
X59871354Y-37844678D01*
X59843577Y-37964412D01*
X59839693Y-38087264D01*
X26794910Y-38087264D01*
X26794910Y-37872815D01*
X26964196Y-37703530D01*
X26972732Y-37702689D01*
X27070769Y-37672950D01*
X49932594Y-37672950D01*
X49962150Y-37675861D01*
X49991706Y-37672950D01*
X49991716Y-37672950D01*
X50080162Y-37664239D01*
X50193640Y-37629816D01*
X50298221Y-37573916D01*
X50389887Y-37498687D01*
X50408739Y-37475716D01*
X51402357Y-36482098D01*
X51428928Y-36493104D01*
X51685302Y-36544100D01*
X51946698Y-36544100D01*
X52203072Y-36493104D01*
X52444570Y-36393072D01*
X52661913Y-36247848D01*
X52846748Y-36063013D01*
X52991972Y-35845670D01*
X53086000Y-35618667D01*
X53180028Y-35845670D01*
X53325252Y-36063013D01*
X53510087Y-36247848D01*
X53727430Y-36393072D01*
X53968928Y-36493104D01*
X54225302Y-36544100D01*
X54486698Y-36544100D01*
X54743072Y-36493104D01*
X54984570Y-36393072D01*
X55201913Y-36247848D01*
X55386748Y-36063013D01*
X55531972Y-35845670D01*
X55626000Y-35618667D01*
X55720028Y-35845670D01*
X55865252Y-36063013D01*
X56050087Y-36247848D01*
X56267430Y-36393072D01*
X56508928Y-36493104D01*
X56765302Y-36544100D01*
X57026698Y-36544100D01*
X57283072Y-36493104D01*
X57524570Y-36393072D01*
X57741913Y-36247848D01*
X57926748Y-36063013D01*
X58071972Y-35845670D01*
X58166000Y-35618667D01*
X58260028Y-35845670D01*
X58405252Y-36063013D01*
X58590087Y-36247848D01*
X58807430Y-36393072D01*
X59048928Y-36493104D01*
X59305302Y-36544100D01*
X59566698Y-36544100D01*
X59823072Y-36493104D01*
X60064570Y-36393072D01*
X60281913Y-36247848D01*
X60466748Y-36063013D01*
X60611972Y-35845670D01*
X60706000Y-35618667D01*
X60800028Y-35845670D01*
X60945252Y-36063013D01*
X61130087Y-36247848D01*
X61347430Y-36393072D01*
X61588928Y-36493104D01*
X61845302Y-36544100D01*
X62106698Y-36544100D01*
X62363072Y-36493104D01*
X62604570Y-36393072D01*
X62821913Y-36247848D01*
X63006748Y-36063013D01*
X63151972Y-35845670D01*
X63246000Y-35618667D01*
X63340028Y-35845670D01*
X63485252Y-36063013D01*
X63670087Y-36247848D01*
X63887430Y-36393072D01*
X64128928Y-36493104D01*
X64385302Y-36544100D01*
X64646698Y-36544100D01*
X64903072Y-36493104D01*
X65144570Y-36393072D01*
X65361913Y-36247848D01*
X65546748Y-36063013D01*
X65691972Y-35845670D01*
X65786000Y-35618667D01*
X65880028Y-35845670D01*
X66025252Y-36063013D01*
X66210087Y-36247848D01*
X66427430Y-36393072D01*
X66668928Y-36493104D01*
X66925302Y-36544100D01*
X67186698Y-36544100D01*
X67443072Y-36493104D01*
X67684570Y-36393072D01*
X67901913Y-36247848D01*
X68086748Y-36063013D01*
X68231972Y-35845670D01*
X68332004Y-35604172D01*
X68383000Y-35347798D01*
X68383000Y-35086402D01*
X68332004Y-34830028D01*
X68231972Y-34588530D01*
X68086748Y-34371187D01*
X67901913Y-34186352D01*
X67684570Y-34041128D01*
X67443072Y-33941096D01*
X67186698Y-33890100D01*
X66925302Y-33890100D01*
X66668928Y-33941096D01*
X66427430Y-34041128D01*
X66210087Y-34186352D01*
X66025252Y-34371187D01*
X65880028Y-34588530D01*
X65786000Y-34815533D01*
X65691972Y-34588530D01*
X65546748Y-34371187D01*
X65361913Y-34186352D01*
X65144570Y-34041128D01*
X64903072Y-33941096D01*
X64646698Y-33890100D01*
X64385302Y-33890100D01*
X64128928Y-33941096D01*
X63887430Y-34041128D01*
X63670087Y-34186352D01*
X63485252Y-34371187D01*
X63340028Y-34588530D01*
X63246000Y-34815533D01*
X63151972Y-34588530D01*
X63006748Y-34371187D01*
X62821913Y-34186352D01*
X62604570Y-34041128D01*
X62363072Y-33941096D01*
X62106698Y-33890100D01*
X61845302Y-33890100D01*
X61588928Y-33941096D01*
X61347430Y-34041128D01*
X61130087Y-34186352D01*
X60945252Y-34371187D01*
X60800028Y-34588530D01*
X60706000Y-34815533D01*
X60611972Y-34588530D01*
X60466748Y-34371187D01*
X60281913Y-34186352D01*
X60064570Y-34041128D01*
X59823072Y-33941096D01*
X59566698Y-33890100D01*
X59305302Y-33890100D01*
X59048928Y-33941096D01*
X58807430Y-34041128D01*
X58590087Y-34186352D01*
X58405252Y-34371187D01*
X58260028Y-34588530D01*
X58166000Y-34815533D01*
X58071972Y-34588530D01*
X57926748Y-34371187D01*
X57741913Y-34186352D01*
X57524570Y-34041128D01*
X57283072Y-33941096D01*
X57026698Y-33890100D01*
X56765302Y-33890100D01*
X56508928Y-33941096D01*
X56267430Y-34041128D01*
X56050087Y-34186352D01*
X55865252Y-34371187D01*
X55720028Y-34588530D01*
X55626000Y-34815533D01*
X55531972Y-34588530D01*
X55386748Y-34371187D01*
X55201913Y-34186352D01*
X54984570Y-34041128D01*
X54743072Y-33941096D01*
X54486698Y-33890100D01*
X54225302Y-33890100D01*
X53968928Y-33941096D01*
X53727430Y-34041128D01*
X53510087Y-34186352D01*
X53325252Y-34371187D01*
X53180028Y-34588530D01*
X53086000Y-34815533D01*
X52991972Y-34588530D01*
X52846748Y-34371187D01*
X52661913Y-34186352D01*
X52444570Y-34041128D01*
X52203072Y-33941096D01*
X51946698Y-33890100D01*
X51685302Y-33890100D01*
X51428928Y-33941096D01*
X51187430Y-34041128D01*
X50970087Y-34186352D01*
X50785252Y-34371187D01*
X50640028Y-34588530D01*
X50546000Y-34815533D01*
X50451972Y-34588530D01*
X50306748Y-34371187D01*
X50121913Y-34186352D01*
X49904570Y-34041128D01*
X49663072Y-33941096D01*
X49406698Y-33890100D01*
X49145302Y-33890100D01*
X48888928Y-33941096D01*
X48647430Y-34041128D01*
X48430087Y-34186352D01*
X48245252Y-34371187D01*
X48100028Y-34588530D01*
X48006000Y-34815533D01*
X47911972Y-34588530D01*
X47766748Y-34371187D01*
X47581913Y-34186352D01*
X47364570Y-34041128D01*
X47123072Y-33941096D01*
X46866698Y-33890100D01*
X46605302Y-33890100D01*
X46348928Y-33941096D01*
X46107430Y-34041128D01*
X45890087Y-34186352D01*
X45705252Y-34371187D01*
X45560028Y-34588530D01*
X45466000Y-34815533D01*
X45371972Y-34588530D01*
X45226748Y-34371187D01*
X45041913Y-34186352D01*
X44824570Y-34041128D01*
X44583072Y-33941096D01*
X44326698Y-33890100D01*
X44065302Y-33890100D01*
X43808928Y-33941096D01*
X43567430Y-34041128D01*
X43350087Y-34186352D01*
X43165252Y-34371187D01*
X43020028Y-34588530D01*
X42926000Y-34815533D01*
X42831972Y-34588530D01*
X42686748Y-34371187D01*
X42501913Y-34186352D01*
X42284570Y-34041128D01*
X42043072Y-33941096D01*
X41786698Y-33890100D01*
X41525302Y-33890100D01*
X41268928Y-33941096D01*
X41027430Y-34041128D01*
X40810087Y-34186352D01*
X40625252Y-34371187D01*
X40480028Y-34588530D01*
X40379996Y-34830028D01*
X40329000Y-35086402D01*
X40329000Y-35347798D01*
X40379996Y-35604172D01*
X40480028Y-35845670D01*
X40584444Y-36001940D01*
X37647556Y-36001940D01*
X37751972Y-35845670D01*
X37852004Y-35604172D01*
X37903000Y-35347798D01*
X37903000Y-35086402D01*
X37852004Y-34830028D01*
X37751972Y-34588530D01*
X37606748Y-34371187D01*
X37421913Y-34186352D01*
X37204570Y-34041128D01*
X36963072Y-33941096D01*
X36706698Y-33890100D01*
X36445302Y-33890100D01*
X36188928Y-33941096D01*
X35947430Y-34041128D01*
X35730087Y-34186352D01*
X35545252Y-34371187D01*
X35400028Y-34588530D01*
X35306000Y-34815533D01*
X35211972Y-34588530D01*
X35066748Y-34371187D01*
X34881913Y-34186352D01*
X34664570Y-34041128D01*
X34423072Y-33941096D01*
X34166698Y-33890100D01*
X33905302Y-33890100D01*
X33648928Y-33941096D01*
X33407430Y-34041128D01*
X33190087Y-34186352D01*
X33005252Y-34371187D01*
X32860028Y-34588530D01*
X32766000Y-34815533D01*
X32671972Y-34588530D01*
X32526748Y-34371187D01*
X32341913Y-34186352D01*
X32124570Y-34041128D01*
X31883072Y-33941096D01*
X31626698Y-33890100D01*
X31365302Y-33890100D01*
X31108928Y-33941096D01*
X30867430Y-34041128D01*
X30650087Y-34186352D01*
X30465252Y-34371187D01*
X30320028Y-34588530D01*
X30219996Y-34830028D01*
X30169000Y-35086402D01*
X30169000Y-35347798D01*
X30219996Y-35604172D01*
X30320028Y-35845670D01*
X30424444Y-36001940D01*
X26605579Y-36001940D01*
X26576020Y-35999029D01*
X26546461Y-36001940D01*
X26546454Y-36001940D01*
X26469202Y-36009549D01*
X26458007Y-36010651D01*
X26344530Y-36045074D01*
X26239948Y-36100974D01*
X26213924Y-36122332D01*
X26148283Y-36176203D01*
X26129435Y-36199169D01*
X25338134Y-36990471D01*
X25315163Y-37009323D01*
X25239934Y-37100990D01*
X25216866Y-37144147D01*
X25149730Y-37099288D01*
X24922727Y-37005260D01*
X25149730Y-36911232D01*
X25367073Y-36766008D01*
X25551908Y-36581173D01*
X25697132Y-36363830D01*
X25797164Y-36122332D01*
X25848160Y-35865958D01*
X25848160Y-35604562D01*
X25797164Y-35348188D01*
X25697132Y-35106690D01*
X25551908Y-34889347D01*
X25367073Y-34704512D01*
X25149730Y-34559288D01*
X24908232Y-34459256D01*
X24651858Y-34408260D01*
X24390462Y-34408260D01*
X24134088Y-34459256D01*
X23892590Y-34559288D01*
X23675247Y-34704512D01*
X23641000Y-34738759D01*
X23641000Y-30879668D01*
X26277603Y-32063970D01*
X26301204Y-32071896D01*
X26318587Y-32074638D01*
X31203007Y-32501358D01*
X31232275Y-32500527D01*
X34386955Y-32043327D01*
X34411126Y-32037358D01*
X34430539Y-32028590D01*
X37371859Y-30390290D01*
X37392316Y-30376102D01*
X37409613Y-30358195D01*
X37426338Y-30330412D01*
X38518538Y-27843752D01*
X38526268Y-27820086D01*
X38529232Y-27795367D01*
X38528262Y-27776787D01*
X38175202Y-24977707D01*
X38169680Y-24953431D01*
X38153618Y-24921310D01*
X37267250Y-23641000D01*
X55370672Y-23641000D01*
X63342270Y-24381691D01*
G37*
X63342270Y-24381691D02*
X67598929Y-26134433D01*
X69589075Y-30077177D01*
X70212000Y-33233762D01*
X70212001Y-48145944D01*
X68281035Y-46512050D01*
X68260544Y-46497909D01*
X68237689Y-46488037D01*
X68224731Y-46484634D01*
X64541731Y-45722634D01*
X64516974Y-45720004D01*
X64502350Y-45720736D01*
X59803350Y-46228736D01*
X59778979Y-46233825D01*
X59756070Y-46243571D01*
X59729310Y-46263134D01*
X56935310Y-48930134D01*
X56919072Y-48949007D01*
X56906829Y-48970684D01*
X56899050Y-48994334D01*
X56896777Y-49007975D01*
X56883208Y-49130100D01*
X56765302Y-49130100D01*
X56508928Y-49181096D01*
X56267430Y-49281128D01*
X56050087Y-49426352D01*
X55865252Y-49611187D01*
X55720028Y-49828530D01*
X55626000Y-50055533D01*
X55531972Y-49828530D01*
X55386748Y-49611187D01*
X55201913Y-49426352D01*
X54984570Y-49281128D01*
X54743072Y-49181096D01*
X54486698Y-49130100D01*
X54225302Y-49130100D01*
X53968928Y-49181096D01*
X53727430Y-49281128D01*
X53510087Y-49426352D01*
X53325252Y-49611187D01*
X53180028Y-49828530D01*
X53086000Y-50055533D01*
X52991972Y-49828530D01*
X52846748Y-49611187D01*
X52661913Y-49426352D01*
X52444570Y-49281128D01*
X52203072Y-49181096D01*
X51946698Y-49130100D01*
X51685302Y-49130100D01*
X51428928Y-49181096D01*
X51187430Y-49281128D01*
X50970087Y-49426352D01*
X50785252Y-49611187D01*
X50640028Y-49828530D01*
X50546000Y-50055533D01*
X50451972Y-49828530D01*
X50306748Y-49611187D01*
X50121913Y-49426352D01*
X49904570Y-49281128D01*
X49663072Y-49181096D01*
X49406698Y-49130100D01*
X49145302Y-49130100D01*
X48888928Y-49181096D01*
X48647430Y-49281128D01*
X48430087Y-49426352D01*
X48245252Y-49611187D01*
X48100028Y-49828530D01*
X48006000Y-50055533D01*
X47911972Y-49828530D01*
X47766748Y-49611187D01*
X47581913Y-49426352D01*
X47364570Y-49281128D01*
X47123072Y-49181096D01*
X46866698Y-49130100D01*
X46605302Y-49130100D01*
X46348928Y-49181096D01*
X46107430Y-49281128D01*
X45890087Y-49426352D01*
X45705252Y-49611187D01*
X45560028Y-49828530D01*
X45466000Y-50055533D01*
X45371972Y-49828530D01*
X45226748Y-49611187D01*
X45041913Y-49426352D01*
X44824570Y-49281128D01*
X44583072Y-49181096D01*
X44326698Y-49130100D01*
X44065302Y-49130100D01*
X43808928Y-49181096D01*
X43567430Y-49281128D01*
X43350087Y-49426352D01*
X43165252Y-49611187D01*
X43020028Y-49828530D01*
X42926000Y-50055533D01*
X42831972Y-49828530D01*
X42686748Y-49611187D01*
X42501913Y-49426352D01*
X42293560Y-49287135D01*
X42293560Y-49273818D01*
X42350519Y-49250225D01*
X42433388Y-49205931D01*
X42514887Y-49151475D01*
X42587519Y-49091867D01*
X42656827Y-49022559D01*
X42716435Y-48949927D01*
X42770891Y-48868428D01*
X42815185Y-48785559D01*
X42852694Y-48695003D01*
X42879968Y-48605090D01*
X42899090Y-48508957D01*
X42908300Y-48415449D01*
X42908300Y-48390888D01*
X42910708Y-48366440D01*
X42910708Y-47866440D01*
X42901498Y-47772932D01*
X42884362Y-47716440D01*
X42901498Y-47659948D01*
X42910708Y-47566440D01*
X42910708Y-47338000D01*
X44065735Y-47338000D01*
X44144945Y-47417210D01*
X44288585Y-47513187D01*
X44448189Y-47579297D01*
X44617623Y-47613000D01*
X44790377Y-47613000D01*
X44959811Y-47579297D01*
X45119415Y-47513187D01*
X45263055Y-47417210D01*
X45385210Y-47295055D01*
X45481187Y-47151415D01*
X45547297Y-46991811D01*
X45581000Y-46822377D01*
X45581000Y-46649623D01*
X45547297Y-46480189D01*
X45481187Y-46320585D01*
X45385210Y-46176945D01*
X45263055Y-46054790D01*
X45119415Y-45958813D01*
X44959811Y-45892703D01*
X44790377Y-45859000D01*
X44617623Y-45859000D01*
X44448189Y-45892703D01*
X44288585Y-45958813D01*
X44144945Y-46054790D01*
X44065735Y-46134000D01*
X42223218Y-46134000D01*
X42170050Y-46117872D01*
X42073917Y-46098750D01*
X41980409Y-46089540D01*
X41955848Y-46089540D01*
X41931400Y-46087132D01*
X41431400Y-46087132D01*
X41406952Y-46089540D01*
X41382391Y-46089540D01*
X41288883Y-46098750D01*
X41192750Y-46117872D01*
X41102837Y-46145146D01*
X41012281Y-46182655D01*
X40929412Y-46226949D01*
X40847913Y-46281405D01*
X40775281Y-46341013D01*
X40705973Y-46410321D01*
X40646365Y-46482953D01*
X40591909Y-46564452D01*
X40547615Y-46647321D01*
X40510106Y-46737877D01*
X40482832Y-46827790D01*
X40463710Y-46923923D01*
X40454500Y-47017431D01*
X40454500Y-47041992D01*
X40452092Y-47066440D01*
X40452092Y-47566440D01*
X40461302Y-47659948D01*
X40478438Y-47716440D01*
X40461302Y-47772932D01*
X40452092Y-47866440D01*
X40452092Y-48366440D01*
X40454500Y-48390888D01*
X40454500Y-48415449D01*
X40463710Y-48508957D01*
X40482832Y-48605090D01*
X40510106Y-48695003D01*
X40547615Y-48785559D01*
X40591909Y-48868428D01*
X40646365Y-48949927D01*
X40705973Y-49022559D01*
X40775281Y-49091867D01*
X40847913Y-49151475D01*
X40929412Y-49205931D01*
X41012281Y-49250225D01*
X41057159Y-49268814D01*
X41027430Y-49281128D01*
X40810087Y-49426352D01*
X40625252Y-49611187D01*
X40480028Y-49828530D01*
X40386000Y-50055533D01*
X40291972Y-49828530D01*
X40146748Y-49611187D01*
X39961913Y-49426352D01*
X39744570Y-49281128D01*
X39503072Y-49181096D01*
X39246698Y-49130100D01*
X38985302Y-49130100D01*
X38728928Y-49181096D01*
X38487430Y-49281128D01*
X38270087Y-49426352D01*
X38085252Y-49611187D01*
X37940028Y-49828530D01*
X37846000Y-50055533D01*
X37751972Y-49828530D01*
X37606748Y-49611187D01*
X37421913Y-49426352D01*
X37204570Y-49281128D01*
X36963072Y-49181096D01*
X36706698Y-49130100D01*
X36445302Y-49130100D01*
X36188928Y-49181096D01*
X35947430Y-49281128D01*
X35730087Y-49426352D01*
X35545252Y-49611187D01*
X35400028Y-49828530D01*
X35365307Y-49912354D01*
X35365307Y-49607100D01*
X35356097Y-49513592D01*
X35328822Y-49423677D01*
X35284529Y-49340811D01*
X35224921Y-49268179D01*
X35152289Y-49208571D01*
X35069423Y-49164278D01*
X34979508Y-49137003D01*
X34886000Y-49127793D01*
X33186000Y-49127793D01*
X33092492Y-49137003D01*
X33002577Y-49164278D01*
X32919711Y-49208571D01*
X32847079Y-49268179D01*
X32787471Y-49340811D01*
X32743178Y-49423677D01*
X32715903Y-49513592D01*
X32706693Y-49607100D01*
X32706693Y-49912354D01*
X32671972Y-49828530D01*
X32526748Y-49611187D01*
X32341913Y-49426352D01*
X32124570Y-49281128D01*
X31883072Y-49181096D01*
X31626698Y-49130100D01*
X31365302Y-49130100D01*
X31108928Y-49181096D01*
X30867430Y-49281128D01*
X30650087Y-49426352D01*
X30465252Y-49611187D01*
X30320028Y-49828530D01*
X30219996Y-50070028D01*
X30169000Y-50326402D01*
X30169000Y-50587798D01*
X30219996Y-50844172D01*
X30320028Y-51085670D01*
X30465252Y-51303013D01*
X30650087Y-51487848D01*
X30867430Y-51633072D01*
X31082913Y-51722328D01*
X30875050Y-51808428D01*
X30657707Y-51953652D01*
X30472872Y-52138487D01*
X30327648Y-52355830D01*
X30227616Y-52597328D01*
X30176620Y-52853702D01*
X30176620Y-53115098D01*
X30227616Y-53371472D01*
X30327648Y-53612970D01*
X30472872Y-53830313D01*
X30573159Y-53930600D01*
X25082894Y-53930600D01*
X25076516Y-53801124D01*
X25185916Y-53691724D01*
X25307347Y-53509989D01*
X25390990Y-53308056D01*
X25433631Y-53093685D01*
X25433631Y-52875115D01*
X25390990Y-52660744D01*
X25307347Y-52458811D01*
X25185916Y-52277076D01*
X25086768Y-52177928D01*
X25157350Y-52148692D01*
X25374693Y-52003468D01*
X25559528Y-51818633D01*
X25704752Y-51601290D01*
X25804784Y-51359792D01*
X25855780Y-51103418D01*
X25855780Y-50842022D01*
X25815294Y-50638483D01*
X26077408Y-50275447D01*
X26597687Y-49755170D01*
X26620647Y-49736327D01*
X26639490Y-49713367D01*
X26639494Y-49713363D01*
X26695875Y-49644662D01*
X26751776Y-49540080D01*
X26759811Y-49513592D01*
X26786199Y-49426602D01*
X26794910Y-49338156D01*
X26794910Y-49338147D01*
X26797821Y-49308591D01*
X26794910Y-49279034D01*
X26794910Y-45882560D01*
X34897197Y-45882560D01*
X34901440Y-45925638D01*
X34901440Y-45968937D01*
X34909887Y-46011402D01*
X34914130Y-46054482D01*
X34926696Y-46095908D01*
X34935143Y-46138371D01*
X34951711Y-46178371D01*
X34964278Y-46219797D01*
X34984685Y-46257975D01*
X35001253Y-46297975D01*
X35025306Y-46333973D01*
X35045713Y-46372152D01*
X35073177Y-46405617D01*
X35097230Y-46441615D01*
X35127843Y-46472228D01*
X35155307Y-46505693D01*
X35188772Y-46533157D01*
X35219385Y-46563770D01*
X35255383Y-46587823D01*
X35288848Y-46615287D01*
X35327027Y-46635694D01*
X35363025Y-46659747D01*
X35403025Y-46676315D01*
X35441203Y-46696722D01*
X35482629Y-46709289D01*
X35522629Y-46725857D01*
X35565092Y-46734304D01*
X35606518Y-46746870D01*
X35649598Y-46751113D01*
X35692063Y-46759560D01*
X35735361Y-46759560D01*
X35778440Y-46763803D01*
X35821519Y-46759560D01*
X35864817Y-46759560D01*
X35907282Y-46751113D01*
X35950362Y-46746870D01*
X35991788Y-46734304D01*
X36034251Y-46725857D01*
X36074251Y-46709289D01*
X36115677Y-46696722D01*
X36153855Y-46676315D01*
X36193855Y-46659747D01*
X36229853Y-46635694D01*
X36268032Y-46615287D01*
X36301497Y-46587823D01*
X36337495Y-46563770D01*
X36368108Y-46533157D01*
X36401573Y-46505693D01*
X36429037Y-46472228D01*
X36459650Y-46441615D01*
X36483703Y-46405617D01*
X36511167Y-46372152D01*
X36531574Y-46333973D01*
X36555627Y-46297975D01*
X36572195Y-46257975D01*
X36592602Y-46219797D01*
X36605169Y-46178371D01*
X36621737Y-46138371D01*
X36630184Y-46095908D01*
X36642750Y-46054482D01*
X36646993Y-46011402D01*
X36655440Y-45968937D01*
X36655440Y-45925638D01*
X36659683Y-45882560D01*
X36655440Y-45839481D01*
X36655440Y-40060863D01*
X36646993Y-40018398D01*
X36642750Y-39975318D01*
X36630184Y-39933892D01*
X36621737Y-39891429D01*
X36605169Y-39851429D01*
X36592602Y-39810003D01*
X36572195Y-39771825D01*
X36555627Y-39731825D01*
X36531574Y-39695827D01*
X36511167Y-39657648D01*
X36483703Y-39624183D01*
X36459650Y-39588185D01*
X36429037Y-39557572D01*
X36401573Y-39524107D01*
X36368109Y-39496644D01*
X36337495Y-39466030D01*
X36301493Y-39441974D01*
X36268031Y-39414513D01*
X36229857Y-39394109D01*
X36193855Y-39370053D01*
X36153851Y-39353483D01*
X36115676Y-39333078D01*
X36074254Y-39320513D01*
X36034251Y-39303943D01*
X35991785Y-39295496D01*
X35950361Y-39282930D01*
X35907283Y-39278687D01*
X35864817Y-39270240D01*
X35821519Y-39270240D01*
X35778440Y-39265997D01*
X35735361Y-39270240D01*
X35692063Y-39270240D01*
X35649598Y-39278687D01*
X35606518Y-39282930D01*
X35565092Y-39295496D01*
X35522629Y-39303943D01*
X35482629Y-39320511D01*
X35441203Y-39333078D01*
X35403025Y-39353485D01*
X35363025Y-39370053D01*
X35327027Y-39394106D01*
X35288848Y-39414513D01*
X35255383Y-39441977D01*
X35219385Y-39466030D01*
X35188772Y-39496643D01*
X35155307Y-39524107D01*
X35127844Y-39557571D01*
X35097230Y-39588185D01*
X35073174Y-39624187D01*
X35045713Y-39657649D01*
X35025309Y-39695823D01*
X35001253Y-39731825D01*
X34984683Y-39771829D01*
X34964278Y-39810004D01*
X34951713Y-39851426D01*
X34935143Y-39891429D01*
X34926696Y-39933895D01*
X34914130Y-39975319D01*
X34909887Y-40018397D01*
X34901440Y-40060863D01*
X34901440Y-40104162D01*
X34901441Y-45514352D01*
X34901440Y-45514362D01*
X34901440Y-45839481D01*
X34897197Y-45882560D01*
X26794910Y-45882560D01*
X26794910Y-39918623D01*
X31820600Y-39918623D01*
X31820600Y-39961922D01*
X31820601Y-43093618D01*
X31820600Y-43093623D01*
X31820600Y-43266377D01*
X31829049Y-43308852D01*
X31833291Y-43351922D01*
X31845854Y-43393338D01*
X31854303Y-43435811D01*
X31870875Y-43475820D01*
X31883439Y-43517237D01*
X31903841Y-43555407D01*
X31920413Y-43595415D01*
X31944471Y-43631420D01*
X31964874Y-43669592D01*
X31992333Y-43703050D01*
X32016390Y-43739055D01*
X32047009Y-43769674D01*
X32074468Y-43803133D01*
X32107927Y-43830592D01*
X32138545Y-43861210D01*
X32174548Y-43885267D01*
X32208009Y-43912727D01*
X32246183Y-43933131D01*
X32282185Y-43957187D01*
X32322189Y-43973757D01*
X32360364Y-43994162D01*
X32401786Y-44006727D01*
X32441789Y-44023297D01*
X32484255Y-44031744D01*
X32525679Y-44044310D01*
X32568757Y-44048553D01*
X32611223Y-44057000D01*
X32654521Y-44057000D01*
X32697600Y-44061243D01*
X32740679Y-44057000D01*
X32783977Y-44057000D01*
X32826442Y-44048553D01*
X32869522Y-44044310D01*
X32910948Y-44031744D01*
X32953411Y-44023297D01*
X32993411Y-44006729D01*
X33034837Y-43994162D01*
X33073015Y-43973755D01*
X33113015Y-43957187D01*
X33149013Y-43933134D01*
X33187192Y-43912727D01*
X33220657Y-43885263D01*
X33256655Y-43861210D01*
X33287268Y-43830597D01*
X33320733Y-43803133D01*
X33348197Y-43769668D01*
X33378810Y-43739055D01*
X33402863Y-43703057D01*
X33430327Y-43669592D01*
X33450734Y-43631413D01*
X33474787Y-43595415D01*
X33491355Y-43555415D01*
X33511762Y-43517237D01*
X33524329Y-43475811D01*
X33540897Y-43435811D01*
X33549344Y-43393348D01*
X33561910Y-43351922D01*
X33566153Y-43308842D01*
X33574600Y-43266377D01*
X33574600Y-39918623D01*
X33566153Y-39876158D01*
X33561910Y-39833078D01*
X33549344Y-39791652D01*
X33540897Y-39749189D01*
X33524329Y-39709189D01*
X33511762Y-39667763D01*
X33491355Y-39629585D01*
X33474787Y-39589585D01*
X33450734Y-39553587D01*
X33430327Y-39515408D01*
X33402863Y-39481943D01*
X33378810Y-39445945D01*
X33348197Y-39415332D01*
X33320733Y-39381867D01*
X33287269Y-39354404D01*
X33256655Y-39323790D01*
X33220653Y-39299734D01*
X33187191Y-39272273D01*
X33149017Y-39251869D01*
X33113015Y-39227813D01*
X33073011Y-39211243D01*
X33034836Y-39190838D01*
X32993414Y-39178273D01*
X32953411Y-39161703D01*
X32910945Y-39153256D01*
X32869521Y-39140690D01*
X32826443Y-39136447D01*
X32783977Y-39128000D01*
X32740679Y-39128000D01*
X32697600Y-39123757D01*
X32654521Y-39128000D01*
X32611223Y-39128000D01*
X32568758Y-39136447D01*
X32525678Y-39140690D01*
X32484252Y-39153256D01*
X32441789Y-39161703D01*
X32401789Y-39178271D01*
X32360363Y-39190838D01*
X32322185Y-39211245D01*
X32282185Y-39227813D01*
X32246187Y-39251866D01*
X32208008Y-39272273D01*
X32174543Y-39299737D01*
X32138545Y-39323790D01*
X32107932Y-39354403D01*
X32074467Y-39381867D01*
X32047004Y-39415331D01*
X32016390Y-39445945D01*
X31992334Y-39481947D01*
X31964873Y-39515409D01*
X31944469Y-39553583D01*
X31920413Y-39589585D01*
X31903843Y-39629589D01*
X31883438Y-39667764D01*
X31870873Y-39709186D01*
X31854303Y-39749189D01*
X31845856Y-39791655D01*
X31833290Y-39833079D01*
X31829047Y-39876157D01*
X31820600Y-39918623D01*
X26794910Y-39918623D01*
X26794910Y-38087264D01*
X59839693Y-38087264D01*
X59940085Y-39593150D01*
X59955155Y-39694162D01*
X59994729Y-39810530D01*
X60056246Y-39916942D01*
X60136888Y-40008793D01*
X60120902Y-40061492D01*
X60115405Y-40117305D01*
X60062038Y-40176087D01*
X59997015Y-40280393D01*
X59953590Y-40395380D01*
X59933433Y-40516629D01*
X59846345Y-41822957D01*
X59860104Y-42001656D01*
X59898587Y-42118390D01*
X59959103Y-42225373D01*
X60227604Y-42607125D01*
X60350607Y-42737482D01*
X60453900Y-42804103D01*
X60568206Y-42849291D01*
X60880292Y-42938459D01*
X61052543Y-42962584D01*
X61629457Y-42962584D01*
X61801708Y-42938459D01*
X62113794Y-42849291D01*
X62277320Y-42775928D01*
X62374170Y-42700247D01*
X62454396Y-42607125D01*
X62722897Y-42225373D01*
X62803994Y-42065543D01*
X62831771Y-41945809D01*
X62835655Y-41822957D01*
X62748567Y-40516629D01*
X62733497Y-40415618D01*
X62693923Y-40299250D01*
X62632407Y-40192838D01*
X62566659Y-40117951D01*
X62561098Y-40061492D01*
X62545116Y-40008806D01*
X62613309Y-39933692D01*
X62678333Y-39829387D01*
X62721758Y-39714400D01*
X62741915Y-39593150D01*
X62842307Y-38087264D01*
X62828547Y-37908564D01*
X62790065Y-37791830D01*
X62729548Y-37684847D01*
X62550547Y-37430346D01*
X62427544Y-37299989D01*
X62324251Y-37233369D01*
X62209946Y-37188181D01*
X61705556Y-37044069D01*
X61533305Y-37019944D01*
X61148695Y-37019944D01*
X60976444Y-37044069D01*
X60472054Y-37188181D01*
X60308529Y-37261543D01*
X60211678Y-37337224D01*
X60131453Y-37430346D01*
X59952452Y-37684847D01*
X59871354Y-37844678D01*
X59843577Y-37964412D01*
X59839693Y-38087264D01*
X26794910Y-38087264D01*
X26794910Y-37872815D01*
X26964196Y-37703530D01*
X26972732Y-37702689D01*
X27070769Y-37672950D01*
X49932594Y-37672950D01*
X49962150Y-37675861D01*
X49991706Y-37672950D01*
X49991716Y-37672950D01*
X50080162Y-37664239D01*
X50193640Y-37629816D01*
X50298221Y-37573916D01*
X50389887Y-37498687D01*
X50408739Y-37475716D01*
X51402357Y-36482098D01*
X51428928Y-36493104D01*
X51685302Y-36544100D01*
X51946698Y-36544100D01*
X52203072Y-36493104D01*
X52444570Y-36393072D01*
X52661913Y-36247848D01*
X52846748Y-36063013D01*
X52991972Y-35845670D01*
X53086000Y-35618667D01*
X53180028Y-35845670D01*
X53325252Y-36063013D01*
X53510087Y-36247848D01*
X53727430Y-36393072D01*
X53968928Y-36493104D01*
X54225302Y-36544100D01*
X54486698Y-36544100D01*
X54743072Y-36493104D01*
X54984570Y-36393072D01*
X55201913Y-36247848D01*
X55386748Y-36063013D01*
X55531972Y-35845670D01*
X55626000Y-35618667D01*
X55720028Y-35845670D01*
X55865252Y-36063013D01*
X56050087Y-36247848D01*
X56267430Y-36393072D01*
X56508928Y-36493104D01*
X56765302Y-36544100D01*
X57026698Y-36544100D01*
X57283072Y-36493104D01*
X57524570Y-36393072D01*
X57741913Y-36247848D01*
X57926748Y-36063013D01*
X58071972Y-35845670D01*
X58166000Y-35618667D01*
X58260028Y-35845670D01*
X58405252Y-36063013D01*
X58590087Y-36247848D01*
X58807430Y-36393072D01*
X59048928Y-36493104D01*
X59305302Y-36544100D01*
X59566698Y-36544100D01*
X59823072Y-36493104D01*
X60064570Y-36393072D01*
X60281913Y-36247848D01*
X60466748Y-36063013D01*
X60611972Y-35845670D01*
X60706000Y-35618667D01*
X60800028Y-35845670D01*
X60945252Y-36063013D01*
X61130087Y-36247848D01*
X61347430Y-36393072D01*
X61588928Y-36493104D01*
X61845302Y-36544100D01*
X62106698Y-36544100D01*
X62363072Y-36493104D01*
X62604570Y-36393072D01*
X62821913Y-36247848D01*
X63006748Y-36063013D01*
X63151972Y-35845670D01*
X63246000Y-35618667D01*
X63340028Y-35845670D01*
X63485252Y-36063013D01*
X63670087Y-36247848D01*
X63887430Y-36393072D01*
X64128928Y-36493104D01*
X64385302Y-36544100D01*
X64646698Y-36544100D01*
X64903072Y-36493104D01*
X65144570Y-36393072D01*
X65361913Y-36247848D01*
X65546748Y-36063013D01*
X65691972Y-35845670D01*
X65786000Y-35618667D01*
X65880028Y-35845670D01*
X66025252Y-36063013D01*
X66210087Y-36247848D01*
X66427430Y-36393072D01*
X66668928Y-36493104D01*
X66925302Y-36544100D01*
X67186698Y-36544100D01*
X67443072Y-36493104D01*
X67684570Y-36393072D01*
X67901913Y-36247848D01*
X68086748Y-36063013D01*
X68231972Y-35845670D01*
X68332004Y-35604172D01*
X68383000Y-35347798D01*
X68383000Y-35086402D01*
X68332004Y-34830028D01*
X68231972Y-34588530D01*
X68086748Y-34371187D01*
X67901913Y-34186352D01*
X67684570Y-34041128D01*
X67443072Y-33941096D01*
X67186698Y-33890100D01*
X66925302Y-33890100D01*
X66668928Y-33941096D01*
X66427430Y-34041128D01*
X66210087Y-34186352D01*
X66025252Y-34371187D01*
X65880028Y-34588530D01*
X65786000Y-34815533D01*
X65691972Y-34588530D01*
X65546748Y-34371187D01*
X65361913Y-34186352D01*
X65144570Y-34041128D01*
X64903072Y-33941096D01*
X64646698Y-33890100D01*
X64385302Y-33890100D01*
X64128928Y-33941096D01*
X63887430Y-34041128D01*
X63670087Y-34186352D01*
X63485252Y-34371187D01*
X63340028Y-34588530D01*
X63246000Y-34815533D01*
X63151972Y-34588530D01*
X63006748Y-34371187D01*
X62821913Y-34186352D01*
X62604570Y-34041128D01*
X62363072Y-33941096D01*
X62106698Y-33890100D01*
X61845302Y-33890100D01*
X61588928Y-33941096D01*
X61347430Y-34041128D01*
X61130087Y-34186352D01*
X60945252Y-34371187D01*
X60800028Y-34588530D01*
X60706000Y-34815533D01*
X60611972Y-34588530D01*
X60466748Y-34371187D01*
X60281913Y-34186352D01*
X60064570Y-34041128D01*
X59823072Y-33941096D01*
X59566698Y-33890100D01*
X59305302Y-33890100D01*
X59048928Y-33941096D01*
X58807430Y-34041128D01*
X58590087Y-34186352D01*
X58405252Y-34371187D01*
X58260028Y-34588530D01*
X58166000Y-34815533D01*
X58071972Y-34588530D01*
X57926748Y-34371187D01*
X57741913Y-34186352D01*
X57524570Y-34041128D01*
X57283072Y-33941096D01*
X57026698Y-33890100D01*
X56765302Y-33890100D01*
X56508928Y-33941096D01*
X56267430Y-34041128D01*
X56050087Y-34186352D01*
X55865252Y-34371187D01*
X55720028Y-34588530D01*
X55626000Y-34815533D01*
X55531972Y-34588530D01*
X55386748Y-34371187D01*
X55201913Y-34186352D01*
X54984570Y-34041128D01*
X54743072Y-33941096D01*
X54486698Y-33890100D01*
X54225302Y-33890100D01*
X53968928Y-33941096D01*
X53727430Y-34041128D01*
X53510087Y-34186352D01*
X53325252Y-34371187D01*
X53180028Y-34588530D01*
X53086000Y-34815533D01*
X52991972Y-34588530D01*
X52846748Y-34371187D01*
X52661913Y-34186352D01*
X52444570Y-34041128D01*
X52203072Y-33941096D01*
X51946698Y-33890100D01*
X51685302Y-33890100D01*
X51428928Y-33941096D01*
X51187430Y-34041128D01*
X50970087Y-34186352D01*
X50785252Y-34371187D01*
X50640028Y-34588530D01*
X50546000Y-34815533D01*
X50451972Y-34588530D01*
X50306748Y-34371187D01*
X50121913Y-34186352D01*
X49904570Y-34041128D01*
X49663072Y-33941096D01*
X49406698Y-33890100D01*
X49145302Y-33890100D01*
X48888928Y-33941096D01*
X48647430Y-34041128D01*
X48430087Y-34186352D01*
X48245252Y-34371187D01*
X48100028Y-34588530D01*
X48006000Y-34815533D01*
X47911972Y-34588530D01*
X47766748Y-34371187D01*
X47581913Y-34186352D01*
X47364570Y-34041128D01*
X47123072Y-33941096D01*
X46866698Y-33890100D01*
X46605302Y-33890100D01*
X46348928Y-33941096D01*
X46107430Y-34041128D01*
X45890087Y-34186352D01*
X45705252Y-34371187D01*
X45560028Y-34588530D01*
X45466000Y-34815533D01*
X45371972Y-34588530D01*
X45226748Y-34371187D01*
X45041913Y-34186352D01*
X44824570Y-34041128D01*
X44583072Y-33941096D01*
X44326698Y-33890100D01*
X44065302Y-33890100D01*
X43808928Y-33941096D01*
X43567430Y-34041128D01*
X43350087Y-34186352D01*
X43165252Y-34371187D01*
X43020028Y-34588530D01*
X42926000Y-34815533D01*
X42831972Y-34588530D01*
X42686748Y-34371187D01*
X42501913Y-34186352D01*
X42284570Y-34041128D01*
X42043072Y-33941096D01*
X41786698Y-33890100D01*
X41525302Y-33890100D01*
X41268928Y-33941096D01*
X41027430Y-34041128D01*
X40810087Y-34186352D01*
X40625252Y-34371187D01*
X40480028Y-34588530D01*
X40379996Y-34830028D01*
X40329000Y-35086402D01*
X40329000Y-35347798D01*
X40379996Y-35604172D01*
X40480028Y-35845670D01*
X40584444Y-36001940D01*
X37647556Y-36001940D01*
X37751972Y-35845670D01*
X37852004Y-35604172D01*
X37903000Y-35347798D01*
X37903000Y-35086402D01*
X37852004Y-34830028D01*
X37751972Y-34588530D01*
X37606748Y-34371187D01*
X37421913Y-34186352D01*
X37204570Y-34041128D01*
X36963072Y-33941096D01*
X36706698Y-33890100D01*
X36445302Y-33890100D01*
X36188928Y-33941096D01*
X35947430Y-34041128D01*
X35730087Y-34186352D01*
X35545252Y-34371187D01*
X35400028Y-34588530D01*
X35306000Y-34815533D01*
X35211972Y-34588530D01*
X35066748Y-34371187D01*
X34881913Y-34186352D01*
X34664570Y-34041128D01*
X34423072Y-33941096D01*
X34166698Y-33890100D01*
X33905302Y-33890100D01*
X33648928Y-33941096D01*
X33407430Y-34041128D01*
X33190087Y-34186352D01*
X33005252Y-34371187D01*
X32860028Y-34588530D01*
X32766000Y-34815533D01*
X32671972Y-34588530D01*
X32526748Y-34371187D01*
X32341913Y-34186352D01*
X32124570Y-34041128D01*
X31883072Y-33941096D01*
X31626698Y-33890100D01*
X31365302Y-33890100D01*
X31108928Y-33941096D01*
X30867430Y-34041128D01*
X30650087Y-34186352D01*
X30465252Y-34371187D01*
X30320028Y-34588530D01*
X30219996Y-34830028D01*
X30169000Y-35086402D01*
X30169000Y-35347798D01*
X30219996Y-35604172D01*
X30320028Y-35845670D01*
X30424444Y-36001940D01*
X26605579Y-36001940D01*
X26576020Y-35999029D01*
X26546461Y-36001940D01*
X26546454Y-36001940D01*
X26469202Y-36009549D01*
X26458007Y-36010651D01*
X26344530Y-36045074D01*
X26239948Y-36100974D01*
X26213924Y-36122332D01*
X26148283Y-36176203D01*
X26129435Y-36199169D01*
X25338134Y-36990471D01*
X25315163Y-37009323D01*
X25239934Y-37100990D01*
X25216866Y-37144147D01*
X25149730Y-37099288D01*
X24922727Y-37005260D01*
X25149730Y-36911232D01*
X25367073Y-36766008D01*
X25551908Y-36581173D01*
X25697132Y-36363830D01*
X25797164Y-36122332D01*
X25848160Y-35865958D01*
X25848160Y-35604562D01*
X25797164Y-35348188D01*
X25697132Y-35106690D01*
X25551908Y-34889347D01*
X25367073Y-34704512D01*
X25149730Y-34559288D01*
X24908232Y-34459256D01*
X24651858Y-34408260D01*
X24390462Y-34408260D01*
X24134088Y-34459256D01*
X23892590Y-34559288D01*
X23675247Y-34704512D01*
X23641000Y-34738759D01*
X23641000Y-30879668D01*
X26277603Y-32063970D01*
X26301204Y-32071896D01*
X26318587Y-32074638D01*
X31203007Y-32501358D01*
X31232275Y-32500527D01*
X34386955Y-32043327D01*
X34411126Y-32037358D01*
X34430539Y-32028590D01*
X37371859Y-30390290D01*
X37392316Y-30376102D01*
X37409613Y-30358195D01*
X37426338Y-30330412D01*
X38518538Y-27843752D01*
X38526268Y-27820086D01*
X38529232Y-27795367D01*
X38528262Y-27776787D01*
X38175202Y-24977707D01*
X38169680Y-24953431D01*
X38153618Y-24921310D01*
X37267250Y-23641000D01*
X55370672Y-23641000D01*
X63342270Y-24381691D01*
G36*
X61959643Y-37900838D02*
G01*
X62086991Y-38081900D01*
X61992921Y-39492961D01*
X61958711Y-39524966D01*
X60723289Y-39524966D01*
X60689079Y-39492961D01*
X60595009Y-38081900D01*
X60722357Y-37900838D01*
X61166484Y-37773944D01*
X61515516Y-37773944D01*
X61959643Y-37900838D01*
G37*
X61959643Y-37900838D02*
X62086991Y-38081900D01*
X61992921Y-39492961D01*
X61958711Y-39524966D01*
X60723289Y-39524966D01*
X60689079Y-39492961D01*
X60595009Y-38081900D01*
X60722357Y-37900838D01*
X61166484Y-37773944D01*
X61515516Y-37773944D01*
X61959643Y-37900838D01*
G36*
X61999573Y-40616818D02*
G01*
X62080339Y-41828321D01*
X61863490Y-42136635D01*
X61611671Y-42208584D01*
X61070329Y-42208584D01*
X60818510Y-42136635D01*
X60601661Y-41828321D01*
X60682427Y-40616818D01*
X60823289Y-40485034D01*
X61858711Y-40485034D01*
X61999573Y-40616818D01*
G37*
X61999573Y-40616818D02*
X62080339Y-41828321D01*
X61863490Y-42136635D01*
X61611671Y-42208584D01*
X61070329Y-42208584D01*
X60818510Y-42136635D01*
X60601661Y-41828321D01*
X60682427Y-40616818D01*
X60823289Y-40485034D01*
X61858711Y-40485034D01*
X61999573Y-40616818D01*
M02*
