G04 #@! TF.GenerationSoftware,KiCad,Pcbnew,5.1.5+dfsg1-2build2*
G04 #@! TF.CreationDate,2021-06-16T02:42:27+02:00*
G04 #@! TF.ProjectId,circuit9,63697263-7569-4743-992e-6b696361645f,rev?*
G04 #@! TF.SameCoordinates,Original*
G04 #@! TF.FileFunction,Legend,Bot*
G04 #@! TF.FilePolarity,Positive*
%FSLAX46Y46*%
G04 Gerber Fmt 4.6, Leading zero omitted, Abs format (unit mm)*
G04 Created by KiCad (PCBNEW 5.1.5+dfsg1-2build2) date 2021-06-16 02:42:27*
%MOMM*%
%LPD*%
G04 APERTURE LIST*
%ADD10C,0.150000*%
%ADD11C,0.120000*%
%ADD12C,0.200000*%
%ADD13C,0.300000*%
%ADD14O,1.700000X1.700000*%
%ADD15R,1.700000X1.700000*%
%ADD16C,0.100000*%
%ADD17R,6.000000X3.000000*%
G04 APERTURE END LIST*
D10*
X31841433Y-48500133D02*
X31841433Y-47520133D01*
X31674766Y-47520133D01*
X31574766Y-47566800D01*
X31508100Y-47660133D01*
X31474766Y-47753466D01*
X31441433Y-47940133D01*
X31441433Y-48080133D01*
X31474766Y-48266800D01*
X31508100Y-48360133D01*
X31574766Y-48453466D01*
X31674766Y-48500133D01*
X31841433Y-48500133D01*
X30774766Y-48500133D02*
X31174766Y-48500133D01*
X30974766Y-48500133D02*
X30974766Y-47520133D01*
X31041433Y-47660133D01*
X31108100Y-47753466D01*
X31174766Y-47800133D01*
X30108100Y-48500133D02*
X30508100Y-48500133D01*
X30308100Y-48500133D02*
X30308100Y-47520133D01*
X30374766Y-47660133D01*
X30441433Y-47753466D01*
X30508100Y-47800133D01*
X29274766Y-48500133D02*
X29274766Y-47520133D01*
X29108100Y-47520133D01*
X29008100Y-47566800D01*
X28941433Y-47660133D01*
X28908100Y-47753466D01*
X28874766Y-47940133D01*
X28874766Y-48080133D01*
X28908100Y-48266800D01*
X28941433Y-48360133D01*
X29008100Y-48453466D01*
X29108100Y-48500133D01*
X29274766Y-48500133D01*
X28208100Y-48500133D02*
X28608100Y-48500133D01*
X28408100Y-48500133D02*
X28408100Y-47520133D01*
X28474766Y-47660133D01*
X28541433Y-47753466D01*
X28608100Y-47800133D01*
X27941433Y-47613466D02*
X27908100Y-47566800D01*
X27841433Y-47520133D01*
X27674766Y-47520133D01*
X27608100Y-47566800D01*
X27574766Y-47613466D01*
X27541433Y-47706800D01*
X27541433Y-47800133D01*
X27574766Y-47940133D01*
X27974766Y-48500133D01*
X27541433Y-48500133D01*
X26708100Y-48500133D02*
X26708100Y-47520133D01*
X26541433Y-47520133D01*
X26441433Y-47566800D01*
X26374766Y-47660133D01*
X26341433Y-47753466D01*
X26308100Y-47940133D01*
X26308100Y-48080133D01*
X26341433Y-48266800D01*
X26374766Y-48360133D01*
X26441433Y-48453466D01*
X26541433Y-48500133D01*
X26708100Y-48500133D01*
X25641433Y-48500133D02*
X26041433Y-48500133D01*
X25841433Y-48500133D02*
X25841433Y-47520133D01*
X25908100Y-47660133D01*
X25974766Y-47753466D01*
X26041433Y-47800133D01*
X25408100Y-47520133D02*
X24974766Y-47520133D01*
X25208100Y-47893466D01*
X25108100Y-47893466D01*
X25041433Y-47940133D01*
X25008100Y-47986800D01*
X24974766Y-48080133D01*
X24974766Y-48313466D01*
X25008100Y-48406800D01*
X25041433Y-48453466D01*
X25108100Y-48500133D01*
X25308100Y-48500133D01*
X25374766Y-48453466D01*
X25408100Y-48406800D01*
X56500542Y-45490380D02*
X56167209Y-46490380D01*
X55833876Y-45490380D01*
X55500542Y-46490380D02*
X55500542Y-45823714D01*
X55500542Y-46014190D02*
X55452923Y-45918952D01*
X55405304Y-45871333D01*
X55310066Y-45823714D01*
X55214828Y-45823714D01*
X54500542Y-46442761D02*
X54595780Y-46490380D01*
X54786257Y-46490380D01*
X54881495Y-46442761D01*
X54929114Y-46347523D01*
X54929114Y-45966571D01*
X54881495Y-45871333D01*
X54786257Y-45823714D01*
X54595780Y-45823714D01*
X54500542Y-45871333D01*
X54452923Y-45966571D01*
X54452923Y-46061809D01*
X54929114Y-46157047D01*
X54167209Y-45823714D02*
X53786257Y-45823714D01*
X54024352Y-46490380D02*
X54024352Y-45633238D01*
X53976733Y-45538000D01*
X53881495Y-45490380D01*
X53786257Y-45490380D01*
X57191019Y-47235619D02*
X57143400Y-47188000D01*
X57048161Y-47140380D01*
X56810066Y-47140380D01*
X56714828Y-47188000D01*
X56667209Y-47235619D01*
X56619590Y-47330857D01*
X56619590Y-47426095D01*
X56667209Y-47568952D01*
X57238638Y-48140380D01*
X56619590Y-48140380D01*
X56191019Y-48045142D02*
X56143400Y-48092761D01*
X56191019Y-48140380D01*
X56238638Y-48092761D01*
X56191019Y-48045142D01*
X56191019Y-48140380D01*
X55238638Y-47140380D02*
X55714828Y-47140380D01*
X55762447Y-47616571D01*
X55714828Y-47568952D01*
X55619590Y-47521333D01*
X55381495Y-47521333D01*
X55286257Y-47568952D01*
X55238638Y-47616571D01*
X55191019Y-47711809D01*
X55191019Y-47949904D01*
X55238638Y-48045142D01*
X55286257Y-48092761D01*
X55381495Y-48140380D01*
X55619590Y-48140380D01*
X55714828Y-48092761D01*
X55762447Y-48045142D01*
X54905304Y-47140380D02*
X54571971Y-48140380D01*
X54238638Y-47140380D01*
X53905304Y-47759428D02*
X53143400Y-47759428D01*
X53524352Y-48140380D02*
X53524352Y-47378476D01*
X50088800Y-47142400D02*
X49784000Y-46837600D01*
X50088800Y-51435000D02*
X50088800Y-47142400D01*
X50723800Y-52070000D02*
X50088800Y-51435000D01*
X47498000Y-38760400D02*
X49072800Y-39116000D01*
D11*
X46775533Y-38001533D02*
X46842200Y-38034866D01*
X46975533Y-38034866D01*
X47042200Y-38001533D01*
X47075533Y-37968200D01*
X47108866Y-37901533D01*
X47108866Y-37701533D01*
X47075533Y-37634866D01*
X47042200Y-37601533D01*
X46975533Y-37568200D01*
X46842200Y-37568200D01*
X46775533Y-37601533D01*
X46375533Y-38034866D02*
X46442200Y-38001533D01*
X46475533Y-37934866D01*
X46475533Y-37334866D01*
X46008866Y-38034866D02*
X46075533Y-38001533D01*
X46108866Y-37968200D01*
X46142200Y-37901533D01*
X46142200Y-37701533D01*
X46108866Y-37634866D01*
X46075533Y-37601533D01*
X46008866Y-37568200D01*
X45908866Y-37568200D01*
X45842200Y-37601533D01*
X45808866Y-37634866D01*
X45775533Y-37701533D01*
X45775533Y-37901533D01*
X45808866Y-37968200D01*
X45842200Y-38001533D01*
X45908866Y-38034866D01*
X46008866Y-38034866D01*
X45508866Y-38001533D02*
X45442200Y-38034866D01*
X45308866Y-38034866D01*
X45242200Y-38001533D01*
X45208866Y-37934866D01*
X45208866Y-37901533D01*
X45242200Y-37834866D01*
X45308866Y-37801533D01*
X45408866Y-37801533D01*
X45475533Y-37768200D01*
X45508866Y-37701533D01*
X45508866Y-37668200D01*
X45475533Y-37601533D01*
X45408866Y-37568200D01*
X45308866Y-37568200D01*
X45242200Y-37601533D01*
X44642200Y-38001533D02*
X44708866Y-38034866D01*
X44842200Y-38034866D01*
X44908866Y-38001533D01*
X44942200Y-37934866D01*
X44942200Y-37668200D01*
X44908866Y-37601533D01*
X44842200Y-37568200D01*
X44708866Y-37568200D01*
X44642200Y-37601533D01*
X44608866Y-37668200D01*
X44608866Y-37734866D01*
X44942200Y-37801533D01*
X43808866Y-38001533D02*
X43742200Y-38034866D01*
X43608866Y-38034866D01*
X43542200Y-38001533D01*
X43508866Y-37934866D01*
X43508866Y-37901533D01*
X43542200Y-37834866D01*
X43608866Y-37801533D01*
X43708866Y-37801533D01*
X43775533Y-37768200D01*
X43808866Y-37701533D01*
X43808866Y-37668200D01*
X43775533Y-37601533D01*
X43708866Y-37568200D01*
X43608866Y-37568200D01*
X43542200Y-37601533D01*
X43108866Y-38034866D02*
X43175533Y-38001533D01*
X43208866Y-37968200D01*
X43242200Y-37901533D01*
X43242200Y-37701533D01*
X43208866Y-37634866D01*
X43175533Y-37601533D01*
X43108866Y-37568200D01*
X43008866Y-37568200D01*
X42942200Y-37601533D01*
X42908866Y-37634866D01*
X42875533Y-37701533D01*
X42875533Y-37901533D01*
X42908866Y-37968200D01*
X42942200Y-38001533D01*
X43008866Y-38034866D01*
X43108866Y-38034866D01*
X42475533Y-38034866D02*
X42542200Y-38001533D01*
X42575533Y-37934866D01*
X42575533Y-37334866D01*
X41908866Y-38034866D02*
X41908866Y-37334866D01*
X41908866Y-38001533D02*
X41975533Y-38034866D01*
X42108866Y-38034866D01*
X42175533Y-38001533D01*
X42208866Y-37968200D01*
X42242200Y-37901533D01*
X42242200Y-37701533D01*
X42208866Y-37634866D01*
X42175533Y-37601533D01*
X42108866Y-37568200D01*
X41975533Y-37568200D01*
X41908866Y-37601533D01*
X41308866Y-38001533D02*
X41375533Y-38034866D01*
X41508866Y-38034866D01*
X41575533Y-38001533D01*
X41608866Y-37934866D01*
X41608866Y-37668200D01*
X41575533Y-37601533D01*
X41508866Y-37568200D01*
X41375533Y-37568200D01*
X41308866Y-37601533D01*
X41275533Y-37668200D01*
X41275533Y-37734866D01*
X41608866Y-37801533D01*
X40975533Y-38034866D02*
X40975533Y-37568200D01*
X40975533Y-37701533D02*
X40942200Y-37634866D01*
X40908866Y-37601533D01*
X40842200Y-37568200D01*
X40775533Y-37568200D01*
X40008866Y-37568200D02*
X40008866Y-38168200D01*
X40042200Y-38234866D01*
X40108866Y-38268200D01*
X40142200Y-38268200D01*
X40008866Y-37334866D02*
X40042200Y-37368200D01*
X40008866Y-37401533D01*
X39975533Y-37368200D01*
X40008866Y-37334866D01*
X40008866Y-37401533D01*
X39375533Y-37568200D02*
X39375533Y-38034866D01*
X39675533Y-37568200D02*
X39675533Y-37934866D01*
X39642200Y-38001533D01*
X39575533Y-38034866D01*
X39475533Y-38034866D01*
X39408866Y-38001533D01*
X39375533Y-37968200D01*
X39042200Y-38034866D02*
X39042200Y-37568200D01*
X39042200Y-37634866D02*
X39008866Y-37601533D01*
X38942200Y-37568200D01*
X38842200Y-37568200D01*
X38775533Y-37601533D01*
X38742200Y-37668200D01*
X38742200Y-38034866D01*
X38742200Y-37668200D02*
X38708866Y-37601533D01*
X38642200Y-37568200D01*
X38542200Y-37568200D01*
X38475533Y-37601533D01*
X38442200Y-37668200D01*
X38442200Y-38034866D01*
X38108866Y-37568200D02*
X38108866Y-38268200D01*
X38108866Y-37601533D02*
X38042200Y-37568200D01*
X37908866Y-37568200D01*
X37842200Y-37601533D01*
X37808866Y-37634866D01*
X37775533Y-37701533D01*
X37775533Y-37901533D01*
X37808866Y-37968200D01*
X37842200Y-38001533D01*
X37908866Y-38034866D01*
X38042200Y-38034866D01*
X38108866Y-38001533D01*
X37208866Y-38001533D02*
X37275533Y-38034866D01*
X37408866Y-38034866D01*
X37475533Y-38001533D01*
X37508866Y-37934866D01*
X37508866Y-37668200D01*
X37475533Y-37601533D01*
X37408866Y-37568200D01*
X37275533Y-37568200D01*
X37208866Y-37601533D01*
X37175533Y-37668200D01*
X37175533Y-37734866D01*
X37508866Y-37801533D01*
X36875533Y-38034866D02*
X36875533Y-37568200D01*
X36875533Y-37701533D02*
X36842200Y-37634866D01*
X36808866Y-37601533D01*
X36742200Y-37568200D01*
X36675533Y-37568200D01*
X36008866Y-37568200D02*
X35742200Y-37568200D01*
X35908866Y-37334866D02*
X35908866Y-37934866D01*
X35875533Y-38001533D01*
X35808866Y-38034866D01*
X35742200Y-38034866D01*
X35408866Y-38034866D02*
X35475533Y-38001533D01*
X35508866Y-37968200D01*
X35542200Y-37901533D01*
X35542200Y-37701533D01*
X35508866Y-37634866D01*
X35475533Y-37601533D01*
X35408866Y-37568200D01*
X35308866Y-37568200D01*
X35242200Y-37601533D01*
X35208866Y-37634866D01*
X35175533Y-37701533D01*
X35175533Y-37901533D01*
X35208866Y-37968200D01*
X35242200Y-38001533D01*
X35308866Y-38034866D01*
X35408866Y-38034866D01*
X34075533Y-38001533D02*
X34142200Y-38034866D01*
X34275533Y-38034866D01*
X34342200Y-38001533D01*
X34375533Y-37934866D01*
X34375533Y-37668200D01*
X34342200Y-37601533D01*
X34275533Y-37568200D01*
X34142200Y-37568200D01*
X34075533Y-37601533D01*
X34042200Y-37668200D01*
X34042200Y-37734866D01*
X34375533Y-37801533D01*
X33742200Y-37568200D02*
X33742200Y-38034866D01*
X33742200Y-37634866D02*
X33708866Y-37601533D01*
X33642200Y-37568200D01*
X33542200Y-37568200D01*
X33475533Y-37601533D01*
X33442200Y-37668200D01*
X33442200Y-38034866D01*
X32808866Y-38034866D02*
X32808866Y-37668200D01*
X32842200Y-37601533D01*
X32908866Y-37568200D01*
X33042200Y-37568200D01*
X33108866Y-37601533D01*
X32808866Y-38001533D02*
X32875533Y-38034866D01*
X33042200Y-38034866D01*
X33108866Y-38001533D01*
X33142200Y-37934866D01*
X33142200Y-37868200D01*
X33108866Y-37801533D01*
X33042200Y-37768200D01*
X32875533Y-37768200D01*
X32808866Y-37734866D01*
X32475533Y-38034866D02*
X32475533Y-37334866D01*
X32475533Y-37601533D02*
X32408866Y-37568200D01*
X32275533Y-37568200D01*
X32208866Y-37601533D01*
X32175533Y-37634866D01*
X32142200Y-37701533D01*
X32142200Y-37901533D01*
X32175533Y-37968200D01*
X32208866Y-38001533D01*
X32275533Y-38034866D01*
X32408866Y-38034866D01*
X32475533Y-38001533D01*
X31742200Y-38034866D02*
X31808866Y-38001533D01*
X31842200Y-37934866D01*
X31842200Y-37334866D01*
X31208866Y-38001533D02*
X31275533Y-38034866D01*
X31408866Y-38034866D01*
X31475533Y-38001533D01*
X31508866Y-37934866D01*
X31508866Y-37668200D01*
X31475533Y-37601533D01*
X31408866Y-37568200D01*
X31275533Y-37568200D01*
X31208866Y-37601533D01*
X31175533Y-37668200D01*
X31175533Y-37734866D01*
X31508866Y-37801533D01*
X47075533Y-39204866D02*
X47075533Y-38738200D01*
X47075533Y-38871533D02*
X47042200Y-38804866D01*
X47008866Y-38771533D01*
X46942200Y-38738200D01*
X46875533Y-38738200D01*
X46375533Y-39171533D02*
X46442200Y-39204866D01*
X46575533Y-39204866D01*
X46642200Y-39171533D01*
X46675533Y-39104866D01*
X46675533Y-38838200D01*
X46642200Y-38771533D01*
X46575533Y-38738200D01*
X46442200Y-38738200D01*
X46375533Y-38771533D01*
X46342200Y-38838200D01*
X46342200Y-38904866D01*
X46675533Y-38971533D01*
X46142200Y-38738200D02*
X45875533Y-38738200D01*
X46042200Y-39204866D02*
X46042200Y-38604866D01*
X46008866Y-38538200D01*
X45942200Y-38504866D01*
X45875533Y-38504866D01*
X45375533Y-39171533D02*
X45442200Y-39204866D01*
X45575533Y-39204866D01*
X45642200Y-39171533D01*
X45675533Y-39104866D01*
X45675533Y-38838200D01*
X45642200Y-38771533D01*
X45575533Y-38738200D01*
X45442200Y-38738200D01*
X45375533Y-38771533D01*
X45342200Y-38838200D01*
X45342200Y-38904866D01*
X45675533Y-38971533D01*
X45042200Y-39204866D02*
X45042200Y-38738200D01*
X45042200Y-38871533D02*
X45008866Y-38804866D01*
X44975533Y-38771533D01*
X44908866Y-38738200D01*
X44842200Y-38738200D01*
X44342200Y-39171533D02*
X44408866Y-39204866D01*
X44542200Y-39204866D01*
X44608866Y-39171533D01*
X44642200Y-39104866D01*
X44642200Y-38838200D01*
X44608866Y-38771533D01*
X44542200Y-38738200D01*
X44408866Y-38738200D01*
X44342200Y-38771533D01*
X44308866Y-38838200D01*
X44308866Y-38904866D01*
X44642200Y-38971533D01*
X44008866Y-38738200D02*
X44008866Y-39204866D01*
X44008866Y-38804866D02*
X43975533Y-38771533D01*
X43908866Y-38738200D01*
X43808866Y-38738200D01*
X43742200Y-38771533D01*
X43708866Y-38838200D01*
X43708866Y-39204866D01*
X43075533Y-39171533D02*
X43142200Y-39204866D01*
X43275533Y-39204866D01*
X43342200Y-39171533D01*
X43375533Y-39138200D01*
X43408866Y-39071533D01*
X43408866Y-38871533D01*
X43375533Y-38804866D01*
X43342200Y-38771533D01*
X43275533Y-38738200D01*
X43142200Y-38738200D01*
X43075533Y-38771533D01*
X42508866Y-39171533D02*
X42575533Y-39204866D01*
X42708866Y-39204866D01*
X42775533Y-39171533D01*
X42808866Y-39104866D01*
X42808866Y-38838200D01*
X42775533Y-38771533D01*
X42708866Y-38738200D01*
X42575533Y-38738200D01*
X42508866Y-38771533D01*
X42475533Y-38838200D01*
X42475533Y-38904866D01*
X42808866Y-38971533D01*
X41708866Y-38738200D02*
X41542200Y-39204866D01*
X41375533Y-38738200D01*
X41008866Y-39204866D02*
X41075533Y-39171533D01*
X41108866Y-39138200D01*
X41142200Y-39071533D01*
X41142200Y-38871533D01*
X41108866Y-38804866D01*
X41075533Y-38771533D01*
X41008866Y-38738200D01*
X40908866Y-38738200D01*
X40842200Y-38771533D01*
X40808866Y-38804866D01*
X40775533Y-38871533D01*
X40775533Y-39071533D01*
X40808866Y-39138200D01*
X40842200Y-39171533D01*
X40908866Y-39204866D01*
X41008866Y-39204866D01*
X40375533Y-39204866D02*
X40442200Y-39171533D01*
X40475533Y-39104866D01*
X40475533Y-38504866D01*
X40208866Y-38738200D02*
X39942200Y-38738200D01*
X40108866Y-38504866D02*
X40108866Y-39104866D01*
X40075533Y-39171533D01*
X40008866Y-39204866D01*
X39942200Y-39204866D01*
X39408866Y-39204866D02*
X39408866Y-38838200D01*
X39442200Y-38771533D01*
X39508866Y-38738200D01*
X39642200Y-38738200D01*
X39708866Y-38771533D01*
X39408866Y-39171533D02*
X39475533Y-39204866D01*
X39642200Y-39204866D01*
X39708866Y-39171533D01*
X39742200Y-39104866D01*
X39742200Y-39038200D01*
X39708866Y-38971533D01*
X39642200Y-38938200D01*
X39475533Y-38938200D01*
X39408866Y-38904866D01*
X38775533Y-38738200D02*
X38775533Y-39304866D01*
X38808866Y-39371533D01*
X38842200Y-39404866D01*
X38908866Y-39438200D01*
X39008866Y-39438200D01*
X39075533Y-39404866D01*
X38775533Y-39171533D02*
X38842200Y-39204866D01*
X38975533Y-39204866D01*
X39042200Y-39171533D01*
X39075533Y-39138200D01*
X39108866Y-39071533D01*
X39108866Y-38871533D01*
X39075533Y-38804866D01*
X39042200Y-38771533D01*
X38975533Y-38738200D01*
X38842200Y-38738200D01*
X38775533Y-38771533D01*
X38175533Y-39171533D02*
X38242200Y-39204866D01*
X38375533Y-39204866D01*
X38442200Y-39171533D01*
X38475533Y-39104866D01*
X38475533Y-38838200D01*
X38442200Y-38771533D01*
X38375533Y-38738200D01*
X38242200Y-38738200D01*
X38175533Y-38771533D01*
X38142200Y-38838200D01*
X38142200Y-38904866D01*
X38475533Y-38971533D01*
X37008866Y-38738200D02*
X37008866Y-39304866D01*
X37042200Y-39371533D01*
X37075533Y-39404866D01*
X37142200Y-39438200D01*
X37242200Y-39438200D01*
X37308866Y-39404866D01*
X37008866Y-39171533D02*
X37075533Y-39204866D01*
X37208866Y-39204866D01*
X37275533Y-39171533D01*
X37308866Y-39138200D01*
X37342200Y-39071533D01*
X37342200Y-38871533D01*
X37308866Y-38804866D01*
X37275533Y-38771533D01*
X37208866Y-38738200D01*
X37075533Y-38738200D01*
X37008866Y-38771533D01*
X36408866Y-39171533D02*
X36475533Y-39204866D01*
X36608866Y-39204866D01*
X36675533Y-39171533D01*
X36708866Y-39104866D01*
X36708866Y-38838200D01*
X36675533Y-38771533D01*
X36608866Y-38738200D01*
X36475533Y-38738200D01*
X36408866Y-38771533D01*
X36375533Y-38838200D01*
X36375533Y-38904866D01*
X36708866Y-38971533D01*
X36075533Y-38738200D02*
X36075533Y-39204866D01*
X36075533Y-38804866D02*
X36042200Y-38771533D01*
X35975533Y-38738200D01*
X35875533Y-38738200D01*
X35808866Y-38771533D01*
X35775533Y-38838200D01*
X35775533Y-39204866D01*
X35175533Y-39171533D02*
X35242200Y-39204866D01*
X35375533Y-39204866D01*
X35442200Y-39171533D01*
X35475533Y-39104866D01*
X35475533Y-38838200D01*
X35442200Y-38771533D01*
X35375533Y-38738200D01*
X35242200Y-38738200D01*
X35175533Y-38771533D01*
X35142200Y-38838200D01*
X35142200Y-38904866D01*
X35475533Y-38971533D01*
X34842200Y-39204866D02*
X34842200Y-38738200D01*
X34842200Y-38871533D02*
X34808866Y-38804866D01*
X34775533Y-38771533D01*
X34708866Y-38738200D01*
X34642200Y-38738200D01*
X34108866Y-39204866D02*
X34108866Y-38838200D01*
X34142200Y-38771533D01*
X34208866Y-38738200D01*
X34342200Y-38738200D01*
X34408866Y-38771533D01*
X34108866Y-39171533D02*
X34175533Y-39204866D01*
X34342200Y-39204866D01*
X34408866Y-39171533D01*
X34442200Y-39104866D01*
X34442200Y-39038200D01*
X34408866Y-38971533D01*
X34342200Y-38938200D01*
X34175533Y-38938200D01*
X34108866Y-38904866D01*
X33875533Y-38738200D02*
X33608866Y-38738200D01*
X33775533Y-38504866D02*
X33775533Y-39104866D01*
X33742200Y-39171533D01*
X33675533Y-39204866D01*
X33608866Y-39204866D01*
X33275533Y-39204866D02*
X33342200Y-39171533D01*
X33375533Y-39138200D01*
X33408866Y-39071533D01*
X33408866Y-38871533D01*
X33375533Y-38804866D01*
X33342200Y-38771533D01*
X33275533Y-38738200D01*
X33175533Y-38738200D01*
X33108866Y-38771533D01*
X33075533Y-38804866D01*
X33042200Y-38871533D01*
X33042200Y-39071533D01*
X33075533Y-39138200D01*
X33108866Y-39171533D01*
X33175533Y-39204866D01*
X33275533Y-39204866D01*
X32742200Y-39204866D02*
X32742200Y-38738200D01*
X32742200Y-38871533D02*
X32708866Y-38804866D01*
X32675533Y-38771533D01*
X32608866Y-38738200D01*
X32542200Y-38738200D01*
D10*
X54914800Y-52425600D02*
G75*
G02X55642456Y-52413674I372056J-496074D01*
G01*
X59932573Y-52342630D02*
G75*
G02X60705999Y-52374801I367027J-489370D01*
G01*
X42357480Y-52984400D02*
G75*
G03X42357480Y-52984400I-1057080J0D01*
G01*
X32197480Y-52984400D02*
G75*
G03X32197480Y-52984400I-1057080J0D01*
G01*
X37277480Y-52984400D02*
G75*
G03X37277480Y-52984400I-1057080J0D01*
G01*
X34737480Y-52984400D02*
G75*
G03X34737480Y-52984400I-1057080J0D01*
G01*
X39817480Y-52984400D02*
G75*
G03X39817480Y-52984400I-1057080J0D01*
G01*
X44897480Y-52984400D02*
G75*
G03X44897480Y-52984400I-1057080J0D01*
G01*
X48053358Y-48761239D02*
G75*
G03X48209201Y-52028920I2035442J-1540482D01*
G01*
X47437480Y-52984400D02*
G75*
G03X47437480Y-52984400I-1057080J0D01*
G01*
X45513358Y-48761239D02*
G75*
G03X45669201Y-52028920I2035442J-1540482D01*
G01*
X49977480Y-52984400D02*
G75*
G03X49977480Y-52984400I-1057080J0D01*
G01*
X42973358Y-48761239D02*
G75*
G03X43129201Y-52028920I2035442J-1540482D01*
G01*
X52517480Y-52984400D02*
G75*
G03X52517480Y-52984400I-1057080J0D01*
G01*
X40433358Y-48761239D02*
G75*
G03X40589201Y-52028920I2035442J-1540482D01*
G01*
X55057480Y-52984400D02*
G75*
G03X55057480Y-52984400I-1057080J0D01*
G01*
X37893358Y-48761239D02*
G75*
G03X38049201Y-52028920I2035442J-1540482D01*
G01*
X57597480Y-52984400D02*
G75*
G03X57597480Y-52984400I-1057080J0D01*
G01*
X35353358Y-48761239D02*
G75*
G03X35509201Y-52028920I2035442J-1540482D01*
G01*
X60137480Y-52974679D02*
G75*
G03X60137480Y-52974679I-1057080J0D01*
G01*
X32813358Y-48761239D02*
G75*
G03X32969201Y-52028920I2035442J-1540482D01*
G01*
X62677480Y-52984400D02*
G75*
G03X62677480Y-52984400I-1057080J0D01*
G01*
X30273358Y-48761239D02*
G75*
G03X30429201Y-52028920I2035442J-1540482D01*
G01*
X27117480Y-52984400D02*
G75*
G03X27117480Y-52984400I-1057080J0D01*
G01*
X27733358Y-48761239D02*
G75*
G03X27889201Y-52028920I2035442J-1540482D01*
G01*
X25193358Y-48751518D02*
G75*
G03X25349201Y-52019199I2035442J-1540482D01*
G01*
X29657480Y-52974679D02*
G75*
G03X29657480Y-52974679I-1057080J0D01*
G01*
X54940200Y-42875200D02*
X52425600Y-46583600D01*
D11*
X64866133Y-41303533D02*
X64932800Y-41336866D01*
X65066133Y-41336866D01*
X65132800Y-41303533D01*
X65166133Y-41270200D01*
X65199466Y-41203533D01*
X65199466Y-41003533D01*
X65166133Y-40936866D01*
X65132800Y-40903533D01*
X65066133Y-40870200D01*
X64932800Y-40870200D01*
X64866133Y-40903533D01*
X64466133Y-41336866D02*
X64532800Y-41303533D01*
X64566133Y-41236866D01*
X64566133Y-40636866D01*
X64099466Y-41336866D02*
X64166133Y-41303533D01*
X64199466Y-41270200D01*
X64232800Y-41203533D01*
X64232800Y-41003533D01*
X64199466Y-40936866D01*
X64166133Y-40903533D01*
X64099466Y-40870200D01*
X63999466Y-40870200D01*
X63932800Y-40903533D01*
X63899466Y-40936866D01*
X63866133Y-41003533D01*
X63866133Y-41203533D01*
X63899466Y-41270200D01*
X63932800Y-41303533D01*
X63999466Y-41336866D01*
X64099466Y-41336866D01*
X63599466Y-41303533D02*
X63532800Y-41336866D01*
X63399466Y-41336866D01*
X63332800Y-41303533D01*
X63299466Y-41236866D01*
X63299466Y-41203533D01*
X63332800Y-41136866D01*
X63399466Y-41103533D01*
X63499466Y-41103533D01*
X63566133Y-41070200D01*
X63599466Y-41003533D01*
X63599466Y-40970200D01*
X63566133Y-40903533D01*
X63499466Y-40870200D01*
X63399466Y-40870200D01*
X63332800Y-40903533D01*
X62732800Y-41303533D02*
X62799466Y-41336866D01*
X62932800Y-41336866D01*
X62999466Y-41303533D01*
X63032800Y-41236866D01*
X63032800Y-40970200D01*
X62999466Y-40903533D01*
X62932800Y-40870200D01*
X62799466Y-40870200D01*
X62732800Y-40903533D01*
X62699466Y-40970200D01*
X62699466Y-41036866D01*
X63032800Y-41103533D01*
X61899466Y-41303533D02*
X61832800Y-41336866D01*
X61699466Y-41336866D01*
X61632800Y-41303533D01*
X61599466Y-41236866D01*
X61599466Y-41203533D01*
X61632800Y-41136866D01*
X61699466Y-41103533D01*
X61799466Y-41103533D01*
X61866133Y-41070200D01*
X61899466Y-41003533D01*
X61899466Y-40970200D01*
X61866133Y-40903533D01*
X61799466Y-40870200D01*
X61699466Y-40870200D01*
X61632800Y-40903533D01*
X61199466Y-41336866D02*
X61266133Y-41303533D01*
X61299466Y-41270200D01*
X61332800Y-41203533D01*
X61332800Y-41003533D01*
X61299466Y-40936866D01*
X61266133Y-40903533D01*
X61199466Y-40870200D01*
X61099466Y-40870200D01*
X61032800Y-40903533D01*
X60999466Y-40936866D01*
X60966133Y-41003533D01*
X60966133Y-41203533D01*
X60999466Y-41270200D01*
X61032800Y-41303533D01*
X61099466Y-41336866D01*
X61199466Y-41336866D01*
X60566133Y-41336866D02*
X60632800Y-41303533D01*
X60666133Y-41236866D01*
X60666133Y-40636866D01*
X59999466Y-41336866D02*
X59999466Y-40636866D01*
X59999466Y-41303533D02*
X60066133Y-41336866D01*
X60199466Y-41336866D01*
X60266133Y-41303533D01*
X60299466Y-41270200D01*
X60332800Y-41203533D01*
X60332800Y-41003533D01*
X60299466Y-40936866D01*
X60266133Y-40903533D01*
X60199466Y-40870200D01*
X60066133Y-40870200D01*
X59999466Y-40903533D01*
X59399466Y-41303533D02*
X59466133Y-41336866D01*
X59599466Y-41336866D01*
X59666133Y-41303533D01*
X59699466Y-41236866D01*
X59699466Y-40970200D01*
X59666133Y-40903533D01*
X59599466Y-40870200D01*
X59466133Y-40870200D01*
X59399466Y-40903533D01*
X59366133Y-40970200D01*
X59366133Y-41036866D01*
X59699466Y-41103533D01*
X59066133Y-41336866D02*
X59066133Y-40870200D01*
X59066133Y-41003533D02*
X59032800Y-40936866D01*
X58999466Y-40903533D01*
X58932800Y-40870200D01*
X58866133Y-40870200D01*
X58099466Y-40870200D02*
X58099466Y-41470200D01*
X58132800Y-41536866D01*
X58199466Y-41570200D01*
X58232800Y-41570200D01*
X58099466Y-40636866D02*
X58132800Y-40670200D01*
X58099466Y-40703533D01*
X58066133Y-40670200D01*
X58099466Y-40636866D01*
X58099466Y-40703533D01*
X57466133Y-40870200D02*
X57466133Y-41336866D01*
X57766133Y-40870200D02*
X57766133Y-41236866D01*
X57732800Y-41303533D01*
X57666133Y-41336866D01*
X57566133Y-41336866D01*
X57499466Y-41303533D01*
X57466133Y-41270200D01*
X57132800Y-41336866D02*
X57132800Y-40870200D01*
X57132800Y-40936866D02*
X57099466Y-40903533D01*
X57032800Y-40870200D01*
X56932800Y-40870200D01*
X56866133Y-40903533D01*
X56832800Y-40970200D01*
X56832800Y-41336866D01*
X56832800Y-40970200D02*
X56799466Y-40903533D01*
X56732800Y-40870200D01*
X56632800Y-40870200D01*
X56566133Y-40903533D01*
X56532800Y-40970200D01*
X56532800Y-41336866D01*
X56199466Y-40870200D02*
X56199466Y-41570200D01*
X56199466Y-40903533D02*
X56132800Y-40870200D01*
X55999466Y-40870200D01*
X55932800Y-40903533D01*
X55899466Y-40936866D01*
X55866133Y-41003533D01*
X55866133Y-41203533D01*
X55899466Y-41270200D01*
X55932800Y-41303533D01*
X55999466Y-41336866D01*
X56132800Y-41336866D01*
X56199466Y-41303533D01*
X55299466Y-41303533D02*
X55366133Y-41336866D01*
X55499466Y-41336866D01*
X55566133Y-41303533D01*
X55599466Y-41236866D01*
X55599466Y-40970200D01*
X55566133Y-40903533D01*
X55499466Y-40870200D01*
X55366133Y-40870200D01*
X55299466Y-40903533D01*
X55266133Y-40970200D01*
X55266133Y-41036866D01*
X55599466Y-41103533D01*
X54966133Y-41336866D02*
X54966133Y-40870200D01*
X54966133Y-41003533D02*
X54932800Y-40936866D01*
X54899466Y-40903533D01*
X54832800Y-40870200D01*
X54766133Y-40870200D01*
X54099466Y-40870200D02*
X53832800Y-40870200D01*
X53999466Y-40636866D02*
X53999466Y-41236866D01*
X53966133Y-41303533D01*
X53899466Y-41336866D01*
X53832800Y-41336866D01*
X53499466Y-41336866D02*
X53566133Y-41303533D01*
X53599466Y-41270200D01*
X53632800Y-41203533D01*
X53632800Y-41003533D01*
X53599466Y-40936866D01*
X53566133Y-40903533D01*
X53499466Y-40870200D01*
X53399466Y-40870200D01*
X53332800Y-40903533D01*
X53299466Y-40936866D01*
X53266133Y-41003533D01*
X53266133Y-41203533D01*
X53299466Y-41270200D01*
X53332800Y-41303533D01*
X53399466Y-41336866D01*
X53499466Y-41336866D01*
X65149466Y-42506866D02*
X65149466Y-42040200D01*
X65149466Y-42106866D02*
X65116133Y-42073533D01*
X65049466Y-42040200D01*
X64949466Y-42040200D01*
X64882800Y-42073533D01*
X64849466Y-42140200D01*
X64849466Y-42506866D01*
X64849466Y-42140200D02*
X64816133Y-42073533D01*
X64749466Y-42040200D01*
X64649466Y-42040200D01*
X64582800Y-42073533D01*
X64549466Y-42140200D01*
X64549466Y-42506866D01*
X63949466Y-42473533D02*
X64016133Y-42506866D01*
X64149466Y-42506866D01*
X64216133Y-42473533D01*
X64249466Y-42406866D01*
X64249466Y-42140200D01*
X64216133Y-42073533D01*
X64149466Y-42040200D01*
X64016133Y-42040200D01*
X63949466Y-42073533D01*
X63916133Y-42140200D01*
X63916133Y-42206866D01*
X64249466Y-42273533D01*
X63316133Y-42506866D02*
X63316133Y-42140200D01*
X63349466Y-42073533D01*
X63416133Y-42040200D01*
X63549466Y-42040200D01*
X63616133Y-42073533D01*
X63316133Y-42473533D02*
X63382800Y-42506866D01*
X63549466Y-42506866D01*
X63616133Y-42473533D01*
X63649466Y-42406866D01*
X63649466Y-42340200D01*
X63616133Y-42273533D01*
X63549466Y-42240200D01*
X63382800Y-42240200D01*
X63316133Y-42206866D01*
X63016133Y-42473533D02*
X62949466Y-42506866D01*
X62816133Y-42506866D01*
X62749466Y-42473533D01*
X62716133Y-42406866D01*
X62716133Y-42373533D01*
X62749466Y-42306866D01*
X62816133Y-42273533D01*
X62916133Y-42273533D01*
X62982800Y-42240200D01*
X63016133Y-42173533D01*
X63016133Y-42140200D01*
X62982800Y-42073533D01*
X62916133Y-42040200D01*
X62816133Y-42040200D01*
X62749466Y-42073533D01*
X62116133Y-42040200D02*
X62116133Y-42506866D01*
X62416133Y-42040200D02*
X62416133Y-42406866D01*
X62382800Y-42473533D01*
X62316133Y-42506866D01*
X62216133Y-42506866D01*
X62149466Y-42473533D01*
X62116133Y-42440200D01*
X61782800Y-42506866D02*
X61782800Y-42040200D01*
X61782800Y-42173533D02*
X61749466Y-42106866D01*
X61716133Y-42073533D01*
X61649466Y-42040200D01*
X61582800Y-42040200D01*
X61082800Y-42473533D02*
X61149466Y-42506866D01*
X61282800Y-42506866D01*
X61349466Y-42473533D01*
X61382800Y-42406866D01*
X61382800Y-42140200D01*
X61349466Y-42073533D01*
X61282800Y-42040200D01*
X61149466Y-42040200D01*
X61082800Y-42073533D01*
X61049466Y-42140200D01*
X61049466Y-42206866D01*
X61382800Y-42273533D01*
X60216133Y-42506866D02*
X60216133Y-41806866D01*
X60216133Y-42073533D02*
X60149466Y-42040200D01*
X60016133Y-42040200D01*
X59949466Y-42073533D01*
X59916133Y-42106866D01*
X59882800Y-42173533D01*
X59882800Y-42373533D01*
X59916133Y-42440200D01*
X59949466Y-42473533D01*
X60016133Y-42506866D01*
X60149466Y-42506866D01*
X60216133Y-42473533D01*
X59282800Y-42506866D02*
X59282800Y-42140200D01*
X59316133Y-42073533D01*
X59382800Y-42040200D01*
X59516133Y-42040200D01*
X59582800Y-42073533D01*
X59282800Y-42473533D02*
X59349466Y-42506866D01*
X59516133Y-42506866D01*
X59582800Y-42473533D01*
X59616133Y-42406866D01*
X59616133Y-42340200D01*
X59582800Y-42273533D01*
X59516133Y-42240200D01*
X59349466Y-42240200D01*
X59282800Y-42206866D01*
X59049466Y-42040200D02*
X58782800Y-42040200D01*
X58949466Y-41806866D02*
X58949466Y-42406866D01*
X58916133Y-42473533D01*
X58849466Y-42506866D01*
X58782800Y-42506866D01*
X58649466Y-42040200D02*
X58382800Y-42040200D01*
X58549466Y-41806866D02*
X58549466Y-42406866D01*
X58516133Y-42473533D01*
X58449466Y-42506866D01*
X58382800Y-42506866D01*
X57882800Y-42473533D02*
X57949466Y-42506866D01*
X58082800Y-42506866D01*
X58149466Y-42473533D01*
X58182800Y-42406866D01*
X58182800Y-42140200D01*
X58149466Y-42073533D01*
X58082800Y-42040200D01*
X57949466Y-42040200D01*
X57882800Y-42073533D01*
X57849466Y-42140200D01*
X57849466Y-42206866D01*
X58182800Y-42273533D01*
X57549466Y-42506866D02*
X57549466Y-42040200D01*
X57549466Y-42173533D02*
X57516133Y-42106866D01*
X57482800Y-42073533D01*
X57416133Y-42040200D01*
X57349466Y-42040200D01*
X57182800Y-42040200D02*
X57016133Y-42506866D01*
X56849466Y-42040200D02*
X57016133Y-42506866D01*
X57082800Y-42673533D01*
X57116133Y-42706866D01*
X57182800Y-42740200D01*
X55949466Y-42506866D02*
X56016133Y-42473533D01*
X56049466Y-42440200D01*
X56082800Y-42373533D01*
X56082800Y-42173533D01*
X56049466Y-42106866D01*
X56016133Y-42073533D01*
X55949466Y-42040200D01*
X55849466Y-42040200D01*
X55782800Y-42073533D01*
X55749466Y-42106866D01*
X55716133Y-42173533D01*
X55716133Y-42373533D01*
X55749466Y-42440200D01*
X55782800Y-42473533D01*
X55849466Y-42506866D01*
X55949466Y-42506866D01*
X55416133Y-42040200D02*
X55416133Y-42506866D01*
X55416133Y-42106866D02*
X55382800Y-42073533D01*
X55316133Y-42040200D01*
X55216133Y-42040200D01*
X55149466Y-42073533D01*
X55116133Y-42140200D01*
X55116133Y-42506866D01*
X54282800Y-42306866D02*
X53949466Y-42306866D01*
X54349466Y-42506866D02*
X54116133Y-41806866D01*
X53882800Y-42506866D01*
X53716133Y-41806866D02*
X53249466Y-41806866D01*
X53549466Y-42506866D01*
D12*
X49482285Y-46293066D02*
X49006095Y-46293066D01*
X49577523Y-46578780D02*
X49244190Y-45578780D01*
X48910857Y-46578780D01*
X48672761Y-45578780D02*
X48006095Y-45578780D01*
X48434666Y-46578780D01*
X49518133Y-48220133D02*
X49051466Y-48220133D01*
X49611466Y-48500133D02*
X49284800Y-47520133D01*
X48958133Y-48500133D01*
X48211466Y-47520133D02*
X48398133Y-47520133D01*
X48491466Y-47566800D01*
X48538133Y-47613466D01*
X48631466Y-47753466D01*
X48678133Y-47940133D01*
X48678133Y-48313466D01*
X48631466Y-48406800D01*
X48584800Y-48453466D01*
X48491466Y-48500133D01*
X48304800Y-48500133D01*
X48211466Y-48453466D01*
X48164800Y-48406800D01*
X48118133Y-48313466D01*
X48118133Y-48080133D01*
X48164800Y-47986800D01*
X48211466Y-47940133D01*
X48304800Y-47893466D01*
X48491466Y-47893466D01*
X48584800Y-47940133D01*
X48631466Y-47986800D01*
X48678133Y-48080133D01*
X46998133Y-48220133D02*
X46531466Y-48220133D01*
X47091466Y-48500133D02*
X46764800Y-47520133D01*
X46438133Y-48500133D01*
X45644800Y-47520133D02*
X46111466Y-47520133D01*
X46158133Y-47986800D01*
X46111466Y-47940133D01*
X46018133Y-47893466D01*
X45784800Y-47893466D01*
X45691466Y-47940133D01*
X45644800Y-47986800D01*
X45598133Y-48080133D01*
X45598133Y-48313466D01*
X45644800Y-48406800D01*
X45691466Y-48453466D01*
X45784800Y-48500133D01*
X46018133Y-48500133D01*
X46111466Y-48453466D01*
X46158133Y-48406800D01*
X44478133Y-48220133D02*
X44011466Y-48220133D01*
X44571466Y-48500133D02*
X44244800Y-47520133D01*
X43918133Y-48500133D01*
X43171466Y-47846800D02*
X43171466Y-48500133D01*
X43404800Y-47473466D02*
X43638133Y-48173466D01*
X43031466Y-48173466D01*
X41958133Y-48220133D02*
X41491466Y-48220133D01*
X42051466Y-48500133D02*
X41724800Y-47520133D01*
X41398133Y-48500133D01*
X41164800Y-47520133D02*
X40558133Y-47520133D01*
X40884800Y-47893466D01*
X40744800Y-47893466D01*
X40651466Y-47940133D01*
X40604800Y-47986800D01*
X40558133Y-48080133D01*
X40558133Y-48313466D01*
X40604800Y-48406800D01*
X40651466Y-48453466D01*
X40744800Y-48500133D01*
X41024800Y-48500133D01*
X41118133Y-48453466D01*
X41164800Y-48406800D01*
X39438133Y-48220133D02*
X38971466Y-48220133D01*
X39531466Y-48500133D02*
X39204800Y-47520133D01*
X38878133Y-48500133D01*
X38598133Y-47613466D02*
X38551466Y-47566800D01*
X38458133Y-47520133D01*
X38224800Y-47520133D01*
X38131466Y-47566800D01*
X38084800Y-47613466D01*
X38038133Y-47706800D01*
X38038133Y-47800133D01*
X38084800Y-47940133D01*
X38644800Y-48500133D01*
X38038133Y-48500133D01*
X36918133Y-48220133D02*
X36451466Y-48220133D01*
X37011466Y-48500133D02*
X36684800Y-47520133D01*
X36358133Y-48500133D01*
X35518133Y-48500133D02*
X36078133Y-48500133D01*
X35798133Y-48500133D02*
X35798133Y-47520133D01*
X35891466Y-47660133D01*
X35984800Y-47753466D01*
X36078133Y-47800133D01*
X34398133Y-48220133D02*
X33931466Y-48220133D01*
X34491466Y-48500133D02*
X34164800Y-47520133D01*
X33838133Y-48500133D01*
X33324800Y-47520133D02*
X33231466Y-47520133D01*
X33138133Y-47566800D01*
X33091466Y-47613466D01*
X33044800Y-47706800D01*
X32998133Y-47893466D01*
X32998133Y-48126800D01*
X33044800Y-48313466D01*
X33091466Y-48406800D01*
X33138133Y-48453466D01*
X33231466Y-48500133D01*
X33324800Y-48500133D01*
X33418133Y-48453466D01*
X33464800Y-48406800D01*
X33511466Y-48313466D01*
X33558133Y-48126800D01*
X33558133Y-47893466D01*
X33511466Y-47706800D01*
X33464800Y-47613466D01*
X33418133Y-47566800D01*
X33324800Y-47520133D01*
D13*
X57977276Y-30940428D02*
X57977276Y-32940428D01*
X57977276Y-31035666D02*
X57786800Y-30940428D01*
X57405847Y-30940428D01*
X57215371Y-31035666D01*
X57120133Y-31130904D01*
X57024895Y-31321380D01*
X57024895Y-31892809D01*
X57120133Y-32083285D01*
X57215371Y-32178523D01*
X57405847Y-32273761D01*
X57786800Y-32273761D01*
X57977276Y-32178523D01*
X56262990Y-32178523D02*
X56072514Y-32273761D01*
X55691561Y-32273761D01*
X55501085Y-32178523D01*
X55405847Y-31988047D01*
X55405847Y-31892809D01*
X55501085Y-31702333D01*
X55691561Y-31607095D01*
X55977276Y-31607095D01*
X56167752Y-31511857D01*
X56262990Y-31321380D01*
X56262990Y-31226142D01*
X56167752Y-31035666D01*
X55977276Y-30940428D01*
X55691561Y-30940428D01*
X55501085Y-31035666D01*
X54739180Y-30940428D02*
X54262990Y-32273761D01*
X53786800Y-30940428D02*
X54262990Y-32273761D01*
X54453466Y-32749952D01*
X54548704Y-32845190D01*
X54739180Y-32940428D01*
X52739180Y-32273761D02*
X52929657Y-32178523D01*
X53024895Y-31988047D01*
X53024895Y-30273761D01*
X51977276Y-32273761D02*
X51977276Y-30940428D01*
X51977276Y-30273761D02*
X52072514Y-30369000D01*
X51977276Y-30464238D01*
X51882038Y-30369000D01*
X51977276Y-30273761D01*
X51977276Y-30464238D01*
X51024895Y-30940428D02*
X51024895Y-32273761D01*
X51024895Y-31130904D02*
X50929657Y-31035666D01*
X50739180Y-30940428D01*
X50453466Y-30940428D01*
X50262990Y-31035666D01*
X50167752Y-31226142D01*
X50167752Y-32273761D01*
X49215371Y-32273761D02*
X49215371Y-30273761D01*
X49024895Y-31511857D02*
X48453466Y-32273761D01*
X48453466Y-30940428D02*
X49215371Y-31702333D01*
X47596323Y-32083285D02*
X47501085Y-32178523D01*
X47596323Y-32273761D01*
X47691561Y-32178523D01*
X47596323Y-32083285D01*
X47596323Y-32273761D01*
X46643942Y-32273761D02*
X46643942Y-30940428D01*
X46643942Y-31130904D02*
X46548704Y-31035666D01*
X46358228Y-30940428D01*
X46072514Y-30940428D01*
X45882038Y-31035666D01*
X45786800Y-31226142D01*
X45786800Y-32273761D01*
X45786800Y-31226142D02*
X45691561Y-31035666D01*
X45501085Y-30940428D01*
X45215371Y-30940428D01*
X45024895Y-31035666D01*
X44929657Y-31226142D01*
X44929657Y-32273761D01*
X43215371Y-32178523D02*
X43405847Y-32273761D01*
X43786800Y-32273761D01*
X43977276Y-32178523D01*
X44072514Y-31988047D01*
X44072514Y-31226142D01*
X43977276Y-31035666D01*
X43786800Y-30940428D01*
X43405847Y-30940428D01*
X43215371Y-31035666D01*
X43120133Y-31226142D01*
X43120133Y-31416619D01*
X44072514Y-31607095D01*
X40834419Y-30178523D02*
X42548704Y-32749952D01*
X40167752Y-32273761D02*
X40167752Y-30273761D01*
X40167752Y-31035666D02*
X39977276Y-30940428D01*
X39596323Y-30940428D01*
X39405847Y-31035666D01*
X39310609Y-31130904D01*
X39215371Y-31321380D01*
X39215371Y-31892809D01*
X39310609Y-32083285D01*
X39405847Y-32178523D01*
X39596323Y-32273761D01*
X39977276Y-32273761D01*
X40167752Y-32178523D01*
X38358228Y-30940428D02*
X38358228Y-32940428D01*
X38358228Y-31035666D02*
X38167752Y-30940428D01*
X37786800Y-30940428D01*
X37596323Y-31035666D01*
X37501085Y-31130904D01*
X37405847Y-31321380D01*
X37405847Y-31892809D01*
X37501085Y-32083285D01*
X37596323Y-32178523D01*
X37786800Y-32273761D01*
X38167752Y-32273761D01*
X38358228Y-32178523D01*
X36739180Y-30273761D02*
X35501085Y-30273761D01*
X36167752Y-31035666D01*
X35882038Y-31035666D01*
X35691561Y-31130904D01*
X35596323Y-31226142D01*
X35501085Y-31416619D01*
X35501085Y-31892809D01*
X35596323Y-32083285D01*
X35691561Y-32178523D01*
X35882038Y-32273761D01*
X36453466Y-32273761D01*
X36643942Y-32178523D01*
X36739180Y-32083285D01*
D10*
X66192304Y-50554000D02*
X66287542Y-50506380D01*
X66430400Y-50506380D01*
X66573257Y-50554000D01*
X66668495Y-50649238D01*
X66716114Y-50744476D01*
X66763733Y-50934952D01*
X66763733Y-51077809D01*
X66716114Y-51268285D01*
X66668495Y-51363523D01*
X66573257Y-51458761D01*
X66430400Y-51506380D01*
X66335161Y-51506380D01*
X66192304Y-51458761D01*
X66144685Y-51411142D01*
X66144685Y-51077809D01*
X66335161Y-51077809D01*
X65716114Y-51506380D02*
X65716114Y-50506380D01*
X65144685Y-51506380D01*
X65144685Y-50506380D01*
X64668495Y-51506380D02*
X64668495Y-50506380D01*
X64430400Y-50506380D01*
X64287542Y-50554000D01*
X64192304Y-50649238D01*
X64144685Y-50744476D01*
X64097066Y-50934952D01*
X64097066Y-51077809D01*
X64144685Y-51268285D01*
X64192304Y-51363523D01*
X64287542Y-51458761D01*
X64430400Y-51506380D01*
X64668495Y-51506380D01*
X61185323Y-47077380D02*
X61661514Y-47077380D01*
X61709133Y-47553571D01*
X61661514Y-47505952D01*
X61566276Y-47458333D01*
X61328180Y-47458333D01*
X61232942Y-47505952D01*
X61185323Y-47553571D01*
X61137704Y-47648809D01*
X61137704Y-47886904D01*
X61185323Y-47982142D01*
X61232942Y-48029761D01*
X61328180Y-48077380D01*
X61566276Y-48077380D01*
X61661514Y-48029761D01*
X61709133Y-47982142D01*
X60851990Y-47077380D02*
X60518657Y-48077380D01*
X60185323Y-47077380D01*
X59851990Y-47696428D02*
X59090085Y-47696428D01*
X59471038Y-48077380D02*
X59471038Y-47315476D01*
X53009800Y-48425100D02*
X57454800Y-48425100D01*
X55270400Y-52273200D02*
X55270400Y-48425100D01*
X58039000Y-48425100D02*
X62484000Y-48425100D01*
X60299600Y-52222400D02*
X60299600Y-48425100D01*
X67970400Y-51714400D02*
X67970400Y-52959000D01*
X62890400Y-51714400D02*
X67970400Y-51714400D01*
X62898020Y-52984400D02*
X62890400Y-51714400D01*
D11*
X51195200Y-40624000D02*
G75*
G03X51895200Y-39924000I0J700000D01*
G01*
X51895200Y-39324000D02*
G75*
G03X51195200Y-38624000I-700000J0D01*
G01*
X49795200Y-38624000D02*
G75*
G03X49095200Y-39324000I0J-700000D01*
G01*
X49095200Y-39924000D02*
G75*
G03X49795200Y-40624000I700000J0D01*
G01*
X49095200Y-39324000D02*
X49095200Y-39924000D01*
X51195200Y-38624000D02*
X49795200Y-38624000D01*
X51895200Y-39924000D02*
X51895200Y-39324000D01*
X49795200Y-40624000D02*
X51195200Y-40624000D01*
X50460400Y-48259200D02*
G75*
G03X51160400Y-48959200I700000J0D01*
G01*
X51760400Y-48959200D02*
G75*
G03X52460400Y-48259200I0J700000D01*
G01*
X52460400Y-46859200D02*
G75*
G03X51760400Y-46159200I-700000J0D01*
G01*
X51160400Y-46159200D02*
G75*
G03X50460400Y-46859200I0J-700000D01*
G01*
X51760400Y-46159200D02*
X51160400Y-46159200D01*
X52460400Y-48259200D02*
X52460400Y-46859200D01*
X51160400Y-48959200D02*
X51760400Y-48959200D01*
X50460400Y-46859200D02*
X50460400Y-48259200D01*
D10*
X51379333Y-37196780D02*
X51379333Y-37911066D01*
X51426952Y-38053923D01*
X51522190Y-38149161D01*
X51665047Y-38196780D01*
X51760285Y-38196780D01*
X50903142Y-38196780D02*
X50903142Y-37196780D01*
X50522190Y-37196780D01*
X50426952Y-37244400D01*
X50379333Y-37292019D01*
X50331714Y-37387257D01*
X50331714Y-37530114D01*
X50379333Y-37625352D01*
X50426952Y-37672971D01*
X50522190Y-37720590D01*
X50903142Y-37720590D01*
X49998380Y-37196780D02*
X49379333Y-37196780D01*
X49712666Y-37577733D01*
X49569809Y-37577733D01*
X49474571Y-37625352D01*
X49426952Y-37672971D01*
X49379333Y-37768209D01*
X49379333Y-38006304D01*
X49426952Y-38101542D01*
X49474571Y-38149161D01*
X49569809Y-38196780D01*
X49855523Y-38196780D01*
X49950761Y-38149161D01*
X49998380Y-38101542D01*
X52242933Y-44867580D02*
X52242933Y-45581866D01*
X52290552Y-45724723D01*
X52385790Y-45819961D01*
X52528647Y-45867580D01*
X52623885Y-45867580D01*
X51766742Y-45867580D02*
X51766742Y-44867580D01*
X51385790Y-44867580D01*
X51290552Y-44915200D01*
X51242933Y-44962819D01*
X51195314Y-45058057D01*
X51195314Y-45200914D01*
X51242933Y-45296152D01*
X51290552Y-45343771D01*
X51385790Y-45391390D01*
X51766742Y-45391390D01*
X50814361Y-44962819D02*
X50766742Y-44915200D01*
X50671504Y-44867580D01*
X50433409Y-44867580D01*
X50338171Y-44915200D01*
X50290552Y-44962819D01*
X50242933Y-45058057D01*
X50242933Y-45153295D01*
X50290552Y-45296152D01*
X50861980Y-45867580D01*
X50242933Y-45867580D01*
%LPC*%
D14*
X61620400Y-35217100D03*
X59080400Y-35217100D03*
X56540400Y-35217100D03*
D15*
X54000400Y-35217100D03*
D14*
X51460400Y-35217100D03*
X48920400Y-35217100D03*
X46380400Y-35217100D03*
X43840400Y-35217100D03*
X41300400Y-35217100D03*
X38760400Y-35217100D03*
X36220400Y-35217100D03*
X33680400Y-35217100D03*
X31140400Y-35217100D03*
X28600400Y-35217100D03*
X26060400Y-35217100D03*
D16*
G36*
X50345200Y-40374000D02*
G01*
X49845200Y-40374000D01*
X49845200Y-40373398D01*
X49820666Y-40373398D01*
X49771835Y-40368588D01*
X49723710Y-40359016D01*
X49676755Y-40344772D01*
X49631422Y-40325995D01*
X49588149Y-40302864D01*
X49547350Y-40275604D01*
X49509421Y-40244476D01*
X49474724Y-40209779D01*
X49443596Y-40171850D01*
X49416336Y-40131051D01*
X49393205Y-40087778D01*
X49374428Y-40042445D01*
X49360184Y-39995490D01*
X49350612Y-39947365D01*
X49345802Y-39898534D01*
X49345802Y-39874000D01*
X49345200Y-39874000D01*
X49345200Y-39374000D01*
X49345802Y-39374000D01*
X49345802Y-39349466D01*
X49350612Y-39300635D01*
X49360184Y-39252510D01*
X49374428Y-39205555D01*
X49393205Y-39160222D01*
X49416336Y-39116949D01*
X49443596Y-39076150D01*
X49474724Y-39038221D01*
X49509421Y-39003524D01*
X49547350Y-38972396D01*
X49588149Y-38945136D01*
X49631422Y-38922005D01*
X49676755Y-38903228D01*
X49723710Y-38888984D01*
X49771835Y-38879412D01*
X49820666Y-38874602D01*
X49845200Y-38874602D01*
X49845200Y-38874000D01*
X50345200Y-38874000D01*
X50345200Y-40374000D01*
G37*
G36*
X51145200Y-38874602D02*
G01*
X51169734Y-38874602D01*
X51218565Y-38879412D01*
X51266690Y-38888984D01*
X51313645Y-38903228D01*
X51358978Y-38922005D01*
X51402251Y-38945136D01*
X51443050Y-38972396D01*
X51480979Y-39003524D01*
X51515676Y-39038221D01*
X51546804Y-39076150D01*
X51574064Y-39116949D01*
X51597195Y-39160222D01*
X51615972Y-39205555D01*
X51630216Y-39252510D01*
X51639788Y-39300635D01*
X51644598Y-39349466D01*
X51644598Y-39374000D01*
X51645200Y-39374000D01*
X51645200Y-39874000D01*
X51644598Y-39874000D01*
X51644598Y-39898534D01*
X51639788Y-39947365D01*
X51630216Y-39995490D01*
X51615972Y-40042445D01*
X51597195Y-40087778D01*
X51574064Y-40131051D01*
X51546804Y-40171850D01*
X51515676Y-40209779D01*
X51480979Y-40244476D01*
X51443050Y-40275604D01*
X51402251Y-40302864D01*
X51358978Y-40325995D01*
X51313645Y-40344772D01*
X51266690Y-40359016D01*
X51218565Y-40368588D01*
X51169734Y-40373398D01*
X51145200Y-40373398D01*
X51145200Y-40374000D01*
X50645200Y-40374000D01*
X50645200Y-38874000D01*
X51145200Y-38874000D01*
X51145200Y-38874602D01*
G37*
D14*
X26060400Y-50457100D03*
X28600400Y-50457100D03*
X31140400Y-50457100D03*
X33680400Y-50457100D03*
X36220400Y-50457100D03*
X38760400Y-50457100D03*
X41300400Y-50457100D03*
X43840400Y-50457100D03*
X46380400Y-50457100D03*
X48920400Y-50457100D03*
X51460400Y-50457100D03*
X54000400Y-50457100D03*
X56540400Y-50457100D03*
D15*
X59080400Y-50457100D03*
D14*
X61620400Y-50457100D03*
D17*
X67254000Y-27127200D03*
X26654000Y-27127200D03*
X61654000Y-27127200D03*
X32254000Y-27127200D03*
D14*
X69291200Y-40690800D03*
X69291200Y-38150800D03*
X69291200Y-35610800D03*
D16*
G36*
X50710400Y-47409200D02*
G01*
X50710400Y-46909200D01*
X50711002Y-46909200D01*
X50711002Y-46884666D01*
X50715812Y-46835835D01*
X50725384Y-46787710D01*
X50739628Y-46740755D01*
X50758405Y-46695422D01*
X50781536Y-46652149D01*
X50808796Y-46611350D01*
X50839924Y-46573421D01*
X50874621Y-46538724D01*
X50912550Y-46507596D01*
X50953349Y-46480336D01*
X50996622Y-46457205D01*
X51041955Y-46438428D01*
X51088910Y-46424184D01*
X51137035Y-46414612D01*
X51185866Y-46409802D01*
X51210400Y-46409802D01*
X51210400Y-46409200D01*
X51710400Y-46409200D01*
X51710400Y-46409802D01*
X51734934Y-46409802D01*
X51783765Y-46414612D01*
X51831890Y-46424184D01*
X51878845Y-46438428D01*
X51924178Y-46457205D01*
X51967451Y-46480336D01*
X52008250Y-46507596D01*
X52046179Y-46538724D01*
X52080876Y-46573421D01*
X52112004Y-46611350D01*
X52139264Y-46652149D01*
X52162395Y-46695422D01*
X52181172Y-46740755D01*
X52195416Y-46787710D01*
X52204988Y-46835835D01*
X52209798Y-46884666D01*
X52209798Y-46909200D01*
X52210400Y-46909200D01*
X52210400Y-47409200D01*
X50710400Y-47409200D01*
G37*
G36*
X52209798Y-48209200D02*
G01*
X52209798Y-48233734D01*
X52204988Y-48282565D01*
X52195416Y-48330690D01*
X52181172Y-48377645D01*
X52162395Y-48422978D01*
X52139264Y-48466251D01*
X52112004Y-48507050D01*
X52080876Y-48544979D01*
X52046179Y-48579676D01*
X52008250Y-48610804D01*
X51967451Y-48638064D01*
X51924178Y-48661195D01*
X51878845Y-48679972D01*
X51831890Y-48694216D01*
X51783765Y-48703788D01*
X51734934Y-48708598D01*
X51710400Y-48708598D01*
X51710400Y-48709200D01*
X51210400Y-48709200D01*
X51210400Y-48708598D01*
X51185866Y-48708598D01*
X51137035Y-48703788D01*
X51088910Y-48694216D01*
X51041955Y-48679972D01*
X50996622Y-48661195D01*
X50953349Y-48638064D01*
X50912550Y-48610804D01*
X50874621Y-48579676D01*
X50839924Y-48544979D01*
X50808796Y-48507050D01*
X50781536Y-48466251D01*
X50758405Y-48422978D01*
X50739628Y-48377645D01*
X50725384Y-48330690D01*
X50715812Y-48282565D01*
X50711002Y-48233734D01*
X50711002Y-48209200D01*
X50710400Y-48209200D01*
X50710400Y-47709200D01*
X52210400Y-47709200D01*
X52210400Y-48209200D01*
X52209798Y-48209200D01*
G37*
D14*
X69291200Y-45872400D03*
D15*
X69291200Y-48412400D03*
D14*
X69291200Y-50952400D03*
X26060400Y-52984400D03*
X28600400Y-52984400D03*
X31140400Y-52984400D03*
X33680400Y-52984400D03*
X36220400Y-52984400D03*
X38760400Y-52984400D03*
X41300400Y-52984400D03*
X43840400Y-52984400D03*
X46380400Y-52984400D03*
X48920400Y-52984400D03*
X51460400Y-52984400D03*
X54000400Y-52984400D03*
X56540400Y-52984400D03*
X59080400Y-52984400D03*
X61620400Y-52984400D03*
D15*
X64160400Y-52984400D03*
X66700400Y-52984400D03*
M02*
