G04 #@! TF.GenerationSoftware,KiCad,Pcbnew,5.1.5+dfsg1-2build2*
G04 #@! TF.CreationDate,2021-06-15T21:01:14+02:00*
G04 #@! TF.ProjectId,circuit9,63697263-7569-4743-992e-6b696361645f,rev?*
G04 #@! TF.SameCoordinates,Original*
G04 #@! TF.FileFunction,Legend,Top*
G04 #@! TF.FilePolarity,Positive*
%FSLAX46Y46*%
G04 Gerber Fmt 4.6, Leading zero omitted, Abs format (unit mm)*
G04 Created by KiCad (PCBNEW 5.1.5+dfsg1-2build2) date 2021-06-15 21:01:14*
%MOMM*%
%LPD*%
G04 APERTURE LIST*
%ADD10C,0.080000*%
%ADD11C,0.120000*%
%ADD12C,0.100000*%
%ADD13C,0.150000*%
%ADD14C,0.200000*%
%ADD15C,0.500000*%
%ADD16O,1.700000X1.700000*%
%ADD17R,1.700000X1.700000*%
%ADD18R,6.000000X3.000000*%
%ADD19R,0.400000X0.900000*%
%ADD20R,1.060000X0.650000*%
G04 APERTURE END LIST*
D10*
X60233714Y-52423190D02*
X60233714Y-51923190D01*
X60344428Y-51923190D01*
X60410857Y-51947000D01*
X60455142Y-51994619D01*
X60477285Y-52042238D01*
X60499428Y-52137476D01*
X60499428Y-52208904D01*
X60477285Y-52304142D01*
X60455142Y-52351761D01*
X60410857Y-52399380D01*
X60344428Y-52423190D01*
X60233714Y-52423190D01*
X60898000Y-52089857D02*
X60898000Y-52423190D01*
X60787285Y-51899380D02*
X60676571Y-52256523D01*
X60964428Y-52256523D01*
X61141571Y-52375571D02*
X61163714Y-52399380D01*
X61141571Y-52423190D01*
X61119428Y-52399380D01*
X61141571Y-52375571D01*
X61141571Y-52423190D01*
X61141571Y-52113666D02*
X61163714Y-52137476D01*
X61141571Y-52161285D01*
X61119428Y-52137476D01*
X61141571Y-52113666D01*
X61141571Y-52161285D01*
X62780142Y-52423190D02*
X62780142Y-51923190D01*
X62890857Y-51923190D01*
X62957285Y-51947000D01*
X63001571Y-51994619D01*
X63023714Y-52042238D01*
X63045857Y-52137476D01*
X63045857Y-52208904D01*
X63023714Y-52304142D01*
X63001571Y-52351761D01*
X62957285Y-52399380D01*
X62890857Y-52423190D01*
X62780142Y-52423190D01*
X63200857Y-51923190D02*
X63488714Y-51923190D01*
X63333714Y-52113666D01*
X63400142Y-52113666D01*
X63444428Y-52137476D01*
X63466571Y-52161285D01*
X63488714Y-52208904D01*
X63488714Y-52327952D01*
X63466571Y-52375571D01*
X63444428Y-52399380D01*
X63400142Y-52423190D01*
X63267285Y-52423190D01*
X63223000Y-52399380D01*
X63200857Y-52375571D01*
X63688000Y-52375571D02*
X63710142Y-52399380D01*
X63688000Y-52423190D01*
X63665857Y-52399380D01*
X63688000Y-52375571D01*
X63688000Y-52423190D01*
X63688000Y-52113666D02*
X63710142Y-52137476D01*
X63688000Y-52161285D01*
X63665857Y-52137476D01*
X63688000Y-52113666D01*
X63688000Y-52161285D01*
X65326571Y-52423190D02*
X65326571Y-51923190D01*
X65437285Y-51923190D01*
X65503714Y-51947000D01*
X65548000Y-51994619D01*
X65570142Y-52042238D01*
X65592285Y-52137476D01*
X65592285Y-52208904D01*
X65570142Y-52304142D01*
X65548000Y-52351761D01*
X65503714Y-52399380D01*
X65437285Y-52423190D01*
X65326571Y-52423190D01*
X65769428Y-51970809D02*
X65791571Y-51947000D01*
X65835857Y-51923190D01*
X65946571Y-51923190D01*
X65990857Y-51947000D01*
X66013000Y-51970809D01*
X66035142Y-52018428D01*
X66035142Y-52066047D01*
X66013000Y-52137476D01*
X65747285Y-52423190D01*
X66035142Y-52423190D01*
X66234428Y-52375571D02*
X66256571Y-52399380D01*
X66234428Y-52423190D01*
X66212285Y-52399380D01*
X66234428Y-52375571D01*
X66234428Y-52423190D01*
X66234428Y-52113666D02*
X66256571Y-52137476D01*
X66234428Y-52161285D01*
X66212285Y-52137476D01*
X66234428Y-52113666D01*
X66234428Y-52161285D01*
D11*
X26099333Y-45460000D02*
X26799333Y-45460000D01*
X26799333Y-45626666D01*
X26766000Y-45726666D01*
X26699333Y-45793333D01*
X26632666Y-45826666D01*
X26499333Y-45860000D01*
X26399333Y-45860000D01*
X26266000Y-45826666D01*
X26199333Y-45793333D01*
X26132666Y-45726666D01*
X26099333Y-45626666D01*
X26099333Y-45460000D01*
X26799333Y-46493333D02*
X26799333Y-46160000D01*
X26466000Y-46126666D01*
X26499333Y-46160000D01*
X26532666Y-46226666D01*
X26532666Y-46393333D01*
X26499333Y-46460000D01*
X26466000Y-46493333D01*
X26399333Y-46526666D01*
X26232666Y-46526666D01*
X26166000Y-46493333D01*
X26132666Y-46460000D01*
X26099333Y-46393333D01*
X26099333Y-46226666D01*
X26132666Y-46160000D01*
X26166000Y-46126666D01*
X26766000Y-47726666D02*
X26799333Y-47660000D01*
X26799333Y-47560000D01*
X26766000Y-47460000D01*
X26699333Y-47393333D01*
X26632666Y-47360000D01*
X26499333Y-47326666D01*
X26399333Y-47326666D01*
X26266000Y-47360000D01*
X26199333Y-47393333D01*
X26132666Y-47460000D01*
X26099333Y-47560000D01*
X26099333Y-47626666D01*
X26132666Y-47726666D01*
X26166000Y-47760000D01*
X26399333Y-47760000D01*
X26399333Y-47626666D01*
X26099333Y-48060000D02*
X26799333Y-48060000D01*
X26099333Y-48460000D01*
X26799333Y-48460000D01*
X26099333Y-48793333D02*
X26799333Y-48793333D01*
X26799333Y-48960000D01*
X26766000Y-49060000D01*
X26699333Y-49126666D01*
X26632666Y-49160000D01*
X26499333Y-49193333D01*
X26399333Y-49193333D01*
X26266000Y-49160000D01*
X26199333Y-49126666D01*
X26132666Y-49060000D01*
X26099333Y-48960000D01*
X26099333Y-48793333D01*
X26099333Y-50026666D02*
X26799333Y-50026666D01*
X26799333Y-50193333D01*
X26766000Y-50293333D01*
X26699333Y-50360000D01*
X26632666Y-50393333D01*
X26499333Y-50426666D01*
X26399333Y-50426666D01*
X26266000Y-50393333D01*
X26199333Y-50360000D01*
X26132666Y-50293333D01*
X26099333Y-50193333D01*
X26099333Y-50026666D01*
X26799333Y-51026666D02*
X26799333Y-50893333D01*
X26766000Y-50826666D01*
X26732666Y-50793333D01*
X26632666Y-50726666D01*
X26499333Y-50693333D01*
X26232666Y-50693333D01*
X26166000Y-50726666D01*
X26132666Y-50760000D01*
X26099333Y-50826666D01*
X26099333Y-50960000D01*
X26132666Y-51026666D01*
X26166000Y-51060000D01*
X26232666Y-51093333D01*
X26399333Y-51093333D01*
X26466000Y-51060000D01*
X26499333Y-51026666D01*
X26532666Y-50960000D01*
X26532666Y-50826666D01*
X26499333Y-50760000D01*
X26466000Y-50726666D01*
X26399333Y-50693333D01*
X69252333Y-40982333D02*
X69252333Y-41315666D01*
X69052333Y-40915666D02*
X69752333Y-41149000D01*
X69052333Y-41382333D01*
X69052333Y-41615666D02*
X69519000Y-41615666D01*
X69385666Y-41615666D02*
X69452333Y-41649000D01*
X69485666Y-41682333D01*
X69519000Y-41749000D01*
X69519000Y-41815666D01*
X69052333Y-42349000D02*
X69752333Y-42349000D01*
X69085666Y-42349000D02*
X69052333Y-42282333D01*
X69052333Y-42149000D01*
X69085666Y-42082333D01*
X69119000Y-42049000D01*
X69185666Y-42015666D01*
X69385666Y-42015666D01*
X69452333Y-42049000D01*
X69485666Y-42082333D01*
X69519000Y-42149000D01*
X69519000Y-42282333D01*
X69485666Y-42349000D01*
X69519000Y-42982333D02*
X69052333Y-42982333D01*
X69519000Y-42682333D02*
X69152333Y-42682333D01*
X69085666Y-42715666D01*
X69052333Y-42782333D01*
X69052333Y-42882333D01*
X69085666Y-42949000D01*
X69119000Y-42982333D01*
X69052333Y-43315666D02*
X69519000Y-43315666D01*
X69752333Y-43315666D02*
X69719000Y-43282333D01*
X69685666Y-43315666D01*
X69719000Y-43349000D01*
X69752333Y-43315666D01*
X69685666Y-43315666D01*
X69519000Y-43649000D02*
X69052333Y-43649000D01*
X69452333Y-43649000D02*
X69485666Y-43682333D01*
X69519000Y-43749000D01*
X69519000Y-43849000D01*
X69485666Y-43915666D01*
X69419000Y-43949000D01*
X69052333Y-43949000D01*
X69052333Y-44382333D02*
X69085666Y-44315666D01*
X69119000Y-44282333D01*
X69185666Y-44249000D01*
X69385666Y-44249000D01*
X69452333Y-44282333D01*
X69485666Y-44315666D01*
X69519000Y-44382333D01*
X69519000Y-44482333D01*
X69485666Y-44549000D01*
X69452333Y-44582333D01*
X69385666Y-44615666D01*
X69185666Y-44615666D01*
X69119000Y-44582333D01*
X69085666Y-44549000D01*
X69052333Y-44482333D01*
X69052333Y-44382333D01*
X67882333Y-40449000D02*
X68349000Y-40449000D01*
X68282333Y-40449000D02*
X68315666Y-40482333D01*
X68349000Y-40549000D01*
X68349000Y-40649000D01*
X68315666Y-40715666D01*
X68249000Y-40749000D01*
X67882333Y-40749000D01*
X68249000Y-40749000D02*
X68315666Y-40782333D01*
X68349000Y-40849000D01*
X68349000Y-40949000D01*
X68315666Y-41015666D01*
X68249000Y-41049000D01*
X67882333Y-41049000D01*
X67882333Y-41382333D02*
X68349000Y-41382333D01*
X68582333Y-41382333D02*
X68549000Y-41349000D01*
X68515666Y-41382333D01*
X68549000Y-41415666D01*
X68582333Y-41382333D01*
X68515666Y-41382333D01*
X67915666Y-42015666D02*
X67882333Y-41949000D01*
X67882333Y-41815666D01*
X67915666Y-41749000D01*
X67949000Y-41715666D01*
X68015666Y-41682333D01*
X68215666Y-41682333D01*
X68282333Y-41715666D01*
X68315666Y-41749000D01*
X68349000Y-41815666D01*
X68349000Y-41949000D01*
X68315666Y-42015666D01*
X67882333Y-42315666D02*
X68349000Y-42315666D01*
X68215666Y-42315666D02*
X68282333Y-42349000D01*
X68315666Y-42382333D01*
X68349000Y-42449000D01*
X68349000Y-42515666D01*
X67882333Y-42849000D02*
X67915666Y-42782333D01*
X67949000Y-42749000D01*
X68015666Y-42715666D01*
X68215666Y-42715666D01*
X68282333Y-42749000D01*
X68315666Y-42782333D01*
X68349000Y-42849000D01*
X68349000Y-42949000D01*
X68315666Y-43015666D01*
X68282333Y-43049000D01*
X68215666Y-43082333D01*
X68015666Y-43082333D01*
X67949000Y-43049000D01*
X67915666Y-43015666D01*
X67882333Y-42949000D01*
X67882333Y-42849000D01*
X68582333Y-43382333D02*
X68015666Y-43382333D01*
X67949000Y-43415666D01*
X67915666Y-43449000D01*
X67882333Y-43515666D01*
X67882333Y-43649000D01*
X67915666Y-43715666D01*
X67949000Y-43749000D01*
X68015666Y-43782333D01*
X68582333Y-43782333D01*
X67915666Y-44082333D02*
X67882333Y-44182333D01*
X67882333Y-44349000D01*
X67915666Y-44415666D01*
X67949000Y-44449000D01*
X68015666Y-44482333D01*
X68082333Y-44482333D01*
X68149000Y-44449000D01*
X68182333Y-44415666D01*
X68215666Y-44349000D01*
X68249000Y-44215666D01*
X68282333Y-44149000D01*
X68315666Y-44115666D01*
X68382333Y-44082333D01*
X68449000Y-44082333D01*
X68515666Y-44115666D01*
X68549000Y-44149000D01*
X68582333Y-44215666D01*
X68582333Y-44382333D01*
X68549000Y-44482333D01*
X68249000Y-45015666D02*
X68215666Y-45115666D01*
X68182333Y-45149000D01*
X68115666Y-45182333D01*
X68015666Y-45182333D01*
X67949000Y-45149000D01*
X67915666Y-45115666D01*
X67882333Y-45049000D01*
X67882333Y-44782333D01*
X68582333Y-44782333D01*
X68582333Y-45015666D01*
X68549000Y-45082333D01*
X68515666Y-45115666D01*
X68449000Y-45149000D01*
X68382333Y-45149000D01*
X68315666Y-45115666D01*
X68282333Y-45082333D01*
X68249000Y-45015666D01*
X68249000Y-44782333D01*
X66745666Y-39849000D02*
X66712333Y-39915666D01*
X66712333Y-40049000D01*
X66745666Y-40115666D01*
X66812333Y-40149000D01*
X66845666Y-40149000D01*
X66912333Y-40115666D01*
X66945666Y-40049000D01*
X66945666Y-39949000D01*
X66979000Y-39882333D01*
X67045666Y-39849000D01*
X67079000Y-39849000D01*
X67145666Y-39882333D01*
X67179000Y-39949000D01*
X67179000Y-40049000D01*
X67145666Y-40115666D01*
X66712333Y-40549000D02*
X66745666Y-40482333D01*
X66779000Y-40449000D01*
X66845666Y-40415666D01*
X67045666Y-40415666D01*
X67112333Y-40449000D01*
X67145666Y-40482333D01*
X67179000Y-40549000D01*
X67179000Y-40649000D01*
X67145666Y-40715666D01*
X67112333Y-40749000D01*
X67045666Y-40782333D01*
X66845666Y-40782333D01*
X66779000Y-40749000D01*
X66745666Y-40715666D01*
X66712333Y-40649000D01*
X66712333Y-40549000D01*
X66745666Y-41382333D02*
X66712333Y-41315666D01*
X66712333Y-41182333D01*
X66745666Y-41115666D01*
X66779000Y-41082333D01*
X66845666Y-41049000D01*
X67045666Y-41049000D01*
X67112333Y-41082333D01*
X67145666Y-41115666D01*
X67179000Y-41182333D01*
X67179000Y-41315666D01*
X67145666Y-41382333D01*
X66712333Y-41682333D02*
X67412333Y-41682333D01*
X66979000Y-41749000D02*
X66712333Y-41949000D01*
X67179000Y-41949000D02*
X66912333Y-41682333D01*
X66745666Y-42515666D02*
X66712333Y-42449000D01*
X66712333Y-42315666D01*
X66745666Y-42249000D01*
X66812333Y-42215666D01*
X67079000Y-42215666D01*
X67145666Y-42249000D01*
X67179000Y-42315666D01*
X67179000Y-42449000D01*
X67145666Y-42515666D01*
X67079000Y-42549000D01*
X67012333Y-42549000D01*
X66945666Y-42215666D01*
X67179000Y-42749000D02*
X67179000Y-43015666D01*
X67412333Y-42849000D02*
X66812333Y-42849000D01*
X66745666Y-42882333D01*
X66712333Y-42949000D01*
X66712333Y-43015666D01*
X66712333Y-43782333D02*
X67412333Y-43782333D01*
X66712333Y-44082333D02*
X67079000Y-44082333D01*
X67145666Y-44049000D01*
X67179000Y-43982333D01*
X67179000Y-43882333D01*
X67145666Y-43815666D01*
X67112333Y-43782333D01*
X66745666Y-44682333D02*
X66712333Y-44615666D01*
X66712333Y-44482333D01*
X66745666Y-44415666D01*
X66812333Y-44382333D01*
X67079000Y-44382333D01*
X67145666Y-44415666D01*
X67179000Y-44482333D01*
X67179000Y-44615666D01*
X67145666Y-44682333D01*
X67079000Y-44715666D01*
X67012333Y-44715666D01*
X66945666Y-44382333D01*
X66712333Y-45015666D02*
X67179000Y-45015666D01*
X67045666Y-45015666D02*
X67112333Y-45049000D01*
X67145666Y-45082333D01*
X67179000Y-45149000D01*
X67179000Y-45215666D01*
X66745666Y-45715666D02*
X66712333Y-45649000D01*
X66712333Y-45515666D01*
X66745666Y-45449000D01*
X66812333Y-45415666D01*
X67079000Y-45415666D01*
X67145666Y-45449000D01*
X67179000Y-45515666D01*
X67179000Y-45649000D01*
X67145666Y-45715666D01*
X67079000Y-45749000D01*
X67012333Y-45749000D01*
X66945666Y-45415666D01*
D12*
G36*
X24104600Y-47523400D02*
G01*
X23736300Y-47523400D01*
X23723600Y-49263300D01*
X24107140Y-49263300D01*
X24107140Y-49657000D01*
X23190200Y-49657000D01*
X23190200Y-47053500D01*
X24104600Y-47053500D01*
X24104600Y-47523400D01*
G37*
X24104600Y-47523400D02*
X23736300Y-47523400D01*
X23723600Y-49263300D01*
X24107140Y-49263300D01*
X24107140Y-49657000D01*
X23190200Y-49657000D01*
X23190200Y-47053500D01*
X24104600Y-47053500D01*
X24104600Y-47523400D01*
D13*
X66421000Y-39027100D02*
X70612000Y-39027100D01*
X66421000Y-46647100D02*
X66421000Y-39027100D01*
X70612000Y-46647100D02*
X66421000Y-46647100D01*
X47371000Y-48387000D02*
X65659000Y-48387000D01*
X27305000Y-45720000D02*
X29972000Y-45720000D01*
X27305000Y-37211000D02*
X27305000Y-45720000D01*
X45466000Y-37211000D02*
X45466000Y-47752000D01*
X27305000Y-37211000D02*
X45466000Y-37211000D01*
X32004000Y-47752000D02*
X29972000Y-45720000D01*
X45466000Y-47752000D02*
X32004000Y-47752000D01*
X61976000Y-37592000D02*
X47371000Y-37592000D01*
X65659000Y-41275000D02*
X61976000Y-37592000D01*
X65659000Y-48387000D02*
X65659000Y-41275000D01*
X47371000Y-37592000D02*
X47371000Y-48387000D01*
D14*
X45245542Y-27555000D02*
X45959828Y-27555000D01*
X45102685Y-27983571D02*
X45602685Y-26483571D01*
X46102685Y-27983571D01*
X46531257Y-27555000D02*
X47245542Y-27555000D01*
X46388400Y-27983571D02*
X46888400Y-26483571D01*
X47388400Y-27983571D01*
X47816971Y-27555000D02*
X48531257Y-27555000D01*
X47674114Y-27983571D02*
X48174114Y-26483571D01*
X48674114Y-27983571D01*
D10*
X30156142Y-52232714D02*
X30579000Y-52232714D01*
X30367571Y-52423190D02*
X30367571Y-52042238D01*
X30843285Y-52375571D02*
X30869714Y-52399380D01*
X30843285Y-52423190D01*
X30816857Y-52399380D01*
X30843285Y-52375571D01*
X30843285Y-52423190D01*
X30843285Y-52113666D02*
X30869714Y-52137476D01*
X30843285Y-52161285D01*
X30816857Y-52137476D01*
X30843285Y-52113666D01*
X30843285Y-52161285D01*
X32376142Y-52232714D02*
X32799000Y-52232714D01*
X32587571Y-52423190D02*
X32587571Y-52042238D01*
X33063285Y-52375571D02*
X33089714Y-52399380D01*
X33063285Y-52423190D01*
X33036857Y-52399380D01*
X33063285Y-52375571D01*
X33063285Y-52423190D01*
X33063285Y-52113666D02*
X33089714Y-52137476D01*
X33063285Y-52161285D01*
X33036857Y-52137476D01*
X33063285Y-52113666D01*
X33063285Y-52161285D01*
X35336142Y-52423190D02*
X35151142Y-52185095D01*
X35019000Y-52423190D02*
X35019000Y-51923190D01*
X35230428Y-51923190D01*
X35283285Y-51947000D01*
X35309714Y-51970809D01*
X35336142Y-52018428D01*
X35336142Y-52089857D01*
X35309714Y-52137476D01*
X35283285Y-52161285D01*
X35230428Y-52185095D01*
X35019000Y-52185095D01*
X35574000Y-52375571D02*
X35600428Y-52399380D01*
X35574000Y-52423190D01*
X35547571Y-52399380D01*
X35574000Y-52375571D01*
X35574000Y-52423190D01*
X35574000Y-52113666D02*
X35600428Y-52137476D01*
X35574000Y-52161285D01*
X35547571Y-52137476D01*
X35574000Y-52113666D01*
X35574000Y-52161285D01*
X37846857Y-52423190D02*
X37661857Y-52185095D01*
X37529714Y-52423190D02*
X37529714Y-51923190D01*
X37741142Y-51923190D01*
X37794000Y-51947000D01*
X37820428Y-51970809D01*
X37846857Y-52018428D01*
X37846857Y-52089857D01*
X37820428Y-52137476D01*
X37794000Y-52161285D01*
X37741142Y-52185095D01*
X37529714Y-52185095D01*
X38084714Y-52375571D02*
X38111142Y-52399380D01*
X38084714Y-52423190D01*
X38058285Y-52399380D01*
X38084714Y-52375571D01*
X38084714Y-52423190D01*
X38084714Y-52113666D02*
X38111142Y-52137476D01*
X38084714Y-52161285D01*
X38058285Y-52137476D01*
X38084714Y-52113666D01*
X38084714Y-52161285D01*
X39987571Y-51923190D02*
X40357571Y-51923190D01*
X40119714Y-52423190D01*
X40569000Y-52375571D02*
X40595428Y-52399380D01*
X40569000Y-52423190D01*
X40542571Y-52399380D01*
X40569000Y-52375571D01*
X40569000Y-52423190D01*
X40569000Y-52113666D02*
X40595428Y-52137476D01*
X40569000Y-52161285D01*
X40542571Y-52137476D01*
X40569000Y-52113666D01*
X40569000Y-52161285D01*
X42762571Y-51923190D02*
X42656857Y-51923190D01*
X42604000Y-51947000D01*
X42577571Y-51970809D01*
X42524714Y-52042238D01*
X42498285Y-52137476D01*
X42498285Y-52327952D01*
X42524714Y-52375571D01*
X42551142Y-52399380D01*
X42604000Y-52423190D01*
X42709714Y-52423190D01*
X42762571Y-52399380D01*
X42789000Y-52375571D01*
X42815428Y-52327952D01*
X42815428Y-52208904D01*
X42789000Y-52161285D01*
X42762571Y-52137476D01*
X42709714Y-52113666D01*
X42604000Y-52113666D01*
X42551142Y-52137476D01*
X42524714Y-52161285D01*
X42498285Y-52208904D01*
X43053285Y-52375571D02*
X43079714Y-52399380D01*
X43053285Y-52423190D01*
X43026857Y-52399380D01*
X43053285Y-52375571D01*
X43053285Y-52423190D01*
X43053285Y-52113666D02*
X43079714Y-52137476D01*
X43053285Y-52161285D01*
X43026857Y-52137476D01*
X43053285Y-52113666D01*
X43053285Y-52161285D01*
X45696142Y-51923190D02*
X45431857Y-51923190D01*
X45405428Y-52161285D01*
X45431857Y-52137476D01*
X45484714Y-52113666D01*
X45616857Y-52113666D01*
X45669714Y-52137476D01*
X45696142Y-52161285D01*
X45722571Y-52208904D01*
X45722571Y-52327952D01*
X45696142Y-52375571D01*
X45669714Y-52399380D01*
X45616857Y-52423190D01*
X45484714Y-52423190D01*
X45431857Y-52399380D01*
X45405428Y-52375571D01*
X45960428Y-52375571D02*
X45986857Y-52399380D01*
X45960428Y-52423190D01*
X45934000Y-52399380D01*
X45960428Y-52375571D01*
X45960428Y-52423190D01*
X45960428Y-52113666D02*
X45986857Y-52137476D01*
X45960428Y-52161285D01*
X45934000Y-52137476D01*
X45960428Y-52113666D01*
X45960428Y-52161285D01*
X48154000Y-52089857D02*
X48154000Y-52423190D01*
X48021857Y-51899380D02*
X47889714Y-52256523D01*
X48233285Y-52256523D01*
X48444714Y-52375571D02*
X48471142Y-52399380D01*
X48444714Y-52423190D01*
X48418285Y-52399380D01*
X48444714Y-52375571D01*
X48444714Y-52423190D01*
X48444714Y-52113666D02*
X48471142Y-52137476D01*
X48444714Y-52161285D01*
X48418285Y-52137476D01*
X48444714Y-52113666D01*
X48444714Y-52161285D01*
X50347571Y-51923190D02*
X50691142Y-51923190D01*
X50506142Y-52113666D01*
X50585428Y-52113666D01*
X50638285Y-52137476D01*
X50664714Y-52161285D01*
X50691142Y-52208904D01*
X50691142Y-52327952D01*
X50664714Y-52375571D01*
X50638285Y-52399380D01*
X50585428Y-52423190D01*
X50426857Y-52423190D01*
X50374000Y-52399380D01*
X50347571Y-52375571D01*
X50929000Y-52375571D02*
X50955428Y-52399380D01*
X50929000Y-52423190D01*
X50902571Y-52399380D01*
X50929000Y-52375571D01*
X50929000Y-52423190D01*
X50929000Y-52113666D02*
X50955428Y-52137476D01*
X50929000Y-52161285D01*
X50902571Y-52137476D01*
X50929000Y-52113666D01*
X50929000Y-52161285D01*
X52858285Y-51970809D02*
X52884714Y-51947000D01*
X52937571Y-51923190D01*
X53069714Y-51923190D01*
X53122571Y-51947000D01*
X53149000Y-51970809D01*
X53175428Y-52018428D01*
X53175428Y-52066047D01*
X53149000Y-52137476D01*
X52831857Y-52423190D01*
X53175428Y-52423190D01*
X53413285Y-52375571D02*
X53439714Y-52399380D01*
X53413285Y-52423190D01*
X53386857Y-52399380D01*
X53413285Y-52375571D01*
X53413285Y-52423190D01*
X53413285Y-52113666D02*
X53439714Y-52137476D01*
X53413285Y-52161285D01*
X53386857Y-52137476D01*
X53413285Y-52113666D01*
X53413285Y-52161285D01*
X55659714Y-52423190D02*
X55342571Y-52423190D01*
X55501142Y-52423190D02*
X55501142Y-51923190D01*
X55448285Y-51994619D01*
X55395428Y-52042238D01*
X55342571Y-52066047D01*
X55897571Y-52375571D02*
X55924000Y-52399380D01*
X55897571Y-52423190D01*
X55871142Y-52399380D01*
X55897571Y-52375571D01*
X55897571Y-52423190D01*
X55897571Y-52113666D02*
X55924000Y-52137476D01*
X55897571Y-52161285D01*
X55871142Y-52137476D01*
X55897571Y-52113666D01*
X55897571Y-52161285D01*
X57958999Y-51923190D02*
X58011857Y-51923190D01*
X58064714Y-51947000D01*
X58091142Y-51970809D01*
X58117571Y-52018428D01*
X58143999Y-52113666D01*
X58143999Y-52232714D01*
X58117571Y-52327952D01*
X58091142Y-52375571D01*
X58064714Y-52399380D01*
X58011857Y-52423190D01*
X57958999Y-52423190D01*
X57906142Y-52399380D01*
X57879714Y-52375571D01*
X57853285Y-52327952D01*
X57826857Y-52232714D01*
X57826857Y-52113666D01*
X57853285Y-52018428D01*
X57879714Y-51970809D01*
X57906142Y-51947000D01*
X57958999Y-51923190D01*
X58381857Y-52375571D02*
X58408285Y-52399380D01*
X58381857Y-52423190D01*
X58355428Y-52399380D01*
X58381857Y-52375571D01*
X58381857Y-52423190D01*
X58381857Y-52113666D02*
X58408285Y-52137476D01*
X58381857Y-52161285D01*
X58355428Y-52137476D01*
X58381857Y-52113666D01*
X58381857Y-52161285D01*
D12*
G36*
X30289500Y-54406800D02*
G01*
X25082500Y-54406800D01*
X25082500Y-53492400D01*
X25552400Y-53492400D01*
X25552400Y-53860700D01*
X27292300Y-53873400D01*
X27292300Y-53489860D01*
X28067000Y-53489860D01*
X28067000Y-53873400D01*
X29845000Y-53873400D01*
X29845000Y-53479700D01*
X30289500Y-53479700D01*
X30289500Y-54406800D01*
G37*
X30289500Y-54406800D02*
X25082500Y-54406800D01*
X25082500Y-53492400D01*
X25552400Y-53492400D01*
X25552400Y-53860700D01*
X27292300Y-53873400D01*
X27292300Y-53489860D01*
X28067000Y-53489860D01*
X28067000Y-53873400D01*
X29845000Y-53873400D01*
X29845000Y-53479700D01*
X30289500Y-53479700D01*
X30289500Y-54406800D01*
D11*
X48396666Y-38897666D02*
X48163333Y-38564333D01*
X47996666Y-38897666D02*
X47996666Y-38197666D01*
X48263333Y-38197666D01*
X48330000Y-38231000D01*
X48363333Y-38264333D01*
X48396666Y-38331000D01*
X48396666Y-38431000D01*
X48363333Y-38497666D01*
X48330000Y-38531000D01*
X48263333Y-38564333D01*
X47996666Y-38564333D01*
X48963333Y-38864333D02*
X48896666Y-38897666D01*
X48763333Y-38897666D01*
X48696666Y-38864333D01*
X48663333Y-38797666D01*
X48663333Y-38531000D01*
X48696666Y-38464333D01*
X48763333Y-38431000D01*
X48896666Y-38431000D01*
X48963333Y-38464333D01*
X48996666Y-38531000D01*
X48996666Y-38597666D01*
X48663333Y-38664333D01*
X49196666Y-38431000D02*
X49463333Y-38431000D01*
X49296666Y-38897666D02*
X49296666Y-38297666D01*
X49330000Y-38231000D01*
X49396666Y-38197666D01*
X49463333Y-38197666D01*
X49963333Y-38864333D02*
X49896666Y-38897666D01*
X49763333Y-38897666D01*
X49696666Y-38864333D01*
X49663333Y-38797666D01*
X49663333Y-38531000D01*
X49696666Y-38464333D01*
X49763333Y-38431000D01*
X49896666Y-38431000D01*
X49963333Y-38464333D01*
X49996666Y-38531000D01*
X49996666Y-38597666D01*
X49663333Y-38664333D01*
X50296666Y-38897666D02*
X50296666Y-38431000D01*
X50296666Y-38564333D02*
X50330000Y-38497666D01*
X50363333Y-38464333D01*
X50430000Y-38431000D01*
X50496666Y-38431000D01*
X50996666Y-38864333D02*
X50930000Y-38897666D01*
X50796666Y-38897666D01*
X50730000Y-38864333D01*
X50696666Y-38797666D01*
X50696666Y-38531000D01*
X50730000Y-38464333D01*
X50796666Y-38431000D01*
X50930000Y-38431000D01*
X50996666Y-38464333D01*
X51030000Y-38531000D01*
X51030000Y-38597666D01*
X50696666Y-38664333D01*
X51330000Y-38431000D02*
X51330000Y-38897666D01*
X51330000Y-38497666D02*
X51363333Y-38464333D01*
X51430000Y-38431000D01*
X51530000Y-38431000D01*
X51596666Y-38464333D01*
X51630000Y-38531000D01*
X51630000Y-38897666D01*
X52263333Y-38864333D02*
X52196666Y-38897666D01*
X52063333Y-38897666D01*
X51996666Y-38864333D01*
X51963333Y-38831000D01*
X51930000Y-38764333D01*
X51930000Y-38564333D01*
X51963333Y-38497666D01*
X51996666Y-38464333D01*
X52063333Y-38431000D01*
X52196666Y-38431000D01*
X52263333Y-38464333D01*
X52830000Y-38864333D02*
X52763333Y-38897666D01*
X52630000Y-38897666D01*
X52563333Y-38864333D01*
X52530000Y-38797666D01*
X52530000Y-38531000D01*
X52563333Y-38464333D01*
X52630000Y-38431000D01*
X52763333Y-38431000D01*
X52830000Y-38464333D01*
X52863333Y-38531000D01*
X52863333Y-38597666D01*
X52530000Y-38664333D01*
X47896666Y-39367666D02*
X48130000Y-40067666D01*
X48363333Y-39367666D01*
X48696666Y-40067666D02*
X48630000Y-40034333D01*
X48596666Y-40001000D01*
X48563333Y-39934333D01*
X48563333Y-39734333D01*
X48596666Y-39667666D01*
X48630000Y-39634333D01*
X48696666Y-39601000D01*
X48796666Y-39601000D01*
X48863333Y-39634333D01*
X48896666Y-39667666D01*
X48930000Y-39734333D01*
X48930000Y-39934333D01*
X48896666Y-40001000D01*
X48863333Y-40034333D01*
X48796666Y-40067666D01*
X48696666Y-40067666D01*
X49330000Y-40067666D02*
X49263333Y-40034333D01*
X49230000Y-39967666D01*
X49230000Y-39367666D01*
X49496666Y-39601000D02*
X49763333Y-39601000D01*
X49596666Y-39367666D02*
X49596666Y-39967666D01*
X49630000Y-40034333D01*
X49696666Y-40067666D01*
X49763333Y-40067666D01*
X50296666Y-40067666D02*
X50296666Y-39701000D01*
X50263333Y-39634333D01*
X50196666Y-39601000D01*
X50063333Y-39601000D01*
X49996666Y-39634333D01*
X50296666Y-40034333D02*
X50230000Y-40067666D01*
X50063333Y-40067666D01*
X49996666Y-40034333D01*
X49963333Y-39967666D01*
X49963333Y-39901000D01*
X49996666Y-39834333D01*
X50063333Y-39801000D01*
X50230000Y-39801000D01*
X50296666Y-39767666D01*
X50930000Y-39601000D02*
X50930000Y-40167666D01*
X50896666Y-40234333D01*
X50863333Y-40267666D01*
X50796666Y-40301000D01*
X50696666Y-40301000D01*
X50630000Y-40267666D01*
X50930000Y-40034333D02*
X50863333Y-40067666D01*
X50730000Y-40067666D01*
X50663333Y-40034333D01*
X50630000Y-40001000D01*
X50596666Y-39934333D01*
X50596666Y-39734333D01*
X50630000Y-39667666D01*
X50663333Y-39634333D01*
X50730000Y-39601000D01*
X50863333Y-39601000D01*
X50930000Y-39634333D01*
X51530000Y-40034333D02*
X51463333Y-40067666D01*
X51330000Y-40067666D01*
X51263333Y-40034333D01*
X51230000Y-39967666D01*
X51230000Y-39701000D01*
X51263333Y-39634333D01*
X51330000Y-39601000D01*
X51463333Y-39601000D01*
X51530000Y-39634333D01*
X51563333Y-39701000D01*
X51563333Y-39767666D01*
X51230000Y-39834333D01*
X48363333Y-40571000D02*
X48296666Y-40537666D01*
X48196666Y-40537666D01*
X48096666Y-40571000D01*
X48030000Y-40637666D01*
X47996666Y-40704333D01*
X47963333Y-40837666D01*
X47963333Y-40937666D01*
X47996666Y-41071000D01*
X48030000Y-41137666D01*
X48096666Y-41204333D01*
X48196666Y-41237666D01*
X48263333Y-41237666D01*
X48363333Y-41204333D01*
X48396666Y-41171000D01*
X48396666Y-40937666D01*
X48263333Y-40937666D01*
X48963333Y-41204333D02*
X48896666Y-41237666D01*
X48763333Y-41237666D01*
X48696666Y-41204333D01*
X48663333Y-41137666D01*
X48663333Y-40871000D01*
X48696666Y-40804333D01*
X48763333Y-40771000D01*
X48896666Y-40771000D01*
X48963333Y-40804333D01*
X48996666Y-40871000D01*
X48996666Y-40937666D01*
X48663333Y-41004333D01*
X49296666Y-40771000D02*
X49296666Y-41237666D01*
X49296666Y-40837666D02*
X49330000Y-40804333D01*
X49396666Y-40771000D01*
X49496666Y-40771000D01*
X49563333Y-40804333D01*
X49596666Y-40871000D01*
X49596666Y-41237666D01*
X50196666Y-41204333D02*
X50130000Y-41237666D01*
X49996666Y-41237666D01*
X49930000Y-41204333D01*
X49896666Y-41137666D01*
X49896666Y-40871000D01*
X49930000Y-40804333D01*
X49996666Y-40771000D01*
X50130000Y-40771000D01*
X50196666Y-40804333D01*
X50230000Y-40871000D01*
X50230000Y-40937666D01*
X49896666Y-41004333D01*
X50530000Y-41237666D02*
X50530000Y-40771000D01*
X50530000Y-40904333D02*
X50563333Y-40837666D01*
X50596666Y-40804333D01*
X50663333Y-40771000D01*
X50730000Y-40771000D01*
X51263333Y-41237666D02*
X51263333Y-40871000D01*
X51230000Y-40804333D01*
X51163333Y-40771000D01*
X51030000Y-40771000D01*
X50963333Y-40804333D01*
X51263333Y-41204333D02*
X51196666Y-41237666D01*
X51030000Y-41237666D01*
X50963333Y-41204333D01*
X50930000Y-41137666D01*
X50930000Y-41071000D01*
X50963333Y-41004333D01*
X51030000Y-40971000D01*
X51196666Y-40971000D01*
X51263333Y-40937666D01*
X51496666Y-40771000D02*
X51763333Y-40771000D01*
X51596666Y-40537666D02*
X51596666Y-41137666D01*
X51630000Y-41204333D01*
X51696666Y-41237666D01*
X51763333Y-41237666D01*
X52096666Y-41237666D02*
X52030000Y-41204333D01*
X51996666Y-41171000D01*
X51963333Y-41104333D01*
X51963333Y-40904333D01*
X51996666Y-40837666D01*
X52030000Y-40804333D01*
X52096666Y-40771000D01*
X52196666Y-40771000D01*
X52263333Y-40804333D01*
X52296666Y-40837666D01*
X52330000Y-40904333D01*
X52330000Y-41104333D01*
X52296666Y-41171000D01*
X52263333Y-41204333D01*
X52196666Y-41237666D01*
X52096666Y-41237666D01*
X52630000Y-41237666D02*
X52630000Y-40771000D01*
X52630000Y-40904333D02*
X52663333Y-40837666D01*
X52696666Y-40804333D01*
X52763333Y-40771000D01*
X52830000Y-40771000D01*
X39662333Y-44751666D02*
X39329000Y-44751666D01*
X39295666Y-45085000D01*
X39329000Y-45051666D01*
X39395666Y-45018333D01*
X39562333Y-45018333D01*
X39629000Y-45051666D01*
X39662333Y-45085000D01*
X39695666Y-45151666D01*
X39695666Y-45318333D01*
X39662333Y-45385000D01*
X39629000Y-45418333D01*
X39562333Y-45451666D01*
X39395666Y-45451666D01*
X39329000Y-45418333D01*
X39295666Y-45385000D01*
X39895666Y-44751666D02*
X40129000Y-45451666D01*
X40362333Y-44751666D01*
X41362333Y-45085000D02*
X41462333Y-45118333D01*
X41495666Y-45151666D01*
X41529000Y-45218333D01*
X41529000Y-45318333D01*
X41495666Y-45385000D01*
X41462333Y-45418333D01*
X41395666Y-45451666D01*
X41129000Y-45451666D01*
X41129000Y-44751666D01*
X41362333Y-44751666D01*
X41429000Y-44785000D01*
X41462333Y-44818333D01*
X41495666Y-44885000D01*
X41495666Y-44951666D01*
X41462333Y-45018333D01*
X41429000Y-45051666D01*
X41362333Y-45085000D01*
X41129000Y-45085000D01*
X41929000Y-45451666D02*
X41862333Y-45418333D01*
X41829000Y-45385000D01*
X41795666Y-45318333D01*
X41795666Y-45118333D01*
X41829000Y-45051666D01*
X41862333Y-45018333D01*
X41929000Y-44985000D01*
X42029000Y-44985000D01*
X42095666Y-45018333D01*
X42129000Y-45051666D01*
X42162333Y-45118333D01*
X42162333Y-45318333D01*
X42129000Y-45385000D01*
X42095666Y-45418333D01*
X42029000Y-45451666D01*
X41929000Y-45451666D01*
X42562333Y-45451666D02*
X42495666Y-45418333D01*
X42462333Y-45385000D01*
X42429000Y-45318333D01*
X42429000Y-45118333D01*
X42462333Y-45051666D01*
X42495666Y-45018333D01*
X42562333Y-44985000D01*
X42662333Y-44985000D01*
X42729000Y-45018333D01*
X42762333Y-45051666D01*
X42795666Y-45118333D01*
X42795666Y-45318333D01*
X42762333Y-45385000D01*
X42729000Y-45418333D01*
X42662333Y-45451666D01*
X42562333Y-45451666D01*
X43062333Y-45418333D02*
X43129000Y-45451666D01*
X43262333Y-45451666D01*
X43329000Y-45418333D01*
X43362333Y-45351666D01*
X43362333Y-45318333D01*
X43329000Y-45251666D01*
X43262333Y-45218333D01*
X43162333Y-45218333D01*
X43095666Y-45185000D01*
X43062333Y-45118333D01*
X43062333Y-45085000D01*
X43095666Y-45018333D01*
X43162333Y-44985000D01*
X43262333Y-44985000D01*
X43329000Y-45018333D01*
X43562333Y-44985000D02*
X43829000Y-44985000D01*
X43662333Y-44751666D02*
X43662333Y-45351666D01*
X43695666Y-45418333D01*
X43762333Y-45451666D01*
X43829000Y-45451666D01*
X39612333Y-46555000D02*
X39579000Y-46588333D01*
X39479000Y-46621666D01*
X39412333Y-46621666D01*
X39312333Y-46588333D01*
X39245666Y-46521666D01*
X39212333Y-46455000D01*
X39179000Y-46321666D01*
X39179000Y-46221666D01*
X39212333Y-46088333D01*
X39245666Y-46021666D01*
X39312333Y-45955000D01*
X39412333Y-45921666D01*
X39479000Y-45921666D01*
X39579000Y-45955000D01*
X39612333Y-45988333D01*
X40012333Y-46621666D02*
X39945666Y-46588333D01*
X39912333Y-46555000D01*
X39879000Y-46488333D01*
X39879000Y-46288333D01*
X39912333Y-46221666D01*
X39945666Y-46188333D01*
X40012333Y-46155000D01*
X40112333Y-46155000D01*
X40179000Y-46188333D01*
X40212333Y-46221666D01*
X40245666Y-46288333D01*
X40245666Y-46488333D01*
X40212333Y-46555000D01*
X40179000Y-46588333D01*
X40112333Y-46621666D01*
X40012333Y-46621666D01*
X40545666Y-46155000D02*
X40545666Y-46621666D01*
X40545666Y-46221666D02*
X40579000Y-46188333D01*
X40645666Y-46155000D01*
X40745666Y-46155000D01*
X40812333Y-46188333D01*
X40845666Y-46255000D01*
X40845666Y-46621666D01*
X41112333Y-46155000D02*
X41279000Y-46621666D01*
X41445666Y-46155000D01*
X41979000Y-46588333D02*
X41912333Y-46621666D01*
X41779000Y-46621666D01*
X41712333Y-46588333D01*
X41679000Y-46521666D01*
X41679000Y-46255000D01*
X41712333Y-46188333D01*
X41779000Y-46155000D01*
X41912333Y-46155000D01*
X41979000Y-46188333D01*
X42012333Y-46255000D01*
X42012333Y-46321666D01*
X41679000Y-46388333D01*
X42312333Y-46621666D02*
X42312333Y-46155000D01*
X42312333Y-46288333D02*
X42345666Y-46221666D01*
X42379000Y-46188333D01*
X42445666Y-46155000D01*
X42512333Y-46155000D01*
X42645666Y-46155000D02*
X42912333Y-46155000D01*
X42745666Y-45921666D02*
X42745666Y-46521666D01*
X42779000Y-46588333D01*
X42845666Y-46621666D01*
X42912333Y-46621666D01*
X43412333Y-46588333D02*
X43345666Y-46621666D01*
X43212333Y-46621666D01*
X43145666Y-46588333D01*
X43112333Y-46521666D01*
X43112333Y-46255000D01*
X43145666Y-46188333D01*
X43212333Y-46155000D01*
X43345666Y-46155000D01*
X43412333Y-46188333D01*
X43445666Y-46255000D01*
X43445666Y-46321666D01*
X43112333Y-46388333D01*
X43745666Y-46621666D02*
X43745666Y-46155000D01*
X43745666Y-46288333D02*
X43779000Y-46221666D01*
X43812333Y-46188333D01*
X43879000Y-46155000D01*
X43945666Y-46155000D01*
X26181095Y-34417476D02*
X26981095Y-34417476D01*
X26981095Y-34722238D01*
X26943000Y-34798428D01*
X26904904Y-34836523D01*
X26828714Y-34874619D01*
X26714428Y-34874619D01*
X26638238Y-34836523D01*
X26600142Y-34798428D01*
X26562047Y-34722238D01*
X26562047Y-34417476D01*
X26181095Y-35331761D02*
X26219190Y-35255571D01*
X26257285Y-35217476D01*
X26333476Y-35179380D01*
X26562047Y-35179380D01*
X26638238Y-35217476D01*
X26676333Y-35255571D01*
X26714428Y-35331761D01*
X26714428Y-35446047D01*
X26676333Y-35522238D01*
X26638238Y-35560333D01*
X26562047Y-35598428D01*
X26333476Y-35598428D01*
X26257285Y-35560333D01*
X26219190Y-35522238D01*
X26181095Y-35446047D01*
X26181095Y-35331761D01*
X26714428Y-35865095D02*
X26181095Y-36017476D01*
X26562047Y-36169857D01*
X26181095Y-36322238D01*
X26714428Y-36474619D01*
X26219190Y-37084142D02*
X26181095Y-37007952D01*
X26181095Y-36855571D01*
X26219190Y-36779380D01*
X26295380Y-36741285D01*
X26600142Y-36741285D01*
X26676333Y-36779380D01*
X26714428Y-36855571D01*
X26714428Y-37007952D01*
X26676333Y-37084142D01*
X26600142Y-37122238D01*
X26523952Y-37122238D01*
X26447761Y-36741285D01*
X26181095Y-37465095D02*
X26714428Y-37465095D01*
X26562047Y-37465095D02*
X26638238Y-37503190D01*
X26676333Y-37541285D01*
X26714428Y-37617476D01*
X26714428Y-37693666D01*
X26219190Y-38531761D02*
X26181095Y-38646047D01*
X26181095Y-38836523D01*
X26219190Y-38912714D01*
X26257285Y-38950809D01*
X26333476Y-38988904D01*
X26409666Y-38988904D01*
X26485857Y-38950809D01*
X26523952Y-38912714D01*
X26562047Y-38836523D01*
X26600142Y-38684142D01*
X26638238Y-38607952D01*
X26676333Y-38569857D01*
X26752523Y-38531761D01*
X26828714Y-38531761D01*
X26904904Y-38569857D01*
X26943000Y-38607952D01*
X26981095Y-38684142D01*
X26981095Y-38874619D01*
X26943000Y-38988904D01*
X26714428Y-39255571D02*
X26181095Y-39407952D01*
X26562047Y-39560333D01*
X26181095Y-39712714D01*
X26714428Y-39865095D01*
X26181095Y-40169857D02*
X26714428Y-40169857D01*
X26981095Y-40169857D02*
X26943000Y-40131761D01*
X26904904Y-40169857D01*
X26943000Y-40207952D01*
X26981095Y-40169857D01*
X26904904Y-40169857D01*
X26714428Y-40436523D02*
X26714428Y-40741285D01*
X26981095Y-40550809D02*
X26295380Y-40550809D01*
X26219190Y-40588904D01*
X26181095Y-40665095D01*
X26181095Y-40741285D01*
X26219190Y-41350809D02*
X26181095Y-41274619D01*
X26181095Y-41122238D01*
X26219190Y-41046047D01*
X26257285Y-41007952D01*
X26333476Y-40969857D01*
X26562047Y-40969857D01*
X26638238Y-41007952D01*
X26676333Y-41046047D01*
X26714428Y-41122238D01*
X26714428Y-41274619D01*
X26676333Y-41350809D01*
X26181095Y-41693666D02*
X26981095Y-41693666D01*
X26181095Y-42036523D02*
X26600142Y-42036523D01*
X26676333Y-41998428D01*
X26714428Y-41922238D01*
X26714428Y-41807952D01*
X26676333Y-41731761D01*
X26638238Y-41693666D01*
D13*
X27067714Y-31746857D02*
X27067714Y-32946857D01*
X27067714Y-31804000D02*
X27182000Y-31746857D01*
X27410571Y-31746857D01*
X27524857Y-31804000D01*
X27582000Y-31861142D01*
X27639142Y-31975428D01*
X27639142Y-32318285D01*
X27582000Y-32432571D01*
X27524857Y-32489714D01*
X27410571Y-32546857D01*
X27182000Y-32546857D01*
X27067714Y-32489714D01*
X28096285Y-32489714D02*
X28210571Y-32546857D01*
X28439142Y-32546857D01*
X28553428Y-32489714D01*
X28610571Y-32375428D01*
X28610571Y-32318285D01*
X28553428Y-32204000D01*
X28439142Y-32146857D01*
X28267714Y-32146857D01*
X28153428Y-32089714D01*
X28096285Y-31975428D01*
X28096285Y-31918285D01*
X28153428Y-31804000D01*
X28267714Y-31746857D01*
X28439142Y-31746857D01*
X28553428Y-31804000D01*
X29010571Y-31746857D02*
X29296285Y-32546857D01*
X29582000Y-31746857D02*
X29296285Y-32546857D01*
X29182000Y-32832571D01*
X29124857Y-32889714D01*
X29010571Y-32946857D01*
X30210571Y-32546857D02*
X30096285Y-32489714D01*
X30039142Y-32375428D01*
X30039142Y-31346857D01*
X30667714Y-32546857D02*
X30667714Y-31746857D01*
X30667714Y-31346857D02*
X30610571Y-31404000D01*
X30667714Y-31461142D01*
X30724857Y-31404000D01*
X30667714Y-31346857D01*
X30667714Y-31461142D01*
X31239142Y-31746857D02*
X31239142Y-32546857D01*
X31239142Y-31861142D02*
X31296285Y-31804000D01*
X31410571Y-31746857D01*
X31582000Y-31746857D01*
X31696285Y-31804000D01*
X31753428Y-31918285D01*
X31753428Y-32546857D01*
X32324857Y-32546857D02*
X32324857Y-31346857D01*
X32439142Y-32089714D02*
X32782000Y-32546857D01*
X32782000Y-31746857D02*
X32324857Y-32204000D01*
X33296285Y-32432571D02*
X33353428Y-32489714D01*
X33296285Y-32546857D01*
X33239142Y-32489714D01*
X33296285Y-32432571D01*
X33296285Y-32546857D01*
X33867714Y-32546857D02*
X33867714Y-31746857D01*
X33867714Y-31861142D02*
X33924857Y-31804000D01*
X34039142Y-31746857D01*
X34210571Y-31746857D01*
X34324857Y-31804000D01*
X34382000Y-31918285D01*
X34382000Y-32546857D01*
X34382000Y-31918285D02*
X34439142Y-31804000D01*
X34553428Y-31746857D01*
X34724857Y-31746857D01*
X34839142Y-31804000D01*
X34896285Y-31918285D01*
X34896285Y-32546857D01*
X35924857Y-32489714D02*
X35810571Y-32546857D01*
X35582000Y-32546857D01*
X35467714Y-32489714D01*
X35410571Y-32375428D01*
X35410571Y-31918285D01*
X35467714Y-31804000D01*
X35582000Y-31746857D01*
X35810571Y-31746857D01*
X35924857Y-31804000D01*
X35982000Y-31918285D01*
X35982000Y-32032571D01*
X35410571Y-32146857D01*
X37353428Y-31289714D02*
X36324857Y-32832571D01*
X37753428Y-32546857D02*
X37753428Y-31346857D01*
X37753428Y-31804000D02*
X37867714Y-31746857D01*
X38096285Y-31746857D01*
X38210571Y-31804000D01*
X38267714Y-31861142D01*
X38324857Y-31975428D01*
X38324857Y-32318285D01*
X38267714Y-32432571D01*
X38210571Y-32489714D01*
X38096285Y-32546857D01*
X37867714Y-32546857D01*
X37753428Y-32489714D01*
X38839142Y-31746857D02*
X38839142Y-32946857D01*
X38839142Y-31804000D02*
X38953428Y-31746857D01*
X39182000Y-31746857D01*
X39296285Y-31804000D01*
X39353428Y-31861142D01*
X39410571Y-31975428D01*
X39410571Y-32318285D01*
X39353428Y-32432571D01*
X39296285Y-32489714D01*
X39182000Y-32546857D01*
X38953428Y-32546857D01*
X38839142Y-32489714D01*
X39810571Y-31346857D02*
X40553428Y-31346857D01*
X40153428Y-31804000D01*
X40324857Y-31804000D01*
X40439142Y-31861142D01*
X40496285Y-31918285D01*
X40553428Y-32032571D01*
X40553428Y-32318285D01*
X40496285Y-32432571D01*
X40439142Y-32489714D01*
X40324857Y-32546857D01*
X39982000Y-32546857D01*
X39867714Y-32489714D01*
X39810571Y-32432571D01*
D15*
X54899560Y-27940000D02*
X54899560Y-26543000D01*
X38354000Y-27279600D02*
X39763700Y-27279600D01*
X39065200Y-27940000D02*
X39065200Y-26543000D01*
D11*
X33586922Y-45274300D02*
X34104078Y-45274300D01*
X33586922Y-43854300D02*
X34104078Y-43854300D01*
X65786000Y-49127100D02*
X65786000Y-51787100D01*
X65786000Y-49127100D02*
X30166000Y-49127100D01*
X30166000Y-49127100D02*
X30166000Y-51787100D01*
X65786000Y-51787100D02*
X30166000Y-51787100D01*
X68386000Y-51787100D02*
X67056000Y-51787100D01*
X68386000Y-50457100D02*
X68386000Y-51787100D01*
X65786000Y-33887100D02*
X65786000Y-36547100D01*
X65786000Y-33887100D02*
X30166000Y-33887100D01*
X30166000Y-33887100D02*
X30166000Y-36547100D01*
X65786000Y-36547100D02*
X30166000Y-36547100D01*
X68386000Y-36547100D02*
X67056000Y-36547100D01*
X68386000Y-35217100D02*
X68386000Y-36547100D01*
X54995578Y-41096000D02*
X54478422Y-41096000D01*
X54995578Y-39676000D02*
X54478422Y-39676000D01*
X24624400Y-29355800D02*
X23624400Y-29355800D01*
X23624400Y-25355800D02*
X24624400Y-25355800D01*
X38451400Y-29895800D02*
X55977400Y-29895800D01*
X55977400Y-29895800D02*
X55977400Y-24815800D01*
X55977400Y-24815800D02*
X38451400Y-24815800D01*
X37308400Y-25831800D02*
X37308400Y-28879800D01*
X37308400Y-28879800D02*
X38451400Y-28879800D01*
X37308400Y-25831800D02*
X38451400Y-25831800D01*
X38451400Y-25831800D02*
X38451400Y-24815800D01*
X38451400Y-28879800D02*
X38451400Y-29895800D01*
X34104078Y-47433300D02*
X33586922Y-47433300D01*
X34104078Y-46013300D02*
X33586922Y-46013300D01*
X58932578Y-39676000D02*
X58415422Y-39676000D01*
X58932578Y-41096000D02*
X58415422Y-41096000D01*
X24521160Y-34405260D02*
X25851160Y-34405260D01*
X25851160Y-34405260D02*
X25851160Y-35735260D01*
X25851160Y-37005260D02*
X25851160Y-42145260D01*
X23191160Y-42145260D02*
X25851160Y-42145260D01*
X23191160Y-37005260D02*
X23191160Y-42145260D01*
X23191160Y-37005260D02*
X25851160Y-37005260D01*
X32964900Y-40803600D02*
X32964900Y-42703600D01*
X35284900Y-42203600D02*
X35284900Y-40803600D01*
X57647000Y-46314000D02*
X59447000Y-46314000D01*
X59447000Y-43094000D02*
X56997000Y-43094000D01*
X31669400Y-42486664D02*
X31669400Y-41282536D01*
X29849400Y-42486664D02*
X29849400Y-41282536D01*
X27563400Y-42486664D02*
X27563400Y-41282536D01*
X29383400Y-42486664D02*
X29383400Y-41282536D01*
X38209900Y-41130136D02*
X38209900Y-42334264D01*
X36389900Y-41130136D02*
X36389900Y-42334264D01*
X38675900Y-41130136D02*
X38675900Y-42334264D01*
X40495900Y-41130136D02*
X40495900Y-42334264D01*
X27538000Y-49370064D02*
X27538000Y-48165936D01*
X29358000Y-49370064D02*
X29358000Y-48165936D01*
X62844000Y-43085936D02*
X62844000Y-44290064D01*
X64664000Y-43085936D02*
X64664000Y-44290064D01*
X50757500Y-45179064D02*
X50757500Y-43974936D01*
X48937500Y-45179064D02*
X48937500Y-43974936D01*
X51198100Y-45179064D02*
X51198100Y-43974936D01*
X53018100Y-45179064D02*
X53018100Y-43974936D01*
X42769200Y-41135216D02*
X42769200Y-42339344D01*
X40949200Y-41135216D02*
X40949200Y-42339344D01*
X45055200Y-41135216D02*
X45055200Y-42339344D01*
X43235200Y-41135216D02*
X43235200Y-42339344D01*
X32049636Y-37449080D02*
X33253764Y-37449080D01*
X32049636Y-39269080D02*
X33253764Y-39269080D01*
X23198780Y-47162720D02*
X25858780Y-47162720D01*
X23198780Y-47162720D02*
X23198780Y-52302720D01*
X23198780Y-52302720D02*
X25858780Y-52302720D01*
X25858780Y-47162720D02*
X25858780Y-52302720D01*
X25858780Y-44562720D02*
X25858780Y-45892720D01*
X24528780Y-44562720D02*
X25858780Y-44562720D01*
D13*
X36422033Y-45092880D02*
X36088700Y-44616690D01*
X35850604Y-45092880D02*
X35850604Y-44092880D01*
X36231557Y-44092880D01*
X36326795Y-44140500D01*
X36374414Y-44188119D01*
X36422033Y-44283357D01*
X36422033Y-44426214D01*
X36374414Y-44521452D01*
X36326795Y-44569071D01*
X36231557Y-44616690D01*
X35850604Y-44616690D01*
X36802985Y-44188119D02*
X36850604Y-44140500D01*
X36945842Y-44092880D01*
X37183938Y-44092880D01*
X37279176Y-44140500D01*
X37326795Y-44188119D01*
X37374414Y-44283357D01*
X37374414Y-44378595D01*
X37326795Y-44521452D01*
X36755366Y-45092880D01*
X37374414Y-45092880D01*
X69762619Y-50085666D02*
X69048333Y-50085666D01*
X68905476Y-50038047D01*
X68810238Y-49942809D01*
X68762619Y-49799952D01*
X68762619Y-49704714D01*
X68762619Y-51085666D02*
X68762619Y-50514238D01*
X68762619Y-50799952D02*
X69762619Y-50799952D01*
X69619761Y-50704714D01*
X69524523Y-50609476D01*
X69476904Y-50514238D01*
X69762619Y-34845666D02*
X69048333Y-34845666D01*
X68905476Y-34798047D01*
X68810238Y-34702809D01*
X68762619Y-34559952D01*
X68762619Y-34464714D01*
X69667380Y-35274238D02*
X69715000Y-35321857D01*
X69762619Y-35417095D01*
X69762619Y-35655190D01*
X69715000Y-35750428D01*
X69667380Y-35798047D01*
X69572142Y-35845666D01*
X69476904Y-35845666D01*
X69334047Y-35798047D01*
X68762619Y-35226619D01*
X68762619Y-35845666D01*
X54570333Y-39250880D02*
X54237000Y-38774690D01*
X53998904Y-39250880D02*
X53998904Y-38250880D01*
X54379857Y-38250880D01*
X54475095Y-38298500D01*
X54522714Y-38346119D01*
X54570333Y-38441357D01*
X54570333Y-38584214D01*
X54522714Y-38679452D01*
X54475095Y-38727071D01*
X54379857Y-38774690D01*
X53998904Y-38774690D01*
X55427476Y-38584214D02*
X55427476Y-39250880D01*
X55189380Y-38203261D02*
X54951285Y-38917547D01*
X55570333Y-38917547D01*
X30172685Y-24744371D02*
X30315542Y-24791990D01*
X30363161Y-24839609D01*
X30410780Y-24934847D01*
X30410780Y-25077704D01*
X30363161Y-25172942D01*
X30315542Y-25220561D01*
X30220304Y-25268180D01*
X29839352Y-25268180D01*
X29839352Y-24268180D01*
X30172685Y-24268180D01*
X30267923Y-24315800D01*
X30315542Y-24363419D01*
X30363161Y-24458657D01*
X30363161Y-24553895D01*
X30315542Y-24649133D01*
X30267923Y-24696752D01*
X30172685Y-24744371D01*
X29839352Y-24744371D01*
X30696495Y-24268180D02*
X31267923Y-24268180D01*
X30982209Y-25268180D02*
X30982209Y-24268180D01*
X32125066Y-25268180D02*
X31553638Y-25268180D01*
X31839352Y-25268180D02*
X31839352Y-24268180D01*
X31744114Y-24411038D01*
X31648876Y-24506276D01*
X31553638Y-24553895D01*
X36472833Y-47175680D02*
X36139500Y-46699490D01*
X35901404Y-47175680D02*
X35901404Y-46175680D01*
X36282357Y-46175680D01*
X36377595Y-46223300D01*
X36425214Y-46270919D01*
X36472833Y-46366157D01*
X36472833Y-46509014D01*
X36425214Y-46604252D01*
X36377595Y-46651871D01*
X36282357Y-46699490D01*
X35901404Y-46699490D01*
X37425214Y-47175680D02*
X36853785Y-47175680D01*
X37139500Y-47175680D02*
X37139500Y-46175680D01*
X37044261Y-46318538D01*
X36949023Y-46413776D01*
X36853785Y-46461395D01*
X58507333Y-39250880D02*
X58174000Y-38774690D01*
X57935904Y-39250880D02*
X57935904Y-38250880D01*
X58316857Y-38250880D01*
X58412095Y-38298500D01*
X58459714Y-38346119D01*
X58507333Y-38441357D01*
X58507333Y-38584214D01*
X58459714Y-38679452D01*
X58412095Y-38727071D01*
X58316857Y-38774690D01*
X57935904Y-38774690D01*
X58840666Y-38250880D02*
X59459714Y-38250880D01*
X59126380Y-38631833D01*
X59269238Y-38631833D01*
X59364476Y-38679452D01*
X59412095Y-38727071D01*
X59459714Y-38822309D01*
X59459714Y-39060404D01*
X59412095Y-39155642D01*
X59364476Y-39203261D01*
X59269238Y-39250880D01*
X58983523Y-39250880D01*
X58888285Y-39203261D01*
X58840666Y-39155642D01*
D11*
X31874666Y-41935333D02*
X32441333Y-41935333D01*
X32508000Y-41902000D01*
X32541333Y-41868666D01*
X32574666Y-41802000D01*
X32574666Y-41668666D01*
X32541333Y-41602000D01*
X32508000Y-41568666D01*
X32441333Y-41535333D01*
X31874666Y-41535333D01*
X32574666Y-40835333D02*
X32574666Y-41235333D01*
X32574666Y-41035333D02*
X31874666Y-41035333D01*
X31974666Y-41102000D01*
X32041333Y-41168666D01*
X32074666Y-41235333D01*
D13*
X54864095Y-44156380D02*
X54864095Y-44965904D01*
X54911714Y-45061142D01*
X54959333Y-45108761D01*
X55054571Y-45156380D01*
X55245047Y-45156380D01*
X55340285Y-45108761D01*
X55387904Y-45061142D01*
X55435523Y-44965904D01*
X55435523Y-44156380D01*
X55864095Y-44251619D02*
X55911714Y-44204000D01*
X56006952Y-44156380D01*
X56245047Y-44156380D01*
X56340285Y-44204000D01*
X56387904Y-44251619D01*
X56435523Y-44346857D01*
X56435523Y-44442095D01*
X56387904Y-44584952D01*
X55816476Y-45156380D01*
X56435523Y-45156380D01*
X30585113Y-45137342D02*
X30537494Y-45184961D01*
X30394637Y-45232580D01*
X30299399Y-45232580D01*
X30156541Y-45184961D01*
X30061303Y-45089723D01*
X30013684Y-44994485D01*
X29966065Y-44804009D01*
X29966065Y-44661152D01*
X30013684Y-44470676D01*
X30061303Y-44375438D01*
X30156541Y-44280200D01*
X30299399Y-44232580D01*
X30394637Y-44232580D01*
X30537494Y-44280200D01*
X30585113Y-44327819D01*
X30966065Y-44327819D02*
X31013684Y-44280200D01*
X31108922Y-44232580D01*
X31347018Y-44232580D01*
X31442256Y-44280200D01*
X31489875Y-44327819D01*
X31537494Y-44423057D01*
X31537494Y-44518295D01*
X31489875Y-44661152D01*
X30918446Y-45232580D01*
X31537494Y-45232580D01*
X28296573Y-45172902D02*
X28248954Y-45220521D01*
X28106097Y-45268140D01*
X28010859Y-45268140D01*
X27868001Y-45220521D01*
X27772763Y-45125283D01*
X27725144Y-45030045D01*
X27677525Y-44839569D01*
X27677525Y-44696712D01*
X27725144Y-44506236D01*
X27772763Y-44410998D01*
X27868001Y-44315760D01*
X28010859Y-44268140D01*
X28106097Y-44268140D01*
X28248954Y-44315760D01*
X28296573Y-44363379D01*
X29248954Y-45268140D02*
X28677525Y-45268140D01*
X28963240Y-45268140D02*
X28963240Y-44268140D01*
X28868001Y-44410998D01*
X28772763Y-44506236D01*
X28677525Y-44553855D01*
X37133233Y-39104842D02*
X37085614Y-39152461D01*
X36942757Y-39200080D01*
X36847519Y-39200080D01*
X36704661Y-39152461D01*
X36609423Y-39057223D01*
X36561804Y-38961985D01*
X36514185Y-38771509D01*
X36514185Y-38628652D01*
X36561804Y-38438176D01*
X36609423Y-38342938D01*
X36704661Y-38247700D01*
X36847519Y-38200080D01*
X36942757Y-38200080D01*
X37085614Y-38247700D01*
X37133233Y-38295319D01*
X37466566Y-38200080D02*
X38085614Y-38200080D01*
X37752280Y-38581033D01*
X37895138Y-38581033D01*
X37990376Y-38628652D01*
X38037995Y-38676271D01*
X38085614Y-38771509D01*
X38085614Y-39009604D01*
X38037995Y-39104842D01*
X37990376Y-39152461D01*
X37895138Y-39200080D01*
X37609423Y-39200080D01*
X37514185Y-39152461D01*
X37466566Y-39104842D01*
X39419233Y-39092142D02*
X39371614Y-39139761D01*
X39228757Y-39187380D01*
X39133519Y-39187380D01*
X38990661Y-39139761D01*
X38895423Y-39044523D01*
X38847804Y-38949285D01*
X38800185Y-38758809D01*
X38800185Y-38615952D01*
X38847804Y-38425476D01*
X38895423Y-38330238D01*
X38990661Y-38235000D01*
X39133519Y-38187380D01*
X39228757Y-38187380D01*
X39371614Y-38235000D01*
X39419233Y-38282619D01*
X40276376Y-38520714D02*
X40276376Y-39187380D01*
X40038280Y-38139761D02*
X39800185Y-38854047D01*
X40419233Y-38854047D01*
X30092714Y-48672714D02*
X30054619Y-48710809D01*
X29940333Y-48748904D01*
X29864142Y-48748904D01*
X29749857Y-48710809D01*
X29673666Y-48634619D01*
X29635571Y-48558428D01*
X29597476Y-48406047D01*
X29597476Y-48291761D01*
X29635571Y-48139380D01*
X29673666Y-48063190D01*
X29749857Y-47987000D01*
X29864142Y-47948904D01*
X29940333Y-47948904D01*
X30054619Y-47987000D01*
X30092714Y-48025095D01*
X30854619Y-48748904D02*
X30397476Y-48748904D01*
X30626047Y-48748904D02*
X30626047Y-47948904D01*
X30549857Y-48063190D01*
X30473666Y-48139380D01*
X30397476Y-48177476D01*
X31349857Y-47948904D02*
X31426047Y-47948904D01*
X31502238Y-47987000D01*
X31540333Y-48025095D01*
X31578428Y-48101285D01*
X31616523Y-48253666D01*
X31616523Y-48444142D01*
X31578428Y-48596523D01*
X31540333Y-48672714D01*
X31502238Y-48710809D01*
X31426047Y-48748904D01*
X31349857Y-48748904D01*
X31273666Y-48710809D01*
X31235571Y-48672714D01*
X31197476Y-48596523D01*
X31159380Y-48444142D01*
X31159380Y-48253666D01*
X31197476Y-48101285D01*
X31235571Y-48025095D01*
X31273666Y-47987000D01*
X31349857Y-47948904D01*
X63587333Y-47093142D02*
X63539714Y-47140761D01*
X63396857Y-47188380D01*
X63301619Y-47188380D01*
X63158761Y-47140761D01*
X63063523Y-47045523D01*
X63015904Y-46950285D01*
X62968285Y-46759809D01*
X62968285Y-46616952D01*
X63015904Y-46426476D01*
X63063523Y-46331238D01*
X63158761Y-46236000D01*
X63301619Y-46188380D01*
X63396857Y-46188380D01*
X63539714Y-46236000D01*
X63587333Y-46283619D01*
X63920666Y-46188380D02*
X64587333Y-46188380D01*
X64158761Y-47188380D01*
X49617333Y-47982142D02*
X49569714Y-48029761D01*
X49426857Y-48077380D01*
X49331619Y-48077380D01*
X49188761Y-48029761D01*
X49093523Y-47934523D01*
X49045904Y-47839285D01*
X48998285Y-47648809D01*
X48998285Y-47505952D01*
X49045904Y-47315476D01*
X49093523Y-47220238D01*
X49188761Y-47125000D01*
X49331619Y-47077380D01*
X49426857Y-47077380D01*
X49569714Y-47125000D01*
X49617333Y-47172619D01*
X50188761Y-47505952D02*
X50093523Y-47458333D01*
X50045904Y-47410714D01*
X49998285Y-47315476D01*
X49998285Y-47267857D01*
X50045904Y-47172619D01*
X50093523Y-47125000D01*
X50188761Y-47077380D01*
X50379238Y-47077380D01*
X50474476Y-47125000D01*
X50522095Y-47172619D01*
X50569714Y-47267857D01*
X50569714Y-47315476D01*
X50522095Y-47410714D01*
X50474476Y-47458333D01*
X50379238Y-47505952D01*
X50188761Y-47505952D01*
X50093523Y-47553571D01*
X50045904Y-47601190D01*
X49998285Y-47696428D01*
X49998285Y-47886904D01*
X50045904Y-47982142D01*
X50093523Y-48029761D01*
X50188761Y-48077380D01*
X50379238Y-48077380D01*
X50474476Y-48029761D01*
X50522095Y-47982142D01*
X50569714Y-47886904D01*
X50569714Y-47696428D01*
X50522095Y-47601190D01*
X50474476Y-47553571D01*
X50379238Y-47505952D01*
X51916033Y-47982142D02*
X51868414Y-48029761D01*
X51725557Y-48077380D01*
X51630319Y-48077380D01*
X51487461Y-48029761D01*
X51392223Y-47934523D01*
X51344604Y-47839285D01*
X51296985Y-47648809D01*
X51296985Y-47505952D01*
X51344604Y-47315476D01*
X51392223Y-47220238D01*
X51487461Y-47125000D01*
X51630319Y-47077380D01*
X51725557Y-47077380D01*
X51868414Y-47125000D01*
X51916033Y-47172619D01*
X52392223Y-48077380D02*
X52582700Y-48077380D01*
X52677938Y-48029761D01*
X52725557Y-47982142D01*
X52820795Y-47839285D01*
X52868414Y-47648809D01*
X52868414Y-47267857D01*
X52820795Y-47172619D01*
X52773176Y-47125000D01*
X52677938Y-47077380D01*
X52487461Y-47077380D01*
X52392223Y-47125000D01*
X52344604Y-47172619D01*
X52296985Y-47267857D01*
X52296985Y-47505952D01*
X52344604Y-47601190D01*
X52392223Y-47648809D01*
X52487461Y-47696428D01*
X52677938Y-47696428D01*
X52773176Y-47648809D01*
X52820795Y-47601190D01*
X52868414Y-47505952D01*
X41745873Y-39089602D02*
X41698254Y-39137221D01*
X41555397Y-39184840D01*
X41460159Y-39184840D01*
X41317301Y-39137221D01*
X41222063Y-39041983D01*
X41174444Y-38946745D01*
X41126825Y-38756269D01*
X41126825Y-38613412D01*
X41174444Y-38422936D01*
X41222063Y-38327698D01*
X41317301Y-38232460D01*
X41460159Y-38184840D01*
X41555397Y-38184840D01*
X41698254Y-38232460D01*
X41745873Y-38280079D01*
X42650635Y-38184840D02*
X42174444Y-38184840D01*
X42126825Y-38661031D01*
X42174444Y-38613412D01*
X42269682Y-38565793D01*
X42507778Y-38565793D01*
X42603016Y-38613412D01*
X42650635Y-38661031D01*
X42698254Y-38756269D01*
X42698254Y-38994364D01*
X42650635Y-39089602D01*
X42603016Y-39137221D01*
X42507778Y-39184840D01*
X42269682Y-39184840D01*
X42174444Y-39137221D01*
X42126825Y-39089602D01*
X43912493Y-39031182D02*
X43864874Y-39078801D01*
X43722017Y-39126420D01*
X43626779Y-39126420D01*
X43483921Y-39078801D01*
X43388683Y-38983563D01*
X43341064Y-38888325D01*
X43293445Y-38697849D01*
X43293445Y-38554992D01*
X43341064Y-38364516D01*
X43388683Y-38269278D01*
X43483921Y-38174040D01*
X43626779Y-38126420D01*
X43722017Y-38126420D01*
X43864874Y-38174040D01*
X43912493Y-38221659D01*
X44769636Y-38126420D02*
X44579160Y-38126420D01*
X44483921Y-38174040D01*
X44436302Y-38221659D01*
X44341064Y-38364516D01*
X44293445Y-38554992D01*
X44293445Y-38935944D01*
X44341064Y-39031182D01*
X44388683Y-39078801D01*
X44483921Y-39126420D01*
X44674398Y-39126420D01*
X44769636Y-39078801D01*
X44817255Y-39031182D01*
X44864874Y-38935944D01*
X44864874Y-38697849D01*
X44817255Y-38602611D01*
X44769636Y-38554992D01*
X44674398Y-38507373D01*
X44483921Y-38507373D01*
X44388683Y-38554992D01*
X44341064Y-38602611D01*
X44293445Y-38697849D01*
X29297333Y-38806380D02*
X28821142Y-38806380D01*
X28821142Y-37806380D01*
X30154476Y-38806380D02*
X29583047Y-38806380D01*
X29868761Y-38806380D02*
X29868761Y-37806380D01*
X29773523Y-37949238D01*
X29678285Y-38044476D01*
X29583047Y-38092095D01*
X23804666Y-43267380D02*
X23804666Y-43981666D01*
X23757047Y-44124523D01*
X23661809Y-44219761D01*
X23518952Y-44267380D01*
X23423714Y-44267380D01*
X24280857Y-44267380D02*
X24280857Y-43267380D01*
X24661809Y-43267380D01*
X24757047Y-43315000D01*
X24804666Y-43362619D01*
X24852285Y-43457857D01*
X24852285Y-43600714D01*
X24804666Y-43695952D01*
X24757047Y-43743571D01*
X24661809Y-43791190D01*
X24280857Y-43791190D01*
X25804666Y-44267380D02*
X25233238Y-44267380D01*
X25518952Y-44267380D02*
X25518952Y-43267380D01*
X25423714Y-43410238D01*
X25328476Y-43505476D01*
X25233238Y-43553095D01*
%LPC*%
D12*
G36*
X35050642Y-43865474D02*
G01*
X35074303Y-43868984D01*
X35097507Y-43874796D01*
X35120029Y-43882854D01*
X35141653Y-43893082D01*
X35162170Y-43905379D01*
X35181383Y-43919629D01*
X35199107Y-43935693D01*
X35215171Y-43953417D01*
X35229421Y-43972630D01*
X35241718Y-43993147D01*
X35251946Y-44014771D01*
X35260004Y-44037293D01*
X35265816Y-44060497D01*
X35269326Y-44084158D01*
X35270500Y-44108050D01*
X35270500Y-45020550D01*
X35269326Y-45044442D01*
X35265816Y-45068103D01*
X35260004Y-45091307D01*
X35251946Y-45113829D01*
X35241718Y-45135453D01*
X35229421Y-45155970D01*
X35215171Y-45175183D01*
X35199107Y-45192907D01*
X35181383Y-45208971D01*
X35162170Y-45223221D01*
X35141653Y-45235518D01*
X35120029Y-45245746D01*
X35097507Y-45253804D01*
X35074303Y-45259616D01*
X35050642Y-45263126D01*
X35026750Y-45264300D01*
X34539250Y-45264300D01*
X34515358Y-45263126D01*
X34491697Y-45259616D01*
X34468493Y-45253804D01*
X34445971Y-45245746D01*
X34424347Y-45235518D01*
X34403830Y-45223221D01*
X34384617Y-45208971D01*
X34366893Y-45192907D01*
X34350829Y-45175183D01*
X34336579Y-45155970D01*
X34324282Y-45135453D01*
X34314054Y-45113829D01*
X34305996Y-45091307D01*
X34300184Y-45068103D01*
X34296674Y-45044442D01*
X34295500Y-45020550D01*
X34295500Y-44108050D01*
X34296674Y-44084158D01*
X34300184Y-44060497D01*
X34305996Y-44037293D01*
X34314054Y-44014771D01*
X34324282Y-43993147D01*
X34336579Y-43972630D01*
X34350829Y-43953417D01*
X34366893Y-43935693D01*
X34384617Y-43919629D01*
X34403830Y-43905379D01*
X34424347Y-43893082D01*
X34445971Y-43882854D01*
X34468493Y-43874796D01*
X34491697Y-43868984D01*
X34515358Y-43865474D01*
X34539250Y-43864300D01*
X35026750Y-43864300D01*
X35050642Y-43865474D01*
G37*
G36*
X33175642Y-43865474D02*
G01*
X33199303Y-43868984D01*
X33222507Y-43874796D01*
X33245029Y-43882854D01*
X33266653Y-43893082D01*
X33287170Y-43905379D01*
X33306383Y-43919629D01*
X33324107Y-43935693D01*
X33340171Y-43953417D01*
X33354421Y-43972630D01*
X33366718Y-43993147D01*
X33376946Y-44014771D01*
X33385004Y-44037293D01*
X33390816Y-44060497D01*
X33394326Y-44084158D01*
X33395500Y-44108050D01*
X33395500Y-45020550D01*
X33394326Y-45044442D01*
X33390816Y-45068103D01*
X33385004Y-45091307D01*
X33376946Y-45113829D01*
X33366718Y-45135453D01*
X33354421Y-45155970D01*
X33340171Y-45175183D01*
X33324107Y-45192907D01*
X33306383Y-45208971D01*
X33287170Y-45223221D01*
X33266653Y-45235518D01*
X33245029Y-45245746D01*
X33222507Y-45253804D01*
X33199303Y-45259616D01*
X33175642Y-45263126D01*
X33151750Y-45264300D01*
X32664250Y-45264300D01*
X32640358Y-45263126D01*
X32616697Y-45259616D01*
X32593493Y-45253804D01*
X32570971Y-45245746D01*
X32549347Y-45235518D01*
X32528830Y-45223221D01*
X32509617Y-45208971D01*
X32491893Y-45192907D01*
X32475829Y-45175183D01*
X32461579Y-45155970D01*
X32449282Y-45135453D01*
X32439054Y-45113829D01*
X32430996Y-45091307D01*
X32425184Y-45068103D01*
X32421674Y-45044442D01*
X32420500Y-45020550D01*
X32420500Y-44108050D01*
X32421674Y-44084158D01*
X32425184Y-44060497D01*
X32430996Y-44037293D01*
X32439054Y-44014771D01*
X32449282Y-43993147D01*
X32461579Y-43972630D01*
X32475829Y-43953417D01*
X32491893Y-43935693D01*
X32509617Y-43919629D01*
X32528830Y-43905379D01*
X32549347Y-43893082D01*
X32570971Y-43882854D01*
X32593493Y-43874796D01*
X32616697Y-43868984D01*
X32640358Y-43865474D01*
X32664250Y-43864300D01*
X33151750Y-43864300D01*
X33175642Y-43865474D01*
G37*
D16*
X67056000Y-50457100D03*
X64516000Y-50457100D03*
X61976000Y-50457100D03*
X59436000Y-50457100D03*
X56896000Y-50457100D03*
X54356000Y-50457100D03*
X51816000Y-50457100D03*
X49276000Y-50457100D03*
X46736000Y-50457100D03*
X44196000Y-50457100D03*
X41656000Y-50457100D03*
X39116000Y-50457100D03*
X36576000Y-50457100D03*
D17*
X34036000Y-50457100D03*
D16*
X31496000Y-50457100D03*
X67056000Y-35217100D03*
X64516000Y-35217100D03*
X61976000Y-35217100D03*
X59436000Y-35217100D03*
X56896000Y-35217100D03*
X54356000Y-35217100D03*
X51816000Y-35217100D03*
X49276000Y-35217100D03*
X46736000Y-35217100D03*
X44196000Y-35217100D03*
X41656000Y-35217100D03*
D17*
X39116000Y-35217100D03*
D16*
X36576000Y-35217100D03*
X34036000Y-35217100D03*
X31496000Y-35217100D03*
D12*
G36*
X55942142Y-39687174D02*
G01*
X55965803Y-39690684D01*
X55989007Y-39696496D01*
X56011529Y-39704554D01*
X56033153Y-39714782D01*
X56053670Y-39727079D01*
X56072883Y-39741329D01*
X56090607Y-39757393D01*
X56106671Y-39775117D01*
X56120921Y-39794330D01*
X56133218Y-39814847D01*
X56143446Y-39836471D01*
X56151504Y-39858993D01*
X56157316Y-39882197D01*
X56160826Y-39905858D01*
X56162000Y-39929750D01*
X56162000Y-40842250D01*
X56160826Y-40866142D01*
X56157316Y-40889803D01*
X56151504Y-40913007D01*
X56143446Y-40935529D01*
X56133218Y-40957153D01*
X56120921Y-40977670D01*
X56106671Y-40996883D01*
X56090607Y-41014607D01*
X56072883Y-41030671D01*
X56053670Y-41044921D01*
X56033153Y-41057218D01*
X56011529Y-41067446D01*
X55989007Y-41075504D01*
X55965803Y-41081316D01*
X55942142Y-41084826D01*
X55918250Y-41086000D01*
X55430750Y-41086000D01*
X55406858Y-41084826D01*
X55383197Y-41081316D01*
X55359993Y-41075504D01*
X55337471Y-41067446D01*
X55315847Y-41057218D01*
X55295330Y-41044921D01*
X55276117Y-41030671D01*
X55258393Y-41014607D01*
X55242329Y-40996883D01*
X55228079Y-40977670D01*
X55215782Y-40957153D01*
X55205554Y-40935529D01*
X55197496Y-40913007D01*
X55191684Y-40889803D01*
X55188174Y-40866142D01*
X55187000Y-40842250D01*
X55187000Y-39929750D01*
X55188174Y-39905858D01*
X55191684Y-39882197D01*
X55197496Y-39858993D01*
X55205554Y-39836471D01*
X55215782Y-39814847D01*
X55228079Y-39794330D01*
X55242329Y-39775117D01*
X55258393Y-39757393D01*
X55276117Y-39741329D01*
X55295330Y-39727079D01*
X55315847Y-39714782D01*
X55337471Y-39704554D01*
X55359993Y-39696496D01*
X55383197Y-39690684D01*
X55406858Y-39687174D01*
X55430750Y-39686000D01*
X55918250Y-39686000D01*
X55942142Y-39687174D01*
G37*
G36*
X54067142Y-39687174D02*
G01*
X54090803Y-39690684D01*
X54114007Y-39696496D01*
X54136529Y-39704554D01*
X54158153Y-39714782D01*
X54178670Y-39727079D01*
X54197883Y-39741329D01*
X54215607Y-39757393D01*
X54231671Y-39775117D01*
X54245921Y-39794330D01*
X54258218Y-39814847D01*
X54268446Y-39836471D01*
X54276504Y-39858993D01*
X54282316Y-39882197D01*
X54285826Y-39905858D01*
X54287000Y-39929750D01*
X54287000Y-40842250D01*
X54285826Y-40866142D01*
X54282316Y-40889803D01*
X54276504Y-40913007D01*
X54268446Y-40935529D01*
X54258218Y-40957153D01*
X54245921Y-40977670D01*
X54231671Y-40996883D01*
X54215607Y-41014607D01*
X54197883Y-41030671D01*
X54178670Y-41044921D01*
X54158153Y-41057218D01*
X54136529Y-41067446D01*
X54114007Y-41075504D01*
X54090803Y-41081316D01*
X54067142Y-41084826D01*
X54043250Y-41086000D01*
X53555750Y-41086000D01*
X53531858Y-41084826D01*
X53508197Y-41081316D01*
X53484993Y-41075504D01*
X53462471Y-41067446D01*
X53440847Y-41057218D01*
X53420330Y-41044921D01*
X53401117Y-41030671D01*
X53383393Y-41014607D01*
X53367329Y-40996883D01*
X53353079Y-40977670D01*
X53340782Y-40957153D01*
X53330554Y-40935529D01*
X53322496Y-40913007D01*
X53316684Y-40889803D01*
X53313174Y-40866142D01*
X53312000Y-40842250D01*
X53312000Y-39929750D01*
X53313174Y-39905858D01*
X53316684Y-39882197D01*
X53322496Y-39858993D01*
X53330554Y-39836471D01*
X53340782Y-39814847D01*
X53353079Y-39794330D01*
X53367329Y-39775117D01*
X53383393Y-39757393D01*
X53401117Y-39741329D01*
X53420330Y-39727079D01*
X53440847Y-39714782D01*
X53462471Y-39704554D01*
X53484993Y-39696496D01*
X53508197Y-39690684D01*
X53531858Y-39687174D01*
X53555750Y-39686000D01*
X54043250Y-39686000D01*
X54067142Y-39687174D01*
G37*
D18*
X61624400Y-27355800D03*
X32224400Y-27355800D03*
X67224400Y-27355800D03*
X26624400Y-27355800D03*
D12*
G36*
X35050642Y-46024474D02*
G01*
X35074303Y-46027984D01*
X35097507Y-46033796D01*
X35120029Y-46041854D01*
X35141653Y-46052082D01*
X35162170Y-46064379D01*
X35181383Y-46078629D01*
X35199107Y-46094693D01*
X35215171Y-46112417D01*
X35229421Y-46131630D01*
X35241718Y-46152147D01*
X35251946Y-46173771D01*
X35260004Y-46196293D01*
X35265816Y-46219497D01*
X35269326Y-46243158D01*
X35270500Y-46267050D01*
X35270500Y-47179550D01*
X35269326Y-47203442D01*
X35265816Y-47227103D01*
X35260004Y-47250307D01*
X35251946Y-47272829D01*
X35241718Y-47294453D01*
X35229421Y-47314970D01*
X35215171Y-47334183D01*
X35199107Y-47351907D01*
X35181383Y-47367971D01*
X35162170Y-47382221D01*
X35141653Y-47394518D01*
X35120029Y-47404746D01*
X35097507Y-47412804D01*
X35074303Y-47418616D01*
X35050642Y-47422126D01*
X35026750Y-47423300D01*
X34539250Y-47423300D01*
X34515358Y-47422126D01*
X34491697Y-47418616D01*
X34468493Y-47412804D01*
X34445971Y-47404746D01*
X34424347Y-47394518D01*
X34403830Y-47382221D01*
X34384617Y-47367971D01*
X34366893Y-47351907D01*
X34350829Y-47334183D01*
X34336579Y-47314970D01*
X34324282Y-47294453D01*
X34314054Y-47272829D01*
X34305996Y-47250307D01*
X34300184Y-47227103D01*
X34296674Y-47203442D01*
X34295500Y-47179550D01*
X34295500Y-46267050D01*
X34296674Y-46243158D01*
X34300184Y-46219497D01*
X34305996Y-46196293D01*
X34314054Y-46173771D01*
X34324282Y-46152147D01*
X34336579Y-46131630D01*
X34350829Y-46112417D01*
X34366893Y-46094693D01*
X34384617Y-46078629D01*
X34403830Y-46064379D01*
X34424347Y-46052082D01*
X34445971Y-46041854D01*
X34468493Y-46033796D01*
X34491697Y-46027984D01*
X34515358Y-46024474D01*
X34539250Y-46023300D01*
X35026750Y-46023300D01*
X35050642Y-46024474D01*
G37*
G36*
X33175642Y-46024474D02*
G01*
X33199303Y-46027984D01*
X33222507Y-46033796D01*
X33245029Y-46041854D01*
X33266653Y-46052082D01*
X33287170Y-46064379D01*
X33306383Y-46078629D01*
X33324107Y-46094693D01*
X33340171Y-46112417D01*
X33354421Y-46131630D01*
X33366718Y-46152147D01*
X33376946Y-46173771D01*
X33385004Y-46196293D01*
X33390816Y-46219497D01*
X33394326Y-46243158D01*
X33395500Y-46267050D01*
X33395500Y-47179550D01*
X33394326Y-47203442D01*
X33390816Y-47227103D01*
X33385004Y-47250307D01*
X33376946Y-47272829D01*
X33366718Y-47294453D01*
X33354421Y-47314970D01*
X33340171Y-47334183D01*
X33324107Y-47351907D01*
X33306383Y-47367971D01*
X33287170Y-47382221D01*
X33266653Y-47394518D01*
X33245029Y-47404746D01*
X33222507Y-47412804D01*
X33199303Y-47418616D01*
X33175642Y-47422126D01*
X33151750Y-47423300D01*
X32664250Y-47423300D01*
X32640358Y-47422126D01*
X32616697Y-47418616D01*
X32593493Y-47412804D01*
X32570971Y-47404746D01*
X32549347Y-47394518D01*
X32528830Y-47382221D01*
X32509617Y-47367971D01*
X32491893Y-47351907D01*
X32475829Y-47334183D01*
X32461579Y-47314970D01*
X32449282Y-47294453D01*
X32439054Y-47272829D01*
X32430996Y-47250307D01*
X32425184Y-47227103D01*
X32421674Y-47203442D01*
X32420500Y-47179550D01*
X32420500Y-46267050D01*
X32421674Y-46243158D01*
X32425184Y-46219497D01*
X32430996Y-46196293D01*
X32439054Y-46173771D01*
X32449282Y-46152147D01*
X32461579Y-46131630D01*
X32475829Y-46112417D01*
X32491893Y-46094693D01*
X32509617Y-46078629D01*
X32528830Y-46064379D01*
X32549347Y-46052082D01*
X32570971Y-46041854D01*
X32593493Y-46033796D01*
X32616697Y-46027984D01*
X32640358Y-46024474D01*
X32664250Y-46023300D01*
X33151750Y-46023300D01*
X33175642Y-46024474D01*
G37*
G36*
X58004142Y-39687174D02*
G01*
X58027803Y-39690684D01*
X58051007Y-39696496D01*
X58073529Y-39704554D01*
X58095153Y-39714782D01*
X58115670Y-39727079D01*
X58134883Y-39741329D01*
X58152607Y-39757393D01*
X58168671Y-39775117D01*
X58182921Y-39794330D01*
X58195218Y-39814847D01*
X58205446Y-39836471D01*
X58213504Y-39858993D01*
X58219316Y-39882197D01*
X58222826Y-39905858D01*
X58224000Y-39929750D01*
X58224000Y-40842250D01*
X58222826Y-40866142D01*
X58219316Y-40889803D01*
X58213504Y-40913007D01*
X58205446Y-40935529D01*
X58195218Y-40957153D01*
X58182921Y-40977670D01*
X58168671Y-40996883D01*
X58152607Y-41014607D01*
X58134883Y-41030671D01*
X58115670Y-41044921D01*
X58095153Y-41057218D01*
X58073529Y-41067446D01*
X58051007Y-41075504D01*
X58027803Y-41081316D01*
X58004142Y-41084826D01*
X57980250Y-41086000D01*
X57492750Y-41086000D01*
X57468858Y-41084826D01*
X57445197Y-41081316D01*
X57421993Y-41075504D01*
X57399471Y-41067446D01*
X57377847Y-41057218D01*
X57357330Y-41044921D01*
X57338117Y-41030671D01*
X57320393Y-41014607D01*
X57304329Y-40996883D01*
X57290079Y-40977670D01*
X57277782Y-40957153D01*
X57267554Y-40935529D01*
X57259496Y-40913007D01*
X57253684Y-40889803D01*
X57250174Y-40866142D01*
X57249000Y-40842250D01*
X57249000Y-39929750D01*
X57250174Y-39905858D01*
X57253684Y-39882197D01*
X57259496Y-39858993D01*
X57267554Y-39836471D01*
X57277782Y-39814847D01*
X57290079Y-39794330D01*
X57304329Y-39775117D01*
X57320393Y-39757393D01*
X57338117Y-39741329D01*
X57357330Y-39727079D01*
X57377847Y-39714782D01*
X57399471Y-39704554D01*
X57421993Y-39696496D01*
X57445197Y-39690684D01*
X57468858Y-39687174D01*
X57492750Y-39686000D01*
X57980250Y-39686000D01*
X58004142Y-39687174D01*
G37*
G36*
X59879142Y-39687174D02*
G01*
X59902803Y-39690684D01*
X59926007Y-39696496D01*
X59948529Y-39704554D01*
X59970153Y-39714782D01*
X59990670Y-39727079D01*
X60009883Y-39741329D01*
X60027607Y-39757393D01*
X60043671Y-39775117D01*
X60057921Y-39794330D01*
X60070218Y-39814847D01*
X60080446Y-39836471D01*
X60088504Y-39858993D01*
X60094316Y-39882197D01*
X60097826Y-39905858D01*
X60099000Y-39929750D01*
X60099000Y-40842250D01*
X60097826Y-40866142D01*
X60094316Y-40889803D01*
X60088504Y-40913007D01*
X60080446Y-40935529D01*
X60070218Y-40957153D01*
X60057921Y-40977670D01*
X60043671Y-40996883D01*
X60027607Y-41014607D01*
X60009883Y-41030671D01*
X59990670Y-41044921D01*
X59970153Y-41057218D01*
X59948529Y-41067446D01*
X59926007Y-41075504D01*
X59902803Y-41081316D01*
X59879142Y-41084826D01*
X59855250Y-41086000D01*
X59367750Y-41086000D01*
X59343858Y-41084826D01*
X59320197Y-41081316D01*
X59296993Y-41075504D01*
X59274471Y-41067446D01*
X59252847Y-41057218D01*
X59232330Y-41044921D01*
X59213117Y-41030671D01*
X59195393Y-41014607D01*
X59179329Y-40996883D01*
X59165079Y-40977670D01*
X59152782Y-40957153D01*
X59142554Y-40935529D01*
X59134496Y-40913007D01*
X59128684Y-40889803D01*
X59125174Y-40866142D01*
X59124000Y-40842250D01*
X59124000Y-39929750D01*
X59125174Y-39905858D01*
X59128684Y-39882197D01*
X59134496Y-39858993D01*
X59142554Y-39836471D01*
X59152782Y-39814847D01*
X59165079Y-39794330D01*
X59179329Y-39775117D01*
X59195393Y-39757393D01*
X59213117Y-39741329D01*
X59232330Y-39727079D01*
X59252847Y-39714782D01*
X59274471Y-39704554D01*
X59296993Y-39696496D01*
X59320197Y-39690684D01*
X59343858Y-39687174D01*
X59367750Y-39686000D01*
X59855250Y-39686000D01*
X59879142Y-39687174D01*
G37*
D16*
X24521160Y-40815260D03*
X24521160Y-38275260D03*
X24521160Y-35735260D03*
D19*
X33474900Y-42603600D03*
X34774900Y-42603600D03*
X34124900Y-40403600D03*
X34124900Y-42603600D03*
X34774900Y-40403600D03*
X33474900Y-40403600D03*
D20*
X57447000Y-43754000D03*
X57447000Y-44704000D03*
X57447000Y-45654000D03*
X59647000Y-45654000D03*
X59647000Y-43754000D03*
D12*
G36*
X31408904Y-39860804D02*
G01*
X31433173Y-39864404D01*
X31456971Y-39870365D01*
X31480071Y-39878630D01*
X31502249Y-39889120D01*
X31523293Y-39901733D01*
X31542998Y-39916347D01*
X31561177Y-39932823D01*
X31577653Y-39951002D01*
X31592267Y-39970707D01*
X31604880Y-39991751D01*
X31615370Y-40013929D01*
X31623635Y-40037029D01*
X31629596Y-40060827D01*
X31633196Y-40085096D01*
X31634400Y-40109600D01*
X31634400Y-40859600D01*
X31633196Y-40884104D01*
X31629596Y-40908373D01*
X31623635Y-40932171D01*
X31615370Y-40955271D01*
X31604880Y-40977449D01*
X31592267Y-40998493D01*
X31577653Y-41018198D01*
X31561177Y-41036377D01*
X31542998Y-41052853D01*
X31523293Y-41067467D01*
X31502249Y-41080080D01*
X31480071Y-41090570D01*
X31456971Y-41098835D01*
X31433173Y-41104796D01*
X31408904Y-41108396D01*
X31384400Y-41109600D01*
X30134400Y-41109600D01*
X30109896Y-41108396D01*
X30085627Y-41104796D01*
X30061829Y-41098835D01*
X30038729Y-41090570D01*
X30016551Y-41080080D01*
X29995507Y-41067467D01*
X29975802Y-41052853D01*
X29957623Y-41036377D01*
X29941147Y-41018198D01*
X29926533Y-40998493D01*
X29913920Y-40977449D01*
X29903430Y-40955271D01*
X29895165Y-40932171D01*
X29889204Y-40908373D01*
X29885604Y-40884104D01*
X29884400Y-40859600D01*
X29884400Y-40109600D01*
X29885604Y-40085096D01*
X29889204Y-40060827D01*
X29895165Y-40037029D01*
X29903430Y-40013929D01*
X29913920Y-39991751D01*
X29926533Y-39970707D01*
X29941147Y-39951002D01*
X29957623Y-39932823D01*
X29975802Y-39916347D01*
X29995507Y-39901733D01*
X30016551Y-39889120D01*
X30038729Y-39878630D01*
X30061829Y-39870365D01*
X30085627Y-39864404D01*
X30109896Y-39860804D01*
X30134400Y-39859600D01*
X31384400Y-39859600D01*
X31408904Y-39860804D01*
G37*
G36*
X31408904Y-42660804D02*
G01*
X31433173Y-42664404D01*
X31456971Y-42670365D01*
X31480071Y-42678630D01*
X31502249Y-42689120D01*
X31523293Y-42701733D01*
X31542998Y-42716347D01*
X31561177Y-42732823D01*
X31577653Y-42751002D01*
X31592267Y-42770707D01*
X31604880Y-42791751D01*
X31615370Y-42813929D01*
X31623635Y-42837029D01*
X31629596Y-42860827D01*
X31633196Y-42885096D01*
X31634400Y-42909600D01*
X31634400Y-43659600D01*
X31633196Y-43684104D01*
X31629596Y-43708373D01*
X31623635Y-43732171D01*
X31615370Y-43755271D01*
X31604880Y-43777449D01*
X31592267Y-43798493D01*
X31577653Y-43818198D01*
X31561177Y-43836377D01*
X31542998Y-43852853D01*
X31523293Y-43867467D01*
X31502249Y-43880080D01*
X31480071Y-43890570D01*
X31456971Y-43898835D01*
X31433173Y-43904796D01*
X31408904Y-43908396D01*
X31384400Y-43909600D01*
X30134400Y-43909600D01*
X30109896Y-43908396D01*
X30085627Y-43904796D01*
X30061829Y-43898835D01*
X30038729Y-43890570D01*
X30016551Y-43880080D01*
X29995507Y-43867467D01*
X29975802Y-43852853D01*
X29957623Y-43836377D01*
X29941147Y-43818198D01*
X29926533Y-43798493D01*
X29913920Y-43777449D01*
X29903430Y-43755271D01*
X29895165Y-43732171D01*
X29889204Y-43708373D01*
X29885604Y-43684104D01*
X29884400Y-43659600D01*
X29884400Y-42909600D01*
X29885604Y-42885096D01*
X29889204Y-42860827D01*
X29895165Y-42837029D01*
X29903430Y-42813929D01*
X29913920Y-42791751D01*
X29926533Y-42770707D01*
X29941147Y-42751002D01*
X29957623Y-42732823D01*
X29975802Y-42716347D01*
X29995507Y-42701733D01*
X30016551Y-42689120D01*
X30038729Y-42678630D01*
X30061829Y-42670365D01*
X30085627Y-42664404D01*
X30109896Y-42660804D01*
X30134400Y-42659600D01*
X31384400Y-42659600D01*
X31408904Y-42660804D01*
G37*
G36*
X29122904Y-42660804D02*
G01*
X29147173Y-42664404D01*
X29170971Y-42670365D01*
X29194071Y-42678630D01*
X29216249Y-42689120D01*
X29237293Y-42701733D01*
X29256998Y-42716347D01*
X29275177Y-42732823D01*
X29291653Y-42751002D01*
X29306267Y-42770707D01*
X29318880Y-42791751D01*
X29329370Y-42813929D01*
X29337635Y-42837029D01*
X29343596Y-42860827D01*
X29347196Y-42885096D01*
X29348400Y-42909600D01*
X29348400Y-43659600D01*
X29347196Y-43684104D01*
X29343596Y-43708373D01*
X29337635Y-43732171D01*
X29329370Y-43755271D01*
X29318880Y-43777449D01*
X29306267Y-43798493D01*
X29291653Y-43818198D01*
X29275177Y-43836377D01*
X29256998Y-43852853D01*
X29237293Y-43867467D01*
X29216249Y-43880080D01*
X29194071Y-43890570D01*
X29170971Y-43898835D01*
X29147173Y-43904796D01*
X29122904Y-43908396D01*
X29098400Y-43909600D01*
X27848400Y-43909600D01*
X27823896Y-43908396D01*
X27799627Y-43904796D01*
X27775829Y-43898835D01*
X27752729Y-43890570D01*
X27730551Y-43880080D01*
X27709507Y-43867467D01*
X27689802Y-43852853D01*
X27671623Y-43836377D01*
X27655147Y-43818198D01*
X27640533Y-43798493D01*
X27627920Y-43777449D01*
X27617430Y-43755271D01*
X27609165Y-43732171D01*
X27603204Y-43708373D01*
X27599604Y-43684104D01*
X27598400Y-43659600D01*
X27598400Y-42909600D01*
X27599604Y-42885096D01*
X27603204Y-42860827D01*
X27609165Y-42837029D01*
X27617430Y-42813929D01*
X27627920Y-42791751D01*
X27640533Y-42770707D01*
X27655147Y-42751002D01*
X27671623Y-42732823D01*
X27689802Y-42716347D01*
X27709507Y-42701733D01*
X27730551Y-42689120D01*
X27752729Y-42678630D01*
X27775829Y-42670365D01*
X27799627Y-42664404D01*
X27823896Y-42660804D01*
X27848400Y-42659600D01*
X29098400Y-42659600D01*
X29122904Y-42660804D01*
G37*
G36*
X29122904Y-39860804D02*
G01*
X29147173Y-39864404D01*
X29170971Y-39870365D01*
X29194071Y-39878630D01*
X29216249Y-39889120D01*
X29237293Y-39901733D01*
X29256998Y-39916347D01*
X29275177Y-39932823D01*
X29291653Y-39951002D01*
X29306267Y-39970707D01*
X29318880Y-39991751D01*
X29329370Y-40013929D01*
X29337635Y-40037029D01*
X29343596Y-40060827D01*
X29347196Y-40085096D01*
X29348400Y-40109600D01*
X29348400Y-40859600D01*
X29347196Y-40884104D01*
X29343596Y-40908373D01*
X29337635Y-40932171D01*
X29329370Y-40955271D01*
X29318880Y-40977449D01*
X29306267Y-40998493D01*
X29291653Y-41018198D01*
X29275177Y-41036377D01*
X29256998Y-41052853D01*
X29237293Y-41067467D01*
X29216249Y-41080080D01*
X29194071Y-41090570D01*
X29170971Y-41098835D01*
X29147173Y-41104796D01*
X29122904Y-41108396D01*
X29098400Y-41109600D01*
X27848400Y-41109600D01*
X27823896Y-41108396D01*
X27799627Y-41104796D01*
X27775829Y-41098835D01*
X27752729Y-41090570D01*
X27730551Y-41080080D01*
X27709507Y-41067467D01*
X27689802Y-41052853D01*
X27671623Y-41036377D01*
X27655147Y-41018198D01*
X27640533Y-40998493D01*
X27627920Y-40977449D01*
X27617430Y-40955271D01*
X27609165Y-40932171D01*
X27603204Y-40908373D01*
X27599604Y-40884104D01*
X27598400Y-40859600D01*
X27598400Y-40109600D01*
X27599604Y-40085096D01*
X27603204Y-40060827D01*
X27609165Y-40037029D01*
X27617430Y-40013929D01*
X27627920Y-39991751D01*
X27640533Y-39970707D01*
X27655147Y-39951002D01*
X27671623Y-39932823D01*
X27689802Y-39916347D01*
X27709507Y-39901733D01*
X27730551Y-39889120D01*
X27752729Y-39878630D01*
X27775829Y-39870365D01*
X27799627Y-39864404D01*
X27823896Y-39860804D01*
X27848400Y-39859600D01*
X29098400Y-39859600D01*
X29122904Y-39860804D01*
G37*
G36*
X37949404Y-39708404D02*
G01*
X37973673Y-39712004D01*
X37997471Y-39717965D01*
X38020571Y-39726230D01*
X38042749Y-39736720D01*
X38063793Y-39749333D01*
X38083498Y-39763947D01*
X38101677Y-39780423D01*
X38118153Y-39798602D01*
X38132767Y-39818307D01*
X38145380Y-39839351D01*
X38155870Y-39861529D01*
X38164135Y-39884629D01*
X38170096Y-39908427D01*
X38173696Y-39932696D01*
X38174900Y-39957200D01*
X38174900Y-40707200D01*
X38173696Y-40731704D01*
X38170096Y-40755973D01*
X38164135Y-40779771D01*
X38155870Y-40802871D01*
X38145380Y-40825049D01*
X38132767Y-40846093D01*
X38118153Y-40865798D01*
X38101677Y-40883977D01*
X38083498Y-40900453D01*
X38063793Y-40915067D01*
X38042749Y-40927680D01*
X38020571Y-40938170D01*
X37997471Y-40946435D01*
X37973673Y-40952396D01*
X37949404Y-40955996D01*
X37924900Y-40957200D01*
X36674900Y-40957200D01*
X36650396Y-40955996D01*
X36626127Y-40952396D01*
X36602329Y-40946435D01*
X36579229Y-40938170D01*
X36557051Y-40927680D01*
X36536007Y-40915067D01*
X36516302Y-40900453D01*
X36498123Y-40883977D01*
X36481647Y-40865798D01*
X36467033Y-40846093D01*
X36454420Y-40825049D01*
X36443930Y-40802871D01*
X36435665Y-40779771D01*
X36429704Y-40755973D01*
X36426104Y-40731704D01*
X36424900Y-40707200D01*
X36424900Y-39957200D01*
X36426104Y-39932696D01*
X36429704Y-39908427D01*
X36435665Y-39884629D01*
X36443930Y-39861529D01*
X36454420Y-39839351D01*
X36467033Y-39818307D01*
X36481647Y-39798602D01*
X36498123Y-39780423D01*
X36516302Y-39763947D01*
X36536007Y-39749333D01*
X36557051Y-39736720D01*
X36579229Y-39726230D01*
X36602329Y-39717965D01*
X36626127Y-39712004D01*
X36650396Y-39708404D01*
X36674900Y-39707200D01*
X37924900Y-39707200D01*
X37949404Y-39708404D01*
G37*
G36*
X37949404Y-42508404D02*
G01*
X37973673Y-42512004D01*
X37997471Y-42517965D01*
X38020571Y-42526230D01*
X38042749Y-42536720D01*
X38063793Y-42549333D01*
X38083498Y-42563947D01*
X38101677Y-42580423D01*
X38118153Y-42598602D01*
X38132767Y-42618307D01*
X38145380Y-42639351D01*
X38155870Y-42661529D01*
X38164135Y-42684629D01*
X38170096Y-42708427D01*
X38173696Y-42732696D01*
X38174900Y-42757200D01*
X38174900Y-43507200D01*
X38173696Y-43531704D01*
X38170096Y-43555973D01*
X38164135Y-43579771D01*
X38155870Y-43602871D01*
X38145380Y-43625049D01*
X38132767Y-43646093D01*
X38118153Y-43665798D01*
X38101677Y-43683977D01*
X38083498Y-43700453D01*
X38063793Y-43715067D01*
X38042749Y-43727680D01*
X38020571Y-43738170D01*
X37997471Y-43746435D01*
X37973673Y-43752396D01*
X37949404Y-43755996D01*
X37924900Y-43757200D01*
X36674900Y-43757200D01*
X36650396Y-43755996D01*
X36626127Y-43752396D01*
X36602329Y-43746435D01*
X36579229Y-43738170D01*
X36557051Y-43727680D01*
X36536007Y-43715067D01*
X36516302Y-43700453D01*
X36498123Y-43683977D01*
X36481647Y-43665798D01*
X36467033Y-43646093D01*
X36454420Y-43625049D01*
X36443930Y-43602871D01*
X36435665Y-43579771D01*
X36429704Y-43555973D01*
X36426104Y-43531704D01*
X36424900Y-43507200D01*
X36424900Y-42757200D01*
X36426104Y-42732696D01*
X36429704Y-42708427D01*
X36435665Y-42684629D01*
X36443930Y-42661529D01*
X36454420Y-42639351D01*
X36467033Y-42618307D01*
X36481647Y-42598602D01*
X36498123Y-42580423D01*
X36516302Y-42563947D01*
X36536007Y-42549333D01*
X36557051Y-42536720D01*
X36579229Y-42526230D01*
X36602329Y-42517965D01*
X36626127Y-42512004D01*
X36650396Y-42508404D01*
X36674900Y-42507200D01*
X37924900Y-42507200D01*
X37949404Y-42508404D01*
G37*
G36*
X40235404Y-42508404D02*
G01*
X40259673Y-42512004D01*
X40283471Y-42517965D01*
X40306571Y-42526230D01*
X40328749Y-42536720D01*
X40349793Y-42549333D01*
X40369498Y-42563947D01*
X40387677Y-42580423D01*
X40404153Y-42598602D01*
X40418767Y-42618307D01*
X40431380Y-42639351D01*
X40441870Y-42661529D01*
X40450135Y-42684629D01*
X40456096Y-42708427D01*
X40459696Y-42732696D01*
X40460900Y-42757200D01*
X40460900Y-43507200D01*
X40459696Y-43531704D01*
X40456096Y-43555973D01*
X40450135Y-43579771D01*
X40441870Y-43602871D01*
X40431380Y-43625049D01*
X40418767Y-43646093D01*
X40404153Y-43665798D01*
X40387677Y-43683977D01*
X40369498Y-43700453D01*
X40349793Y-43715067D01*
X40328749Y-43727680D01*
X40306571Y-43738170D01*
X40283471Y-43746435D01*
X40259673Y-43752396D01*
X40235404Y-43755996D01*
X40210900Y-43757200D01*
X38960900Y-43757200D01*
X38936396Y-43755996D01*
X38912127Y-43752396D01*
X38888329Y-43746435D01*
X38865229Y-43738170D01*
X38843051Y-43727680D01*
X38822007Y-43715067D01*
X38802302Y-43700453D01*
X38784123Y-43683977D01*
X38767647Y-43665798D01*
X38753033Y-43646093D01*
X38740420Y-43625049D01*
X38729930Y-43602871D01*
X38721665Y-43579771D01*
X38715704Y-43555973D01*
X38712104Y-43531704D01*
X38710900Y-43507200D01*
X38710900Y-42757200D01*
X38712104Y-42732696D01*
X38715704Y-42708427D01*
X38721665Y-42684629D01*
X38729930Y-42661529D01*
X38740420Y-42639351D01*
X38753033Y-42618307D01*
X38767647Y-42598602D01*
X38784123Y-42580423D01*
X38802302Y-42563947D01*
X38822007Y-42549333D01*
X38843051Y-42536720D01*
X38865229Y-42526230D01*
X38888329Y-42517965D01*
X38912127Y-42512004D01*
X38936396Y-42508404D01*
X38960900Y-42507200D01*
X40210900Y-42507200D01*
X40235404Y-42508404D01*
G37*
G36*
X40235404Y-39708404D02*
G01*
X40259673Y-39712004D01*
X40283471Y-39717965D01*
X40306571Y-39726230D01*
X40328749Y-39736720D01*
X40349793Y-39749333D01*
X40369498Y-39763947D01*
X40387677Y-39780423D01*
X40404153Y-39798602D01*
X40418767Y-39818307D01*
X40431380Y-39839351D01*
X40441870Y-39861529D01*
X40450135Y-39884629D01*
X40456096Y-39908427D01*
X40459696Y-39932696D01*
X40460900Y-39957200D01*
X40460900Y-40707200D01*
X40459696Y-40731704D01*
X40456096Y-40755973D01*
X40450135Y-40779771D01*
X40441870Y-40802871D01*
X40431380Y-40825049D01*
X40418767Y-40846093D01*
X40404153Y-40865798D01*
X40387677Y-40883977D01*
X40369498Y-40900453D01*
X40349793Y-40915067D01*
X40328749Y-40927680D01*
X40306571Y-40938170D01*
X40283471Y-40946435D01*
X40259673Y-40952396D01*
X40235404Y-40955996D01*
X40210900Y-40957200D01*
X38960900Y-40957200D01*
X38936396Y-40955996D01*
X38912127Y-40952396D01*
X38888329Y-40946435D01*
X38865229Y-40938170D01*
X38843051Y-40927680D01*
X38822007Y-40915067D01*
X38802302Y-40900453D01*
X38784123Y-40883977D01*
X38767647Y-40865798D01*
X38753033Y-40846093D01*
X38740420Y-40825049D01*
X38729930Y-40802871D01*
X38721665Y-40779771D01*
X38715704Y-40755973D01*
X38712104Y-40731704D01*
X38710900Y-40707200D01*
X38710900Y-39957200D01*
X38712104Y-39932696D01*
X38715704Y-39908427D01*
X38721665Y-39884629D01*
X38729930Y-39861529D01*
X38740420Y-39839351D01*
X38753033Y-39818307D01*
X38767647Y-39798602D01*
X38784123Y-39780423D01*
X38802302Y-39763947D01*
X38822007Y-39749333D01*
X38843051Y-39736720D01*
X38865229Y-39726230D01*
X38888329Y-39717965D01*
X38912127Y-39712004D01*
X38936396Y-39708404D01*
X38960900Y-39707200D01*
X40210900Y-39707200D01*
X40235404Y-39708404D01*
G37*
G36*
X29097504Y-49544204D02*
G01*
X29121773Y-49547804D01*
X29145571Y-49553765D01*
X29168671Y-49562030D01*
X29190849Y-49572520D01*
X29211893Y-49585133D01*
X29231598Y-49599747D01*
X29249777Y-49616223D01*
X29266253Y-49634402D01*
X29280867Y-49654107D01*
X29293480Y-49675151D01*
X29303970Y-49697329D01*
X29312235Y-49720429D01*
X29318196Y-49744227D01*
X29321796Y-49768496D01*
X29323000Y-49793000D01*
X29323000Y-50543000D01*
X29321796Y-50567504D01*
X29318196Y-50591773D01*
X29312235Y-50615571D01*
X29303970Y-50638671D01*
X29293480Y-50660849D01*
X29280867Y-50681893D01*
X29266253Y-50701598D01*
X29249777Y-50719777D01*
X29231598Y-50736253D01*
X29211893Y-50750867D01*
X29190849Y-50763480D01*
X29168671Y-50773970D01*
X29145571Y-50782235D01*
X29121773Y-50788196D01*
X29097504Y-50791796D01*
X29073000Y-50793000D01*
X27823000Y-50793000D01*
X27798496Y-50791796D01*
X27774227Y-50788196D01*
X27750429Y-50782235D01*
X27727329Y-50773970D01*
X27705151Y-50763480D01*
X27684107Y-50750867D01*
X27664402Y-50736253D01*
X27646223Y-50719777D01*
X27629747Y-50701598D01*
X27615133Y-50681893D01*
X27602520Y-50660849D01*
X27592030Y-50638671D01*
X27583765Y-50615571D01*
X27577804Y-50591773D01*
X27574204Y-50567504D01*
X27573000Y-50543000D01*
X27573000Y-49793000D01*
X27574204Y-49768496D01*
X27577804Y-49744227D01*
X27583765Y-49720429D01*
X27592030Y-49697329D01*
X27602520Y-49675151D01*
X27615133Y-49654107D01*
X27629747Y-49634402D01*
X27646223Y-49616223D01*
X27664402Y-49599747D01*
X27684107Y-49585133D01*
X27705151Y-49572520D01*
X27727329Y-49562030D01*
X27750429Y-49553765D01*
X27774227Y-49547804D01*
X27798496Y-49544204D01*
X27823000Y-49543000D01*
X29073000Y-49543000D01*
X29097504Y-49544204D01*
G37*
G36*
X29097504Y-46744204D02*
G01*
X29121773Y-46747804D01*
X29145571Y-46753765D01*
X29168671Y-46762030D01*
X29190849Y-46772520D01*
X29211893Y-46785133D01*
X29231598Y-46799747D01*
X29249777Y-46816223D01*
X29266253Y-46834402D01*
X29280867Y-46854107D01*
X29293480Y-46875151D01*
X29303970Y-46897329D01*
X29312235Y-46920429D01*
X29318196Y-46944227D01*
X29321796Y-46968496D01*
X29323000Y-46993000D01*
X29323000Y-47743000D01*
X29321796Y-47767504D01*
X29318196Y-47791773D01*
X29312235Y-47815571D01*
X29303970Y-47838671D01*
X29293480Y-47860849D01*
X29280867Y-47881893D01*
X29266253Y-47901598D01*
X29249777Y-47919777D01*
X29231598Y-47936253D01*
X29211893Y-47950867D01*
X29190849Y-47963480D01*
X29168671Y-47973970D01*
X29145571Y-47982235D01*
X29121773Y-47988196D01*
X29097504Y-47991796D01*
X29073000Y-47993000D01*
X27823000Y-47993000D01*
X27798496Y-47991796D01*
X27774227Y-47988196D01*
X27750429Y-47982235D01*
X27727329Y-47973970D01*
X27705151Y-47963480D01*
X27684107Y-47950867D01*
X27664402Y-47936253D01*
X27646223Y-47919777D01*
X27629747Y-47901598D01*
X27615133Y-47881893D01*
X27602520Y-47860849D01*
X27592030Y-47838671D01*
X27583765Y-47815571D01*
X27577804Y-47791773D01*
X27574204Y-47767504D01*
X27573000Y-47743000D01*
X27573000Y-46993000D01*
X27574204Y-46968496D01*
X27577804Y-46944227D01*
X27583765Y-46920429D01*
X27592030Y-46897329D01*
X27602520Y-46875151D01*
X27615133Y-46854107D01*
X27629747Y-46834402D01*
X27646223Y-46816223D01*
X27664402Y-46799747D01*
X27684107Y-46785133D01*
X27705151Y-46772520D01*
X27727329Y-46762030D01*
X27750429Y-46753765D01*
X27774227Y-46747804D01*
X27798496Y-46744204D01*
X27823000Y-46743000D01*
X29073000Y-46743000D01*
X29097504Y-46744204D01*
G37*
G36*
X64403504Y-44464204D02*
G01*
X64427773Y-44467804D01*
X64451571Y-44473765D01*
X64474671Y-44482030D01*
X64496849Y-44492520D01*
X64517893Y-44505133D01*
X64537598Y-44519747D01*
X64555777Y-44536223D01*
X64572253Y-44554402D01*
X64586867Y-44574107D01*
X64599480Y-44595151D01*
X64609970Y-44617329D01*
X64618235Y-44640429D01*
X64624196Y-44664227D01*
X64627796Y-44688496D01*
X64629000Y-44713000D01*
X64629000Y-45463000D01*
X64627796Y-45487504D01*
X64624196Y-45511773D01*
X64618235Y-45535571D01*
X64609970Y-45558671D01*
X64599480Y-45580849D01*
X64586867Y-45601893D01*
X64572253Y-45621598D01*
X64555777Y-45639777D01*
X64537598Y-45656253D01*
X64517893Y-45670867D01*
X64496849Y-45683480D01*
X64474671Y-45693970D01*
X64451571Y-45702235D01*
X64427773Y-45708196D01*
X64403504Y-45711796D01*
X64379000Y-45713000D01*
X63129000Y-45713000D01*
X63104496Y-45711796D01*
X63080227Y-45708196D01*
X63056429Y-45702235D01*
X63033329Y-45693970D01*
X63011151Y-45683480D01*
X62990107Y-45670867D01*
X62970402Y-45656253D01*
X62952223Y-45639777D01*
X62935747Y-45621598D01*
X62921133Y-45601893D01*
X62908520Y-45580849D01*
X62898030Y-45558671D01*
X62889765Y-45535571D01*
X62883804Y-45511773D01*
X62880204Y-45487504D01*
X62879000Y-45463000D01*
X62879000Y-44713000D01*
X62880204Y-44688496D01*
X62883804Y-44664227D01*
X62889765Y-44640429D01*
X62898030Y-44617329D01*
X62908520Y-44595151D01*
X62921133Y-44574107D01*
X62935747Y-44554402D01*
X62952223Y-44536223D01*
X62970402Y-44519747D01*
X62990107Y-44505133D01*
X63011151Y-44492520D01*
X63033329Y-44482030D01*
X63056429Y-44473765D01*
X63080227Y-44467804D01*
X63104496Y-44464204D01*
X63129000Y-44463000D01*
X64379000Y-44463000D01*
X64403504Y-44464204D01*
G37*
G36*
X64403504Y-41664204D02*
G01*
X64427773Y-41667804D01*
X64451571Y-41673765D01*
X64474671Y-41682030D01*
X64496849Y-41692520D01*
X64517893Y-41705133D01*
X64537598Y-41719747D01*
X64555777Y-41736223D01*
X64572253Y-41754402D01*
X64586867Y-41774107D01*
X64599480Y-41795151D01*
X64609970Y-41817329D01*
X64618235Y-41840429D01*
X64624196Y-41864227D01*
X64627796Y-41888496D01*
X64629000Y-41913000D01*
X64629000Y-42663000D01*
X64627796Y-42687504D01*
X64624196Y-42711773D01*
X64618235Y-42735571D01*
X64609970Y-42758671D01*
X64599480Y-42780849D01*
X64586867Y-42801893D01*
X64572253Y-42821598D01*
X64555777Y-42839777D01*
X64537598Y-42856253D01*
X64517893Y-42870867D01*
X64496849Y-42883480D01*
X64474671Y-42893970D01*
X64451571Y-42902235D01*
X64427773Y-42908196D01*
X64403504Y-42911796D01*
X64379000Y-42913000D01*
X63129000Y-42913000D01*
X63104496Y-42911796D01*
X63080227Y-42908196D01*
X63056429Y-42902235D01*
X63033329Y-42893970D01*
X63011151Y-42883480D01*
X62990107Y-42870867D01*
X62970402Y-42856253D01*
X62952223Y-42839777D01*
X62935747Y-42821598D01*
X62921133Y-42801893D01*
X62908520Y-42780849D01*
X62898030Y-42758671D01*
X62889765Y-42735571D01*
X62883804Y-42711773D01*
X62880204Y-42687504D01*
X62879000Y-42663000D01*
X62879000Y-41913000D01*
X62880204Y-41888496D01*
X62883804Y-41864227D01*
X62889765Y-41840429D01*
X62898030Y-41817329D01*
X62908520Y-41795151D01*
X62921133Y-41774107D01*
X62935747Y-41754402D01*
X62952223Y-41736223D01*
X62970402Y-41719747D01*
X62990107Y-41705133D01*
X63011151Y-41692520D01*
X63033329Y-41682030D01*
X63056429Y-41673765D01*
X63080227Y-41667804D01*
X63104496Y-41664204D01*
X63129000Y-41663000D01*
X64379000Y-41663000D01*
X64403504Y-41664204D01*
G37*
G36*
X50497004Y-42553204D02*
G01*
X50521273Y-42556804D01*
X50545071Y-42562765D01*
X50568171Y-42571030D01*
X50590349Y-42581520D01*
X50611393Y-42594133D01*
X50631098Y-42608747D01*
X50649277Y-42625223D01*
X50665753Y-42643402D01*
X50680367Y-42663107D01*
X50692980Y-42684151D01*
X50703470Y-42706329D01*
X50711735Y-42729429D01*
X50717696Y-42753227D01*
X50721296Y-42777496D01*
X50722500Y-42802000D01*
X50722500Y-43552000D01*
X50721296Y-43576504D01*
X50717696Y-43600773D01*
X50711735Y-43624571D01*
X50703470Y-43647671D01*
X50692980Y-43669849D01*
X50680367Y-43690893D01*
X50665753Y-43710598D01*
X50649277Y-43728777D01*
X50631098Y-43745253D01*
X50611393Y-43759867D01*
X50590349Y-43772480D01*
X50568171Y-43782970D01*
X50545071Y-43791235D01*
X50521273Y-43797196D01*
X50497004Y-43800796D01*
X50472500Y-43802000D01*
X49222500Y-43802000D01*
X49197996Y-43800796D01*
X49173727Y-43797196D01*
X49149929Y-43791235D01*
X49126829Y-43782970D01*
X49104651Y-43772480D01*
X49083607Y-43759867D01*
X49063902Y-43745253D01*
X49045723Y-43728777D01*
X49029247Y-43710598D01*
X49014633Y-43690893D01*
X49002020Y-43669849D01*
X48991530Y-43647671D01*
X48983265Y-43624571D01*
X48977304Y-43600773D01*
X48973704Y-43576504D01*
X48972500Y-43552000D01*
X48972500Y-42802000D01*
X48973704Y-42777496D01*
X48977304Y-42753227D01*
X48983265Y-42729429D01*
X48991530Y-42706329D01*
X49002020Y-42684151D01*
X49014633Y-42663107D01*
X49029247Y-42643402D01*
X49045723Y-42625223D01*
X49063902Y-42608747D01*
X49083607Y-42594133D01*
X49104651Y-42581520D01*
X49126829Y-42571030D01*
X49149929Y-42562765D01*
X49173727Y-42556804D01*
X49197996Y-42553204D01*
X49222500Y-42552000D01*
X50472500Y-42552000D01*
X50497004Y-42553204D01*
G37*
G36*
X50497004Y-45353204D02*
G01*
X50521273Y-45356804D01*
X50545071Y-45362765D01*
X50568171Y-45371030D01*
X50590349Y-45381520D01*
X50611393Y-45394133D01*
X50631098Y-45408747D01*
X50649277Y-45425223D01*
X50665753Y-45443402D01*
X50680367Y-45463107D01*
X50692980Y-45484151D01*
X50703470Y-45506329D01*
X50711735Y-45529429D01*
X50717696Y-45553227D01*
X50721296Y-45577496D01*
X50722500Y-45602000D01*
X50722500Y-46352000D01*
X50721296Y-46376504D01*
X50717696Y-46400773D01*
X50711735Y-46424571D01*
X50703470Y-46447671D01*
X50692980Y-46469849D01*
X50680367Y-46490893D01*
X50665753Y-46510598D01*
X50649277Y-46528777D01*
X50631098Y-46545253D01*
X50611393Y-46559867D01*
X50590349Y-46572480D01*
X50568171Y-46582970D01*
X50545071Y-46591235D01*
X50521273Y-46597196D01*
X50497004Y-46600796D01*
X50472500Y-46602000D01*
X49222500Y-46602000D01*
X49197996Y-46600796D01*
X49173727Y-46597196D01*
X49149929Y-46591235D01*
X49126829Y-46582970D01*
X49104651Y-46572480D01*
X49083607Y-46559867D01*
X49063902Y-46545253D01*
X49045723Y-46528777D01*
X49029247Y-46510598D01*
X49014633Y-46490893D01*
X49002020Y-46469849D01*
X48991530Y-46447671D01*
X48983265Y-46424571D01*
X48977304Y-46400773D01*
X48973704Y-46376504D01*
X48972500Y-46352000D01*
X48972500Y-45602000D01*
X48973704Y-45577496D01*
X48977304Y-45553227D01*
X48983265Y-45529429D01*
X48991530Y-45506329D01*
X49002020Y-45484151D01*
X49014633Y-45463107D01*
X49029247Y-45443402D01*
X49045723Y-45425223D01*
X49063902Y-45408747D01*
X49083607Y-45394133D01*
X49104651Y-45381520D01*
X49126829Y-45371030D01*
X49149929Y-45362765D01*
X49173727Y-45356804D01*
X49197996Y-45353204D01*
X49222500Y-45352000D01*
X50472500Y-45352000D01*
X50497004Y-45353204D01*
G37*
G36*
X52757604Y-45353204D02*
G01*
X52781873Y-45356804D01*
X52805671Y-45362765D01*
X52828771Y-45371030D01*
X52850949Y-45381520D01*
X52871993Y-45394133D01*
X52891698Y-45408747D01*
X52909877Y-45425223D01*
X52926353Y-45443402D01*
X52940967Y-45463107D01*
X52953580Y-45484151D01*
X52964070Y-45506329D01*
X52972335Y-45529429D01*
X52978296Y-45553227D01*
X52981896Y-45577496D01*
X52983100Y-45602000D01*
X52983100Y-46352000D01*
X52981896Y-46376504D01*
X52978296Y-46400773D01*
X52972335Y-46424571D01*
X52964070Y-46447671D01*
X52953580Y-46469849D01*
X52940967Y-46490893D01*
X52926353Y-46510598D01*
X52909877Y-46528777D01*
X52891698Y-46545253D01*
X52871993Y-46559867D01*
X52850949Y-46572480D01*
X52828771Y-46582970D01*
X52805671Y-46591235D01*
X52781873Y-46597196D01*
X52757604Y-46600796D01*
X52733100Y-46602000D01*
X51483100Y-46602000D01*
X51458596Y-46600796D01*
X51434327Y-46597196D01*
X51410529Y-46591235D01*
X51387429Y-46582970D01*
X51365251Y-46572480D01*
X51344207Y-46559867D01*
X51324502Y-46545253D01*
X51306323Y-46528777D01*
X51289847Y-46510598D01*
X51275233Y-46490893D01*
X51262620Y-46469849D01*
X51252130Y-46447671D01*
X51243865Y-46424571D01*
X51237904Y-46400773D01*
X51234304Y-46376504D01*
X51233100Y-46352000D01*
X51233100Y-45602000D01*
X51234304Y-45577496D01*
X51237904Y-45553227D01*
X51243865Y-45529429D01*
X51252130Y-45506329D01*
X51262620Y-45484151D01*
X51275233Y-45463107D01*
X51289847Y-45443402D01*
X51306323Y-45425223D01*
X51324502Y-45408747D01*
X51344207Y-45394133D01*
X51365251Y-45381520D01*
X51387429Y-45371030D01*
X51410529Y-45362765D01*
X51434327Y-45356804D01*
X51458596Y-45353204D01*
X51483100Y-45352000D01*
X52733100Y-45352000D01*
X52757604Y-45353204D01*
G37*
G36*
X52757604Y-42553204D02*
G01*
X52781873Y-42556804D01*
X52805671Y-42562765D01*
X52828771Y-42571030D01*
X52850949Y-42581520D01*
X52871993Y-42594133D01*
X52891698Y-42608747D01*
X52909877Y-42625223D01*
X52926353Y-42643402D01*
X52940967Y-42663107D01*
X52953580Y-42684151D01*
X52964070Y-42706329D01*
X52972335Y-42729429D01*
X52978296Y-42753227D01*
X52981896Y-42777496D01*
X52983100Y-42802000D01*
X52983100Y-43552000D01*
X52981896Y-43576504D01*
X52978296Y-43600773D01*
X52972335Y-43624571D01*
X52964070Y-43647671D01*
X52953580Y-43669849D01*
X52940967Y-43690893D01*
X52926353Y-43710598D01*
X52909877Y-43728777D01*
X52891698Y-43745253D01*
X52871993Y-43759867D01*
X52850949Y-43772480D01*
X52828771Y-43782970D01*
X52805671Y-43791235D01*
X52781873Y-43797196D01*
X52757604Y-43800796D01*
X52733100Y-43802000D01*
X51483100Y-43802000D01*
X51458596Y-43800796D01*
X51434327Y-43797196D01*
X51410529Y-43791235D01*
X51387429Y-43782970D01*
X51365251Y-43772480D01*
X51344207Y-43759867D01*
X51324502Y-43745253D01*
X51306323Y-43728777D01*
X51289847Y-43710598D01*
X51275233Y-43690893D01*
X51262620Y-43669849D01*
X51252130Y-43647671D01*
X51243865Y-43624571D01*
X51237904Y-43600773D01*
X51234304Y-43576504D01*
X51233100Y-43552000D01*
X51233100Y-42802000D01*
X51234304Y-42777496D01*
X51237904Y-42753227D01*
X51243865Y-42729429D01*
X51252130Y-42706329D01*
X51262620Y-42684151D01*
X51275233Y-42663107D01*
X51289847Y-42643402D01*
X51306323Y-42625223D01*
X51324502Y-42608747D01*
X51344207Y-42594133D01*
X51365251Y-42581520D01*
X51387429Y-42571030D01*
X51410529Y-42562765D01*
X51434327Y-42556804D01*
X51458596Y-42553204D01*
X51483100Y-42552000D01*
X52733100Y-42552000D01*
X52757604Y-42553204D01*
G37*
G36*
X42508704Y-39713484D02*
G01*
X42532973Y-39717084D01*
X42556771Y-39723045D01*
X42579871Y-39731310D01*
X42602049Y-39741800D01*
X42623093Y-39754413D01*
X42642798Y-39769027D01*
X42660977Y-39785503D01*
X42677453Y-39803682D01*
X42692067Y-39823387D01*
X42704680Y-39844431D01*
X42715170Y-39866609D01*
X42723435Y-39889709D01*
X42729396Y-39913507D01*
X42732996Y-39937776D01*
X42734200Y-39962280D01*
X42734200Y-40712280D01*
X42732996Y-40736784D01*
X42729396Y-40761053D01*
X42723435Y-40784851D01*
X42715170Y-40807951D01*
X42704680Y-40830129D01*
X42692067Y-40851173D01*
X42677453Y-40870878D01*
X42660977Y-40889057D01*
X42642798Y-40905533D01*
X42623093Y-40920147D01*
X42602049Y-40932760D01*
X42579871Y-40943250D01*
X42556771Y-40951515D01*
X42532973Y-40957476D01*
X42508704Y-40961076D01*
X42484200Y-40962280D01*
X41234200Y-40962280D01*
X41209696Y-40961076D01*
X41185427Y-40957476D01*
X41161629Y-40951515D01*
X41138529Y-40943250D01*
X41116351Y-40932760D01*
X41095307Y-40920147D01*
X41075602Y-40905533D01*
X41057423Y-40889057D01*
X41040947Y-40870878D01*
X41026333Y-40851173D01*
X41013720Y-40830129D01*
X41003230Y-40807951D01*
X40994965Y-40784851D01*
X40989004Y-40761053D01*
X40985404Y-40736784D01*
X40984200Y-40712280D01*
X40984200Y-39962280D01*
X40985404Y-39937776D01*
X40989004Y-39913507D01*
X40994965Y-39889709D01*
X41003230Y-39866609D01*
X41013720Y-39844431D01*
X41026333Y-39823387D01*
X41040947Y-39803682D01*
X41057423Y-39785503D01*
X41075602Y-39769027D01*
X41095307Y-39754413D01*
X41116351Y-39741800D01*
X41138529Y-39731310D01*
X41161629Y-39723045D01*
X41185427Y-39717084D01*
X41209696Y-39713484D01*
X41234200Y-39712280D01*
X42484200Y-39712280D01*
X42508704Y-39713484D01*
G37*
G36*
X42508704Y-42513484D02*
G01*
X42532973Y-42517084D01*
X42556771Y-42523045D01*
X42579871Y-42531310D01*
X42602049Y-42541800D01*
X42623093Y-42554413D01*
X42642798Y-42569027D01*
X42660977Y-42585503D01*
X42677453Y-42603682D01*
X42692067Y-42623387D01*
X42704680Y-42644431D01*
X42715170Y-42666609D01*
X42723435Y-42689709D01*
X42729396Y-42713507D01*
X42732996Y-42737776D01*
X42734200Y-42762280D01*
X42734200Y-43512280D01*
X42732996Y-43536784D01*
X42729396Y-43561053D01*
X42723435Y-43584851D01*
X42715170Y-43607951D01*
X42704680Y-43630129D01*
X42692067Y-43651173D01*
X42677453Y-43670878D01*
X42660977Y-43689057D01*
X42642798Y-43705533D01*
X42623093Y-43720147D01*
X42602049Y-43732760D01*
X42579871Y-43743250D01*
X42556771Y-43751515D01*
X42532973Y-43757476D01*
X42508704Y-43761076D01*
X42484200Y-43762280D01*
X41234200Y-43762280D01*
X41209696Y-43761076D01*
X41185427Y-43757476D01*
X41161629Y-43751515D01*
X41138529Y-43743250D01*
X41116351Y-43732760D01*
X41095307Y-43720147D01*
X41075602Y-43705533D01*
X41057423Y-43689057D01*
X41040947Y-43670878D01*
X41026333Y-43651173D01*
X41013720Y-43630129D01*
X41003230Y-43607951D01*
X40994965Y-43584851D01*
X40989004Y-43561053D01*
X40985404Y-43536784D01*
X40984200Y-43512280D01*
X40984200Y-42762280D01*
X40985404Y-42737776D01*
X40989004Y-42713507D01*
X40994965Y-42689709D01*
X41003230Y-42666609D01*
X41013720Y-42644431D01*
X41026333Y-42623387D01*
X41040947Y-42603682D01*
X41057423Y-42585503D01*
X41075602Y-42569027D01*
X41095307Y-42554413D01*
X41116351Y-42541800D01*
X41138529Y-42531310D01*
X41161629Y-42523045D01*
X41185427Y-42517084D01*
X41209696Y-42513484D01*
X41234200Y-42512280D01*
X42484200Y-42512280D01*
X42508704Y-42513484D01*
G37*
G36*
X44794704Y-39713484D02*
G01*
X44818973Y-39717084D01*
X44842771Y-39723045D01*
X44865871Y-39731310D01*
X44888049Y-39741800D01*
X44909093Y-39754413D01*
X44928798Y-39769027D01*
X44946977Y-39785503D01*
X44963453Y-39803682D01*
X44978067Y-39823387D01*
X44990680Y-39844431D01*
X45001170Y-39866609D01*
X45009435Y-39889709D01*
X45015396Y-39913507D01*
X45018996Y-39937776D01*
X45020200Y-39962280D01*
X45020200Y-40712280D01*
X45018996Y-40736784D01*
X45015396Y-40761053D01*
X45009435Y-40784851D01*
X45001170Y-40807951D01*
X44990680Y-40830129D01*
X44978067Y-40851173D01*
X44963453Y-40870878D01*
X44946977Y-40889057D01*
X44928798Y-40905533D01*
X44909093Y-40920147D01*
X44888049Y-40932760D01*
X44865871Y-40943250D01*
X44842771Y-40951515D01*
X44818973Y-40957476D01*
X44794704Y-40961076D01*
X44770200Y-40962280D01*
X43520200Y-40962280D01*
X43495696Y-40961076D01*
X43471427Y-40957476D01*
X43447629Y-40951515D01*
X43424529Y-40943250D01*
X43402351Y-40932760D01*
X43381307Y-40920147D01*
X43361602Y-40905533D01*
X43343423Y-40889057D01*
X43326947Y-40870878D01*
X43312333Y-40851173D01*
X43299720Y-40830129D01*
X43289230Y-40807951D01*
X43280965Y-40784851D01*
X43275004Y-40761053D01*
X43271404Y-40736784D01*
X43270200Y-40712280D01*
X43270200Y-39962280D01*
X43271404Y-39937776D01*
X43275004Y-39913507D01*
X43280965Y-39889709D01*
X43289230Y-39866609D01*
X43299720Y-39844431D01*
X43312333Y-39823387D01*
X43326947Y-39803682D01*
X43343423Y-39785503D01*
X43361602Y-39769027D01*
X43381307Y-39754413D01*
X43402351Y-39741800D01*
X43424529Y-39731310D01*
X43447629Y-39723045D01*
X43471427Y-39717084D01*
X43495696Y-39713484D01*
X43520200Y-39712280D01*
X44770200Y-39712280D01*
X44794704Y-39713484D01*
G37*
G36*
X44794704Y-42513484D02*
G01*
X44818973Y-42517084D01*
X44842771Y-42523045D01*
X44865871Y-42531310D01*
X44888049Y-42541800D01*
X44909093Y-42554413D01*
X44928798Y-42569027D01*
X44946977Y-42585503D01*
X44963453Y-42603682D01*
X44978067Y-42623387D01*
X44990680Y-42644431D01*
X45001170Y-42666609D01*
X45009435Y-42689709D01*
X45015396Y-42713507D01*
X45018996Y-42737776D01*
X45020200Y-42762280D01*
X45020200Y-43512280D01*
X45018996Y-43536784D01*
X45015396Y-43561053D01*
X45009435Y-43584851D01*
X45001170Y-43607951D01*
X44990680Y-43630129D01*
X44978067Y-43651173D01*
X44963453Y-43670878D01*
X44946977Y-43689057D01*
X44928798Y-43705533D01*
X44909093Y-43720147D01*
X44888049Y-43732760D01*
X44865871Y-43743250D01*
X44842771Y-43751515D01*
X44818973Y-43757476D01*
X44794704Y-43761076D01*
X44770200Y-43762280D01*
X43520200Y-43762280D01*
X43495696Y-43761076D01*
X43471427Y-43757476D01*
X43447629Y-43751515D01*
X43424529Y-43743250D01*
X43402351Y-43732760D01*
X43381307Y-43720147D01*
X43361602Y-43705533D01*
X43343423Y-43689057D01*
X43326947Y-43670878D01*
X43312333Y-43651173D01*
X43299720Y-43630129D01*
X43289230Y-43607951D01*
X43280965Y-43584851D01*
X43275004Y-43561053D01*
X43271404Y-43536784D01*
X43270200Y-43512280D01*
X43270200Y-42762280D01*
X43271404Y-42737776D01*
X43275004Y-42713507D01*
X43280965Y-42689709D01*
X43289230Y-42666609D01*
X43299720Y-42644431D01*
X43312333Y-42623387D01*
X43326947Y-42603682D01*
X43343423Y-42585503D01*
X43361602Y-42569027D01*
X43381307Y-42554413D01*
X43402351Y-42541800D01*
X43424529Y-42531310D01*
X43447629Y-42523045D01*
X43471427Y-42517084D01*
X43495696Y-42513484D01*
X43520200Y-42512280D01*
X44770200Y-42512280D01*
X44794704Y-42513484D01*
G37*
G36*
X31651204Y-37485284D02*
G01*
X31675473Y-37488884D01*
X31699271Y-37494845D01*
X31722371Y-37503110D01*
X31744549Y-37513600D01*
X31765593Y-37526213D01*
X31785298Y-37540827D01*
X31803477Y-37557303D01*
X31819953Y-37575482D01*
X31834567Y-37595187D01*
X31847180Y-37616231D01*
X31857670Y-37638409D01*
X31865935Y-37661509D01*
X31871896Y-37685307D01*
X31875496Y-37709576D01*
X31876700Y-37734080D01*
X31876700Y-38984080D01*
X31875496Y-39008584D01*
X31871896Y-39032853D01*
X31865935Y-39056651D01*
X31857670Y-39079751D01*
X31847180Y-39101929D01*
X31834567Y-39122973D01*
X31819953Y-39142678D01*
X31803477Y-39160857D01*
X31785298Y-39177333D01*
X31765593Y-39191947D01*
X31744549Y-39204560D01*
X31722371Y-39215050D01*
X31699271Y-39223315D01*
X31675473Y-39229276D01*
X31651204Y-39232876D01*
X31626700Y-39234080D01*
X30701700Y-39234080D01*
X30677196Y-39232876D01*
X30652927Y-39229276D01*
X30629129Y-39223315D01*
X30606029Y-39215050D01*
X30583851Y-39204560D01*
X30562807Y-39191947D01*
X30543102Y-39177333D01*
X30524923Y-39160857D01*
X30508447Y-39142678D01*
X30493833Y-39122973D01*
X30481220Y-39101929D01*
X30470730Y-39079751D01*
X30462465Y-39056651D01*
X30456504Y-39032853D01*
X30452904Y-39008584D01*
X30451700Y-38984080D01*
X30451700Y-37734080D01*
X30452904Y-37709576D01*
X30456504Y-37685307D01*
X30462465Y-37661509D01*
X30470730Y-37638409D01*
X30481220Y-37616231D01*
X30493833Y-37595187D01*
X30508447Y-37575482D01*
X30524923Y-37557303D01*
X30543102Y-37540827D01*
X30562807Y-37526213D01*
X30583851Y-37513600D01*
X30606029Y-37503110D01*
X30629129Y-37494845D01*
X30652927Y-37488884D01*
X30677196Y-37485284D01*
X30701700Y-37484080D01*
X31626700Y-37484080D01*
X31651204Y-37485284D01*
G37*
G36*
X34626204Y-37485284D02*
G01*
X34650473Y-37488884D01*
X34674271Y-37494845D01*
X34697371Y-37503110D01*
X34719549Y-37513600D01*
X34740593Y-37526213D01*
X34760298Y-37540827D01*
X34778477Y-37557303D01*
X34794953Y-37575482D01*
X34809567Y-37595187D01*
X34822180Y-37616231D01*
X34832670Y-37638409D01*
X34840935Y-37661509D01*
X34846896Y-37685307D01*
X34850496Y-37709576D01*
X34851700Y-37734080D01*
X34851700Y-38984080D01*
X34850496Y-39008584D01*
X34846896Y-39032853D01*
X34840935Y-39056651D01*
X34832670Y-39079751D01*
X34822180Y-39101929D01*
X34809567Y-39122973D01*
X34794953Y-39142678D01*
X34778477Y-39160857D01*
X34760298Y-39177333D01*
X34740593Y-39191947D01*
X34719549Y-39204560D01*
X34697371Y-39215050D01*
X34674271Y-39223315D01*
X34650473Y-39229276D01*
X34626204Y-39232876D01*
X34601700Y-39234080D01*
X33676700Y-39234080D01*
X33652196Y-39232876D01*
X33627927Y-39229276D01*
X33604129Y-39223315D01*
X33581029Y-39215050D01*
X33558851Y-39204560D01*
X33537807Y-39191947D01*
X33518102Y-39177333D01*
X33499923Y-39160857D01*
X33483447Y-39142678D01*
X33468833Y-39122973D01*
X33456220Y-39101929D01*
X33445730Y-39079751D01*
X33437465Y-39056651D01*
X33431504Y-39032853D01*
X33427904Y-39008584D01*
X33426700Y-38984080D01*
X33426700Y-37734080D01*
X33427904Y-37709576D01*
X33431504Y-37685307D01*
X33437465Y-37661509D01*
X33445730Y-37638409D01*
X33456220Y-37616231D01*
X33468833Y-37595187D01*
X33483447Y-37575482D01*
X33499923Y-37557303D01*
X33518102Y-37540827D01*
X33537807Y-37526213D01*
X33558851Y-37513600D01*
X33581029Y-37503110D01*
X33604129Y-37494845D01*
X33627927Y-37488884D01*
X33652196Y-37485284D01*
X33676700Y-37484080D01*
X34601700Y-37484080D01*
X34626204Y-37485284D01*
G37*
D16*
X24528780Y-45892720D03*
D17*
X24528780Y-48432720D03*
D16*
X24528780Y-50972720D03*
X67063620Y-52984400D03*
X64523620Y-52984400D03*
X61983620Y-52984400D03*
X59443620Y-52984400D03*
X56903620Y-52984400D03*
X54363620Y-52984400D03*
X51823620Y-52984400D03*
X49283620Y-52984400D03*
X46743620Y-52984400D03*
X44203620Y-52984400D03*
X41663620Y-52984400D03*
X39123620Y-52984400D03*
X36583620Y-52984400D03*
X34043620Y-52984400D03*
X31503620Y-52984400D03*
D17*
X28963620Y-52984400D03*
X26423620Y-52984400D03*
M02*
