G04 #@! TF.GenerationSoftware,KiCad,Pcbnew,5.1.5+dfsg1-2build2*
G04 #@! TF.CreationDate,2021-06-16T02:42:27+02:00*
G04 #@! TF.ProjectId,circuit9,63697263-7569-4743-992e-6b696361645f,rev?*
G04 #@! TF.SameCoordinates,Original*
G04 #@! TF.FileFunction,Soldermask,Bot*
G04 #@! TF.FilePolarity,Negative*
%FSLAX46Y46*%
G04 Gerber Fmt 4.6, Leading zero omitted, Abs format (unit mm)*
G04 Created by KiCad (PCBNEW 5.1.5+dfsg1-2build2) date 2021-06-16 02:42:27*
%MOMM*%
%LPD*%
G04 APERTURE LIST*
%ADD10O,1.700000X1.700000*%
%ADD11R,1.700000X1.700000*%
%ADD12C,0.100000*%
%ADD13R,6.000000X3.000000*%
G04 APERTURE END LIST*
D10*
X61620400Y-35217100D03*
X59080400Y-35217100D03*
X56540400Y-35217100D03*
D11*
X54000400Y-35217100D03*
D10*
X51460400Y-35217100D03*
X48920400Y-35217100D03*
X46380400Y-35217100D03*
X43840400Y-35217100D03*
X41300400Y-35217100D03*
X38760400Y-35217100D03*
X36220400Y-35217100D03*
X33680400Y-35217100D03*
X31140400Y-35217100D03*
X28600400Y-35217100D03*
X26060400Y-35217100D03*
D12*
G36*
X50345200Y-40374000D02*
G01*
X49845200Y-40374000D01*
X49845200Y-40373398D01*
X49820666Y-40373398D01*
X49771835Y-40368588D01*
X49723710Y-40359016D01*
X49676755Y-40344772D01*
X49631422Y-40325995D01*
X49588149Y-40302864D01*
X49547350Y-40275604D01*
X49509421Y-40244476D01*
X49474724Y-40209779D01*
X49443596Y-40171850D01*
X49416336Y-40131051D01*
X49393205Y-40087778D01*
X49374428Y-40042445D01*
X49360184Y-39995490D01*
X49350612Y-39947365D01*
X49345802Y-39898534D01*
X49345802Y-39874000D01*
X49345200Y-39874000D01*
X49345200Y-39374000D01*
X49345802Y-39374000D01*
X49345802Y-39349466D01*
X49350612Y-39300635D01*
X49360184Y-39252510D01*
X49374428Y-39205555D01*
X49393205Y-39160222D01*
X49416336Y-39116949D01*
X49443596Y-39076150D01*
X49474724Y-39038221D01*
X49509421Y-39003524D01*
X49547350Y-38972396D01*
X49588149Y-38945136D01*
X49631422Y-38922005D01*
X49676755Y-38903228D01*
X49723710Y-38888984D01*
X49771835Y-38879412D01*
X49820666Y-38874602D01*
X49845200Y-38874602D01*
X49845200Y-38874000D01*
X50345200Y-38874000D01*
X50345200Y-40374000D01*
G37*
G36*
X51145200Y-38874602D02*
G01*
X51169734Y-38874602D01*
X51218565Y-38879412D01*
X51266690Y-38888984D01*
X51313645Y-38903228D01*
X51358978Y-38922005D01*
X51402251Y-38945136D01*
X51443050Y-38972396D01*
X51480979Y-39003524D01*
X51515676Y-39038221D01*
X51546804Y-39076150D01*
X51574064Y-39116949D01*
X51597195Y-39160222D01*
X51615972Y-39205555D01*
X51630216Y-39252510D01*
X51639788Y-39300635D01*
X51644598Y-39349466D01*
X51644598Y-39374000D01*
X51645200Y-39374000D01*
X51645200Y-39874000D01*
X51644598Y-39874000D01*
X51644598Y-39898534D01*
X51639788Y-39947365D01*
X51630216Y-39995490D01*
X51615972Y-40042445D01*
X51597195Y-40087778D01*
X51574064Y-40131051D01*
X51546804Y-40171850D01*
X51515676Y-40209779D01*
X51480979Y-40244476D01*
X51443050Y-40275604D01*
X51402251Y-40302864D01*
X51358978Y-40325995D01*
X51313645Y-40344772D01*
X51266690Y-40359016D01*
X51218565Y-40368588D01*
X51169734Y-40373398D01*
X51145200Y-40373398D01*
X51145200Y-40374000D01*
X50645200Y-40374000D01*
X50645200Y-38874000D01*
X51145200Y-38874000D01*
X51145200Y-38874602D01*
G37*
D10*
X26060400Y-50457100D03*
X28600400Y-50457100D03*
X31140400Y-50457100D03*
X33680400Y-50457100D03*
X36220400Y-50457100D03*
X38760400Y-50457100D03*
X41300400Y-50457100D03*
X43840400Y-50457100D03*
X46380400Y-50457100D03*
X48920400Y-50457100D03*
X51460400Y-50457100D03*
X54000400Y-50457100D03*
X56540400Y-50457100D03*
D11*
X59080400Y-50457100D03*
D10*
X61620400Y-50457100D03*
D13*
X67254000Y-27127200D03*
X26654000Y-27127200D03*
X61654000Y-27127200D03*
X32254000Y-27127200D03*
D10*
X69291200Y-40690800D03*
X69291200Y-38150800D03*
X69291200Y-35610800D03*
D12*
G36*
X50710400Y-47409200D02*
G01*
X50710400Y-46909200D01*
X50711002Y-46909200D01*
X50711002Y-46884666D01*
X50715812Y-46835835D01*
X50725384Y-46787710D01*
X50739628Y-46740755D01*
X50758405Y-46695422D01*
X50781536Y-46652149D01*
X50808796Y-46611350D01*
X50839924Y-46573421D01*
X50874621Y-46538724D01*
X50912550Y-46507596D01*
X50953349Y-46480336D01*
X50996622Y-46457205D01*
X51041955Y-46438428D01*
X51088910Y-46424184D01*
X51137035Y-46414612D01*
X51185866Y-46409802D01*
X51210400Y-46409802D01*
X51210400Y-46409200D01*
X51710400Y-46409200D01*
X51710400Y-46409802D01*
X51734934Y-46409802D01*
X51783765Y-46414612D01*
X51831890Y-46424184D01*
X51878845Y-46438428D01*
X51924178Y-46457205D01*
X51967451Y-46480336D01*
X52008250Y-46507596D01*
X52046179Y-46538724D01*
X52080876Y-46573421D01*
X52112004Y-46611350D01*
X52139264Y-46652149D01*
X52162395Y-46695422D01*
X52181172Y-46740755D01*
X52195416Y-46787710D01*
X52204988Y-46835835D01*
X52209798Y-46884666D01*
X52209798Y-46909200D01*
X52210400Y-46909200D01*
X52210400Y-47409200D01*
X50710400Y-47409200D01*
G37*
G36*
X52209798Y-48209200D02*
G01*
X52209798Y-48233734D01*
X52204988Y-48282565D01*
X52195416Y-48330690D01*
X52181172Y-48377645D01*
X52162395Y-48422978D01*
X52139264Y-48466251D01*
X52112004Y-48507050D01*
X52080876Y-48544979D01*
X52046179Y-48579676D01*
X52008250Y-48610804D01*
X51967451Y-48638064D01*
X51924178Y-48661195D01*
X51878845Y-48679972D01*
X51831890Y-48694216D01*
X51783765Y-48703788D01*
X51734934Y-48708598D01*
X51710400Y-48708598D01*
X51710400Y-48709200D01*
X51210400Y-48709200D01*
X51210400Y-48708598D01*
X51185866Y-48708598D01*
X51137035Y-48703788D01*
X51088910Y-48694216D01*
X51041955Y-48679972D01*
X50996622Y-48661195D01*
X50953349Y-48638064D01*
X50912550Y-48610804D01*
X50874621Y-48579676D01*
X50839924Y-48544979D01*
X50808796Y-48507050D01*
X50781536Y-48466251D01*
X50758405Y-48422978D01*
X50739628Y-48377645D01*
X50725384Y-48330690D01*
X50715812Y-48282565D01*
X50711002Y-48233734D01*
X50711002Y-48209200D01*
X50710400Y-48209200D01*
X50710400Y-47709200D01*
X52210400Y-47709200D01*
X52210400Y-48209200D01*
X52209798Y-48209200D01*
G37*
D10*
X69291200Y-45872400D03*
D11*
X69291200Y-48412400D03*
D10*
X69291200Y-50952400D03*
X26060400Y-52984400D03*
X28600400Y-52984400D03*
X31140400Y-52984400D03*
X33680400Y-52984400D03*
X36220400Y-52984400D03*
X38760400Y-52984400D03*
X41300400Y-52984400D03*
X43840400Y-52984400D03*
X46380400Y-52984400D03*
X48920400Y-52984400D03*
X51460400Y-52984400D03*
X54000400Y-52984400D03*
X56540400Y-52984400D03*
X59080400Y-52984400D03*
X61620400Y-52984400D03*
D11*
X64160400Y-52984400D03*
X66700400Y-52984400D03*
M02*
