M48
; DRILL file {KiCad 5.1.5+dfsg1-2build2} date Di 15 Jun 2021 21:01:16 CEST
; FORMAT={-:-/ absolute / inch / decimal}
; #@! TF.CreationDate,2021-06-15T21:01:16+02:00
; #@! TF.GenerationSoftware,Kicad,Pcbnew,5.1.5+dfsg1-2build2
; #@! TF.FileFunction,Plated,1,2,PTH
FMAT,2
INCH
T1C0.0157
T2C0.0394
T3C0.0728
%
G90
G05
T1
X1.1055Y-1.6496
X1.1385Y-1.6496
X1.1942Y-1.65
X1.2278Y-1.6498
X1.2873Y-1.575
X1.2873Y-1.7
X1.355Y-1.6324
X1.4086Y-1.5806
X1.4086Y-1.8064
X1.47Y-1.65
X1.56Y-1.65
X1.65Y-1.65
X1.74Y-1.65
X1.76Y-1.84
X1.985Y-1.65
X2.035Y-1.65
X2.4Y-1.505
X2.4Y-1.645
X2.43Y-1.505
X2.43Y-1.645
X2.57Y-1.775
T2
X0.9657Y-1.8068
X0.9657Y-1.9068
X0.9657Y-2.0068
X1.24Y-1.3865
X1.34Y-1.3865
X1.44Y-1.3865
X1.54Y-1.3865
X1.64Y-1.3865
X1.74Y-1.3865
X1.84Y-1.3865
X1.94Y-1.3865
X2.04Y-1.3865
X2.14Y-1.3865
X2.24Y-1.3865
X2.34Y-1.3865
X2.44Y-1.3865
X2.54Y-1.3865
X2.64Y-1.3865
X1.24Y-1.9865
X1.34Y-1.9865
X1.44Y-1.9865
X1.54Y-1.9865
X1.64Y-1.9865
X1.74Y-1.9865
X1.84Y-1.9865
X1.94Y-1.9865
X2.04Y-1.9865
X2.14Y-1.9865
X2.24Y-1.9865
X2.34Y-1.9865
X2.44Y-1.9865
X2.54Y-1.9865
X2.64Y-1.9865
X0.9654Y-1.4069
X0.9654Y-1.5069
X0.9654Y-1.6069
X1.0403Y-2.086
X1.1403Y-2.086
X1.2403Y-2.086
X1.3403Y-2.086
X1.4403Y-2.086
X1.5403Y-2.086
X1.6403Y-2.086
X1.7403Y-2.086
X1.8403Y-2.086
X1.9403Y-2.086
X2.0403Y-2.086
X2.1403Y-2.086
X2.2403Y-2.086
X2.3403Y-2.086
X2.4403Y-2.086
X2.5403Y-2.086
X2.6403Y-2.086
T3
X1.0088Y-1.077
X1.308Y-1.077
X2.3868Y-1.077
X2.686Y-1.077
T0
M30
